<?xml version="1.0" encoding="UTF-8"?>
<svg id="g-neighborhoods-tablet-hamilton-img" xmlns="http://www.w3.org/2000/svg" baseProfile="tiny" version="1.2" viewBox="0 0 600 688.591">
  <!-- Generator: Adobe Illustrator 29.1.0, SVG Export Plug-In . SVG Version: 2.1.0 Build 142)  -->
  <path id="hamilton" d="M391.63,259.28l1.26.692,3.157,1.743,1.18.644,1.032.625,1.649.885,2.192,1.209-1.964,6.078-1.763,5.573-2.702,5.168-2.755,4.992-2.789,5.05-2.782,5.016-2.782,5.019-2.775,4.983-2.903,5.213-3.03,5.24-1.911,2.741-1.656,2.372-3.332,4.655-3.399,4.763-3.406,4.71-5.638-3.099-7.119-3.958-5.182-2.856-2.802,5.012-8.48-4.717-2.789,5.063-2.769,4.99-12.77-7.011-4.069-2.25-.603-.336-.603-.332-11.825-6.598-.208-.119-.241-.105-3.499-1.517-1.073-.224-1.924-.362-1.562-.294-.422-.099-.429-.098-1.16-.383-10.612-8.426.758-1.507.127.062,9.553-18.999,1.093-2.171,1.904.943,3.861-7.623.724.347-.02.034-.127.218,7.273,3.684,2.092-4.078.959.459.469-.91h0s.148-.263.148-.263l.489-.898.543-.959.342-.573.288-.431.201-.263.463-.556.174-.228.074-.102.214-.327.194-.338,2.226-4.139,3.767-8.017,4.84-9.588,1.669-2.767.644-1.653.932-1.233.637-1.27,1.441-2.789.771-1.289.268-1.167.583-1.122.067-.808.201-.955.342-1.154.536-1.216.355-.646.489-.631.282-.477.69-1.108.342-.785.181-.477.215-.785.188-.354.476-.662.342-.723.442-.37.825.414.892.43.469.154.396.235.744.364.999.502,1.019.489,2.252-.567.422-.106,3.855,1.612,14.426,8.542.623.331.644.355,16.813,9.304,9.888,5.461,1.79,1,4.478,2.492" vector-effect="none" fill="#0c3275" fill-rule="evenodd" stroke="#232323" stroke-linecap="square" stroke-linejoin="bevel" stroke-width=".737"/>
  <g>
    <path d="M261.032,230.495c22.519,16.302,17.161,12.401,34.747,25.141" fill="none" stroke="#000" stroke-linecap="round" stroke-linejoin="round" stroke-width="2"/>
    <path d="M305.554,262.72c-5.836-1.625-13.653-2.845-19.424-2.323l8.365-5.686,2.791-9.72c1.304,5.647,4.903,12.692,8.268,17.729Z"/>
  </g>
<style>
#g-neighborhoods-tablet-hamilton-img rect, #g-neighborhoods-tablet-hamilton-img circle, #g-neighborhoods-tablet-hamilton-img path, #g-neighborhoods-tablet-hamilton-img line, #g-neighborhoods-tablet-hamilton-img polyline, #g-neighborhoods-tablet-hamilton-img polygon { vector-effect: non-scaling-stroke; }
</style>
</svg>
