<?xml version="1.0" encoding="UTF-8"?>
<svg id="g-neighborhoods-mobile-morningside-img" xmlns="http://www.w3.org/2000/svg" baseProfile="tiny" version="1.2" viewBox="0 0 300 430.431">
  <!-- Generator: Adobe Illustrator 29.1.0, SVG Export Plug-In . SVG Version: 2.1.0 Build 142)  -->
  <path id="morningside" d="M156.976,251.44l-4.654-2.578-1.73-.972-3.626-5.406-1.624-2.503-1.779,3.203-2.635-3.842-.102-.157-.201-.303-2.125-3.195-1.198-1.801-.088-.134-.218-.334-.201-.276-.123-.174-3.545-5.137-3.851-2.133-1.075-.586-1.187-.718-.602-.39-.197-.127-.166-.114-.423-.239-.261-.103-.423-.166-2.22,3.048-1.177,1.538-.137.217-.891,1.15-2.375,3.874-.592,1.099-2.48,5.065-.042.187-.772,1.426-.458.815v.003l-.546,1.054-.43.723-.292.543-.719,1.432-.169.202-.384.751-.366.702-.444.8-.335.556-.373.73-.43.883-.13.354-.257.605-.123.118-.289.563-.874,1.551-.458,1.057-.247.605v.194l-.152.146-.12.264-.056.229-.236.285-.275.521-.007.181-.25.431-.553,1.084.049.16-.116.174-.278.438-.599,1.14-.123.32-.261.737-.042.307-.338.465-.613.897-.208.515-.56.852-.067.101-1.445,2.593-.687,1.147-.356.681-1.064,1.822-.81,1.322-2.072,3.541.388.2.472.244.25.119.226.115,2.924,1.399,3.805,1.822.155.074.208.09,1.441.63,4.017,2.02.328.166.335.19,1.364.755.451.251,1.519.839.444.247,3.499,1.933,1.55.859,8.981,4.969,4.616,2.731,1.61-2.918,1.48-2.658,1.416-2.703.144-3.344-.102-2.133-.025-.533-.042-.812-.099-1.889-.018-.489.046-.487.109-.476.173-.458,1.504-2.896.085-.148,1.325-2.394.06-.112,1.483-2.672,1.05-1.885.095-.167.261-.469.081-.144,1.483-2.67,1.462-2.662,1.494-2.698,4.485,2.493.965-1.711.638-.91,1.571-2.85,1.579-2.876" vector-effect="none" fill="#618acf" fill-rule="evenodd" stroke="#232323" stroke-linecap="square" stroke-linejoin="bevel" stroke-width=".25"/>
  <g>
    <path d="M83.385,230.12c11.94,8.644,8.969,6.48,18.511,13.394" fill="none" stroke="#000" stroke-linecap="round" stroke-linejoin="round"/>
    <path d="M106.785,247.057c-2.918-.812-6.826-1.423-9.712-1.162l4.183-2.843,1.396-4.86c.652,2.824,2.451,6.346,4.134,8.865Z"/>
  </g>
<style>
#g-neighborhoods-mobile-morningside-img rect, #g-neighborhoods-mobile-morningside-img circle, #g-neighborhoods-mobile-morningside-img path, #g-neighborhoods-mobile-morningside-img line, #g-neighborhoods-mobile-morningside-img polyline, #g-neighborhoods-mobile-morningside-img polygon { vector-effect: non-scaling-stroke; }
</style>
</svg>
