<?xml version="1.0" encoding="UTF-8"?>
<svg id="g-neighborhoods-tablet-council-img" xmlns="http://www.w3.org/2000/svg" baseProfile="tiny" version="1.2" viewBox="0 0 600 688.591">
  <!-- Generator: Adobe Illustrator 29.1.0, SVG Export Plug-In . SVG Version: 2.1.0 Build 142)  -->
  <g>
    <path d="M247.025,382.962l2.328.86.057.093.029.112-.014.117-.121.202.507-.062.257.144.193.109,4.521,2.542,3.178,1.758.286.157.271.149,2.55,1.409,1.014-1.826,6.285,3.486,1.571.873,2.685,1.488,2.021,1.12-1.021,1.821,4.007,2.207,2.293,1.278-1.014,1.814-1.014,1.821-1.007,1.814-1.007,1.821-1.029,1.85-.986,1.786-.986,1.871-.95,1.821-.636-.35-.443,2.093-.621,2.086-.636,2.021-.657,2.193-.521,2.25-.5,2.078-.493,2.071-.486,2.078-.4,2.128-.343,2.15-.293,2.207-.35,2.343-.079,1.057-.143,1.364-.307,2.136,5.928,3.3-1,1.793-.986,1.793-1,1.8-1,1.8,3.543,1.957-1,1.8-.993,1.8-1.014,1.828-1.043,1.786-.621,1.164-.386.743-.743-.414-1.786-1-.579,2.228-.429,2.114-.4,2-.264,1.286-.164.75-.364,1.986-.464,1.928-4.185-2.286-.95,1.707-1.028,1.857-4.814-2.657-1.15-.621-1.164-.657-1.1,1.993-1.107,2.014-1.036,1.836-1.029,1.878-.571,1.021-.407.743-1.043,1.871-.814,1.536-.45.786-.678,1.2-.986,1.786-.978,1.771-1.014,1.864-.6,1.407-1.05,2.393-.1.3-.714,1.878-.571,1.664-.071.214-.5,1.286-.286.743-.35,1.207-.071.243-.186.6-.628,2.064-.264.85-.4,1.293-1.157-.136-2.714-.329-1.564-.193-2.364-.293-.029.221-1.75-.229-1.1-.143-.55-.064-1.807-.214-2.093-.286-.229-.029-.257-.057-.4-.057-.693-.107.021-.157-.379-.129-7.521-1.286.043-.243,1.807.25,1.971.257,2.371.293,1.778.207.35-5.178-6.649-.679.1-.464.279-2.621.314-3.25-.021-.064.107-.093.05.036,6.314.678.157-2.336.043-.578.171-2.528.114-1.993-1.15-.064-5.621-.114.007-.771,6.849.107.007-.157.179-.043.136-.114.05-.107.014-.121-.036-.121-.064-.1-.207-.129.079-1.171-2.621-.164.036-.8,2.628.157.057-.771.171-2.364.15-1.993-.079-.021.014-.136-.036-.036-.064-.093-.036-.114.007-.114.043-.1.121-.121v-.136l.079.007.114-1.821.114-1.814.086-1.364-1.35-.079.043-.614-.1-.114-.057-.136.157-.007.029.007.007-.021,1.321.093.057-.986.079-1.371-.236.007-.121-.043-.421.036-1.421-.121-.214-.129-.214-.007-.014-.021v-.607l-.1-.079.014-.164.157.021.064-.929.029-.286.121-1.778-1.543-.064.007-.193-1.114-.071-.007-.143.193.014v.021l2.428.136.221-.107,1.45.114,2.407.114.3-.236.007-.043-.05-.093-.007-.093.036-.064.086-.214.114-.736-.279-.279-.279-.143.1-.186-1.307-.707-.386.607-2.236-1.236,1.229-2.25,1.214.693.364-.629,1.778.964.093-.179.193.036.086-.593.136-1.136-.329-.036v-.043l-.836-.107.114-.893-.036-.014-5.607-.743-.043-.043-.021-.079.129-.986.043-.071.107-.05.1.014,5.45.757.05-.057.114-.807.1.014.778.1.314.043.214-1.514.164-1.221-.007-.064-.464-.079-1.4-.243-.086-.014.121-.85-.793-.114-.043.036-.007.057-.007.086-.021.121-.014.129-.021.15-.014.1-.014.129-.021.129-.014.15.021.029.257.036v.05l-.657-.079.007-.064.243.029.036-.021.036-.243.021-.157.014-.093.014-.143.014-.114.021-.15.014-.093.007-.057-.036-.036-1.057-.15-.043.036-.007.057-.014.086-.014.107-.014.143-.021.157-.014.1-.007.05-.043.35.036.029.257.029-.007.05-.764-.079.007-.057.343.036.05-.029.036-.336.014-.086.029-.25.021-.207.014-.121.007-.05-.036-.029-1.236-.164-.029.036-.014.171-.014.1-.021.164-.014.121-.021.2-.007.086-.029.2.043.029.243.021v.043l-.764-.079.007-.043.343.036.043-.279.014-.071.036-.25.014-.1.036-.2.029-.179-.029-.043-1.271-.171-.121,1.064.029.057.25.021v.036l-.371-.036.143-1.157.007-.079.007-.079-.036-.064.143-.986.014-.064.071-.05h.1l2.386.314.007-.093.936.136v.043l.407.064-.007.057,1.071.143.029-.193.021-.186.014-.1.021-.186.014-.093.029-.2.007-.1.029-.186.007-.093.014-.079.007-.071.029-.214-4.8-.678-.071-.029-.057-.064.007-.079.129-.986.043-.05.064-.021.086.014,4.864.65.236-1.736-.936-.121v.043h-.014v.043l.036.007v.086l-.914-.107.014-.1.114.014.014-.093-3.221-.45-.086-.05-.021-.057.129-1.007.036-.071.064-.043.079.007,4.885.664.25-1.821-.079-.007v.036l-.2-.021-.007.043-.757-.1v-.021l-.236-.036.007-.071-3.643-.5-.064-.036-.043-.064v-.05l.143-.957.043-.05.05-.021.071-.007,2.493.35.857-3.021.678-.043.336-1.121-3.478-1.893.25-.871,3.457,1.957.65-2.264-.057-.114.143-.471.1-.071.2-.671-.507-.186-.843-.436.036-.057.843.45.207.071.014-.05-.714-.35.021-.043-.179-.1-.021.021-.129-.064v-.007l.107-.207.136.071-.021.036.171.093.029-.057.536.3.186.1.021-.05-.186-.086-1.5-.821.029-.05,1.878,1.028.121-.4-.871-.486.036-.057-.079-.043-.029.05-2.243-1.228.043-.064-.093-.05-.043.064-.186-.1.157-.278-.107-.064.107-.207.293.164-.221.393.107.05.021-.021,2.214,1.228-.014.029.093.057.236-.414.736.414.757-2.628.243-.836.364-1.25.257-.9-.271-.157.329-.564.271.157.393-.721.021-.036-.286-.15.314-.571.279.15.414-.721.336-.614.229-.407.279-.507.229-.414.593-1.078.229-.407.3-.571.093-.186.257-.493.864-1.55.457.264.9-1.678-.364-.214-.686-.421.55-.957-4.278-2.336-.064-.043-.036-.086.014-.079,1.05-1.871.05-.05h.071l.071.007.279.136,4.007,2.207.657-1.214.664.371.221-.393-.607-.336-.364-.214.093-.179.121-.221-.214-.143-.029.029-.136-.1.114-.143.129.1-.029.036.2.15.05-.093.978.543.207-.407-.786-.457.229-.379.529-.928.443-.8.557-1.021.771.436.993-1.786-4.885-2.757-.029-.05.007-.043.236-.407.05-.036.057.014,4.864,2.743.914-1.65.564-1.014-4.921-2.728.321-.564,4.921,2.693.914-1.657-4.814-2.657.45-.821-.25-.143-.164.05-.057.107-.136-.079.143-.264.071-.043h.079l4.478,2.493.736.386,1.778,1.014.636-.479.036.036.236-.429.157-.293.029-.05.621-1.114-6.907-3.835-.029-.106.514-.918.071-.046,6.242,3.462.2.114.493.271.686-1.246-.05-.217-.079-.036-.071-.054-.043-.096-.021-.109.014-.099.05-.083.071-.067.1-.046.236-.062.1-.054.079-.101.093-.196.15-.299.043-.091-.021-.045-7.207-4.004-.071-.094.029-.056.371-.679.064-.056.107-.005.05.028,6.935,3.918.014-.034.186.099.764-1.388.757-1.379-7.185-4.012-.05-.05v-.072l.429-.753.086-.024.071.024,7.142,3.999.75-1.372.793-1.448-7.235-3.997-.014-.095.4-.711.086-.049.1.009,5.307,3,.1-.183-.278-.151.307-.527.264.143.707-1.293-5.428-3.02.586-1.051,5.414,2.983M218.156,463.253l-1.586-.886-.243.45.828.486-.757,1.436,1.314.728.107-.186.357.186.029-.257.157-1.071.086-.557-.393-.171.1-.157" vector-effect="none" fill="#bababa" fill-rule="evenodd" stroke="#232323" stroke-linecap="square" stroke-linejoin="bevel" stroke-width=".737"/>
    <path d="M276.951,454.475l.121.064.993-1.793.986-1.8.157.086,3.435,1.9-.993,1.793,3.535,1.957,4.057,2.243.343.193.686.386-.986,1.793-1.057,1.743-1.071,1.786-.993,1.807,1.636.943.571.329.678.393.621.329.307.157,1.421.75-.993,1.786-.993,1.786-1,1.814-1,1.793-1.078,1.943-.071.607-.743,1.493-.971,1.778-.25.471-.143.243-.579,1.007-.664,1.214-.257.457-.386.7-.586,1.064-.543.993-.371.657-.464.836-.507.893-.679,1.2-.364.65-.778,1.407-.143.25-.379.179.193.1,1.243.643.536.279,2.935,1.614.921.529,1.8,1.021,2.393,1.386,1.078.6,1.407.786,1.564.857.85.414.321.164,5.242,3.007,2.757,1.593.164.143.143.114.121.093.136.136.371.243-.093.693-.057.436-.05.35-.043.35-.064.486-.014.036-.036.021h-.057l-.093.671-.036.236-.021.229-.057.386-.05.336-.014.05-.05.343-.093.578-.071.457-.064.364-.014.064-.021.114-.007.086-.029.129-.129.736-.021.114-.114.586-.036.243-.071.386-.129.729-.079.443-.086.471-.25,1.314-.836,4.678-.686,3.635-.821,3.607-.764,2.921-.829,2.9-.893,2.878-.957,2.864-2.385-.936-.236-.093-.05.129-.121-.043-.121-.05-.221-.079-.136-.05-1.678-.678-1.4-.579-.4-.15-.271-.114-.25-.193-.121-.036-.136-.05-1.05-.429-.5-.207-.871-.336-.279-.121-.243-.093-.921-.364-.229-.093-.664-.271-1.871-.743-1.871-.75-1.757-.678-1.95-.793.036-.093.086-.229,1.321-3.357,1.314-3.357-1.114-.443-.193-.079-.55-.214-1.85-.75-1.864-.736-1.85-.743,1.328-3.385.086-.221-.757-.336-.943-.414-1.878-.657-1.614-.664-1.5-.6-.214-.086-.264-.107-1.4-.593-1.95-.736-1.664-.65-.55-.229-.179-.071-1.871-.75-.736-.3-.157-.064-.15-.064-1.736-.793-1.6-.757-1.614-.75-.929-.386-1.143-.364-2.05-.65-1.857-1.064-1.657-1.078-1.678-1.086-1.764-1.143-1.586-1.021-1.671-1.086-1.678-1.093-.607-.407-.443-.3-.214-.129-.214-.114.071-.214.571-1.664.714-1.878.1-.3,1.05-2.393.6-1.407,1.014-1.864.978-1.771.986-1.786.678-1.2.45-.786.814-1.536,1.043-1.871.407-.743.571-1.021,1.029-1.878,1.036-1.836,1.107-2.014,1.1-1.993,1.164.657,1.15.621,4.814,2.657,1.028-1.857.95-1.707,4.185,2.286.464-1.928.364-1.986.164-.75.264-1.286.4-2,.429-2.114.579-2.228,1.786,1,.743.414.386-.743.621-1.164,1.043-1.786,1.014-1.828.993-1.8,1-1.8-3.543-1.957,1-1.8,1-1.8.986-1.793,3.543,1.964,3.457,1.914" vector-effect="none" fill="#bababa" fill-rule="evenodd" stroke="#232323" stroke-linecap="square" stroke-linejoin="bevel" stroke-width=".737"/>
    <path d="M313.098,529.925l-.143.143.143.071v.071l.214.143h.071l-.071.143,1.357,1-.071.071-1.286-1-.071.143-.571-.429.214-.286.071.071.071-.143v-.286l-.071-.071h-.071v-.143h.071l.071-.071h.071v.071l.071.071-.071.071v.357h0" vector-effect="none" fill="#bababa" fill-rule="evenodd" stroke="#232323" stroke-linecap="square" stroke-linejoin="bevel" stroke-width=".737"/>
    <path d="M317.983,525.961l-.071.107-1.5-2.471.236-.114,1.421,2.357-.086.121" vector-effect="none" fill="#bababa" fill-rule="evenodd" stroke="#232323" stroke-linecap="square" stroke-linejoin="bevel" stroke-width=".737"/>
    <path d="M311.548,532.639l1.3.871-.071.136-1.3-.893-.021.036-.25-.143.164-.293.107-.2.25.129-.043.093-.136.264" vector-effect="none" fill="#bababa" fill-rule="evenodd" stroke="#232323" stroke-linecap="square" stroke-linejoin="bevel" stroke-width=".737"/>
    <path d="M316.669,525.426l1.05.928-.079.1-1.036-.971-.136.164-.236-.207.221-.264.171-.207.221.221-.179.236" vector-effect="none" fill="#bababa" fill-rule="evenodd" stroke="#232323" stroke-linecap="square" stroke-linejoin="bevel" stroke-width=".737"/>
    <path d="M316.233,526.647l-.186.171-1.243-1.05.179-.193,1.25,1.071" vector-effect="none" fill="#bababa" fill-rule="evenodd" stroke="#232323" stroke-linecap="square" stroke-linejoin="bevel" stroke-width=".737"/>
    <path d="M318.454,525.176l-.086.236-.686-.557.15-.186.621.507" vector-effect="none" fill="#bababa" fill-rule="evenodd" stroke="#232323" stroke-linecap="square" stroke-linejoin="bevel" stroke-width=".737"/>
    <path d="M317.804,397.823l-1.014,1.821-1.007,1.814-1.007,1.828-1.014,1.814-1.007,1.828-1,1.828,4.942,2.728,1.764.971,3.471,1.943,4.978,2.743,1.536.843,1-1.857.221.143.393-.736.086-.15.25.136.257.136-.121.15-.514.65-.65.964-.221.221-.021.021-1.05,1.736-.014.143-.829,1.414-.721,1.321-.643,1.007-.314.35h0l-.507.564-1.328,1.328-1.121,1.686-.129.2-.086-.05-1.007,1.507-.464.693.064.064-.643.964-1.271,1.828-2.15,3.093-.521.75-.836,1.207-5.721,8.949-.457.707-.121.171-.136.221-.286.457.293.193-.143.214-.007.036-.007.029-.029-.007-.021.064-.05.036-.029.064-.086.15-.071.107-.071.107-.029.057-.05.086-.036.036-.043.093-.021.036-.1.129v.029l-.021.036-.021.021-.014.043-.05.057-.057.093-.014.036-.05.079-.021.021-.014.036-.093.136-.421.65-.05-.036-.021.007-.029.064-.029.014-.007.029-.029.029-.007.029-.114.171-.129.207-.179.286-.05.064-.029.043-.007.029-.171.271-.014.007-.014.021-.093.164-.043.05v.014l-.036.05-.036.057-.064.1-.129.214-.064.093-.107.164-.057.1-.014.014-.143.221v.029l-.4.614-.064-.036-.014.014-.043-.029.007-.014-.1-.086-.164.271-.093.15-.086.136-.193.307-.271.436.029.036v.043l-.114.207-.143.236-.043.014h-.021l-.079.121-.136.264-.121.221-.364.729-.15-.079-.05-.036-.029-.007-.014-.021h-.029l-.014-.021h-.029l-.021-.021-.093.186-.071.136-.221.45.736.457h.007l.043.021.014.029.079.043.021.036.007.036-.043.064-.043.057h-.014l-.029.021-.064-.043-.014.014-.086-.05h0l-.086-.057-.186-.107-.007.007-.464-.243-.021.007-.057.114-.143.293-.186.364.271.157.064.043-.171.343-.164.329-.307.593-.314.636-.093.179-.464.964.279.15.05.029-.071.136-.414.807-.193,1.307-.05.293-.064.479-.114.686-.1.707-.193,1.178-.014.05.171.029.043.007.029.007.029.043.007.05v.007l-.107.714-.029.029-.021.014v.021l.086.007-.043.279-.114-.021v.014l.036.029.007.021-.114.75-.021.043-.043.029-.243-.036-.478,2.321v.136l.014.343.014.121v.171l-.007.329.036.164v.143l.007.093v.329l.014.214.007.171-.021.179-.021.014v.05l.021.029.007.364-.014.036-.007.021.029.021.007.5.007.043.021.264-.029.071.014.05.014.221-.021.064.021.386.036,2.607.014.071.007.157.014.129.036.543-.014.043.164,1.864-.043.05-.793.05-3.421-1.871-.1.35.093.05.014-.029.029.007.821.457-.043.079-.85-.471.007-.014-.086-.036-.086.621.064.007.079.036.014-.007.65.286-.021.057-.657-.286v-.014l-.071-.014h-.057l-.021.429.014.286.043-.229.086.021-.029.107.471.1.007.05-.029.043-.464-.093v.029h-.014l.007.179.014.171h.164v-.014h.286l-.007-.014.164-.007.007.057.071.007.021-.043.121.093.007-.014,1.486.807-.05.079.35.193.5.279.55-1.007-.286-.214.014-.029.371.3-.521.928.071.05.071-.107.107.071.043-.093.064.036-.243.393-.05-.036.05-.086-.107-.064.05-.079-.071-.05-.071.129-.578-.329-.05.114.007.021.043.057.043.079.014.086-.014.114-.043.114-.071.086-.086.064-.107.05-.093.007-.143-.014-.043.086-1.986-1.078.036.236.029.164.05.25.036.179.05.257.079.407.1.5.029.186.1.471.064.3.029.179.043.221.1.493.1.536.086.429.064.314.071.386.036.057.021.107.064.043.007.071.021.05.057-.007.007.057.021.029.021.05-.05.05.021.093.036-.014-.021-.036.043-.036.05-.014.057.064-.043.043.043.036.043-.036.05.014.029-.036.043.021.043-.014.029.036-.043.029.007.064-.05.014-.021.029-.029.05-.043.007-.05.043-.057.014-.029.057-.05-.007-.071.021.014.086.214,1.1.207,1.1.064.386.043.2.043.186.15.814.043.214.243,1.186.064.136.036.043.057.107.05.079.079.129.107.164.079.114.121.164.1.136.1.136.107.129.193.214.193.2.186.214.229.243.186.186.179.171.043.043.279.257.207.193.014.014.321.314.079.093.093.121.107.129.136.2.1.164.057.086.186.3.007.021.093.2.164.314.114.257.129.343.021.079.064.214.05.236.036.214.014.093.029.2.021.336.007.25.007.214-.036.436-.014.243-.057.421-.007.064-.036.321-.086.6-.1.871-.029.029-.007.136-.036.021-.064-.036-.036.007-.036.014-.079.693.221.029h.057l.05.007.036.021.021.036h.043l.007.071-.307,2.093-.371-.243-.136-.136-.121-.093-.143-.114-.164-.143-2.757-1.593-5.242-3.007-.321-.164-.85-.414-1.564-.857-1.407-.786-1.078-.6-2.393-1.386-1.8-1.021-.921-.529-2.935-1.614-.536-.279-1.243-.643-.193-.1.379-.179.143-.25.778-1.407.364-.65.679-1.2.507-.893.464-.836.371-.657.543-.993.586-1.064.386-.7.257-.457.664-1.214.579-1.007.143-.243.25-.471.971-1.778.743-1.493.071-.607,1.078-1.943,1-1.793,1-1.814.993-1.786.993-1.786-1.421-.75-.307-.157-.621-.329-.678-.393-.571-.329-1.636-.943.993-1.807,1.071-1.786,1.057-1.743.986-1.793-.686-.386-.343-.193-4.057-2.243-3.535-1.957.993-1.793-3.435-1.9-.157-.086-.986,1.8-.993,1.793-.121-.064-3.457-1.914-3.543-1.964,1-1.793-5.928-3.3.307-2.136.143-1.364.079-1.057.35-2.343.293-2.207.343-2.15.4-2.128.486-2.078.493-2.071.5-2.078.521-2.25.657-2.193.636-2.021.621-2.086.443-2.093.636.35.95-1.821.986-1.871.986-1.786,1.029-1.85,1.007-1.821,1.007-1.814,1.014-1.821,1.014-1.814,2.35,1.3.179.1,3.735,2.078,1.021-1.828,1-1.8,1.078-1.978,1.093-1.951,1.036-1.975,4.514,2.526,1.236.686,1.371.843,1.021-1.8,1-1.8,1-1.818,1.021-1.826,1.007-1.813.986-1.836,1.014-1.806.678-1.219.336-.597,1.014-1.833,1.029-1.79.986-1.835,1.014-1.829,1.093-1.992,1.114-1.976,1.021-1.84,1.021-1.844,1.021-1.853,1.021-1.841,1.014-1.841,1.029-1.863.079-.159,1.093-1.953.214-.381.807-1.468,1.029-1.844,1.028-1.853,1.036-1.878,1.014-1.824,1.093-1.941,1.093-2.003.993-1.804,1.014-1.826.978-1.809,1.021-1.831,1.036-1.833,1.043-1.851.878.491,2.643,1.491-1.014,1.825-1.007,1.819,3.314,1.855.243.125.243.141,2.257,1.241.071.039,1.007.556-1.014,1.823-1.014,1.823-1,1.828-1.021,1.827,3.535,1.963-.486.885-.1.177-.493.899-1.107,1.988-1.021,1.846-1.021,1.848-1.014,1.838-1.028,1.848-.55.993-.471.853-1.1,1.986-1.107,1.988-1.014,1.846-.7,1.258-.321.585-1.029,1.846-1.021,1.84-1.029,1.838-1.086,1.986-1.121,1.991-.964,1.841-1.036,1.801-1.007,1.825-1.007,1.821-1.05,1.883-.971,1.749-1.007,1.825" vector-effect="none" fill="#bababa" fill-rule="evenodd" stroke="#232323" stroke-linecap="square" stroke-linejoin="bevel" stroke-width=".737"/>
    <path d="M322.99,494.078v.071l.571-.043.029.1.057.15-.7.043-.014-.079-2,.129v.057l-.664.036.007.193-.186.021v-.064l-.614.086.021.214-.243.036-.086-.543.257-.057.036.25.629-.079-.021-.286.85-.057-.014-.05,2.086-.129" vector-effect="none" fill="#bababa" fill-rule="evenodd" stroke="#232323" stroke-linecap="square" stroke-linejoin="bevel" stroke-width=".737"/>
    <path d="M324.525,498.214v.286h-.286v-.143l-.643.071-.5.357h.071l-.143.286-.143-.071.071-.143-.5.071-.429.286-.143.286-.143-.071.143-.286h.071l.357-.286.071-.143h.143l-.071.071.571-.071.571-.429.786-.071h.143" vector-effect="none" fill="#bababa" fill-rule="evenodd" stroke="#232323" stroke-linecap="square" stroke-linejoin="bevel" stroke-width=".737"/>
    <path d="M322.097,515.498l.857.643-.143.286-.929-.714v-.143l.071-.071.143.071v-.071h0" vector-effect="none" fill="#bababa" fill-rule="evenodd" stroke="#232323" stroke-linecap="square" stroke-linejoin="bevel" stroke-width=".737"/>
    <path d="M326.189,457.646l-.114.221-.229-.064.05-.229.293.071" vector-effect="none" fill="#bababa" fill-rule="evenodd" stroke="#232323" stroke-linecap="square" stroke-linejoin="bevel" stroke-width=".737"/>
    <path d="M346.909,311.736l-1.086,1.97-1.036,1.823-.993,1.843-1.007,1.826-.264.486-.136.249-.614,1.111-1,1.788-1.121,2.023-.928,1.658-.629,1.113-.393.691-1.093,1.951-1.071,2.01-1.007,1.809-.986,1.806-1.043,1.851-1.036,1.833-1.021,1.831-.978,1.809-1.014,1.826-.993,1.804-1.093,2.003-1.093,1.941-1.014,1.824-1.036,1.878-1.028,1.853-1.029,1.844-.807,1.468-.214.381-1.093,1.953-.079.159-1.029,1.863-1.014,1.841-1.021,1.841-1.021,1.853-1.021,1.844-1.021,1.84-1.114,1.976-1.093,1.992-1.014,1.829-.986,1.835-1.029,1.79-1.014,1.833-.336.597-.678,1.219-1.014,1.806-.986,1.836-1.007,1.813-1.021,1.826-1,1.818-1,1.8-1.021,1.8-1.371-.843-1.236-.686-4.514-2.526-1.036,1.975-1.093,1.951-1.078,1.978-1,1.8-1.021,1.828-3.735-2.078-.179-.1-2.35-1.3-2.293-1.278-4.007-2.207,1.021-1.821-2.021-1.12-2.685-1.488-1.571-.873-6.285-3.486-1.014,1.826-2.55-1.409-.271-.149-.286-.157-3.178-1.758-4.521-2.542-.193-.109-.257-.144-.507.062.121-.202.014-.117-.029-.112-.057-.093-2.328-.86.957-1.75-.3-.158.257-.46.293.17.757-1.387-.729-.375.1-.189-.193-.165-.043.076-.214-.121-.029.066-.164-.094.221-.415.014.009.086-.151.143.069-.086.156.221.125-.05.071.271.084.014-.034.7.41.4-.741.3.029.071-.025.05-.055.021-.051v-.089l-.186-.266.064-.11.007-.039-4.635-2.57.443-.799,4.642,2.582.721-1.301-2.228-1.238-1.714-.948.243-.426,3.928,2.182.207-.005.193.114.728-1.293-.121-.069h-.007s-.157.032-.157.032l-.114.18-.243-.12-.029.064-.364-.198.043-.069-.207-.133.129-.239.05-.101-1.614-.945-.1.195-.043.074.164.089-.079.177-2.628-1.432.1-.182.193.105v-.003l.1-.202-.143-.077-.007-.002.007-.008.064-.102-.043-.024-.136-.078.186-.289.093.051,1.064.576,3.614,2.01.164-.262.086-.326.121-.298.15-.227.171-.204.207-.239.186-.163.071-.094.121-.361,1.621-3.045.1.053.114-.134.129-.064.143.018.3-.285.464-1.109-.15-.034-.221.078-.229.039-.071-.096-.05-.161.657-1.241.15-.26,1.307-2.345,1.107-1.998.436.019.736-.071.657-1.196,1-1.835.986-1.817h0s.057-.102.057-.102l.2-.349.479-.83-.007-.06-.764.046-.136-.074-.286-.041-.2.037-.214.078-.186.06-.164.019-.193-.028-.229-.046-.214-.032-.214.023-.186.051-.25.06-.207-.009-.171-.009-.257-.023-.271.014-.279.074-.2.019-.207-.037-.221-.051-.193-.004-.029.06-.086.06-.057-.005-.086.134-.421.032.286-.525,5.607-.36-.121-.224.029-.3.036-.107v-.076l-.021-.301,1.193-2.196.329-.733.05.022.143-.408.014-.039.021-.066.193-.535-.129-.049.05-.14.129.049.129-.398.086-.181.1-.171,3.093-5.887.493-.937.307-.582,1.1-2.044.336-.636-1.564-2.057-.629.434-1.364,2.122-.1-.061,1.371-2.154.736-.496.079-.341.129-.005.1.034-.157.496,1.478,1.873.771-1.478-.264-.129.064-.136-.1-.049-.086.158.029.01-.021.028-.071-.045.093-.166-.978-.541-.071.134-.107-.059.179-.33.107.057-.079.137.121.068.907.5-.014.024.107.054.071-.114.25.134.179-.339.621-1.174-2.407-.103-.321.418-.114-.076-.014-.1.3-.377,1.5.085,1.136.004,2.043-3.865,2.978-5.64,1.021-1.924,1.093-2.07.221-.428.757-1.432.907-1.713.229-.399.664-1.162.193-.349,1.671-3.094,2.207-4.097,1.093-2.03,2.085-3.916,1-1.866.093.056,1.143.654.543.287.221.121.207.119.371.198.357.193,2.071,1.073.064.498-.014.501-.093.494-.164.472.071.306-.557.484-.764.668-.493.435,3.985,2.225-1.078,1.956-1.021,1.823-1,1.826,2.921,1.624.236.131-1.021,1.823.229.126,2.907,1.606.636.354.157.091,5.485,3.05,1.05-1.863.3-.572.136-.245.536-.999,1.014-1.814,1.071-1.96,1.364.75,4.928,2.72,1.121-2.03.821-1.506.207-.375,1.086-1.948.307-.551.229-.431.343-.643,1.021-1.788,1.014-1.824,1.014-1.837,1.014-1.826.514-.923.5-.909,1.086-1.948,1.086-1.978,1.021-1.843,1.007-1.817.629-1.128.357-.633.678.196,5.521,3.047.143.075.1.056.079.042,5.428,3.005.521.297.15.079.193.095,3.164,1.762,2.643,1.47,1.136.653-.414.773-.586,1.133-1.043,1.83-1.036,1.827-1.064,1.962" vector-effect="none" fill="#bababa" fill-rule="evenodd" stroke="#232323" stroke-linecap="square" stroke-linejoin="bevel" stroke-width=".737"/>
    <path d="M383.627,190.477l-.029.068.029.065.007.069-.043.106-.086.069-.064.103-.014.056-.014.08-.036.075-.057.034-.014.065-.043.072-.05.014-.071.069v.086l-.079.084-.057.03-.036.081-.014.08-.05.141.014.164v.059l-.029.086-.071.031-.064.046-.05.054-.05.229-.05.068-.043.438-.014.155-.036.419-.043.272-.021.118.086.122-.021.069-.014.076v.081l-.014.021v.039l-.05.031-.079.597-.014.274.014.144-.029.109-.071.836.014.107-.029.063-.029.437v.089l-.014.079-.021.674-.014.141v.068l-.029.026.014.055-.007.091.007.039-.029.061v.054l.014.037.021.079v.035l.014.039-.036.039-.014.033.021.026.007.266.007.066.014.019.007.055-.014.056v.048l-.007.063.007.12-.029.004-.029.053-.05.028.007.064.021.496.057.927.036-.006.079,1.233-.036-.002.014.241.043.451.064.668.393,4.117.071.726.071.047-.007.056.029.014-.007.034.029.046.021.059.021.059-.007.124.043.059.007.082-.021.035.029.065.036.07-.007.067.021.094.029.159.021.07-.043.046.014.174.029.035.036.044.029.386-.043.044-.057.022.021.076.043-.004.007.05.014.011.036.044.007.144-.021.027-.007.072v.118l.014.089.007.087.043.017.043.62.007.011.021.021-.014.061v.023l.021.018v.136l-.007.024-.021.072.007.134v.055l-.007.133.021.085-.007.079.014.054-.021.054.029.054-.007.048.014.079.014.122-.021.024.021.037-.007.032-.014.055.014.036.007.114.05-.017.014.131.029.201.007.062.021.169.021.176-.036.013.014.157.029.244.007.106.207,1.995-.129.017.036.566.086,1.089.136,1.861.021.02.071,1.711.064,1.696.007.445.043.166.064.791.057,1.069.121,2.095.043.144v.024l.029.64.029.446.007.357.036.94.007.178v.104l.014.314.029.554.014.258-.007.065.014.394.057,1.113-.007.124.029.527.021.395.05,1.218.007.174.036.983-.007.093.036.694.314.028v.885l.007.171.057,2.927.021,1.667.007,1.818-.036,1.858-.05,2.695-.257-.006v.033l.007.032-.014.026v.039l.014.033v.045l-.021.056v.032l.043.042-.029.084.014.078-.021.042.007.033-.021.051.014.07v.156l-.007.081v.091l.021.088-.014.087.007.059-.036.075-.014.084.014.091-.014.088-.036.266-.007.103.014.049v.061l.014.075-.014.068.021.111-.043.035.036.049-.029.058-.014.056.036.042-.007.065-.007.152.021.084.021.104-.057.107-.05.129.35.006-.014.676v.279l-.014.151-.007.11-.121,2.081-.114,1.55-.057.6-.064.778-.121,1.083-.1.744-.129.928-.186,1.658-.05.993-.021.464-.057,1.147.007,1.063.271,1.462.043.08.136.858.029.233,1.243,3.068.514.819.15.237-.65.365-.164.09-.086.051-.179.109-.157-.239-.214-.376-.743-1.328-.629-1.284-.286-.113-.971,1.848-1.007,1.811-1,1.808-.136.235-.871,1.584-1.007,1.815-1.086,1.953-1.093,1.965-1.007,1.826-1.007,1.824-1.014,1.826-.1.182-.914,1.653-.693,1.248-.093.174-.229.405-1.014,1.824-3.278-1.818-.271-.151-1.021,1.832-.507.902-.593,1.05-.307-.17-3.264-1.803-.993-.548-1.436-.796-1.136-.628-1.128,2.046-.679,1.221-.107.189-.107.193-.093.175-.643,1.158-.1.186-.136.237-.064.12-.45.815-.114.199-.114.21-.114.21-.236.417,2.4,1.329,1.164.642-1.05,1.901-1.036,1.864-.378.681-.157.276-.436.846-1.043,1.822-.164.309-.471.848-.179.321-.086.152-.107.199-1.093,1.966-3.543-1.973,1.064-1.962,1.036-1.827,1.043-1.83.586-1.133.414-.773-1.136-.653-2.643-1.47-3.164-1.762-.193-.095-.15-.079-.521-.297-5.428-3.005-.079-.042-.1-.056-.143-.075-5.521-3.047-.678-.196-.678-.255-.786-.427-1.793-.985,1.1-1.999,1.014-1.821.971-1.852.1-2.291-.071-1.461-.014-.366-.029-.556-.071-1.294-.014-.335.036-.334.071-.326.121-.314,1.029-1.983.057-.101.907-1.641.043-.076,1.021-1.831.714-1.291.064-.114.179-.321.057-.099,1.014-1.829,1.007-1.823,1.021-1.848.05-.093.193-.344.05-.089.707-1.284.493-.889.614-1.098,1.029-1.981.921-1.864.036-2.336.079-2.338.221-2.242.236-2.254.229-2.028,1.086-1.971,1.107-2.001,1.964-1.414-2.914-1.614,1-1.811,2.021-3.651,1-1.796,1-1.823,1.007-1.795,3.057,1.688,1.014-1.829.529-.939.486-.871.993-1.806,1.086-1.953,1.086-1.951,1-1.82,1.007-1.813,1.007-1.815,1.028-1.804.807-.696.857-.74,1.764-1.381.293.161.264-.913.093-.34.214-.799.314-1.035.329-1.068.307-1.046.336-1.091.65.36,1.607.898.457.249.157-.344.157-.711.029-.112.186-.526.271-.416.107-.136.35-.488.336-.514.229-.57.193-.65.086-.261.286-.706.243-.514.386-.716.429-.685.636-.818.707-.764,1.493-1.551.636-.632.893-.931,1.936-1.872.921-.935.536-.582.229-.239.236-.282.4-.605.086.043.4.201" vector-effect="none" fill="#bababa" fill-rule="evenodd" stroke="#232323" stroke-linecap="square" stroke-linejoin="bevel" stroke-width=".737"/>
    <path d="M368.364,205.288l-.336,1.091-.307,1.046-.329,1.068-.314,1.035-.214.799-.093.34-.264.913-.293-.161-1.764,1.381-.857.74-.807.696-1.028,1.804-1.007,1.815-1.007,1.813-1,1.82-1.086,1.951-1.086,1.953-.993,1.806-.486.871-.529.939-1.014,1.829-3.057-1.688-1.007,1.795-1,1.823-1,1.796-2.021,3.651-1,1.811,2.914,1.614-1.964,1.414-1.107,2.001-1.086,1.971-.229,2.028-.236,2.254-.221,2.242-.079,2.338-.036,2.336-.921,1.864-1.029,1.981-.614,1.098-.493.889-.707,1.284-.05.089-.193.344-.05.093-1.021,1.848-1.007,1.823-1.014,1.829-.057.099-.179.321-.064.114-.714,1.291-1.021,1.831-.043.076-.907,1.641-.057.101-1.029,1.983-.121.314-.071.326-.036.334.014.335.071,1.294.029.556.014.366.071,1.461-.1,2.291-.971,1.852-1.014,1.821-1.1,1.999,1.793.985.786.427.678.255-.357.633-.629,1.128-1.007,1.817-1.021,1.843-1.086,1.978-1.086,1.948-.5.909-.514.923-1.014,1.826-1.014,1.837-1.014,1.824-1.021,1.788-.343.643-.229.431-.307.551-1.086,1.948-.207.375-.821,1.506-1.121,2.03-4.928-2.72-1.364-.75-1.071,1.96-1.014,1.814-.536.999-.136.245-.3.572-1.05,1.863-5.485-3.05-.157-.091-.636-.354-2.907-1.606-.229-.126,1.021-1.823-.236-.131-2.921-1.624,1-1.826,1.021-1.823,1.078-1.956-3.985-2.225.493-.435.764-.668.557-.484-.071-.306.164-.472.093-.494.014-.501-.064-.498-2.071-1.073-.357-.193-.371-.198-.207-.119-.221-.121-.543-.287-1.143-.654-.093-.056.25-.471,1-1.911.114-.186-.021-.155.064-.147.479-.779.607-1.177.4-.746.271-.524.278-.549.386-.742.393-.71.757-1.336.45-.85.086-.235.279-.454.121-.355.236-.375.157-.174.386-.796.357-.581.171-.421.129-.235.079-.054.243-.511.121-.206-.007-.103.7-1.287.85-1.513.264-.614.214-.26.3-.284.043-.199.193-.424.2-.322.021-.156.371-.693.336-.565.407-.761,1.414-2.425.557-.906.729-1.248.243-.467.471-.786.993-1.776.043-.069.386-.584.143-.353.421-.614.229-.319.029-.21.179-.505.086-.219.407-.781.193-.3.079-.119-.029-.109.379-.744.164-.295.007-.124.193-.358.157-.195.043-.157.079-.181.107-.1v-.133l.164-.415.314-.724.6-1.063.2-.386.086-.081.171-.414.093-.243.293-.605.257-.501.229-.381.3-.548.257-.481.264-.514.114-.139.493-.981.2-.371.293-.495.371-.723h0s.314-.56.314-.56l.529-.976.029-.129,1.7-3.47.407-.753,1.628-2.654.607-.788.093-.149.814-1.054,1.514-2.088.336-.501,1.243-1.849.814-1.212,1.107-1.646.986-1.471.407.248.936-1.621.143-.265.1-.141.336-.506-.171-.113-.121-.081-.093.133-.271-.181.621-.928.25.168-.45.686.129.083.193.125.6-.908-.271-.148.193-.306.243-.381-.486-1.652-.079-.104-.25-.131-.257.488-1.507-.826.679-1.232,1.5.822-.271.496.286.161.114.104.064.131.414,1.415.007.041.264.176.721-1.278.071-.509.086-.212.121-.234.3-.474-.643-.33.05-.099.143-.287-2.257-1.252-.043-.021-.564-.3-.057-.025-.043-.022-.029-.024-.014-.013-.014-.014-.05-.068-.014-.029-.007-.029-.007-.017v-.007l.029-.109-.05-.026.914-1.814.271-.543.05.023,3.435-6.841.393-.781.686.339,1.393-2.745.257.125v.012l-.05.079,2.621,1.326.75-1.468.343.165.171-.328h0s.057-.094.057-.094l.171-.324.2-.345.121-.206.1-.156.079-.094.164-.2.064-.082.021-.036.079-.118.071-.122.8-1.49,1.357-2.887,1.743-3.452.6-.996.236-.595.336-.444.229-.457.514-1.005.279-.464.1-.42.207-.404.029-.291.071-.344.121-.416.193-.438.129-.233.179-.227.1-.172.25-.399.121-.282.064-.172.079-.283.064-.127.171-.239.121-.261.164-.133.707-2.855.207-.596.029-.089.093-.313.007-.226.057-.201.043-.255.021-.172-.014-.347-.007-.096.014-.103.064-.236.029-.085.05-.034.043-.212.043-.521.079-.35.079-.178.121-.116.15-.029.129-.011.086-.029.021-.064-.05-.051-.164-.034-.136-.033h-.007s-.121-.067-.121-.067l-.1-.188.8-2.863.064-.202.321-1.431.171-.634.193-.676.179-.42.221-.818.214-.766.143-.299.15-.562.207-.397.136-.193.086-.157.35-1.013.236-.546.236-.704.221-.668.114-.401.229-.424.107-.346,1.993.673.45.154,1.421.366.157.039.136.021,2.2.132-.071.862-1.928,2.553-.064.373-.021.379.021.381.064.376.093.364,3.992,2.215.05-.228.55-1.821.878-2.964,4.05,2.803.214.144-1.221,2.19-1,1.812-1,1.82-1.007,1.804-1.014,1.814-1.007,1.816-1.007,1.828-1,1.806-.9,1.626-.107.186-1.078,1.954.229.128,6.057,3.35,3.557,1.966" vector-effect="none" fill="#0c3275" fill-rule="evenodd" stroke="#232323" stroke-linecap="square" stroke-linejoin="bevel" stroke-width=".737"/>
    <path d="M401.304,69.398l.143.071.071.071v.357l-.071.071-.143.071-.071.214-.071.214.143.214.214.214.214.071.286.071h.5l.571-.143.5-.143.429-.286.071-.214.143-.214.143.071.429-.143h.429l.5.071.857.214.357.143h.286l.214-.071h.143l.571.071.214.143.071.071h.071l.071.071.071.071.143.143.071.143.143.071.143.071h.143-.071v.071h.071l.071.071.071.071h.214v.071l.071-.071v.214h.071v-.071l.143.071v.071l.143.071v.071h.071v1.5l-.143,1.357v.357l-.071.357-.214.571-.071.5-.071.571-.071.5.071.571.071.5.143.571.143.5.286.5.286.5.286.429.357.357.429.429.429.286.5.286.5.214h.143l.357.143h.286l.071-.071h.071v.071h.286l.071-.071h.071l.071-.071h.071l.071-.071h.071l.071-.071h.071l.071-.071.071-.071.071-.071h.071v-.071h.071v-.071h.071v-.071l.071-.071v-.071l.071-.071.071-.143.071-.071v-.429l.071-.071v-.071h.071v-.071h.214v-.071l-.071-.071h-.214l-.071-.071v-.071l.071-.071h-.071v-.286l-.071-.071-.286-.214v.071l-.071-.071-.071-.071h-.071v-.071l-.143-.143-.143-.071-.143-.071-.071-.071-.071-.071v-.071h-.143l-.071-.071-.071-.071v-.071l-.357.143-.071-.071v-.071l.357-.143-.071-.071v-.071l-.071-.071v-.214l-.071-.071v-.143l-.071-.071v-.071h-.071l.071-.071h-.071v-.143h-.071v-.143h-.071v-.143h-.071v-.071l-.071-.071.071-.071h-.071v-.143h-.071l-.071-.071v-.143l-.071-.071-.071-.071v-.071l-.071-.071-.071-.143-.071-.071v-.071l-.071-.071h.071v-.214h.071v-.071h.071v-.143h.071v-.143l.071-.071v-.071h.071l.071-.071v-.071h.071v-.071h.071v-.071.071h.071l.143-.071.071.071.143.071.143.071.071.071h.071l.214.071.214.143.214.071.071.143.071.071.214.071.143.143.214.071h.214l.143.071.143.143.071.071.071.071h.143v.071h.214l.214.143.357.214.143.071h.143l.071.071.214.071.143.143.143.071.071.214-.143.143-.071.143-.143.214-.071.071-.071.143-.071.071v.143l-.071.214-.071.071-.071.143v.429l-.071.214-.071.286v.5h-.071l.071.143h.143l.071.143.143.214.071.143.143.214.143.143h.071v-.071h.286l.071.071h.071v.143l-.071.071h.071l.071-.071h.071v-.071h.143v.143l.071.071h.071v.071h.214l.071-.071v-.071l-.071-.071-.071-.071-.071-.071h-.143l-.143-.143-.071-.143v-.071l.071-.071v-.071h.071v-.071l.143-.071v-.071h.214v-.214h.071v-.071l.071-.071h.071l.071-.071.071-.071.143-.071v-.071h.071v-.143h.071l.071-.071h.071l.071-.143.214-.214.357-.786.429-.857.143.071-.429.857-.429.786.071.143.286-.357h.071l.214-.143.071-.143.143-.143.214-.071.214-.143h.143l.214-.071.143-.071.071-.143.214-.071h.143l.214-.071.214-.071.214-.143.286-.071.071-.071h.214l.286.071h.286l.143-.071h1l.357.071h.429l.286.143.214.071.786.286.928.357.429.214.214.071.714.214.214.071.357.143.071.071h.143l.071.143.143.071h.071l.143.071h.357l.357.071.214.143.286.071.429.286.5.286.929.643.143.143.143.071.214.143.143.143.143.143.071.071.071.071.071.143h.071v.143l.143.143v.143l.071.071v.071l.071.071v.071l.071.071v.071l.071.071v.143l.071.071.071.071.143.143.214.214.143.214v.143l.071.071v.143l.143.214.071.214v.357l.071.214.071.214v.286l.071.143v.571h.071v.071h-.071v.214h.071l-.071.071v.071l-.071.071h-.071v.071h-.071v.214l-.071.143v.071l-.071.071-.071.143v.071h-.071v.071l-.071.071v.214l.071.071v.286h-.071v.143l-.071.143v.071l.071.071-.071.143v.429l-.071.071.071.071v.143l-.071.143.071.071v.071l-.071.071v.214l-.071.214v.5l-.071.071v.357l-.071.071.071.071h-.071v.214h.071-.071l-.071.071v.286l-.071.071v.143l.071.071-.071.071h-.071l-.071-.071h-.071v.071l-.214-.143h-.143l-.143-.071-.071-.071-.071-.071h-.071l-.143.071-.071.071v.286l.071.071h.071l.071.071v.071l.571.286v.071l.071.071h.071v.143l-.071.071v.143h-.071v.071l-.071.143h.071l-.071.071v.143h-.071l-.071.071h-.071l-.071.071-.071.071h-.071v.571h-.071v.071l-.071.071v.143l-.071.071v.071l-.143.214v.286l-.071.071v.071l-.143.143v.071h-.071l-.071.071v.071l-.143.071v.357l-.071.071v.143h-.071l-.071.071.071.071v.071l-.071.071v.071h-.071l-.071.071v.071l-.071.071.143.071-.286.5-.286.429-.286.429-.429.786-.429.571-.214.429.357.214.071.071-.643,1-.643,1.143-.857,1.428-.714,1.286-.214.286-.214.071-.286.143-.214.071-.143.071h-.143l-1.214.071v.071l.857.429.143.286.143.429-1.357-.786h-.5l-.357.071-.071.071v.214h-.429v-.071h-.357l-.143.071-.071.071-.071.071v.286l.071.071.071.071h.071l.071.071h.143l.143.071h.643l.143.071.143.071v.071l.071.071.071.071v.857l-.071.071-.071.071h-.071l-.071.071-.071.071v.071h-.071l-.071.286-.143.214v.214l.071.071v.143l.071.071.143.071-.143.214h.071l-.143.286-.071.143-.071.071h-.143.071l-.071.071h-.071.071l-.071.071-.143-.071v.071l-.071.071-.143.143-.071.143-.071.071h-.071v.071l-.143.143v.071l-.357.429-.143.143h-.071l-.071.071-.071.143-.286.214v.071h-.071l-.143.143-.071.071-.143.071v.071h-.071l-.071.071v.071l-.143.143h-.071v.071l-.071.071h-.071l-.071.071h-.071l-.071.071-.429.214-.143.143-.143.214-.071.143-.071.071-.071.143-.143.143v.214l-.143.214-.071.071v.071l-.071.071v.071h-.071v.071l-.071.071-.071.071-.071.071-.071.071-.071.143-.143.143-.071.143v.071l-.071.071.071.071v.071l-.071.071v.071l-.071.071-.071.071v.143h.071l-.071.143-.071.071-.214.357-.5.643-.357.5.143.071v.071l-.071.143v.214h-.071v.071l-.071.071-.071.071v.071l-.071.071-.071.071h-.071l-.071.143.071.071v.071l-.071.071h-.071v.143l-.071-.071v.143l-.071.143v.071l-.143.214-.214.357-.071.071-.214.286-.286.429-.214.286-.214.286-.143.214-.071.143-.071.071-.071.071-.071.071v-.071l-.571-.357-.643-.286-.429-.214v-.071l-.143-.071-.143-.071v.071l-.071.071-.071.071.286.143.143.071h.071l.071.071.286.143.286.143.071.071.143.071.214.143-.214-.071-.143-.071-.071-.071-.286-.143-.857-.5.071-.214-.143-.143-.286-.143h-.071v-.071l-.071-.071v-.143l-.143-.071-.143-.357v-.071l-.286-.643-.286-.5-.286-.5-.143-.286-.071-.071h-.143l-.071.071-.071.071h-.071l-.071.143-.071.071h-.071l-.071.071-.071.357-.071.214-.071.143v.214l-.071.143.071.071h-.071v.143h.071v.071h.071v.143h.071l-.143.071-.071-.071h-.071l.071-.071h-.071v.071h-.071v.071h-.071v-.071.143l.071.071v.071l.071.071v.071h.071v.071l-.071.071-.071-.071h-.143l.071.071h.071v.071l-.071.071v.071h-.071v.357l.143.071-.071.071.071.071h.214l.071.071h.071v.071h.143l.071.071h.071v.071h.071l.071.071.071.071.071.071h.071l.071.071v.071l-.071-.071h-.071v.071h.214l.071.071v.429h.071l.071.071v.071l.143.071v.143h.071v.214l-.071.071v.071l.071.071.071.071v.071l-.071.071v.071l.071.071h-.071l.071.071.143-.071v.071h.071l.071.071v.429l-.5,1.643-.143.071-.214.286-.143.071h-.071l-.071.071-.143.071-.071.071-.071.071-.071.143.071.071v.429l-.071.071h-.071l-.071.071h-.071l-.071.071h-.143l-.071.071h-.143l-.071.071v.071l-.071.071-.214.143v.214l-.214.071v.071l.071.071-.071.143-.143.071-.071.071-.071-.071-.071.071-.143.071v.928l.071.071-.071.071v.714l.071.857v-.071h.071l.286-.5v-.143h.071l.214-.357h-.071l.286-.571.214-.286-.071-.071.143-.286.143-.286.143-.286.429.143-.214.357-.143.286h-.071l-.143.286-.143-.071-.429.786-.214.357v.071h-.071l-.071.143-.071.143v.071l-.071.143-.071.071v.143l-.286.429-.571.929-.286.571-.214.286-.5.857-.643,1.071-.429.714-.857,1.571-.929,1.786-.571.928-.643,1.286-.071.143-.071.071-.071.143-.071.143-.071.214h-.071v.071l-.071.214-.143.214-.071.143-.071.214-.214.286-.143.286-.071.143-.071.143-.143.429-.071.071-.143.286-.071.143-.214.429-.071.071v.071l-.286.571-.5.928-.071.071-.5,1-.5.857-.429.857-.429.786-.286.643-.357.571-.286.5-.286.571-.714,1.357-.357.643-.143.357-.357.714-.071.143-.071.143-.071.143-.071.143-1.714,3.143-.071.214-.143.214-.071.214-.429.786-.143.214-.071.214-.143.214-.071.214-.143.286-.143.214-.143.357-.143.357-.071.286-.143.286-.143.5-.143.357-.071.357-.143.643-.143.429-.071.357-.143.357-.071.143v.143l-.071.357-.143.357-.071.143v.286l-.143.357v.071l-.071.071v.143l-.214.5-.143.429-.571,1.357-.286.714-.357.857-.714,1.643-.714,1.643-1.357,3.285-.357,1-.357.714-.143.357-.214.5-.214.429-.143.357-.071.214-.143.429-.214.5-.357.643-.286.643-.214.571-.214.5-.214.571-.143.571-.071.214-.143.286-.143.643-.429-.214h-.071l-.429.571-.214.286-.214.286-.571.571-.929.928-1.928,1.857-.857.929-.643.643-1.5,1.571-.714.714-.643.857-.429.643-.357.714-.286.571-.286.714-.071.214-.214.643-.214.571-.357.5-.357.5-.071.143-.286.429-.143.5-.071.143-.143.714-.143.357-.5-.286-1.571-.857-.643-.357-3.571-2-6.071-3.357-.214-.143,1.071-1.928.143-.214.857-1.571,1-1.857,1-1.786,1-1.857,1.071-1.786,1-1.786,1-1.857,1-1.786,1.214-2.214-.214-.143-4.071-2.785-.857,2.928-.571,1.857-.071.214-3.928-2.214-.143-.357-.071-.357v-.786l.071-.357,1.928-2.571.071-.857-2.214-.143h-.071l-.214-.071-1.428-.357-.429-.143-2-.643.143-.5.286-.714.214-.357.143-.143.071-.143.071-.286.071-.071v-.071l.357-.643v-.286l.143-.214.214-.357.071-.214.071-.143.214-.214.143-.286.214-.429.214-.571.143-.286.143-.357.071-.214.143-.357v-.071l.071-.286v-1l.071-.357-.071-.071.071-.286-.071-.786-.071-.071v-.143l-.071-.286v-.286l-.071-.214v-.071l-.071-.071.071-.214.071-.143v-.071l-.071-.143-.071-.357-.071-.357-.071-.143-.286-.429h-.071l-.071-.071h.071l-.071-.143-.071-.071.071-.143.071-.071h.071l.143-.286v-.214l-.071-.357-.071-.214-.071-.286-.143-.214-.286-.214-.143-.429-.143-.5-.071-.429v-.429l.071-.143.071-.214.143-.214v-.714l.071-.429v-.143l.071-.643v-.357l-.071-.357v-.786l-.071-.5.143-.214-.071-.286v-.071l-.143-.143v-.5l-.071-.143-.143-.143-.071-.071v-.429l-.071-.214-.071-.143v-.071l-.143-.429.071-.071v-.143l-.143-.143.143-.143h-.071l-.143-.143v-.071l.071-.071h.143l-.071-.071h-.071l-.071-.071.071-.143-.071-.071v-.143l.071-.214v-.143l.071-.214.143-.214.071-.143.143-.214.643-.929h.357l.071.071v.143h-.071v.071l.071.071v.071h.143l.071-.143.071-.071.071-.143-.071-.071v-.143l.071-.071.071.071v.143h.143l-.071-.071v-.071l-.071-.214v-.214l.214-.071.143.071.071-.071h.071l.143.071h.143l.143-.071v-.071h.143l.071-.071.143-.214h.071v-.143h.071l.071-.143h.143v-.071l.143-.071v-.071h.143v-.214l.143-.071h.071l.214-.143.071-.071.071-.143.071-.071h.071l.143-.071.214-.071v-.071h.143v-.071h.071v-.214h.071l.143-.071.143-.071.071.071-.071.071v.071h.071l.071-.071h.071l.071.071-.071.071.143.071.071.071v-.143l.071-.071.071-.071.071-.071v-.143l.071-.071.143-.071.143.071h.143v-.071l.071-.286.214-.143.143-.071.429-.071.286-.143.929-.928.071-.071.5-.643.429-.643.286-.286.928-1.428.429-.643.071-.357.214-.357.357-.643.071-.286.071-.214.214-.5.214-.357.071-.429.071-.143.5-.857.071-.143-.071-.214.143-.286.214-.286.214-.571v-.071l.143-.071.143-.429.286-.571.214-.5.143-.429.071-.357.357-.571h.143l.143-.286.143-.357.357-.5.214-.143.143-.286.5-.786.071-.214.214-.357.071-.143.286-.429.143-.429.286-.643.571-.928v-.071l.357-.714.143-.214v-.286l.286-.571,1-1.357.214-.286.429-.429h.071v-.071l-.071-.071-.071-.071v-.143l.5-.857.5-.786.071-.429.143-.429.143-.214.357-.357v-.286l.714-1.643,1.143-1.786.786-1.214,1.643-2.928.214-.357.357-.5.357-.714.214-.643.214-.286.143-.143.214-.286.143-.214v-.429l.143-.429.214-.214.143-.071.357-.786.143-.143v-.214l.143-.357.143-.071v-.214l.071-.214.214-.357h.143l.214-.5.143-.429.571-1.214.357-.714-.214-.071-.286-.143.071-.286.429.143v.071l.143.071.071-.286h.071l.214-.5.071-.357.071-.5.071-.286-.071-.143v-.143l.214-1.214v-.214l-.143-.071.071-.071-.286-.143-.143-.071-.071.214-.071.143-.071.071-.071.143v.071h-.071l.214-.5v-.071l.071-.214.071.071.286.143.143.071v-.071l.143.071-.071-.143v-.071l-.071-.5v-.143l-.143-.071h-.214l-.143-.071h-.071v-.214l.143-.214.214-.214h.214l.214-.5-.571-.286.214-.857.214.071-.214.643.5.286.071-.143.071-.214v-.143h.071v-.143l-.071-.143-.071-.214-.143-.143-.071-.071v-.786l.143-.786.214-.571v-.571l.286-1.071.286-.571.429-.714.286-.643.214-.928.286-.643.357-.928.5-.643.357-.786,1.571-3.428.214-.286,1.214-2.5.286-.786.357-.5.928-1.071.643-.714.357-.5.286-.214.143-.071.929-.286,1.428-1.5.643-.857.143-.214.143-.071h.143" vector-effect="none" fill="#bababa" fill-rule="evenodd" stroke="#232323" stroke-linecap="square" stroke-linejoin="bevel" stroke-width=".737"/>
    <path d="M444.872,74.755l-.571,2.071-.357,2.071-.857,2.285-.571,2.071-1.571.643-.571,1.143-.5.214-.071-.214-.071-.214-.143-.143-.071-.071v-.143l-.071-.143h-.071l-.071-.143-.071-.143-.071-.071v-.214l-.214-.286-.214-.357-.143-.286-.071-.071-.071-.143-.071-.071-.071-.071v-.071h-.071l-.071-.143v-.071h-.071l-.071-.143-.143-.143-.143-.214-.143-.143-.071-.143-.143-.143h-.071v-.071l-.143-.214-.071.071v-.143l-.143-.143-.214-.214-.214-.214-.143-.071-.143-.143-.143-.143-.143-.143-.214-.214-.071-.071-.143-.071-.214-.071-.143-.143-.071-.071-.143-.071-.071-.071-.143-.071-.071-.071-.429-.214h-.071l-.071-.071h-.143v-.071h-.071l-.071-.071h-.071l-.071-.071h-.143l-.071-.071-.071-.071h-.143v-.071h-.071v.071l-.143-.071h-.071l-.214-.071-.071-.071-.071-.071h-.143v-.071.071l-.071-.071h-.071v-.071h-.214v-.071h-.143v-.071h-.143l-.071-.071h-.143l-.071-.071h-.143l-.071-.071h-.071v-.071h-.214l-1.214-.5v-.071h-.357l-.286-.143-.143-.071h-.071l-.429-.143v-.071l-2.785-1.143h-.214l-.071-.071-.071-.071h-.143v-.071h-.143l-.071-.071h-.071l-.071-.071h-.143l.071-.143.071-.071,1.928-2.571,5.214-3.571.928-.643,1.286-2.571,2.571-.071,1.786.714,1,.857,1.571,1.643,1.5,1.428,1.357,1.571.286.429.143.214.071.143v.071l.357,2.428h0" vector-effect="none" fill="#bababa" fill-rule="evenodd" stroke="#232323" stroke-linecap="square" stroke-linejoin="bevel" stroke-width=".737"/>
    <path d="M407.518,65.684l-.071.143-.071.071h-.071l.071-.143h-.071l.071-.143.071-.143.071.071-.071.143h.071" vector-effect="none" fill="#bababa" fill-rule="evenodd" stroke="#232323" stroke-linecap="square" stroke-linejoin="bevel" stroke-width=".737"/>
    <path d="M343.495,334.098l.243.135.193.111.521.287,2.057,1.137.814.449,1.307.721,2.228,1.231-1.093,1.971,1.236.685,2.05,1.136,1.686.931,5.228,2.896-.086.148-.25.458-.671,1.208-.15.271-.321.569-.55.996-.143.261-.243.431-.264.466-.114.21-.25.446.321.175.157.088,1.885,1.031.15.085.793.434,1.628.891.357-1.066-.107-1.103-.507-2.801-.029-.431v-.606l.036-.604.071-.598.086-.409.121-.403.021-.059.021-.051.114-.284.029-.06.079-.176.071-.144.021-.041.186-.322.093-.156.221.142.136.081.136.083.157.088.193.326.057.176-.514,3.269.021.753.35,1.871.25,1.368.364,1.151,2.15-.784.136.018.086.11.543,1.5.007.112-.057.094-1.3.42.021.358-.1.343-.221.284-.3.191.764,2.116.443,2.086.357.219.036-.045-.093-.305-.093.016-.207-.875.064-.014.007.031.079-.014.064-.019-.007-.032.057-.011.214.868-.1.029.1.366-.036.051.3.177-.143.267-.271-.163.036-.067-.314-.167.007.034.207.116-.107.226.243.109.2.166.157.214.093.247.157,2.13-.171.664-.707.67-.414,1.477-.757,1.578-.9,1.353-.721,1.078-.65.903-.893,1.227-1.136,1.568-1.628,1.823-1.743,1.961-1.114,1.557-1.286,1.8-1.314,1.863-1.278,1.795-.929,1.686-.636,1.152-.457.736-1.086,1.756-1.307,1.874-1.243,1.773-1.193,1.767-1.2,1.77-2.336,3.45-2.321,3.45-2.914,3.371-.3.35-.964,1.15-.057.064-1.421,1.714-.75.886-.621.728-.086.1-.814.978-.557.643-.229.264-.057.057-.086.107-.064.064-.079.1-.257-.136-.25-.136-.086.15-.393.736-.221-.143-1,1.857-1.536-.843-4.978-2.743-3.471-1.943-1.764-.971-4.942-2.728,1-1.828,1.007-1.828,1.014-1.814,1.007-1.828,1.007-1.814,1.014-1.821,1.007-1.825.971-1.749,1.05-1.883,1.007-1.821,1.007-1.825,1.036-1.801.964-1.841,1.121-1.991,1.086-1.986,1.029-1.838,1.021-1.84,1.029-1.846.321-.585.7-1.258,1.014-1.846,1.107-1.988,1.1-1.986.471-.853.55-.993,1.028-1.848,1.014-1.838,1.021-1.848,1.021-1.846,1.107-1.988.493-.899.1-.177.486-.885-3.535-1.963,1.021-1.827,1-1.828,1.014-1.823,1.014-1.823-1.007-.556-.071-.039-2.257-1.241-.243-.141-.243-.125-3.314-1.855,1.007-1.819,1.014-1.825-2.643-1.491-.878-.491.986-1.806,1.007-1.809,3.55,1.948,1.086-1.964.993.552.657.363,1.671.923" vector-effect="none" fill="#bababa" fill-rule="evenodd" stroke="#232323" stroke-linecap="square" stroke-linejoin="bevel" stroke-width=".737"/>
    <path d="M367.528,385.105l-1.693,1.574-.636.589-.8,1.195-1.314,1.954-.907,1.617-1.364,2.447-3.085,4.477-.736,1.071-.107.157-.45.714-.586.921-1.75,2.721-.107.157-.871,1.35-1,1.55-.821,1.257-.629.971-.614.636-.821.821-.557.55-2.043,3.05-.5.414-.5.593-.143.179-.7,1.186-.186.471-.071.721-.729,1.421-1.286,1.664-.214.279-.107.136-.086.107-.086.093-.136.157-1.521,1.757-2.164,2.485-.264.071-1.328,1.786-2.493,3.493-.636.714-1.557,1.757-1.528,1.45-.171.114-.771.543.014.257-1.171,1.407-.764.743-1.078.878-.936,1.036-.093.129-.079.121-.107.1-.107.079-.136.036-.136-.021-.121-.064-.357.493-.464-.357.336-.457-.093-.114-.043-.143.029-.129.079-.107.107-.129.529-1.471.943-1.75,1.486-1.828.271-.771.7-2.057.157-.443,1.071-1.857.2.093,1.036-1.121,1.714-2.543,1.736-2.564.957-1.407,1.057-1.557.729-1.078.136-.371.057-.107.071-.107.064-.114.093-.121.036-.064.236-.357.764-1.186,2.4-3.7.143-.114.136-.243.079-.114.186-.343.107-.064.643-.707-.15-.15.586-.743.329.264,1.086-1.45.886-1.171.457-1.114.557-1.257,1.443-2.371.079-.221.457-.55.786-1.207.893-1.371,1.693-1.814.264.014.6-1.007,2.457-4.108,2.536-3.915,1.407-2.46.143-.099.014-.214.2.056.114-.076.236-.416.25-.448-.321-.198.143-.316.35.202.05-.09.3-.03.193-1.003.15-.277.814-1.513-.007-.152.114-.098.25-.193.643-.74.586-.446,1.764-2.032.857-1.217.529-.846,1-.968,1.671-.799,1.064-.185.7-.705.657-.968.207-.034.229.096.143.244-.379.806-.221.766.014,1.711.171,1.701-.064.803-.107.528-.171.506-1.036,1.7-.643,1.448-.229.233-.086.074-1.2.762" vector-effect="none" fill="#bababa" fill-rule="evenodd" stroke="#232323" stroke-linecap="square" stroke-linejoin="bevel" stroke-width=".737"/>
    <path d="M375.806,350.841l.321.231.236-.091-.014-.727.343.087-.021.614.121.936-.421.32-.986.288-.35-.009-.479-.222-1.378,1.762-.179.044-.471.554-.114-.142.329-.686-.136-.179.264-.306.157.08.193-.181,1.078-1.446-.243-.257.021-.478.186-.815.978-.926.486-.164.25.376-.179.679-.043.323.05.335" vector-effect="none" fill="#bababa" fill-rule="evenodd" stroke="#232323" stroke-linecap="square" stroke-linejoin="bevel" stroke-width=".737"/>
    <path d="M318.026,450.361l-.143.214h-.143l-.071.143-.143.214-.357-.143v-.143l.143-.143.143-.214.214-.214.071-.071.143-.071.143-.214.071-.071h.143l-.071.143-.143.429v.143h0" vector-effect="none" fill="#bababa" fill-rule="evenodd" stroke="#232323" stroke-linecap="square" stroke-linejoin="bevel" stroke-width=".737"/>
    <path d="M381.306,376.728l-.214.5.286.071-.071.286-.643-.214.071-.286.286.071.214-.429h.071" vector-effect="none" fill="#bababa" fill-rule="evenodd" stroke="#232323" stroke-linecap="square" stroke-linejoin="bevel" stroke-width=".737"/>
    <path d="M332.524,445.147l.357.214-.071.071-.357-.214-.071.214-.286-.071.357-.571.214.143-.143.214h0" vector-effect="none" fill="#bababa" fill-rule="evenodd" stroke="#232323" stroke-linecap="square" stroke-linejoin="bevel" stroke-width=".737"/>
    <path d="M400.397,238.445l-.964,2.673-.193-.067-.914-.311-.557-.19-.457-.158-2.085-.721-.043.141-1.114,3.862-.607,1.996,2.185.722,1.614.552.186.061.164.059,1.936.693.421.156.578.193.186.048.229.059,2.071.708.414.122.364.12.621.203.543.181,1.793.639.093-.181.107-.189.307-.564.093-.167,1.393-2.561,4.085,1.387,3.064,1.028,2.778.966.329-.238.1.486.521.276.964.563,1.014.593,1.043.555,1.064.516,1.078.477,1.093.436,1.293.559.179.076,2.957,1.276.843-1.916.964.427.257.114,1.307.579,1.907.761.357-1.338.079-.289,1.357-5.094.493-.012,1.021-3.273.086-.285,1.45-4.655,2.043.64.593.198.971.294.264.083,1.671.529,2.107.662.614.181,1.357.363.278.074,1.521.407,2.214.596-.95,3.06-.121.614-.893,2.999-.736,2.745-.836,3.04-.614,2.34.629.456,1.686,1.796.393,2.308.336,2.49.093.561.064.116.021.213.029.275.021.266.021.156.086.721.186,1.337,1.357,10.266.057.359-.029.027-.007.014v.029l.014.024.043.096.014.089.029.084v.101l-.071.101-.064.156-.143.298.007.004.029.024.029.044-.007.024-.336.43-.171-.136-.514.394-.379.382.107.116-.057.054-.343.354-.057.059-.279.284-.093-.081-.186.21-.043-.016-.093-.04-.336.116-.029.012-.157.062-.1.043-.114.064-.021.016-.05.042-.014.01-.064.079-.05.07-.079.084-.071.052-.079.051-.021.014-.029.024-.036.039-.079.084-.15.169-.179.191-.507.526-.171.184-.05.057-.043.024-.064.039-.05.059-.05.077-.114.158-.1.159-.214.296-.064.078-.121.149-.221.321-.107.165-.064.096-.029.101-.029.084-.021.089-.043.104-.064.117-.093.1-.064.073-.129.189-.15.191-.171.259-.107.132-.057.073-.057.072-.036.084-.036.121-.521.641-.564.719-.107-.089-.307.263-.7.924-.143.198-.321.4-.186.231.143.116.107.089-.15.213v.004l-.9,1.23-.186.248-.179.235-.114.153-.086.144-.043.077-.043.071-.057.065-.064.052-.029.024-.064.024-.086.004-.05.04-.021.044-.007.061-.25.281-.314.401-.086.097-.043.016-.079-.028-.064-.012-.114.184-.064.096-.143.226.079.089-.1.12-.093-.084-.057.028-.3-.225-.093.131-.114.171-.164.221.136.124.243.193.193.189.079.116v.006l.029.099v.093l-.136.192-1.878,1.891-1.071,1.069-.071-.056h-.007s-.143.144-.143.144l-.114.126-.121-.093-.143.121-.079.071-.043.086-.171.365-.2.264-.421.464-.314.286-.307.214-.236.179-.171.286-.221.232-.029.018-.114.065-.064.057-.143.143-.107.095-.371.212-.329.2-.171.136-.286.171-.143.051-.129-.007-.093-.021h-.214l-.164-.043-.164-.007-.114-.014-.136-.064-.014-.008-.186-.086-.236-.021-.714-.05-.75-.079-.371-.029-.6-.029-.607-.02-3.107-1.664-2.307-1.358-5.821-3.045-.193-.105-.143-.09-.171-.111-.2-.138-2.471-1.688-.443-.554-.757-1.368-.386-.941-.821-1.993-.8-.875-.771-.847-1.236-.903-.729-.538-1.457-.413-1.414-.084-5.371.397-.764-.296-1.378-.534.257-.691.436-.811-.279-.191.343-.671-.8-1.396-.636-.031-.393-.039-.214-.102-.293-.558-.857.397-2.935-5.227-.586-.836-.479-.814.036-.35-1.421-1.562-1.336-1.864-.1-.141-.079-.109-.093-.111-.071-.125-.8-1.241-.543-1.335-.257-1.627.05-1.128.057-.823-.507-.174-.021-.008-.071-.024-.021-.842.193-.234.214-.257.021-.629.257-.252-.121-1.691-.029-1.271.336-4.417.1-1.725.007-.128.007-.165.007-.1.007-.166.093-1.288.071-.099.021-.81-.071-.199.007-.899.043-5.436.007-1.218-.114-5.216v-.104l-.007-.124.021-.146.014-.109-.121-2.49-.071-1.958.136-.073-.057-1.246-.093-.01-.1-1.632.1-.046-.071-1.247-.114-.046-.064-1.283.086-.093-.079-1.193-.086-.014-.121-1.717.1-.041-.086-1.316-.1-.042-.05-1.026-.007-.209-.014-.41-.021-.266-.021-.306-.021-.396-.021-.447-.407-3.813-.057-.875-.05-.906-.114-1.601-.036-.203.079-.011.214-.024.957-.096.929-.094,1.371-.144.171-.011.279-.017.136-.021.129-.016.407-.097.064.241.157.621.386,2.849.179.114.807.437.843.456.214.381.357.699,1.95,4.125.4.809.143.277.736,1.418,1.443,2.583,1.264,2.078-.521,1.685-.157.492,1.507,2.75.343.399.1.136-.336.856-.286.749-.557,1.593" vector-effect="none" fill="#bababa" fill-rule="evenodd" stroke="#232323" stroke-linecap="square" stroke-linejoin="bevel" stroke-width=".737"/>
    <path d="M385.091,274.426l.157.239.179-.109.086-.051.164-.09.65-.365.164.236.021.031.2.344.336.453.671.925.529.737,1.871,2.62.107.135.043.067.021.064.043.024.036.046.05.101.043.041.186.295.079.119.243.359.071.129.029.053.036.068.057.099.086.152.014.035.114.194v.03l.043.054.05.099.057.098.179.318.05.105.2.344.007.043.036.043.021.046.107.187.014.046.05.067.079.158v.027l.064.104.221.388.086.155.114.212.043.083.057.096.064.15.036.084.157.356.021.026.271.617.107.216.086.264-.014.019-.143.244.079.192.057.161.164.349.043.1.229.493.207.641.257.756.121.368.15.425.036.133.186.554.05.211.064.299.064.356.143.656.2.1.186.093.014.323.014.216.014.189.014.17.021.181.029.314.071.851.036.403.086.918-.043,1.154-.05,1.589-.064,1.898-.136,4.35-.043.199-.493,2.446-.064.125-.493.88-.336.615-.136.255-.286.505.071.059-.021.039.093.053-.05.099-.121-.053-.029.059-.036-.006-.043.089.036.026-.329.607-.086-.035-.193.349-.493.356-1.536,1.09-.693.491-.507.367-.3.215-.179.134-.3.222-.15.114-.607.444-.35.239-.064.044-.293.199-.45.344-.507.393-.307.236-.057.043-.471.365-.536.503-.357.326-.4.381-.45.411-.15.144-.371.339-.507.438-.693.625-.121.109-.143.129-.214.223.007.006.164.159-.607.604-.157-.16-.65.651-.421.773-.657,1.173-.821,1.492-.814,1.453.021.021-.064.116.021.06.129.071,1.928,1.081.029.031v.034l-.2.368-.021.014h-.029s-2.007-1.083-2.007-1.083l-.179.501-.371,1.089-.043.122-.293.861-.186.551-.114.351-.021.047-.1.301-.071.205-.093.276-.286.614v.024l-.029.037-.029.071-.314.719-.043.055-.136.199-.107.164-.65.961-1.607,2.391-1.236,1.839-.021.008-.014.007-.021.022-.064.034-.014.026-.05.034-.043.029-.057.036-.079.056-.05.039-.029.01-.05.044-.036.022-.107.079-.079.048-.079.061-.036.02-.05.041-.029.023-.064.044-.214.146-.2.143-.179.129-.036.035-.071.038-.021.02-.071.05-.107.076-.1.067h-.007l-.064.038-.036.029-.05.029-.093.058-.429.269-.136.076-.05.035-.064.041-.079.049-.6.392-.179.118-.329.224-.393.271-.357.242-.364.251-.3.204-.164.118-.1.067-.079.062-.221.209-.071.066-.157.14-.236.22-.193.173-.15.136-.179.166-.214.2-.107.1-.093.122-.079.122-.064.116-.093.16-.079.149-.107.211-.1.176-.243.424.014.067-.229.652-.057-.176-.193-.326-.157-.088-.136-.083-.136-.081-.221-.142-.093.156-.186.322-.021.041-.071.144-.079.176-.029.06-.114.284-.021.051-.021.059-.121.403-.086.409-.071.598-.036.604v.606l.029.431.507,2.801.107,1.103-.357,1.066-1.628-.891-.793-.434-.15-.085-1.885-1.031-.157-.088-.321-.175.25-.446.114-.21.264-.466.243-.431.143-.261.55-.996.321-.569.15-.271.671-1.208.25-.458.086-.148-5.228-2.896-1.686-.931-2.05-1.136-1.236-.685,1.093-1.971-2.228-1.231-1.307-.721-.814-.449-2.057-1.137-.521-.287-.193-.111-.243-.135-1.671-.923-.657-.363-.993-.552-1.086,1.964-3.55-1.948,1.071-2.01,1.093-1.951.393-.691.629-1.113.928-1.658,1.121-2.023,1-1.788.614-1.111.136-.249.264-.486,1.007-1.826.993-1.843,1.036-1.823,1.086-1.97,3.543,1.973,1.093-1.966.107-.199.086-.152.179-.321.471-.848.164-.309,1.043-1.822.436-.846.157-.276.378-.681,1.036-1.864,1.05-1.901-1.164-.642-2.4-1.329.236-.417.114-.21.114-.21.114-.199.45-.815.064-.12.136-.237.1-.186.643-1.158.093-.175.107-.193.107-.189.679-1.221,1.128-2.046,1.136.628,1.436.796.993.548,3.264,1.803.307.17.593-1.05.507-.902,1.021-1.832.271.151,3.278,1.818,1.014-1.824.229-.405.093-.174.693-1.248.914-1.653.1-.182,1.014-1.826,1.007-1.824,1.007-1.826,1.093-1.965,1.086-1.953,1.007-1.815.871-1.584.136-.235,1-1.808,1.007-1.811.971-1.848.286.113.629,1.284.743,1.328.214.376" vector-effect="none" fill="#bababa" fill-rule="evenodd" stroke="#232323" stroke-linecap="square" stroke-linejoin="bevel" stroke-width=".737"/>
    <path d="M412.682,292.594l.45,1.094.229.611.429.734.571,1.001.5.713.086.138,2.378,1.436.207.122.179.105.157.09.014.006.171.086,2.057,1.044.171.051,2.814,1.464.507.504,2.093,1.805,2.25,4.062,1.4,3.353.05,1.964-1.786,3.083-1.214,2.223-.471.493-.364.174-1.728,1.938.293.299-1.528,1.898-.471-.275-.064-.034-1.621.866-.621.381-.686.688-.286.316-.064.644.186.142-7.471,10.828-.229-.154-.429.714-.543,2.116-.914,3.569-.471.619-2.093,1.986v.009l-.107.196-.136.195-.25.076-.029.008-.136.111-.378.394-.421.221-.464.065-.393.019-.179-.08-.029-.014-.193-.074h-.329l-.729.284-3.128,2.859-.414.301-.486.117-.136.031-.2.073-.207.073-.693.203-.864-.256-1.507-1.168-2.507-1.936-.729-.535-.921-.392-3.571-.861-5.199-.906-.85-1.128-.9-.917-.371-.675-.2-.799.043-.858.107-.474.186-.383.279-1.302.064-.556.114-.682,5.699-8.813.957-1.362.65-1.576.357.074.3-.405,1.386-1.877,1.4-1.491.25.106,2.086-1.126.136-.071.129.03,2.093,1.197.271-.069,1.157.416,1.543.036,1,.064.25.07.314.086.55.119.364-.004.329-.108.093-.28-.007-.316-.043-.196-.007-.256.093-.249-.007-.256-.086-.258-.057-.171-.086-.391-.014-.211v-.279l-.25-.121-.379-.113-.229-.091-.05-.09.121-.113.521.053.293.091.479-.083.364.053.286.102.107.004.014-.098-.064-.12-1.243-.009-.571-.166-.443.03-.079.018-.157.034.079.279.136.121.136-.007.157.06.307.324.086.459-.036.745-.179.399-.136.256-.171.125-.3.033-.079-.017-.2-.043-.257-.03h-.164l-.214-.045-.114.052h-.164l-.164-.03-.143.03-.129.106h-.157l-.114-.008-.2.016-.293.049-.186-.038-.057-.07-.014-.09-.021-.085.036-.151.521-.749.179-.326.564-.822.1-.071.093-.069.214-.401-1.471-.197-.436-.396-.593-.566-.157-1.535-.007-.358.043-.356.057-.172.071-.151,2.007-3.633.207-.779.036-.144.321-.944.171-.386.121-.404.071-.415.021-.421.036-.935.036-.729v-.051l-.136-1.327-.193-.815-.179-.625-.15-.424-.371.097.014.066-.714.224-.079-.237.714-.229.036.088.364-.116-.036-.084-.129.024-.357-.881-.086-1.198.471-2.315.757-2.672.036-.148.043-.153.064-.136.107-.141.243-.323-1.221-.714.293-.497.107.06-.229.399,1.114.648.25-.386-.421-.256.014-.023.029.012.007-.02.4.233.079-.119-.4-.231.293-.437-.65-.391.036-.075-.086-.053-.279.429-.114-.045.357-.55.828.533,1.393-2.603.121-.264.107-.256.171-.234.45-.423.486-.124,2.021.036,3.814.336,1.057.703.543.36,1.264,1.891" vector-effect="none" fill="#bababa" fill-rule="evenodd" stroke="#232323" stroke-linecap="square" stroke-linejoin="bevel" stroke-width=".737"/>
    <path d="M244.175,510.927l1.857,1,2.071.714,1.143.357.929.357,1.571.786,1.571.714,1.786.786.143.071.143.071.714.286,1.928.786.143.071.571.214,1.643.643,1.928.714,1.428.643.286.071.214.071,1.5.643,1.571.643,1.928.643.929.429.714.357-.071.214-1.286,3.357,1.857.786,1.857.714,1.857.714.5.214.214.143,1.071.429-1.286,3.357-1.286,3.357-.143.214v.071l1.928.786,1.786.714,1.857.714,1.857.786.714.286.214.071.929.357.214.071.286.143.857.357.5.214,1.071.429h.143l.071.071.286.143.286.143.357.143,1.428.571,1.643.714h.143l.214.143h.143l.143.071.071-.143.214.071,2.357.929v.143l-.071.071-.071.143v.143l-.071.071v.143l-1.286,3.5.071.071-.429,1.071-.143.571-.214.357-.071.143-.286.857-.286.643-.143.286-.143.214-.357.571-.214.357-.357.429-.143.214-.429.357-.643.643-.429.429-.214.143-.214.143-.214.143-.143.071-.214.071h-.214l-.214.071h-.571l-.357.071-.857.071h-.286l-1.643.143-.5.071h-.143v.214h-.357l-1.714.214.071,1.143-4,.5-1.286.143-1.928.286-4.214.5-3.857.5-.571.071h-.071l-.071-.071-.071-.071-.286-2.143h-.143l-.071-.071v-.071h-.357l-1,.214h-.286l-.214.071-.357.071-.929.143-.786.143-.643.143-.571.143-.643.071-.786.143-.143.071-.286.071h-.357l-.071.071h-.143l-.5.071-1.071.286-1.928.357-.643.071h-.286l-.5.143-.429.143-1.357.286-1.857.357-1.428.214-1.357.286-1.786.643-.429.286-.571.286h-.071l-.357.214-.071.071-.071.071-.071.071-.071.143-.286.071-.143.214-.143.143-.143.071-.143.143-.143.071-.143.143h-.071l-.071.071-.143.143.071.071-.143.143-.071-.071-.071-.143-.643.357-.143.143h.071l-.071.071v.143l-.071.071-.286.214-.214.214-.429.214-.286.214-.5.357-.143.071-.071.071-.714.5.143.143-.214.143v.071l.143.143-.071.071h.071l-.071.071.429.643-.929.643,1.786,2.285-.5.429-1.357,1.071-1.357-1.571-.143.143-.071.071-.929-.5-.214.214.714.857-.143.071.071.071.929,1.071-.143.143-.286.214h-.071l-.286-.429v.071l-.214.143-.143-.143.214-.143-2.071-2.428-.571.429-.143.143-.429.357.357.429.214-.143.071.071-.214.143,2.214,2.643-.5.429-2.643-3.143-.643.571-.5.429-.571.5-.214.143-.571.5h-.071l-.071.143-.214.143-.714.643-.5.429-.286.214-.214-.286-.5.357-.143.143-.357.357.571.643h.071l.857,1.071v.071l.786.857.143.143-.071.071v.071l.071-.071.071.071h.071l.286.357-.429.357h-.071l-.214-.286v-.071l.071-.071h-.071l.071-.071v-.071l.071-.071v-.071l-.286.286-.714-.857-.214-.214-.286-.429-.286-.286-.214-.214-.071-.143-.143-.143-.429-.5-.071-.143-.5.429-.5.357-.643.571-.214.357-.071.214-.143.214-.571.429-.857.714-1.643,1.357h-.071l-.357.143,1.286,2.286,2.143-1.143.357.643-2.143,1.143.429.786-.571.286-2.143-3.714-3.285,1.143h-.286l.214.5-.429.071.214.571.143-.071.143.357v.071l-.071.071v.143h.071v.143l.071.143.071.071h-.071v.071h.071v.143-.071l.071.071-.071.071.071.143h.071v.143l.071.143.071.071h-.071l.286.643-.071.071v.071l-.071-.143-.214-.5-.143-.5-.071-.286-.071-.214-.071-.143-.071-.214-.071-.071-.429.143.143.571v.143l-.071.071v.071h-.143v-.071l-.071-.286-.143-.214-.071-.143-.5.071.071.143.071.143v.143l.071.214.071.214v.071h-.143l-.071-.071-.071-.143-.071-.143-.143-.214v-.214l-.357.071-.214.071v.071l.071.143.071.214.143.429.143.5.071.286-.143.214h-.214l-.143-.143-.071-.143-.071-.214v-.071l-.143-.214-.071-.143-.143-.357-.071-.286-.071-.143-.429.143v.214l.071.429.071.286v.357h-.071l-.143.071h-.071l-.071-.071-.143-.214-.143-.214-.071-.214-.071-.143v-.071l-.071-.143v-.143l-.214.071h-.214v.857l.071.357.071.643.071.143-.071.071v.071h-.143l-.071-.071-.071-.143v-.5l-.071-.214v-.5l-.071-.214-.071-.429h-.5v.643l-.071.286v.143l-.143.071h-.071l-.143-.071.071-.071v-.071l.071-.214h.071l.071-.143h.071v-.071h-.071v-.143h.071v-.071h-.071v-.143h.071v-.071h-.143v-.143h.071l-.071-.357.143-.071-.071-.857-.857-.143-.357,1.286v.143l-.071.357-.071.214v.143l-.143.429h-.214v-.071l.357-1.143v-.143l-.286-.143-.071.071-.071.143-.214.357-.214.357h-.071v.071l-.143.286-.071-.071v-.071h.071l.071-.214.143-.214.143-.143v-.071l.143-.286h.071l.143-.286-.714-.5-.143.357-.143.143-.071.143-.143.143-.143.214-.143.214-.143.286-.071-.071.143-.214.071-.071.071-.071.071-.071v-.071l.071-.071h-.071l.143-.143.143-.214.214-.357v-.071l.071-.071-.286-.214h-.071l-.429-.286-.214.429-1.214-1.143-.214-.286-.286-.357-.429-.5h-.071l-.214-.357-.357-.429-.286-.286v-.071l-.643-.857-.214-.286-.214-.357-.286-.5v.071l-.286-.429h.071-.071l-.071-.143-.071-.071-.143-.286-.071-.214-.143-.214-.143-.214-.071-.214v-.143l-.071-.214-.071-.214v-.143l-.071-.071h-.214v.071l-.214.071v-.286h.214v.071h.214v-.643l.071-.214v-.357h.071l.143-.5-.5-.143-.143.5.214.071-.071.286h-.071l-.071-.071.071-.143-.214-.071-.071.214.214-.786-1.357.214-.429-.786,2.5-.429.071-.214h-.214.071l-.071-.071h-.286l-.071.071v-.071l-.071.071h-.357l-.071.071-.071-.071v.071h-.143l-.071.214-1.714-.429v-.071l-.071-.143-.929-3.714v-.071l.214-1.428.214-1.143.071-.071.071-.071h.071l.214.071v-.143h.071v-.071l.071-.071h.071l.071-.071h.071l.071-.071h.286l.071.071h.071v.071h-.143l-.071-.071v.071h-.214v.143h-.071l-.071.071-.071.071v.071h.071v-.071h.071l.071-.071h.286v.071l.071.071v.071h.071v.143-.071h.071v-.071l.286-.929.357-1.357.071-.071v-.214l-1-.286v-.071l-.357-.071-.071-.071v-.143l.214-1.286.286-1.286.357-1.928.286-1.5.143-.857.286-1.428.071-.357.143-.928.143-1.214.143-.786.071-.857.214-1.5h.143v.143l-.214,1.286,2.643.571.143-.857-.071-.286-.071-.286v-.357l.071-.286.071-.214v-.071l.143-.214.214-.214.143-.857-.5-.071-.786-.214-1.5-.286-.143,1.286-.071.286h-.071v-.286l.214-1.428.214-1.286.286-2.071v-.429l.143-.857.143-1,.357-2.285.286-2.214.286-1.857.286-2.428.071-.071.071-.071h.071l1.5.286v-.071l.643.071-.071.071.286.071,1.214.214v-.071l.071-.143v-.071h.071l.5.071,3.357.571.286-1.786.071-.571.071-.286.143-.786.071-.714-1.214-.143.071-.643-1.286-.214v.071l-.571-.071-2.928-.429v-.071h-.286v-.143l-1.428-.214.143-1,4,.643,2.143.286,1.143.214.214-1.571-6.142-1,.143-.928,5.428.786.143-.571-.357-.071v.071l-.786-.143v-.214h.143v.071l.643.071.357.071v-.143l1.214.143.143-.786.286-1.786.286-1.928.286-1.857.286-1.857.357-2.143.357-2.285-.714-.357-.786-.143-3.928-.571-1.5-.143-.857-.143-.071-.071v-.286l.071-.357.071-.429,7.499,1.286.357.143v.143l.714.143.357.071h.286l.214.071,2.143.286,1.786.214.571.071,1.071.143,1.714.214.071-.214,2.357.286,1.571.214,2.714.286,1.143.143.429-1.286.214-.857.643-2.071.214-.571.071-.286.357-1.143.286-.786.5-1.286.214.143.214.143.429.286.571.357,1.714,1.143,1.643,1.071,1.571,1,1.786,1.143,1.714,1.143,1.643,1.071h0" vector-effect="none" fill="#bababa" fill-rule="evenodd" stroke="#232323" stroke-linecap="square" stroke-linejoin="bevel" stroke-width=".737"/>
    <path d="M201.822,605.276l3,.786.071-.429-.143-.071.071-.143.5.071-.071.214-.143-.071-.143.5h.143l.286-.429h-.071l.071-.143.214.143.214.143-.071.071-.143-.071-.286.357,2.071.571,1.643,2,.071.071h.143l1.928-.571v-.071l.214-.5.071-.071.071-.071.143-.071.357-.071h.214l.429.214.071.143v.071l.071.143.071.214v.214l-.214.286-.071.143-.071.071h-.143l-.357.143h-.143l-.286-.143-.071-.071-.071-.071h-.071v-.071l-.071-.143h-.214v.071l-.643.143-.857.214h-.143v.071h-.071v.214l.143.071v.071l.143-.143.643.786-.071.071.143.214-.071.071h.071v.071l.143.143.143.071.214.214.071-.071v.143h.071l.071-.071v-.071h.071v.071l1.071-.286v.071l-1.286.429.214.5.714.071v.143h.786v.214l-.786-.071-.071.714h.286v.071l.071.071.143-.071v-.071h.071l-.071.214v.143l.071.143h-.214v.143l-.071.071h-.071v.214h-.214l-.214,3.428-.857,1.428-.071.214-.929,1.643-.214.071-.143.071-.214.143-.143.143-3.071,2.214-2.571-.286-.143.071-.928.571-1,.643-.214.071.786,1.286.143.071,3.285-.357v.143l.071.143-3.285.357h-.143l-.214-.143v-.143l-.786-1.286-6.714,4.071-.857.5.786,1.286h.071l1.571-.929.143.214-3.428,2-.143-.143,1.571-1v-.071l-.714-1.214-1,.571-1.714,1-.857.5.071.214.143.286-.143-.286-.143.071.143.286-.143-.286h-.143l.071-.071-.071-.071-.143.071-.429.214,1,1.714-2.071,2.5-.286-.214,1.857-2.286-.857-1.5-.571.357-.286.143-.286.143-.286.071-.071.071-.286.071-.5.071-.357.071h-1.071l-.5-.071-.429-.143-.357-.071-.5-.143-.5-.143-.5-.286-.429-.357-.357-.429-.214-.214-.214-.357-.214-.286-.286-.429-.143-.429-.143-.429-.071-.357v-1.143l.071-.429.214-.429.143-.357.071-.143.143-.143.214-.286.143-.143.214-.286.643-.786.429-.571.429-.5.429-.571.071-.071.429-.429v-.071l.5-.643.429-.5.214-.286.286-.357.286-.357.143-.214.357-.429.357-.429.286-.357.357-.357.286-.429.571-.714,1-1.214.286-.286.286-.357.357-.5.786-.929.929-1.143v-.071l.643-.714.5-.643.571-.786.571-.643.571-.643.786-2.571.071-.357h.071v-.143l.214-.214.286-.143h.071l.357-.071.429.071h.786l1.357-.143h.5l1.357-.143,1.357-.071h0" vector-effect="none" fill="#bababa" fill-rule="evenodd" stroke="#232323" stroke-linecap="square" stroke-linejoin="bevel" stroke-width=".737"/>
    <path d="M141.77,614.411l.821,1.457,1.707-1.057-.107-.2.171-.1.336.557-.193.1-.114-.2-1.714,1.05-.107,1.293-.279,1.236-.743.536-.907.193-.878-.236-3.3-2.128-1.171-1.821-1.493.993-.557-.878.321-.2.343.521,1.193-.743-.686-1.064.2-.129-.014-.543-.143-.264-.029-.05-.071-.164-.007-.171.036-.171.1-.15.171-.121.207-.05,1.828-.143.057-.071.336.057.3.136,2.771,1.407,1.614,1.121" vector-effect="none" fill="#bababa" fill-rule="evenodd" stroke="#232323" stroke-linecap="square" stroke-linejoin="bevel" stroke-width=".737"/>
    <path d="M214.692,630.995l-2.228,1.757-.536-.6,4.557-3.628,2.95-2.336.2-.136.214-.179.536-.429.421.657-.579.464-.193.157-.193.15-2.064,1.65-3.085,2.471" vector-effect="none" fill="#bababa" fill-rule="evenodd" stroke="#232323" stroke-linecap="square" stroke-linejoin="bevel" stroke-width=".737"/>
    <path d="M235.94,610.725l1.393,2.478-9.063-3.343.85-2.228,5.4,1.993,1.421,1.1" vector-effect="none" fill="#bababa" fill-rule="evenodd" stroke="#232323" stroke-linecap="square" stroke-linejoin="bevel" stroke-width=".737"/>
    <path d="M247.089,581.764l-.464.814-.264.464-.179.314-.271-.329-1.564-.693-.514-.378-.093.114-.743-.578,4.307-5.407.678.343,1.65.829-.264.479-.279.486-1.843,3.257-.157.286" vector-effect="none" fill="#bababa" fill-rule="evenodd" stroke="#232323" stroke-linecap="square" stroke-linejoin="bevel" stroke-width=".737"/>
    <path d="M237.147,602.519l-.393.636-4.55-2.064.843-1.7.521-1.014,4.714,2.171-.957,1.678-.179.293" vector-effect="none" fill="#bababa" fill-rule="evenodd" stroke="#232323" stroke-linecap="square" stroke-linejoin="bevel" stroke-width=".737"/>
    <path d="M235.019,607.983l-5.014-2.328.586-1.186.643-1.264,4.835,2.193-.6,1.486-.45,1.1" vector-effect="none" fill="#bababa" fill-rule="evenodd" stroke="#232323" stroke-linecap="square" stroke-linejoin="bevel" stroke-width=".737"/>
    <path d="M230.419,618.096l-1.707,2.078-4.85-1.778.929-2.457,5.628,2.157" vector-effect="none" fill="#bababa" fill-rule="evenodd" stroke="#232323" stroke-linecap="square" stroke-linejoin="bevel" stroke-width=".737"/>
    <path d="M242.468,591.541l-1.093,2.628-4.821-2.178,1.243-2.471,4.671,2.021" vector-effect="none" fill="#bababa" fill-rule="evenodd" stroke="#232323" stroke-linecap="square" stroke-linejoin="bevel" stroke-width=".737"/>
    <path d="M232.29,613.739l-.957,2.364-5.2-1.807.921-2.485,5.235,1.928" vector-effect="none" fill="#bababa" fill-rule="evenodd" stroke="#232323" stroke-linecap="square" stroke-linejoin="bevel" stroke-width=".737"/>
    <path d="M227.805,621.946l-1.386,2.385-4.878-1.75.914-2.386,5.35,1.75" vector-effect="none" fill="#bababa" fill-rule="evenodd" stroke="#232323" stroke-linecap="square" stroke-linejoin="bevel" stroke-width=".737"/>
    <path d="M149.541,585.492l.143.071h.571l.071.143.214.071.071.143.143.071h.143l.143.071.071.071.071.071.214.071.071.143.143.071.143.071.143.071.143.071.143.071h.429l.143.071.143.143.143.143.071.214v.143l.071.143v.214l.071.143.143.071.214.143.071.143.071.143v.429l.071.214v.214l.071.071v.143l.071.071v.143l-.071.071h-.071l-.071-.071h-.071l-.071-.071h-.143l-.071.143-.143.071h-.214l-.214.071h-.143l-.214.071h-.357l-.143-.071-.071-.143-.143-.143-.143-.071-.071-.143-.071-.071h-.143l-.143.071-.071.071-.143.143-.429.429-.714-.786.286-.357.214.143h.429l.071-.143v-.071l-.071-.143-.071-.071-.143-.143-.071-.071-.143-.071-.071-.071h-.071l-.143-.071-.143-.071v-.143l-.071-.143-.143-.071-.071-.071-.071-.071h-.071l-.071-.071v-.071l-.071-.143v-.214l-.071-.071v-.071l-.071-.071-.071-.071-.071-.071v-.071l-.071-.143v-.286l-.071-.071v-.143l-.071-.143-.071-.143v-.286l-.071-.143.071-.143h.286l.143.071.143.071.071.071h.143" vector-effect="none" fill="#bababa" fill-rule="evenodd" stroke="#232323" stroke-linecap="square" stroke-linejoin="bevel" stroke-width=".737"/>
    <path d="M243.304,589.406l-.05.1-4.414-2.05,1.2-2.485,4.371,1.986-1.107,2.45" vector-effect="none" fill="#bababa" fill-rule="evenodd" stroke="#232323" stroke-linecap="square" stroke-linejoin="bevel" stroke-width=".737"/>
    <path d="M237.926,594.477l1.85.786.136-.271-.121-.064.071-.136.329.171-.214.464.064.064-.107.371-2.136-1.021.129-.364" vector-effect="none" fill="#bababa" fill-rule="evenodd" stroke="#232323" stroke-linecap="square" stroke-linejoin="bevel" stroke-width=".737"/>
    <path d="M277.879,569.786h-.193l.086-.814,3.093-.221.014.293-2.843.179-.057.536-.1.029" vector-effect="none" fill="#bababa" fill-rule="evenodd" stroke="#232323" stroke-linecap="square" stroke-linejoin="bevel" stroke-width=".737"/>
    <path d="M249.896,576.757l-.057.043-.886-.414.336-.814.693.5.4.264-.486.421" vector-effect="none" fill="#bababa" fill-rule="evenodd" stroke="#232323" stroke-linecap="square" stroke-linejoin="bevel" stroke-width=".737"/>
    <path d="M250.46,574.421l-.286.5v-.071l-.071.071-.214-.071.286-.571h.143l.143.143h0" vector-effect="none" fill="#bababa" fill-rule="evenodd" stroke="#232323" stroke-linecap="square" stroke-linejoin="bevel" stroke-width=".737"/>
    <path d="M235.019,607.983l-.121.4-.029.093.029-.093.121-.4" vector-effect="none" fill="#bababa" fill-rule="evenodd" stroke="#232323" stroke-linecap="square" stroke-linejoin="bevel" stroke-width=".737"/>
  </g>
  <g>
    <path d="M282.27,204.143c-.637,17.294,9.413,28.59,25.173,32.265" fill="none" stroke="#000" stroke-linecap="round" stroke-linejoin="round" stroke-width="2"/>
    <path d="M319.446,237.715c-5.894,1.4-13.327,4.11-18.126,7.358l4.573-9.022-2.256-9.858c3.872,4.312,10.428,8.74,15.809,11.521Z"/>
  </g>
<style>
#g-neighborhoods-tablet-council-img rect, #g-neighborhoods-tablet-council-img circle, #g-neighborhoods-tablet-council-img path, #g-neighborhoods-tablet-council-img line, #g-neighborhoods-tablet-council-img polyline, #g-neighborhoods-tablet-council-img polygon { vector-effect: non-scaling-stroke; }
</style>
</svg>
