<?xml version="1.0" encoding="UTF-8"?>
<svg id="g-neighborhoods-mobile-hamilton-img" xmlns="http://www.w3.org/2000/svg" baseProfile="tiny" version="1.2" viewBox="0 0 300 430.431">
  <!-- Generator: Adobe Illustrator 29.1.0, SVG Export Plug-In . SVG Version: 2.1.0 Build 142)  -->
  <path id="hamilton" d="M194.828,170.711l.662.364,1.659.916.62.338.543.329.867.465,1.152.636-1.032,3.195-.927,2.929-1.42,2.716-1.448,2.624-1.466,2.654-1.462,2.637-1.462,2.638-1.459,2.619-1.526,2.74-1.593,2.754-1.004,1.441-.87,1.247-1.751,2.447-1.786,2.503-1.79,2.476-2.963-1.629-3.742-2.081-2.724-1.501-1.473,2.634-4.457-2.479-1.466,2.661-1.455,2.622-6.712-3.685-2.139-1.183-.317-.177-.317-.174-6.215-3.468-.109-.063-.127-.055-1.839-.797-.564-.118-1.011-.19-.821-.154-.222-.052-.226-.051-.61-.202-5.577-4.429.398-.792.067.033,5.021-9.986.574-1.141,1.001.495,2.029-4.006.381.182-.011.018-.067.115,3.823,1.936,1.099-2.144.504.241.247-.478h0s.078-.138.078-.138l.257-.472.285-.504.18-.301.152-.227.106-.138.243-.292.092-.12.039-.054.113-.172.102-.178,1.17-2.175,1.98-4.214,2.544-5.039.877-1.454.338-.869.49-.648.335-.667.757-1.466.405-.678.141-.613.307-.589.035-.425.106-.502.18-.607.282-.639.187-.34.257-.332.148-.251.363-.582.18-.413.095-.251.113-.413.099-.186.25-.348.18-.38.233-.194.433.217.469.226.247.081.208.124.391.191.525.264.536.257,1.184-.298.222-.056,2.026.847,7.582,4.49.328.174.338.187,8.837,4.89,5.197,2.87.941.526,2.354,1.31" vector-effect="none" fill="#0c3275" fill-rule="evenodd" stroke="#232323" stroke-linecap="square" stroke-linejoin="bevel" stroke-width=".25"/>
  <g>
    <path d="M126.187,155.582c11.94,8.644,8.969,6.48,18.511,13.394" fill="none" stroke="#000" stroke-linecap="round" stroke-linejoin="round"/>
    <path d="M149.587,172.519c-2.918-.812-6.826-1.423-9.712-1.162l4.183-2.843,1.396-4.86c.652,2.823,2.451,6.346,4.134,8.864Z"/>
  </g>
<style>
#g-neighborhoods-mobile-hamilton-img rect, #g-neighborhoods-mobile-hamilton-img circle, #g-neighborhoods-mobile-hamilton-img path, #g-neighborhoods-mobile-hamilton-img line, #g-neighborhoods-mobile-hamilton-img polyline, #g-neighborhoods-mobile-hamilton-img polygon { vector-effect: non-scaling-stroke; }
</style>
</svg>
