<?xml version="1.0" encoding="UTF-8"?>
<svg id="g-neighborhoods-desktop-hamilton-img" xmlns="http://www.w3.org/2000/svg" baseProfile="tiny" version="1.2" viewBox="0 0 1200 900">
  <!-- Generator: Adobe Illustrator 29.1.0, SVG Export Plug-In . SVG Version: 2.1.0 Build 142)  -->
  <path id="hamilton" d="M697.052,339.123l1.649.906,4.133,2.281,1.544.842,1.351.819,2.158,1.158,2.869,1.583-2.571,7.955-2.308,7.295-3.536,6.765-3.606,6.533-3.65,6.609-3.641,6.566-3.641,6.569-3.633,6.523-3.799,6.823-3.966,6.858-2.501,3.588-2.167,3.104-4.361,6.093-4.448,6.234-4.457,6.165-7.379-4.056-9.318-5.181-6.782-3.739-3.668,6.559-11.099-6.173-3.65,6.626-3.624,6.53-16.714-9.176-5.326-2.945-.79-.44-.79-.434-15.477-8.635-.272-.156-.316-.138-4.58-1.986-1.404-.293-2.518-.474-2.044-.384-.553-.129-.562-.128-1.518-.502-13.889-11.029.991-1.972.167.082,12.503-24.866,1.43-2.842,2.492,1.234,5.054-9.977.948.454-.026.045-.167.285,9.52,4.821,2.738-5.338,1.255.6.614-1.191v-.002l.193-.342.64-1.176.711-1.255.447-.75.377-.564.263-.344.605-.727.228-.298.097-.133.281-.428.254-.442,2.913-5.417,4.931-10.493,6.335-12.549,2.185-3.622.842-2.164,1.22-1.614.834-1.662,1.886-3.651,1.009-1.687.351-1.528.763-1.468.088-1.057.263-1.249.447-1.511.702-1.592.465-.846.64-.826.369-.625.904-1.45.447-1.027.237-.625.281-1.027.246-.463.623-.867.447-.947.579-.484,1.079.541,1.167.563.614.202.518.308.974.476,1.307.657,1.334.64,2.948-.742.553-.139,5.045,2.109,18.882,11.181.816.433.842.465,22.005,12.177,12.942,7.148,2.343,1.309,5.861,3.262" vector-effect="none" fill="#0c3275" fill-rule="evenodd" stroke="#232323" stroke-linecap="square" stroke-linejoin="bevel" stroke-width=".737"/>
  <g>
    <path d="M526.121,301.448c30.694,22.221,21.818,15.762,48.496,35.093" fill="none" stroke="#000" stroke-linecap="round" stroke-linejoin="round" stroke-width="2"/>
    <path d="M584.393,343.625c-5.836-1.624-13.653-2.845-19.424-2.323l8.365-5.686,2.791-9.72c1.304,5.647,4.903,12.692,8.268,17.729Z"/>
  </g>
<style>
#g-neighborhoods-desktop-hamilton-img rect, #g-neighborhoods-desktop-hamilton-img circle, #g-neighborhoods-desktop-hamilton-img path, #g-neighborhoods-desktop-hamilton-img line, #g-neighborhoods-desktop-hamilton-img polyline, #g-neighborhoods-desktop-hamilton-img polygon { vector-effect: non-scaling-stroke; }
</style>
</svg>
