<?xml version="1.0" encoding="UTF-8"?>
<svg id="g-neighborhoods-mobile-manhattan-img" xmlns="http://www.w3.org/2000/svg" baseProfile="tiny" version="1.2" viewBox="0 0 300 430.431">
  <!-- Generator: Adobe Illustrator 29.1.0, SVG Export Plug-In . SVG Version: 2.1.0 Build 142)  -->
  <g>
    <path d="M122.642,224.545l.28.22.079.063.16.1.092.076.1.073.141.078,1.679.939,1.442.805.074.04.071.04,3.226,1.789,3.055,1.672.258.145.52-.951,1.287.717,1.151.64.144.103.025.552.031.188.057-.011.078-.009h.079s.078.01.078.01l.076.019.055.019.055.034.052.04.047.045.04.052.035.054.028.059.018.062.011.062.005.064v.063s-.01.063-.01.063l-.014.062-.021.06-.026.058-.043.059-.05.054-.057.047-.062.04-.066.031-.069.024-.063.01-.064.003-.064-.004-.063-.013-.06-.018-.059-.025-.294.544-.596,1.028-.296.533-.272.491-.529.957-.535.957-.524.952-.532.955-.529.961-.53.955-.532.962-.527.952-.534.966-.524.939-.539.957-.525.964-.529.957-.573,1.029-.563,1.018-.523.942-.524.949-.529.952-.519.941-.522.942-.524.949-.563,1.014-.563,1.02-.5.903-.539.974-.529.95-.523.947-.52.936-.524.942-.525.944,2.423,1.349.874.486,3.306,1.835-.527.942-.227.412-.297.532-.559,1.007-.564,1.032-.517.936-.276.494-.22.412-.501.897-.495.889-.499.905-.495.889-.544.979-.578,1.046-3.307-1.82-3.299-1.834-.679-.374-2.344-1.303-.276-.151-.093-.05-1.776-.985-.954-.525-.479-.271-.576-.328-.107-.02-.118-.014-.146-.081-.156-.091.072-.596-.173-.02v-.02s-.442-.059-.442-.059l.06-.467-.019-.009-2.945-.388-.021-.023-.013-.043.068-.517.024-.038.057-.026.05.006,2.865.397.028-.03.058-.421.052.004.409.054.164.024.113-.797.088-.64-.003-.035-.244-.043-.737-.127-.044-.008.063-.445-.417-.059-.02.016-.005.03-.006.048-.008.062-.01.069-.01.078-.006.052-.01.068-.009.068-.01.078.013.016.137.015-.004.028-.344-.04.004-.033.13.015.018-.014.016-.127.011-.082.008-.05.01-.074.008-.058.011-.079.006-.049.004-.03-.019-.02-.557-.077-.021.016-.005.031-.005.045-.008.058-.01.074-.01.082-.008.053-.003.025-.025.185.021.016.134.014-.003.025-.401-.043.004-.029.18.02.024-.015.02-.179.005-.044.015-.132.013-.108.008-.062.003-.026-.016-.015-.649-.086-.015.018-.009.089-.006.053-.01.084-.008.064-.013.105-.006.048-.013.103.021.015.128.011v.023s-.401-.042-.401-.042l.003-.023.18.019.023-.145.006-.037.02-.132.009-.053.016-.106.014-.093-.014-.021-.666-.092-.064.558.015.03.132.013-.003.02-.193-.019.072-.61.005-.042.005-.039-.019-.037.074-.517.009-.033.038-.028h.05s1.255.166,1.255.166l.005-.049.491.069v.024l.21.034v.03s.562.076.562.076l.013-.102.013-.096.008-.054.013-.1.006-.048.014-.103.006-.053.013-.097.006-.049.006-.043.005-.035.014-.115-2.522-.354-.039-.019-.026-.033.003-.042.064-.518.025-.026.033-.009.045.006,2.559.341.122-.912-.491-.065v.023h-.009v.025h.02s-.001.049-.001.049l-.479-.059.006-.052.06.008.005-.048-1.691-.236-.044-.029-.014-.03.069-.528.018-.037.033-.021h.044s2.565.35,2.565.35l.131-.957h-.039s0,.018,0,.018l-.106-.014-.004.021-.397-.053v-.01s-.126-.018-.126-.018l.006-.039-1.916-.262-.031-.018-.025-.033v-.029l.078-.503.019-.024.028-.013.035-.003,1.314.183.448-1.586.359-.023.173-.59-1.828-.996.131-.456,1.817,1.028.343-1.189-.029-.059.074-.248.054-.038.103-.353-.265-.098-.442-.229.016-.029.442.233.11.038.01-.025-.379-.184.014-.021-.094-.053-.013.01-.068-.033.003-.004.055-.11.071.038-.011.019.091.05.016-.03.282.155.094.053.011-.024-.097-.045-.786-.432.015-.026.986.542.062-.213-.455-.254.018-.03-.043-.021-.015.025-1.178-.644.023-.034-.05-.028-.019.035-.098-.054.082-.147-.059-.033.06-.107.151.084-.115.205.057.03.01-.014,1.162.648-.006.013.05.03.121-.217.389.218.397-1.383.127-.437.19-.656.139-.474-.145-.083.173-.296.145.082.205-.377.011-.019-.15-.082.165-.3.147.081.215-.379.178-.322.121-.215.145-.266.121-.218.312-.568.117-.213.16-.302.049-.094.134-.258.454-.816.241.14.474-.883-.19-.113-.362-.22.288-.503-2.246-1.227-.034-.024-.02-.043.009-.043.551-.983.026-.025.035-.003.038.004.15.073,2.103,1.159.348-.637.346.193.117-.207-.317-.176-.194-.111.052-.096.063-.113-.112-.078-.018.018-.068-.054.058-.074.068.053-.014.018.105.079.024-.049.514.286.112-.214-.413-.239.12-.199.276-.486.236-.423.292-.534.403.228.524-.94-2.567-1.45-.015-.023.003-.025.125-.214.025-.018.031.006,2.555,1.441.48-.864.296-.535-2.584-1.432.169-.299,2.586,1.417.48-.872-2.53-1.395.234-.433-.131-.076-.086.025-.031.057-.071-.039.078-.141.01-.009.013-.008.013-.004.014-.003h.014s.014.001.014.001l2.353,1.309.387.203.933.533.336-.248.018.015.122-.225.083-.152.015-.026.328-.583-3.628-2.017-.016-.055.268-.483.038-.024,3.282,1.82.106.059.261.142.358-.655-.028-.115-.04-.019-.035-.029-.024-.05-.011-.057.008-.052.025-.043.039-.035.052-.025.123-.033.052-.028.043-.054.05-.102.078-.157.024-.048-.013-.024-3.788-2.104-.037-.049.014-.03.194-.357.035-.029.058-.003.024.014,3.645,2.06.01-.018.094.052.402-.729.398-.726-3.776-2.108-.025-.026v-.038l.227-.396.043-.013.037.013,3.753,2.101.394-.721.417-.762-3.799-2.1-.009-.05.209-.373.047-.026.05.005,2.788,1.577.053-.097-.144-.079.163-.277.136.076.374-.68-2.852-1.587.307-.552,2.845,1.567.503-.92-.159-.082.135-.242.155.089.398-.729-.385-.197.055-.101-.103-.086-.021.039-.112-.063-.018.035-.086-.05.118-.218.009.005.044-.079.073.037-.043.082.115.066-.025.038.141.044.008-.018.369.215.212-.389.155.015.038-.013.026-.029.013-.028-.003-.047-.097-.139.037-.058v-.021s-2.434-1.35-2.434-1.35l.233-.419,2.438,1.357.383-.684-1.174-.65-.899-.499.126-.223,2.067,1.146.107-.003.1.059.387-.679-.066-.037h-.005s-.083.018-.083.018l-.058.094-.127-.063-.016.033-.191-.103.023-.037-.11-.071.067-.125.029-.053-.848-.496-.055.102-.021.039.088.047-.043.093-1.382-.752.052-.096.102.054h0s.052-.107.052-.107l-.074-.04h-.001s.003-.005.003-.005l.031-.054-.023-.013-.071-.042.098-.151.05.026.557.302,1.9,1.057" vector-effect="none" fill="#bababa" fill-rule="evenodd" stroke="#232323" stroke-linecap="square" stroke-linejoin="bevel" stroke-width=".25"/>
    <path d="M162.456,181.785l.944.517.409.224.358.134-.185.332-.331.593-.532.955-.533.969-.573,1.039-.572,1.024-.261.477-.27.485-.534.96-.533.965-.534.959-.535.94-.179.338-.121.227-.161.29-.571,1.023-.111.198-.43.791-.591,1.067-.571,1.029-.523.954-.543.966-.53.959-.53.962-.51.942-.554.976-.532.957-.54.95-.273.51-.028.057-.262.474-.577,1.043-.543.97-.534.971-.537.969-.581,1.047-2.145,3.888-.576,1.027-.262.47-.278.505-.257.464-.287.514-.532.962-.576,1.037-.583,1.051-.527.952-.534.96-.529.955-.529.954-.51.937-.545.975-.535.956-.533.957-.525.952-.533.968-.762,1.348-.055-.019-.076-.019-.078-.009h-.079s-.078.008-.078.008l-.057.011-.031-.188-.025-.552-.144-.103-1.151-.64-1.287-.717-.52.951-.258-.145-3.055-1.672-3.226-1.789-.071-.04-.074-.04-1.442-.805-1.679-.939-.141-.078-.1-.073-.092-.076-.16-.1-.079-.063-.28-.22.086-.139.047-.171.064-.156.079-.118.089-.108.11-.125.098-.086.037-.049.062-.19.855-1.6.052.028.058-.071.068-.034.076.009.16-.149.241-.583-.077-.018-.117.042-.12.02-.038-.05-.028-.084.346-.653.079-.136.685-1.232.583-1.051.228.009.388-.037.343-.629.525-.965.52-.955h0l.029-.053.106-.184.251-.436-.004-.031-.403.024-.068-.039-.152-.021-.103.019-.115.042-.096.031-.086.009-.103-.014-.118-.024-.112-.018-.113.013-.1.026-.13.031-.111-.005-.089-.005-.132-.013-.144.008-.147.039-.103.01-.112-.02-.116-.026-.1-.003-.014.031-.047.031-.031-.003-.043.071-.223.016.152-.276,2.943-.189-.062-.117.015-.159.018-.055v-.04l-.009-.159.625-1.154.173-.384.025.011.077-.214.008-.021.013-.034.1-.281-.068-.026.028-.073.067.025.067-.209.048-.096.049-.089,1.629-3.093.258-.493.161-.306.578-1.075.174-.334-.821-1.082-.329.228-.716,1.115-.054-.031.721-1.131.387-.261.043-.179.067-.004.05.019-.082.261.776.984.404-.776-.136-.068.033-.072-.053-.026-.045.083.014.006-.008.014-.038-.024.049-.087-.515-.285-.039.071-.057-.031.097-.173.053.029-.039.073.064.035.476.262-.006.013.055.029.037-.06.132.071.094-.178.326-.617-1.265-.054-.173.219-.058-.04-.008-.052.159-.199.786.045h.6s1.073-2.029,1.073-2.029l1.565-2.964.534-1.012.574-1.087.12-.225.397-.752.475-.899.121-.21.35-.611.1-.183.881-1.626,1.159-2.153.574-1.067,1.093-2.058.525-.98.132-.248.528-1.004.057-.097-.011-.082.034-.077.253-.411.321-.619.21-.392.141-.275.146-.288.202-.39.207-.373.398-.702.236-.446.048-.123.145-.238.063-.186.125-.197.082-.091.204-.418.188-.305.088-.221.068-.124.04-.028.131-.269.063-.108-.004-.054.368-.676.443-.795.141-.323.113-.137.156-.15.021-.104.102-.223.107-.169.01-.082.197-.364.175-.297.213-.4.14.072.169.088.091.043.082.041,1.052.504,1.371.656.055.026.074.033.519.227,1.446.727.118.06.121.068.49.272.163.09.545.302.161.089,1.259.696.559.309,3.233,1.789,1.663.983" vector-effect="none" fill="#bababa" fill-rule="evenodd" stroke="#232323" stroke-linecap="square" stroke-linejoin="bevel" stroke-width=".25"/>
    <path d="M146.951,238.141l1.863,1.056,1.75.961.122.068.13.073,1.745.975-.529.959-.568,1.025-.572,1.036-.53.957-.525.954-.534.959-.53.955-.53.954-.529.959-.53.959-.529.957-.533.955-.529.956-.533.957-.528.956-.529.955-.569,1.032-.564,1.018-.524.945-1.742-.964-.142-.083-.115-.064-1.76-.974-.527.942-.522.952-.523.939-.525.945-.519.945-.563,1.019,1.771.985.048.028.059.035.035.018.059.033,1.785.981-.566,1.023-.52.944-.523.944-.525.942-.522.944-.518.944-.53.95-.428.77-.092.168-.525.951-.519.95-.562,1.005-.569,1.024-1.441-.799-.207.401-.362-.205-.087-.048-.309.556.084.049.436.238-.505.893.131.071-.501.897,1.246.684-.495.894-.495.894-.499.897-.545.968-.573,1.059-.069-.038-1.237-.679-.989-.617-.518-.265-.6-.31-2.211-1.206-3.745-2.074.578-1.046.544-.979.495-.889.499-.905.495-.889.501-.897.22-.412.276-.494.517-.936.564-1.032.559-1.007.297-.532.227-.412.527-.942-3.306-1.835-.874-.486-2.423-1.349.525-.944.524-.942.52-.936.523-.947.529-.95.539-.974.5-.903.563-1.02.563-1.014.524-.949.522-.942.519-.941.529-.952.524-.949.523-.942.563-1.018.573-1.029.529-.957.525-.964.539-.957.524-.939.534-.966.527-.952.532-.962.53-.955.529-.961.532-.955.524-.952.535-.957.529-.957.272-.491.296-.533.596-1.028.294-.544.059.025.06.018.063.013.064.004.064-.003.063-.01.069-.024.066-.031.062-.04.057-.047.05-.054.043-.059,2.806,1.534.831.462,2.472,1.373,2.372,1.325.646.362.722.445" vector-effect="none" fill="#bababa" fill-rule="evenodd" stroke="#232323" stroke-linecap="square" stroke-linejoin="bevel" stroke-width=".25"/>
    <path d="M159.597,252.967l-.068.105-.043-.026-.529.791-.244.365.033.034-.339.505-.668.961-1.131,1.626-.272.393-.441.634-3.007,4.703-.239.374-.063.091-.072.116-.151.241.155.1-.074.111-.003.019-.004.015h-.018s-.011.033-.011.033l-.024.016-.016.035-.045.078-.037.058-.037.054-.016.033-.028.043-.016.018-.023.049-.011.019-.052.068-.004.016-.009.018-.011.01-.009.024-.025.03-.029.05-.008.016-.025.042-.015.013-.006.019-.049.069-.22.343-.028-.019-.009.003-.018.035-.013.006-.004.016-.015.015-.004.014-.06.091-.069.111-.093.146-.026.034-.015.023-.004.018-.087.141-.008.004-.009.014-.05.086-.02.024v.01s-.02.026-.02.026l-.018.03-.034.049-.068.116-.035.045-.054.086-.03.055-.01.005-.073.117v.015s-.209.325-.209.325l-.035-.021-.008.01-.023-.018.005-.006-.054-.043-.086.141-.05.079-.045.071-.1.16-.144.231.016.019v.021l-.062.108-.074.125-.021.009-.014-.003-.038.066-.073.14-.064.116-.191.383-.079-.042-.024-.019-.014-.004-.01-.01-.014-.003-.009-.011h-.013l-.014-.013-.049.098-.037.074-.117.236.385.241h.006s.023.013.023.013l.009.014.038.02.014.021.004.019-.023.031-.023.033h-.01l-.013.009-.035-.02-.008.004-.044-.025h0l-.043-.028-.101-.058-.004.004-.244-.128-.01.006-.028.057-.078.155-.098.193.144.083.034.02-.088.183-.087.171-.161.312-.166.333-.048.096-.243.504.146.079.025.015-.039.072-.215.426-.103.688-.024.151-.037.253-.059.358-.053.373-.102.621-.005.026.089.014.02.004.015.005.016.02.005.026v.005s-.059.375-.059.375l-.011.015-.011.005v.013s.045.004.045.004l-.024.145-.059-.009-.003.008.019.013.006.014-.06.392-.011.025-.025.011-.125-.016-.253,1.221.003.068.005.184.008.062v.091s-.003.171-.003.171l.016.087v.074s.005.048.005.048l.003.067-.003.11.009.112v.088s-.008.096-.008.096l-.014.008v.024s.013.018.013.018l.005.19-.01.016v.014l.011.01.004.265.006.021.01.14-.015.037.008.025.009.116-.011.037.01.202.019,1.371.009.038.003.082.006.068.021.282-.008.024.086.983-.024.024-.417.025-1.796-.983-.053.184.05.025.006-.011h.014s.432.243.432.243l-.023.039-.445-.244.003-.009-.045-.019-.043.326.033.004.04.019.008-.005.341.149-.013.034-.344-.152v-.006s-.037-.01-.037-.01l-.03.003-.011.227.008.149.023-.12.044.009-.014.059.247.052.004.025-.014.021-.247-.048v.015s-.008,0-.008,0l.006.093.008.092h.086v-.008h.149v-.006s.083-.006.083-.006l.004.03.037.004.014-.021.062.047.003-.005.781.422-.024.042.185.103.26.146.291-.529-.151-.116.006-.013.195.157-.272.486.039.026.037-.055.054.039.025-.049.03.019-.125.205-.025-.02.025-.044-.059-.031.029-.044-.037-.024-.04.068-.305-.175-.026.062.006.009.02.03.024.044.008.044-.005.06-.023.059-.038.045-.047.033-.057.028-.049.005-.073-.011-.025.048-1.042-.569.016.127.018.084.024.132.019.093.028.136.042.212.05.265.019.097.05.246.034.16.016.094.021.116.052.26.054.28.044.224.034.168.039.204.019.026.009.057.033.025.006.034.013.028.029-.003.004.03.011.014.01.026-.024.028.009.047.019-.005-.01-.02.021-.019.025-.006.03.033-.023.024.023.019.023-.02.028.005.015-.015.023.009.021-.008.015.02-.021.015.003.033-.026.006-.013.016-.013.025-.024.005-.024.024-.031.005-.015.033-.025-.006-.038.013.005.045.113.576.11.578.034.205.024.105.021.098.081.426.021.113.125.624.037.071.019.024.029.057.028.039.04.068.054.086.042.062.063.084.055.073.053.071.054.068.101.111.102.105.1.116.121.126.096.1.093.088.024.021.147.137.107.101.008.008.169.164.04.049.05.063.055.068.071.107.054.084.03.045.094.157.004.013.053.105.084.165.058.135.068.18.013.042.033.115.026.122.02.112.009.049.013.103.011.178.006.131v.116l-.015.228-.009.127-.029.22-.005.034-.019.169-.044.315-.052.457-.016.015-.004.073-.019.009-.034-.016-.02.004-.019.008-.039.363.116.014.029.004.028.003.019.01.01.018.023.003.003.035-.159,1.102-.197-.13-.071-.069-.064-.049-.074-.06-.086-.077-1.451-.835-2.755-1.581-.168-.087-.447-.217-.823-.452-.737-.409-.568-.316-1.257-.729-.945-.537-.488-.276-1.542-.849-.282-.147-.65-.336-.102-.053-.474-.261-.291-.159-.294-.163-.108-.06-1.61-.884-2.599-1.44-.455-.252-1.403-.777.573-1.059.545-.968.499-.897.495-.894.495-.894-1.246-.684.501-.897-.131-.071.505-.893-.436-.238-.084-.049.309-.556.087.048.362.205.207-.401,1.441.799.569-1.024.562-1.005.519-.95.525-.951.092-.168.428-.77.53-.95.518-.944.522-.944.525-.942.523-.944.52-.944.566-1.023-1.785-.981-.059-.033-.035-.018-.059-.035-.048-.028-1.771-.985.563-1.019.519-.945.525-.945.523-.939.522-.952.527-.942,1.76.974.115.064.142.083,1.742.964.524-.945.564-1.018.569-1.032.529-.955.528-.956.533-.957.529-.956.533-.955.529-.957.53-.959.529-.959.53-.954.53-.955.534-.959.525-.954.53-.957.572-1.036.568-1.025.529-.959,1.863,1.033,2.638,1.453.881.486.552.302,1.296.708,2.608,1.46.796.426.118.074.083.045.1.053-.339.508-.12.113-.01.013-.553.911-.008.076-.435.742-.378.697-.339.53-.164.18h0l-.268.297-.698.7-.588.886" vector-effect="none" fill="#bababa" fill-rule="evenodd" stroke="#232323" stroke-linecap="square" stroke-linejoin="bevel" stroke-width=".25"/>
    <path d="M159.805,288.105v.038l.299-.021.016.052.029.078-.368.023-.009-.04-1.048.069-.004.03-.346.016.004.102-.097.013v-.035l-.323.047.009.111-.126.02-.047-.286.135-.031.02.131.331-.038-.014-.151.448-.033-.009-.026,1.099-.067" vector-effect="none" fill="#bababa" fill-rule="evenodd" stroke="#232323" stroke-linecap="square" stroke-linejoin="bevel" stroke-width=".25"/>
    <path d="M160.602,290.272l.003.15-.069-.004-.073.004.004-.077-.331.045-.26.183.028.015-.084.141-.077-.039.054-.089-.275.042-.238.176-.077.139-.074-.05.083-.142.03.014.214-.157.018-.083.067.014-.008.034.3-.05.275-.205.412-.047.079-.011" vector-effect="none" fill="#bababa" fill-rule="evenodd" stroke="#232323" stroke-linecap="square" stroke-linejoin="bevel" stroke-width=".25"/>
    <path d="M157.188,265.144l-.071.096-.074-.006-.047.078-.078.128-.161-.067-.004-.093.048-.074.082-.117.117-.097.043-.047.076-.025.066-.131.065-.044.04.03-.01.05-.091.223v.096" vector-effect="none" fill="#bababa" fill-rule="evenodd" stroke="#232323" stroke-linecap="square" stroke-linejoin="bevel" stroke-width=".25"/>
    <path d="M161.484,268.961l-.059.116-.12-.034.026-.12.152.038" vector-effect="none" fill="#bababa" fill-rule="evenodd" stroke="#232323" stroke-linecap="square" stroke-linejoin="bevel" stroke-width=".25"/>
    <path d="M191.671,128.554l-.016.035.015.034.006.036-.004.017-.006.016-.008.015-.011.014-.013.012-.014.01-.016.008-.033.054-.008.029-.006.042-.019.039-.008.002-.008.003-.006.004-.006.006-.005.006-.003.007-.003.008v.008s-.001.008-.001.008l-.021.038-.026.007-.037.036-.003.045-.038.044-.03.016-.021.042-.005.042-.028.074.008.086v.031s-.014.045-.014.045l-.04.016-.031.024-.025.029-.029.12-.024.036-.024.23-.006.082-.019.22-.024.143-.01.062.043.064-.008.037-.009.04v.042s-.009.011-.009.011v.021s-.024.016-.024.016l-.043.314-.006.144.005.076-.013.057-.039.439.008.056-.015.033-.015.23v.047l-.009.041-.01.354-.005.074-.004.035-.014.014.008.029-.004.048.005.021-.015.032v.029s.009.019.009.019l.01.041-.003.018.01.021-.02.021-.008.017.014.014.002.14.004.034.008.01.004.029-.009.03.003.025-.008.033.004.063-.013.002-.015.027-.026.015.004.034.009.26.033.487.018-.003.043.648h-.021s.009.126.009.126l.024.237.031.351.208,2.164.038.382.038.025-.003.03.013.007-.004.018.014.024.013.031.013.031-.005.065.024.031.005.043-.011.018.013.034.018.037-.004.035.013.049.016.084.008.037-.021.024.009.092.014.018.02.023.016.203-.024.023-.029.011.009.04.023-.002.004.026.009.006.018.023.006.076-.015.014v.038l-.003.062.01.047v.046s.023.009.023.009l.024.326.005.006.01.011-.006.032-.003.009.003.003.009.009.003.071-.004.012-.011.038.004.07v.029s-.004.07-.004.07l.009.045-.004.041.009.029-.01.029.013.029-.003.025.008.041.008.064-.01.013.01.02-.005.017-.008.029.011.02v.06s.026-.009.026-.009l.009.069.014.106.005.033.011.089.013.093-.02.007.008.083.014.128.005.056.107,1.048-.068.009.023.298.042.572.072.978.013.01.037.899.035.891.002.234.024.088.031.416.033.562.062,1.101.023.076v.013l.015.336.014.234.005.188.018.494.004.094v.055s.01.165.01.165l.014.291.005.135-.003.035.009.207.029.585v.065s.011.277.011.277l.01.207.028.64.004.091.02.517-.004.049.016.364.165.015v.349s.004.116.004.116v.09s.033,1.538.033,1.538l-.139.357-.103.263-.076.179-.062.141-.125.274-.253.56-.213.429-.273.581-1.023,1.838-.276.515-.067.123-.098.183-.108.215-.533.926-.455.819-.073.13-.548,1.04-.601,1.032-.083.15-.118.217-.091.164-.29.523-.123.222-.317.572-.553.99-.527.959-.528.953-.53.954-.529.949-.527.954-.571,1.029-.568,1.027-.118-.065-.351-.193-.717-.393-.675-.371-.523.955-.537.948-.538.973-.542.956.676.378,1.056.591.128.072-.186.339-.339.618-.53.96-.532.96-.573,1.035-.593,1.076-.357.641-.054.1-.057.102-.05.092-.338.608-.054.097-.069.125-.034.063-.238.428-.058.105-.06.111-.062.11-.121.219-.552.989-.323.585-.195.349-.597-.344-1.388-.772-1.663-.926-.101-.05-.083-.042-.273-.156-2.852-1.58-.04-.021-.053-.03-.073-.039-2.903-1.601-.358-.103-.358-.134-.409-.224-.944-.517.578-1.051.533-.957.51-.973.053-1.204-.038-.768-.009-.192-.014-.292-.037-.68-.008-.117.004-.117.014-.117.024-.115.033-.112.044-.109.543-1.043.029-.053.477-.862.023-.04.534-.962.378-.679.033-.06.094-.169.029-.052.534-.961.527-.958.538-.971,1.615.897.348-.616.229-.328.566-1.026.568-1.036.69-.863.607-.786.063-.082.67-.893.566-.979.262-.438h0s.244-.448.244-.448l.246-.489.227-.498.208-.506.189-.513.372-1.042.403-1.134.396-1.129.368-1.039.363-1.029.368-1.048.365-1.036.377-1.056,1.066.586.646-.891.641-.901.631-.881.314-.449.362-.519-1.067-.591,1.623-2.942,1.052-1.907,1.547-2.802.355-.642.204-.38.025-.091.018-.093.01-.094.003-.095-.005-.095-.013-.094-.02-.093-.028-.091-.035-.088-.042-.085-.009-.03-.006-.031v-.032s0-.032,0-.032l.02-.049.028-.046.033-.042.039-.037.043-.031.047-.025-.598-.33.083-.18.083-.374.016-.059.025-.094.031-.092.039-.09.043-.076.047-.073.052-.07.057-.072.184-.256.077-.104.069-.109.06-.115.05-.119.042-.123.1-.342.047-.137.044-.126.05-.124.057-.121.126-.27.203-.376.224-.36.107-.147.112-.143.116-.14.12-.137.123-.134.127-.13.785-.815.335-.332.467-.489,1.017-.984.486-.491.283-.306.116-.126.122-.344.068-.191.062.028.083.041.045.022.212.106" vector-effect="none" fill="#bababa" fill-rule="evenodd" stroke="#232323" stroke-linecap="square" stroke-linejoin="bevel" stroke-width=".25"/>
    <path d="M174.551,188.326l-.22.406-.306.595-.547.962-.545.96-.559,1.032-.571,1.034-.543.959-.524.968-.528.96-.14.256-.073.131-.32.583-.525.94-.591,1.063-.485.872-.334.585-.207.363-.574,1.025-.562,1.056-.53.951-.515.949-.549.973-.542.964-.539.962-.515.951-.53.96-.525.947-.572,1.053-.576,1.019-.532.96-.545.986-.54.974-.538.969-.426.772-.111.2-.576,1.025-.042.083-.542.98-.533.968-.534.967-.537.974-.539.969-.537.966-.583,1.038-.574,1.047-.533.962-.52.964-.538.941-.534.962-.176.314-.358.641-.53.949-.518.965-.532.952-.537.96-.524.956-.528.946-.535.946-.722-.445-.646-.362-2.372-1.325-2.472-1.373-.831-.462-2.806-1.534.026-.058.021-.06.014-.062.009-.063v-.063s-.004-.064-.004-.064l-.011-.062-.018-.062-.028-.059-.035-.054-.04-.052-.047-.045-.052-.04-.055-.034.762-1.348.533-.968.525-.952.533-.957.535-.956.545-.975.51-.937.529-.954.529-.955.534-.96.527-.952.583-1.051.576-1.037.532-.962.287-.514.257-.464.278-.505.262-.47.576-1.027,2.145-3.888.581-1.047.537-.969.534-.971.543-.97.577-1.043.262-.474.028-.057.273-.51.54-.95.532-.957.554-.976.51-.942.53-.962.53-.959.543-.966.523-.954.571-1.029.591-1.067.43-.791.111-.198.571-1.023.161-.29.121-.227.179-.338.535-.94.534-.959.533-.965.534-.96.27-.485.261-.477.572-1.024.573-1.039.533-.969.532-.955.331-.593.185-.332.358.103,2.903,1.601.073.039.053.03.04.021,2.852,1.58.273.156.083.042.101.05,1.663.926,1.388.772.597.344" vector-effect="none" fill="#bababa" fill-rule="evenodd" stroke="#232323" stroke-linecap="square" stroke-linejoin="bevel" stroke-width=".25"/>
    <path d="M185.074,137.129l.598.33-.047.025-.043.031-.039.037-.033.042-.028.046-.02.049v.032s0,.032,0,.032l.006.031.009.03.042.085.035.088.028.091.02.093.013.094.005.095-.003.095-.01.094-.018.093-.025.091-.204.38-.355.642-1.547,2.802-1.052,1.907-1.623,2.942,1.067.591-.362.519-.314.449-.631.881-.641.901-.646.891-1.066-.586-.377,1.056-.365,1.036-.368,1.048-.363,1.029-.368,1.039-.396,1.129-.403,1.134-.372,1.042-.189.513-.208.506-.227.498-.246.489-.244.448h0s-.262.438-.262.438l-.566.979-.67.893-.063.082-.607.786-.69.863-.568,1.036-.566,1.026-.229.328-.348.616-1.615-.897-.538.971-.527.958-.534.961-.029.052-.094.169-.033.06-.378.679-.534.962-.023.04-.477.862-.029.053-.543,1.043-.044.109-.033.112-.024.115-.014.117-.004.117.008.117.037.68.014.292.009.192.038.768-.053,1.204-.51.973-.533.957-.578,1.051-1.663-.983-3.233-1.789-.559-.309-1.259-.696-.161-.089-.545-.302-.163-.09-.49-.272-.121-.068-.118-.06-1.446-.727-.519-.227-.074-.033-.055-.026-1.371-.656-1.052-.504-.082-.041-.091-.043-.169-.088-.14-.072.746-1.275.291-.476.384-.656.127-.245.248-.413.519-.934.025-.036.202-.307.074-.185.22-.323.122-.168.015-.11.093-.265.045-.115.215-.411.1-.158.043-.063-.018-.057.199-.391.089-.155.003-.065.1-.188.086-.103.02-.083.042-.095.055-.053v-.07l.088-.218.165-.38.315-.558.103-.203.045-.043.092-.218.048-.128.154-.318.135-.263.12-.2.16-.288.132-.253.14-.27.059-.073.26-.516.106-.195.155-.26.195-.38h0s.165-.294.165-.294l.278-.513.014-.067.894-1.824.213-.396.855-1.395.321-.414.048-.078.425-.554.799-1.097.176-.263.65-.972.43-.637.581-.865.52-.773.214.13.493-.852.074-.139.05-.074.176-.266-.089-.059-.064-.042-.045.07-.144-.095.324-.488.132.088-.234.361.067.043.102.066.314-.477-.142-.078.102-.161.126-.2-.254-.868-.042-.055-.132-.069-.135.257-.79-.434.355-.647.787.432-.144.26.154.084.058.055.033.069.218.744.006.021.139.093.379-.672.037-.267.044-.112.064-.123.157-.249-.336-.173.026-.052.073-.151-1.187-.658-.02-.011-.297-.158-.03-.013-.021-.011-.016-.012-.008-.007-.006-.007-.025-.036-.009-.016-.005-.015-.003-.009v-.004l.013-.058-.025-.013.481-.953.145-.285.023.012,1.808-3.595.207-.411.36.178.732-1.442.136.066-.004.006-.024.041,1.376.697.397-.772.18.087.089-.172h0s.028-.05.028-.05l.093-.17.102-.181.066-.108.054-.082.038-.05.088-.105.033-.043.014-.019.04-.062.037-.064.421-.783.713-1.517.916-1.814.316-.524.121-.313.178-.233.12-.24.273-.528.145-.244.052-.221.111-.212.013-.153.038-.181.064-.218.102-.23.067-.122.093-.119.053-.09.131-.21.064-.149.034-.09.042-.149.034-.067.091-.125.064-.137.084-.07.29-.205.123-.034.092.005.079.01.078.023.077.023.026.013.159.08.256.226.336.222.729.305,2.73,1.617.118.063.121.067,3.181,1.761,1.871,1.033.34.189.847.472.238.131" vector-effect="none" fill="#bababa" fill-rule="evenodd" stroke="#232323" stroke-linecap="square" stroke-linejoin="bevel" stroke-width=".25"/>
    <path d="M104.961,271.429l.156.091.146.081.118.014.107.02.576.328.479.271.954.525,1.776.985.093.05.276.151,2.344,1.303.679.374,3.299,1.834,3.307,1.82,3.745,2.074,2.211,1.206.6.31.518.265.989.617.04,1.387-.193,1.182-.078.471-.014.069-.115.617-.207,1.081-.134,1.106-.256,1.048-.069.204-.219.84-.197.928-.101.787-.079.485.074.044-.139.258-.042.091-.19.617-.018.091-.082.307-.181.675-.31,1.141-.179.63-.131.499-.294,1.077-.026.1-.034.121-.534,1.89-.195.712-.092.326-.026.093-.193.683-.312,1.063-.048.161-.237.781-.037.118-.111.354-.077.244-.191.602-.475,1.528-.722,1.8-.442.97-.29.631-1.076-.472-.906-.417-.961-.437-.84-.689-.748-.713-.67-.631-.86-.811-.149-.14-.563-.527-.831-.774-.767-.723-.294-.275-.485-.455-.82-.763-.689-.597-.096-.122-.7-.655-.448-.454-1.547-1.449-.329-.309-.193-.194-.261-.231-.312-.292-.084-.079-.784-.734-.481-.441-.374-.389-.882-.833-.128-.006h-.118l-.139-.031-.175-.215-.205-.163-.128-.168-.204-.029-3.968-.595.033-.202.023-.127.95.132,1.034.132,1.246.156.933.11.184-2.722-3.496-.358.054-.243.146-1.377.165-1.707-.011-.035.057-.047.026.016,3.317.355.084-1.225.02-.306.092-1.325.06-1.051-.603-.031-2.954-.062.003-.403,3.599.053.006-.082h.031s.03-.009.03-.009l.03-.011.026-.016.025-.02.02-.024.016-.028.01-.03.005-.033v-.031l-.005-.031-.011-.031-.015-.028-.021-.025-.031-.028-.035-.021-.039-.016.039-.617-1.377-.087.019-.419,1.381.084.03-.406.091-1.245.078-1.047-.04-.013.009-.069-.02-.019-.02-.023-.015-.026-.01-.028-.006-.03v-.03l.004-.03.009-.029.014-.026.018-.024.02-.021.025-.016v-.072l.042.004.059-.959.06-.952.045-.716-.709-.044.023-.322-.024-.02-.021-.024-.016-.028-.013-.029-.009-.03.028-.004h.028l.028.003.016.004.003-.013.694.049.03-.518.042-.721h-.123s-.064-.018-.064-.018l-.224.015-.745-.06-.112-.068-.112-.006-.009-.011v-.316s-.053-.043-.053-.043l.008-.086.084.009.031-.484.015-.151.063-.935-.81-.033.005-.105-.586-.034-.003-.078.1.009v.01l1.277.073.117-.055.762.058,1.264.062.156-.125.006-.024-.029-.047-.003-.049.02-.037.044-.111.06-.385-.149-.149-.146-.072.053-.1-.684-.373-.204.32-1.177-.649.646-1.183.637.364.193-.331.935.506.047-.093.103.019.045-.311M104.708,271.905l-.833-.464-.128.236.437.257-.399.753.693.382.055-.096.185.094.019-.132.079-.563.047-.295-.204-.088.049-.084" vector-effect="none" fill="#bababa" fill-rule="evenodd" stroke="#232323" stroke-linecap="square" stroke-linejoin="bevel" stroke-width=".25"/>
    <path d="M180.837,209.734l.084.045.149-.204.072.06.03.064-.121.344-.268,1.717.011.396.183.983.132.719.189.605,1.131-.412.015-.003h.029s.014.006.014.006l.014.006.013.008.01.011.01.011.006.013.005.015.285.787.005.013.003.014v.013s0,.014,0,.014l-.004.013-.005.013-.006.011-.009.01-.01.009-.682.222.013.074v.076s-.008.076-.008.076l-.019.073-.029.069-.04.064-.048.059-.055.05-.062.043-.068.033.403,1.112.231,1.096.189.116.016-.024-.045-.161-.05.009-.107-.46.031-.008.004.016.04-.008.035-.01-.003-.016.031-.006.11.456-.052.015.052.193-.018.026.159.093-.077.141-.144-.086.018-.035-.163-.088.005.018.107.06-.054.12.064.024.062.033.055.04.05.048.044.053.037.059.028.063.02.067.084,1.119-.092.349-.37.353-.217.776-.398.829-.474.712-.378.566-.344.475-.467.645-.598.824-.854.957-.916,1.031-.585.818-.675.946-.693.979-.671.944-.489.886-.334.606-.238.387-.571.923-.689.985-.651.931-.626.928-.632.932-1.227,1.813-1.222,1.81-1.529,1.772-.159.183-.506.606-.029.034-.748.901-.394.466-.326.382-.045.054-.427.511-.292.341-.121.136-.028.031-.048.054-.033.035-.043.053-.06.077-.272.344-.1-.053-.083-.045-.118-.074-.796-.426-2.608-1.46-1.296-.708-.552-.302-.881-.486-2.638-1.453-1.863-1.033-1.745-.975-.13-.073-.122-.068-1.75-.961-1.863-1.056.535-.946.528-.946.524-.956.537-.96.532-.952.518-.965.53-.949.358-.641.176-.314.534-.962.538-.941.52-.964.533-.962.574-1.047.583-1.038.537-.966.539-.969.537-.974.534-.967.533-.968.542-.98.042-.083.576-1.025.111-.2.426-.772.538-.969.54-.974.545-.986.532-.96.576-1.019.572-1.053.525-.947.53-.96.515-.951.539-.962.542-.964.549-.973.515-.949.53-.951.562-1.056,1.873,1.047.525.291.344.19.878.485.127.071.101.058.273.151,1.083.598.428.236.685.379,1.169.648.646.358,1.083.602.876.488.75.414.607.336,1.393.771.088.045.689.387.116.074.071.043.071.044" vector-effect="none" fill="#bababa" fill-rule="evenodd" stroke="#232323" stroke-linecap="square" stroke-linejoin="bevel" stroke-width=".25"/>
    <path d="M183.211,230.838l-.892.826-.333.31-.423.629-.69,1.027-.475.849-.716,1.286-1.623,2.352-.387.562-.058.083-.236.375-.307.488-.921,1.426-.055.084-.457.709-.527.813-.43.663-.33.509-.325.336-.431.43-.291.292-1.076,1.6-.262.219-.262.311-.077.092-.365.626-.097.247-.04.379-.383.746-.674.874-.115.147-.057.071-.044.055-.044.05-.071.082-.801.922-1.135,1.309-.141.037-.697.937-1.311,1.836-.333.375-.818.926-.805.758-.091.06-.403.287.006.136-.617.737-.398.392-.569.462-.489.544-.02.019-.016.023-.013.025-.026.044-.033.039-.039.034-.024.02-.028.018-.029.011-.031.008h-.031s-.033-.003-.033-.003l-.03-.009-.029-.013-.026-.019-.19.26-.244-.186.176-.241-.025-.029-.021-.034-.015-.037-.009-.038.004-.028.008-.026.011-.025.014-.023.019-.021.023-.019.02-.021.015-.025.278-.774.493-.92.784-.962.14-.406.37-1.081.082-.232.563-.976.103.049.544-.591.903-1.334.912-1.348.501-.739.554-.82.384-.567.072-.195.03-.053.038-.059.035-.057.045-.068.023-.033.12-.186.404-.624,1.261-1.944.076-.058.072-.128.039-.063.098-.176.058-.035.336-.373-.079-.077.31-.392.17.139.573-.761.462-.615.243-.586.292-.663.758-1.247.039-.116.241-.287.412-.635.469-.722.892-.954.136.009.317-.53,1.291-2.157,1.333-2.057.741-1.294.073-.052.008-.112.106.03.058-.04.125-.218.134-.236-.17-.105.074-.166.184.107.026-.048.159-.015.102-.528.078-.146.426-.795v-.079s.058-.052.058-.052l.13-.102.339-.388.309-.236.928-1.067.448-.64.277-.445.525-.509.878-.421.561-.097.369-.37.343-.508.11-.019.12.05.076.128-.2.425-.113.402.006.899.091.893-.033.422-.059.277-.088.266-.545.894-.339.76-.118.123-.047.039-.627.401" vector-effect="none" fill="#bababa" fill-rule="evenodd" stroke="#232323" stroke-linecap="square" stroke-linejoin="bevel" stroke-width=".25"/>
    <path d="M187.56,212.831l.168.121.125-.048-.006-.382.178.045-.008.323.063.493-.224.169-.517.151-.184-.005-.252-.117-.726.926-.093.024-.246.291-.063-.074.176-.36-.072-.094.137-.161.082.043.101-.096.568-.76-.13-.135.013-.252.098-.428.514-.486.254-.087.134.198-.094.357-.021.17.025.176" vector-effect="none" fill="#bababa" fill-rule="evenodd" stroke="#232323" stroke-linecap="square" stroke-linejoin="bevel" stroke-width=".25"/>
    <path d="M191.671,128.554l-.212-.106-.045-.022-.083-.041-.062-.028-.068.191-.122.344-.116.126-.283.306-.486.491-1.017.984-.467.489-.335.332-.785.815-.127.13-.123.134-.12.137-.116.14-.112.143-.107.147-.224.36-.203.376-.126.27-.057.121-.05.124-.044.126-.047.137-.1.342-.042.123-.05.119-.06.115-.069.109-.077.104-.184.256-.057.072-.052.07-.047.073-.043.076-.039.09-.031.092-.025.094-.016.059-.083.374-.083.18-.238-.131-.847-.472-.34-.189-1.871-1.033-3.181-1.761-.121-.067-.118-.063-2.73-1.617-.729-.305-.336-.222-.256-.226-.159-.08-.026-.013-.077-.023-.078-.023-.079-.01-.092-.005-.123.034-.29.205.374-1.5.105-.314.016-.047.049-.165.004-.119.03-.106.023-.134.011-.091-.008-.182v-.051s.004-.054.004-.054l.035-.124.013-.045.028-.018.023-.112.021-.273.043-.184.042-.093.062-.061.079-.015.069-.006.044-.015.004-.005.004-.006v-.006s.003-.007.003-.007v-.007l-.003-.006-.003-.006-.004-.006-.004-.005-.005-.004-.006-.003-.087-.017-.073-.017h-.003s-.063-.036-.063-.036l-.053-.099.419-1.504.033-.106.17-.752.088-.333.103-.355.094-.221.116-.43.113-.403.074-.157.078-.295.11-.209.069-.101.048-.083.183-.533.126-.287.123-.37.113-.351.062-.211.12-.223.058-.182.077-.258.122-.372.127-.17.073-.075.05-.089.039-.152.015-.041.015-.032.171-.356.029-.122.076-.131.094-.169.038-.112.053-.085.108-.116.079-.153.103-.205.103-.306.066-.16.074-.17.059-.127.083-.205.003-.006.005-.171.025-.077.004-.065-.023-.151-.004-.044.028-.101-.014-.089.024-.181-.008-.047.014-.151-.035-.399-.016-.032-.006-.049-.021-.043-.015-.138v-.147s-.037-.11-.037-.11l-.016-.052-.02-.042.014-.114.039-.049.006-.041-.042-.105-.028-.176-.053-.174-.037-.077-.151-.221-.033.007-.015-.059.039-.003-.044-.066-.039-.046.015-.051.057-.046.034-.008.091-.142-.004-.128-.06-.185-.039-.12-.043-.136-.05-.099-.144-.14-.089-.214-.083-.263-.042-.21.018-.236.031-.099.038-.08.059-.14.015-.353.034-.237.018-.086.02-.315.004-.105v-.098l-.029-.185-.006-.41-.034-.26.05-.115-.018-.141-.016-.062-.048-.074-.016-.21-.015-.055-.028-.054-.063-.075-.031-.047-.02-.069v-.171s-.031-.082-.031-.082l-.015-.071-.006-.053-.076-.216.008-.052.01-.016v-.047s-.053-.101-.053-.101l.044-.045-.01-.016-.021.002-.049-.072.002-.031.024-.03.035-.012.024-.012-.011-.021-.026-.011-.037-.012-.013-.027.011-.077-.035-.043.006-.048.047-.114v-.023s-.009-.019-.009-.019l.011-.046.004-.018.039-.103.044-.096.067-.094.064-.091.013-.019.333-.469.015-.011.018-.009.018-.006.018-.003h.018s.018,0,.018,0l.016.004.016.006.016.008.014.01.039.034.02.038-.009.029-.026.017v.035l.016.026.013.01.013.011.021.008.026-.012.035-.067.054-.032.028-.08-.026-.025-.005-.088h.018l.015-.032.016.007.013.024.003.036.014.036.016.023.026.004.016-.022-.006-.042-.011-.037v-.002s-.052-.092-.052-.092l.006-.093.023-.027.081-.024.096.025.04-.027.04.004.063.027h.086l.049-.042-.004-.047.053.002.034.024.048-.044.066-.124h.033l.009-.064.044-.015.038-.085.031.002.03.016.02-.016-.013-.04.078-.025.011-.024.038-.015.03.004.011-.042-.034-.041.008-.038.082-.033.049.009.102-.08.025-.049.044-.047.033-.045.052.002.064-.036.117-.065.013-.007.059-.022.024-.013.008-.018-.006-.041.004-.022.008-.05.019-.017.04.018.05-.027.013-.024.086-.022.02.051-.019.037-.003.014.02.002.03-.016.009.003.037-.011.029.018-.01.058.045.045.049.004.009-.051.031-.04.052-.058.04-.015-.013-.071.029-.06.073-.018.073.018.067.024.025-.064.037-.118.091-.082.1-.039.227-.051.14-.078.488-.489.038-.038.265-.344.219-.331.157-.158.485-.738.214-.327.049-.187.112-.181.174-.365.05-.135.042-.099.005-.013.102-.269.112-.17.054-.227.038-.101.232-.451.039-.082-.011-.086.06-.161.117-.155.101-.284.026-.06.06-.009.086-.241.152-.296.096-.257.064-.218.066-.192.17-.293.072-.035.077-.144.081-.178.194-.257.112-.083.087-.164.241-.411.043-.115.096-.184.071-.05.128-.225.081-.246.146-.313.3-.5.004-.053.175-.371.074-.095.025-.142.123-.328.529-.688.136-.158.207-.226.033-.023-.003-.023-.024-.018-.042-.039.008-.082.262-.477.254-.411.048-.216.059-.202.086-.131.183-.176.01-.032-.019-.056.01-.073.387-.861.588-.944.433-.644.862-1.529.111-.2.157-.265.214-.358.091-.35.144-.124.045-.1.128-.151.076-.088v-.245l.077-.231.101-.097.086-.028.184-.429.068-.088-.003-.114.094-.159.066-.063v-.094l.039-.134.092-.157.077-.006.145-.282.066-.201.28-.649.197-.39-.108-.042-.006.018-.161-.062.072-.187.224.087-.016.044.072.028.058-.157.034.005.108-.241.045-.192.025-.259.015-.177-.004-.043-.015-.046-.008-.04.116-.632-.009-.085.015-.045-.064-.024.009-.04-.151-.085-.054-.027v.004s-.044.094-.044.094l-.008.015-.037.081-.013.027-.04.088-.009.02-.004.008-.004-.002-.025-.012.121-.268-.005-.003-.02-.009.052-.113.025.012-.005.013.013.006.165.084.054.027.009-.028.055.012-.005-.067-.026-.042-.011-.251-.031-.074-.053-.04-.112-.019-.093-.009-.038-.017v-.099s.074-.13.074-.13l.134-.088.112-.019.121-.256-.325-.166.134-.427.102.031-.108.348.262.139.028-.094.038-.1.02-.061.008-.027.004-.063-.02-.088-.033-.092-.098-.096-.021-.034-.009-.384.096-.432.087-.312.019-.266.136-.569.15-.313.212-.381.154-.327.106-.475.18-.347.184-.507.252-.337.186-.412.819-1.807.134-.122.629-1.339.161-.399.193-.28.49-.546.302-.394.212-.259.127-.092.082-.054.505-.142.732-.774.336-.445.089-.116.058-.053.076.012.013-.017.063.044.063.042-.015.022.009.02.005.021.004.027v.027s-.006.026-.006.026l-.01.025-.014.023-.016.021-.02.018-.024.014-.024.01-.031.049-.024.053-.014.056-.005.057.02.061.03.057.039.051.047.044.052.037.058.028.062.018.064.008.064-.002.123.008.125-.003.123-.013.122-.024.12-.034.117-.044.112-.054.107-.063.101-.072.009-.043.013-.042.023-.048.029-.045.035-.04.011.006.053.033.076-.033.077-.026.079-.019.1-.014.099-.003.1.008.097.019.096.029.462.121.166.072.049.013.049.005.05-.003.049-.011.047-.018.043-.025.077-.009.294.056.126.073.04.023.033.019.029.033.03.038.086.063v.007s.034.056.034.056l.053.038.021.012.053.021.033.01.024.002.009-.013.01.013-.015.022-.005.017.02.005.023.007.028.027.042.033.052.018.031.005.025-.024.002.023.013.004.015-.01.013.011.005.012-.004.015h.008s-.005.028-.005.028l-.011.019.026.014.035-.022.053.034.019.026.062.047.008.024.023.009.011.026.013.007v.017l.002.292-.008.292-.014.292-.024.291-.03.29v.079s-.004.078-.004.078l-.014.077-.021.076-.029.073-.059.167-.049.17-.039.172-.029.174-.018.176-.009.177.003.177.013.176.024.175.033.174.044.171.053.168.064.165.073.161.082.156.092.151.1.146.11.139.116.133.125.126.131.118.139.11.145.102.15.093.155.084.16.075.034-.005h.034l.033.005.067.023.069.016.069.009h.072s.069-.006.069-.006l.003-.004.004-.004.004-.003.004-.003.004-.002h.005s.005-.001.005-.001h.004s.019.007.019.007l.006.011.028-.002.025.01.039.012.04-.006.015-.005.035-.028.042-.023.038-.019.037-.015.045-.028.035-.011.033-.015.03-.025.011.011.019-.012.021-.023.039-.044.034-.025.03-.004.02-.021.02-.016.01-.024.025-.02.021-.02.025-.029.015-.045.037-.061.033-.046.01-.041.011-.027.016-.018.003-.062-.014-.032.008-.024v-.039s-.006-.03-.006-.03l.016-.013.003-.022.006-.035.018-.019.003-.007h.018s.008-.024.008-.024l.037.004.052-.004.042.006v-.061l-.045-.009-.045.006h-.033s-.03-.008-.03-.008l-.019-.023-.019-.015.005-.033.006-.032-.008-.013-.005-.022-.004-.017-.005-.026-.009-.038-.009-.033.009-.015-.013-.023-.016-.002-.151-.119-.018.027-.03-.022.018-.027-.047-.036-.021.026-.031-.029.021-.024-.079-.058-.071-.053-.063-.051-.04-.035-.038-.046-.03-.035-.052.023-.038-.054-.034-.04-.024-.043-.166.088-.02-.002-.018-.023-.006-.032.17-.097-.01-.028-.019-.04-.013-.038-.016-.06.013-.007-.019-.022-.01-.037-.02-.032-.018-.022.004-.036-.014-.032-.016-.031v-.013s-.014-.012-.014-.012l.004-.024-.016-.021.004-.022-.011-.015-.008-.02v-.012l-.015-.012-.015-.022.004-.014-.005-.019h-.01s-.019-.018-.019-.018l-.016-.018-.005-.024-.006-.025-.015-.028-.016-.019-.004-.016.009-.028v-.028s-.01-.002-.01-.002l-.005-.021-.013-.022-.01-.023-.029.002-.018-.035v-.027l-.015-.021-.018-.012-.019-.049-.026-.039-.03-.027-.039-.054-.03-.053-.018-.044-.013-.027-.01-.017v-.017l-.008-.031.014-.009v-.014l-.004-.023.005-.012v-.012s.013-.008.013-.008l-.003-.012.019-.012-.003-.005.014-.005.003-.019.005-.02.019-.006.008-.022-.01-.022.008-.014v-.014s.03-.012.03-.012l.021-.024.006-.016.024-.037.014-.037.015-.014.024-.013.014-.023.01-.028.016-.016.029-.013v-.014s.014-.01.014-.01l.006-.017.011-.002.01.013.021-.009.081-.021.052.03.048.036.079.051.052.022h.047l.098.065.112.051.106.054.039.062.052.033.105.058.087.054.087.044.029-.004h.084l.072.029.088.073.05.051.04.025.043.004.037.04.04.007.05.011.131.08.17.091.091.033.054.011.04.036.112.062.066.062.081.049.03.093-.04.093-.067.07-.066.113-.043.033-.033.054-.029.047.004.036-.023.051-.01.091-.04.054-.033.062-.015.025-.006.091v.123l-.019.127-.047.127-.008.134.015.131-.033.014.039.058.023.004.043.022.037.069.062.102.054.091.062.08.082.087.015-.012.021-.004h.03s.009-.011.009-.011l.004-.01.014-.005.011-.003h.011s.009,0,.009,0l.011-.004h.014s.014.002.014.002l.014.004.011.01.009.015.013.012.011.005.015.007.006.008.008.004v.018s-.001.005-.001.005l.01.01.009.008-.003.011-.01.01-.01.01-.006.008v.006l.003.004h.009l.006-.003.014-.006.028-.003.014-.011.008-.013.005-.013.009-.005.011-.004.016-.003h.016s.019.013.019.013l.019.023.006.017v.021s.016.023.016.023l.023.014h.006s.011,0,.011,0l.01.011.005.013.004.01.023-.006.047-.003h.037l.02-.018-.006-.035-.023-.058-.035-.026-.055-.038-.044-.02-.072-.049-.021-.022-.019-.053v-.053s.019-.05.019-.05l.018-.035h.029s.013-.022.013-.022l.04-.028.037-.03.03-.037.018.005.018.022.031.004.011-.018-.026-.035v-.024l.008-.031.009-.023.026-.007.016-.02.025-.026.028-.035.038-.031.057-.034.055-.026.023-.024.019-.034.018-.046.029-.023.021-.016.053-.004.008-.019.018-.053.111-.131.014.006.202-.412-.018-.009.223-.45.091.044-.222.451-.021-.011-.209.413.005.003.016.084.164-.181.05-.02.077-.066.06-.059.072-.079.118-.052.12-.055.064-.011.1-.052.082-.033.039-.068.102-.033.081.004.125-.044.112-.05.098-.066.141-.028.059-.035.107-.022.152.031.132.005.094-.023.146-.007.145-.012h.094l.123.012.204.025.207.025.179.057.102.037.404.149.477.194.028.016.233.096.11.047.368.107.102.057.176.067.06.013.052.023.064.054.059.037.054.023.066.018.069-.003.105.014.184.047.14.058.125.058.248.138.244.159.511.339.069.047.073.053.103.084.078.082.063.055.035.043.058.055.039.066.008-.006.011.006-.006.016.015.028.016.02.058.089.004.026-.005.026.023.038.034.039.023.045-.004.036.031.04.023.049.014.046.015.024.008.041.019.013.035.052.096.086.081.1.077.136.033.069.023.033.005.052.052.118.042.104.028.089.003.038-.018.023.01.049.031.122.026.123.013.098.006.049.008.052.014.082.009.1.006.115.006.018.019.008-.004.03-.018.003-.005.042-.003.045.006.02.014.02-.016.022-.019.014-.01.038-.024.018-.02.008-.011.025-.026.019-.018.038.01.026-.009.019-.024.084-.013.013-.014.039-.02.029-.037.09v.015s-.013.02-.013.02l-.024.009-.014.025-.01.037-.015.037-.009.035.011.04.016.028.025.048v.039s-.015.028-.015.028v.031s-.029.023-.029.023l-.004.037-.009.03-.013.061-.009.062.023.032-.028.073-.004.017-.004.021.005.026-.01.032-.004.049.018.069-.008.017-.019.036.015.025-.005.081-.005.052.004.06.019.027-.025.048-.003.041-.009.049v.033s-.028.081-.028.081l.003.068v.037l-.009.017.005.033-.009.055-.004.035.008.007-.02.042-.008.023v.026l-.019.031v.036l.01.01v.016l-.015.027-.006.039-.02.054.018.007-.013.027-.011.046v.038s.034.018.034.018l-.026.009-.024.029-.015.042-.016.026.01.017v.031s-.011.015-.011.015l.008.021-.025.053-.008.057.025.023-.035.039-.035.009-.026-.021-.035-.004-.021.02-.087-.051-.066-.026-.078-.044-.055-.035-.049-.021-.04.002-.068.043-.028.028-.013.033.004.064.01.055.045.02.009.015.019.005.008.011.042.012.003.035.271.152.006.054h.023s.042.018.042.018l.035.018-.028.067-.024.051-.004.026.004.028-.02.018v.019s-.03.02-.03.02l-.016.051.015.031-.021.028.011.021-.015.038-.008.023-.019.005-.04.019-.059.005-.037.021-.025.035-.028.034-.008.026-.004.017.009.024-.004.028.009.034-.006.02.006.045-.01.028-.019.017.005.035-.014.027-.006.035-.03.031-.023.077-.011.033-.025.023-.047.105-.013.051v.031l-.015.079-.01.034-.011.025h-.013s-.006.03-.006.03l-.047.064-.024.027-.028.018-.033.031-.016.029-.05.054-.02.039-.004.021.003.031-.005.015h.01v.041l-.013.019v.021s-.021.017-.021.017l.003.047-.019.034-.013.027h-.019l-.014.02.016.022-.003.056-.011.032-.02.033-.025.02-.03.026-.021.018-.003.033-.023.039.074.042-.169.255-.121.203-.152.241-.258.42-.191.307-.132.205.209.117.005.021-.326.547-.338.575-.462.785-.377.641-.086.157-.019.01-.12.044-.15.068-.098.032-.069.032h-.089s-.62.069-.62.069l-.005.017.45.24.078.154.073.21-.736-.401-.034-.015-.014-.003-.096.014-.101.009-.205.024.004.016-.006.031-.028.005.006.077-.208.037-.008-.06-.03-.003-.054.011h-.055s-.067.012-.067.012l-.05.014-.045.027-.026.042-.015.058.005.058.006.047.031.041.031.026.02.01.025.013.049.017.055.01h.019s.068.015.068.015l.059.017.038.007.052.006h.053s.062-.018.062-.018l.04-.005.024.002h.013s.016.005.016.005l.016.006.015.009.014.011.011.013.006.013.009.012.01.01.013.008.013.006.031.036.029.031.023.047.009.073.004.028.004.029v.026s.004.085.004.085l.003.066v.055s.001.043.001.043l-.029.043-.02.017-.042.035-.049.03-.014.012-.042.04-.02.026-.014.028-.049.124-.013.029-.048.102-.01.025-.009.069.014.031.015.036.01.037-.005.037.038.022.014-.002.077.047-.077.106.028.016-.072.119-.058.105-.024.043-.053-.032-.013.023.015.01-.019.02-.011-.008-.011.014.006.005-.011.014h-.018s-.062-.035-.062-.035l-.011.013-.014.022-.029.041-.071.097-.045.058-.023.03-.023.025-.008.009-.006.007-.074.086-.02.026h-.001s-.176.219-.176.219l-.074.072-.042.031-.024.024-.059.061-.134.137-.01.01-.03.031-.076.078-.039.026-.01.007-.04.027-.031.018-.006.007-.019.019-.024.026-.01.011-.018.019-.073.08-.008.01-.018.021-.009.01-.008.01-.023.027-.006.007-.01.013-.066.021-.031.015-.049.033-.198.109-.071.076-.091.114-.045.064-.029.023-.055.095-.042.071-.034.058-.003.071-.058.087-.024.047-.026.054-.014.021-.02.022-.016.019-.02.025-.009.022-.024.024-.025.023-.048.061-.038.043-.047.073-.066.079-.026.046-.021.032.005.028-.015.042.013.025.004.048-.023.027-.024.047-.005.025h-.013s-.006.017-.006.017l-.026.036.004.016-.024.022v.018l.045.018-.052.08-.026.027-.117.169-.244.331-.199.28.086.039-.018.039-.013.053-.014.06.006.024-.02.049-.02-.013-.003.017-.005.042-.019.041-.019-.002-.028.033-.01.031-.033.049-.037.017-.033.02-.026.047.008.042-.006.036-.013.045-.025.022-.028.044-.014-.014-.019.02v.009s-.01.019-.01.019l.019.017-.059.087.02.009-.093.129.028.017-.126.165-.02.032-.116.16-.154.215-.111.147-.122.172-.074.099-.043.067-.049.063-.024.035-.025.011-.026-.012v-.011l-.304-.171-.32-.173-.223-.117.01-.014-.091-.05-.062-.028-.018.023-.025.039-.011-.005-.019.033.157.091.066.038.031.012.039.023.011.013.118.064.031.01.131.08.024.009.031.021.072.036.087.064-.003.011-.078-.05-.086-.048-.054-.03-.13-.073-.47-.271.055-.078-.011-.009.008-.017-.087-.05v-.011s-.128-.071-.128-.071l-.039-.006-.02-.041-.031-.052.005-.042-.063-.071-.079-.191-.01-.022-.165-.339-.122-.27-.152-.248-.079-.137-.059-.04-.021-.004-.006.006-.021.002-.034.032-.043.024-.033.018-.067.049v.011l-.03.038h-.016s-.039.04-.039.04l-.049.166-.033.112-.031.077-.021.114-.013.082.019.028-.01.033h-.03l-.003.039.019.02.021.004.02-.007-.013.037.019.004.019.026-.006.017v.013s.026.002.026.002v.03s-.049.005-.049.005l-.047-.012.011-.018-.039-.002.016-.016h-.021s-.013.032-.013.032h-.04v.017l-.015.008v-.028s-.019.008-.019.008l-.004.022-.004.029.015.02.03.02.019-.003v.027l-.006.006v.013s.008.01.008.01l.006.036.026.04h.013s.019.025.019.025l-.013.005-.004.02-.045.003-.023-.011-.015-.017-.038.018.021.017.04.029-.015.037-.035.008-.005.036-.018.014v.03s-.009.046-.009.046l-.009.062.006.028.02.029.045.033-.021.019.011.02.026.017.048.015.048-.004.015.019.019.014.015.011.016-.013.018.011.021.019h.054s.015.027.015.027l.03.015.024.025.024.009.016.013.029.025.024.023.025.019.009.019h.014s.011.011.011.011l.028.019.024.01.021.008.019.012.011.03-.02.007-.037-.015-.029-.017h-.021l.021.027.043.018.028.004.037-.008.025.035.02.049v.032l-.013.014-.006.033-.01.04.009.034.02.033.034.007.025.035.018.032.047.01.034.035-.006.029-.014.014.02.024.016.008.005.016.015.004-.035.062-.013.061-.01.042.035.006.011.013.016.023.002.031.009.035-.018.045-.006.024.024.019-.024.008-.01.018.028.009.077-.015.011.021.053.008.015.045.016.055-.028.15-.237.87-.092.044-.094.155-.068.032-.044.016-.068.034-.069.028-.042.042-.033.049-.01.04.008.048.008.032.025.09v.098l-.039.036-.03.016-.033.017-.02.012-.047.022-.047.012-.067.022-.042.01h-.03s-.026.012-.026.012l-.016.015-.02.032-.028.031-.033.035-.087.087-.034.114-.097.02-.013.042.026.019.042.009-.066.087-.062.033-.031.042-.053-.02-.047.03-.052.037.008.463.031.042-.035.058v.362s.035.452.035.452l.003-.005.008-.011.008-.013v-.002s.003-.002.003-.002l.152-.261.02-.034-.004-.005v-.005s-.002-.005-.002-.005v-.005s0-.005,0-.005v-.005s.002-.005.002-.005l.004-.005.003-.004.005-.003.004-.003.005-.002h.006s.005-.002.005-.002h.005s.101-.186.101-.186l-.016-.008.145-.272.092-.172-.018-.008.082-.152-.021-.012.082-.159-.006-.003.083-.16.209.109-.083.16-.008-.004-.087.161-.02-.01-.082.147-.073-.037-.239.442-.014-.008-.102.187.002.005.003.005v.016s-.003.005-.003.005l-.002.005-.004.004-.004.004-.005.003-.004.002-.006.002h-.005s-.005,0-.005,0l-.031.063-.039.079-.02.037-.026.07-.015.038-.01.021-.009.017h0s-.009.018-.009.018l.02.014-.141.222-.311.505-.175.292-.094.158-.268.453-.328.556-.22.38-.467.826-.499.912-.266.51-.353.666-.055.075-.013.043-.047.079-.043.076-.042.085-.01.033-.02.02-.053.099-.068.138-.024.062-.059.105-.088.177-.076.146-.049.082-.013.046-.112.22-.026.046-.086.174-.021.044-.113.227-.03.039-.018.056-.156.309-.242.469-.021.04-.276.522-.254.468-.242.432-.224.432-.16.313-.173.315-.139.272-.15.294-.372.704-.19.36-.092.17-.202.379-.035.076-.039.078-.04.076-.035.066-.886,1.658-.047.09-.064.125-.055.105-.219.416-.068.126-.049.088-.054.117-.057.119-.064.143-.062.137-.077.191-.066.166-.06.162-.062.162-.083.252-.058.185-.053.182-.092.329-.063.226-.054.192-.053.194-.028.087-.011.053-.057.201-.054.184-.026.095-.034.127-.053.198-.015.026-.018.041-.01.073-.098.275-.092.211-.287.717-.157.371-.198.463-.354.838-.379.89-.733,1.729-.19.517-.163.37-.079.186-.115.262-.103.248-.072.177-.055.123-.076.191-.123.286-.159.318-.156.364-.122.303-.101.257-.111.296-.099.289-.033.1-.057.18-.106.336" vector-effect="none" fill="#bababa" fill-rule="evenodd" stroke="#232323" stroke-linecap="square" stroke-linejoin="bevel" stroke-width=".25"/>
    <path d="M192.444,158.302l-.026,1.417-.136-.003v.017l.005.017-.008.014-.002.02.01.017v.024l-.011.029-.003.017.023.022-.014.044.009.041-.011.022.003.017-.011.027.009.037v.082l-.005.043v.048s.01.046.01.046l-.005.046.003.031-.019.039-.005.044.005.048-.008.046-.019.14-.004.054.009.026-.003.032.011.039-.009.036.01.058-.02.019.015.026-.014.031-.006.029.016.022v.034s-.005.08-.005.08l.01.044.013.055-.029.056-.028.068.184.003-.006.355-.003.086v.06s-.006.079-.006.079l-.002.058-.067,1.093-.059.815-.03.315-.035.409-.063.569-.05.391-.068.488-.099.871-.025.522-.011.244-.03.603.003.558.145.769.021.042.071.452.018.122.65,1.613.271.43.081.125.087.124.011.017.105.181.176.238.351.486.28.388.983,1.377.057.071.024.035.009.034.021.013.02.024.026.054.021.021.1.155.042.063.127.189.038.068.015.028.019.035.028.052.047.08.008.018.059.102v.016s.021.028.021.028l.028.052.029.051.094.167.025.055.105.181.008.023.016.023.01.024.057.099.008.024.025.035.044.083v.014l.035.055.116.204.043.082.06.111.024.044.029.051.034.079.02.044.082.187.009.014.144.324.055.113.045.139-.006.01-.076.128.04.101.031.085.084.184.024.052.12.259.11.337.135.398.066.193.077.223.02.07.096.291.028.111.034.157.031.187.078.345.103.053.097.049.01.17.006.114.006.099.009.089.01.095.016.165.038.447.019.212.042.482-.02.607-.028.835-.03.998-.074,2.286-.021.103-.259,1.286-.033.066-.258.462-.176.324-.073.134-.15.265.038.031-.01.02.048.028-.026.053-.064-.028-.015.031-.018-.004-.025.047.02.014-.173.319-.044-.019-.103.184-.259.186-.805.573-.364.257-.268.194-.156.112-.096.071-.156.117-.079.059-.316.234-.184.125-.034.024-.155.105-.238.18-.266.207-.163.123-.029.023-.248.191-.282.265-.185.171-.212.2-.234.215-.079.076-.197.179-.266.231-.365.328-.063.057-.074.068-.111.117.003.004.087.083-.321.317-.083-.084-.339.343-.224.406-.343.617-.433.784-.427.763.01.011-.033.06.01.031.067.038,1.015.568.015.016v.018s-.105.193-.105.193l-.01.008h-.019l-1.053-.569-.092.263-.195.573-.023.064-.154.452-.098.29-.06.184-.01.025-.053.157-.038.108-.05.145-.151.323.003.013-.016.02-.014.037-.168.378-.02.029-.071.105-.059.087-.341.504-.844,1.257-.649.966-.01.004-.009.004-.013.011-.031.018-.01.014-.024.018-.024.016-.029.018-.04.03-.026.02-.014.005-.029.023-.016.013-.059.042-.04.025-.042.031-.02.011-.025.021-.016.013-.033.023-.111.077-.106.074-.093.068-.02.018-.035.02-.01.011-.039.025-.058.04-.05.035h-.005l-.031.02-.023.015-.024.015-.049.031-.226.14-.071.04-.029.019-.03.021-.042.025-.317.207-.092.062-.173.118-.209.142-.186.127-.19.131-.157.108-.089.062-.05.035-.04.031-.12.111-.037.034-.081.074-.125.115-.101.092-.078.071-.094.088-.115.105-.054.053-.05.064-.04.064-.035.06-.047.083-.043.079-.057.111-.052.092-.128.222.009.035-.03-.064-.072-.06-.149.204-.084-.045-.071-.044-.071-.043-.116-.074-.689-.387-.088-.045-1.393-.771-.607-.336-.75-.414-.876-.488-1.083-.602-.646-.358-1.169-.648-.685-.379-.428-.236-1.083-.598-.273-.151-.101-.058-.127-.071-.878-.485-.344-.19-.525-.291-1.873-1.047.574-1.025.207-.363.334-.585.485-.872.591-1.063.525-.94.32-.583.073-.131.14-.256.528-.96.524-.968.543-.959.571-1.034.559-1.032.545-.96.547-.962.306-.595.22-.406.195-.349.323-.585.552-.989.121-.219.062-.11.06-.111.058-.105.238-.428.034-.063.069-.125.054-.097.338-.608.05-.092.057-.102.054-.1.357-.641.593-1.076.573-1.035.532-.96.53-.96.339-.618.186-.339-.128-.072-1.056-.591-.676-.378.542-.956.538-.973.537-.948.523-.955.675.371.717.393.351.193.118.065.568-1.027.571-1.029.527-.954.529-.949.53-.954.528-.953.527-.959.553-.99.317-.572.123-.222.29-.523.091-.164.118-.217.083-.15.601-1.032.548-1.04.073-.13.455-.819.533-.926.108-.215.098-.183.067-.123.276-.515,1.023-1.838.273-.581.213-.429.253-.56.125-.274.062-.141.076-.179.103-.263.139-.357.009.876.005.955-.018.976" vector-effect="none" fill="#bababa" fill-rule="evenodd" stroke="#232323" stroke-linecap="square" stroke-linejoin="bevel" stroke-width=".25"/>
    <path d="M206.939,182.219l.236.575.12.321.226.386.302.527.261.374.047.072,1.251.755.107.064.093.055.082.047.009.004.089.045,1.081.549.089.026,1.479.77.268.265,1.097.947,1.183,2.135.738,1.762.024,1.032-.937,1.62-.636,1.169-.251.258-.19.092-.91,1.018.156.157-.805.998-.249-.144-.031-.019-.852.455-.329.202-.359.36-.151.166-.03.339.094.074-3.925,5.69-.12-.081-.227.375-.282,1.112-.483,1.876-.247.325-1.099,1.043-.003.005-.057.103-.068.102-.134.04-.014.004-.073.059-.197.207-.224.116-.244.034-.205.01-.092-.042-.016-.008-.102-.039h-.171l-.382.15-1.648,1.503-.217.157-.256.062-.069.016-.107.039-.106.038-.364.107-.455-.135-.791-.614-1.322-1.018-.38-.281-.483-.207-1.88-.452-2.732-.476-.445-.592-.474-.483-.197-.354-.103-.421.02-.451.058-.248.098-.202.145-.684.034-.292.059-.359,2.998-4.631.501-.716.341-.829.186.039.157-.213.729-.986.737-.784.13.055,1.097-.591.071-.038.067.015,1.1.629.145-.035.606.219.813.018.524.034.132.037.164.045.29.063h.19s.174-.058.174-.058l.049-.147-.004-.166-.024-.103-.004-.134.052-.131-.005-.135-.044-.135-.03-.091-.048-.205-.008-.111v-.146l-.13-.063-.198-.059-.122-.048-.024-.048.063-.059.273.029.154.047.253-.043.189.028.15.053.057.003.008-.052-.031-.063-.653-.005-.301-.087-.233.015-.044.01-.082.018.043.147.072.063.071-.004.083.031.163.17.043.241-.016.392-.094.21-.072.134-.091.066-.159.018-.042-.009-.105-.023-.135-.016h-.087l-.111-.023-.059.028h-.087l-.087-.016-.076.016-.067.054h-.083l-.059-.004-.107.009-.152.025-.098-.02-.028-.037-.01-.048-.01-.044.019-.079.271-.393.096-.171.299-.432.05-.038.052-.037.112-.21-.773-.105-.231-.208-.31-.297-.083-.806-.006-.094v-.094s.009-.093.009-.093l.015-.093.031-.091.035-.078,1.057-1.91.107-.409.02-.076.169-.496.054-.115.045-.117.038-.121.029-.123.02-.125.013-.126.003-.127.021-.491.016-.383v-.026l-.072-.697-.101-.428-.093-.329-.078-.223-.197.05.009.035-.377.117-.042-.125.377-.12.019.047.19-.062-.016-.044-.071.013-.189-.462-.043-.631.247-1.216.397-1.405.021-.077.021-.081.033-.072.057-.074.127-.169-.641-.375.155-.261.055.032-.118.21.585.341.13-.202-.219-.135.006-.012.014.006.005-.01.212.122.042-.063-.212-.122.154-.23-.34-.206.015-.04-.043-.028-.146.225-.059-.024.185-.289.437.28.729-1.368.064-.139.058-.135.089-.123.238-.222.253-.065,1.062.019,2.004.177.557.37.283.189.666.993" vector-effect="none" fill="#bababa" fill-rule="evenodd" stroke="#232323" stroke-linecap="square" stroke-linejoin="bevel" stroke-width=".25"/>
    <path d="M102.645,296.919l.139.031h.118l.128.006.882.833.374.389.481.441.784.734.084.079.312.292.261.231.193.194.329.309,1.547,1.449.448.454.7.655.096.122.689.597.82.763.485.455.294.275.767.723.831.774.563.527.149.14.86.811.67.631.748.713-.159.338-.561,1.201-.241.527-.513.96-.246.428.305.184.086,1.231.271.175-.469,1.74-.011.047-.246.063-.057.015.003.047.023,1.99.01.118.018.117.024.116.033.115.039.112.047.11.053.106.06.102.066.1.073.093-.173.281-.161.278-.127.215-.113.189-.155.272-.115.184-.055.094-.159.273-.06.105.147.152.923.961.331.343.087.091.078.076.135.13.091.096.137.144.29.315.139.154.05.054.044.044.087.084.108.106-.076.05-.078.053-.066.058-.045.035-.045.034-.073.052.013.021.025.042-.055.043h-.015s-.023-.037-.023-.037l-.044-.066-.319.208-.076.05.004.013-.004.037-.01.043-.018.038-.029.023-.165.132-.111.088-.193.132-.178.117-.254.159-.091.057-.039.026-.353.253.064.093-.107.082-.01.008.006.009.077.108-.018.023.008.014-.009.008v.011s.226.323.226.323l-.491.362h-.001.001s.945,1.177.945,1.177l-.294.237-.708.583-.699-.823-.008-.009h-.001s-.069.058-.069.058l-.042.034-.479-.254-.134.113.374.443-.062.045.038.043.48.556v.01s-.072.058-.072.058l-.163.132h-.015l-.173-.217v.009l-.101.096-.013.004-.067-.076v-.01s.105-.093.105-.093h.014s-1.088-1.275-1.088-1.275l-.302.257-.057.048-.015.011-.219.181.199.234.091-.066.037.04-.091.065,1.164,1.376-.276.227-1.383-1.639-.33.282-.286.249-.296.244-.093.074-.311.261-.026.023-.057.048-.105.098-.364.314-.266.22-.15.13-.14-.161-.234.2-.106.089-.189.161.32.334.006.009.016.02.452.535.015.016.014.016.382.451.087.102-.05.044.025.029.04-.035.04.047.01-.01.144.163-.222.195h-.008s-.131-.151-.131-.151l.014-.011-.008-.023.016-.023-.006-.019.011-.009-.003-.02.009-.008-.005-.014.062-.049-.025-.029-.137.122-.359-.422-.122-.139-.174-.197-.145-.165-.112-.127-.04-.045-.063-.102-.01.006-.231-.272-.034-.042-.243.194-.263.213-.348.276-.009.01-.091.186-.047.1-.062.12-.3.239-.471.379-.872.704-.037.016-.173.066.687,1.208,1.099-.624.191.335-1.1.625.218.382-.315.179-1.122-1.964-1.711.586-.145.005.086.268-.213.039.093.314.094-.031.059.165.013.064-.049.021.018.053v.023h.018l.026.062-.004.013.025.071.026.024-.016.015.01.029h.016s.016.033.016.033l-.019.011.006.024.014-.009.025.043-.021.018.034.091h.026s.013.011.013.011v.018l-.025.028.031.078.018-.009.023.047-.021.015.137.335-.016.039-.019.01-.042-.058-.092-.271-.084-.253-.047-.155-.037-.101-.034-.094-.034-.088-.02-.047-.242.072.064.311.006.076-.014.029-.029.018-.03.004-.024-.008-.016-.03-.044-.128-.042-.113-.039-.102-.263.069.034.074.02.043.02.086.039.125.025.096-.005.031-.02.021-.054-.005-.029-.03-.026.004-.03-.079-.03-.062-.057-.145-.009-.03-.016-.067-.006-.014-.16.052-.111.035v.026s.02.098.02.098l.035.108.072.231.084.232.055.183-.087.086-.035.02-.091-.016-.057-.058-.045-.087-.035-.105-.016-.033-.076-.135-.021-.067-.073-.188-.052-.135-.034-.068-.234.076.004.091.042.232.029.165.015.103v.052s-.03.024-.03.024l-.083.04-.04-.01-.038-.048-.063-.111-.071-.123-.045-.081-.037-.084-.018-.052-.026-.084-.005-.04-.108.011-.123.013-.004.054v.171l.02.208.018.184.063.338.015.098-.011.038-.026.029h-.081s-.031-.044-.031-.044l-.015-.063-.016-.132-.011-.132-.01-.131-.018-.208-.008-.054-.018-.089-.059-.249-.247.029.006.184-.003.144-.024.134-.034.103-.063.044-.028-.008-.074-.063.014-.016.023-.039.037-.127.048.02.01-.096.033-.004.004-.021h-.037s.001-.084.001-.084l.037-.01-.003-.014-.037.004.004-.091.042-.004v-.029s-.066.005-.066.005l-.006-.068.038-.003-.028-.214.078-.01-.057-.442-.457-.078-.163.67-.015.063.015.004-.043.176-.01-.004-.014.115-.03.091-.053.228-.105-.015v-.019l.154-.622.015.004.015-.059-.159-.102-.015.019.006.004-.023.028h-.003s-.058.099-.058.099l-.093.151-.13.21-.018-.011-.011.013.003.038-.059.132-.044-.02.005-.044.015-.005.053-.102v-.021l.066-.091.068-.094v-.015s.01-.01.01-.01h.008s.081-.137.081-.137l.014-.019.003-.01.083-.14-.372-.238-.094.157-.055.077-.047.082-.055.084-.082.116-.081.112-.081.134-.034-.024.072-.132.015.003.018-.029.018.003.029-.044-.008-.008.03-.037.006-.018.023-.014.008-.016-.008-.008-.015.011h-.006s.066-.087.066-.087l.077-.123.108-.173.028-.039.034-.054-.16-.106-.02.014-.224-.149-.141.228-.622-.631-.135-.139-.136-.175-.239-.26-.026-.023-.122-.164-.171-.222-.144-.183-.02-.029-.333-.461-.091-.127-.125-.203-.155-.241-.009.01-.125-.199.008-.005-.009-.011-.047-.063-.029-.048-.093-.154-.048-.089-.063-.118-.054-.123-.04-.11-.025-.082-.023-.094h-.011l-.025-.11-.015-.084-.009-.063-.12.011.005.059-.13.01-.008-.067-.006-.066.132-.011.006.053.116-.013-.014-.16h.013s-.005-.091-.005-.091l.004-.098.009-.1.01-.05.016-.086-.011-.015v-.016s.011-.02.011-.02l.011-.004.009.003.066-.246-.261-.078-.072.239.122.037-.048.159-.03.02-.023-.039.034-.106-.121-.034-.035.125-.014-.004.128-.407-.702.121-.246-.407,1.328-.232.042-.132-.059-.005-.019.01-.011-.003-.014.005-.004-.009.008-.005-.037-.02-.042.009-.049-.003-.013.01-.037-.009-.018.013-.019-.006-.018.005-.003.011-.019-.009-.016.005-.01.008-.026-.004-.013.005-.072.015-.01-.011-.037.005-.003.011h-.029s-.011.011-.011.011l-.013-.009-.01-.005-.011.018-.019-.011-.023.026h-.013s-.013-.011-.013-.011l-.055.126-.872-.254-.029-.014-.044-.069-.484-1.98v-.037s.139-.732.139-.732l.116-.615.024-.038.013-.006.03-.015h.038s.093.026.093.026l.009-.031.009-.025.013-.015.02-.031.029-.033.029-.023.035-.023.039-.019.04-.015.04-.009h.043s.04.004.04.004l.029.003.058.024.039.025-.028.042-.043-.023-.031-.013-.011-.004-.004.037-.045-.004-.04.004-.034.002-.014.006.015.04-.029.009-.023.018-.03.025-.021.031-.011.019v.019s.043.006.043.006l.015-.024.026-.023.039-.016h.021s.033-.005.033-.005l.019-.011h.037s.023.011.023.011l.018.021.009.013.003.021.014.024.014.014.009.018.003.028.006.021.018-.003.016-.016.005-.049.145-.469.219-.741v-.014s.031-.107.031-.107l-.54-.156.01-.035-.179-.052-.037-.029-.003-.004-.023-.03v-.039s.125-.663.125-.663l.134-.703.19-.991.147-.79.091-.462.139-.732.04-.215.074-.481.079-.63.066-.432.057-.421.12-.794.02-.021h.025s.013.005.013.005v.093s-.093.67-.093.67l1.368.287.092-.456-.055-.141-.03-.155v-.163l.031-.161.042-.103.018-.04.074-.113.1-.107.083-.471-.257-.05-.43-.084-.779-.151-.087.664-.019.14-.003.005-.003.004-.005.004-.004.004-.005.002h-.006s-.005.001-.005.001h-.011s-.004-.004-.004-.004l-.005-.003-.004-.003-.004-.004-.003-.005-.003-.004.021-.151.103-.742.094-.676.149-1.085.03-.205v-.005s.067-.474.067-.474l.072-.517.166-1.19.161-1.159.14-1.003.178-1.28.019-.038.04-.025h.034l.794.137.004-.02.32.053-.003.025.14.025.64.111.005-.037.008-.053.008-.025.015-.018.029-.013.282.043,1.731.306.169-.927-.005-.024.049-.295.021-.134.066-.414-.003-.016.057-.358-.635-.102.048-.334-.675-.101-.006.029-.307-.043-.003.013-1.519-.239v-.016l-.163-.026v-.049s-.773-.112-.773-.112l.086-.535,2.103.326,1.136.181.603.094.12-.818-3.251-.518.083-.514,2.862.442.052-.335-.16-.025-.009.028-.435-.068.023-.107.063.009v.013s.357.044.357.044l-.004.024.17.028.01-.068.656.078.055-.422.14-.93.164-1.022.157-.994.152-.952.175-1.143.185-1.206v-.008s-.354-.161-.354-.161l-.414-.086-2.092-.278-.771-.101-.447-.059-.048-.064.019-.136.02-.195,3.968.595.204.029.128.168.205.163.175.215" vector-effect="none" fill="#bababa" fill-rule="evenodd" stroke="#232323" stroke-linecap="square" stroke-linejoin="bevel" stroke-width=".25"/>
    <path d="M96.122,346.534l1.562.423.057-.242-.063-.021.024-.091.249.064-.018.088-.076-.013-.064.244.058.015.155-.214-.045-.03.043-.072.094.068.121.089-.048.053-.064-.049-.135.188,1.087.295.864,1.046.008.01.009.009.01.008.01.005.013.004h.013s.013.001.013.001l.011-.003,1.048-.286-.023-.054.132-.236.009-.019.011-.016.021-.026.026-.023.03-.018.031-.013.208-.058h.001l.016-.005.069.011.227.128h0l.043.059.015.053.018.06.038.132v.003s.001.001.001.001l-.009.079-.089.16-.004.009h-.001s-.03.054-.03.054l-.044.042-.01.003-.067.019-.194.055h-.001l-.008.003h-.006s-.06-.009-.06-.009l-.144-.071-.042-.026-.035-.023-.021-.018-.024-.03-.038-.089-.091.024-.023.006-.312.082-.46.122-.021.006h-.008s-.043.013-.043.013l-.021.006-.009.005-.009.006-.006.005-.003.004-.003.004-.003.005-.003.006-.003.011v.006s0,.006,0,.006v.005l.003.005.009.019.01.019.048.057.01.013.003.003.01.014.081-.063.319.408-.018.023.078.112-.043.039.003.003.023.029.011.014.058.072.072.037.12.118.03-.015.019.068.029-.009v-.02l.045-.013-.011-.048.026-.009.015.049.564-.163.019.068-.674.19.081.287.401.015-.004.088.42.021-.003.081-.427-.026v.013l-.018.35.146.016.003.031.034.033.063-.018.013-.034.019.003-.016.112-.009.072.015.068-.081-.006-.008.086-.049.011-.01.026h-.024l-.016.115-.103-.011-.088,1.805-.461.748-.06.107-.482.864-.111.049-.076.045-.103.062-.063.062-1.638,1.158-1.357-.128-.059.037-.49.297-.538.324-.079.048.388.659.081.044,1.74-.165.004.057v.021s.005.055.005.055l-1.717.179-.063.023-.125-.067.009-.077-.404-.679-3.531,2.129-.45.271.391.67h.052s.819-.49.819-.49l.071.102-1.808,1.075-.066-.106.838-.505.013-.038-.389-.659-.523.304-.905.527-.467.272.068.107-.008.005.082.142-.021.011-.082-.142-.055.029.083.141-.018.013-.083-.139-.01.004-.021-.035-.034.018-.013-.019.034-.021-.031-.049-.072.042-.228.136.535.906-1.075,1.299-.161-.127.962-1.19-.455-.771-.3.179-.137.066-.142.059-.164.068-.02.008-.147.05-.28.052-.193.03-.311.008-.252-.015-.252-.038-.224-.053-.176-.059-.26-.064-.294-.091-.237-.127-.247-.214-.189-.21-.092-.121-.123-.164-.118-.155-.123-.229-.091-.239-.068-.203-.037-.207-.023-.229.008-.195.015-.165.044-.218.087-.229.082-.184.058-.086.073-.097.108-.137.053-.068.126-.155.329-.403.237-.31.224-.258.232-.29.039-.048.198-.241.029-.035.246-.334.215-.272.123-.146.137-.161.019-.021.149-.175.088-.112.171-.222.004-.004.184-.227.159-.195.161-.189.169-.204.299-.375.523-.645.139-.166.146-.174.22-.278.408-.491.47-.586.023-.029.306-.394.272-.336.302-.392.004-.005.294-.357.301-.33.406-1.333.069-.207.004-.008.03-.053.04-.05.047-.045.053-.039.058-.03.062-.021.021-.006.106-.021.107-.013h.107s.107.008.107.008l.171.008.17.003h.079l.704-.057.27-.021.699-.057.712-.057" vector-effect="none" fill="#bababa" fill-rule="evenodd" stroke="#232323" stroke-linecap="square" stroke-linejoin="bevel" stroke-width=".25"/>
    <path d="M64.565,351.346l.432.765.896-.554-.057-.108.093-.052.175.294-.1.053-.063-.105-.901.549-.057.682-.145.649-.389.281-.477.101-.464-.121-1.735-1.12-.612-.956-.784.522-.295-.464.168-.103.18.273.627-.389-.359-.559.105-.069-.006-.283-.078-.14-.014-.025-.02-.042-.015-.044-.008-.047v-.047l.008-.045.015-.045.021-.04.028-.038.034-.03.039-.024.04-.018.044-.011.044-.006.96-.073.029-.038.06.004.059.009.058.014.079.035.077.04,1.458.738.848.59" vector-effect="none" fill="#bababa" fill-rule="evenodd" stroke="#232323" stroke-linecap="square" stroke-linejoin="bevel" stroke-width=".25"/>
    <path d="M68.646,336.164l.088.025.088-.013h.113l.076.025.063.05.088.05.063.05.063.063.063.013.076.013.063.05.038.05.076.038.076.063.063.05.076.038.063.025.076.038.101.025.076.013h.151l.063.025.063.076.063.076.05.101.025.088v.088l.025.101.038.063.076.05.101.063.05.101.013.05.013.088.013.076v.088l.013.101v.038l.013.05.038.063.013.05.038.063v.05l-.038.05h-.025l-.038-.013-.038-.013-.038-.013-.038-.025h-.05l-.038.063-.088.025-.126.038-.088.013-.101.013-.101.025h-.113l-.076-.013-.05-.025-.076-.063-.063-.076-.05-.05-.063-.063-.038-.025h-.063l-.088.013-.038.038-.063.076-.239.227-.378-.403.176-.176.101.038.05.013.05.025.063-.013.05-.025.05-.05v-.038l-.025-.063-.05-.05-.063-.063-.063-.05-.063-.05-.05-.013-.038-.013-.076-.038-.038-.05-.013-.05v-.025l-.063-.076-.05-.038-.038-.025-.038-.025-.05-.013-.025-.038-.013-.038-.025-.076-.013-.063-.013-.038v-.038l-.025-.038-.025-.05-.05-.05-.025-.025-.013-.05-.025-.063v-.063l-.013-.063-.025-.063-.013-.063-.038-.088-.013-.076-.025-.076-.013-.088v-.05l.013-.063.038-.013.05-.013.063.013.076.038.063.025.05.038.076.025h0" vector-effect="none" fill="#bababa" fill-rule="evenodd" stroke="#232323" stroke-linecap="square" stroke-linejoin="bevel" stroke-width=".25"/>
    <path d="M128.641,284.464l1.403.777.455.252,2.599,1.44,1.61.884.108.06.294.163.291.159.474.261.102.053.65.336.282.147,1.542.849.488.276.945.537,1.257.729.568.316.737.409.823.452.447.217.168.087,2.755,1.581,1.451.835.086.077.074.06.064.049.071.069.197.13-.049.36-.03.231-.026.183-.023.188-.034.253-.008.019-.02.011h-.029s-.05.353-.05.353l-.016.122-.013.12-.03.205-.026.174-.008.029-.025.18-.05.304-.037.239-.034.191-.006.035-.011.059-.003.045-.016.068-.068.387-.011.058-.059.309-.019.127-.037.203-.071.383-.042.232-.044.249-.128.69-.441,2.458-.112.639-.12.636-.128.636-.136.634-.144.632-.151.63-.197.767-.205.766-.213.763-.222.761-.231.758-.239.756-.247.753-.256.751-.024.064-.016.042-.029.074-.029.083-.014.039-.024.069h0l-.648,1.833.01.013-.202.582-.094.283-.086.219-.049.062-.169.461-.137.32-.088.169-.053.098-.188.304-.123.178-.2.248-.077.091-.193.197-.354.345-.226.203-.116.099-.092.069-.112.059-.097.044-.118.039-.086.014-.135.013-.285.024-.186.016-.48.044h-.021s-.096.01-.096.01l-.868.076-.287.025-.062.005.006.11-.208.019-.903.087.048.598-2.11.273-.677.086-.993.126-2.212.28-2.032.256-.01.016-.273.034-.066-.011-.039-.033-.02-.031-.163-1.125-.01-.008-.025-.004-.034-.014-.024-.028-.023-.037-.071.006-.117.019-.534.082-.12.018-.132.023-.199.039-.48.089-.414.087-.319.067-.325.05-.329.055-.408.084-.077.016-.16.045-.155.013-.06.013-.067.015-.247.053-.567.126-1.037.208-.311.013-.155.006-.276.062-.233.094-.694.149-.98.18-.751.136-.719.146-.931.339-.236.122-.281.15-.039.025-.186.118-.038.021-.063.035-.015.038-.069.059-.12.068-.081.092-.094.077-.069.053-.108-.106-.087-.084-.044-.044-.05-.054-.139-.154-.29-.315-.137-.144-.091-.096-.135-.13-.078-.076-.087-.091-.331-.343-.923-.961-.147-.152.06-.105.159-.273.055-.094.115-.184.155-.272.113-.189.127-.215.161-.278.173-.281-.073-.093-.066-.1-.06-.102-.053-.106-.047-.11-.039-.112-.033-.115-.024-.116-.018-.117-.01-.118-.023-1.99-.003-.047.057-.015.246-.063.011-.047.469-1.74-.271-.175-.086-1.231-.305-.184.246-.428.513-.96.241-.527.561-1.201.159-.338.84.689.961.437.906.417,1.076.472.29-.631.442-.97.722-1.8.475-1.528.191-.602.077-.244.111-.354.037-.118.237-.781.048-.161.312-1.063.193-.683.026-.093.092-.326.195-.712.534-1.89.034-.121.026-.1.294-1.077.131-.499.179-.63.31-1.141.181-.675.082-.307.018-.091.19-.617.042-.091.139-.258-.074-.044.079-.485.101-.787.197-.928.219-.84.069-.204.256-1.048.134-1.106.207-1.081.115-.617.014-.069.078-.471.193-1.182-.04-1.387,1.237.679.069.038" vector-effect="none" fill="#bababa" fill-rule="evenodd" stroke="#232323" stroke-linecap="square" stroke-linejoin="bevel" stroke-width=".25"/>
  </g>
  <path d="M185.074,137.129l.598.33-.047.025-.043.031-.039.037-.033.042-.028.046-.02.049v.032s0,.032,0,.032l.006.031.009.03.042.085.035.088.028.091.02.093.013.094.005.095-.003.095-.01.094-.018.093-.025.091-.204.38-.355.642-1.547,2.802-1.052,1.907-1.623,2.942,1.067.591-.362.519-.314.449-.631.881-.641.901-.646.891-1.066-.586-.377,1.056-.365,1.036-.368,1.048-.363,1.029-.368,1.039-.396,1.129-.403,1.134-.372,1.042-.189.513-.208.506-.227.498-.246.489-.244.448h0s-.262.438-.262.438l-.566.979-.67.893-.063.082-.607.786-.69.863-.568,1.036-.566,1.026-.229.328-.348.616-1.615-.897-.538.971-.527.958-.534.961-.029.052-.094.169-.033.06-.378.679-.534.962-.023.04-.477.862-.029.053-.543,1.043-.044.109-.033.112-.024.115-.014.117-.004.117.008.117.037.68.014.292.009.192.038.768-.053,1.204-.51.973-.533.957-.578,1.051-1.663-.983-3.233-1.789-.559-.309-1.259-.696-.161-.089-.545-.302-.163-.09-.49-.272-.121-.068-.118-.06-1.446-.727-.519-.227-.074-.033-.055-.026-1.371-.656-1.052-.504-.082-.041-.091-.043-.169-.088-.14-.072.746-1.275.291-.476.384-.656.127-.245.248-.413.519-.934.025-.036.202-.307.074-.185.22-.323.122-.168.015-.11.093-.265.045-.115.215-.411.1-.158.043-.063-.018-.057.199-.391.089-.155.003-.065.1-.188.086-.103.02-.083.042-.095.055-.053v-.07l.088-.218.165-.38.315-.558.103-.203.045-.043.092-.218.048-.128.154-.318.135-.263.12-.2.16-.288.132-.253.14-.27.059-.073.26-.516.106-.195.155-.26.195-.38h0s.165-.294.165-.294l.278-.513.014-.067.894-1.824.213-.396.855-1.395.321-.414.048-.078.425-.554.799-1.097.176-.263.65-.972.43-.637.581-.865.52-.773.214.13.493-.852.074-.139.05-.074.176-.266-.089-.059-.064-.042-.045.07-.144-.095.324-.488.132.088-.234.361.067.043.102.066.314-.477-.142-.078.102-.161.126-.2-.254-.868-.042-.055-.132-.069-.135.257-.79-.434.355-.647.787.432-.144.26.154.084.058.055.033.069.218.744.006.021.139.093.379-.672.037-.267.044-.112.064-.123.157-.249-.336-.173.026-.052.073-.151-1.187-.658-.02-.011-.297-.158-.03-.013-.021-.011-.016-.012-.008-.007-.006-.007-.025-.036-.009-.016-.005-.015-.003-.009v-.004l.013-.058-.025-.013.481-.953.145-.285.023.012,1.808-3.595.207-.411.36.178.732-1.442.136.066-.004.006-.024.041,1.376.697.397-.772.18.087.089-.172h0s.028-.05.028-.05l.093-.17.102-.181.066-.108.054-.082.038-.05.088-.105.033-.043.014-.019.04-.062.037-.064.421-.783.713-1.517.916-1.814.316-.524.121-.313.178-.233.12-.24.273-.528.145-.244.052-.221.111-.212.013-.153.038-.181.064-.218.102-.23.067-.122.093-.119.053-.09.131-.21.064-.149.034-.09.042-.149.034-.067.091-.125.064-.137.084-.07.29-.205.123-.034.092.005.079.01.078.023.077.023.026.013.159.08.256.226.336.222.729.305,2.73,1.617.118.063.121.067,3.181,1.761,1.871,1.033.34.189.847.472.238.131" vector-effect="none" fill="#003379" fill-rule="evenodd" stroke="#232323" stroke-linecap="square" stroke-linejoin="bevel" stroke-width=".25"/>
  <g>
    <path d="M136.883,130.891c-.341,9.255,6.175,18.634,15.084,21.636" fill="none" stroke="#000" stroke-linecap="round" stroke-linejoin="round"/>
    <path d="M157.922,153.514c-2.982.529-6.771,1.668-9.26,3.151l2.542-4.372-.843-4.986c1.809,2.264,4.954,4.663,7.56,6.206Z"/>
  </g>
<style>
#g-neighborhoods-mobile-manhattan-img rect, #g-neighborhoods-mobile-manhattan-img circle, #g-neighborhoods-mobile-manhattan-img path, #g-neighborhoods-mobile-manhattan-img line, #g-neighborhoods-mobile-manhattan-img polyline, #g-neighborhoods-mobile-manhattan-img polygon { vector-effect: non-scaling-stroke; }
</style>
</svg>
