<?xml version="1.0" encoding="UTF-8"?>
<svg id="g-neighborhoods-tablet-manhattan-img" xmlns="http://www.w3.org/2000/svg" baseProfile="tiny" version="1.2" viewBox="0 0 600 688.591">
  <!-- Generator: Adobe Illustrator 29.1.0, SVG Export Plug-In . SVG Version: 2.1.0 Build 142)  -->
  <g>
    <path d="M252,372.97l.532.419.151.12.304.189.175.144.189.139.268.149,3.195,1.786,2.744,1.532.141.077.134.077,6.138,3.404,5.812,3.181.491.276.99-1.81,2.45,1.364,2.191,1.218.273.197.048,1.05.06.357.108-.022.149-.017.151.002.149.017.144.036.105.036.105.065.098.077.089.086.077.098.067.103.053.113.034.117.022.117.01.122-.002.12-.017.12-.026.117-.041.115-.05.11-.081.113-.096.103-.108.089-.117.077-.125.06-.132.046-.12.019-.122.005-.122-.007-.12-.024-.115-.034-.113-.048-.558,1.035-1.134,1.956-.563,1.014-.518.935-1.007,1.822-1.019,1.822-.997,1.812-1.011,1.817-1.007,1.829-1.009,1.817-1.011,1.831-1.002,1.812-1.016,1.838-.997,1.786-1.026,1.822-1,1.834-1.007,1.822-1.091,1.958-1.071,1.937-.995,1.793-.997,1.805-1.007,1.812-.988,1.79-.992,1.793-.997,1.805-1.071,1.93-1.071,1.941-.952,1.719-1.026,1.853-1.007,1.807-.995,1.802-.99,1.781-.997,1.793-1,1.795,4.609,2.567,1.663.925,6.289,3.492-1.002,1.793-.431.784-.566,1.011-1.064,1.915-1.074,1.963-.983,1.781-.525.94-.419.784-.954,1.707-.942,1.692-.949,1.721-.942,1.692-1.035,1.862-1.1,1.989-6.292-3.463-6.277-3.49-1.292-.712-4.461-2.478-.525-.288-.177-.096-3.38-1.874-1.814-1-.911-.515-1.095-.623-.204-.038-.225-.026-.278-.153-.297-.173.137-1.134-.328-.038-.002-.038-.839-.113.115-.889-.036-.017-5.604-.738-.041-.043-.024-.081.129-.983.046-.072.108-.05.096.012,5.451.755.053-.058.11-.801.098.007.779.103.312.046.216-1.517.168-1.218-.005-.067-.465-.081-1.402-.242-.084-.014.12-.846-.793-.113-.038.031-.01.058-.012.091-.014.117-.019.132-.019.149-.012.098-.019.129-.017.129-.019.149.024.031.261.029-.007.053-.654-.077.007-.062.247.029.034-.026.031-.242.022-.156.014-.096.019-.141.014-.11.022-.151.012-.093.007-.058-.036-.038-1.059-.146-.041.031-.01.06-.01.086-.014.11-.019.141-.019.156-.014.101-.005.048-.048.352.041.031.254.026-.005.048-.762-.081.007-.055.343.038.046-.029.038-.34.01-.084.029-.252.024-.206.014-.117.005-.05-.031-.029-1.234-.163-.029.034-.017.17-.012.101-.019.161-.014.122-.024.199-.012.091-.024.197.041.029.244.022-.002.043-.76-.079.005-.043.343.036.043-.276.012-.07.038-.252.017-.101.031-.201.026-.177-.026-.041-1.268-.175-.122,1.062.029.058.252.024-.005.038-.367-.036.137-1.16.01-.079.01-.074-.036-.069.141-.983.017-.062.072-.053.096.002,2.387.314.01-.093.935.132v.046l.4.065-.002.058,1.071.144.024-.194.024-.182.014-.103.024-.189.012-.091.026-.197.012-.101.024-.185.012-.093.012-.082.01-.067.026-.218-4.799-.674-.074-.036-.05-.062.005-.079.122-.985.048-.05.062-.017.086.012,4.868.65.233-1.735-.935-.125-.002.043h-.014v.048l.038.002-.002.091-.911-.113.012-.098.115.014.01-.091-3.217-.448-.084-.055-.026-.058.132-1.004.034-.069.062-.041.084.002,4.88.664.249-1.822-.074-.002v.036l-.201-.026-.007.041-.755-.101-.002-.019-.237-.034.012-.074-3.646-.499-.06-.034-.048-.062v-.055l.149-.956.036-.046.053-.024.067-.005,2.5.348.853-3.018.683-.043.328-1.122-3.478-1.896.249-.868,3.456,1.956.652-2.263-.055-.113.141-.472.103-.072.197-.671-.503-.187-.841-.436.031-.055.841.443.209.072.019-.048-.721-.35.026-.041-.18-.101-.024.019-.129-.062.005-.007.105-.209.134.072-.022.036.173.096.031-.058.537.295.18.101.022-.046-.185-.086-1.496-.822.029-.05,1.877,1.031.117-.405-.865-.484.034-.058-.081-.041-.029.048-2.241-1.225.043-.065-.096-.053-.036.067-.187-.103.156-.28-.113-.062.115-.204.288.161-.218.391.108.058.019-.026,2.21,1.232-.012.024.096.058.23-.412.741.415.755-2.632.242-.832.362-1.249.264-.901-.276-.158.328-.563.276.156.391-.717.022-.036-.285-.156.314-.57.28.153.41-.721.338-.614.23-.41.276-.506.23-.415.594-1.081.223-.405.304-.575.093-.18.254-.491.863-1.553.458.266.901-1.68-.362-.216-.688-.419.549-.956-4.274-2.335-.065-.046-.038-.081.017-.082,1.047-1.87.05-.048.067-.005.072.007.285.139,4,2.205.662-1.213.659.367.223-.393-.604-.336-.369-.211.098-.182.12-.216-.213-.149-.034.034-.129-.103.11-.141.129.101-.026.034.199.151.046-.093.978.544.213-.407-.786-.455.228-.379.525-.925.448-.805.556-1.016.767.434.997-1.788-4.885-2.759-.029-.043.005-.048.237-.407.048-.034.06.012,4.861,2.742.913-1.644.563-1.019-4.916-2.725.321-.568,4.921,2.696.913-1.659-4.813-2.653.446-.825-.249-.144-.163.048-.06.108-.134-.074.149-.268.019-.017.024-.014.024-.007.026-.005.026-.002.026.005,4.477,2.49.736.386,1.776,1.014.64-.472.034.029.233-.429.158-.29.029-.05.623-1.11-6.903-3.837-.031-.105.511-.918.072-.046,6.244,3.463.201.113.496.271.681-1.246-.053-.218-.077-.036-.067-.055-.046-.096-.022-.108.014-.098.048-.081.074-.067.098-.048.235-.062.098-.053.081-.103.096-.194.149-.3.046-.091-.024-.046-7.207-4.003-.07-.093.026-.058.369-.678.067-.055.11-.005.046.026,6.934,3.919.019-.034.18.098.765-1.388.757-1.381-7.183-4.01-.048-.05v-.072l.431-.753.081-.024.07.024,7.14,3.998.75-1.371.793-1.45-7.229-3.996-.017-.096.398-.709.089-.05.096.01,5.304,3.001.101-.185-.273-.151.309-.527.259.144.712-1.294-5.427-3.02.585-1.05,5.412,2.982.956-1.75-.302-.156.256-.46.295.17.757-1.388-.733-.374.105-.192-.197-.163-.041.074-.213-.12-.034.067-.163-.096.225-.415.017.01.084-.151.139.069-.081.156.218.125-.048.072.268.084.014-.034.702.41.403-.741.295.029.072-.024.05-.055.024-.053-.005-.089-.185-.264.07-.11.002-.041-4.633-2.569.443-.798,4.638,2.581.729-1.301-2.234-1.237-1.711-.949.24-.424,3.933,2.181.204-.005.189.113.736-1.292-.125-.07-.01.002-.158.031-.11.18-.242-.12-.031.062-.364-.197.043-.069-.209-.134.127-.237.055-.101-1.613-.944-.105.194-.041.074.168.089-.081.177-2.629-1.431.098-.182.194.103v-.002l.098-.201-.141-.077-.002-.002.005-.007.06-.103-.043-.024-.134-.079.187-.288.096.05,1.059.575,3.614,2.011" vector-effect="none" fill="#bababa" fill-rule="evenodd" stroke="#232323" stroke-linecap="square" stroke-linejoin="bevel" stroke-width=".737"/>
    <path d="M327.752,291.613l1.795.984.779.427.681.255-.352.633-.63,1.128-1.011,1.817-1.014,1.843-1.091,1.977-1.088,1.949-.496.908-.513.923-1.016,1.826-1.014,1.836-1.016,1.824-1.019,1.788-.34.642-.23.431-.307.551-1.086,1.946-.211.376-.817,1.505-1.124,2.03-1.086,1.958-.995,1.814-1.033,1.838-1.009,1.824-1.009,1.831-.971,1.793-1.055,1.858-1.011,1.822-1.028,1.807-.52.971-.053.108-.499.901-1.098,1.985-1.033,1.846-1.016,1.848-1.021,1.843-1.105,1.992-4.082,7.397-1.095,1.953-.499.894-.53.961-.489.882-.546.978-1.011,1.831-1.095,1.973-1.11,1.999-1.002,1.812-1.016,1.826-1.007,1.817-1.007,1.814-.971,1.783-1.038,1.855-1.019,1.819-1.014,1.822-1,1.812-1.014,1.841-1.45,2.565-.105-.036-.144-.036-.149-.017-.151-.002-.149.017-.108.022-.06-.357-.048-1.05-.273-.197-2.191-1.218-2.45-1.364-.99,1.81-.491-.276-5.812-3.181-6.138-3.404-.134-.077-.141-.077-2.744-1.532-3.195-1.786-.268-.149-.189-.139-.175-.144-.304-.189-.151-.12-.532-.419.163-.264.089-.326.122-.297.151-.225.17-.206.209-.237.187-.163.069-.093.117-.362,1.627-3.044.098.053.11-.134.129-.065.144.017.304-.283.458-1.11-.146-.034-.223.079-.228.038-.072-.096-.053-.161.659-1.242.151-.259,1.304-2.344,1.11-1.999.434.017.738-.07.652-1.196,1-1.836.99-1.817h0l.055-.101.201-.35.477-.829-.007-.06-.767.046-.129-.074-.29-.041-.197.036-.218.079-.182.06-.163.017-.197-.026-.225-.046-.213-.034-.216.024-.189.05-.247.06-.211-.01-.17-.01-.252-.024-.273.014-.28.074-.197.019-.213-.038-.221-.05-.189-.005-.026.06-.089.06-.06-.005-.081.134-.424.031.29-.525,5.599-.36-.117-.223.029-.302.034-.105v-.077l-.017-.302,1.189-2.196.328-.731.048.022.146-.407.014-.041.024-.065.189-.535-.129-.05.053-.139.127.048.127-.398.091-.182.093-.17,3.099-5.884.491-.937.307-.582,1.1-2.045.331-.635-1.563-2.059-.626.434-1.361,2.121-.103-.06,1.371-2.152.736-.496.081-.34.127-.007.096.036-.156.496,1.476,1.872.769-1.476-.259-.129.062-.137-.101-.05-.086.158.026.012-.014.026-.072-.046.093-.165-.98-.542-.074.134-.108-.06.185-.328.101.055-.074.139.122.067.906.499-.012.024.105.055.07-.115.252.134.18-.338.621-1.174-2.406-.103-.328.417-.11-.077-.014-.098.302-.379,1.496.086,1.141.002,2.042-3.864,2.977-5.64,1.016-1.925,1.093-2.069.228-.429.755-1.431.904-1.711.23-.4.666-1.162.189-.348,1.675-3.094,2.205-4.096,1.093-2.03,2.08-3.916,1-1.865.252-.472,1.004-1.91.108-.185-.022-.156.065-.146.482-.781.611-1.177.4-.745.268-.524.278-.548.383-.742.393-.709.757-1.336.448-.849.091-.235.276-.454.12-.354.237-.375.156-.173.388-.796.357-.581.168-.421.129-.235.077-.053.249-.511.12-.206-.007-.103.7-1.287.844-1.513.268-.615.216-.26.297-.285.041-.198.194-.425.204-.322.019-.157.374-.693.333-.565.405-.76.266.137.321.167.173.081.156.079,2.001.958,2.608,1.248.105.05.141.062.988.432,2.752,1.383.225.114.23.13.932.517.309.172,1.038.575.307.169,2.394,1.324,1.064.588,6.15,3.404,3.164,1.871" vector-effect="none" fill="#bababa" fill-rule="evenodd" stroke="#232323" stroke-linecap="square" stroke-linejoin="bevel" stroke-width=".737"/>
    <path d="M298.251,398.837l3.545,2.009,3.329,1.829.232.129.247.139,3.32,1.855-1.007,1.824-1.081,1.951-1.088,1.97-1.009,1.822-1,1.814-1.016,1.824-1.009,1.817-1.009,1.814-1.007,1.824-1.009,1.824-1.007,1.822-1.014,1.817-1.007,1.819-1.014,1.822-1.004,1.819-1.007,1.817-1.083,1.963-1.074,1.937-.997,1.798-3.315-1.834-.271-.158-.218-.122-3.348-1.853-1.002,1.793-.992,1.812-.995,1.786-.999,1.798-.988,1.798-1.071,1.939,3.37,1.874.091.053.113.067.067.034.113.062,3.396,1.867-1.076,1.946-.99,1.795-.995,1.795-1,1.793-.992,1.795-.985,1.795-1.009,1.807-.815,1.464-.175.319-.999,1.81-.988,1.807-1.069,1.913-1.083,1.949-2.742-1.52-.393.762-.688-.391-.165-.091-.587,1.057.161.093.829.453-.961,1.699.249.134-.954,1.707,2.37,1.302-.942,1.702-.942,1.702-.949,1.707-1.038,1.841-1.091,2.016-.132-.072-2.354-1.292-1.882-1.174-.985-.503-1.141-.59-4.207-2.294-7.126-3.945,1.1-1.989,1.035-1.862.942-1.692.949-1.721.942-1.692.954-1.707.419-.784.525-.94.983-1.781,1.074-1.963,1.064-1.915.566-1.011.431-.784,1.002-1.793-6.289-3.492-1.663-.925-4.609-2.567,1-1.795.997-1.793.99-1.781.995-1.802,1.007-1.807,1.026-1.853.952-1.719,1.071-1.941,1.071-1.93.997-1.805.992-1.793.988-1.79,1.007-1.812.997-1.805.995-1.793,1.071-1.937,1.091-1.958,1.007-1.822,1-1.834,1.026-1.822.997-1.786,1.016-1.838,1.002-1.812,1.011-1.831,1.009-1.817,1.007-1.829,1.011-1.817.997-1.812,1.019-1.822,1.007-1.822.518-.935.563-1.014,1.134-1.956.558-1.035.113.048.115.034.12.024.122.007.122-.005.12-.019.132-.046.125-.06.117-.077.108-.089.096-.103.081-.113,5.338,2.919,1.582.88,4.703,2.613,4.513,2.522,1.23.688,1.373.846" vector-effect="none" fill="#bababa" fill-rule="evenodd" stroke="#232323" stroke-linecap="square" stroke-linejoin="bevel" stroke-width=".737"/>
    <path d="M322.311,427.046l-.129.199-.082-.05-1.007,1.505-.465.695.062.065-.645.961-1.27,1.829-2.152,3.094-.518.748-.839,1.206-5.721,8.948-.455.712-.12.173-.137.22-.288.458.295.189-.141.211-.005.036-.007.029-.034-.002-.022.065-.046.031-.031.067-.086.149-.069.11-.07.103-.031.062-.053.081-.031.034-.043.093-.022.036-.098.129-.007.031-.017.034-.022.019-.017.046-.048.058-.055.096-.014.031-.048.079-.029.024-.012.036-.093.132-.419.652-.053-.036-.017.005-.034.067-.024.012-.007.031-.029.029-.007.026-.115.173-.132.211-.177.278-.05.065-.029.043-.007.034-.165.268-.014.007-.017.026-.096.163-.038.046-.002.019-.036.05-.034.058-.065.093-.129.221-.067.086-.103.163-.058.105-.019.01-.139.223-.002.029-.395.618-.067-.041-.014.019-.043-.034.01-.012-.103-.081-.163.268-.096.151-.086.134-.189.304-.273.439.031.036v.041l-.117.206-.141.237-.041.017-.026-.005-.072.125-.139.266-.122.22-.364.729-.151-.079-.046-.036-.026-.007-.019-.019-.026-.005-.017-.022h-.024l-.026-.024-.093.187-.07.141-.223.448.733.458.012.002.043.022.017.026.072.038.026.041.007.036-.043.06-.043.062h-.019l-.024.017-.067-.038-.014.007-.084-.048h0l-.081-.053-.192-.11-.007.007-.465-.244-.019.012-.053.108-.149.295-.187.367.273.158.065.038-.168.348-.165.326-.307.594-.316.633-.091.182-.463.959.278.151.048.029-.074.137-.41.81-.197,1.309-.046.288-.07.482-.113.681-.101.709-.194,1.182-.01.05.17.026.038.007.029.01.031.038.01.05-.002.01-.11.714-.022.029-.022.01-.002.024.089.007-.046.276-.113-.017-.005.014.036.024.012.026-.115.745-.022.048-.048.022-.237-.031-.482,2.323.005.129.01.35.014.117-.002.173-.002.326.031.165.002.141.007.091.005.127-.005.209.017.213.002.168-.017.182-.026.014.002.046.022.034.01.362-.019.031v.026l.022.019.007.503.012.041.019.266-.029.07.014.048.017.22-.022.07.019.383.036,2.608.017.072.005.156.012.129.041.537-.014.046.163,1.87-.046.046-.793.048-3.418-1.87-.101.35.096.048.012-.022.026.002.822.46-.043.074-.846-.465.005-.017-.086-.036-.082.621.062.007.077.036.014-.01.65.283-.024.065-.654-.29-.002-.012-.067-.019-.058.005-.022.431.014.283.043-.228.084.017-.026.113.47.098.007.048-.026.041-.47-.091.002.029h-.017l.012.177.014.175.163-.002v-.012h.283l-.002-.012.161-.012.007.058.07.007.026-.041.117.089.005-.01,1.486.803-.046.079.352.197.494.278.554-1.007-.288-.221.012-.024.372.3-.518.925.074.05.069-.105.103.074.048-.093.058.036-.237.391-.048-.038.048-.084-.113-.06.055-.084-.069-.046-.077.129-.58-.333-.05.117.012.017.038.058.046.084.014.084-.01.115-.043.113-.072.086-.089.062-.108.053-.093.01-.139-.022-.048.091-1.982-1.083.031.242.034.161.046.252.036.177.053.259.079.403.096.503.036.185.096.467.065.304.031.18.041.221.098.494.103.532.084.427.065.319.074.388.036.05.017.108.062.048.012.065.024.053.055-.005.007.058.022.026.019.05-.046.053.017.089.036-.01-.019-.038.041-.036.048-.012.058.062-.043.046.043.036.043-.038.053.01.029-.029.043.017.041-.014.029.038-.041.029.005.062-.05.012-.024.031-.024.048-.046.01-.046.046-.06.01-.029.062-.048-.012-.072.024.01.086.216,1.095.209,1.1.065.391.046.199.041.187.153.81.041.216.237,1.186.07.134.036.046.055.108.053.074.077.129.103.163.079.117.12.161.105.139.101.134.103.129.192.211.194.199.189.221.23.24.182.189.177.168.046.041.28.261.204.192.014.014.321.312.077.093.096.12.105.129.134.204.103.161.058.086.18.3.007.024.101.199.161.314.11.256.129.343.024.079.062.218.05.233.038.213.017.093.024.197.022.338.012.249v.221l-.029.434-.017.242-.055.419-.01.065-.036.321-.084.599-.098.87-.031.029-.007.139-.036.017-.065-.031-.038.007-.036.014-.074.69.221.026.055.007.053.005.036.019.019.034.043.005.005.067-.302,2.097-.374-.247-.134-.132-.122-.093-.141-.115-.163-.146-2.761-1.589-5.242-3.008-.319-.165-.851-.412-1.565-.86-1.402-.779-1.081-.602-2.392-1.388-1.798-1.021-.928-.525-2.934-1.615-.537-.28-1.237-.64-.194-.101-.901-.496-.554-.302-.558-.309-.206-.115-3.063-1.683-4.945-2.74-.865-.479-2.67-1.479,1.091-2.016,1.038-1.841.949-1.707.942-1.702.942-1.702-2.37-1.302.954-1.707-.249-.134.961-1.699-.829-.453-.161-.093.587-1.057.165.091.688.391.393-.762,2.742,1.52,1.083-1.949,1.069-1.913.988-1.807.999-1.81.175-.319.815-1.464,1.009-1.807.985-1.795.992-1.795,1-1.793.995-1.795.99-1.795,1.076-1.946-3.396-1.867-.113-.062-.067-.034-.113-.067-.091-.053-3.37-1.874,1.071-1.939.988-1.798.999-1.798.995-1.786.992-1.812,1.002-1.793,3.348,1.853.218.122.271.158,3.315,1.834.997-1.798,1.074-1.937,1.083-1.963,1.007-1.817,1.004-1.819,1.014-1.822,1.007-1.819,1.014-1.817,1.007-1.822,1.009-1.824,1.007-1.824,1.009-1.814,1.009-1.817,1.016-1.824,1-1.814,1.009-1.822,1.088-1.97,1.081-1.951,1.007-1.824,3.545,1.965,5.019,2.764,1.675.925,1.05.575,2.466,1.347,4.962,2.778,1.515.81.225.141.158.086.189.101-.645.966-.228.216-.019.024-1.052,1.733-.014.144-.827,1.412-.719,1.325-.645,1.009-.312.343h0l-.511.566-1.328,1.333-1.119,1.685" vector-effect="none" fill="#bababa" fill-rule="evenodd" stroke="#232323" stroke-linecap="square" stroke-linejoin="bevel" stroke-width=".737"/>
    <path d="M322.706,493.9v.072l.568-.041.031.098.055.149-.7.043-.017-.077-1.994.132-.007.058-.659.031.007.194-.185.024v-.067l-.614.089.017.211-.24.038-.089-.544.256-.06.038.249.63-.072-.026-.288.853-.062-.017-.05,2.09-.127" vector-effect="none" fill="#bababa" fill-rule="evenodd" stroke="#232323" stroke-linecap="square" stroke-linejoin="bevel" stroke-width=".737"/>
    <path d="M324.223,498.023l.005.285-.132-.007-.139.007.007-.146-.63.086-.494.348.053.029-.161.268-.146-.074.103-.17-.523.079-.453.336-.146.264-.141-.096.158-.271.058.026.407-.3.034-.158.127.026-.014.065.57-.096.523-.391.784-.089.151-.022" vector-effect="none" fill="#bababa" fill-rule="evenodd" stroke="#232323" stroke-linecap="square" stroke-linejoin="bevel" stroke-width=".737"/>
    <path d="M317.728,450.214l-.134.182-.141-.012-.089.149-.149.244-.307-.127-.007-.177.091-.141.156-.223.223-.185.081-.089.144-.048.125-.249.125-.084.077.058-.019.096-.173.424-.002.182" vector-effect="none" fill="#bababa" fill-rule="evenodd" stroke="#232323" stroke-linecap="square" stroke-linejoin="bevel" stroke-width=".737"/>
    <path d="M325.901,457.477l-.113.221-.228-.065.05-.228.29.072" vector-effect="none" fill="#bababa" fill-rule="evenodd" stroke="#232323" stroke-linecap="square" stroke-linejoin="bevel" stroke-width=".737"/>
    <path d="M383.335,190.334l-.031.067.029.065.012.069-.007.032-.012.031-.014.029-.022.026-.024.023-.026.019-.031.015-.062.102-.014.056-.012.08-.036.075-.014.004-.014.006-.012.008-.012.011-.01.012-.005.014-.005.015-.002.015v.015l-.041.072-.05.014-.07.069-.005.086-.072.083-.058.03-.041.081-.01.08-.053.141.014.163.002.058-.029.086-.077.031-.06.047-.048.054-.055.229-.046.068-.046.438-.012.155-.036.419-.046.272-.019.118.082.122-.014.07-.017.075-.002.081-.014.022.002.039-.048.03-.082.597-.012.273.01.144-.024.109-.074.835.014.107-.029.063-.029.437v.089l-.017.079-.019.674-.01.142-.007.067-.026.026.014.055-.007.091.01.039-.029.061.002.054.014.037.019.078-.005.035.019.039-.038.039-.014.033.026.026.005.266.007.065.014.02.007.054-.017.057.005.048-.014.063.007.12-.024.004-.029.052-.05.028.007.064.017.495.062.927.034-.006.082,1.233-.041-.002.017.242.046.451.06.668.396,4.116.072.726.072.047-.005.057.024.013-.007.035.026.046.024.059.024.059-.01.124.046.059.01.082-.022.035.024.065.034.07-.007.067.024.094.031.159.014.07-.041.046.017.174.026.035.038.045.031.386-.046.044-.055.022.017.076.043-.004.007.05.017.011.034.044.012.144-.029.027v.072l-.005.118.019.089.002.087.041.017.046.62.01.011.019.022-.012.062-.005.017.005.006.017.018.005.135-.007.024-.022.072.007.134-.002.054-.005.133.017.085-.007.078.017.055-.019.054.024.054-.005.048.014.078.014.122-.019.024.019.037-.01.033-.014.054.022.037.002.113.048-.017.017.132.026.201.01.062.022.17.024.176-.038.013.014.157.026.243.01.107.204,1.994-.129.017.043.567.079,1.088.137,1.861.024.019.07,1.71.067,1.696.005.444.046.167.06.791.062,1.069.117,2.095.043.144v.024l.029.639.026.446.01.357.034.939.007.178.002.104.017.314.026.554.01.257-.005.066.017.393.055,1.112-.002.124.024.527.019.395.053,1.218.007.173.038.983-.007.093.031.693.314.028v.358l.002.307.005.22.002.172.06,2.927-.264.68-.197.5-.144.341-.117.269-.237.521-.482,1.065-.405.816-.52,1.106-1.946,3.497-.525.98-.127.235-.187.349-.206.409-1.014,1.762-.865,1.557-.139.248-1.043,1.98-1.143,1.963-.158.285-.225.413-.173.311-.551.995-.235.423-.604,1.089-1.052,1.884-1.002,1.825-1.004,1.813-1.009,1.814-1.007,1.806-1.002,1.816-1.086,1.958-1.081,1.953-.225-.123-.669-.367-1.364-.749-1.285-.706-.995,1.817-1.021,1.804-1.023,1.851-1.031,1.819,1.287.719,2.009,1.124.244.136-.355.646-.645,1.176-1.009,1.827-1.011,1.826-1.091,1.969-1.129,2.046-.678,1.22-.103.189-.108.194-.096.175-.642,1.158-.103.185-.132.237-.065.12-.453.815-.11.199-.115.211-.117.209-.23.417-1.05,1.882-.614,1.112-.371.664-1.136-.654-2.641-1.469-3.164-1.762-.192-.096-.158-.079-.52-.297-5.427-3.006-.077-.041-.101-.058-.139-.074-5.522-3.047-.681-.195-.681-.255-.779-.427-1.795-.984,1.1-1.999,1.014-1.821.971-1.851.101-2.29-.072-1.461-.017-.366-.026-.556-.069-1.294-.014-.223.007-.223.026-.222.046-.219.062-.214.084-.207,1.033-1.984.055-.101.908-1.64.043-.077,1.016-1.831.719-1.291.062-.114.18-.321.055-.099,1.016-1.829,1.002-1.823,1.023-1.848,3.073,1.708.662-1.172.436-.624,1.076-1.952,1.081-1.97,1.313-1.643,1.155-1.495.12-.156,1.275-1.699,1.076-1.863.499-.833h0s.465-.853.465-.853l.467-.931.431-.948.395-.963.36-.976.707-1.983.767-2.158.753-2.149.7-1.976.69-1.958.7-1.994.695-1.971.717-2.01,2.028,1.116,1.23-1.696,1.22-1.715,1.201-1.676.597-.854.688-.987-2.03-1.124,3.087-5.598,2.001-3.629,2.943-5.331.676-1.222.388-.722.048-.174.034-.177.019-.179.005-.18-.01-.18-.024-.179-.038-.176-.053-.172-.067-.168-.079-.162-.017-.058-.012-.059-.002-.06.002-.06.038-.094.053-.088.062-.08.074-.071.082-.06.089-.048-1.139-.628.158-.343.158-.711.031-.112.048-.179.06-.175.074-.171.082-.144.089-.139.098-.134.108-.137.35-.487.146-.197.132-.208.115-.218.096-.226.079-.233.189-.65.089-.261.084-.24.096-.236.108-.231.24-.514.386-.715.427-.685.204-.279.213-.273.22-.267.228-.261.235-.255.242-.248,1.493-1.551.638-.632.889-.931,1.934-1.872.925-.935.539-.582.221-.239.232-.655.129-.364.117.052.158.079.086.043.403.201" vector-effect="none" fill="#bababa" fill-rule="evenodd" stroke="#232323" stroke-linecap="square" stroke-linejoin="bevel" stroke-width=".737"/>
    <path d="M350.764,304.057l-.419.772-.582,1.131-1.04,1.831-1.038,1.826-1.064,1.963-1.086,1.968-1.033,1.824-.997,1.841-1.004,1.826-.266.487-.139.249-.609,1.11-.999,1.788-1.124,2.023-.923,1.659-.635,1.112-.393.69-1.093,1.951-1.069,2.009-1.009,1.81-.98,1.805-1.045,1.85-1.031,1.834-1.026,1.831-.98,1.81-1.009,1.826-1,1.802-1.088,2.004-1.095,1.939-1.011,1.826-1.038,1.877-1.028,1.853-1.023,1.843-.81,1.469-.211.381-1.095,1.951-.079.158-1.031,1.865-1.014,1.841-1.016,1.841-1.021,1.853-1.026,1.843-1.021,1.838-1.11,1.975-1.093,1.992-1.014,1.831-.99,1.834-1.023,1.79-1.016,1.831-.336.597-.681,1.22-1.009,1.805-.985,1.836-1.012,1.812-1.021,1.826-.997,1.819-1.004,1.8-1.019,1.8-1.373-.846-1.23-.688-4.513-2.522-4.703-2.613-1.582-.88-5.338-2.919.05-.11.041-.115.026-.117.017-.12.002-.12-.01-.122-.022-.117-.034-.117-.053-.113-.067-.103-.077-.098-.089-.086-.098-.077-.105-.065,1.45-2.565,1.014-1.841,1-1.812,1.014-1.822,1.019-1.819,1.038-1.855.971-1.783,1.007-1.814,1.007-1.817,1.016-1.826,1.002-1.812,1.11-1.999,1.095-1.973,1.011-1.831.546-.978.489-.882.53-.961.499-.894,1.095-1.953,4.082-7.397,1.105-1.992,1.021-1.843,1.016-1.848,1.033-1.846,1.098-1.985.499-.901.053-.108.52-.971,1.028-1.807,1.011-1.822,1.055-1.858.971-1.793,1.009-1.831,1.009-1.824,1.033-1.838.995-1.814,1.086-1.958,1.124-2.03.817-1.505.211-.376,1.086-1.946.307-.551.23-.431.34-.642,1.019-1.788,1.016-1.824,1.014-1.836,1.016-1.826.513-.923.496-.908,1.088-1.949,1.091-1.977,1.014-1.843,1.011-1.817.63-1.128.352-.633.681.195,5.522,3.047.139.074.101.058.077.041,5.427,3.006.52.297.158.079.192.096,3.164,1.762,2.641,1.469,1.136.654" vector-effect="none" fill="#bababa" fill-rule="evenodd" stroke="#232323" stroke-linecap="square" stroke-linejoin="bevel" stroke-width=".737"/>
    <path d="M370.785,206.65l1.139.628-.089.048-.082.06-.074.071-.062.08-.053.088-.038.094-.002.06.002.06.012.059.017.058.079.162.067.168.053.172.038.176.024.179.01.18-.005.18-.019.179-.034.177-.048.174-.388.722-.676,1.222-2.943,5.331-2.001,3.629-3.087,5.598,2.03,1.124-.688.987-.597.854-1.201,1.676-1.22,1.715-1.23,1.696-2.028-1.116-.717,2.01-.695,1.971-.7,1.994-.69,1.958-.7,1.976-.753,2.149-.767,2.158-.707,1.983-.36.976-.395.963-.431.948-.467.931-.465.852h0s-.499.834-.499.834l-1.076,1.863-1.275,1.699-.12.156-1.155,1.495-1.313,1.643-1.081,1.97-1.076,1.952-.436.624-.662,1.172-3.073-1.708-1.023,1.848-1.002,1.823-1.016,1.829-.055.099-.18.321-.062.114-.719,1.291-1.016,1.831-.043.077-.908,1.64-.055.101-1.033,1.984-.084.207-.062.214-.046.219-.026.222-.007.223.014.223.069,1.294.026.556.017.366.072,1.461-.101,2.29-.971,1.851-1.014,1.821-1.1,1.999-3.164-1.871-6.15-3.404-1.064-.588-2.394-1.324-.307-.169-1.038-.575-.309-.172-.932-.517-.23-.13-.225-.114-2.752-1.383-.988-.432-.141-.062-.105-.05-2.608-1.248-2.001-.958-.156-.079-.173-.081-.321-.167-.266-.137,1.419-2.426.554-.906.731-1.248.242-.467.472-.786.988-1.776.048-.069.384-.583.141-.352.419-.615.232-.319.029-.21.177-.505.086-.219.41-.781.189-.3.082-.119-.034-.109.379-.743.17-.295.005-.124.189-.357.163-.195.038-.157.079-.181.105-.1v-.133l.168-.414.314-.724.599-1.062.197-.386.086-.081.175-.414.091-.243.292-.605.256-.5.228-.381.304-.548.252-.481.266-.514.113-.138.494-.981.201-.372.295-.495.372-.722v-.002l.314-.558.53-.976.026-.128,1.702-3.469.405-.753,1.627-2.654.611-.788.091-.148.808-1.054,1.52-2.088.336-.501,1.237-1.849.817-1.212,1.105-1.646.99-1.471.407.247.937-1.621.141-.265.096-.142.336-.506-.17-.113-.122-.081-.086.133-.273-.181.616-.928.252.167-.446.686.127.082.194.125.597-.908-.271-.148.194-.306.24-.38-.484-1.652-.079-.105-.252-.131-.256.489-1.503-.825.676-1.232,1.498.822-.273.495.292.161.11.104.062.131.415,1.415.012.041.264.176.721-1.278.07-.509.084-.212.122-.233.3-.474-.64-.33.05-.099.139-.287-2.258-1.252-.038-.021-.566-.3-.058-.025-.041-.022-.031-.024-.014-.013-.012-.013-.048-.068-.017-.03-.01-.029-.005-.017v-.007l.024-.11-.048-.025.916-1.814.276-.543.043.023,3.44-6.84.393-.782.686.339,1.393-2.744.259.125-.007.012-.046.078,2.617,1.326.755-1.468.343.165.17-.328h0s.053-.094.053-.094l.177-.324.194-.345.125-.206.103-.155.072-.095.168-.2.062-.082.026-.036.077-.118.069-.122.801-1.49,1.357-2.886,1.743-3.452.602-.996.23-.595.338-.444.228-.457.52-1.004.276-.464.098-.42.211-.404.024-.291.072-.343.122-.416.194-.438.127-.233.177-.227.101-.172.249-.399.122-.283.065-.172.079-.283.065-.127.173-.238.122-.261.161-.133.551-.39.235-.065.175.009.151.019.149.043.146.043.05.025.302.151.487.43.64.422,1.388.58,5.194,3.076.225.119.23.128,6.052,3.35,3.559,1.966.647.36,1.611.897.453.249" vector-effect="none" fill="#bababa" fill-rule="evenodd" stroke="#232323" stroke-linecap="square" stroke-linejoin="bevel" stroke-width=".737"/>
    <path d="M218.36,462.172l.297.173.278.153.225.026.204.038,1.095.623.911.515,1.814,1,3.38,1.874.177.096.525.288,4.461,2.478,1.292.712,6.277,3.49,6.292,3.463,7.126,3.945,4.207,2.294,1.141.59.985.503,1.882,1.174.077,2.639-.367,2.248-.149.896-.026.132-.218,1.174-.393,2.057-.254,2.104-.487,1.994-.132.388-.417,1.599-.374,1.767-.192,1.498-.151.923.141.084-.264.491-.079.173-.362,1.174-.034.173-.156.585-.345,1.285-.59,2.172-.34,1.198-.249.949-.558,2.049-.05.189-.065.23-1.016,3.595-.371,1.354-.175.621-.05.177-.367,1.299-.594,2.023-.091.307-.451,1.486-.069.225-.211.674-.146.465-.364,1.146-.904,2.907-1.373,3.425-.841,1.846-.551,1.201-2.047-.899-1.723-.793-1.829-.832-1.599-1.311-1.424-1.357-1.275-1.201-1.637-1.544-.283-.266-1.071-1.002-1.582-1.472-1.46-1.376-.558-.523-.923-.865-1.56-1.452-1.311-1.136-.182-.232-1.333-1.246-.853-.863-2.943-2.756-.626-.587-.367-.369-.496-.439-.594-.556-.161-.151-1.491-1.397-.916-.839-.712-.741-1.678-1.584-.244-.012h-.225l-.264-.06-.333-.41-.391-.309-.244-.319-.388-.055-7.55-1.131.062-.383.043-.242,1.807.252,1.968.252,2.371.297,1.776.209.35-5.18-6.651-.681.103-.463.278-2.62.314-3.248-.022-.067.108-.089.05.031,6.311.676.161-2.33.038-.582.175-2.522.115-1.999-1.148-.06-5.621-.117.005-.767,6.848.101.012-.156.06-.002.058-.014.058-.022.05-.031.048-.038.038-.046.031-.053.019-.058.01-.062v-.06l-.01-.06-.022-.06-.029-.053-.041-.048-.06-.053-.067-.041-.074-.031.074-1.174-2.62-.165.036-.798,2.627.161.058-.772.173-2.368.149-1.992-.077-.024.017-.132-.038-.036-.038-.043-.029-.05-.019-.053-.012-.058v-.058l.007-.058.017-.055.026-.05.034-.046.038-.041.048-.031v-.137l.079.007.113-1.824.115-1.812.086-1.361-1.349-.084.043-.614-.046-.038-.041-.046-.031-.053-.024-.055-.017-.058.053-.007h.053l.053.005.031.007.005-.024,1.321.093.058-.985.079-1.371-.235.002-.122-.036-.427.029-1.417-.115-.213-.129-.213-.012-.017-.022.002-.602-.103-.082.014-.163.161.017.06-.92.029-.288.12-1.778-1.541-.062.01-.199-1.115-.065-.005-.149.189.017v.019l2.43.139.223-.105,1.45.11,2.404.117.297-.237.012-.046-.055-.089-.005-.093.038-.069.084-.211.115-.733-.283-.283-.278-.137.101-.189-1.301-.709-.388.609-2.239-1.234,1.23-2.251,1.213.693.367-.63,1.778.964.089-.177.197.036.086-.592M217.878,463.078l-1.584-.882-.244.448.832.489-.76,1.433,1.318.726.105-.182.352.18.036-.252.151-1.071.089-.561-.388-.168.093-.161" vector-effect="none" fill="#bababa" fill-rule="evenodd" stroke="#232323" stroke-linecap="square" stroke-linejoin="bevel" stroke-width=".737"/>
    <path d="M362.722,344.79l.161.086.283-.388.137.115.058.122-.23.654-.511,3.267.022.753.348,1.87.252,1.369.36,1.151,2.152-.784.029-.005h.026l.029.002.026.01.026.012.024.014.019.022.019.022.012.024.01.029.542,1.498.01.024.005.026.002.024-.002.026-.007.024-.01.024-.012.022-.017.019-.019.017-1.297.422.024.141.002.144-.017.144-.036.139-.055.132-.077.122-.091.113-.105.096-.117.082-.129.062.767,2.116.439,2.085.36.221.031-.046-.086-.307-.096.017-.204-.875.06-.014.007.031.077-.014.067-.019-.005-.031.06-.012.209.868-.098.029.098.367-.034.05.302.177-.146.268-.273-.163.034-.067-.309-.168.01.034.204.115-.103.228.122.046.117.062.105.077.096.091.084.101.07.113.053.12.038.127.161,2.128-.175.664-.705.671-.412,1.476-.757,1.577-.901,1.354-.719,1.076-.654.904-.889,1.227-1.139,1.568-1.625,1.822-1.743,1.961-1.112,1.556-1.285,1.8-1.318,1.862-1.278,1.795-.93,1.685-.635,1.153-.453.736-1.086,1.757-1.311,1.874-1.239,1.771-1.191,1.767-1.203,1.774-2.335,3.449-2.325,3.444-2.91,3.372-.302.348-.964,1.153-.055.065-1.424,1.714-.75.887-.621.726-.086.103-.813.973-.556.65-.23.259-.053.06-.091.103-.062.067-.081.101-.115.146-.518.654-.189-.101-.158-.086-.225-.141-1.515-.81-4.962-2.778-2.466-1.347-1.05-.575-1.675-.925-5.019-2.764-3.545-1.965-3.32-1.855-.247-.139-.232-.129-3.329-1.829-3.545-2.009,1.019-1.8,1.004-1.8.997-1.819,1.021-1.826,1.012-1.812.985-1.836,1.009-1.805.681-1.22.336-.597,1.016-1.831,1.023-1.79.99-1.834,1.014-1.831,1.093-1.992,1.11-1.975,1.021-1.838,1.026-1.843,1.021-1.853,1.016-1.841,1.014-1.841,1.031-1.865.079-.158,1.095-1.951.211-.381.81-1.469,1.023-1.843,1.028-1.853,1.038-1.877,1.011-1.826,1.095-1.939,1.088-2.004,1-1.802,1.009-1.826.98-1.81,1.026-1.831,1.031-1.834,1.045-1.85.98-1.805,1.009-1.81,1.069-2.009,3.564,1.992.999.554.654.362,1.671.923.242.134.192.11.52.288,2.061,1.139.815.448,1.304.721,2.224,1.232,1.23.681,2.061,1.146,1.666.928,1.426.789,1.155.64,2.651,1.467.168.086,1.311.736.22.141.134.081.134.084" vector-effect="none" fill="#bababa" fill-rule="evenodd" stroke="#232323" stroke-linecap="square" stroke-linejoin="bevel" stroke-width=".737"/>
    <path d="M367.24,384.942l-1.697,1.572-.633.59-.805,1.196-1.313,1.953-.904,1.615-1.361,2.447-3.087,4.475-.736,1.069-.11.158-.448.714-.585.928-1.752,2.713-.105.161-.87,1.349-1.002,1.546-.817,1.261-.628.968-.618.64-.82.817-.554.556-2.047,3.044-.499.417-.499.592-.146.175-.695,1.191-.185.47-.077.721-.729,1.419-1.282,1.663-.218.28-.108.134-.084.105-.084.096-.134.156-1.524,1.755-2.16,2.49-.268.07-1.325,1.783-2.495,3.492-.633.714-1.556,1.762-1.532,1.443-.173.115-.767.546.012.259-1.174,1.402-.757.745-1.083.88-.93,1.035-.038.036-.031.043-.024.048-.05.084-.062.074-.074.065-.046.038-.053.034-.055.022-.06.014-.06.002-.062-.007-.058-.017-.055-.024-.05-.036-.362.494-.465-.355.336-.458-.048-.055-.041-.065-.029-.07-.017-.072.007-.053.014-.05.022-.048.026-.043.036-.041.043-.036.038-.041.029-.048.53-1.472.937-1.75,1.491-1.831.266-.772.705-2.057.156-.441,1.071-1.858.197.093,1.035-1.124,1.719-2.538,1.735-2.565.954-1.407,1.055-1.56.731-1.079.137-.372.058-.101.072-.113.067-.108.086-.129.043-.062.228-.355.769-1.186,2.399-3.698.144-.11.137-.244.074-.12.187-.336.11-.067.64-.709-.151-.146.59-.745.324.264,1.091-1.448.88-1.17.463-1.115.556-1.261,1.443-2.373.074-.221.458-.546.784-1.208.892-1.373,1.697-1.814.259.017.604-1.009,2.457-4.103,2.536-3.914,1.409-2.462.139-.098.014-.213.201.058.11-.077.237-.415.254-.448-.324-.199.141-.316.35.204.05-.091.302-.029.194-1.004.149-.278.81-1.512-.002-.151.113-.098.247-.194.645-.738.587-.448,1.766-2.03.853-1.218.527-.846.999-.968,1.671-.801,1.067-.185.702-.705.652-.966.209-.036.228.096.144.244-.381.808-.216.765.012,1.711.173,1.699-.062.803-.113.527-.168.506-1.038,1.702-.645,1.445-.225.235-.089.074-1.194.762" vector-effect="none" fill="#bababa" fill-rule="evenodd" stroke="#232323" stroke-linecap="square" stroke-linejoin="bevel" stroke-width=".737"/>
    <path d="M375.514,350.681l.319.23.237-.091-.012-.726.338.086-.014.614.12.937-.427.321-.983.288-.35-.01-.479-.223-1.381,1.762-.177.046-.467.554-.12-.141.336-.686-.137-.18.261-.307.156.081.192-.182,1.081-1.445-.247-.256.024-.479.187-.815.978-.925.484-.165.254.376-.18.678-.041.324.048.336" vector-effect="none" fill="#bababa" fill-rule="evenodd" stroke="#232323" stroke-linecap="square" stroke-linejoin="bevel" stroke-width=".737"/>
    <path d="M383.335,190.334l-.403-.201-.086-.043-.158-.079-.117-.052-.129.364-.232.655-.221.239-.539.582-.925.935-1.934,1.872-.889.931-.638.632-1.493,1.551-.242.248-.235.255-.228.261-.22.267-.213.273-.204.279-.427.685-.386.715-.24.514-.108.231-.096.236-.084.24-.089.261-.189.65-.079.233-.096.226-.115.218-.132.208-.146.197-.35.487-.108.137-.098.134-.089.139-.082.144-.074.171-.06.175-.048.179-.031.112-.158.711-.158.343-.453-.249-1.611-.897-.647-.36-3.559-1.966-6.052-3.35-.23-.128-.225-.119-5.194-3.076-1.388-.58-.64-.422-.487-.43-.302-.151-.05-.025-.146-.043-.149-.043-.151-.019-.175-.009-.235.065-.551.39.712-2.854.199-.597.031-.089.093-.313.007-.226.058-.202.043-.255.022-.172-.014-.347-.002-.096.01-.104.067-.236.024-.085.053-.035.043-.212.041-.52.081-.35.079-.178.117-.117.151-.029.132-.011.084-.029.007-.01.007-.011.002-.012.002-.012v-.012l-.005-.012-.005-.012-.007-.011-.007-.009-.01-.007-.012-.006-.165-.033-.139-.033h-.005s-.12-.068-.12-.068l-.101-.188.798-2.862.062-.202.324-1.431.168-.633.197-.675.18-.42.221-.818.216-.766.141-.299.149-.562.209-.397.132-.193.091-.157.348-1.014.24-.546.235-.703.216-.668.117-.401.228-.424.11-.346.146-.491.232-.708.242-.323.139-.143.096-.169.074-.289.029-.079.029-.062.326-.677.055-.232.144-.249.18-.321.072-.213.101-.162.206-.221.151-.29.197-.391.197-.583.125-.305.141-.324.113-.241.158-.391.005-.012.01-.326.048-.146.007-.123-.043-.288-.007-.083.053-.192-.026-.17.046-.344-.014-.089.026-.288-.067-.758-.031-.061-.012-.094-.041-.081-.029-.262-.002-.279-.067-.209-.031-.099-.038-.079.026-.217.074-.094.012-.078-.079-.2-.053-.335-.101-.331-.07-.146-.288-.421-.062.014-.029-.112.074-.005-.084-.126-.074-.088.029-.096.108-.087.065-.015.173-.271-.007-.244-.115-.352-.074-.228-.082-.258-.096-.187-.273-.267-.17-.407-.158-.5-.079-.4.034-.448.06-.189.072-.153.113-.266.029-.672.065-.451.034-.163.038-.599.007-.199v-.187l-.055-.352-.012-.78-.065-.494.096-.218-.034-.269-.031-.118-.091-.141-.031-.4-.029-.104-.053-.102-.12-.143-.06-.09-.038-.13.002-.325-.062-.155-.029-.135-.012-.101-.144-.41.014-.098.019-.03-.002-.09-.098-.192.084-.085-.019-.03-.041.003-.093-.137.005-.059.046-.058.067-.023.046-.023-.022-.041-.05-.021-.07-.023-.024-.052.022-.146-.067-.082.012-.091.089-.217-.002-.043-.014-.035.022-.088.007-.034.074-.196.084-.182.127-.179.122-.173.024-.036.633-.893.029-.021.034-.017.034-.012.034-.006.034-.002.034.002.031.007.031.011.031.015.026.019.074.064.038.071-.017.055-.05.033v.067l.031.05.024.02.024.021.041.016.05-.023.067-.127.103-.062.053-.152-.05-.047-.01-.167h.034l.029-.06.031.014.024.046.005.069.026.068.031.044.05.007.031-.042-.012-.08-.022-.071-.002-.003-.096-.175.012-.177.043-.052.153-.046.182.048.077-.052.077.007.12.052h.163l.094-.08-.007-.09.101.004.065.045.091-.083.125-.235h.062l.017-.121.084-.028.072-.162.06.004.058.031.038-.031-.024-.076.149-.048.022-.045.072-.028.058.007.022-.08-.065-.078.014-.073.156-.062.094.017.194-.152.048-.093.084-.09.062-.087.098.004.122-.068.223-.124.024-.014.113-.042.046-.025.014-.034-.012-.078.007-.042.014-.096.036-.033.077.034.096-.052.024-.045.163-.042.038.097-.036.071-.005.028.038.003.058-.031.017.005.07-.021.055.035-.019.111.086.087.093.007.017-.097.06-.076.098-.111.077-.028-.024-.135.055-.114.139-.035.139.035.127.045.048-.121.07-.225.173-.156.189-.075.431-.096.266-.148.928-.93.072-.072.503-.655.417-.63.3-.301.923-1.404.408-.621.093-.355.213-.344.331-.694.096-.257.079-.188.01-.024.194-.512.213-.323.103-.432.072-.192.441-.858.074-.156-.022-.164.115-.306.223-.295.192-.541.05-.115.115-.016.163-.459.29-.563.182-.489.122-.415.125-.366.324-.558.137-.066.146-.273.153-.339.369-.489.213-.159.165-.312.458-.782.082-.219.182-.35.134-.096.244-.428.153-.468.278-.596.57-.951.007-.101.333-.705.141-.18.048-.27.235-.623,1.007-1.308.259-.3.393-.43.062-.044-.005-.044-.046-.034-.079-.075.014-.156.499-.907.484-.781.091-.412.113-.385.163-.249.348-.334.019-.061-.036-.107.019-.139.736-1.638,1.119-1.796.825-1.225,1.639-2.91.211-.38.3-.505.407-.68.173-.666.273-.236.086-.19.244-.287.144-.168v-.466l.146-.439.192-.184.163-.054.35-.815.129-.168-.005-.217.18-.303.125-.119v-.179l.074-.255.175-.298.146-.011.276-.536.125-.382.532-1.235.374-.742-.206-.079-.012.035-.307-.118.137-.355.427.165-.031.084.137.053.11-.298.065.01.206-.459.086-.366.048-.493.029-.337-.007-.081-.029-.087-.014-.076.221-1.203-.017-.161.029-.087-.122-.046.017-.076-.288-.162-.103-.052-.002.008-.082.179-.014.029-.069.155-.024.052-.077.167-.017.038-.007.015-.007-.003-.048-.023.23-.51-.01-.005-.038-.017.098-.215.048.022-.01.024.024.012.314.159.103.052.017-.053.105.023-.01-.128-.05-.081-.022-.477-.06-.141-.101-.075-.213-.037-.177-.017-.072-.033.002-.189.139-.248.254-.168.213-.036.23-.487-.618-.317.254-.812.194.059-.206.661.499.265.053-.178.072-.19.038-.117.014-.052.007-.119-.038-.168-.062-.175-.187-.182-.041-.065-.017-.732.182-.821.165-.593.036-.507.259-1.082.285-.596.403-.726.292-.622.201-.904.343-.659.35-.964.479-.641.355-.784,1.558-3.438.254-.231,1.196-2.548.307-.759.367-.533.932-1.04.575-.749.403-.492.242-.174.156-.103.961-.271,1.393-1.473.64-.847.17-.221.11-.1.144.024.024-.033.12.085.12.079-.029.042.017.038.01.04.007.051-.002.051-.01.05-.019.048-.026.044-.031.039-.038.034-.046.027-.046.019-.06.092-.046.101-.026.106-.01.109.038.116.058.108.074.098.089.085.098.07.11.053.117.035.122.016.122-.004.235.015.237-.005.235-.025.232-.045.228-.065.223-.084.213-.103.204-.12.192-.137.017-.082.024-.08.043-.092.055-.085.067-.076.022.012.101.062.144-.063.146-.05.151-.037.189-.026.189-.005.189.015.185.036.182.056.88.231.316.137.094.024.093.009.096-.005.093-.02.089-.034.082-.048.146-.017.558.107.24.138.077.045.062.037.055.064.058.071.163.121.002.013.062.107.101.073.041.023.101.04.062.019.046.003.017-.024.019.025-.029.042-.01.033.038.009.043.013.053.052.079.064.098.035.06.01.048-.046.005.044.024.007.029-.02.024.022.01.022-.007.029.014.002-.01.051-.022.036.05.026.067-.042.101.065.036.049.117.089.014.045.043.016.022.049.024.012v.032l.005.556-.014.555-.026.555-.046.554-.058.552.002.149-.01.149-.026.147-.041.144-.055.139-.113.317-.094.323-.074.328-.055.332-.034.334-.017.336.005.336.024.335.046.333.062.33.084.326.101.32.122.314.139.306.156.297.175.288.189.277.209.265.22.253.237.239.249.225.264.209.276.193.285.177.295.16.304.142.065-.009h.065l.062.009.127.045.132.03.132.016.137.002.132-.013.005-.008.007-.007.007-.006.007-.005.007-.003.01-.002h.01s.007,0,.007,0l.036.012.012.022.053-.004.048.02.074.023.077-.012.029-.01.067-.053.079-.044.072-.036.07-.029.086-.053.067-.021.062-.029.058-.047.022.022.036-.022.041-.044.074-.083.065-.047.058-.007.038-.04.038-.031.019-.046.048-.038.041-.038.048-.055.029-.086.07-.117.062-.088.019-.078.022-.051.031-.033.005-.118-.026-.061.014-.046-.002-.075-.01-.057.031-.024.005-.042.012-.066.034-.036.005-.013.034-.003.014-.044.07.008.098-.008.079.012v-.116l-.086-.018-.086.011h-.062s-.058-.016-.058-.016l-.036-.044-.036-.029.01-.063.012-.061-.014-.024-.01-.041-.007-.033-.01-.05-.017-.072-.017-.064.017-.028-.024-.044-.031-.003-.288-.226-.034.052-.058-.042.034-.052-.089-.068-.041.05-.06-.055.041-.046-.151-.11-.134-.101-.12-.097-.077-.066-.072-.088-.058-.067-.098.043-.072-.103-.065-.076-.046-.081-.316.167-.038-.005-.034-.044-.012-.062.324-.185-.019-.053-.036-.077-.024-.073-.031-.113.024-.013-.036-.042-.019-.07-.038-.062-.034-.042.007-.068-.026-.062-.031-.059-.002-.024-.024-.022.007-.046-.031-.04.007-.042-.022-.029-.014-.037v-.022l-.029-.022-.029-.042.007-.026-.01-.035-.019.002-.036-.036-.031-.035-.01-.046-.012-.048-.029-.053-.031-.035-.007-.031.017-.053-.002-.053-.017-.004-.01-.04-.024-.042-.019-.044-.055.004-.034-.066v-.051l-.029-.04-.034-.022-.036-.092-.05-.075-.058-.052-.074-.103-.058-.101-.034-.084-.024-.051-.019-.033v-.033l-.014-.059.026-.018v-.026l-.007-.044.01-.022-.002-.022.026-.015-.005-.022.036-.022-.005-.009.026-.009.005-.035.01-.037.036-.011.014-.042-.019-.042.014-.026.002-.026.055-.022.041-.046.012-.031.046-.07.026-.07.029-.026.046-.024.026-.044.019-.053.031-.031.055-.024.002-.026.024-.02.012-.033.022-.004.019.024.041-.018.153-.04.098.057.091.069.151.097.098.041h.089l.187.124.213.097.201.104.074.117.098.062.199.11.165.104.165.083.055-.007h.161l.137.055.168.138.096.097.077.048.081.007.07.076.077.014.096.021.249.152.324.173.173.062.103.021.077.069.213.117.125.117.153.093.058.177-.077.178-.127.132-.125.214-.082.062-.062.104-.055.09.007.069-.043.097-.019.173-.077.104-.062.117-.029.048-.012.173v.235l-.036.242-.089.242-.014.256.029.249-.062.028.074.11.043.007.082.041.07.131.117.193.103.173.117.152.156.166.029-.023.041-.007h.034l.024-.002.017-.019.007-.019.026-.01.022-.006.022.002h.017s.022-.009.022-.009h.026s.026.003.026.003l.026.008.022.019.017.028.024.023.022.01.029.014.012.014.014.007v.013l-.002.021v.009l.019.019.017.015-.005.02-.019.019-.019.019-.012.014v.012l.005.008h.017l.012-.005.026-.011.053-.006.026-.022.014-.025.01-.025.017-.01.022-.007.031-.006h.031s.036.025.036.025l.036.044.012.033v.019l-.002.021.034.045.043.026h.012s.022-.001.022-.001l.019.02.01.024.007.019.043-.011.089-.005h.07l.038-.033-.012-.067-.043-.11-.067-.049-.106-.072-.084-.039-.137-.093-.041-.041-.036-.1.002-.1.034-.095.034-.067.055-.002.024-.039.077-.054.069-.057.058-.07.034.01.034.041.06.008.022-.034-.05-.067v-.046l.014-.059.017-.044.05-.013.031-.038.048-.049.053-.067.072-.059.108-.064.106-.049.043-.046.036-.064.034-.087.055-.044.041-.031.101-.008.014-.037.034-.101.211-.25.026.012.383-.784-.034-.017.424-.856.173.083-.422.858-.041-.021-.398.785.01.006.031.161.312-.344.096-.037.146-.125.115-.112.137-.15.225-.1.228-.104.122-.021.189-.1.156-.062.074-.129.194-.062.153.008.237-.083.213-.096.187-.125.268-.054.113-.067.204-.041.29.059.252.01.18-.043.278-.014.276-.024h.18l.235.024.388.047.393.047.34.109.194.071.769.284.908.368.053.03.443.183.208.089.7.204.194.108.336.128.115.025.098.044.122.102.113.071.103.044.125.035.132-.005.199.027.35.089.266.11.237.11.472.263.465.303.973.645.132.089.139.101.197.159.149.157.12.104.067.083.11.104.074.125.014-.011.022.011-.012.03.029.053.031.038.11.17.007.049-.01.049.043.072.065.074.043.085-.007.068.06.076.043.093.026.087.029.046.014.079.036.025.067.1.182.163.153.191.146.258.062.131.043.063.01.099.098.224.079.199.053.169.005.072-.034.044.019.093.06.232.05.235.024.186.012.093.014.099.026.155.017.191.012.218.012.033.036.014-.007.057-.034.006-.01.08-.005.086.012.038.026.037-.031.042-.036.028-.019.071-.046.034-.038.015-.022.048-.05.036-.034.072.019.05-.017.036-.046.16-.024.025-.026.074-.038.055-.07.171-.002.029-.022.038-.046.017-.026.048-.019.07-.029.07-.017.067.022.076.031.053.048.092-.002.074-.026.053-.002.059-.053.044-.007.07-.017.057-.024.117-.017.119.043.062-.053.14-.007.032-.007.04.01.049-.019.061-.007.093.034.132-.014.032-.036.068.029.047-.01.155-.01.1.007.115.036.051-.048.091-.005.078-.017.093-.002.064-.05.155.005.129v.07l-.017.032.01.064-.017.104-.007.066.014.013-.038.081-.014.044v.049l-.036.059v.068l.019.019v.03l-.029.051-.012.074-.038.102.034.013-.024.051-.022.087-.002.072.067.034-.05.017-.046.055-.029.081-.031.049.019.032-.002.059-.019.029.014.041-.048.102-.014.108.048.045-.067.074-.067.017-.05-.041-.067-.007-.041.038-.165-.096-.125-.049-.149-.083-.106-.066-.093-.041-.077.004-.129.082-.053.053-.024.064.007.121.019.104.086.038.017.028.036.009.014.021.079.024.005.066.515.288.012.102h.043s.079.034.079.034l.067.034-.053.127-.046.097-.007.049.007.053-.038.034.002.036-.06.038-.031.097.029.06-.041.053.022.04-.029.073-.014.043-.036.01-.077.036-.113.009-.069.04-.048.066-.053.065-.014.05-.007.032.017.046-.007.053.017.064-.012.038.012.085-.019.053-.036.032.01.066-.026.051-.012.066-.058.059-.043.146-.022.062-.048.044-.089.199-.024.097v.059l-.029.15-.019.064-.022.047-.024.002-.012.055-.089.121-.046.051-.053.034-.062.059-.031.055-.096.102-.038.075-.007.04.005.059-.01.029h.019v.077l-.024.036.002.04-.043.033.005.09-.036.064-.024.051h-.036l-.026.039.031.042-.005.106-.022.061-.038.062-.048.037-.058.049-.041.034-.005.064-.043.075.141.08-.321.485-.23.386-.29.459-.491.8-.364.585-.252.391.398.222.01.04-.621,1.041-.642,1.093-.88,1.494-.717,1.219-.163.299-.036.018-.228.084-.285.129-.187.06-.132.06-.17.003-1.179.128-.01.031.856.456.149.294.139.4-1.4-.764-.065-.028-.026-.005-.182.026-.192.017-.391.045.007.031-.012.059-.053.009.012.147-.395.071-.014-.113-.058-.005-.103.021-.105.002-.127.021-.096.026-.086.052-.05.08-.029.111.01.111.012.09.06.078.06.05.038.019.048.024.093.033.106.019.036.002.129.026.113.033.072.013.098.011.101.002.117-.035.077-.01.046.004.024.002.031.007.031.012.029.017.026.021.022.025.012.025.017.022.019.019.024.015.024.011.06.069.055.058.043.089.017.138.007.053.007.056.002.05.005.162.005.126v.025l.002.079v.081l-.055.082-.038.032-.079.067-.094.057-.026.024-.079.076-.038.049-.026.054-.093.235-.024.054-.091.194-.019.048-.017.132.026.059.029.068.019.07-.01.071.072.041.026-.004.146.09-.146.203.053.031-.137.227-.11.199-.046.081-.101-.061-.024.043.029.02-.036.039-.022-.015-.022.026.012.009-.022.028-.034.002-.117-.068-.022.025-.026.041-.055.078-.134.185-.086.11-.043.058-.043.048-.014.017-.012.013-.141.163-.038.049-.002.002-.336.415-.141.136-.079.058-.046.046-.113.116-.254.262-.019.019-.058.059-.144.149-.074.05-.019.014-.077.052-.06.034-.012.013-.036.035-.046.049-.019.02-.034.036-.139.152-.014.019-.034.039-.017.019-.014.019-.043.052-.012.012-.019.025-.125.041-.06.029-.093.064-.376.208-.134.144-.173.216-.086.122-.055.045-.106.181-.079.135-.065.111-.005.135-.11.165-.046.09-.05.103-.026.039-.038.041-.031.037-.038.047-.017.043-.046.046-.048.044-.091.116-.072.083-.089.139-.125.15-.05.087-.041.06.01.053-.029.08.024.048.007.092-.043.051-.046.09-.01.047-.024.002-.012.029-.05.069.007.03-.046.041v.033l.086.034-.098.152-.05.052-.223.322-.465.629-.379.533.163.075-.034.075-.024.101-.026.114.012.046-.038.093-.038-.024-.005.033-.01.081-.036.078-.036-.003-.053.063-.019.059-.062.093-.07.033-.062.039-.05.089.014.081-.012.069-.024.086-.048.042-.053.083-.026-.027-.036.039.002.018-.022.036.036.033-.113.165.038.018-.177.245.053.033-.24.313-.038.061-.22.304-.292.409-.211.28-.232.328-.141.188-.081.128-.094.121-.046.066-.048.022-.05-.023v-.02l-.578-.326-.609-.33-.424-.223.019-.026-.173-.095-.117-.053-.034.043-.048.075-.022-.01-.036.062.3.173.125.072.06.022.074.044.022.025.225.122.06.019.249.151.046.016.06.04.137.068.165.122-.005.021-.149-.094-.163-.091-.103-.058-.247-.139-.894-.516.105-.148-.022-.017.014-.033-.165-.095.002-.021-.247-.136-.074-.012-.038-.077-.06-.099.01-.08-.12-.136-.151-.363-.019-.042-.314-.644-.232-.514-.29-.471-.151-.26-.113-.076-.041-.008-.012.012-.041.004-.065.06-.082.046-.062.035-.127.093v.021l-.058.072-.031-.002-.074.078-.094.316-.062.214-.06.147-.041.217-.024.155.036.052-.019.062h-.058l-.005.074.036.039.041.008.038-.014-.024.07.036.008.036.049-.012.033.002.025.048.004-.002.058-.091.01-.089-.023.022-.035-.074-.004.031-.031-.041.002-.024.058h-.077v.033l-.029.016.002-.052-.038.016-.007.043-.007.054.029.039.058.039.036-.006v.051l-.012.012-.002.025.017.019.012.068.05.076.024-.002.036.049-.024.01-.007.039-.086.006-.043-.021-.029-.033-.072.035.041.033.077.054-.029.07-.067.016-.01.068-.034.027.002.058-.019.087-.017.118.012.054.038.054.086.062-.041.037.022.039.05.033.091.029.091-.008.029.037.036.027.029.022.031-.025.034.021.041.037.103.002.029.049.058.029.046.048.046.017.031.025.055.048.046.045.048.037.017.037.026-.002.022.023.053.037.046.019.041.016.036.023.022.056-.038.014-.07-.029-.055-.033h-.041l.041.052.081.035.053.008.07-.015.048.066.038.093v.06l-.024.027-.012.062-.019.076.017.064.038.062.065.013.048.066.034.06.089.019.065.066-.012.054-.026.027.038.046.031.016.01.031.029.008-.067.118-.024.116-.019.08.067.012.022.025.031.045.005.058.017.066-.034.085-.012.045.046.037-.046.016-.019.035.053.017.146-.029.022.041.101.016.029.085.031.105-.053.286-.451,1.656-.175.084-.18.296-.129.06-.084.03-.129.065-.132.053-.079.079-.062.093-.019.077.014.091.014.06.048.171v.186l-.074.069-.058.03-.062.033-.038.023-.089.042-.089.023-.127.042-.079.019-.058.002-.05.021-.031.028-.038.06-.053.058-.062.067-.165.166-.065.217-.185.039-.024.081.05.035.079.017-.125.165-.117.063-.06.081-.101-.039-.089.056-.098.071.014.882.06.079-.067.111-.002.688.069.86.005-.009.014-.022.014-.025.002-.003.002-.004.29-.497.038-.064-.007-.009-.002-.009-.002-.01-.002-.01.002-.01.002-.01.002-.01.007-.009.005-.008.01-.006.007-.005.01-.004.012-.002h.01s.01,0,.01,0l.192-.355-.031-.015.276-.517.175-.328-.034-.016.156-.288-.041-.023.156-.302-.012-.006.158-.304.398.207-.158.304-.014-.007-.165.306-.038-.019-.156.279-.139-.071-.455.841-.026-.015-.194.356.005.009.005.01v.021l-.002.01-.002.01-.005.009-.007.008-.007.007-.01.006-.007.004-.012.003h-.01s-.01,0-.01,0l-.06.12-.074.151-.038.071-.05.133-.029.072-.019.041-.017.033h0s-.017.035-.017.035l.038.026-.268.422-.592.961-.333.556-.18.3-.511.861-.623,1.058-.419.723-.889,1.571-.949,1.735-.506.971-.671,1.267-.105.143-.024.081-.089.15-.082.144-.079.163-.019.062-.038.038-.101.187-.129.262-.046.119-.113.2-.168.337-.144.278-.093.156-.024.087-.213.418-.05.087-.163.331-.041.084-.216.431-.058.074-.034.107-.297.587-.46.893-.041.076-.525.994-.484.891-.46.821-.427.821-.304.595-.328.6-.264.517-.285.558-.707,1.339-.362.685-.175.324-.383.721-.067.144-.074.149-.077.144-.067.125-1.685,3.155-.089.172-.122.238-.105.2-.417.792-.129.239-.093.168-.103.222-.108.227-.122.272-.117.261-.146.363-.125.315-.115.308-.117.308-.158.48-.11.352-.101.347-.175.626-.12.43-.103.365-.101.37-.053.165-.022.1-.108.383-.103.351-.05.181-.065.243-.101.377-.029.05-.034.079-.019.139-.187.523-.175.401-.546,1.365-.3.706-.376.881-.674,1.595-.721,1.692-1.395,3.29-.362.983-.309.705-.151.354-.218.499-.197.472-.137.337-.106.234-.144.364-.235.544-.302.605-.297.693-.232.577-.192.489-.211.562-.189.55-.062.19-.108.342-.201.639" vector-effect="none" fill="#bababa" fill-rule="evenodd" stroke="#232323" stroke-linecap="square" stroke-linejoin="bevel" stroke-width=".737"/>
    <path d="M384.807,246.934l-.05,2.695-.259-.006v.032l.01.032-.014.026-.005.039.019.033v.045l-.022.055-.005.033.043.042-.026.084.017.078-.022.042.005.032-.022.052.017.07v.156l-.01.081-.002.091.022.088-.01.087.005.058-.036.075-.01.084.01.091-.014.088-.036.266-.007.102.017.049-.005.062.022.075-.017.068.019.11-.038.036.029.049-.026.058-.012.055.031.042-.002.065-.007.152.019.084.024.104-.055.107-.053.13.35.006-.012.675-.005.164-.002.115-.01.151-.005.11-.127,2.08-.113,1.55-.058.599-.067.778-.12,1.083-.096.744-.129.928-.189,1.658-.048.993-.022.463-.058,1.148.005,1.062.276,1.462.041.079.134.859.034.232,1.237,3.068.515.819.153.237.165.236.022.031.199.344.336.453.669.924.532.738,1.87,2.619.108.135.046.067.017.064.041.024.038.046.05.102.041.04.189.295.079.119.242.359.072.128.029.053.036.067.053.099.089.153.014.035.113.194.002.029.038.053.053.099.055.098.18.318.048.104.199.344.014.043.031.043.019.046.108.188.014.046.048.067.084.158v.027l.067.105.221.387.081.155.115.212.046.083.055.097.065.15.038.083.156.356.017.027.273.617.105.215.086.265-.012.018-.144.244.077.192.06.161.161.349.046.099.228.493.208.641.256.756.125.368.146.425.038.133.182.553.053.21.065.3.06.356.149.656.197.1.185.093.019.323.012.216.012.189.017.17.019.181.031.314.072.851.036.403.079.917-.038,1.155-.053,1.589-.058,1.898-.141,4.35-.041.197-.494,2.447-.062.125-.491.88-.336.616-.139.254-.285.503.072.06-.019.038.091.053-.05.101-.122-.053-.029.06-.034-.007-.048.089.038.026-.328.606-.084-.036-.197.35-.494.355-1.532,1.091-.693.489-.511.369-.297.213-.182.134-.297.223-.151.113-.602.446-.35.237-.065.046-.295.199-.453.343-.506.393-.309.235-.055.043-.472.364-.537.503-.352.326-.403.381-.446.41-.151.144-.374.34-.506.439-.695.623-.12.108-.141.129-.211.223.005.007.165.158-.611.604-.158-.161-.645.652-.427.772-.652,1.174-.825,1.491-.813,1.453.019.022-.062.115.019.06.127.072,1.932,1.081.029.031.002.034-.201.367-.019.014h-.036l-2.004-1.083-.175.501-.371,1.091-.043.122-.292.86-.187.551-.115.35-.019.048-.101.3-.072.206-.096.276-.288.614.005.024-.031.038-.026.069-.319.719-.038.055-.134.199-.113.165-.65.959-1.606,2.392-1.234,1.838-.019.007-.017.007-.024.022-.06.034-.019.026-.046.034-.046.031-.055.034-.077.058-.05.038-.026.01-.055.043-.031.024-.113.079-.077.048-.079.06-.038.022-.048.041-.031.024-.062.043-.211.146-.201.141-.177.129-.038.034-.067.038-.019.022-.074.048-.11.077-.096.067h-.01l-.06.038-.043.029-.046.029-.094.06-.429.266-.134.077-.055.036-.058.041-.079.048-.604.393-.175.117-.328.225-.398.271-.355.242-.362.249-.3.206-.17.117-.096.067-.077.06-.228.211-.07.065-.153.141-.237.218-.192.175-.149.134-.18.168-.218.199-.103.101-.096.122-.077.122-.067.115-.089.158-.082.151-.108.211-.098.175-.244.422.017.067-.058-.122-.137-.115-.283.388-.161-.086-.134-.084-.134-.081-.22-.141-1.311-.736-.168-.086-2.651-1.467-1.155-.64-1.426-.789-1.666-.928-2.061-1.146-1.23-.681-2.224-1.232-1.304-.721-.815-.448-2.061-1.139-.52-.288-.192-.11-.242-.134-1.671-.923-.654-.362-.999-.554-3.564-1.992,1.093-1.951.393-.69.635-1.112.923-1.659,1.124-2.023.999-1.788.609-1.11.139-.249.266-.487,1.004-1.826.997-1.841,1.033-1.824,1.086-1.968,1.064-1.963,1.038-1.826,1.04-1.831.582-1.131.419-.772.371-.664.614-1.112,1.05-1.882.23-.417.117-.209.115-.211.11-.199.453-.815.065-.12.132-.237.103-.185.642-1.158.096-.175.108-.194.103-.189.678-1.22,1.129-2.046,1.091-1.969,1.011-1.826,1.009-1.827.645-1.176.355-.646-.244-.136-2.009-1.124-1.287-.719,1.031-1.819,1.023-1.851,1.021-1.804.995-1.817,1.285.706,1.364.749.669.367.225.123,1.081-1.953,1.086-1.958,1.002-1.816,1.007-1.806,1.009-1.814,1.004-1.813,1.002-1.825,1.052-1.884.604-1.089.235-.423.551-.995.173-.311.225-.413.158-.285,1.143-1.963,1.043-1.98.139-.248.865-1.557,1.014-1.762.206-.409.187-.349.127-.235.525-.98,1.946-3.497.52-1.106.405-.816.482-1.065.237-.521.117-.269.144-.341.197-.5.264-.68.017,1.666.01,1.818-.034,1.858" vector-effect="none" fill="#bababa" fill-rule="evenodd" stroke="#232323" stroke-linecap="square" stroke-linejoin="bevel" stroke-width=".737"/>
    <path d="M412.385,292.44l.448,1.095.228.611.429.734.575,1.002.496.712.089.137,2.38,1.436.204.122.177.105.156.089.017.007.17.086,2.057,1.045.17.05,2.814,1.464.511.503,2.088,1.802,2.251,4.063,1.405,3.353.046,1.963-1.783,3.082-1.21,2.224-.477.491-.362.175-1.731,1.937.297.3-1.532,1.898-.475-.273-.06-.036-1.62.865-.626.384-.683.686-.288.316-.058.645.18.141-7.469,10.827-.228-.153-.431.714-.537,2.116-.918,3.569-.47.618-2.09,1.985-.005.01-.108.197-.129.194-.254.077-.026.007-.139.113-.374.393-.427.221-.465.065-.391.019-.175-.079-.031-.014-.194-.074h-.326l-.726.285-3.135,2.859-.412.3-.487.117-.132.031-.204.074-.201.072-.693.204-.865-.256-1.505-1.167-2.514-1.937-.724-.535-.918-.393-3.576-.86-5.199-.906-.846-1.127-.901-.918-.374-.674-.197-.801.038-.858.11-.472.187-.383.276-1.302.065-.556.113-.683,5.705-8.811.954-1.361.65-1.577.355.074.3-.405,1.388-1.877,1.402-1.491.247.105,2.088-1.124.134-.072.127.029,2.092,1.196.276-.067,1.153.417,1.546.034.997.065.252.069.312.086.551.12.362-.002.331-.108.094-.28-.007-.316-.046-.197-.007-.254.098-.249-.01-.256-.084-.256-.058-.173-.091-.391-.014-.211v-.278l-.247-.12-.376-.113-.232-.091-.046-.091.12-.113.52.055.292.089.482-.081.36.053.285.101.108.005.014-.098-.06-.12-1.242-.01-.573-.165-.443.029-.084.019-.156.034.081.28.137.12.134-.007.158.06.309.324.082.458-.031.745-.18.4-.137.254-.173.125-.302.034-.079-.017-.199-.043-.256-.031h-.165l-.211-.043-.113.053h-.165l-.165-.031-.144.031-.127.103h-.158l-.113-.007-.204.017-.29.048-.187-.038-.053-.07-.019-.091-.019-.084.036-.151.515-.748.182-.326.568-.822.096-.072.098-.07.213-.4-1.472-.199-.439-.395-.59-.566-.158-1.534-.012-.18.002-.18.014-.177.029-.177.06-.173.067-.149,2.011-3.634.204-.779.038-.144.321-.944.103-.218.086-.223.072-.23.055-.235.038-.237.024-.24.005-.242.041-.935.031-.729v-.05l-.137-1.325-.192-.815-.177-.626-.149-.424-.374.096.017.067-.717.223-.079-.237.717-.228.036.089.362-.117-.031-.084-.134.024-.36-.88-.082-1.201.47-2.313.755-2.673.041-.146.041-.153.062-.137.108-.141.242-.322-1.22-.714.295-.497.105.06-.225.399,1.112.648.247-.385-.417-.256.012-.023.026.012.01-.02.403.233.079-.119-.403-.232.292-.437-.647-.391.029-.075-.082-.053-.278.429-.113-.045.352-.55.832.533,1.388-2.602.122-.264.11-.256.17-.233.453-.423.482-.123,2.021.036,3.813.336,1.059.703.539.36,1.268,1.89" vector-effect="none" fill="#bababa" fill-rule="evenodd" stroke="#232323" stroke-linecap="square" stroke-linejoin="bevel" stroke-width=".737"/>
    <path d="M213.952,510.671l.264.06h.225l.244.012,1.678,1.584.712.741.916.839,1.491,1.397.161.151.594.556.496.439.367.369.626.587,2.943,2.756.853.863,1.333,1.246.182.232,1.311,1.136,1.56,1.452.923.865.558.523,1.46,1.376,1.582,1.472,1.071,1.002.283.266,1.637,1.544,1.275,1.201,1.424,1.357-.302.642-1.067,2.284-.458,1.002-.976,1.826-.467.815.58.35.163,2.342.515.333-.892,3.31-.022.089-.467.12-.108.029.005.089.043,3.787.019.225.034.223.046.22.062.218.074.213.089.209.101.201.115.194.125.189.139.177-.328.535-.307.53-.242.41-.216.36-.295.518-.218.35-.105.18-.302.52-.115.199.28.29,1.757,1.829.63.652.165.173.149.144.256.247.173.182.261.273.551.599.264.292.096.103.084.084.165.161.206.201-.144.096-.149.101-.125.11-.086.067-.086.065-.139.098.024.041.048.079-.105.081-.029-.002-.043-.067-.084-.125-.606.396-.144.096.007.024-.007.07-.019.081-.034.072-.055.043-.314.252-.211.168-.367.252-.338.223-.484.302-.173.108-.074.05-.671.482.122.177-.204.156-.019.014.012.017.146.206-.034.043.014.026-.017.014.002.022.427.614-.935.688h-.002l.002.002,1.798,2.236-.558.451-1.347,1.11-1.33-1.565-.014-.017-.002.002-.132.108-.079.065-.911-.484-.254.216.712.844-.117.086.072.081.913,1.057.002.019-.139.11-.309.252h-.029l-.328-.412v.017l-.192.182-.024.007-.127-.144.002-.019.197-.177.026-.002-2.071-2.423-.575.489-.108.091-.029.022-.417.345.379.446.173-.125.07.077-.173.125,2.215,2.617-.525.431-2.632-3.118-.628.537-.544.475-.563.465-.177.141-.592.496-.05.043-.108.091-.199.187-.693.597-.506.419-.285.247-.266-.307-.446.381-.201.17-.36.307.609.635.012.017.031.038.86,1.019.029.031.026.031.726.858.165.194-.096.084.048.055.077-.067.077.089.019-.019.273.309-.422.372-.014.002-.249-.29.026-.022-.014-.043.031-.043-.012-.036.022-.017-.005-.038.017-.014-.01-.026.117-.094-.048-.055-.261.232-.683-.803-.232-.264-.331-.374-.276-.314-.213-.242-.077-.086-.12-.194-.019.012-.439-.518-.065-.079-.463.369-.501.405-.662.525-.017.019-.173.355-.089.189-.117.228-.57.455-.896.721-1.659,1.34-.07.031-.328.125,1.306,2.299,2.09-1.186.364.638-2.092,1.189.415.726-.599.34-2.136-3.737-3.255,1.115-.276.01.163.511-.405.074.177.597.18-.06.113.314.024.122-.093.041.034.101.002.043h.031l.05.117-.007.024.048.134.05.046-.031.029.019.055.031.002.031.06-.036.022.012.046.026-.017.048.081-.041.034.065.173.05-.002.024.024v.034l-.048.053.06.149.034-.017.043.089-.041.029.261.638-.031.074-.036.019-.079-.11-.175-.515-.161-.482-.089-.295-.07-.192-.065-.18-.065-.168-.038-.089-.46.137.122.592.012.144-.026.055-.055.034-.058.007-.046-.014-.031-.058-.084-.244-.079-.216-.074-.194-.501.132.065.141.038.082.038.163.074.237.048.182-.01.06-.038.041-.103-.01-.055-.058-.05.007-.058-.151-.058-.117-.108-.276-.017-.058-.031-.127-.012-.026-.304.098-.211.067.002.05.036.187.067.206.137.439.161.441.105.348-.165.163-.067.038-.173-.031-.108-.11-.086-.165-.067-.199-.031-.062-.144-.256-.041-.127-.139-.357-.098-.256-.065-.129-.446.144.007.173.079.441.055.314.029.197.002.098-.06.046-.158.077-.077-.019-.072-.091-.12-.211-.134-.235-.086-.153-.07-.161-.034-.098-.05-.161-.01-.077-.206.022-.235.024-.007.103v.326l.038.396.034.35.12.642.029.187-.022.072-.05.055-.153.002-.06-.086-.029-.12-.031-.252-.022-.252-.019-.249-.034-.395-.014-.103-.034-.17-.113-.475-.47.055.012.35-.005.273-.046.254-.065.197-.12.084-.053-.014-.141-.12.026-.031.043-.074.07-.242.091.038.019-.182.062-.007.007-.041-.07.002.002-.163.069-.019-.005-.026-.07.007.007-.173.079-.007.002-.055-.127.01-.012-.129.072-.005-.053-.407.149-.019-.108-.841-.87-.149-.309,1.275-.029.12.029.007-.081.336-.019-.007-.026.218-.058.173-.101.434-.199-.029v-.036l.292-1.184.029.007.029-.113-.302-.194-.029.036.012.007-.043.053-.005-.002-.11.192-.177.288-.247.4-.034-.022-.022.024.005.072-.113.252-.084-.038.01-.084.029-.01.101-.194v-.041l.125-.173.129-.18.002-.029.017-.019.014-.002.153-.259.026-.036.005-.019.158-.266-.707-.453-.18.3-.105.146-.089.156-.105.161-.156.22-.153.213-.153.254-.065-.046.137-.252.029.005.034-.055.034.005.055-.084-.014-.014.058-.07.012-.034.043-.026.014-.031-.014-.014-.029.022-.012-.002.125-.163.146-.235.206-.328.053-.074.065-.103-.304-.201-.038.026-.427-.283-.268.434-1.184-1.201-.256-.264-.259-.333-.455-.494-.05-.043-.232-.312-.326-.422-.273-.348-.038-.055-.633-.877-.173-.242-.237-.386-.295-.458-.017.019-.237-.379.014-.01-.017-.022-.089-.12-.055-.091-.177-.292-.091-.17-.12-.225-.103-.235-.077-.209-.048-.156-.043-.18h-.022l-.048-.208-.029-.161-.017-.12-.228.022.01.113-.247.019-.014-.127-.012-.125.252-.022.012.101.22-.024-.026-.304.024-.002-.01-.17.007-.187.017-.189.019-.096.031-.163-.022-.029-.002-.031.024-.038.022-.007.017.005.125-.467-.496-.149-.137.455.232.07-.091.302-.058.038-.043-.074.065-.201-.23-.065-.067.237-.026-.007.244-.774-1.335.23-.467-.774,2.526-.441.079-.252-.113-.01-.036.019-.022-.005-.026.01-.007-.017.014-.01-.07-.038-.079.017-.093-.005-.024.019-.069-.017-.034.024-.036-.012-.034.01-.005.022-.036-.017-.031.01-.019.014-.05-.007-.024.01-.137.029-.019-.022-.07.01-.005.022-.055.002-.022.019-.024-.017-.019-.01-.022.034-.036-.022-.043.05-.024-.002-.024-.019-.105.24-1.659-.484-.055-.026-.084-.132-.92-3.768-.002-.069.266-1.393.22-1.17.046-.072.024-.012.058-.029.072.002.177.048.017-.06.017-.048.024-.029.038-.06.055-.062.055-.043.067-.043.074-.036.077-.029.077-.017.081.002.077.005.055.005.11.046.074.048-.053.079-.082-.043-.06-.024-.022-.007-.007.07-.086-.007-.077.007-.065.005-.026.012.029.077-.055.017-.043.034-.058.048-.041.06-.022.036-.002.036.084.012.029-.046.05-.043.074-.031.041.002.062-.012.036-.022.069.002.043.019.034.041.017.024.005.041.026.046.026.026.017.034.005.053.012.041.034-.005.031-.031.01-.094.276-.892.417-1.409.002-.026.058-.204-1.028-.297.019-.067-.34-.098-.07-.055-.005-.007-.043-.058-.002-.074.24-1.261.254-1.337.362-1.886.28-1.503.173-.88.264-1.393.077-.41.141-.916.151-1.198.125-.822.108-.801.228-1.51.038-.041.048-.002.024.012-.002.177-.175,1.275,2.603.546.175-.868-.105-.268-.058-.295v-.309l.06-.307.079-.197.034-.077.141-.216.189-.204.158-.896-.489-.096-.817-.161-1.481-.288-.165,1.263-.036.266-.005.01-.005.007-.01.007-.007.007-.01.005-.012.002h-.022l-.01-.002-.007-.005-.01-.005-.007-.005-.007-.007-.005-.01-.005-.007.041-.288.197-1.412.18-1.287.283-2.064.058-.391.002-.01.125-.901.137-.983.316-2.265.307-2.205.266-1.908.338-2.435.036-.072.077-.048h.065l1.51.261.007-.038.609.101-.005.048.266.048,1.218.211.01-.07.014-.101.014-.048.029-.034.055-.024.537.082,3.293.582.321-1.764-.01-.046.093-.561.041-.254.125-.789-.005-.031.108-.681-1.208-.194.091-.635-1.285-.192-.012.055-.585-.081-.005.024-2.891-.455v-.031l-.309-.05.002-.093-1.474-.213.163-1.019,4,.621,2.162.345,1.148.18.228-1.556-6.186-.985.158-.978,5.446.841.098-.638-.304-.048-.017.053-.827-.129.043-.204.12.017.002.024.676.084-.007.046.324.053.019-.129,1.249.149.105-.803.266-1.769.312-1.944.3-1.891.29-1.812.333-2.174.352-2.294.002-.014-.676-.307-.789-.163-3.981-.53-1.467-.192-.851-.113-.091-.122.036-.259.038-.372,7.55,1.131.388.055.244.319.391.309.333.41" vector-effect="none" fill="#bababa" fill-rule="evenodd" stroke="#232323" stroke-linecap="square" stroke-linejoin="bevel" stroke-width=".737"/>
    <path d="M201.541,605.07l2.972.805.108-.46-.12-.041.046-.173.475.122-.034.168-.144-.024-.122.465.11.029.295-.407-.086-.058.082-.137.18.129.23.17-.091.101-.122-.093-.256.357,2.069.561,1.644,1.989.014.019.017.017.019.014.019.01.024.007.024.002h.024l.022-.005,1.994-.544-.043-.103.252-.448.017-.036.022-.031.041-.05.05-.043.058-.034.06-.024.395-.11h.002l.031-.01.132.022.431.244h0l.082.113.029.101.034.115.072.252.002.005v.002l-.017.151-.17.304-.007.017-.002.002-.058.101-.084.079-.019.005-.127.036-.369.105h-.002l-.014.005-.012.002-.115-.019-.273-.134-.079-.05-.067-.043-.041-.034-.046-.058-.072-.17-.173.046-.043.012-.594.156-.875.232-.041.012-.014.002-.081.022-.041.012-.017.01-.017.012-.012.01-.005.007-.005.007-.005.01-.005.012-.005.022-.002.012.002.012v.01l.005.01.017.036.019.036.091.108.019.024.005.005.019.026.153-.12.606.777-.034.043.149.213-.081.074.005.005.043.055.022.026.11.137.137.069.228.225.058-.029.036.129.055-.017v-.038l.086-.024-.022-.091.05-.017.029.094,1.074-.309.036.129-1.282.362.153.546.762.029-.007.168.798.041-.005.153-.813-.05v.024l-.034.666.278.031.005.06.065.062.12-.034.024-.065.036.005-.031.213-.017.137.029.129-.153-.012-.014.163-.093.022-.019.05h-.046l-.031.218-.197-.022-.168,3.435-.877,1.424-.115.204-.918,1.644-.211.094-.144.086-.197.117-.12.117-3.116,2.203-2.581-.244-.113.069-.932.566-1.023.616-.151.091.738,1.254.153.084,3.31-.314.007.108.002.041.007.105-3.267.34-.12.043-.237-.127.017-.146-.769-1.292-6.718,4.051-.856.515.743,1.275.098.002,1.558-.935.134.194-3.44,2.045-.125-.201,1.594-.961.024-.072-.741-1.254-.995.578-1.721,1.002-.889.518.129.204-.014.01.156.271-.041.022-.156-.271-.105.055.158.268-.034.024-.158-.264-.019.007-.041-.067-.065.034-.024-.036.065-.041-.06-.093-.137.079-.434.259,1.019,1.723-2.045,2.471-.307-.242,1.831-2.265-.865-1.467-.57.34-.261.125-.271.113-.312.129-.038.014-.28.096-.532.098-.367.058-.592.014-.479-.029-.479-.072-.427-.101-.336-.113-.494-.122-.558-.173-.451-.242-.47-.407-.36-.4-.175-.23-.235-.312-.225-.295-.235-.436-.173-.455-.129-.386-.069-.393-.043-.436.014-.372.029-.314.084-.415.165-.436.156-.35.11-.163.139-.185.206-.261.101-.129.24-.295.626-.767.451-.59.427-.491.441-.551.074-.091.376-.458.055-.067.467-.635.41-.518.235-.278.261-.307.036-.041.283-.333.168-.213.326-.422.007-.007.35-.431.302-.372.307-.36.321-.388.568-.714.995-1.227.264-.316.278-.331.419-.53.777-.935.894-1.115.043-.055.582-.75.518-.64.575-.745.007-.01.558-.678.573-.628.772-2.536.132-.393.007-.014.058-.101.077-.096.089-.086.101-.074.11-.058.117-.041.041-.012.201-.041.204-.024.204-.002.204.017.326.014.324.005h.151l1.34-.108.513-.041,1.33-.108,1.354-.108" vector-effect="none" fill="#bababa" fill-rule="evenodd" stroke="#232323" stroke-linecap="square" stroke-linejoin="bevel" stroke-width=".737"/>
    <path d="M141.502,614.223l.822,1.455,1.704-1.055-.108-.206.177-.098.333.558-.189.101-.12-.199-1.714,1.045-.108,1.297-.276,1.234-.741.535-.908.192-.882-.23-3.301-2.131-1.165-1.819-1.491.992-.561-.882.319-.197.343.52,1.194-.741-.683-1.064.199-.132-.012-.539-.149-.266-.026-.048-.038-.079-.029-.084-.014-.089v-.089l.014-.086.029-.086.041-.077.053-.072.065-.058.074-.046.077-.034.084-.022.084-.012,1.826-.139.055-.072.115.007.113.017.11.026.151.067.146.077,2.773,1.405,1.613,1.122" vector-effect="none" fill="#bababa" fill-rule="evenodd" stroke="#232323" stroke-linecap="square" stroke-linejoin="bevel" stroke-width=".737"/>
    <path d="M149.265,585.339l.168.048.168-.024h.216l.144.048.12.096.168.096.12.096.12.12.12.024.144.024.12.096.072.096.144.072.144.12.12.096.144.072.12.048.144.072.192.048.144.024h.288l.12.048.12.144.12.144.096.192.048.168v.168l.048.192.072.12.144.096.192.12.096.192.024.096.024.168.024.144v.168l.024.192v.072l.024.096.072.12.024.096.072.12v.096l-.072.096h-.048l-.072-.024-.072-.024-.072-.024-.072-.048h-.096l-.072.12-.168.048-.24.072-.168.024-.192.024-.192.048h-.216l-.144-.024-.096-.048-.144-.12-.12-.144-.096-.096-.12-.12-.072-.048h-.12l-.168.024-.072.072-.12.144-.455.431-.719-.767.336-.336.192.072.096.024.096.048.12-.024.096-.048.096-.096v-.072l-.048-.12-.096-.096-.12-.12-.12-.096-.12-.096-.096-.024-.072-.024-.144-.072-.072-.096-.024-.096v-.048l-.12-.144-.096-.072-.072-.048-.072-.048-.096-.024-.048-.072-.024-.072-.048-.144-.024-.12-.024-.072v-.072l-.048-.072-.048-.096-.096-.096-.048-.048-.024-.096-.048-.12v-.12l-.024-.12-.048-.12-.024-.12-.072-.168-.024-.144-.048-.144-.024-.168v-.096l.024-.12.072-.024.096-.024.12.024.144.072.12.048.096.072.144.048h0" vector-effect="none" fill="#bababa" fill-rule="evenodd" stroke="#232323" stroke-linecap="square" stroke-linejoin="bevel" stroke-width=".737"/>
    <path d="M263.414,486.973l2.67,1.479.865.479,4.945,2.74,3.063,1.683.206.115.558.309.554.302.901.496.194.101,1.237.64.537.28,2.934,1.615.928.525,1.798,1.021,2.392,1.388,1.081.602,1.402.779,1.565.86.851.412.319.165,5.242,3.008,2.761,1.589.163.146.141.115.122.093.134.132.374.247-.093.686-.058.439-.05.348-.043.357-.065.482-.014.036-.038.022-.055-.002-.096.674-.031.232-.024.228-.058.391-.05.331-.014.055-.048.343-.096.578-.07.455-.065.364-.012.067-.022.113-.005.086-.031.129-.129.736-.022.11-.113.587-.036.242-.069.386-.134.729-.079.441-.084.475-.244,1.313-.839,4.676-.213,1.215-.228,1.21-.244,1.21-.259,1.206-.273,1.203-.288,1.198-.374,1.46-.391,1.457-.405,1.453-.422,1.448-.439,1.443-.455,1.438-.47,1.433-.487,1.429-.046.122-.031.079-.055.141-.055.158-.026.074-.046.132h0l-1.232,3.487.019.024-.383,1.107-.18.539-.163.417-.093.117-.321.877-.261.609-.168.321-.101.187-.357.578-.235.338-.381.472-.146.173-.367.374-.674.657-.429.386-.22.189-.175.132-.213.113-.185.084-.225.074-.163.026-.256.024-.542.046-.355.031-.913.084-.041.002-.182.017-1.651.144-.546.048-.117.01.012.208-.395.036-1.719.165.091,1.139-4.015.52-1.287.163-1.889.24-4.209.532-3.866.487-.019.031-.52.065-.125-.022-.074-.062-.038-.06-.309-2.14-.019-.014-.048-.007-.065-.026-.046-.053-.043-.07-.134.012-.223.036-1.016.156-.228.034-.252.043-.379.074-.913.17-.789.165-.606.127-.618.096-.626.106-.777.161-.146.031-.304.086-.295.024-.115.024-.127.029-.47.101-1.079.24-1.973.395-.592.024-.295.012-.525.117-.443.18-1.321.283-1.865.343-1.429.259-1.369.278-1.771.645-.448.232-.535.285-.074.048-.355.225-.072.041-.12.067-.029.072-.132.113-.228.129-.153.175-.18.146-.132.101-.206-.201-.165-.161-.084-.084-.096-.103-.264-.292-.551-.599-.261-.273-.173-.182-.256-.247-.149-.144-.165-.173-.63-.652-1.757-1.829-.28-.29.115-.199.302-.52.105-.18.218-.35.295-.518.216-.36.242-.41.307-.53.328-.535-.139-.177-.125-.189-.115-.194-.101-.201-.089-.209-.074-.213-.062-.218-.046-.22-.034-.223-.019-.225-.043-3.787-.005-.089.108-.029.467-.12.022-.089.892-3.31-.515-.333-.163-2.342-.58-.35.467-.815.976-1.826.458-1.002,1.067-2.284.302-.642,1.599,1.311,1.829.832,1.723.793,2.047.899.551-1.201.841-1.846,1.373-3.425.904-2.907.364-1.146.146-.465.211-.674.069-.225.451-1.486.091-.307.594-2.023.367-1.299.05-.177.175-.621.371-1.354,1.016-3.595.065-.23.05-.189.558-2.049.249-.949.34-1.198.59-2.172.345-1.285.156-.585.034-.173.362-1.174.079-.173.264-.491-.141-.084.151-.923.192-1.498.374-1.767.417-1.599.132-.388.487-1.994.254-2.104.393-2.057.218-1.174.026-.132.149-.896.367-2.248-.077-2.639,2.354,1.292.132.072" vector-effect="none" fill="#bababa" fill-rule="evenodd" stroke="#232323" stroke-linecap="square" stroke-linejoin="bevel" stroke-width=".737"/>
  </g>
  <path d="M370.785,206.65l1.139.628-.089.048-.082.06-.074.071-.062.08-.053.088-.038.094-.002.06.002.06.012.059.017.058.079.162.067.168.053.172.038.176.024.179.01.18-.005.18-.019.179-.034.177-.048.174-.388.722-.676,1.222-2.943,5.331-2.001,3.629-3.087,5.598,2.03,1.124-.688.987-.597.854-1.201,1.676-1.22,1.715-1.23,1.696-2.028-1.116-.717,2.01-.695,1.971-.7,1.994-.69,1.958-.7,1.976-.753,2.149-.767,2.158-.707,1.983-.36.976-.395.963-.431.948-.467.931-.465.852h0s-.499.834-.499.834l-1.076,1.863-1.275,1.699-.12.156-1.155,1.495-1.313,1.643-1.081,1.97-1.076,1.952-.436.624-.662,1.172-3.073-1.708-1.023,1.848-1.002,1.823-1.016,1.829-.055.099-.18.321-.062.114-.719,1.291-1.016,1.831-.043.077-.908,1.64-.055.101-1.033,1.984-.084.207-.062.214-.046.219-.026.222-.007.223.014.223.069,1.294.026.556.017.366.072,1.461-.101,2.29-.971,1.851-1.014,1.821-1.1,1.999-3.164-1.871-6.15-3.404-1.064-.588-2.394-1.324-.307-.169-1.038-.575-.309-.172-.932-.517-.23-.13-.225-.114-2.752-1.383-.988-.432-.141-.062-.105-.05-2.608-1.248-2.001-.958-.156-.079-.173-.081-.321-.167-.266-.137,1.419-2.426.554-.906.731-1.248.242-.467.472-.786.988-1.776.048-.069.384-.583.141-.352.419-.615.232-.319.029-.21.177-.505.086-.219.41-.781.189-.3.082-.119-.034-.109.379-.743.17-.295.005-.124.189-.357.163-.195.038-.157.079-.181.105-.1v-.133l.168-.414.314-.724.599-1.062.197-.386.086-.081.175-.414.091-.243.292-.605.256-.5.228-.381.304-.548.252-.481.266-.514.113-.138.494-.981.201-.372.295-.495.372-.722v-.002l.314-.558.53-.976.026-.128,1.702-3.469.405-.753,1.627-2.654.611-.788.091-.148.808-1.054,1.52-2.088.336-.501,1.237-1.849.817-1.212,1.105-1.646.99-1.471.407.247.937-1.621.141-.265.096-.142.336-.506-.17-.113-.122-.081-.086.133-.273-.181.616-.928.252.167-.446.686.127.082.194.125.597-.908-.271-.148.194-.306.24-.38-.484-1.652-.079-.105-.252-.131-.256.489-1.503-.825.676-1.232,1.498.822-.273.495.292.161.11.104.062.131.415,1.415.012.041.264.176.721-1.278.07-.509.084-.212.122-.233.3-.474-.64-.33.05-.099.139-.287-2.258-1.252-.038-.021-.566-.3-.058-.025-.041-.022-.031-.024-.014-.013-.012-.013-.048-.068-.017-.03-.01-.029-.005-.017v-.007l.024-.11-.048-.025.916-1.814.276-.543.043.023,3.44-6.84.393-.782.686.339,1.393-2.744.259.125-.007.012-.046.078,2.617,1.326.755-1.468.343.165.17-.328h0s.053-.094.053-.094l.177-.324.194-.345.125-.206.103-.155.072-.095.168-.2.062-.082.026-.036.077-.118.069-.122.801-1.49,1.357-2.886,1.743-3.452.602-.996.23-.595.338-.444.228-.457.52-1.004.276-.464.098-.42.211-.404.024-.291.072-.343.122-.416.194-.438.127-.233.177-.227.101-.172.249-.399.122-.283.065-.172.079-.283.065-.127.173-.238.122-.261.161-.133.551-.39.235-.065.175.009.151.019.149.043.146.043.05.025.302.151.487.43.64.422,1.388.58,5.194,3.076.225.119.23.128,6.052,3.35,3.559,1.966.647.36,1.611.897.453.249" vector-effect="none" fill="#003379" fill-rule="evenodd" stroke="#232323" stroke-linecap="square" stroke-linejoin="bevel" stroke-width=".737"/>
  <g>
    <path d="M281.976,204.275c-.637,17.279,9.402,28.565,25.146,32.24" fill="none" stroke="#000" stroke-linecap="round" stroke-linejoin="round" stroke-width="2"/>
    <path d="M319.125,237.823c-5.894,1.399-13.327,4.109-18.127,7.356l4.574-9.021-2.255-9.858c3.871,4.313,10.427,8.741,15.808,11.523Z"/>
  </g>
<style>
#g-neighborhoods-tablet-manhattan-img rect, #g-neighborhoods-tablet-manhattan-img circle, #g-neighborhoods-tablet-manhattan-img path, #g-neighborhoods-tablet-manhattan-img line, #g-neighborhoods-tablet-manhattan-img polyline, #g-neighborhoods-tablet-manhattan-img polygon { vector-effect: non-scaling-stroke; }
</style>
</svg>
