<?xml version="1.0" encoding="UTF-8"?>
<svg id="g-neighborhoods-desktop-manhattan-img" xmlns="http://www.w3.org/2000/svg" baseProfile="tiny" version="1.2" viewBox="0 0 1200 900">
  <!-- Generator: Adobe Illustrator 29.1.0, SVG Export Plug-In . SVG Version: 2.1.0 Build 142)  -->
  <g>
    <path d="M540.936,490.222l.696.549.198.157.398.248.229.188.248.182.351.195,4.182,2.337,3.592,2.005.185.1.176.1,8.034,4.455,7.608,4.163.643.361,1.296-2.369,3.206,1.785,2.867,1.594.358.257.063,1.374.078.467.141-.028.195-.022.198.003.195.022.188.047.138.047.138.085.129.1.116.113.1.129.088.135.069.147.044.154.028.154.013.16-.003.157-.022.157-.035.154-.053.151-.066.144-.107.147-.125.135-.141.116-.154.1-.163.078-.173.06-.157.025-.16.006-.16-.009-.157-.031-.151-.044-.147-.063-.731,1.355-1.484,2.56-.737,1.327-.678,1.223-1.318,2.384-1.333,2.384-1.305,2.372-1.324,2.378-1.318,2.394-1.321,2.378-1.324,2.397-1.311,2.372-1.33,2.406-1.305,2.337-1.343,2.384-1.308,2.4-1.318,2.384-1.427,2.563-1.402,2.535-1.302,2.347-1.305,2.362-1.318,2.372-1.292,2.343-1.299,2.347-1.305,2.362-1.402,2.525-1.402,2.541-1.245,2.249-1.343,2.425-1.318,2.365-1.302,2.359-1.296,2.331-1.305,2.347-1.308,2.35,6.033,3.36,2.177,1.211,8.232,4.571-1.311,2.347-.565,1.026-.74,1.324-1.393,2.507-1.405,2.569-1.286,2.331-.687,1.23-.549,1.026-1.249,2.234-1.233,2.215-1.242,2.252-1.233,2.215-1.355,2.438-1.44,2.604-8.235-4.533-8.216-4.568-1.691-.932-5.838-3.244-.687-.376-.232-.125-4.423-2.453-2.375-1.308-1.192-.674-1.434-.816-.267-.05-.295-.035-.364-.201-.389-.226.179-1.484-.43-.05-.003-.05-1.098-.147.151-1.164-.047-.022-7.335-.966-.053-.056-.031-.107.169-1.286.06-.094.141-.066.125.016,7.134.988.069-.075.144-1.048.129.009,1.02.135.408.06.282-1.986.22-1.594-.006-.088-.609-.107-1.835-.317-.11-.019.157-1.107-1.038-.147-.05.041-.013.075-.016.119-.019.154-.025.173-.025.195-.016.129-.025.169-.022.169-.025.195.031.041.342.038-.009.069-.856-.1.009-.082.323.038.044-.035.041-.317.028-.204.019-.125.025-.185.019-.144.028-.198.016-.122.009-.075-.047-.05-1.387-.191-.053.041-.013.078-.013.113-.019.144-.025.185-.025.204-.019.132-.006.063-.063.461.053.041.333.035-.006.063-.998-.107.009-.072.449.05.06-.038.05-.445.013-.11.038-.329.031-.27.019-.154.006-.066-.041-.038-1.616-.213-.038.044-.022.223-.016.132-.025.21-.019.16-.031.26-.016.119-.031.257.053.038.32.028-.003.056-.994-.104.006-.056.449.047.056-.361.016-.091.05-.329.022-.132.041-.264.035-.232-.035-.053-1.66-.229-.16,1.39.038.075.329.031-.006.05-.48-.047.179-1.518.013-.104.013-.097-.047-.091.185-1.286.022-.082.094-.069.125.003,3.125.411.013-.122,1.223.173v.06l.524.085-.003.075,1.402.188.031-.254.031-.238.019-.135.031-.248.016-.119.035-.257.016-.132.031-.242.016-.122.016-.107.013-.088.035-.285-6.28-.882-.097-.047-.066-.082.006-.104.16-1.289.063-.066.082-.022.113.016,6.371.85.304-2.271-1.223-.163-.003.056h-.019v.063l.05.003-.003.119-1.192-.147.016-.129.151.019.013-.119-4.21-.587-.11-.072-.035-.075.173-1.314.044-.091.082-.053.11.003,6.387.869.326-2.384-.097-.003v.047l-.264-.035-.009.053-.988-.132-.003-.025-.311-.044.016-.097-4.772-.653-.078-.044-.063-.082v-.072l.195-1.252.047-.06.069-.031.088-.006,3.272.455,1.117-3.95.894-.056.43-1.468-4.552-2.481.326-1.136,4.524,2.56.853-2.961-.072-.147.185-.618.135-.094.257-.878-.659-.245-1.101-.571.041-.072,1.101.58.273.094.025-.063-.944-.458.035-.053-.235-.132-.031.025-.169-.082.006-.009.138-.273.176.094-.028.047.226.125.041-.075.703.386.235.132.028-.06-.242-.113-1.958-1.076.038-.066,2.456,1.349.154-.53-1.132-.634.044-.075-.107-.053-.038.063-2.933-1.603.056-.085-.125-.069-.047.088-.245-.135.204-.367-.147-.082.151-.267.376.21-.285.511.141.075.025-.035,2.892,1.612-.016.031.125.075.301-.54.969.543.988-3.445.317-1.089.474-1.634.345-1.18-.361-.207.43-.737.361.204.511-.938.028-.047-.373-.204.411-.747.367.201.536-.944.442-.803.301-.536.361-.662.301-.543.778-1.415.292-.53.398-.753.122-.235.333-.643,1.129-2.033.599.348,1.18-2.199-.474-.282-.9-.549.718-1.252-5.594-3.056-.085-.06-.05-.107.022-.107,1.371-2.447.066-.063.088-.006.094.009.373.182,5.236,2.886.866-1.587.863.48.292-.514-.791-.439-.483-.276.129-.238.157-.282-.279-.195-.044.044-.169-.135.144-.185.169.132-.035.044.26.198.06-.122,1.28.712.279-.533-1.029-.596.298-.496.687-1.211.587-1.054.728-1.33,1.004.568,1.305-2.34-6.393-3.611-.038-.056.006-.063.311-.533.063-.044.078.016,6.362,3.589,1.195-2.152.737-1.333-6.434-3.567.42-.743,6.441,3.529,1.195-2.171-6.299-3.473.584-1.079-.326-.188-.213.063-.078.141-.176-.097.195-.351.025-.022.031-.019.031-.009.035-.006.035-.003.035.006,5.86,3.259.963.505,2.325,1.327.838-.618.044.038.304-.562.207-.38.038-.066.816-1.452-9.035-5.023-.041-.138.668-1.202.094-.06,8.172,4.533.264.147.649.354.891-1.631-.069-.285-.1-.047-.088-.072-.06-.125-.028-.141.019-.129.063-.107.097-.088.129-.063.307-.082.129-.069.107-.135.125-.254.195-.392.06-.119-.031-.06-9.433-5.239-.091-.122.035-.075.483-.888.088-.072.144-.006.06.035,9.076,5.129.025-.044.235.129,1.001-1.816.991-1.807-9.402-5.248-.063-.066v-.094l.565-.985.107-.031.091.031,9.345,5.233.982-1.794,1.038-1.898-9.462-5.23-.022-.125.521-.929.116-.066.125.013,6.942,3.928.132-.242-.358-.198.405-.69.339.188.932-1.694-7.102-3.953.765-1.374,7.084,3.903,1.252-2.29-.395-.204.336-.602.386.223.991-1.816-.96-.489.138-.251-.257-.213-.053.097-.279-.157-.044.088-.213-.125.295-.543.022.013.11-.198.182.091-.107.204.285.163-.063.094.351.11.019-.044.919.536.527-.969.386.038.094-.031.066-.072.031-.069-.006-.116-.242-.345.091-.144.003-.053-6.064-3.363.58-1.045,6.07,3.379.954-1.703-2.924-1.619-2.24-1.242.314-.555,5.148,2.855.267-.006.248.147.963-1.691-.163-.091-.013.003-.207.041-.144.235-.317-.157-.041.082-.477-.257.056-.091-.273-.176.166-.311.072-.132-2.111-1.236-.138.254-.053.097.22.116-.107.232-3.441-1.873.129-.238.254.135v-.003l.129-.264-.185-.1-.003-.003.006-.009.078-.135-.056-.031-.176-.104.245-.376.125.066,1.387.753,4.731,2.632" vector-effect="none" fill="#bababa" fill-rule="evenodd" stroke="#232323" stroke-linecap="square" stroke-linejoin="bevel" stroke-width=".737"/>
    <path d="M640.082,383.739l2.35,1.288,1.02.559.891.334-.461.828-.825,1.477-1.324,2.378-1.327,2.412-1.427,2.588-1.424,2.55-.649,1.189-.671,1.208-1.33,2.39-1.327,2.403-1.33,2.387-1.333,2.34-.445.841-.301.565-.402.722-1.421,2.547-.276.493-1.07,1.97-1.471,2.657-1.421,2.563-1.302,2.375-1.352,2.406-1.321,2.387-1.321,2.397-1.271,2.347-1.38,2.431-1.324,2.384-1.346,2.365-.681,1.271-.069.141-.653,1.18-1.437,2.598-1.352,2.416-1.33,2.419-1.336,2.412-1.446,2.607-5.343,9.681-1.434,2.557-.653,1.17-.693,1.258-.64,1.154-.715,1.28-1.324,2.397-1.434,2.582-1.452,2.616-1.311,2.372-1.33,2.39-1.318,2.378-1.318,2.375-1.271,2.334-1.358,2.428-1.333,2.381-1.327,2.384-1.308,2.372-1.327,2.409-1.898,3.357-.138-.047-.188-.047-.195-.022-.198-.003-.195.022-.141.028-.078-.467-.063-1.374-.358-.257-2.867-1.594-3.206-1.785-1.296,2.369-.643-.361-7.608-4.163-8.034-4.455-.176-.1-.185-.1-3.592-2.005-4.182-2.337-.351-.195-.248-.182-.229-.188-.398-.248-.198-.157-.696-.549.213-.345.116-.427.16-.389.198-.295.223-.27.273-.311.245-.213.091-.122.154-.474,2.13-3.984.129.069.144-.176.169-.085.188.022.398-.37.599-1.452-.191-.044-.292.104-.298.05-.094-.125-.069-.21.863-1.625.198-.339,1.707-3.068,1.452-2.616.568.022.966-.091.853-1.565,1.308-2.403,1.296-2.378h0l.072-.132.264-.458.624-1.085-.009-.078-1.004.06-.169-.097-.38-.053-.257.047-.285.104-.238.078-.213.022-.257-.035-.295-.06-.279-.044-.282.031-.248.066-.323.078-.276-.013-.223-.013-.329-.031-.358.019-.367.097-.257.025-.279-.05-.289-.066-.248-.006-.035.078-.116.078-.078-.006-.107.176-.555.041.38-.687,7.328-.471-.154-.292.038-.395.044-.138v-.1l-.022-.395,1.556-2.874.43-.957.063.028.191-.533.019-.053.031-.085.248-.7-.169-.066.069-.182.166.063.166-.521.119-.238.122-.223,4.056-7.702.643-1.227.402-.762,1.44-2.676.433-.831-2.045-2.695-.819.568-1.782,2.776-.135-.078,1.794-2.817.963-.649.107-.445.166-.009.125.047-.204.649,1.932,2.45,1.007-1.932-.339-.169.082-.179-.132-.066-.113.207.035.016-.019.035-.094-.06.122-.216-1.283-.709-.097.176-.141-.078.242-.43.132.072-.097.182.16.088,1.186.653-.016.031.138.072.091-.151.329.176.235-.442.813-1.537-3.15-.135-.43.546-.144-.1-.019-.129.395-.496,1.958.113,1.493.003,2.673-5.057,3.896-7.382,1.33-2.519,1.431-2.707.298-.562.988-1.873,1.183-2.24.301-.524.872-1.521.248-.455,2.193-4.05,2.886-5.361,1.431-2.657,2.723-5.126,1.308-2.441.329-.618,1.314-2.5.141-.242-.028-.204.085-.191.631-1.023.8-1.54.524-.975.351-.685.364-.718.502-.972.514-.928.991-1.749.587-1.112.119-.307.361-.594.157-.464.311-.491.204-.226.508-1.042.467-.761.22-.551.169-.308.1-.07.326-.669.157-.27-.009-.135.916-1.684,1.104-1.98.351-.804.282-.34.389-.372.053-.259.254-.556.267-.421.025-.205.489-.907.436-.739.53-.995.348.18.42.219.226.106.204.103,2.62,1.254,3.413,1.633.138.066.185.081,1.292.565,3.601,1.81.295.149.301.17,1.22.677.405.225,1.358.752.402.222,3.134,1.733,1.393.77,8.05,4.455,4.141,2.449" vector-effect="none" fill="#bababa" fill-rule="evenodd" stroke="#232323" stroke-linecap="square" stroke-linejoin="bevel" stroke-width=".737"/>
    <path d="M601.47,524.078l4.64,2.629,4.357,2.394.304.169.323.182,4.345,2.428-1.318,2.387-1.415,2.554-1.424,2.579-1.321,2.384-1.308,2.375-1.33,2.387-1.321,2.378-1.321,2.375-1.318,2.387-1.321,2.387-1.318,2.384-1.327,2.378-1.318,2.381-1.327,2.384-1.314,2.381-1.318,2.378-1.418,2.569-1.405,2.535-1.305,2.353-4.339-2.4-.354-.207-.285-.16-4.383-2.425-1.311,2.347-1.299,2.372-1.302,2.337-1.308,2.353-1.292,2.353-1.402,2.538,4.411,2.453.119.069.147.088.088.044.147.082,4.445,2.444-1.409,2.547-1.296,2.35-1.302,2.35-1.308,2.347-1.299,2.35-1.289,2.35-1.321,2.365-1.067,1.917-.229.417-1.308,2.369-1.293,2.365-1.399,2.503-1.418,2.55-3.589-1.989-.514.998-.9-.511-.216-.119-.769,1.383.21.122,1.085.593-1.258,2.224.326.176-1.249,2.234,3.103,1.703-1.233,2.227-1.233,2.227-1.242,2.234-1.358,2.409-1.427,2.638-.173-.094-3.081-1.691-2.463-1.537-1.289-.659-1.493-.772-5.506-3.002-9.327-5.164,1.44-2.604,1.355-2.438,1.233-2.215,1.242-2.252,1.233-2.215,1.249-2.234.549-1.026.687-1.23,1.286-2.331,1.405-2.569,1.393-2.507.74-1.324.565-1.026,1.311-2.347-8.232-4.571-2.177-1.211-6.033-3.36,1.308-2.35,1.305-2.347,1.296-2.331,1.302-2.359,1.318-2.365,1.343-2.425,1.245-2.249,1.402-2.541,1.402-2.525,1.305-2.362,1.299-2.347,1.292-2.343,1.318-2.372,1.305-2.362,1.302-2.347,1.402-2.535,1.427-2.563,1.318-2.384,1.308-2.4,1.343-2.384,1.305-2.337,1.33-2.406,1.311-2.372,1.324-2.397,1.321-2.378,1.318-2.394,1.324-2.378,1.305-2.372,1.333-2.384,1.318-2.384.678-1.223.737-1.327,1.484-2.56.731-1.355.147.063.151.044.157.031.16.009.16-.006.157-.025.173-.06.163-.078.154-.1.141-.116.125-.135.107-.147,6.986,3.821,2.07,1.151,6.155,3.419,5.907,3.3,1.609.9,1.798,1.107" vector-effect="none" fill="#bababa" fill-rule="evenodd" stroke="#232323" stroke-linecap="square" stroke-linejoin="bevel" stroke-width=".737"/>
    <path d="M632.961,560.999l-.169.26-.107-.066-1.318,1.97-.609.91.082.085-.844,1.258-1.663,2.394-2.817,4.05-.678.979-1.098,1.578-7.488,11.711-.596.932-.157.226-.179.289-.376.599.386.248-.185.276-.006.047-.009.038-.044-.003-.028.085-.06.041-.041.088-.113.195-.091.144-.091.135-.041.082-.069.107-.041.044-.056.122-.028.047-.129.169-.009.041-.022.044-.028.025-.022.06-.063.075-.072.125-.019.041-.063.104-.038.031-.016.047-.122.173-.549.853-.069-.047-.022.006-.044.088-.031.016-.009.041-.038.038-.009.035-.151.226-.173.276-.232.364-.066.085-.038.056-.009.044-.216.351-.019.009-.022.035-.125.213-.05.06-.003.025-.047.066-.044.075-.085.122-.169.289-.088.113-.135.213-.075.138-.025.013-.182.292-.003.038-.518.809-.088-.053-.019.025-.056-.044.013-.016-.135-.107-.213.351-.125.198-.113.176-.248.398-.358.574.041.047v.053l-.154.27-.185.311-.053.022-.035-.006-.094.163-.182.348-.16.289-.477.954-.198-.104-.06-.047-.035-.009-.025-.025-.035-.006-.022-.028h-.031l-.035-.031-.122.245-.091.185-.292.587.96.599.016.003.056.028.022.035.094.05.035.053.009.047-.056.078-.056.082h-.025l-.031.022-.088-.05-.019.009-.11-.063h0l-.107-.069-.251-.144-.009.009-.609-.32-.025.016-.069.141-.195.386-.245.48.358.207.085.05-.22.455-.216.427-.402.778-.414.828-.119.238-.605,1.255.364.198.063.038-.097.179-.536,1.06-.257,1.713-.06.376-.091.631-.147.891-.132.929-.254,1.547-.013.066.223.035.05.009.038.013.041.05.013.066-.003.013-.144.935-.028.038-.028.013-.003.031.116.009-.06.361-.147-.022-.006.019.047.031.016.035-.151.976-.028.063-.063.028-.311-.041-.631,3.04.006.169.013.458.019.154-.003.226-.003.427.041.216.003.185.009.119.006.166-.006.273.022.279.003.22-.022.238-.035.019.003.06.028.044.013.474-.025.041v.035l.028.025.009.659.016.053.025.348-.038.091.019.063.022.289-.028.091.025.502.047,3.413.022.094.006.204.016.169.053.703-.019.06.213,2.447-.06.06-1.038.063-4.474-2.447-.132.458.125.063.016-.028.035.003,1.076.602-.056.097-1.107-.609.006-.022-.113-.047-.107.813.082.009.1.047.019-.013.85.37-.031.085-.856-.38-.003-.016-.088-.025-.075.006-.028.565.019.37.056-.298.11.022-.035.147.615.129.009.063-.035.053-.615-.119.003.038h-.022l.016.232.019.229.213-.003v-.016h.37l-.003-.016.21-.016.009.075.091.009.035-.053.154.116.006-.013,1.945,1.051-.06.104.461.257.646.364.725-1.318-.376-.289.016-.031.486.392-.678,1.211.097.066.091-.138.135.097.063-.122.075.047-.311.511-.063-.05.063-.11-.147-.078.072-.11-.091-.06-.1.169-.759-.436-.066.154.016.022.05.075.06.11.019.11-.013.151-.056.147-.094.113-.116.082-.141.069-.122.013-.182-.028-.063.119-2.594-1.418.041.317.044.21.06.329.047.232.069.339.104.527.125.659.047.242.125.612.085.398.041.235.053.289.129.646.135.696.11.558.085.417.097.508.047.066.022.141.082.063.016.085.031.069.072-.006.009.075.028.035.025.066-.06.069.022.116.047-.013-.025-.05.053-.047.063-.016.075.082-.056.06.056.047.056-.05.069.013.038-.038.056.022.053-.019.038.05-.053.038.006.082-.066.016-.031.041-.031.063-.06.013-.06.06-.078.013-.038.082-.063-.016-.094.031.013.113.282,1.434.273,1.44.085.511.06.26.053.245.201,1.06.053.282.311,1.553.091.176.047.06.072.141.069.097.1.169.135.213.104.154.157.21.138.182.132.176.135.169.251.276.254.26.248.289.301.314.238.248.232.22.06.053.367.342.267.251.019.019.42.408.1.122.125.157.138.169.176.267.135.21.075.113.235.392.009.031.132.26.21.411.144.336.169.449.031.104.082.285.066.304.05.279.022.122.031.257.028.442.016.326v.289l-.038.568-.022.317-.072.549-.013.085-.047.42-.11.784-.129,1.139-.041.038-.009.182-.047.022-.085-.041-.05.009-.047.019-.097.903.289.035.072.009.069.006.047.025.025.044.056.006.006.088-.395,2.745-.489-.323-.176-.173-.16-.122-.185-.151-.213-.191-3.614-2.08-6.861-3.937-.417-.216-1.114-.54-2.049-1.126-1.835-1.02-1.415-.787-3.131-1.816-2.353-1.336-1.214-.687-3.84-2.114-.703-.367-1.619-.838-.254-.132-1.18-.649-.725-.395-.731-.405-.27-.151-4.009-2.202-6.472-3.586-1.132-.627-3.495-1.936,1.427-2.638,1.358-2.409,1.242-2.234,1.233-2.227,1.233-2.227-3.103-1.703,1.249-2.234-.326-.176,1.258-2.224-1.085-.593-.21-.122.769-1.383.216.119.9.511.514-.998,3.589,1.989,1.418-2.55,1.399-2.503,1.293-2.365,1.308-2.369.229-.417,1.067-1.917,1.321-2.365,1.289-2.35,1.299-2.35,1.308-2.347,1.302-2.35,1.296-2.35,1.409-2.547-4.445-2.444-.147-.082-.088-.044-.147-.088-.119-.069-4.411-2.453,1.402-2.538,1.292-2.353,1.308-2.353,1.302-2.337,1.299-2.372,1.311-2.347,4.383,2.425.285.16.354.207,4.339,2.4,1.305-2.353,1.405-2.535,1.418-2.569,1.318-2.378,1.314-2.381,1.327-2.384,1.318-2.381,1.327-2.378,1.318-2.384,1.321-2.387,1.318-2.387,1.321-2.375,1.321-2.378,1.33-2.387,1.308-2.375,1.321-2.384,1.424-2.579,1.415-2.554,1.318-2.387,4.64,2.572,6.569,3.617,2.193,1.211,1.374.753,3.228,1.763,6.494,3.636,1.983,1.06.295.185.207.113.248.132-.844,1.264-.298.282-.025.031-1.377,2.268-.019.188-1.082,1.848-.941,1.735-.844,1.321-.408.449h0l-.668.74-1.738,1.744-1.465,2.205" vector-effect="none" fill="#bababa" fill-rule="evenodd" stroke="#232323" stroke-linecap="square" stroke-linejoin="bevel" stroke-width=".737"/>
    <path d="M633.478,648.5v.094l.743-.053.041.129.072.195-.916.056-.022-.1-2.61.173-.009.075-.863.041.009.254-.242.031v-.088l-.803.116.022.276-.314.05-.116-.712.336-.078.05.326.825-.094-.035-.376,1.117-.082-.022-.066,2.736-.166" vector-effect="none" fill="#bababa" fill-rule="evenodd" stroke="#232323" stroke-linecap="square" stroke-linejoin="bevel" stroke-width=".737"/>
    <path d="M635.464,653.895l.006.373-.173-.009-.182.009.009-.191-.825.113-.646.455.069.038-.21.351-.191-.097.135-.223-.684.104-.593.439-.191.345-.185-.125.207-.354.075.035.533-.392.044-.207.166.035-.019.085.747-.125.684-.511,1.026-.116.198-.028" vector-effect="none" fill="#bababa" fill-rule="evenodd" stroke="#232323" stroke-linecap="square" stroke-linejoin="bevel" stroke-width=".737"/>
    <path d="M626.962,591.322l-.176.238-.185-.016-.116.195-.195.32-.402-.166-.009-.232.119-.185.204-.292.292-.242.107-.116.188-.063.163-.326.163-.11.1.075-.025.125-.226.555-.003.238" vector-effect="none" fill="#bababa" fill-rule="evenodd" stroke="#232323" stroke-linecap="square" stroke-linejoin="bevel" stroke-width=".737"/>
    <path d="M637.66,600.828l-.147.289-.298-.085.066-.298.38.094" vector-effect="none" fill="#bababa" fill-rule="evenodd" stroke="#232323" stroke-linecap="square" stroke-linejoin="bevel" stroke-width=".737"/>
    <path d="M712.832,251.181l-.041.088.038.086.016.091-.009.042-.016.04-.019.038-.028.034-.031.03-.035.024-.041.019-.082.134-.019.073-.016.105-.047.098-.019.005-.019.008-.016.011-.016.014-.013.016-.006.018-.006.019-.003.02v.02l-.053.094-.066.018-.091.091-.006.112-.094.109-.075.04-.053.105-.013.105-.069.185.019.214.003.076-.038.112-.1.04-.078.061-.063.071-.072.3-.06.088-.06.573-.016.203-.047.548-.06.356-.025.154.107.16-.019.091-.022.098-.003.105-.019.029.003.051-.063.04-.107.781-.016.358.013.188-.031.143-.097,1.093.019.14-.038.083-.038.572v.117l-.022.103-.025.882-.013.185-.009.088-.034.034.019.072-.009.12.012.051-.038.08.003.071.019.048.025.103-.006.046.025.051-.05.051-.019.043.035.035.006.348.009.086.019.026.009.071-.022.074.006.063-.019.083.009.157-.031.006-.038.068-.066.037.009.084.022.648.082,1.213.044-.008.107,1.614-.053-.003.022.317.06.59.078.874.518,5.388.094.951.094.061-.006.074.031.017-.009.046.035.06.031.077.031.077-.013.163.06.077.013.107-.028.045.031.086.044.091-.009.088.031.123.041.208.019.091-.053.06.022.228.034.046.05.058.041.505-.06.057-.072.029.022.1.056-.006.009.066.022.014.044.057.016.188-.038.035v.094l-.006.154.025.117.003.114.053.023.06.811.012.014.025.029-.016.081-.006.022.006.008.022.024.006.177-.009.031-.028.094.009.175-.003.071-.006.174.022.111-.009.103.022.072-.025.071.031.071-.006.063.019.103.019.16-.025.031.025.049-.012.043-.019.071.028.049.003.148.063-.023.022.172.035.264.013.081.028.222.031.231-.05.017.019.206.035.318.013.14.267,2.61-.169.022.056.742.104,1.425.179,2.436.031.025.091,2.239.088,2.22.006.582.06.218.078,1.035.082,1.399.154,2.742.056.189v.032l.038.837.034.584.013.468.044,1.229.009.233.003.136.022.412.034.725.013.337-.006.086.022.514.072,1.456-.003.163.031.69.025.516.069,1.594.009.227.05,1.287-.009.121.041.907.411.037v.468l.003.402.006.288.003.225.078,3.83-.345.89-.257.655-.188.447-.154.352-.311.682-.631,1.394-.53,1.068-.681,1.447-2.547,4.576-.687,1.282-.166.307-.245.456-.27.536-1.327,2.306-1.132,2.039-.182.324-1.365,2.591-1.496,2.569-.207.373-.295.541-.226.407-.722,1.302-.307.554-.791,1.425-1.377,2.466-1.311,2.388-1.314,2.373-1.321,2.374-1.318,2.364-1.311,2.376-1.421,2.563-1.415,2.557-.295-.162-.875-.48-1.785-.98-1.681-.924-1.302,2.378-1.336,2.362-1.339,2.422-1.349,2.381,1.685.941,2.629,1.471.32.178-.464.845-.844,1.539-1.321,2.392-1.324,2.39-1.427,2.577-1.478,2.678-.888,1.597-.135.248-.141.254-.125.229-.841,1.515-.135.242-.173.311-.085.157-.593,1.067-.144.26-.151.276-.154.273-.301.546-1.374,2.463-.803,1.456-.486.869-1.487-.856-3.457-1.923-4.141-2.306-.251-.125-.207-.104-.681-.389-7.102-3.934-.1-.053-.132-.075-.182-.097-7.228-3.988-.891-.256-.891-.334-1.02-.559-2.35-1.288,1.44-2.616,1.327-2.383,1.271-2.423.132-2.998-.094-1.912-.022-.479-.035-.728-.091-1.693-.019-.292.009-.292.035-.29.06-.286.082-.28.11-.271,1.352-2.597.072-.132,1.189-2.146.056-.101,1.33-2.396.941-1.69.082-.149.235-.42.072-.13,1.33-2.394,1.311-2.386,1.34-2.419,4.022,2.235.866-1.534.571-.816,1.409-2.555,1.415-2.579,1.719-2.15,1.512-1.956.157-.204,1.669-2.224,1.409-2.438.653-1.09h0s.609-1.116.609-1.116l.612-1.218.565-1.241.518-1.26.471-1.277.925-2.596,1.004-2.825.985-2.812.916-2.586.903-2.563.916-2.61.91-2.58.938-2.631,2.654,1.46,1.609-2.219,1.597-2.245,1.572-2.193.781-1.117.9-1.292-2.657-1.472,4.041-7.327,2.619-4.749,3.852-6.978.885-1.599.508-.945.063-.227.044-.232.025-.235.006-.236-.013-.236-.031-.234-.05-.231-.069-.226-.088-.219-.104-.211-.022-.076-.016-.078-.003-.079.003-.079.05-.123.069-.115.082-.104.097-.093.107-.078.116-.063-1.49-.822.207-.449.207-.931.041-.147.063-.234.078-.229.097-.224.107-.189.116-.182.129-.175.141-.179.458-.638.191-.258.173-.273.151-.285.125-.296.104-.305.248-.851.116-.342.11-.315.125-.308.141-.302.314-.673.505-.936.558-.896.267-.365.279-.357.289-.35.298-.342.307-.333.317-.325,1.954-2.03.835-.827,1.164-1.218,2.532-2.45,1.211-1.224.706-.761.289-.313.304-.857.169-.476.154.069.207.103.113.056.527.263" vector-effect="none" fill="#bababa" fill-rule="evenodd" stroke="#232323" stroke-linecap="square" stroke-linejoin="bevel" stroke-width=".737"/>
    <path d="M670.202,400.027l-.549,1.01-.762,1.481-1.362,2.397-1.358,2.39-1.393,2.569-1.421,2.576-1.352,2.387-1.305,2.409-1.314,2.39-.348.637-.182.326-.797,1.452-1.308,2.34-1.471,2.648-1.208,2.171-.831,1.456-.514.903-1.431,2.554-1.399,2.629-1.321,2.369-1.283,2.362-1.368,2.422-1.349,2.4-1.343,2.397-1.283,2.369-1.321,2.39-1.308,2.359-1.424,2.623-1.434,2.538-1.324,2.39-1.358,2.456-1.346,2.425-1.34,2.412-1.06,1.923-.276.499-1.434,2.554-.104.207-1.349,2.441-1.327,2.409-1.33,2.409-1.336,2.425-1.343,2.412-1.336,2.406-1.452,2.585-1.431,2.607-1.327,2.397-1.296,2.4-1.34,2.343-1.33,2.397-.439.781-.891,1.597-1.321,2.362-1.289,2.403-1.324,2.372-1.336,2.39-1.305,2.381-1.314,2.356-1.333,2.356-1.798-1.107-1.609-.9-5.907-3.3-6.155-3.419-2.07-1.151-6.986-3.821.066-.144.053-.151.035-.154.022-.157.003-.157-.013-.16-.028-.154-.044-.154-.069-.147-.088-.135-.1-.129-.116-.113-.129-.1-.138-.085,1.898-3.357,1.327-2.409,1.308-2.372,1.327-2.384,1.333-2.381,1.358-2.428,1.271-2.334,1.318-2.375,1.318-2.378,1.33-2.39,1.311-2.372,1.452-2.616,1.434-2.582,1.324-2.397.715-1.28.64-1.154.693-1.258.653-1.17,1.434-2.557,5.343-9.681,1.446-2.607,1.336-2.412,1.33-2.419,1.352-2.416,1.437-2.598.653-1.18.069-.141.681-1.271,1.346-2.365,1.324-2.384,1.38-2.431,1.271-2.347,1.321-2.397,1.321-2.387,1.352-2.406,1.302-2.375,1.421-2.563,1.471-2.657,1.07-1.97.276-.493,1.421-2.547.402-.722.301-.565.445-.841,1.333-2.34,1.33-2.387,1.327-2.403,1.33-2.39.671-1.208.649-1.189,1.424-2.55,1.427-2.588,1.327-2.412,1.324-2.378.825-1.477.461-.828.891.256,7.228,3.988.182.097.132.075.1.053,7.102,3.934.681.389.207.104.251.125,4.141,2.306,3.457,1.923,1.487.856" vector-effect="none" fill="#bababa" fill-rule="evenodd" stroke="#232323" stroke-linecap="square" stroke-linejoin="bevel" stroke-width=".737"/>
    <path d="M696.406,272.536l1.49.822-.116.063-.107.078-.097.093-.082.104-.069.115-.05.123-.003.079.003.079.016.078.022.076.104.211.088.219.069.226.05.231.031.234.013.236-.006.236-.025.235-.044.232-.063.227-.508.945-.885,1.599-3.852,6.978-2.619,4.749-4.041,7.327,2.657,1.472-.9,1.292-.781,1.117-1.572,2.193-1.597,2.245-1.609,2.219-2.654-1.46-.938,2.631-.91,2.58-.916,2.61-.903,2.563-.916,2.586-.985,2.812-1.004,2.825-.925,2.596-.471,1.277-.518,1.26-.565,1.241-.612,1.218-.609,1.115h0s-.653,1.091-.653,1.091l-1.409,2.438-1.669,2.224-.157.204-1.512,1.956-1.719,2.15-1.415,2.579-1.409,2.555-.571.816-.866,1.534-4.022-2.235-1.34,2.419-1.311,2.386-1.33,2.394-.072.13-.235.42-.082.149-.941,1.69-1.33,2.396-.056.101-1.189,2.146-.072.132-1.352,2.597-.11.271-.082.28-.06.286-.035.29-.009.292.019.292.091,1.693.035.728.022.479.094,1.912-.132,2.998-1.271,2.423-1.327,2.383-1.44,2.616-4.141-2.449-8.05-4.455-1.393-.77-3.134-1.733-.402-.222-1.358-.752-.405-.225-1.22-.677-.301-.17-.295-.149-3.601-1.81-1.292-.565-.185-.081-.138-.066-3.413-1.633-2.62-1.254-.204-.103-.226-.106-.42-.219-.348-.18,1.857-3.175.725-1.185.957-1.633.317-.611.618-1.028,1.292-2.325.063-.091.502-.764.185-.461.549-.804.304-.417.038-.275.232-.661.113-.287.536-1.022.248-.393.107-.156-.044-.143.496-.973.223-.386.006-.162.248-.467.213-.256.05-.206.104-.237.138-.131v-.174l.22-.542.411-.947.784-1.39.257-.505.113-.106.229-.542.119-.318.383-.792.336-.654.298-.499.398-.717.329-.63.348-.673.147-.181.646-1.284.264-.486.386-.648.486-.945v-.002l.411-.731.693-1.278.035-.168,2.227-4.541.53-.986,2.13-3.473.8-1.031.119-.194,1.057-1.379,1.989-2.732.439-.655,1.619-2.421,1.07-1.586,1.446-2.154,1.296-1.925.533.323,1.227-2.121.185-.347.125-.185.439-.662-.223-.148-.16-.106-.113.174-.358-.237.806-1.214.329.219-.584.898.166.108.254.164.781-1.189-.354-.193.254-.401.314-.498-.634-2.162-.104-.137-.329-.172-.336.64-1.967-1.08.885-1.612,1.961,1.076-.358.648.383.21.144.136.082.172.543,1.852.016.053.345.231.944-1.672.091-.666.11-.278.16-.305.392-.621-.838-.432.066-.13.182-.376-2.955-1.639-.05-.028-.74-.392-.075-.033-.053-.029-.041-.031-.019-.017-.016-.018-.063-.089-.022-.039-.013-.037-.006-.022v-.009l.031-.143-.063-.033,1.198-2.374.361-.71.056.029,4.502-8.952.514-1.023.897.444,1.823-3.592.339.163-.009.016-.06.103,3.426,1.736.988-1.922.449.216.223-.429h0s.069-.124.069-.124l.232-.424.254-.452.163-.27.135-.203.094-.124.22-.262.082-.108.035-.048.1-.154.091-.159,1.048-1.95,1.776-3.778,2.281-4.517.787-1.304.301-.779.442-.581.298-.599.681-1.314.361-.607.129-.55.276-.529.031-.381.094-.45.16-.544.254-.573.166-.305.232-.297.132-.225.326-.522.16-.37.085-.225.104-.37.085-.167.226-.312.16-.341.21-.174.722-.51.307-.085.229.012.198.025.195.057.191.057.066.033.395.198.637.562.838.552,1.816.76,6.798,4.026.295.156.301.167,7.921,4.384,4.659,2.573.847.472,2.108,1.174.593.326" vector-effect="none" fill="#bababa" fill-rule="evenodd" stroke="#232323" stroke-linecap="square" stroke-linejoin="bevel" stroke-width=".737"/>
    <path d="M496.907,606.973l.389.226.364.201.295.035.267.05,1.434.816,1.192.674,2.375,1.308,4.423,2.453.232.125.687.376,5.838,3.244,1.691.932,8.216,4.568,8.235,4.533,9.327,5.164,5.506,3.002,1.493.772,1.289.659,2.463,1.537.1,3.454-.48,2.943-.195,1.173-.035.173-.285,1.537-.514,2.692-.333,2.754-.637,2.61-.173.508-.546,2.092-.489,2.312-.251,1.961-.198,1.208.185.11-.345.643-.104.226-.474,1.537-.044.226-.204.765-.452,1.681-.772,2.842-.445,1.569-.326,1.242-.731,2.682-.066.248-.085.301-1.33,4.706-.486,1.772-.229.813-.066.232-.48,1.7-.778,2.648-.119.402-.59,1.945-.091.295-.276.882-.191.609-.477,1.5-1.183,3.805-1.798,4.483-1.101,2.416-.722,1.572-2.679-1.176-2.256-1.038-2.394-1.089-2.092-1.716-1.863-1.776-1.669-1.572-2.143-2.02-.37-.348-1.402-1.311-2.07-1.926-1.911-1.801-.731-.684-1.208-1.132-2.042-1.901-1.716-1.487-.238-.304-1.744-1.631-1.117-1.129-3.852-3.608-.819-.769-.48-.483-.649-.574-.778-.728-.21-.198-1.951-1.829-1.198-1.098-.932-.969-2.196-2.074-.32-.016h-.295l-.345-.078-.436-.536-.511-.405-.32-.417-.508-.072-9.882-1.481.082-.502.056-.317,2.365.329,2.576.329,3.103.389,2.325.273.458-6.779-8.706-.891.135-.605.364-3.429.411-4.251-.028-.088.141-.116.066.041,8.26.885.21-3.049.05-.762.229-3.3.151-2.616-1.503-.078-7.357-.154.006-1.004,8.963.132.016-.204.078-.003.075-.019.075-.028.066-.041.063-.05.05-.06.041-.069.025-.075.013-.082v-.078l-.013-.078-.028-.078-.038-.069-.053-.063-.078-.069-.088-.053-.097-.041.097-1.537-3.429-.216.047-1.045,3.438.21.075-1.01.226-3.099.195-2.607-.1-.031.022-.173-.05-.047-.05-.056-.038-.066-.025-.069-.016-.075v-.075l.009-.075.022-.072.035-.066.044-.06.05-.053.063-.041v-.179l.104.009.147-2.387.151-2.372.113-1.782-1.766-.11.056-.803-.06-.05-.053-.06-.041-.069-.031-.072-.022-.075.069-.009h.069l.069.006.041.009.006-.031,1.729.122.075-1.289.104-1.794-.307.003-.16-.047-.558.038-1.854-.151-.279-.169-.279-.016-.022-.028.003-.787-.135-.107.019-.213.21.022.078-1.205.038-.376.157-2.328-2.017-.082.013-.26-1.459-.085-.006-.195.248.022v.025l3.181.182.292-.138,1.898.144,3.147.154.389-.311.016-.06-.072-.116-.006-.122.05-.091.11-.276.151-.96-.37-.37-.364-.179.132-.248-1.703-.929-.508.797-2.93-1.616,1.609-2.946,1.587.907.48-.825,2.328,1.261.116-.232.257.047.113-.775M496.276,608.159l-2.074-1.154-.32.587,1.089.64-.994,1.876,1.725.951.138-.238.461.235.047-.329.198-1.402.116-.734-.508-.22.122-.21" vector-effect="none" fill="#bababa" fill-rule="evenodd" stroke="#232323" stroke-linecap="square" stroke-linejoin="bevel" stroke-width=".737"/>
    <path d="M685.853,453.339l.21.113.37-.508.179.151.075.16-.301.856-.668,4.276.028.985.455,2.447.329,1.791.471,1.506,2.817-1.026.038-.006h.034l.038.003.034.013.035.016.031.019.025.028.025.028.016.031.013.038.709,1.961.013.031.006.035.003.031-.003.035-.009.031-.012.031-.016.028-.022.025-.025.022-1.697.552.031.185.003.188-.022.188-.047.182-.072.173-.1.16-.119.147-.138.125-.154.107-.169.082,1.004,2.77.574,2.729.471.289.041-.06-.113-.402-.126.022-.267-1.145.078-.019.009.041.1-.019.088-.025-.006-.041.078-.016.273,1.136-.129.038.129.48-.044.066.395.232-.191.351-.358-.213.044-.088-.405-.22.013.044.267.151-.135.298.16.06.154.082.138.1.126.119.11.132.091.147.069.157.05.166.21,2.786-.229.869-.922.878-.54,1.932-.991,2.064-1.18,1.772-.941,1.409-.856,1.183-1.164,1.606-1.49,2.052-2.127,2.384-2.281,2.566-1.456,2.036-1.682,2.356-1.725,2.438-1.672,2.35-1.217,2.205-.831,1.509-.593.963-1.421,2.3-1.716,2.453-1.622,2.318-1.559,2.312-1.575,2.321-3.056,4.514-3.043,4.508-3.808,4.414-.395.455-1.261,1.509-.072.085-1.863,2.243-.982,1.161-.813.951-.113.135-1.063,1.274-.728.85-.301.339-.069.078-.119.135-.082.088-.107.132-.151.191-.678.856-.248-.132-.207-.113-.295-.185-1.983-1.06-6.494-3.636-3.228-1.763-1.374-.753-2.193-1.211-6.569-3.617-4.64-2.572-4.345-2.428-.323-.182-.304-.169-4.357-2.394-4.64-2.629,1.333-2.356,1.314-2.356,1.305-2.381,1.336-2.39,1.324-2.372,1.289-2.403,1.321-2.362.891-1.597.439-.781,1.33-2.397,1.34-2.343,1.296-2.4,1.327-2.397,1.431-2.607,1.452-2.585,1.336-2.406,1.343-2.412,1.336-2.425,1.33-2.409,1.327-2.409,1.349-2.441.104-.207,1.434-2.554.276-.499,1.06-1.923,1.34-2.412,1.346-2.425,1.358-2.456,1.324-2.39,1.434-2.538,1.424-2.623,1.308-2.359,1.321-2.39,1.283-2.369,1.343-2.397,1.349-2.4,1.368-2.422,1.283-2.362,1.321-2.369,1.399-2.629,4.665,2.607,1.308.725.856.474,2.187,1.208.317.176.251.144.681.376,2.698,1.49,1.067.587,1.707.944,2.911,1.612,1.609.891,2.698,1.5,2.18,1.214,1.867,1.032,1.512.838,3.47,1.92.22.113,1.716.963.289.185.176.107.176.11" vector-effect="none" fill="#bababa" fill-rule="evenodd" stroke="#232323" stroke-linecap="square" stroke-linejoin="bevel" stroke-width=".737"/>
    <path d="M691.766,505.892l-2.221,2.058-.828.772-1.054,1.565-1.719,2.557-1.183,2.114-1.782,3.203-4.041,5.857-.963,1.399-.144.207-.587.935-.766,1.214-2.293,3.551-.138.21-1.139,1.766-1.311,2.023-1.07,1.65-.822,1.267-.809.838-1.073,1.07-.725.728-2.679,3.984-.653.546-.653.775-.191.229-.91,1.559-.242.615-.1.944-.954,1.857-1.678,2.177-.285.367-.141.176-.11.138-.11.125-.176.204-1.995,2.296-2.827,3.259-.351.091-1.735,2.334-3.266,4.571-.828.935-2.036,2.306-2.005,1.889-.226.151-1.004.715.016.339-1.537,1.835-.991.976-1.418,1.151-1.217,1.355-.05.047-.041.056-.031.063-.066.11-.082.097-.097.085-.06.05-.069.044-.072.028-.078.019-.078.003-.082-.009-.075-.022-.072-.031-.066-.047-.474.646-.609-.464.439-.599-.063-.072-.053-.085-.038-.091-.022-.094.009-.069.019-.066.028-.063.035-.056.047-.053.056-.047.05-.053.038-.063.693-1.926,1.227-2.29,1.951-2.397.348-1.01.922-2.692.204-.577,1.402-2.431.257.122,1.355-1.471,2.249-3.322,2.271-3.357,1.249-1.841,1.38-2.042.957-1.412.179-.486.075-.132.094-.147.088-.141.113-.169.056-.082.298-.464,1.007-1.553,3.14-4.841.188-.144.179-.32.097-.157.245-.439.144-.088.838-.929-.198-.191.772-.976.424.345,1.427-1.895,1.151-1.531.605-1.459.728-1.65,1.889-3.106.097-.289.599-.715,1.026-1.581,1.167-1.798,2.221-2.375.339.022.791-1.321,3.216-5.371,3.319-5.123,1.845-3.222.182-.129.019-.279.263.075.144-.1.311-.543.333-.587-.423-.26.185-.414.458.267.066-.119.395-.038.254-1.314.195-.364,1.06-1.98-.003-.198.147-.129.323-.254.844-.966.769-.587,2.312-2.657,1.117-1.594.69-1.107,1.308-1.267,2.187-1.048,1.396-.242.919-.922.853-1.264.273-.047.298.125.188.32-.499,1.057-.282,1.001.016,2.24.226,2.224-.082,1.051-.147.69-.22.662-1.358,2.227-.844,1.892-.295.307-.116.097-1.562.998" vector-effect="none" fill="#bababa" fill-rule="evenodd" stroke="#232323" stroke-linecap="square" stroke-linejoin="bevel" stroke-width=".737"/>
    <path d="M702.595,461.05l.417.301.311-.119-.016-.951.442.113-.019.803.157,1.227-.558.42-1.286.376-.458-.013-.627-.292-1.807,2.306-.232.06-.612.725-.157-.185.439-.897-.179-.235.342-.402.204.107.251-.238,1.415-1.892-.323-.336.031-.627.245-1.067,1.28-1.211.634-.216.332.493-.235.888-.053.424.063.439" vector-effect="none" fill="#bababa" fill-rule="evenodd" stroke="#232323" stroke-linecap="square" stroke-linejoin="bevel" stroke-width=".737"/>
    <path d="M712.832,251.181l-.527-.263-.113-.056-.207-.103-.154-.069-.169.476-.304.857-.289.313-.706.761-1.211,1.224-2.532,2.45-1.164,1.218-.835.827-1.954,2.03-.317.325-.307.333-.298.342-.289.35-.279.357-.267.365-.558.896-.505.936-.314.673-.141.302-.125.308-.11.315-.116.342-.248.851-.104.305-.125.296-.151.285-.173.273-.191.258-.458.638-.141.179-.129.175-.116.182-.107.189-.097.224-.078.229-.063.234-.041.147-.207.931-.207.449-.593-.326-2.108-1.174-.847-.472-4.659-2.573-7.921-4.384-.301-.167-.295-.156-6.798-4.026-1.816-.76-.838-.552-.637-.562-.395-.198-.066-.033-.191-.057-.195-.057-.198-.025-.229-.012-.307.085-.722.51.932-3.736.26-.781.041-.116.122-.41.009-.295.075-.264.056-.333.028-.226-.019-.454-.003-.126.013-.136.088-.309.031-.111.069-.045.056-.278.053-.68.107-.458.104-.232.154-.153.198-.038.173-.014.11-.038.009-.013.009-.015.003-.016.003-.016v-.016l-.006-.016-.006-.015-.009-.014-.009-.012-.013-.01-.016-.008-.216-.043-.182-.043-.006-.002-.157-.087-.132-.246,1.045-3.746.082-.264.424-1.873.22-.829.257-.884.235-.55.289-1.07.282-1.003.185-.391.195-.735.273-.519.173-.252.119-.206.455-1.327.314-.715.307-.92.282-.875.154-.525.298-.556.144-.453.191-.642.304-.926.317-.423.182-.188.125-.221.097-.379.038-.103.038-.081.427-.886.072-.303.188-.326.235-.42.094-.279.132-.212.27-.289.198-.38.257-.512.257-.763.163-.4.185-.424.147-.316.207-.512.006-.015.013-.427.063-.192.009-.161-.056-.376-.009-.109.069-.252-.035-.223.06-.451-.019-.116.034-.376-.088-.993-.041-.08-.016-.123-.053-.106-.038-.343-.003-.365-.088-.274-.041-.129-.05-.104.034-.284.097-.123.016-.103-.104-.262-.069-.438-.132-.433-.091-.191-.376-.552-.082.018-.038-.146.097-.007-.11-.164-.097-.116.038-.126.141-.114.085-.02.226-.354-.009-.319-.151-.46-.097-.299-.107-.338-.125-.245-.358-.349-.223-.532-.207-.654-.104-.523.044-.587.078-.247.094-.2.147-.348.038-.879.085-.59.044-.213.05-.785.009-.261v-.245l-.072-.46-.016-1.021-.085-.646.125-.285-.044-.352-.041-.155-.119-.185-.041-.523-.038-.136-.069-.134-.157-.187-.078-.118-.05-.171.003-.425-.082-.203-.038-.177-.016-.132-.188-.537.019-.128.025-.039-.003-.118-.129-.251.11-.112-.025-.04-.053.004-.122-.18.006-.077.06-.075.088-.031.06-.03-.028-.053-.066-.027-.091-.031-.031-.068.028-.191-.088-.108.016-.12.116-.284-.003-.056-.019-.046.028-.115.009-.044.097-.257.11-.238.166-.234.16-.227.031-.047.828-1.169.038-.028.044-.022.044-.016.044-.008.044-.003.044.003.041.009.041.014.041.019.034.024.097.083.05.093-.022.072-.066.043v.088l.041.065.031.026.031.028.053.021.066-.03.088-.166.135-.081.069-.199-.066-.062-.013-.218h.044l.038-.079.041.019.031.061.006.091.035.089.041.058.066.009.041-.055-.016-.104-.028-.093-.003-.004-.125-.229.016-.232.056-.068.201-.061.238.063.1-.068.1.009.157.068h.213l.122-.104-.009-.118.132.005.085.059.119-.109.163-.308h.082l.022-.159.11-.037.094-.212.078.005.075.04.05-.041-.031-.099.195-.063.028-.059.094-.036.075.009.028-.104-.085-.102.019-.095.204-.082.122.023.254-.199.063-.122.11-.118.082-.113.129.005.16-.089.292-.162.031-.018.147-.055.06-.033.019-.044-.016-.102.009-.056.019-.125.047-.043.1.045.126-.068.031-.059.213-.055.05.127-.047.093-.006.036.05.004.075-.04.022.007.091-.027.072.045-.025.145.113.113.122.009.022-.127.078-.099.129-.145.1-.036-.031-.177.072-.149.182-.045.182.045.166.059.063-.159.091-.294.226-.204.248-.098.565-.126.348-.194,1.214-1.217.094-.094.659-.857.546-.825.392-.394,1.208-1.838.533-.813.122-.465.279-.451.433-.909.125-.337.104-.246.013-.031.254-.671.279-.422.135-.565.094-.251.577-1.123.097-.204-.028-.215.151-.401.292-.387.251-.708.066-.15.151-.021.213-.601.38-.737.238-.641.16-.544.163-.479.423-.73.179-.086.191-.358.201-.444.483-.64.279-.208.217-.408.599-1.023.107-.286.238-.458.176-.125.32-.56.201-.613.364-.78.747-1.245.009-.132.436-.923.185-.236.063-.354.307-.816,1.318-1.712.339-.393.514-.563.082-.058-.006-.058-.06-.045-.104-.098.019-.204.653-1.187.634-1.022.119-.539.147-.504.213-.326.455-.437.025-.08-.047-.14.025-.181.963-2.144,1.465-2.351,1.079-1.603,2.146-3.809.276-.498.392-.661.533-.89.226-.872.358-.309.113-.248.32-.376.188-.22v-.61l.191-.574.251-.241.213-.071.458-1.067.169-.22-.006-.284.235-.397.163-.156v-.234l.097-.333.229-.39.191-.014.361-.702.163-.499.696-1.616.489-.971-.27-.104-.016.046-.402-.155.179-.465.558.216-.041.109.179.07.144-.39.085.013.27-.6.113-.478.063-.645.038-.441-.009-.107-.038-.114-.019-.1.289-1.574-.022-.211.038-.113-.16-.06.022-.099-.376-.211-.135-.067-.003.01-.107.234-.019.039-.091.203-.031.068-.1.219-.022.05-.009.02-.009-.004-.063-.029.301-.667-.013-.007-.05-.023.129-.282.063.029-.013.031.031.016.411.209.135.067.022-.069.138.03-.013-.167-.066-.105-.028-.624-.078-.185-.132-.099-.279-.048-.232-.022-.094-.043.003-.247.182-.324.333-.22.279-.047.301-.637-.809-.414.333-1.063.254.078-.27.866.653.347.069-.233.094-.249.05-.153.019-.068.009-.156-.05-.219-.082-.229-.245-.239-.053-.085-.022-.957.238-1.075.216-.776.047-.663.339-1.417.373-.78.527-.95.383-.814.264-1.183.449-.863.458-1.261.627-.839.464-1.027,2.039-4.5.333-.303,1.565-3.335.402-.994.48-.697,1.22-1.361.753-.98.527-.644.317-.228.204-.134,1.258-.354,1.823-1.927.838-1.108.223-.29.144-.131.188.031.031-.044.157.111.157.104-.038.055.022.05.013.053.009.067-.003.067-.013.066-.025.063-.034.058-.041.052-.05.044-.06.035-.06.025-.078.121-.06.132-.034.139-.013.143.05.151.075.141.097.128.116.111.129.091.144.069.154.045.16.021.16-.005.307.02.311-.006.307-.033.304-.059.298-.085.292-.11.279-.134.267-.158.251-.18.022-.107.031-.104.056-.12.072-.111.088-.099.028.016.132.082.188-.083.191-.066.198-.048.248-.034.248-.007.248.02.242.047.238.073,1.151.302.414.18.122.031.122.012.126-.007.122-.026.116-.045.107-.062.191-.022.731.14.314.181.1.058.082.048.072.083.075.094.213.158.003.017.082.14.132.095.053.03.132.053.082.025.06.004.022-.032.025.033-.038.055-.012.043.05.012.056.017.069.068.104.083.129.045.078.013.063-.06.006.057.031.01.038-.026.031.028.013.029-.009.037.019.003-.013.067-.028.047.066.034.088-.055.132.085.047.064.154.116.019.059.056.022.028.065.031.016v.042l.006.727-.019.727-.035.726-.06.725-.075.723.003.196-.013.195-.035.193-.053.188-.072.182-.147.415-.122.423-.097.429-.072.434-.044.438-.022.44.006.44.031.439.06.436.082.432.11.426.132.419.16.411.182.401.204.389.229.376.248.362.273.347.289.331.311.313.326.294.345.274.361.253.373.232.386.209.398.186.085-.011h.085l.082.011.166.058.172.04.173.021.179.002.173-.017.006-.01.009-.009.009-.008.009-.006.009-.004.013-.003h.013s.009,0,.009,0l.047.016.016.028.069-.005.063.026.097.029.1-.016.038-.013.088-.069.104-.058.094-.047.091-.038.113-.069.088-.027.082-.039.075-.061.028.029.047-.029.053-.058.097-.109.085-.061.075-.01.05-.052.05-.041.025-.061.063-.05.053-.049.063-.072.038-.113.091-.153.081-.116.025-.102.028-.067.041-.044.006-.155-.034-.08.019-.061-.003-.098-.012-.074.041-.032.006-.055.016-.086.044-.047.006-.017.044-.003.019-.057.091.01.129-.01.103.016v-.152l-.113-.023-.113.014h-.082s-.075-.02-.075-.02l-.047-.057-.047-.037.013-.083.016-.08-.019-.031-.013-.054-.009-.043-.012-.066-.022-.094-.022-.083.022-.037-.031-.057-.041-.004-.376-.296-.044.068-.075-.055.044-.068-.116-.089-.053.065-.078-.072.053-.06-.198-.143-.176-.132-.157-.126-.1-.086-.094-.115-.075-.087-.129.056-.094-.135-.085-.1-.06-.106-.414.219-.05-.006-.044-.057-.016-.081.423-.242-.025-.069-.047-.101-.031-.095-.041-.148.031-.017-.047-.055-.025-.092-.05-.081-.044-.055.009-.089-.035-.081-.041-.078-.003-.032-.031-.029.009-.06-.041-.052.009-.055-.028-.037-.019-.049v-.029l-.038-.029-.038-.055.009-.035-.013-.046-.025.003-.047-.048-.041-.046-.012-.061-.016-.063-.038-.069-.041-.046-.009-.04.022-.069-.003-.069-.022-.006-.013-.052-.031-.055-.025-.058-.072.006-.044-.086v-.066l-.038-.052-.044-.029-.047-.121-.066-.098-.075-.068-.097-.135-.075-.132-.044-.109-.031-.066-.025-.043v-.043l-.019-.078.035-.023v-.035l-.009-.058.013-.029-.003-.029.035-.02-.006-.029.047-.029-.006-.012.035-.012.006-.046.012-.049.047-.014.019-.055-.025-.055.019-.035.003-.035.072-.029.053-.061.016-.04.06-.092.035-.092.038-.035.06-.032.035-.058.025-.069.041-.04.072-.032.003-.035.031-.026.016-.043.028-.006.025.032.053-.023.201-.052.129.074.119.09.198.127.129.054h.116l.245.163.279.127.264.136.097.154.129.081.26.145.216.136.216.108.072-.009h.21l.179.072.22.181.126.127.1.063.107.009.091.099.1.018.125.027.326.199.424.226.226.081.135.027.1.09.279.154.163.154.201.121.075.232-.1.232-.166.173-.163.28-.107.081-.082.136-.072.117.009.09-.056.127-.025.226-.1.136-.082.154-.038.063-.016.226v.307l-.047.317-.116.316-.019.334.038.325-.082.036.097.145.056.009.107.054.091.172.154.253.135.226.154.199.204.218.038-.03.053-.009h.044l.031-.003.022-.025.009-.024.034-.013.028-.008.028.003.022-.002.028-.01.035-.002.034.006.035.01.028.024.022.037.031.03.028.013.038.018.016.019.019.01v.017l-.003.027v.012l.025.024.022.019-.006.026-.025.024-.025.025-.016.019v.016l.006.011h.022l.016-.007.035-.015.069-.008.034-.029.019-.033.013-.033.022-.013.028-.009.041-.008h.041s.047.032.047.032l.047.058.016.043v.025l-.003.027.044.058.057.035h.016s.028-.002.028-.002l.025.027.013.032.009.024.056-.015.116-.007h.091l.05-.044-.016-.088-.056-.145-.088-.064-.138-.094-.11-.051-.179-.121-.053-.054-.047-.131.003-.131.044-.125.044-.088.072-.003.031-.051.1-.071.091-.074.075-.091.044.013.044.054.078.01.028-.044-.066-.088v-.061l.019-.077.022-.057.066-.017.041-.05.063-.064.069-.088.094-.077.141-.084.138-.064.056-.061.047-.084.044-.115.072-.057.053-.04.132-.011.019-.048.044-.132.276-.327.035.016.502-1.026-.044-.022.555-1.121.226.109-.552,1.122-.053-.028-.521,1.028.013.008.041.21.408-.45.126-.049.191-.163.151-.147.179-.196.295-.131.298-.136.16-.027.248-.131.204-.082.097-.169.254-.082.201.011.311-.109.279-.125.245-.163.351-.071.147-.087.267-.054.38.077.329.013.235-.056.364-.019.361-.031h.235l.307.031.508.062.514.062.445.142.254.093,1.007.372,1.189.482.069.039.58.239.273.116.916.267.254.141.439.167.151.033.129.057.16.134.147.093.135.057.163.045.172-.006.26.036.458.117.348.143.311.144.618.344.609.396,1.274.845.173.117.182.133.257.209.195.205.157.136.088.108.144.136.097.164.019-.014.028.014-.016.039.038.069.041.05.144.222.009.064-.013.064.056.094.085.097.057.111-.009.089.078.1.056.122.035.114.038.061.019.103.047.033.088.131.238.214.201.25.191.338.082.172.056.083.013.13.129.293.103.26.069.221.006.094-.044.058.025.122.078.304.066.307.031.244.016.121.019.129.034.203.022.249.016.285.016.044.047.019-.009.074-.044.008-.013.104-.006.113.016.049.034.049-.041.056-.047.036-.025.093-.06.045-.05.02-.028.063-.066.047-.044.094.025.066-.022.047-.06.209-.031.033-.034.096-.05.072-.091.223-.003.039-.028.05-.06.023-.035.063-.025.091-.038.091-.022.088.028.1.041.069.063.12-.003.097-.034.069-.003.078-.069.058-.009.092-.022.075-.031.153-.022.155.056.081-.069.183-.009.042-.009.053.013.064-.025.08-.009.122.044.172-.019.042-.047.088.038.061-.012.203-.013.13.009.15.047.067-.063.119-.006.103-.022.122-.003.083-.066.202.006.169v.092l-.022.042.013.083-.022.136-.009.086.019.017-.05.105-.019.058v.064l-.047.077v.089l.025.025v.039l-.038.067-.016.097-.05.133.044.017-.031.067-.028.114-.003.094.088.045-.066.022-.06.072-.038.105-.041.064.025.042-.003.078-.025.039.019.053-.063.133-.019.141.063.058-.088.097-.088.022-.066-.053-.088-.009-.053.05-.216-.126-.163-.065-.194-.109-.138-.087-.122-.053-.1.005-.169.108-.069.069-.031.083.009.158.025.136.113.05.022.036.047.011.019.028.103.031.006.086.675.377.016.133h.057s.103.045.103.045l.088.045-.069.166-.06.127-.009.064.009.069-.05.044.003.047-.078.05-.041.127.038.078-.053.07.028.052-.038.095-.019.056-.047.013-.1.047-.148.012-.091.052-.063.087-.069.086-.019.065-.009.042.022.06-.009.069.022.084-.016.05.016.111-.025.069-.047.042.013.087-.035.067-.016.087-.075.077-.057.191-.028.082-.063.057-.116.26-.031.126v.077l-.038.196-.025.084-.028.062-.031.003-.016.072-.116.159-.06.067-.069.045-.082.077-.041.072-.126.134-.05.098-.009.053.006.078-.013.038h.025v.101l-.031.047.003.053-.056.043.006.118-.047.083-.031.067h-.047l-.034.051.041.055-.006.139-.028.08-.05.081-.063.049-.075.064-.053.045-.006.083-.056.098.185.105-.42.635-.301.505-.38.601-.643,1.047-.477.765-.329.512.521.291.013.052-.813,1.362-.841,1.431-1.151,1.956-.938,1.596-.213.391-.047.024-.298.11-.373.168-.245.079-.173.079-.223.003-1.544.168-.012.041,1.12.597.195.385.182.524-1.832-.999-.085-.037-.035-.006-.238.034-.251.022-.511.059.009.04-.016.077-.069.012.016.192-.518.093-.019-.148-.075-.006-.135.028-.138.003-.166.028-.125.034-.113.068-.066.105-.038.146.013.145.016.118.078.102.078.065.05.025.063.031.122.043.138.025.047.003.169.034.147.043.094.018.129.014.132.003.154-.046.1-.013.06.005.031.002.041.009.041.016.038.022.034.028.028.033.016.032.022.029.025.025.031.02.031.014.078.09.072.077.056.117.022.181.009.07.009.073.003.065.006.212.006.165v.033l.003.103v.106l-.072.108-.05.042-.103.088-.122.074-.034.031-.104.1-.05.065-.035.071-.122.308-.031.071-.119.254-.025.062-.022.173.035.078.038.088.025.092-.013.093.094.054.034-.005.191.118-.191.265.069.04-.179.296-.144.26-.06.107-.132-.08-.031.057.038.026-.047.051-.028-.019-.028.034.016.011-.028.036-.044.003-.154-.089-.028.033-.034.054-.072.103-.176.243-.113.144-.056.076-.056.063-.019.023-.016.017-.185.213-.05.065-.003.003-.439.543-.185.179-.103.076-.06.061-.147.152-.333.342-.025.025-.075.077-.188.195-.097.065-.025.018-.1.068-.078.044-.016.017-.047.046-.06.064-.025.027-.044.047-.182.2-.019.025-.044.051-.022.025-.019.025-.056.067-.016.016-.025.033-.163.053-.078.038-.122.083-.493.272-.176.189-.226.283-.113.159-.072.058-.138.237-.103.176-.085.146-.006.177-.144.216-.06.117-.066.135-.034.051-.05.054-.041.048-.05.062-.022.056-.06.06-.063.058-.119.152-.094.108-.116.182-.163.196-.066.114-.053.079.013.07-.038.105.031.063.009.12-.056.067-.06.117-.013.061-.031.003-.016.039-.066.091.009.039-.06.054v.044l.113.045-.129.199-.066.068-.292.422-.609.824-.496.698.213.098-.044.098-.031.133-.035.149.016.06-.05.121-.05-.031-.006.043-.012.105-.047.102-.047-.004-.069.082-.025.078-.082.121-.091.043-.082.051-.066.117.019.105-.016.09-.031.113-.063.055-.069.109-.034-.035-.047.051.003.024-.028.047.047.043-.147.216.05.023-.232.32.069.043-.314.41-.05.08-.289.398-.383.535-.276.367-.304.429-.185.246-.107.167-.122.158-.06.087-.063.029-.066-.03v-.026l-.756-.427-.797-.432-.555-.292.025-.034-.226-.125-.154-.069-.044.057-.063.098-.028-.013-.047.081.392.227.163.094.078.029.097.058.028.033.295.16.078.025.326.198.06.021.078.052.179.089.216.16-.006.027-.195-.123-.213-.119-.135-.075-.323-.182-1.17-.675.138-.194-.028-.023.019-.043-.216-.124.003-.028-.323-.178-.097-.015-.05-.101-.078-.13.013-.104-.157-.178-.198-.475-.025-.056-.411-.843-.304-.673-.38-.617-.198-.34-.147-.099-.053-.01-.016.015-.053.005-.085.079-.107.061-.082.046-.166.122v.028l-.075.094-.041-.003-.097.102-.122.414-.082.28-.078.193-.053.285-.031.203.047.069-.025.081h-.075l-.006.097.047.051.053.01.05-.018-.031.092.047.01.047.064-.016.043.003.033.063.005-.003.076-.119.013-.116-.03.028-.046-.097-.005.041-.041-.053.003-.031.076h-.1v.043l-.038.02.003-.069-.05.02-.009.056-.009.071.038.051.075.051.047-.008v.066l-.016.015-.003.033.022.025.016.089.066.099.031-.003.047.064-.031.013-.009.051-.113.008-.056-.028-.038-.043-.094.045.053.043.1.071-.038.091-.088.02-.013.089-.044.036.003.076-.025.115-.022.155.016.071.05.071.113.081-.053.048.028.051.066.043.119.038.119-.01.038.048.047.035.038.028.041-.033.044.028.053.048.135.003.038.064.075.038.06.063.06.023.041.033.072.063.06.058.063.048.022.048.035-.003.028.03.069.048.06.025.053.02.047.03.028.074-.05.018-.091-.038-.072-.043h-.053l.053.068.107.046.069.01.091-.02.063.086.05.122v.079l-.031.036-.016.081-.025.099.022.084.05.081.085.018.063.087.044.079.116.025.085.086-.016.071-.035.035.05.061.041.02.013.04.038.01-.088.155-.031.152-.025.104.088.015.028.033.041.058.006.076.022.086-.044.112-.016.059.06.048-.06.02-.025.046.069.023.191-.038.028.053.132.02.038.112.041.137-.069.374-.59,2.167-.229.11-.235.387-.169.079-.11.04-.169.085-.173.07-.104.104-.082.121-.025.1.019.119.019.079.063.223v.243l-.097.09-.075.04-.082.043-.05.03-.116.055-.116.03-.166.055-.103.024-.075.003-.066.028-.041.036-.05.079-.069.076-.082.088-.217.217-.085.284-.242.051-.031.106.066.046.104.023-.163.216-.154.083-.078.106-.132-.051-.116.074-.129.093.019,1.154.078.104-.088.145-.003.901.091,1.126.006-.012.019-.029.019-.033.003-.004.003-.005.38-.651.05-.083-.009-.012-.003-.012-.003-.013-.003-.013.003-.013.003-.013.003-.013.009-.011.006-.01.013-.008.009-.007.013-.005.016-.003h.012s.013,0,.013,0l.251-.465-.041-.02.361-.677.229-.429-.044-.021.204-.377-.053-.03.204-.395-.016-.008.207-.397.521.27-.207.398-.019-.009-.216.4-.05-.025-.204.365-.182-.093-.596,1.101-.035-.019-.254.466.006.012.006.013v.027l-.003.013-.003.013-.006.012-.009.011-.009.009-.013.008-.009.006-.016.004-.013.002h-.012s-.078.157-.078.157l-.097.198-.05.093-.066.173-.038.094-.025.053-.022.043h0s-.022.045-.022.045l.05.034-.351.552-.775,1.257-.436.728-.235.393-.668,1.127-.816,1.384-.549.946-1.164,2.057-1.242,2.271-.662,1.271-.878,1.659-.138.188-.031.106-.116.196-.107.188-.104.213-.025.082-.05.049-.132.245-.169.344-.06.155-.147.262-.22.442-.188.364-.122.205-.031.115-.279.548-.066.115-.213.434-.053.109-.282.564-.075.097-.044.14-.389.769-.602,1.169-.053.1-.687,1.301-.634,1.166-.602,1.075-.558,1.075-.398.779-.43.785-.345.677-.373.731-.926,1.752-.474.896-.229.424-.502.944-.088.189-.097.195-.1.189-.088.164-2.205,4.129-.116.225-.16.312-.138.262-.546,1.036-.169.313-.122.22-.135.29-.141.297-.16.356-.154.342-.191.475-.163.412-.151.402-.154.403-.207.628-.144.46-.132.454-.229.819-.157.562-.135.477-.132.484-.069.216-.028.131-.141.501-.135.459-.066.237-.085.317-.132.493-.038.066-.044.103-.025.183-.245.684-.229.525-.715,1.786-.392.925-.493,1.153-.882,2.087-.944,2.215-1.826,4.306-.474,1.286-.405.922-.198.464-.286.653-.257.618-.179.442-.138.306-.188.476-.307.712-.395.792-.389.908-.304.755-.251.64-.276.736-.248.719-.082.249-.141.448-.263.837" vector-effect="none" fill="#bababa" fill-rule="evenodd" stroke="#232323" stroke-linecap="square" stroke-linejoin="bevel" stroke-width=".737"/>
    <path d="M714.758,325.261l-.066,3.528-.339-.008v.042l.013.042-.019.034-.006.051.025.043v.059l-.028.072-.006.043.056.055-.035.11.022.102-.028.055.006.042-.028.068.022.091v.204l-.012.106-.003.119.028.115-.013.115.006.077-.047.098-.013.11.013.119-.019.115-.047.348-.009.134.022.064-.006.081.028.098-.022.089.025.144-.05.047.038.064-.034.077-.016.072.041.055-.003.085-.009.2.025.11.031.136-.072.14-.069.17.458.008-.016.883-.006.215-.003.151-.013.198-.006.144-.166,2.723-.147,2.028-.075.784-.088,1.018-.157,1.418-.126.974-.169,1.215-.248,2.17-.063,1.299-.028.606-.075,1.502.006,1.39.361,1.914.053.104.176,1.124.044.304,1.619,4.016.674,1.072.201.311.216.308.028.041.26.451.439.593.875,1.21.696.965,2.447,3.428.141.177.06.088.022.084.053.032.05.06.066.133.053.053.248.386.103.156.317.47.094.168.038.07.047.088.069.13.116.2.019.045.147.254.003.039.05.07.069.13.072.128.235.416.063.137.26.451.019.056.041.056.025.06.141.246.019.06.063.088.11.207v.035l.088.137.289.507.107.203.151.277.06.109.072.126.085.196.05.109.204.466.022.035.358.807.138.282.113.346-.016.024-.188.32.1.251.078.211.21.457.06.13.298.645.273.839.336.99.163.481.191.556.05.174.238.724.069.275.085.392.078.466.194.859.257.131.242.122.025.422.016.283.016.247.022.222.025.237.041.411.094,1.114.047.527.104,1.2-.05,1.512-.069,2.08-.075,2.485-.185,5.694-.053.257-.646,3.203-.082.163-.643,1.151-.439.806-.182.333-.373.659.094.078-.025.05.119.069-.066.132-.16-.069-.038.078-.044-.009-.063.116.05.035-.43.794-.11-.047-.257.458-.646.464-2.005,1.427-.907.64-.668.483-.389.279-.238.176-.389.292-.198.147-.787.584-.458.311-.085.06-.386.26-.593.449-.662.514-.405.307-.072.056-.618.477-.703.659-.461.427-.527.499-.583.536-.198.188-.489.445-.662.574-.91.816-.157.141-.185.169-.276.292.006.009.216.207-.8.791-.207-.21-.844.853-.558,1.01-.853,1.537-1.079,1.951-1.064,1.901.025.028-.082.151.025.078.166.094,2.528,1.415.038.041.003.044-.264.48-.025.019h-.047l-2.623-1.418-.229.656-.486,1.427-.057.16-.383,1.126-.245.722-.151.458-.025.063-.132.392-.094.27-.125.361-.376.803.006.031-.041.05-.034.091-.417.941-.05.072-.176.26-.147.216-.85,1.255-2.102,3.131-1.616,2.406-.025.009-.022.009-.031.028-.078.044-.025.035-.06.044-.06.041-.072.044-.1.075-.066.05-.035.013-.072.056-.041.031-.147.104-.1.063-.104.078-.05.028-.063.053-.041.031-.082.056-.276.191-.264.185-.232.169-.05.044-.088.05-.025.028-.097.063-.144.1-.125.088h-.013l-.078.05-.056.038-.06.038-.122.078-.562.348-.176.1-.072.047-.075.053-.103.063-.791.514-.229.154-.43.295-.521.354-.464.317-.474.326-.392.27-.223.154-.126.088-.1.078-.298.276-.091.085-.201.185-.311.285-.251.229-.194.176-.235.22-.286.26-.135.132-.125.16-.1.16-.088.151-.116.207-.107.198-.141.276-.129.229-.32.552.022.088-.075-.16-.179-.151-.37.508-.21-.113-.176-.11-.176-.107-.289-.185-1.716-.963-.22-.113-3.47-1.92-1.512-.838-1.867-1.032-2.18-1.214-2.698-1.5-1.609-.891-2.911-1.612-1.707-.944-1.067-.587-2.698-1.49-.681-.376-.251-.144-.317-.176-2.187-1.208-.856-.474-1.308-.725-4.665-2.607,1.431-2.554.514-.903.831-1.456,1.208-2.171,1.471-2.648,1.308-2.34.797-1.452.182-.326.348-.637,1.314-2.39,1.305-2.409,1.352-2.387,1.421-2.576,1.393-2.569,1.358-2.39,1.362-2.397.762-1.481.549-1.01.486-.869.803-1.456,1.374-2.463.301-.546.154-.273.151-.276.144-.26.593-1.067.085-.157.173-.311.135-.242.841-1.515.125-.229.141-.254.135-.248.888-1.597,1.478-2.678,1.427-2.577,1.324-2.39,1.321-2.392.844-1.539.464-.845-.32-.178-2.629-1.471-1.685-.941,1.349-2.381,1.339-2.422,1.336-2.362,1.302-2.378,1.681.924,1.785.98.875.48.295.162,1.415-2.557,1.421-2.563,1.311-2.376,1.318-2.364,1.321-2.374,1.314-2.373,1.311-2.388,1.377-2.466.791-1.425.307-.554.722-1.302.226-.407.295-.541.207-.373,1.496-2.569,1.365-2.591.182-.324,1.132-2.039,1.327-2.306.27-.536.245-.456.166-.307.687-1.282,2.547-4.576.681-1.447.53-1.068.631-1.394.311-.682.154-.352.188-.447.257-.655.345-.89.022,2.181.013,2.379-.044,2.431" vector-effect="none" fill="#bababa" fill-rule="evenodd" stroke="#232323" stroke-linecap="square" stroke-linejoin="bevel" stroke-width=".737"/>
    <path d="M750.854,384.821l.587,1.433.298.8.562.961.753,1.311.649.932.116.179,3.115,1.879.267.16.232.138.204.116.022.009.223.113,2.692,1.368.223.066,3.683,1.917.668.659,2.732,2.359,2.946,5.317,1.838,4.389.06,2.569-2.334,4.034-1.584,2.911-.624.643-.474.229-2.265,2.535.389.392-2.005,2.485-.621-.358-.078-.047-2.121,1.132-.819.502-.894.897-.376.414-.075.844.235.185-9.775,14.17-.298-.201-.565.935-.703,2.77-1.202,4.671-.615.809-2.736,2.598-.006.013-.141.257-.169.254-.333.1-.035.009-.182.147-.489.514-.558.289-.609.085-.511.025-.229-.104-.041-.019-.254-.097h-.427l-.951.373-4.103,3.743-.54.392-.637.154-.173.041-.267.097-.264.094-.907.267-1.133-.336-1.97-1.528-3.291-2.535-.947-.7-1.202-.514-4.681-1.126-6.804-1.186-1.107-1.474-1.18-1.202-.489-.882-.257-1.048.05-1.123.144-.618.245-.502.361-1.703.085-.728.147-.894,7.466-11.532,1.249-1.782.85-2.064.464.097.392-.53,1.816-2.456,1.835-1.951.323.138,2.732-1.471.176-.094.166.038,2.739,1.565.361-.088,1.509.546,2.023.044,1.305.085.329.091.408.113.722.157.474-.003.433-.141.122-.367-.009-.414-.06-.257-.009-.333.129-.326-.013-.336-.11-.336-.075-.226-.119-.511-.019-.276v-.364l-.323-.157-.492-.147-.304-.119-.06-.119.157-.147.681.072.383.116.631-.107.471.069.373.132.141.006.019-.129-.078-.157-1.625-.013-.75-.216-.58.038-.11.025-.204.044.107.367.179.157.176-.009.207.078.405.424.107.599-.041.976-.235.524-.179.333-.226.163-.395.044-.103-.022-.26-.056-.336-.041h-.216l-.276-.056-.148.069h-.216l-.216-.041-.188.041-.166.135h-.207l-.147-.009-.267.022-.38.063-.245-.05-.069-.091-.025-.119-.025-.11.047-.198.675-.979.238-.427.743-1.076.126-.094.129-.091.279-.524-1.926-.26-.574-.518-.772-.74-.207-2.008-.016-.235.003-.235.019-.232.038-.232.078-.226.088-.195,2.632-4.756.267-1.02.05-.188.42-1.236.135-.285.113-.292.094-.301.072-.307.05-.311.031-.314.006-.317.053-1.223.041-.954v-.066l-.179-1.735-.251-1.067-.232-.819-.195-.555-.489.125.022.088-.938.292-.103-.311.938-.298.047.116.474-.154-.041-.11-.176.031-.471-1.151-.107-1.572.615-3.027.988-3.498.053-.191.053-.201.082-.179.141-.185.317-.421-1.597-.935.386-.65.138.079-.295.522,1.456.848.323-.504-.546-.336.016-.03.035.016.012-.026.527.305.103-.156-.527-.303.383-.572-.847-.512.038-.098-.107-.069-.364.562-.148-.059.461-.719,1.089.698,1.816-3.406.16-.346.144-.335.223-.306.593-.553.631-.162,2.645.047,4.991.44,1.387.92.706.471,1.66,2.474" vector-effect="none" fill="#bababa" fill-rule="evenodd" stroke="#232323" stroke-linecap="square" stroke-linejoin="bevel" stroke-width=".737"/>
    <path d="M491.137,670.45l.345.078h.295l.32.016,2.196,2.074.932.969,1.198,1.098,1.951,1.829.21.198.778.728.649.574.48.483.819.769,3.852,3.608,1.117,1.129,1.744,1.631.238.304,1.716,1.487,2.042,1.901,1.208,1.132.731.684,1.911,1.801,2.07,1.926,1.402,1.311.37.348,2.143,2.02,1.669,1.572,1.863,1.776-.395.841-1.396,2.99-.599,1.311-1.277,2.39-.612,1.067.759.458.213,3.065.674.436-1.167,4.332-.028.116-.612.157-.141.038.006.116.056,4.957.025.295.044.292.06.289.082.286.097.279.116.273.132.263.151.254.163.248.182.232-.43.7-.402.693-.317.536-.282.471-.386.678-.285.458-.138.235-.395.681-.151.26.367.38,2.3,2.394.825.853.216.226.195.188.336.323.226.238.342.358.722.784.345.383.125.135.11.11.216.21.27.263-.188.126-.195.132-.163.144-.113.088-.113.085-.182.129.031.053.063.104-.138.107-.038-.003-.056-.088-.11-.163-.794.518-.188.125.009.031-.009.091-.025.107-.044.094-.072.056-.411.329-.276.22-.48.329-.442.292-.634.395-.226.141-.097.066-.878.631.16.232-.267.204-.025.019.016.022.191.27-.044.056.019.035-.022.019.003.028.558.803-1.223.9h-.003l.003.003,2.353,2.927-.731.59-1.763,1.452-1.741-2.049-.019-.022-.003.003-.173.141-.104.085-1.192-.634-.333.282.932,1.104-.154.113.094.107,1.195,1.384.003.025-.182.144-.405.329h-.038l-.43-.54v.022l-.251.238-.031.009-.166-.188.003-.025.257-.232.035-.003-2.71-3.172-.753.64-.141.119-.038.028-.546.452.496.584.226-.163.091.1-.226.163,2.899,3.426-.687.565-3.445-4.081-.822.703-.712.621-.737.609-.232.185-.775.649-.066.057-.141.119-.26.245-.907.781-.662.549-.373.323-.348-.402-.584.499-.264.223-.471.402.797.831.016.022.041.05,1.126,1.333.038.041.035.041.951,1.123.216.254-.125.11.063.072.1-.088.1.116.025-.025.358.405-.552.486-.019.003-.326-.38.035-.028-.019-.056.041-.057-.016-.047.028-.022-.006-.05.022-.019-.013-.034.154-.122-.063-.072-.342.304-.894-1.051-.304-.345-.433-.489-.361-.411-.279-.317-.1-.113-.157-.254-.025.016-.574-.678-.085-.104-.605.483-.656.53-.866.687-.022.025-.226.464-.116.248-.154.298-.747.596-1.173.944-2.171,1.754-.091.041-.43.163,1.71,3.008,2.736-1.553.477.834-2.739,1.556.543.95-.784.446-2.795-4.891-4.26,1.459-.361.013.213.668-.53.097.232.781.235-.078.147.411.031.16-.122.053.044.132.003.056h.041l.066.154-.009.031.063.176.066.06-.041.038.025.072.041.003.041.078-.047.028.016.06.035-.022.063.107-.053.044.085.226.066-.003.031.031v.044l-.063.069.078.195.044-.022.056.116-.053.038.342.834-.041.097-.047.025-.104-.144-.229-.674-.21-.631-.116-.386-.091-.251-.085-.235-.085-.22-.05-.116-.602.179.16.775.016.188-.035.072-.072.044-.075.009-.06-.019-.041-.075-.11-.32-.104-.282-.097-.254-.656.173.085.185.05.107.05.213.097.311.063.238-.013.078-.05.053-.135-.013-.072-.075-.066.009-.075-.198-.075-.154-.141-.361-.022-.075-.041-.166-.016-.034-.398.129-.276.088.003.066.047.245.088.27.179.574.21.577.138.455-.216.213-.088.05-.226-.041-.141-.144-.113-.216-.088-.26-.041-.082-.188-.336-.053-.166-.182-.467-.129-.336-.085-.169-.584.188.009.226.104.577.072.411.038.257.003.129-.078.06-.207.1-.1-.025-.094-.119-.157-.276-.176-.308-.113-.201-.091-.21-.044-.129-.066-.21-.013-.1-.27.028-.307.031-.009.135v.427l.05.518.044.458.157.841.038.245-.028.094-.066.072-.201.003-.078-.113-.038-.157-.041-.329-.028-.329-.025-.326-.044-.518-.019-.135-.044-.223-.147-.621-.615.072.016.458-.006.358-.06.332-.085.257-.157.11-.069-.019-.185-.157.035-.041.056-.097.091-.317.119.05.025-.238.082-.009.009-.053-.091.003.003-.213.091-.025-.006-.035-.091.009.009-.226.104-.009.003-.072-.166.013-.016-.169.094-.006-.069-.533.195-.025-.141-1.101-1.139-.195-.405,1.669-.038.157.038.009-.107.439-.025-.009-.035.285-.075.226-.132.568-.26-.038v-.047l.383-1.55.038.009.038-.147-.395-.254-.038.047.016.009-.056.069-.006-.003-.144.251-.232.377-.323.524-.044-.028-.028.031.006.094-.147.329-.11-.05.013-.11.038-.013.132-.254v-.053l.163-.226.169-.235.003-.038.022-.025.019-.003.201-.339.035-.047.006-.025.207-.348-.925-.593-.235.392-.138.191-.116.204-.138.21-.204.289-.201.279-.201.332-.085-.06.179-.329.038.006.044-.072.044.006.072-.11-.019-.019.075-.091.016-.044.056-.034.019-.041-.019-.019-.038.028-.016-.003.163-.213.191-.307.27-.43.069-.097.085-.135-.398-.263-.05.034-.558-.37-.351.568-1.55-1.572-.336-.345-.339-.436-.596-.646-.066-.056-.304-.408-.427-.552-.358-.455-.05-.072-.828-1.148-.226-.317-.311-.505-.386-.599-.022.025-.311-.496.019-.013-.022-.028-.116-.157-.072-.119-.232-.383-.119-.223-.157-.295-.135-.307-.1-.273-.063-.204-.056-.235h-.028l-.063-.273-.038-.21-.022-.157-.298.028.013.147-.323.025-.019-.166-.016-.163.329-.028.016.132.289-.031-.035-.398.031-.003-.013-.223.009-.245.022-.248.025-.125.041-.213-.028-.038-.003-.041.031-.05.028-.009.022.006.163-.612-.649-.195-.179.596.304.091-.119.395-.075.05-.056-.097.085-.263-.301-.085-.088.311-.035-.009.32-1.013-1.747.301-.612-1.013,3.307-.577.104-.329-.147-.012-.047.025-.028-.006-.035.013-.009-.022.019-.012-.091-.05-.104.022-.122-.006-.031.025-.091-.022-.044.031-.047-.016-.044.013-.006.028-.047-.022-.041.012-.025.019-.066-.009-.031.013-.179.038-.025-.028-.091.013-.006.028-.072.003-.028.025-.031-.022-.025-.012-.028.044-.047-.028-.056.066-.031-.003-.031-.025-.138.314-2.171-.634-.072-.035-.11-.172-1.205-4.932-.003-.091.348-1.823.289-1.531.06-.094.031-.016.075-.038.094.003.232.063.022-.078.022-.063.031-.038.05-.078.072-.082.072-.057.088-.056.097-.047.1-.038.1-.022.107.003.1.006.072.006.144.06.097.063-.069.103-.107-.056-.078-.031-.028-.009-.009.091-.113-.009-.1.009-.085.006-.035.016.038.1-.072.022-.056.044-.075.063-.053.078-.028.047-.003.047.11.016.038-.06.066-.057.097-.041.053.003.082-.016.047-.028.091.003.056.025.044.053.022.031.006.053.035.06.035.034.022.044.006.069.016.053.044-.006.041-.041.013-.122.361-1.167.546-1.845.003-.035.075-.267-1.346-.389.025-.088-.445-.129-.091-.072-.006-.009-.056-.075-.003-.097.314-1.65.333-1.75.474-2.469.367-1.967.226-1.151.345-1.823.1-.536.185-1.198.198-1.569.163-1.076.141-1.048.298-1.976.05-.053.063-.003.031.016-.003.232-.229,1.669,3.407.715.229-1.136-.138-.351-.075-.386v-.405l.078-.402.104-.257.044-.1.185-.282.248-.267.207-1.173-.64-.125-1.07-.21-1.939-.376-.216,1.653-.047.348-.006.013-.006.009-.013.009-.009.009-.013.006-.016.003h-.028l-.013-.003-.009-.006-.013-.006-.009-.006-.009-.009-.006-.013-.006-.009.053-.376.257-1.848.235-1.685.37-2.701.075-.511.003-.013.163-1.18.179-1.286.414-2.965.402-2.886.348-2.497.442-3.187.047-.094.1-.063h.085l1.976.342.009-.05.797.132-.006.063.348.063,1.594.276.013-.091.019-.132.019-.063.038-.044.072-.031.703.107,4.31.762.42-2.309-.013-.06.122-.734.053-.333.163-1.032-.006-.041.141-.891-1.581-.254.119-.831-1.681-.251-.016.072-.765-.107-.006.031-3.783-.596v-.041l-.405-.066.003-.122-1.929-.279.213-1.333,5.236.813,2.83.452,1.503.235.298-2.036-8.097-1.289.207-1.28,7.128,1.101.129-.834-.398-.063-.022.069-1.082-.169.056-.267.157.022.003.031.885.11-.009.06.424.069.025-.169,1.634.195.138-1.051.348-2.315.408-2.544.392-2.475.38-2.372.436-2.845.461-3.002.003-.019-.885-.402-1.032-.213-5.211-.693-1.92-.251-1.114-.147-.119-.16.047-.339.05-.486,9.882,1.481.508.072.32.417.511.405.436.536" vector-effect="none" fill="#bababa" fill-rule="evenodd" stroke="#232323" stroke-linecap="square" stroke-linejoin="bevel" stroke-width=".737"/>
    <path d="M474.893,794.003l3.89,1.054.141-.602-.157-.053.06-.226.621.16-.044.22-.188-.031-.16.609.144.038.386-.533-.113-.075.107-.179.235.169.301.223-.119.132-.16-.122-.336.467,2.707.734,2.152,2.604.019.025.022.022.025.019.025.013.031.009.031.003h.031l.028-.006,2.61-.712-.056-.135.329-.587.022-.047.028-.041.053-.066.066-.057.075-.044.078-.031.518-.144h.003l.041-.013.173.028.565.32h0l.107.147.038.132.044.151.094.329.003.006v.003l-.022.198-.223.398-.009.022-.003.003-.075.132-.11.103-.025.006-.166.047-.483.138h-.003l-.019.006-.016.003-.151-.025-.358-.176-.104-.066-.088-.056-.053-.044-.06-.075-.094-.223-.226.06-.056.016-.778.204-1.145.304-.053.016-.019.003-.107.028-.053.016-.022.013-.022.016-.016.012-.006.009-.006.009-.006.013-.006.016-.006.028-.003.016.003.016v.013l.006.013.022.047.025.047.119.141.025.031.006.006.025.035.201-.157.794,1.016-.044.056.195.279-.107.097.006.006.056.072.028.035.144.179.179.091.298.295.075-.038.047.169.072-.022v-.05l.113-.031-.028-.119.066-.022.038.122,1.405-.405.047.169-1.678.474.201.715.998.038-.009.22,1.045.053-.006.201-1.063-.066v.031l-.044.872.364.041.006.078.085.082.157-.044.031-.085.047.006-.041.279-.022.179.038.169-.201-.016-.019.213-.122.028-.025.066h-.06l-.041.286-.257-.028-.22,4.496-1.148,1.863-.151.267-1.202,2.152-.276.122-.188.113-.257.154-.157.154-4.078,2.883-3.379-.32-.147.091-1.22.74-1.34.806-.198.119.966,1.641.201.11,4.332-.411.009.141.003.053.009.138-4.276.445-.157.057-.311-.166.022-.191-1.007-1.691-8.793,5.302-1.12.674.973,1.669.129.003,2.039-1.223.176.254-4.502,2.676-.163-.263,2.086-1.258.031-.094-.969-1.641-1.302.756-2.252,1.311-1.164.678.169.267-.019.013.204.355-.053.028-.204-.354-.138.072.207.351-.044.031-.207-.345-.025.009-.053-.088-.085.044-.031-.047.085-.053-.078-.122-.179.104-.568.339,1.333,2.256-2.676,3.234-.402-.317,2.397-2.965-1.133-1.92-.747.445-.342.163-.354.147-.408.169-.05.019-.367.126-.696.129-.48.075-.775.019-.627-.038-.627-.094-.558-.132-.439-.147-.646-.16-.731-.226-.59-.317-.615-.533-.471-.524-.229-.301-.307-.408-.295-.386-.307-.571-.226-.596-.169-.505-.091-.514-.056-.571.019-.486.038-.411.11-.543.216-.571.204-.458.144-.213.182-.242.27-.342.132-.169.314-.386.819-1.004.59-.772.558-.643.577-.721.097-.119.493-.599.072-.088.612-.831.536-.678.307-.364.342-.402.047-.053.37-.436.22-.279.427-.552.009-.009.458-.565.395-.486.402-.471.42-.508.743-.935,1.302-1.606.345-.414.364-.433.549-.693,1.016-1.224,1.17-1.459.056-.072.762-.982.678-.838.753-.976.009-.013.731-.888.75-.822,1.01-3.319.173-.515.009-.019.075-.132.1-.125.116-.113.132-.097.144-.075.154-.053.053-.016.264-.053.267-.031.267-.003.267.022.427.019.424.006h.198l1.754-.141.671-.053,1.741-.141,1.772-.141" vector-effect="none" fill="#bababa" fill-rule="evenodd" stroke="#232323" stroke-linecap="square" stroke-linejoin="bevel" stroke-width=".737"/>
    <path d="M396.311,805.983l1.076,1.904,2.23-1.38-.141-.27.232-.129.436.731-.248.132-.157-.26-2.243,1.368-.141,1.697-.361,1.616-.969.7-1.189.251-1.154-.301-4.32-2.789-1.525-2.381-1.951,1.299-.734-1.154.417-.257.449.681,1.562-.969-.894-1.393.26-.173-.016-.706-.195-.348-.035-.063-.05-.103-.038-.11-.019-.116v-.116l.019-.113.038-.113.053-.1.069-.094.085-.075.097-.06.1-.044.11-.028.11-.016,2.39-.182.072-.094.151.009.147.022.144.035.198.088.191.1,3.63,1.838,2.111,1.468" vector-effect="none" fill="#bababa" fill-rule="evenodd" stroke="#232323" stroke-linecap="square" stroke-linejoin="bevel" stroke-width=".737"/>
    <path d="M406.473,768.178l.22.063.22-.031h.282l.188.063.157.125.22.126.157.125.157.157.157.031.188.031.157.126.094.125.188.094.188.157.157.125.188.094.157.063.188.094.251.063.188.031h.376l.157.063.157.188.157.188.125.251.063.22v.22l.063.251.094.157.188.126.251.157.125.251.031.125.031.22.031.188v.22l.031.251v.094l.031.125.094.157.031.125.094.157v.126l-.094.125h-.063l-.094-.031-.094-.031-.094-.031-.094-.063h-.125l-.094.157-.22.063-.314.094-.22.031-.251.031-.251.063h-.282l-.188-.031-.125-.063-.188-.157-.157-.188-.125-.125-.157-.157-.094-.063h-.157l-.22.031-.094.094-.157.188-.596.565-.941-1.004.439-.439.251.094.125.031.125.063.157-.031.125-.063.125-.126v-.094l-.063-.157-.125-.125-.157-.157-.157-.125-.157-.126-.125-.031-.094-.031-.188-.094-.094-.125-.031-.126v-.063l-.157-.188-.125-.094-.094-.063-.094-.063-.125-.031-.063-.094-.031-.094-.063-.188-.031-.157-.031-.094v-.094l-.063-.094-.063-.125-.125-.126-.063-.063-.031-.125-.063-.157v-.157l-.031-.157-.063-.157-.031-.157-.094-.22-.031-.188-.063-.188-.031-.22v-.125l.031-.157.094-.031.125-.031.157.031.188.094.157.063.125.094.188.063h0" vector-effect="none" fill="#bababa" fill-rule="evenodd" stroke="#232323" stroke-linecap="square" stroke-linejoin="bevel" stroke-width=".737"/>
    <path d="M555.875,639.433l3.495,1.936,1.132.627,6.472,3.586,4.009,2.202.27.151.731.405.725.395,1.18.649.254.132,1.619.838.703.367,3.84,2.114,1.214.687,2.353,1.336,3.131,1.816,1.415.787,1.835,1.02,2.049,1.126,1.114.54.417.216,6.861,3.937,3.614,2.08.213.191.185.151.16.122.176.173.489.323-.122.897-.075.574-.066.455-.056.467-.085.631-.019.047-.05.028-.072-.003-.125.882-.041.304-.031.298-.075.511-.066.433-.019.072-.063.449-.125.756-.091.596-.085.477-.016.088-.028.147-.006.113-.041.169-.169.963-.028.144-.147.769-.047.317-.091.505-.176.954-.104.577-.11.621-.32,1.719-1.098,6.121-.279,1.591-.298,1.584-.32,1.584-.339,1.578-.358,1.575-.376,1.569-.489,1.911-.511,1.907-.53,1.901-.552,1.895-.574,1.889-.596,1.882-.615,1.876-.637,1.87-.06.16-.041.104-.072.185-.072.207-.035.097-.06.173h0l-1.612,4.564.025.031-.502,1.449-.235.706-.213.546-.122.154-.42,1.148-.342.797-.22.42-.132.245-.467.756-.307.442-.499.618-.191.226-.48.489-.882.86-.562.505-.289.248-.229.173-.279.147-.242.11-.295.097-.213.034-.336.031-.709.06-.464.041-1.195.11-.053.003-.238.022-2.161.188-.715.063-.154.013.016.273-.518.047-2.249.217.119,1.49-5.255.681-1.685.213-2.472.314-5.509.696-5.06.637-.025.041-.681.085-.163-.028-.097-.082-.05-.078-.405-2.801-.025-.019-.063-.009-.085-.034-.06-.069-.056-.091-.176.016-.292.047-1.33.204-.298.044-.329.056-.496.097-1.195.223-1.032.216-.794.166-.809.125-.819.138-1.016.21-.191.041-.398.113-.386.031-.151.031-.166.038-.615.132-1.412.314-2.582.518-.775.031-.386.016-.687.154-.58.235-1.729.37-2.441.449-1.87.339-1.791.364-2.318.844-.587.304-.7.373-.097.063-.464.295-.094.053-.157.088-.038.094-.173.147-.298.169-.201.229-.235.191-.173.132-.27-.263-.216-.21-.11-.11-.125-.135-.345-.383-.722-.784-.342-.358-.226-.238-.336-.323-.195-.188-.216-.226-.825-.853-2.3-2.394-.367-.38.151-.26.395-.681.138-.235.285-.458.386-.678.282-.471.317-.536.402-.693.43-.7-.182-.232-.163-.248-.151-.254-.132-.263-.116-.273-.097-.279-.082-.286-.06-.289-.044-.292-.025-.295-.056-4.957-.006-.116.141-.038.612-.157.028-.116,1.167-4.332-.674-.436-.213-3.065-.759-.458.612-1.067,1.277-2.39.599-1.311,1.396-2.99.395-.841,2.092,1.716,2.394,1.089,2.256,1.038,2.679,1.176.722-1.572,1.101-2.416,1.798-4.483,1.183-3.805.477-1.5.191-.609.276-.882.091-.295.59-1.945.119-.402.778-2.648.48-1.7.066-.232.229-.813.486-1.772,1.33-4.706.085-.301.066-.248.731-2.682.326-1.242.445-1.569.772-2.842.452-1.681.204-.765.044-.226.474-1.537.104-.226.345-.643-.185-.11.198-1.208.251-1.961.489-2.312.546-2.092.173-.508.637-2.61.333-2.754.514-2.692.285-1.537.035-.173.195-1.173.48-2.943-.1-3.454,3.081,1.691.173.094" vector-effect="none" fill="#bababa" fill-rule="evenodd" stroke="#232323" stroke-linecap="square" stroke-linejoin="bevel" stroke-width=".737"/>
  </g>
  <path d="M696.406,272.536l1.49.822-.116.063-.107.078-.097.093-.082.104-.069.115-.05.123-.003.079.003.079.016.078.022.076.104.211.088.219.069.226.05.231.031.234.013.236-.006.236-.025.235-.044.232-.063.227-.508.945-.885,1.599-3.852,6.978-2.619,4.749-4.041,7.327,2.657,1.472-.9,1.292-.781,1.117-1.572,2.193-1.597,2.245-1.609,2.219-2.654-1.46-.938,2.631-.91,2.58-.916,2.61-.903,2.563-.916,2.586-.985,2.812-1.004,2.825-.925,2.596-.471,1.277-.518,1.26-.565,1.241-.612,1.218-.609,1.115h0s-.653,1.091-.653,1.091l-1.409,2.438-1.669,2.224-.157.204-1.512,1.956-1.719,2.15-1.415,2.579-1.409,2.555-.571.816-.866,1.534-4.022-2.235-1.34,2.419-1.311,2.386-1.33,2.394-.072.13-.235.42-.082.149-.941,1.69-1.33,2.396-.056.101-1.189,2.146-.072.132-1.352,2.597-.11.271-.082.28-.06.286-.035.29-.009.292.019.292.091,1.693.035.728.022.479.094,1.912-.132,2.998-1.271,2.423-1.327,2.383-1.44,2.616-4.141-2.449-8.05-4.455-1.393-.77-3.134-1.733-.402-.222-1.358-.752-.405-.225-1.22-.677-.301-.17-.295-.149-3.601-1.81-1.292-.565-.185-.081-.138-.066-3.413-1.633-2.62-1.254-.204-.103-.226-.106-.42-.219-.348-.18,1.857-3.175.725-1.185.957-1.633.317-.611.618-1.028,1.292-2.325.063-.091.502-.764.185-.461.549-.804.304-.417.038-.275.232-.661.113-.287.536-1.022.248-.393.107-.156-.044-.143.496-.973.223-.386.006-.162.248-.467.213-.256.05-.206.104-.237.138-.131v-.174l.22-.542.411-.947.784-1.39.257-.505.113-.106.229-.542.119-.318.383-.792.336-.654.298-.499.398-.717.329-.63.348-.673.147-.181.646-1.284.264-.486.386-.648.486-.945v-.002l.411-.731.693-1.278.035-.168,2.227-4.541.53-.986,2.13-3.473.8-1.031.119-.194,1.057-1.379,1.989-2.732.439-.655,1.619-2.421,1.07-1.586,1.446-2.154,1.296-1.925.533.323,1.227-2.121.185-.347.125-.185.439-.662-.223-.148-.16-.106-.113.174-.358-.237.806-1.214.329.219-.584.898.166.108.254.164.781-1.189-.354-.193.254-.401.314-.498-.634-2.162-.104-.137-.329-.172-.336.64-1.967-1.08.885-1.612,1.961,1.076-.358.648.383.21.144.136.082.172.543,1.852.016.053.345.231.944-1.672.091-.666.11-.278.16-.305.392-.621-.838-.432.066-.13.182-.376-2.955-1.639-.05-.028-.74-.392-.075-.033-.053-.029-.041-.031-.019-.017-.016-.018-.063-.089-.022-.039-.013-.037-.006-.022v-.009l.031-.143-.063-.033,1.198-2.374.361-.71.056.029,4.502-8.952.514-1.023.897.444,1.823-3.592.339.163-.009.016-.06.103,3.426,1.736.988-1.922.449.216.223-.429h0s.069-.124.069-.124l.232-.424.254-.452.163-.27.135-.203.094-.124.22-.262.082-.108.035-.048.1-.154.091-.159,1.048-1.95,1.776-3.778,2.281-4.517.787-1.304.301-.779.442-.581.298-.599.681-1.314.361-.607.129-.55.276-.529.031-.381.094-.45.16-.544.254-.573.166-.305.232-.297.132-.225.326-.522.16-.37.085-.225.104-.37.085-.167.226-.312.16-.341.21-.174.722-.51.307-.085.229.012.198.025.195.057.191.057.066.033.395.198.637.562.838.552,1.816.76,6.798,4.026.295.156.301.167,7.921,4.384,4.659,2.573.847.472,2.108,1.174.593.326" vector-effect="none" fill="#003379" fill-rule="evenodd" stroke="#232323" stroke-linecap="square" stroke-linejoin="bevel" stroke-width=".737"/>
  <g>
    <path d="M580.169,269.428c-.882,23.931,13.883,39.08,36.583,42.935" fill="none" stroke="#000" stroke-linecap="round" stroke-linejoin="round" stroke-width="2"/>
    <path d="M628.791,313.337c-5.85,1.574-13.199,4.504-17.9,7.893l4.304-9.154-2.548-9.787c3.998,4.196,10.683,8.426,16.144,11.047Z"/>
  </g>
<style>
#g-neighborhoods-desktop-manhattan-img rect, #g-neighborhoods-desktop-manhattan-img circle, #g-neighborhoods-desktop-manhattan-img path, #g-neighborhoods-desktop-manhattan-img line, #g-neighborhoods-desktop-manhattan-img polyline, #g-neighborhoods-desktop-manhattan-img polygon { vector-effect: non-scaling-stroke; }
</style>
</svg>
