<?xml version="1.0" encoding="UTF-8"?>
<svg id="g-neighborhoods-desktop-morningside-img" xmlns="http://www.w3.org/2000/svg" baseProfile="tiny" version="1.2" viewBox="0 0 1200 900">
  <!-- Generator: Adobe Illustrator 29.1.0, SVG Export Plug-In . SVG Version: 2.1.0 Build 142)  -->
  <path id="morningside" d="M602.793,540.158l-11.59-6.419-4.308-2.422-9.028-13.461-4.045-6.232-4.431,7.977-6.563-9.566-.254-.39-.5-.754-5.291-7.955-2.983-4.484-.219-.334-.544-.832-.5-.687-.307-.433-8.827-12.792-9.59-5.313-2.676-1.459-2.957-1.789-1.5-.97-.491-.316-.412-.283-1.053-.596-.649-.255-1.053-.412-5.528,7.59-2.93,3.831-.342.54-2.22,2.864-5.914,9.648-1.474,2.738-6.177,12.613-.105.466-1.921,3.55-1.141,2.029v.007l-1.36,2.625-1.07,1.8-.728,1.351-1.79,3.567-.421.503-.956,1.87-.913,1.749-1.106,1.992-.833,1.385-.93,1.818-1.07,2.199-.325.883-.64,1.506-.307.295-.719,1.402-2.176,3.861-1.141,2.632-.614,1.506v.484l-.377.364-.298.658-.14.571-.588.71-.684,1.299-.018.45-.623,1.074-1.378,2.701.123.398-.29.433-.693,1.091-1.492,2.839-.307.797-.649,1.835-.105.763-.842,1.158-1.527,2.234-.518,1.282-1.395,2.121-.167.252-3.597,6.458-1.711,2.857-.886,1.696-2.65,4.536-2.018,3.292-5.159,8.819.965.498,1.176.608.623.296.562.286,7.282,3.483,9.476,4.537.386.183.518.225,3.589,1.569,10.002,5.029.816.412.834.474,3.396,1.881,1.123.624,3.782,2.09,1.106.616,8.713,4.813,3.86,2.139,22.365,12.374,11.494,6.801,4.01-7.267,3.685-6.618,3.527-6.731.36-8.326-.254-5.311-.061-1.328-.105-2.023-.246-4.704-.044-1.217.114-1.212.272-1.186.43-1.141,3.747-7.211.211-.368,3.299-5.963.149-.28,3.694-6.655,2.615-4.694.237-.415.649-1.167.202-.36,3.694-6.649,3.641-6.628,3.72-6.718,11.169,6.208,2.404-4.26,1.588-2.267,3.913-7.097,3.931-7.163" vector-effect="none" fill="#618acf" fill-rule="evenodd" stroke="#232323" stroke-linecap="square" stroke-linejoin="bevel" stroke-width=".737"/>
  <g>
    <path d="M419.535,487.064c30.694,22.221,21.818,15.763,48.496,35.093" fill="none" stroke="#000" stroke-linecap="round" stroke-linejoin="round" stroke-width="2"/>
    <path d="M477.807,529.241c-5.836-1.625-13.653-2.845-19.424-2.323l8.365-5.686,2.791-9.72c1.304,5.647,4.903,12.692,8.268,17.729Z"/>
  </g>
<style>
#g-neighborhoods-desktop-morningside-img rect, #g-neighborhoods-desktop-morningside-img circle, #g-neighborhoods-desktop-morningside-img path, #g-neighborhoods-desktop-morningside-img line, #g-neighborhoods-desktop-morningside-img polyline, #g-neighborhoods-desktop-morningside-img polygon { vector-effect: non-scaling-stroke; }
</style>
</svg>
