<?xml version="1.0" encoding="UTF-8"?>
<svg id="g-neighborhoods-mobile-manhattanville-img" xmlns="http://www.w3.org/2000/svg" baseProfile="tiny" version="1.2" viewBox="0 0 300 430.431">
  <!-- Generator: Adobe Illustrator 29.1.0, SVG Export Plug-In . SVG Version: 2.1.0 Build 142)  -->
  <path id="manhattanville" d="M176.372,209.748l-1.046,2.934-1.015,2.878-1.022,2.912-1.008,2.858-1.022,2.885-1.096,3.137-1.124,3.151-1.032,2.896-.525,1.424-.574,1.406-.631,1.384-.68,1.359-.684,1.243h0v.002l-.726,1.216-1.571,2.72-1.864,2.481-.173.227-1.684,2.182-1.92,2.398-4.654-2.578-1.73-.972-3.626-5.406-1.624-2.503-1.779,3.203-2.635-3.842-.102-.157-.201-.303-2.125-3.195-1.198-1.801-.088-.134-.218-.334-.201-.276-.123-.174-3.545-5.137-3.851-2.133-1.075-.586-1.187-.718-.602-.39-.197-.127-.166-.114-.423-.239-.261-.103-.423-.166.49-.731,1.807-2.7,1.191-1.769,1.614-2.403,1.445-2.147.595.361,1.367-2.366.208-.387.137-.207.49-.739-.247-.165-.176-.118-.13.194-.398-.265.898-1.354.37.244-.652,1.002.187.121.282.183.874-1.326-.398-.216.282-.447.352-.555-.705-2.412-.12-.153-.363-.192-.377.713-2.195-1.205.99-1.798,2.185,1.2-.398.724.426.234.162.152.092.192.606,2.065.018.06.381.257,1.053-1.865.106-.743.12-.31.18-.341.437-.692-.934-.481.07-.146.204-.419-3.294-1.828-.056-.031-.828-.438-.081-.037-.06-.032-.049-.035-.018-.019-.018-.019-.07-.099-.025-.043-.014-.042-.007-.024v-.01l.035-.16-.07-.037,1.339-2.648,5.577,4.429.61.202.226.051.222.052.821.154,1.011.19.564.118,1.839.797.127.055.109.063,6.215,3.468.317.174.317.177,2.139,1.183,6.712,3.685,1.455-2.622,1.466-2.661,4.457,2.479,1.473-2.634,2.724,1.501,3.742,2.081" vector-effect="none" fill="#1257cc" fill-rule="evenodd" stroke="#232323" stroke-linecap="square" stroke-linejoin="bevel" stroke-width=".25"/>
  <g>
    <path d="M105.351,194.866c11.94,8.645,8.969,6.481,18.511,13.394" fill="none" stroke="#000" stroke-linecap="round" stroke-linejoin="round"/>
    <path d="M128.751,211.803c-2.918-.812-6.826-1.422-9.712-1.161l4.183-2.843,1.396-4.86c.652,2.823,2.451,6.346,4.134,8.864Z"/>
  </g>
<style>
#g-neighborhoods-mobile-manhattanville-img rect, #g-neighborhoods-mobile-manhattanville-img circle, #g-neighborhoods-mobile-manhattanville-img path, #g-neighborhoods-mobile-manhattanville-img line, #g-neighborhoods-mobile-manhattanville-img polyline, #g-neighborhoods-mobile-manhattanville-img polygon { vector-effect: non-scaling-stroke; }
</style>
</svg>
