<?xml version="1.0" encoding="UTF-8"?>
<svg id="g-neighborhoods-mobile-cb9-img" xmlns="http://www.w3.org/2000/svg" baseProfile="tiny" version="1.2" viewBox="0 0 300 430.431">
  <!-- Generator: Adobe Illustrator 29.1.0, SVG Export Plug-In . SVG Version: 2.1.0 Build 142)  -->
  <g>
    <g>
      <path d="M101.6,307.601l.039-.255-.174-.028-.132-.019-.171-.033-.382-.061-.048.294.005.025-.17.925-1.73-.305-.281-.042-.029.011-.015.019-.008.024-.008.053-.005.035-.639-.11-.139-.024.003-.027-.319-.053-.004.022-.793-.137h-.034s-.041.025-.041.025l-.019.037-.177,1.279-.139,1.001-.161,1.158-.166,1.19-.072.516-.066.474v.004l-.03.207-.15,1.082-.094.677-.104.74-.02.152.027.022.037-.02.018-.141.087-.663.777.151.43.085.257.051-.084.47-.099.108-.075.113-.016.041-.042.103-.032.161v.162l.03.156.056.141-.093.455-1.366-.286.091-.671v-.093s-.011-.006-.011-.006h-.025s-.02.022-.02.022l-.119.793-.057.421-.066.432-.079.629-.075.482-.039.214-.139.733-.09.463-.148.788-.189.99-.134.703-.125.662v.038s.024.03.024.03l.003.005.037.028.179.052-.01.035.54.156-.03.108v.014s-.221.739-.221.739l-.144.469-.005.049-.016.015-.018.003-.006-.022-.003-.027-.009-.018-.014-.015-.013-.023-.003-.022-.009-.013-.019-.022-.023-.01h-.035s-.019.01-.019.01l-.032.006h-.023s-.039.015-.039.015l-.027.023-.014.024-.044-.006v-.019s.011-.018.011-.018l.022-.033.03-.025.024-.018.028-.008-.014-.041.013-.006.034-.003.041-.004.044.004.005-.037.011.004.032.013.042.023.028-.042-.039-.025-.058-.024-.029-.003h-.039s-.042-.003-.042-.003l-.041.008-.042.016-.038.018-.035.024-.029.022-.028.033-.02.03-.013.015-.01.025-.009.032-.093-.024h-.038s-.029.013-.029.013l-.013.006-.024.038-.115.615-.141.731v.035s.484,1.98.484,1.98l.044.068.029.014.871.255.056-.125.013.009.013.003.023-.027.018.011.011-.018.011.004.011.01.011-.01h.029s.003-.013.003-.013l.037-.005.01.011.071-.015.014-.005.025.004.01-.008.016-.006.019.01.003-.011.018-.005.019.006.018-.013.037.009.013-.01.048.003.042-.009.037.02-.009.005.005.008.014-.004.011.003.019-.011.06.006-.042.132-1.327.232.246.407.7-.122-.128.407.014.004.035-.124.12.034-.034.106.024.037.03-.019.047-.16-.122-.035.071-.238.26.077.511-.151.332-.537.087.004h.082s.072-.001.072-.001l.01-.169v-.085s.125-.001.125-.001l.169-.058.093.058.104-.006.399-.044h.238l.302.051.139.03.125.033.231.07.089.024.265.076.345.137.094.014.035.091.005.098-.16,1.261-.044.684.034.17.054.164.076.155.096.143.431.507.018.257.011.136-.019.072-.067.03-.065.028-.049.051-.011.016-.023.065.037.679.191.343.077.162.029.103.018.095-.734-.095.45.217.458.077.056.442-.077.01.028.214-.038.003.005.068.067-.005v.028l-.043.005-.004.09.037-.004.003.014-.035.01v.086s.034-.001.034-.001l-.003.022-.033.003-.01.096-.048-.02-.037.128-.023.038-.014.016.075.063.028.008.062-.044.034-.104.024-.133.003-.143-.006-.184.247-.029.058.25.018.089.008.054.018.208.01.132.011.132.015.132.015.063.033.044h.08s.027-.029.027-.029l.011-.038-.015-.099-.062-.337-.019-.184-.02-.208v-.171l.005-.054.123-.013.108-.011.005.041.027.085.018.052.037.084.044.08.072.124.062.11.038.048.041.01.082-.041.032-.023v-.053s-.016-.103-.016-.103l-.029-.165-.042-.232-.004-.09.234-.076.034.068.051.134.075.188.02.067.075.134.018.033.034.105.046.086.056.058.091.016.037-.022.086-.085-.056-.183-.084-.232-.072-.229-.035-.109-.019-.099v-.025s.109-.035.109-.035l.16-.052.008.014.016.066.009.03.057.146.029.062.03.079.025-.003.03.029.053.005.02-.022.005-.032-.025-.095-.039-.125-.02-.085-.02-.043-.033-.075.262-.068.039.101.043.113.043.129.015.03.024.006.032-.004.028-.016.014-.029-.006-.075-.063-.312.241-.071.02.047.034.086.034.096.035.099.047.156.084.253.093.27.042.058.019-.011.016-.038-.138-.335.023-.015-.024-.046-.016.008-.032-.079.024-.028v-.016s-.011-.014-.011-.014l-.027.003-.034-.091.022-.018-.025-.042-.014.008-.006-.023.019-.011-.016-.032h-.015s-.011-.03-.011-.03l.016-.015-.025-.024-.025-.07.004-.014-.027-.061h-.016s-.001-.023-.001-.023l-.018-.053.049-.02-.014-.065-.058-.165-.094.032-.093-.314.21-.039-.085-.267.146-.005,1.71-.584,1.12,1.962.314-.179-.217-.383,1.098-.622-.19-.336-1.098.622-.687-1.207.174-.065.037-.018.869-.702.472-.379.3-.24.061-.12.047-.099.09-.186.01-.01.346-.275.262-.213.245-.194.034.041.231.272.009-.006.063.103.039.044.113.127.144.165.174.196.123.139.359.422.137-.123.025.029-.062.049.005.014-.009.008.003.02-.01.008.005.019-.016.023.008.023-.014.013.131.151h.009l.221-.196-.143-.161-.01.009-.041-.047-.039.035-.025-.028.049-.044-.086-.103-.383-.451-.013-.015-.015-.018-.451-.534-.016-.02-.008-.009-.319-.335.19-.16.105-.09.233-.2.141.162.15-.131.265-.221.364-.313.104-.099.057-.047.028-.024.311-.26.093-.075.295-.243.286-.25.33-.281,1.383,1.638.276-.226-1.165-1.375.091-.066-.037-.041-.09.066-.199-.234.219-.18.014-.013.058-.048.302-.256,1.088,1.273h-.014s-.104.094-.104.094v.011l.067.075.011-.004.1-.095v-.009s.172.215.172.215h.016l.162-.132.072-.058v-.01s-.482-.554-.482-.554l-.037-.043.062-.046-.375-.444.134-.113.478.253.042-.033.07-.057h.001s.008.008.008.008l.698.821.707-.582.294-.237-.946-1.174h-.001s.003-.003.003-.003l.491-.361-.224-.322v-.011s.008-.006.008-.006l-.008-.015.018-.023-.077-.108-.006-.009.01-.008.108-.082-.065-.093.354-.252.038-.028.09-.056.255-.16.177-.115.193-.133.112-.089.165-.132.028-.023.018-.038.01-.042.004-.035-.004-.014.076-.049.318-.208.044.065.023.035h.015s.056-.042.056-.042l-.025-.042-.013-.02.074-.052.044-.034.046-.034.065-.058.079-.053.075-.051.07-.053-.104-.108-.084-.087-.044-.051-.049-.056-.137-.151-.307-.313-.128-.131-.104-.108-.124-.128-.081-.085-.082-.085-.312-.331-.871-.924-.227-.241-.096-.094-.194-.199-1.103-1.139-.112-.115-.594-.638-.056-.06-.218-.228-.081-.089-.232-.251-.24-.217-.039-.037-.042-.044-.259-.265-.218-.257-.055-.12-.042-.202.013-.217.09-.231.081-.186.058-.134-.482.51-.176.185-.151.119-.162.104-.172.087-.18.07-.185.051-.175.124-.382.123-.094.029-1.009.313-.568.176-.104.004-.103-.015-.098-.034-.09-.053-.137-.004-.134.023-.065.035-.06.062-.034.079-.008.085.022.084.133.049.141.024-.441.136-.294-.052-.276-.171-1.491-.886-1.809-1.063-.127-.076-.882-.513-.625-.368-.743-.413.332-1.148.213-.968.043-.219.134-.627.09-.508.122-.682.221-1.091.051-.283.421-2.403" vector-effect="none" fill="#c1c1c1" fill-rule="evenodd" stroke="#232323" stroke-linecap="square" stroke-linejoin="bevel" stroke-width=".25"/>
      <path d="M120.229,334.241l.086-.151.966-1.709.144-.256.142-.25-.869-.437-.355-.179-2.262,2.838.392.304.048-.061.27.199.82.364.144.174.094-.165.138-.245.242-.427" vector-effect="none" fill="#c1c1c1" fill-rule="evenodd" stroke="#232323" stroke-linecap="square" stroke-linejoin="bevel" stroke-width=".25"/>
      <path d="M115.009,345.14l.095-.155.502-.882-2.474-1.139-.276.535-.44.891,2.389,1.082.204-.332" vector-effect="none" fill="#c1c1c1" fill-rule="evenodd" stroke="#232323" stroke-linecap="square" stroke-linejoin="bevel" stroke-width=".25"/>
      <path d="M117.803,339.374l-2.451-1.061-.653,1.297,2.531,1.147.573-1.383" vector-effect="none" fill="#c1c1c1" fill-rule="evenodd" stroke="#232323" stroke-linecap="square" stroke-linejoin="bevel" stroke-width=".25"/>
      <path d="M118.243,338.252l.582-1.284-2.297-1.044-.631,1.308,2.321,1.075.025-.055" vector-effect="none" fill="#c1c1c1" fill-rule="evenodd" stroke="#232323" stroke-linecap="square" stroke-linejoin="bevel" stroke-width=".25"/>
      <path d="M115.417,340.917l-.067.193,1.122.537.058-.198-.034-.034.112-.242-.17-.093-.039.072.065.033-.071.144-.975-.413" vector-effect="none" fill="#c1c1c1" fill-rule="evenodd" stroke="#232323" stroke-linecap="square" stroke-linejoin="bevel" stroke-width=".25"/>
      <path d="M121.704,331.611l.257-.221-.212-.137-.361-.264-.177.426.464.219.029-.024" vector-effect="none" fill="#c1c1c1" fill-rule="evenodd" stroke="#232323" stroke-linecap="square" stroke-linejoin="bevel" stroke-width=".25"/>
      <path d="M121.996,330.381l-.077-.051-.053-.034-.171.305.115.057.023-.041.032.014.132-.251" vector-effect="none" fill="#c1c1c1" fill-rule="evenodd" stroke="#232323" stroke-linecap="square" stroke-linejoin="bevel" stroke-width=".25"/>
      <path d="M116.717,309.62l-.748-.712-.669-.631-.861-.811-.148-.138-.561-.527-.831-.772-.767-.724-.293-.274-.484-.455-.82-.762-.688-.597-.096-.122-.7-.655-.449-.452-1.545-1.447-.328-.309-.194-.194-.26-.231-.312-.292-.085-.08-.782-.734-.482-.441-.374-.388-.881-.833-.128-.006-.019.167-.005.034-.132.785-.076.501-.032.202-.099.645-.139-.018-.099-.01-.176-.02-.433-.049-.152.951-.157.994-.163,1.022-.141.928-.055.422-.657-.079-.01.068-.169-.028.003-.024-.355-.043v-.014l-.063-.008-.023.106.433.068.01-.028.158.024-.051.336-2.859-.442-.084.515,3.249.517-.119.816-.603-.095-1.136-.181-2.102-.326-.084.535.773.113v.049s.161.025.161.025v.016l1.518.24.003-.013.308.042.006-.028.674.101-.048.332.635.103-.057.359.003.016-.066.412-.022.134.382.061.171.033.132.019.174.028-.039.255-.421,2.403-.051.283-.221,1.091-.122.682-.09.508-.134.627-.043.219-.213.968-.332,1.148.743.413.625.368.882.513.127.076,1.809,1.063,1.491.886.276.171.294.052.441-.136-.141-.024-.133-.049-.022-.084.008-.085.034-.079.06-.062.065-.035.134-.023.137.004.09.053.098.034.103.015.104-.004.568-.176,1.009-.313.094-.029.382-.123.175-.124.185-.051.18-.07.172-.087.162-.104.151-.119.176-.185.482-.51-.058.134-.081.186-.09.231-.013.217.042.202.055.12.218.257.259.265.042.044.039.037.24.217.232.251.081.089.218.228.056.06.594.638.112.115,1.103,1.139.194.199.096.094.158-.274.056-.094.114-.184.155-.273.113-.189.179-.299.103-.174.179-.3-.128-.15-.109-.169-.086-.183-.06-.193-.033-.198-.005-.198-.022-1.987-.003-.047-.004-.027-.041-.33-.378-.357-.36-.284.695-.34.259-.924.338.222-.085-1.228-.304-.185.246-.427.511-.961.241-.525.56-1.2.158-.337" vector-effect="none" fill="#c1c1c1" fill-rule="evenodd" stroke="#232323" stroke-linecap="square" stroke-linejoin="bevel" stroke-width=".25"/>
      <path d="M96.455,346.579l-.71.057-.7.056-.269.022-.703.057h-.08l-.341-.011-.214-.006-.213.034-.022.005-.146.071-.113.117-.03.053-.004.006-.068.207-.406,1.332-.302.33-.293.356-.004.005-.303.392-.271.337-.305.392-.024.03-.468.586-.409.491-.219.279-.146.174-.139.165-.522.645-.298.375-.17.204-.16.189-.16.194-.184.228-.003.004-.172.221-.087.113-.148.175-.019.022-.137.161-.124.146-.215.271-.246.335-.028.035-.198.24-.039.048-.231.289-.224.259-.237.309-.328.403-.127.156-.053.067-.106.137-.075.098-.057.085-.082.184-.086.228-.044.218-.015.165-.008.195.023.229.037.207.068.203.09.24.123.229.119.155.123.164.093.12.188.21.247.214.237.128.293.09.26.063.176.061.224.052.252.038.251.014.312-.006.191-.03.28-.052.147-.049.02-.009.164-.067.142-.06.137-.066.3-.179.454.771-.961,1.19.161.127,1.074-1.298-.536-.905.228-.136.072-.042.032.049-.034.022.013.018.034-.016.02.034.01-.004.085.138.016-.011-.082-.142.055-.028.082.142.022-.011-.081-.142.006-.005-.067-.108.466-.271.904-.526.522-.304.389.659-.013.037-.837.506.065.105,1.806-1.072-.071-.104-.816.492h-.052s-.392-.67-.392-.67l.45-.271,3.529-2.127.404.678-.009.076.125.067.062-.023,1.715-.179-.004-.056v-.02s-.005-.057-.005-.057l-1.738.165-.08-.044-.388-.658.079-.047.537-.324.491-.298.058-.035,1.355.128,1.638-1.157.063-.061.103-.062.076-.044.11-.049.483-.864.06-.106.46-.748.089-1.804.103.011.018-.114h.023l.01-.028.049-.01.008-.087.081.006-.015-.067.009-.071.016-.113h-.019s-.013.032-.013.032l-.063.018-.034-.032v-.032s-.148-.018-.148-.018l.018-.349v-.013l.426.027.004-.082-.42-.02.004-.089-.401-.015-.081-.286.674-.19-.019-.068-.564.162-.015-.048-.027.009.011.048-.046.011v.02l-.028.01-.019-.068-.03.014-.12-.118-.071-.035-.058-.072-.011-.014-.023-.029v-.003s.041-.039.041-.039l-.079-.112.018-.023-.318-.408-.08.063-.011-.014v-.003s-.011-.013-.011-.013l-.048-.056-.01-.02-.009-.019v-.005s-.003-.005-.003-.005v-.011l.003-.011.003-.006.003-.005.003-.004.003-.004.006-.006.009-.005.009-.005.022-.006.043-.011h.006s.022-.008.022-.008l.46-.122.312-.082.023-.006.091-.023.037.089.024.03.022.016.035.024.042.025.143.071.06.01.008-.003h.006s.001-.001.001-.001l.194-.055.067-.019.01-.003.044-.042.03-.053h0s.005-.01.005-.01l.089-.16.009-.08h0v-.003s-.039-.133-.039-.133l-.016-.061-.015-.053-.043-.058h-.001l-.226-.128-.07-.011-.015.004h-.001l-.209.058-.061.03-.048.048-.02.035-.132.236.023.054-1.047.285h-.049s-.037-.033-.037-.033l-.864-1.046-1.086-.294.136-.188.065.048.048-.052-.122-.09-.095-.067-.042.071.046.03-.155.214-.058-.015.063-.245.076.013.016-.089-.248-.062-.024.09.063.022-.057.242-1.562-.423" vector-effect="none" fill="#c1c1c1" fill-rule="evenodd" stroke="#232323" stroke-linecap="square" stroke-linejoin="bevel" stroke-width=".25"/>
      <path d="M69.496,335.046l-.393.378-.028.027-.568.545-.346-.342-2.17,2.279.303.304-1.107,1.124.023.024-.043.042,2.339,2.394,2.032-1.906-2.132-2.208.588-.593,1.146,1.118.375.398.688.655.395-.389.895.003.153-1.024.45-.465-1.942-1.883-.081.067-.578-.546" vector-effect="none" fill="#c1c1c1" fill-rule="evenodd" stroke="#232323" stroke-linecap="square" stroke-linejoin="bevel" stroke-width=".25"/>
      <path d="M96.891,329.028l-.169.058h-.124s-.001.086-.001.086l-.01.169h-.155s-.087-.003-.087-.003l-.332.537-.511.151-.065.245h-.009s-.011.003-.011.003l-.013.019v.018s.014.014.014.014l-.018.086-.009.051-.01.099-.003.098.005.09h-.013s.014.161.014.161l-.117.013-.006-.053-.133.011.008.066.008.066.129-.01-.005-.058.119-.011.01.063.014.084.025.11h.011s.023.094.023.094l.025.082.041.109.053.124.063.118.048.089.093.153.029.048.047.062.009.013-.008.004.124.199.009-.009.155.24.125.203.09.127.332.461.02.029.143.183.171.222.123.162.027.024.24.259.136.175.134.138.622.631.141-.228.223.15.022-.014.158.105-.033.055-.028.038-.109.174-.076.123-.066.085h.006s.015-.009.015-.009l.008.006-.008.016-.022.014-.008.018-.03.037.009.008-.03.043h-.018s-.016.027-.016.027h-.015s-.072.131-.072.131l.034.024.081-.134.08-.112.082-.117.054-.084.048-.081.055-.077.094-.157.371.238-.082.138-.003.011-.015.018-.08.137h-.008s-.009.011-.009.011v.014s-.068.095-.068.095l-.066.091v.02l-.053.103-.015.005-.005.044.044.02.06-.132-.003-.038.01-.013.018.01.131-.209.094-.151.057-.101.004.003.022-.028-.006-.005.015-.018.158.1-.014.06-.015-.004-.153.622v.019l.103.015.054-.228.03-.091.013-.113.01.003.043-.176-.015-.004.014-.062.164-.671-.45-.217.734.095-.018-.095-.029-.103-.077-.162-.191-.343-.037-.679.023-.065.011-.016.049-.051.065-.028.067-.03.019-.072-.011-.136-.018-.257-.431-.507-.096-.143-.076-.155-.054-.164-.034-.17.044-.684.16-1.261-.005-.098-.035-.091-.094-.014-.345-.137-.265-.076-.089-.024-.231-.07-.125-.033-.139-.03-.302-.051h-.238l-.399.044-.104.006-.093-.058" vector-effect="none" fill="#c1c1c1" fill-rule="evenodd" stroke="#232323" stroke-linecap="square" stroke-linejoin="bevel" stroke-width=".25"/>
      <path d="M64.924,351.386l-.847-.591-1.456-.736-.156-.075-.177-.028-.029.038-.958.073-.109.025-.093.063-.049.079-.023.091.008.093.035.086.014.024.077.139.006.283-.104.07.357.559-.626.389-.18-.272-.167.103.294.464.783-.521.612.956,1.733,1.118.464.122.477-.101.388-.28.146-.649.057-.681.9-.55.062.106.1-.053-.175-.294-.093.052.057.109-.896.553-.432-.763" vector-effect="none" fill="#c1c1c1" fill-rule="evenodd" stroke="#232323" stroke-linecap="square" stroke-linejoin="bevel" stroke-width=".25"/>
      <path d="M103.216,360.095l2.706-2.165.103-.081.101-.081.303-.243-.221-.343-.283.226-.114.09-.105.071-3.941,3.132.283.317,1.167-.921" vector-effect="none" fill="#c1c1c1" fill-rule="evenodd" stroke="#232323" stroke-linecap="square" stroke-linejoin="bevel" stroke-width=".25"/>
      <path d="M114.377,349.451l-.748-.581-2.835-1.047-.447,1.172,4.759,1.755-.729-1.3" vector-effect="none" fill="#c1c1c1" fill-rule="evenodd" stroke="#232323" stroke-linecap="square" stroke-linejoin="bevel" stroke-width=".25"/>
      <path d="M114.126,347.432l.316-.78-2.538-1.153-.338.665-.305.622,2.631,1.224.234-.579" vector-effect="none" fill="#c1c1c1" fill-rule="evenodd" stroke="#232323" stroke-linecap="square" stroke-linejoin="bevel" stroke-width=".25"/>
      <path d="M111.479,353.319l-2.957-1.131-.488,1.288,2.548.934.897-1.091" vector-effect="none" fill="#c1c1c1" fill-rule="evenodd" stroke="#232323" stroke-linecap="square" stroke-linejoin="bevel" stroke-width=".25"/>
      <path d="M112.46,351.034l-2.749-1.015-.485,1.306,2.731.952.503-1.242" vector-effect="none" fill="#c1c1c1" fill-rule="evenodd" stroke="#232323" stroke-linecap="square" stroke-linejoin="bevel" stroke-width=".25"/>
      <path d="M110.103,355.339l-2.809-.916-.48,1.254,2.56.918.729-1.255" vector-effect="none" fill="#c1c1c1" fill-rule="evenodd" stroke="#232323" stroke-linecap="square" stroke-linejoin="bevel" stroke-width=".25"/>
      <path d="M112.646,293.111l.113.062.112.067.234.157.318.214.881.573.88.57.833.537.927.598.88.573.872.565.973.558,1.076.341.6.19.489.203.847.395.839.395.913.417.08.035-.034.122-.534,1.889-.195.711-.093.326-.025.094-.193.682-.312,1.062-.049.161-.236.781-.037.118-.11.354-.077.245-.19.602-.475,1.526-.721,1.8-.442.968-.29.631-1.075-.472-.905-.418-.959-.436-.84-.688-.748-.712-.669-.631-.861-.811-.148-.138-.561-.527-.831-.772-.767-.724-.293-.274-.484-.455-.82-.762-.688-.597-.096-.122-.7-.655-.449-.452-1.545-1.447-.328-.309-.194-.194-.26-.231-.312-.292-.085-.08-.782-.734-.482-.441-.374-.388-.881-.833-.128-.006-.019.167-.005.034-.132.785-.076.501-.032.202-.099.645-.139-.018-.099-.01-.176-.02-.433-.049.175-1.142.186-1.205v-.006l-.354-.162-.416-.086-2.091-.278-.768-.101-.447-.058-.048-.063.018-.137.022-.195.032-.2.023-.128.949.132,1.033.133,1.246.155.932.11.185-2.72.44.054.156.019.119.01.146.004.109-1.418,1.393.172.878.112,1.745.218,2.063.256,2.54.322.36.047" vector-effect="none" fill="#c1c1c1" fill-rule="evenodd" stroke="#232323" stroke-linecap="square" stroke-linejoin="bevel" stroke-width=".25"/>
      <path d="M127.645,283.841l.041,1.385-.193,1.18-.079.472-.014.068-.114.617-.207,1.081-.134,1.104-.255,1.048-.068.203-.221.84-.196.928-.1.787-.079.484.074.043-.138.259-.042.091-.189.616-.019.091-.082.308-.18.673-.311,1.142-.179.629-.131.498-.293,1.076-.027.099-.08-.035-.913-.417-.839-.395-.847-.395-.489-.203-.6-.19-1.076-.341-.973-.558-.872-.565-.88-.573-.927-.598-.833-.537-.88-.57-.881-.573-.318-.214-.234-.157-.112-.067-.113-.062.039-.11.299-.875.375-.985.055-.158.548-1.259.317-.739.531-.978.516-.93.516-.937.359-.63.234-.411.43-.806.548-.985.214-.388.297-.54.542-.985.541-.965.582-1.058,3.744,2.071,2.208,1.205.6.309.517.265.989.617" vector-effect="none" fill="#c1c1c1" fill-rule="evenodd" stroke="#232323" stroke-linecap="square" stroke-linejoin="bevel" stroke-width=".25"/>
      <path d="M105.036,272.01l-.051.076.203.089-.051.304-.076.558-.013.127-.19-.089-.051.101-.697-.393.406-.748-.444-.253.127-.241.837.469h0M105.29,271.528l-.051.317-.101-.025-.038.101-.938-.507-.19.33-.646-.368-.646,1.179,1.179.659.203-.33.684.38-.051.089.152.076.139.152-.051.38-.051.114-.025.038.013.051.025.038-.013.025-.152.127-1.267-.063-.76-.051-.114.051-1.28-.076-.089-.013v.076l.583.038v.101l.799.038-.063.925-.013.152-.025.482h-.089v.076l.051.051v.33h.114l.114.063.748.063.215-.013.076.025.114-.013-.038.722-.025.52-.697-.051v.013h-.101l.025.076.051.051-.013.33.71.038-.051.722-.063.951-.051.951h-.051v.076l-.063.051-.013.063-.013.063.025.051.025.051.025.025-.013.063.038.013-.076,1.052-.089,1.242-.025.406-1.382-.089-.025.418,1.382.089-.038.621.101.063.038.051.013.063v.063l-.025.051-.076.063-.089.025-.013.076-3.587-.051-.013.406,2.953.063.608.025-.063,1.052-.089,1.331-.025.304-.076,1.217-3.321-.355-.025-.013-.051.051.013.025-.165,1.711-.152,1.369-.051.253,3.486.355.444.051.152.025.127.013h.139l.114-1.42,1.394.177.875.101,1.749.215,2.066.266,2.535.317.355.051.038-.114.304-.875.38-.989.051-.152.545-1.255.317-.748.532-.976.52-.925.507-.938.368-.634.228-.406.431-.811.545-.989.215-.38.304-.545.532-.976.545-.976.583-1.052-3.308-1.825-3.295-1.825-.672-.38-2.345-1.293-.279-.152-.089-.051-1.774-.989-.951-.52-.482-.279-.57-.33-.114-.013-.114-.013-.152-.089-.152-.089h0" vector-effect="none" fill="#c1c1c1" fill-rule="evenodd" stroke="#232323" stroke-linecap="square" stroke-linejoin="bevel" stroke-width=".25"/>
      <path d="M133.931,321.896l-2.209.28-2.031.256-.011.015-.273.034-.065-.011-.039-.033-.02-.032-.162-1.123-.01-.008-.025-.005-.033-.013-.025-.028-.023-.037-.07.006-.118.018-.534.082-.119.018-.133.024-.198.038-.48.09-.413.086-.319.067-.323.049-.33.056-.408.085-.076.015-.16.046-.156.013-.061.014-.066.014-.247.052-.567.127-1.036.207-.312.014-.153.006-.276.062-.233.094-.693.148-.98.18-.749.137-.719.144-.93.34-.236.122-.28.15-.039.025-.188.119-.037.02-.063.037-.015.037-.07.06-.118.067-.081.093-.095.076-.104-.108-.084-.087-.044-.051-.049-.056-.137-.151-.307-.313-.128-.131-.104-.108-.124-.128-.081-.085-.082-.085-.312-.331-.871-.924-.227-.241.158-.274.056-.094.114-.184.155-.273.113-.189.179-.299.103-.174.179-.3-.128-.15-.109-.169-.086-.183-.06-.193-.033-.198-.005-.198-.022-1.987-.003-.047-.004-.027-.041-.33-.378-.357-.36-.284.695-.34.259-.924.338.222-.085-1.228-.304-.185.246-.427.511-.961.241-.525.56-1.2.158-.337.84.688.959.436.905.418,1.075.472.29-.631.442-.968.721-1.8,1.138.478.852.34,1.015.403.927.368.138.055.148.06.55.217.875.349.924.403-.696,1.766-.521,1.355-.022.131-.008.133.009.133,1.027.414.738-.08.345-.038.857-.093.582-.063,1.525-.165.212-.023.1-.011.28-.029.118.94.15.09.066,1.082.03.271.008.068.087.763.113,1.004.08.716.095.805.023.147.01.063.011.076.011.075.184,1.459" vector-effect="none" fill="#c1c1c1" fill-rule="evenodd" stroke="#232323" stroke-linecap="square" stroke-linejoin="bevel" stroke-width=".25"/>
      <path d="M144.874,307.783l-.051-.004-.436-.176.048-.119-.067-.018-.688-.186-.294-.08-.147-.041-.305-.085-.556-.144-.938-.501-.838-.451-1.055-.426-.489-.193-1.426-.564-.996-.397-.972-.388-.954-.382-.991-.394-.976-.388-.398-.175-.494-.217-.987-.349-.848-.346-.788-.316-.11-.046-.137-.056-.738-.312-1.024-.384-.872-.341-.289-.123-.095-.038-.981-.394-.387-.155-.082-.034-.034.122-.534,1.889-.195.711-.093.326-.025.094-.193.682-.312,1.062-.049.161-.236.781-.037.118-.11.354-.077.245-.19.602-.475,1.526,1.138.478.852.34,1.015.403.927.368.138.055.148.06.55.217.875.349.924.403-.696,1.766-.521,1.355-.022.131-.008.133.009.133,1.027.414.738-.08.345-.038.857-.093.582-.063,1.525-.165.212-.023.1-.011.28-.029.118.94.15.09.066,1.082.03.271.008.068.087.763.113,1.004.08.716.095.805.023.147.01.063.011.076.011.075.184,1.459.992-.125.677-.086,2.108-.272-.047-.598.901-.086.209-.019-.008-.11.062-.004.286-.025.867-.076.096-.009.022-.003.48-.043.186-.016.284-.024.134-.013.085-.014.119-.038.096-.044.113-.06.091-.07.117-.098.226-.204.354-.345.193-.196.076-.09.2-.248.123-.177.189-.304.052-.098.089-.169.137-.321.169-.46.048-.061.086-.221.095-.283.2-.581-.009-.013.646-1.832h0l.024-.07.014-.038.029-.084.029-.075.015-.042.024-.063.503-1.503.469-1.513.435-1.522.401-1.532-1.251-.342-.044-.013-.065-.018-.052.033-.101.062-.056.019-.084.032-.093-.008" vector-effect="none" fill="#c1c1c1" fill-rule="evenodd" stroke="#232323" stroke-linecap="square" stroke-linejoin="bevel" stroke-width=".25"/>
      <path d="M136.399,327.95l.052-.013.032-.283,1.492-.093-.008-.155-1.625.118-.042.427.099-.003" vector-effect="none" fill="#c1c1c1" fill-rule="evenodd" stroke="#232323" stroke-linecap="square" stroke-linejoin="bevel" stroke-width=".25"/>
      <path d="M148.705,296.987l.008-.019.034-.253.023-.186.027-.184.03-.229.049-.361-.196-.129-.071-.068-.065-.049-.075-.061-.085-.077-1.45-.834-2.753-1.579-.169-.087-.446-.217-.821-.451-.738-.409-.567-.316-1.256-.729-.944-.537-.487-.275-1.541-.848-.281-.148-.65-.335-.101-.054-.474-.26-.292-.158-.293-.162-.109-.061-1.608-.883-2.596-1.439-.455-.252-1.402-.776-.07-.038-1.236-.678.041,1.385-.193,1.18-.079.472-.014.068-.114.617-.207,1.081-.134,1.104-.255,1.048-.068.203-.221.84-.196.928-.1.787-.079.484.074.043-.138.259-.042.091-.189.616-.019.091-.082.308-.18.673-.311,1.142-.179.629-.131.498-.293,1.076-.027.099.082.034.387.155.981.394.095.038.289.123.872.341,1.024.384.738.312.137.056.11.046.788.316.848.346.987.349.494.217.398.175.976.388.991.394.954.382.972.388.996.397,1.426.564.489.193,1.055.426.838.451.938.501.556.144.305.085.147.041.294.08.688.186.067.018-.048.119.436.176.051.004.093.008.084-.032.056-.019.101-.062.052-.033.065.018.044.013,1.251.342.431-1.895.36-1.909.441-2.456.128-.691.044-.248.042-.232.07-.383.037-.202.019-.128.06-.308.011-.058.067-.387.016-.068.003-.044.011-.06.006-.035.034-.19.037-.241.051-.303.025-.18.006-.028.027-.175.03-.204.011-.12.018-.122.049-.355h.029s.02-.009.02-.009" vector-effect="none" fill="#c1c1c1" fill-rule="evenodd" stroke="#232323" stroke-linecap="square" stroke-linejoin="bevel" stroke-width=".25"/>
      <path d="M154.901,307.028l-.027-.179.023-.016.01-.016.005-.023-.009-.035-.022-.02-.038-.004-.027.008-.016.015-.008.014-.004.025.005.023.013.018.019.015.03.003.015.174-.053.062-.041-.029-.101.139.303.223.034-.048.681.498.02-.027-.721-.525.047-.081-.051.005-.082-.06-.014-.061-.02.008-.041-.025.068-.08" vector-effect="none" fill="#c1c1c1" fill-rule="evenodd" stroke="#232323" stroke-linecap="square" stroke-linejoin="bevel" stroke-width=".25"/>
      <path d="M157.459,304.937l.044-.063-.745-1.237-.124.061.785,1.295.041-.056" vector-effect="none" fill="#c1c1c1" fill-rule="evenodd" stroke="#232323" stroke-linecap="square" stroke-linejoin="bevel" stroke-width=".25"/>
      <path d="M154.079,308.444l.07-.137.027-.051-.133-.067-.055.105-.09.155.133.074.011-.016.681.469.041-.072-.684-.459" vector-effect="none" fill="#c1c1c1" fill-rule="evenodd" stroke="#232323" stroke-linecap="square" stroke-linejoin="bevel" stroke-width=".25"/>
      <path d="M156.769,304.658l.095-.125-.117-.115-.09.109-.117.138.123.108.071-.084.542.51h0l.042-.055-.55-.485" vector-effect="none" fill="#c1c1c1" fill-rule="evenodd" stroke="#232323" stroke-linecap="square" stroke-linejoin="bevel" stroke-width=".25"/>
      <path d="M156.539,305.297l-.658-.562-.09.1.649.554.099-.093" vector-effect="none" fill="#c1c1c1" fill-rule="evenodd" stroke="#232323" stroke-linecap="square" stroke-linejoin="bevel" stroke-width=".25"/>
      <path d="M157.708,304.527l-.328-.267-.077.096.36.294.046-.123" vector-effect="none" fill="#c1c1c1" fill-rule="evenodd" stroke="#232323" stroke-linecap="square" stroke-linejoin="bevel" stroke-width=".25"/>
      <path d="M113.843,241.304l.432.241.16.093.148.076.133.089,1.908,1.055,1.255.695,2.119,1.175.319.176.203.113.653.361-.531.963-.554,1.003-.262.498-.193.342-.06.086-.081.146-.361.653-.076.157,1.769.996.769.425.123.06.625.349,3.293,1.835-.518.939-.522.943-.523.947-.563,1.014-.562,1.019-.501.904-.539.973-.529.948-.522.947-.521.935-.522.942-.525.943,2.42,1.347.873.485,3.303,1.834-.526.943-.227.411-.295.532-.56,1.004-.564,1.032-.516.935-.275.494-.221.412-.502.896-.493.889-.499.902-.496.89-.544.978-.578,1.044-3.303-1.819-3.298-1.833-.677-.374-2.344-1.302-.275-.152-.093-.049-1.776-.985-.953-.525-.479-.27-.574-.327-.106-.02-.119-.014-.146-.082-.157-.089.072-.596-.172-.02v-.022s-.441-.057-.441-.057l.06-.469-.019-.009-2.943-.387-.02-.023-.013-.042.067-.517.024-.038.056-.027.051.008,2.863.395.027-.029.06-.421.051.004.409.053.164.024.114-.796.087-.64-.003-.035-.245-.042-.736-.128-.044-.008.063-.444-.416-.06-.022.016-.004.03-.006.047-.009.062-.009.07-.01.079-.008.051-.009.067-.009.068-.01.079.013.016.137.015-.004.027-.343-.039.004-.033.129.015.018-.014.016-.127.011-.082.008-.049.01-.076.008-.057.011-.08.006-.048.004-.03-.02-.02-.555-.076-.022.016-.005.032-.005.044-.008.057-.01.075-.01.081-.008.053-.003.027-.024.185.022.015.133.014-.003.025-.401-.043.003-.028.181.019.023-.014.022-.18.005-.043.015-.133.013-.108.006-.061.004-.028-.016-.015-.649-.085-.015.018-.009.089-.006.053-.01.085-.008.063-.013.105-.006.047-.013.104.022.015.129.011-.003.023-.398-.042.003-.023.18.019.023-.144.005-.037.022-.132.008-.053.016-.106.015-.093-.015-.022-.665-.091-.065.558.015.03.132.011-.003.02-.191-.018.071-.61.005-.043.005-.038-.019-.035.074-.517.009-.033.038-.028.052.003,1.252.164.005-.048.492.07v.023l.21.034v.03s.56.076.56.076l.014-.103.013-.096.006-.053.014-.1.005-.048.014-.103.006-.053.013-.096.006-.048.006-.043.005-.037.014-.113-2.52-.355-.039-.018-.028-.034.004-.041.065-.517.024-.027.033-.01.046.008,2.557.341.123-.911-.492-.066v.023h-.009v.025h.02s-.001.049-.001.049l-.478-.06.006-.052.06.008.006-.048-1.691-.234-.043-.029-.014-.029.07-.529.016-.037.033-.022h.044s2.563.35,2.563.35l.131-.956h-.038s0,.018,0,.018l-.106-.015-.004.023-.397-.053v-.011s-.125-.016-.125-.016l.005-.039-1.913-.261-.033-.019-.024-.032v-.029l.077-.502.019-.024.028-.013.035-.003,1.312.183.449-1.584.359-.024.172-.588-1.826-.996.132-.455,1.815,1.028.342-1.189-.029-.06.075-.248.053-.037.103-.352-.264-.099-.442-.228.016-.03.442.233.11.038.009-.025-.379-.184.014-.02-.095-.053-.011.01-.067-.033v-.004s.057-.11.057-.11l.071.039-.013.018.091.051.016-.03.281.155.095.052.011-.024-.098-.043-.785-.432.015-.028.985.542.062-.213-.455-.253.018-.032-.043-.022-.014.025-1.177-.643.023-.034-.049-.028-.02.035-.098-.055.081-.147-.058-.032.06-.108.151.085-.114.205.057.029.009-.014,1.162.648-.008.013.052.029.12-.217.388.219.398-1.383.127-.437.19-.655.138-.473-.144-.085.171-.295.146.082.205-.376.01-.019-.148-.082.165-.299.147.081.215-.379.177-.322.12-.215.144-.266.12-.218.312-.567.118-.213.16-.302.049-.095.133-.259.454-.815.241.139.473-.882-.19-.114-.361-.221.288-.501-2.243-1.227-.034-.024-.02-.042.009-.043.55-.982.027-.025.035-.003.038.005.148.072,2.101,1.157.347-.636.347.193.117-.207-.317-.176-.194-.112.051-.094.063-.115-.112-.077-.018.018-.068-.055.058-.074.067.053-.014.016.105.079.024-.047.513.285.113-.214-.414-.24.12-.199.275-.485.236-.423.293-.534.402.228.525-.939-2.565-1.449-.015-.023v-.025s.125-.214.125-.214l.027-.018.032.008,2.553,1.44.479-.864" vector-effect="none" fill="#c1c1c1" fill-rule="evenodd" stroke="#232323" stroke-linecap="square" stroke-linejoin="bevel" stroke-width=".25"/>
      <path d="M120.421,224.537l-.125.223.899.498,1.172.65-.382.683-2.436-1.355-.233.418,2.434,1.35v.022s-.038.057-.038.057l.098.139.003.047-.014.027-.025.029-.038.013-.156-.015-.21.389-.369-.215-.008.018-.141-.044.024-.037-.113-.066.042-.082-.074-.035-.044.079-.008-.005-.119.219.086.048.018-.034.112.063.022-.039.104.086-.056.099.385.198-.398.728-.155-.089-.134.242.158.082-.503.919-2.842-1.567-.308.553,2.851,1.586-.374.679-.136-.076-.162.278.143.079-.052.096-2.787-1.574-.049-.005-.047.025-.209.373.009.051,3.797,2.099-.417.76-.394.72-3.75-2.1-.037-.013-.043.013-.226.395v.038s.024.027.024.027l3.773,2.107-.398.724-.402.729-.094-.051-.01.018-3.641-2.057-.024-.015-.058.003-.034.029-.195.357-.013.029.035.049,3.786,2.103.011.023-.023.048-.079.157-.051.103-.042.053-.052.028-.123.033-.052.024-.039.035-.024.043-.009.052.011.057.024.051.035.028.041.019.028.114-.359.655-.259-.142-.106-.06-3.279-1.819-.038.024-.269.482.016.056,3.625,2.015-.327.582-.015.028-.082.152-.123.224-.018-.015-.335.248-.934-.532-.385-.203-2.351-1.307h-.042l-.037.02-.077.142.071.038.032-.056.085-.025.132.075-.234.433,2.527,1.394-.48.871-2.584-1.416-.169.297,2.583,1.432-.297.535.432.241.16.093.148.076.133.089,1.908,1.055,1.255.695,2.119,1.175.319.176.203.113.653.361-.531.963-.554,1.003-.262.498-.193.342-.06.086-.081.146-.361.653-.076.157,1.769.996.769.425.123.06.625.349,3.293,1.835.529-.952.523-.947.522-.943.563-1.017.573-1.028.529-.957.525-.963.539-.956.523-.939.534-.966.527-.951.531-.962.53-.954.529-.959.531-.956.525-.951.534-.957.529-.957.273-.491.295-.532.596-1.028-2.017-1.123-1.295-.719-3.304-1.825-2.747-1.517-.194-.108-.085-.046-.283-.157-3.184-1.768-.147-.081.425-.772.1-.183.006-.01-.1-.074-.209.136-.156-.113-.072-.061-.051-.042-.385.678-.1-.06-.108.003-2.065-1.146" vector-effect="none" fill="#c1c1c1" fill-rule="evenodd" stroke="#232323" stroke-linecap="square" stroke-linejoin="bevel" stroke-width=".25"/>
      <path d="M123.009,225.027h.005s-.005,0-.005,0l-.082.015.082-.015" vector-effect="none" fill="#c1c1c1" fill-rule="evenodd" stroke="#232323" stroke-linecap="square" stroke-linejoin="bevel" stroke-width=".25"/>
      <path d="M138.154,263.508l-.106-.061-1.776-.978-1.863-1.024-3.573-1.97-.163-.09-.551,1.015-.195-.104-1.113-.62-2.005-1.115-1.248-.692-.575-.319-1.477-.818-.562,1.019-.501.904-.539.973-.529.948-.522.947-.521.935-.522.942-.525.943,2.42,1.347.873.485,3.303,1.834-.526.943-.227.411-.295.532-.56,1.004-.564,1.032-.516.935-.275.494-.221.412-.502.896-.493.889-.499.902-.496.89-.544.978-.578,1.044,3.744,2.071,2.208,1.205.6.309.517.265.989.617-.074-.818v-.141s.023-.139.023-.139l.039-.136.058-.128-.014-.125.487-.885.285-.488.226-.387.491-.889.48-.899.51-.887.51-.902.308-.555.217-.39.567-1.011.56-1.02.523-.943.522-.944.525-.944.523-.943.522-.944.523-.943.52-.947.52-.942.517-.946.572-1.011.569-1.025" vector-effect="none" fill="#c1c1c1" fill-rule="evenodd" stroke="#232323" stroke-linecap="square" stroke-linejoin="bevel" stroke-width=".25"/>
      <path d="M147.246,238.269l-.721-.445-.646-.361-2.37-1.325-2.47-1.371-.83-.463-2.804-1.534-.067.087-.081.074-.095.056-.103.039-.19.009-.183-.056-.294.544-.596,1.028-.295.532-.273.491-.529.957-.534.957-.525.951-.531.956-.529.959-.53.954-.531.962-.527.951-.534.966-.523.939-.539.956-.525.963-.529.957-.573,1.028-.563,1.017-.522.943-.523.947-.529.952-.518.939-.522.943-.523.947-.563,1.014,1.477.818.575.319,1.248.692,2.005,1.115,1.113.62.195.104.551-1.015.163.09,3.573,1.97,1.863,1.024,1.776.978.106.061.518-.94.521-.947.525-.942.521-.94.52-.952.06-.109.466-.821.101-.184.453-.835-.134-.075-.646-.37.55-1.051.513-.944.532-.965.531-.956.717.397.105.057.539-.951.53-.953.52-.966.531-.952.531-.961.529-.952.529-.958.53-.949.534-.965.526-.953.572-1.027.57-1.038.532-.954-.122-.067-1.749-.961-1.862-1.055" vector-effect="none" fill="#c1c1c1" fill-rule="evenodd" stroke="#232323" stroke-linecap="square" stroke-linejoin="bevel" stroke-width=".25"/>
      <path d="M144.868,282.41h.132s.077-.009.077-.009l.079-.01.089-.066.09.041.269.124.016.127.018.085.024.132.019.094.028.134.041.212.051.265.019.096.051.246.033.161.016.094.022.115.052.26.053.279.044.224.034.167.039.204.019.027.009.057.033.025.006.034.011.027.029-.003.004.03.011.013.01.027-.024.029.009.046.019-.005-.009-.019.02-.02.025-.005.03.033-.023.023.023.019.022-.02.028.006.016-.016.022.009.022-.008.015.02-.02.015.003.033-.028.006-.011.016-.014.024-.023.006-.024.023-.032.005-.015.033-.025-.006-.037.013.004.046.114.575.109.578.034.205.023.104.023.099.08.425.022.114.125.622.037.071.018.024.029.056.028.039.039.068.055.085.042.062.063.085.055.072.053.071.055.067.101.112.101.105.1.115.119.125.096.1.094.087.023.022.147.137.108.101.008.006.169.165.041.048.051.063.054.068.071.106.053.084.03.046.095.158.004.011.052.105.085.165.058.136.068.179.011.042.033.114.027.123.02.112.009.049.013.104.01.176.008.131v.115l-.015.229-.009.127-.029.221-.005.034-.019.167-.043.316-.052.458-.016.014-.004.074-.02.009-.033-.016-.02.004-.018.008-.039.362.115.014.029.003.028.004.019.01.009.018h.023s.004.037.004.037l-.158,1.101-.196-.129-.071-.068-.065-.049-.075-.061-.085-.077-1.45-.834-2.753-1.579-.169-.087-.446-.217-.821-.451-.738-.409-.567-.316-1.256-.729-.944-.537-.487-.275-1.541-.848-.281-.148-.65-.335-.101-.054.196-.093.074-.133.413-.74.19-.338.354-.632.269-.468.243-.437.195-.345.284-.522.308-.558.203-.368.133-.243.35-.638.303-.526.076-.131.133-.246.51-.933.389-.785.038-.321.236.253.395.224,1.015.577.883.502.549.297.78.397.17.067" vector-effect="none" fill="#c1c1c1" fill-rule="evenodd" stroke="#232323" stroke-linecap="square" stroke-linejoin="bevel" stroke-width=".25"/>
      <path d="M159.634,299.445l.417.331-.076.171-.459-.384-.005-.066.033-.038.062.009.028-.023" vector-effect="none" fill="#c1c1c1" fill-rule="evenodd" stroke="#232323" stroke-linecap="square" stroke-linejoin="bevel" stroke-width=".25"/>
      <path d="M140.84,280.093l.568-1.018-1.003-.555-.668-.369-1.084-.601-.281-.155-.109-.061-1.218-.674-.444-.246-.554-.307.53-.94.522-.946.521-.943.526-.946-1.854-1.033-1.804-.995-.077-.039-.523.943-.525.944-.522.944-.523.943-.56,1.02-.567,1.011-.217.39-.308.555-.51.902-.51.887-.48.899-.491.889-.226.387-.285.488-.487.885.014.125-.058.128-.039.136-.022.139v.141s.072.818.072.818l1.236.678.07.038,1.402.776.455.252,2.596,1.439,1.608.883.109.061.293.162.292.158.474.26.196-.093.074-.133.413-.74.19-.338.354-.632.269-.468.243-.437.195-.345.284-.522.308-.558.203-.368.133-.243.35-.638.303-.526.076-.131.133-.246.51-.933.389-.785.038-.321" vector-effect="none" fill="#c1c1c1" fill-rule="evenodd" stroke="#232323" stroke-linecap="square" stroke-linejoin="bevel" stroke-width=".25"/>
      <path d="M143.73,257.871l1.862,1.032.563-1.032.531-.953,2.601,1.439,2.678,1.512.056.028-.478.91-.26.477-.114.071-.346.382-.055.061.101.063.063.041.112-.041.096.058,1.399.758.193.146.117.142.086.042.087.057.081.052.074.052-.24.374-.063.09-.072.115-.15.241.155.1-.075.11-.003.019-.004.015h-.016s-.011.033-.011.033l-.024.016-.016.035-.046.077-.037.058-.037.053-.015.033-.028.043-.016.018-.023.049-.011.019-.052.068-.004.015-.009.019-.011.01-.009.023-.025.03-.029.049-.008.016-.025.042-.014.013-.008.019-.048.07-.221.342-.028-.019-.008.003-.018.035-.013.006-.004.016-.015.015-.004.013-.061.091-.068.11-.094.147-.027.034-.015.022-.004.018-.087.141-.008.004-.008.014-.051.086-.02.023v.011l-.02.025-.018.03-.034.049-.067.115-.035.047-.053.085-.032.056-.009.005-.074.117v.015s-.209.324-.209.324l-.035-.022-.008.01-.022-.016.005-.008-.055-.043-.086.142-.051.079-.044.071-.1.16-.143.231.016.019v.02l-.061.109-.075.125-.022.008h-.014s-.038.063-.038.063l-.074.141-.063.114-.191.383-.08-.041-.023-.02-.015-.003-.009-.011h-.014s-.009-.013-.009-.013h-.013l-.015-.013-.048.098-.037.075-.117.236.385.24h.006s.023.013.023.013l.009.014.037.02.015.022.003.019-.023.032-.023.032h-.009l-.013.01-.035-.022-.008.005-.043-.025h0l-.044-.028-.1-.058-.004.004-.245-.128-.009.006-.029.057-.077.155-.098.193.143.082.033.02-.087.183-.086.171-.161.313-.167.332-.048.095-.243.504.147.079.025.014-.039.074-.214.425-.104.687-.024.151-.037.253-.06.357-.052.373-.103.621-.004.027.089.014.02.003.015.005.016.02.004.027v.005l-.058.375-.011.015-.011.005v.013l.046.004-.024.146-.06-.01-.003.008.019.014.006.013-.06.392-.013.025-.024.011-.125-.016-.252,1.221.003.067.005.184.008.062v.09s-.004.172-.004.172l.016.085.003.076.004.047v.066s0,.11,0,.11l.008.112.003.089-.01.095-.013.008v.024l.013.018.004.19-.009.016v.014s.011.01.011.01l.004.264.005.022.01.139-.014.037.006.025.01.117-.011.035.009.202.019,1.37.009.038.004.082.005.067.022.283-.008.024.085.981-.023.024-.417.025-1.795-.982-.053.184.051.025.005-.011h.014s.433.243.433.243l-.023.039-.445-.246.003-.008-.046-.019-.043.326.034.004.039.018.008-.005.341.151-.013.033-.343-.152v-.006s-.037-.01-.037-.01l-.03.003-.011.226.008.15.023-.12.044.01-.014.058.247.051.004.027-.014.022-.246-.048v.015h-.009l.008.093.006.091h.085v-.008s.15.001.15.001v-.006s.082-.008.082-.008l.004.032.037.003.014-.02.062.047.003-.006.78.423-.023.039.184.104.26.147.29-.53-.151-.114.008-.014.194.157-.271.487.038.027.038-.056.053.038.025-.048.03.019-.125.205-.025-.02.025-.044-.058-.032.029-.044-.037-.023-.041.067-.304-.174-.027.061.006.009.02.029.024.046.008.043-.006.061-.022.058-.038.046-.047.033-.057.028-.048.005-.074-.011-.025.048-1.041-.569-.269-.124-.09-.041-.089.066-.079.01-.077.01h-.132s-.17-.068-.17-.068l-.78-.397-.549-.297-.883-.502-1.015-.577-.395-.224-.236-.253.568-1.018-1.003-.555-.668-.369-1.084-.601-.281-.155-.109-.061-1.218-.674-.444-.246-.554-.307.53-.94.522-.946.521-.943.526-.946-1.854-1.033-1.804-.995-.077-.039.522-.944.523-.943.52-.947.52-.942.517-.946.572-1.011.569-1.025.518-.94.521-.947.525-.942.521-.94.52-.952.06-.109.466-.821.101-.184.453-.835.155.085.506.274.298.163.389.214.544.298" vector-effect="none" fill="#c1c1c1" fill-rule="evenodd" stroke="#232323" stroke-linecap="square" stroke-linejoin="bevel" stroke-width=".25"/>
      <path d="M160.089,288.194v.038l.299-.022.016.052.028.077-.368.023-.009-.041-1.047.07-.004.029-.346.018.004.101-.096.011v-.034l-.323.047.009.11-.125.02-.047-.285.134-.032.02.131.332-.038-.015-.151.449-.033-.009-.025,1.098-.067" vector-effect="none" fill="#c1c1c1" fill-rule="evenodd" stroke="#232323" stroke-linecap="square" stroke-linejoin="bevel" stroke-width=".25"/>
      <path d="M160.887,290.359l.003.15-.07-.004-.072.004.003-.076-.331.044-.259.183.028.015-.085.142-.077-.039.056-.09-.275.042-.238.176-.076.138-.075-.051.082-.142.032.014.213-.157.018-.084.067.015-.008.033.299-.049.274-.205.412-.048.08-.01" vector-effect="none" fill="#c1c1c1" fill-rule="evenodd" stroke="#232323" stroke-linecap="square" stroke-linejoin="bevel" stroke-width=".25"/>
      <path d="M161.767,269.065l-.06.115-.119-.033.027-.12.152.038" vector-effect="none" fill="#c1c1c1" fill-rule="evenodd" stroke="#232323" stroke-linecap="square" stroke-linejoin="bevel" stroke-width=".25"/>
      <path d="M154.714,242.432l2.635,1.451.88.487.553.3,1.294.709,2.606,1.459.796.426.118.074.207-.387.044-.079.129.071.134.072-.06.077-.273.343-.338.507-.119.113-.01.014-.553.91-.008.074-.435.743-.378.697-.338.529-.164.18h0s-.269.297-.269.297l-.697.701-.588.883-.067.106-.043-.028-.53.791-.243.365.033.034-.338.504-.668.961-1.129,1.625-.068-.11-.062-.165-.047-.17-.224.303-.186.006-.018-.074.093-.103-.099-.03-.089.011h-.014s-.105-.02-.105-.02l-1.702-.908-.16-.086-.057-.03-.043-.024-.141-.079-.175.316-.333.601-.039.072-.115.494.024.139-.228.397-.526.92-.559.994-.056-.028-2.678-1.512-2.601-1.439-.531.953-.563,1.032-1.862-1.032-.544-.298-.389-.214-.298-.163-.506-.274-.155-.085-.134-.075-.646-.37.55-1.051.513-.944.532-.965.531-.956.717.397.105.057.539-.951.53-.953.52-.966.531-.952.531-.961.529-.952.529-.958.53-.949.534-.965.526-.953.572-1.027.57-1.038.532-.954.129.074,1.744.975,1.862,1.032" vector-effect="none" fill="#c1c1c1" fill-rule="evenodd" stroke="#232323" stroke-linecap="square" stroke-linejoin="bevel" stroke-width=".25"/>
      <path d="M156.18,257.109h.014s.089-.01.089-.01l.099.03-.093.103.018.074.186-.006.224-.303.047.17.062.165.068.11-.272.393-.441.634-3.004,4.699-.074-.052-.081-.052-.087-.057-.086-.042-.117-.142-.193-.146-1.399-.758-.096-.058-.112.041-.063-.041-.101-.063.055-.061.346-.382.114-.071.26-.477.478-.91.559-.994.526-.92.228-.397-.024-.139.115-.494.039-.072.333-.601.175-.316.141.079.043.024.057.03.16.086,1.702.908.105.019" vector-effect="none" fill="#c1c1c1" fill-rule="evenodd" stroke="#232323" stroke-linecap="square" stroke-linejoin="bevel" stroke-width=".25"/>
      <path d="M157.476,265.252l-.071.095-.075-.006-.047.077-.079.129-.16-.066-.004-.095.048-.074.081-.117.117-.098.043-.046.076-.025.065-.132.066-.043.041.03-.01.051-.091.223v.095" vector-effect="none" fill="#c1c1c1" fill-rule="evenodd" stroke="#232323" stroke-linecap="square" stroke-linejoin="bevel" stroke-width=".25"/>
      <path d="M144.934,218.04l-3.288-1.835-1.658-.916-.217-.12-1.422-.786-.854-.474-.127-.071-.127-.072-.28-.155-.549-.305-1.374-.762-1.795-.992-.345,1.071-.36,1.17-.939-.494-.065-.033-.612-.379-.274-.207-.065-.033-.06-.037-.056-.033-.616-.357-.156-.09-.011.034-.008.022-.077.213-.025-.011-.172.385-.625,1.152.009.158v.041l-.016.056-.015.158.062.118-2.941.189-.152.275.222-.016.043-.07h.032s.046-.029.046-.029l.015-.032.099.003.115.027.112.019.104-.01.148-.038.142-.008.133.013.089.004.11.005.131-.03.099-.027.114-.013.112.016.118.024.104.015.085-.01.096-.032.114-.041.104-.019.152.022.068.039.403-.024.004.032-.251.435-.105.184-.029.053h0l-.521.954-.525.963-.342.629-.388.038-.228-.01-.583,1.049-.683,1.231-.08.137-.347.651.029.085.037.049.119-.02.118-.041.077.018-.242.582-.158.15-.076-.009-.067.034-.058.07-.052-.028-.854,1.6-.062.19-.037.048-.098.086-.11.125-.089.106-.08.119-.065.157-.046.171-.086.137-1.897-1.055-.556-.303-.051-.027-.098.152.071.041.022.013-.032.053-.003.005h.003l.074.041-.052.106h0s-.101-.053-.101-.053l-.052.095,1.382.753.042-.094-.087-.046.022-.039.054-.103.847.496-.028.053-.067.125.11.07-.023.037.19.104.018-.034.127.063.058-.095.082-.015h.005s.065.035.065.035l.051.042.072.061.156.113.209-.136.1.074-.006.01-.1.183-.425.772.147.081,3.184,1.768.283.157.085.046.194.108,2.747,1.517,3.304,1.825,1.295.719,2.017,1.123.294-.544.183.056.19-.009.103-.039.095-.056.081-.074.067-.087.048-.118.023-.124-.003-.127-.029-.124-.104-.163-.153-.12.762-1.347.532-.966.525-.952.534-.957.534-.956.545-.975.511-.935.529-.953.529-.954.532-.959.527-.952.583-1.049.575-1.037.531-.961" vector-effect="none" fill="#c1c1c1" fill-rule="evenodd" stroke="#232323" stroke-linecap="square" stroke-linejoin="bevel" stroke-width=".25"/>
      <path d="M157.49,195.387l-.592,1.066-.569,1.029-.523.953-.541.965-.531.958-.53.962-.51.942-.554.976-.531.956-.54.949-.274.511-.027.056-.262.473-.577,1.042-.542.971-.534.97-.536.968-.581,1.046-2.143,3.885-.575,1.027-.262.469-.278.504-.257.463-.286.515-3.288-1.835-1.658-.916-.217-.12-1.422-.786-.854-.474-.127-.071-.127-.072-.28-.155-.549-.305-1.374-.762-1.795-.992-.345,1.071-.36,1.17-.939-.494-.065-.033-.612-.379-.274-.207-.065-.033-.06-.037-.056-.033-.616-.357-.156-.09.1-.281-.068-.025.028-.074.067.025.067-.209.047-.095.049-.09,1.627-3.091.259-.492.161-.305.577-1.074.175-.333-.821-1.081-.328.228-.715,1.114-.055-.032.721-1.132.387-.26.042-.179.066-.003.051.018-.081.26.776.985.404-.776-.137-.068.033-.072-.053-.025-.046.082.015.006-.009.014-.037-.024.048-.087-.515-.284-.039.071-.056-.032.096-.174.053.03-.039.072.065.035.475.262-.006.013.056.028.035-.06.133.07.095-.177.326-.617-1.264-.053-.172.219-.058-.041-.009-.052.16-.199.786.046h.598s1.072-2.028,1.072-2.028l1.564-2.962.535-1.01.573-1.086.119-.226.397-.752.475-.899.12-.21.35-.61.099-.184.88-1.625,1.158-2.151.574-1.066,1.094-2.057.525-.98.051.029.598.343.285.151.117.063.112.062.194.104.185.101,1.09.564.558.298,1.619.897,1.539.854.12.065.109.06,1.529.853-.527.954,1.516.823,1.797.976.66.369,1.175.669,1.461.785" vector-effect="none" fill="#c1c1c1" fill-rule="evenodd" stroke="#232323" stroke-linecap="square" stroke-linejoin="bevel" stroke-width=".25"/>
      <path d="M162.738,181.957l.944.517.409.224.357.134-.186.332-.331.593-.531.953-.534.968-.572,1.039-.572,1.023-.26.477-.27.485-.534.958-.532.965-.534.958-.535.939-.18.337-.119.227-.161.289-.572,1.023-.11.196-.428.791-1.461-.785-1.175-.669-.66-.369-1.797-.976-1.516-.823.527-.954-1.529-.853-.109-.06-.12-.065-1.539-.854-1.619-.897-.558-.298-1.09-.564-.185-.101-.194-.104-.112-.062-.117-.063-.285-.151-.598-.343-.051-.029.132-.247.527-1.004.057-.098-.011-.081.034-.077.253-.409.319-.617.21-.393.142-.275.144-.288.202-.389.207-.373.399-.702.234-.446.048-.123.144-.238.063-.186.124-.197.082-.091.203-.418.188-.305.089-.221.067-.123.042-.028.129-.269.065-.108-.005-.054.369-.676.442-.795.141-.323.114-.137.156-.149.022-.104.101-.223.106-.169.011-.082.195-.364.176-.297.212-.399.139.072.17.088.09.043.081.041,1.052.503,1.369.655.056.026.075.032.518.227,1.445.727.118.06.12.068.491.272.162.09.546.302.16.089,1.259.695.558.309,3.231,1.788,1.66.982" vector-effect="none" fill="#c1c1c1" fill-rule="evenodd" stroke="#232323" stroke-linecap="square" stroke-linejoin="bevel" stroke-width=".25"/>
      <path d="M183.478,230.971l.626-.401.047-.039.118-.122.338-.76.546-.892.087-.266.058-.278.033-.421-.09-.894-.006-.897.114-.403.2-.423-.076-.128-.119-.051-.11.018-.342.508-.369.37-.56.098-.878.42-.523.508-.276.445-.45.639-.928,1.067-.308.234-.338.388-.129.101-.06.052v.08s-.425.795-.425.795l-.077.146-.101.527-.158.015-.027.047-.184-.105-.075.166.17.104-.134.234-.124.218-.057.041-.106-.029-.008.112-.073.052-.74,1.292-1.331,2.056-1.29,2.156-.317.53-.136-.009-.892.953-.468.721-.412.634-.24.288-.041.115-.757,1.246-.293.662-.242.586-.463.615-.572.76-.171-.138-.309.39.079.077-.336.373-.057.034-.099.177-.039.062-.071.128-.076.058-1.26,1.943-.403.622-.12.186-.023.034-.046.067-.035.057-.038.058-.029.053-.072.195-.383.567-.555.819-.501.739-.911,1.347-.902,1.333-.544.591-.104-.049-.561.975-.082.232-.37,1.08-.139.406-.783.962-.493.919-.276.773-.06.065-.038.057-.016.067.024.075.047.062-.176.241.243.186.19-.26.063.034.071.01.07-.018.058-.041.056-.052.042-.065.048-.067.489-.544.569-.461.398-.392.616-.738-.005-.136.403-.286.09-.06.804-.759.818-.925.332-.375,1.312-1.833.695-.937.141-.037,1.136-1.308.8-.923.07-.08.044-.051.044-.056.057-.07.114-.148.674-.873.382-.745.041-.379.098-.247.364-.625.077-.091.262-.312.262-.219,1.075-1.6.292-.29.43-.431.324-.335.331-.508.428-.662.526-.812.458-.709.055-.085.92-1.426.307-.487.236-.374.058-.084.387-.561,1.621-2.35.715-1.285.475-.849.69-1.027.422-.627.333-.309.891-.826" vector-effect="none" fill="#c1c1c1" fill-rule="evenodd" stroke="#232323" stroke-linecap="square" stroke-linejoin="bevel" stroke-width=".25"/>
      <path d="M164.261,246.841l.122-.137.293-.34.426-.511.044-.054.327-.383.393-.465.749-.9.028-.034.507-.605.157-.183,1.53-1.772,1.221-1.809,1.226-1.811.631-.932.626-.928.651-.93.688-.985.569-.921.24-.388.333-.605.489-.885.669-.943.692-.978-.038-.022-.106-.062-.06-.035-.058-.034-.09-.051-.326-.222-.175-.096-2.563-1.421-2.619-1.455-2.749-1.516-2.6-1.444-.581,1.044-.535.968-.365.662-.17.307-.54.97-.536.966-.54.966-.57,1.043-.589,1.046-.508.966-.54.946-.53.958-.531.957-.549.989-.512.919-.529.958-.53.954-.531.956-.53.957-.531.956-.529.959,2.635,1.451.88.487.553.3,1.294.709,2.606,1.459.796.426.118.074.207-.387.044-.079.129.071.134.072.043-.053.033-.034.047-.056.028-.03" vector-effect="none" fill="#c1c1c1" fill-rule="evenodd" stroke="#232323" stroke-linecap="square" stroke-linejoin="bevel" stroke-width=".25"/>
      <path d="M190.709,226.581l-.047-.019-.104.252-.129-.051-.049.128.332.132.052-.133-.157-.061.103-.248" vector-effect="none" fill="#c1c1c1" fill-rule="evenodd" stroke="#232323" stroke-linecap="square" stroke-linejoin="bevel" stroke-width=".25"/>
      <path d="M165.111,262.496l.068-.125-.129-.071-.176.302.132.067.068-.122.172.106.029-.051-.165-.106" vector-effect="none" fill="#c1c1c1" fill-rule="evenodd" stroke="#232323" stroke-linecap="square" stroke-linejoin="bevel" stroke-width=".25"/>
      <path d="M174.721,206.324l-.57,1.036-.532.954-.53.961-.532.959-.534.956-.537.948-.523.967-.534.959-.531.959-.257.465-.051.094-.262.472-.578,1.044-.536.97-.536.97-.536.966-.54.971-.289.521-.247.447-.575,1.043-.581,1.044-.535.968-.365.662-.17.307-.54.97-.536.966-.54.966-.57,1.043-.589,1.046-.508.966-.54.946-.53.958-.531.957-.549.989-.512.919-.529.958-.53.954-.531.956-.53.957-.531.956-.529.959-1.862-1.032-1.744-.975-.129-.074-.122-.067-1.749-.961-1.862-1.055.535-.946.529-.946.522-.956.537-.958.53-.952.518-.965.53-.948.357-.64.176-.314.534-.962.537-.94.52-.963.532-.961.574-1.046.584-1.037.535-.966.539-.97.536-.972.534-.967.534-.967.541-.978.041-.084.575-1.024.11-.2.427-.772.537-.968.539-.972.545-.986.532-.958.574-1.019.573-1.052.523-.947.531-.959.513-.951.539-.961.542-.963.549-.971.515-.949.531-.949.56-1.056,1.872,1.047.525.29.345.19.876.484.128.071.101.058.273.151,1.082.597.428.236.684.379,1.169.646" vector-effect="none" fill="#c1c1c1" fill-rule="evenodd" stroke="#232323" stroke-linecap="square" stroke-linejoin="bevel" stroke-width=".25"/>
      <path d="M181.377,214.006l-.133-.719-.181-.982-.011-.395.269-1.716-.03-.093-.1-.171-.084-.046-.071-.044-.071-.042-.115-.075-.688-.387-.089-.046-1.392-.771-.607-.336-.749-.414-.875-.485-1.082-.602-.645-.359-.57,1.036-.532.954-.53.961-.532.959-.534.956-.537.948-.523.967-.534.959-.531.959-.257.465-.051.094-.262.472-.578,1.044-.536.97-.536.97-.536.966-.54.971-.289.521-.247.447-.575,1.043,2.6,1.444,2.749,1.516,2.619,1.455,2.563,1.421.175.096.326.222.09.051.058.034.06.035.106.062.038.022.676-.944.584-.818.915-1.029.853-.958.598-.823.466-.645.345-.474.376-.565.474-.711.398-.829.215-.776.371-.351.091-.349-.084-1.118-.048-.131-.08-.112-.108-.087-.126-.057.055-.119-.106-.061-.005-.018.162.087-.018.035.144.085.075-.139-.157-.093.018-.028-.052-.193.051-.015-.109-.455-.032.005.004.018-.035.01-.041.008-.005-.016-.03.008.106.459.051-.008.046.16-.016.024-.189-.115-.231-1.095-.403-1.112.158-.1.114-.15.056-.18-.013-.188.682-.221.033-.049-.008-.06-.284-.787-.043-.058-.072-.009-1.131.412-.189-.605" vector-effect="none" fill="#c1c1c1" fill-rule="evenodd" stroke="#232323" stroke-linecap="square" stroke-linejoin="bevel" stroke-width=".25"/>
      <path d="M187.823,212.978l-.025-.176.022-.17.094-.356-.133-.196-.253.086-.515.485-.098.428-.011.251.129.136-.568.759-.101.095-.081-.042-.138.16.071.094-.175.36.062.075.246-.29.094-.024.725-.925.251.117.184.005.516-.151.226-.169-.065-.492.009-.322-.177-.046.005.382-.124.048-.167-.122" vector-effect="none" fill="#c1c1c1" fill-rule="evenodd" stroke="#232323" stroke-linecap="square" stroke-linejoin="bevel" stroke-width=".25"/>
      <path d="M171.485,166.246l-1.674-.927-.622-.35-1.304-1.945-.584-.9-.64,1.152-.948-1.382-.037-.056-.072-.109-.764-1.149-.431-.648-.032-.048-.079-.12-.072-.099-.044-.063-1.275-1.848-1.385-.767-.387-.211-.427-.258-.217-.14-.071-.046-.06-.041-.152-.086-.094-.037-.152-.06-.799,1.097-.423.553-.049.078-.321.414-.854,1.394-.213.395-.892,1.822-.015.067-.278.513-.165.293h0s-.196.38-.196.38l-.155.26-.105.195-.259.515-.061.073-.138.27-.132.253-.16.288-.12.2-.134.263-.155.318-.047.128-.093.218-.044.043-.104.203-.314.558-.165.38-.089.218v.07l-.055.053-.043.095-.02.083-.085.103-.099.188-.003.065-.09.155-.199.39.018.058-.042.062-.1.158-.215.41-.044.115-.094.265-.015.11-.122.167-.221.323-.075.185-.202.306-.024.036-.52.933-.247.413-.128.245-.383.655-.292.476-.745,1.274.139.072.17.088.09.043.081.041,1.052.503,1.369.655.056.026.075.032.518.227,1.445.727.118.06.12.068.491.272.162.09.546.302.16.089,1.259.695.558.309,3.231,1.788,1.66.982.579-1.05.532-.956.51-.972.052-1.203-.037-.767-.009-.192-.015-.292-.035-.68-.006-.176.016-.175.039-.171.062-.165.541-1.042.03-.053.477-.861.022-.04.534-.961.378-.678.034-.06.094-.169.029-.052.534-.961.526-.957.537-.971,1.614.897.347-.615.229-.328.565-1.025.568-1.035" vector-effect="none" fill="#c1c1c1" fill-rule="evenodd" stroke="#232323" stroke-linecap="square" stroke-linejoin="bevel" stroke-width=".25"/>
      <path d="M178.463,151.248l-.376,1.056-.365,1.035-.368,1.047-.362,1.028-.368,1.038-.394,1.129-.404,1.134-.371,1.042-.189.512-.207.506-.227.498-.245.489-.246.447h0s-.261.438-.261.438l-.565.978-.67.893-.062.082-.606.785-.691.863-1.674-.927-.622-.35-1.304-1.945-.584-.9-.64,1.152-.948-1.382-.037-.056-.072-.109-.764-1.149-.431-.648-.032-.048-.079-.12-.072-.099-.044-.063-1.275-1.848-1.385-.767-.387-.211-.427-.258-.217-.14-.071-.046-.06-.041-.152-.086-.094-.037-.152-.06.176-.263.65-.971.428-.637.581-.864.52-.772.214.13.492-.851.075-.139.049-.074.176-.266-.089-.059-.063-.042-.047.07-.143-.095.323-.487.133.088-.234.36.067.043.101.066.314-.477-.143-.078.101-.161.127-.2-.253-.868-.043-.055-.131-.069-.136.257-.79-.434.356-.647.786.432-.143.26.153.084.058.055.033.069.218.743.006.021.137.093.379-.671.038-.267.043-.112.065-.123.157-.249-.336-.173.025-.052.074-.151-1.185-.658-.02-.011-.298-.157-.029-.013-.022-.011-.018-.012-.006-.007-.006-.007-.025-.036-.009-.015-.005-.015-.003-.009v-.004l.013-.058-.025-.013.482-.953,2.006,1.593.219.073.081.019.08.019.295.056.364.068.203.042.662.287.046.02.039.023,2.236,1.247.114.063.114.063.769.425,2.415,1.326.523-.943.527-.957,1.603.892.53-.948.98.54,1.346.748" vector-effect="none" fill="#c1c1c1" fill-rule="evenodd" stroke="#232323" stroke-linecap="square" stroke-linejoin="bevel" stroke-width=".25"/>
      <path d="M185.102,137.205l.238.131.597.33.223.122.195.118.312.167.414.229-.371,1.149-.333,1.054-.511.977-.521.944-.527.955-.526.948-.526.949-.525.942-.549.986-.573.991-.361.518-.313.448-.63.88-.643.901-.644.891-1.066-.586-1.346-.748-.98-.54-.53.948-1.603-.892-.527.957-.523.943-2.415-1.326-.769-.425-.114-.063-.114-.063-2.236-1.247-.039-.023-.046-.02-.662-.287-.203-.042-.364-.068-.295-.056-.08-.019-.081-.019-.219-.073-2.006-1.593.143-.285.024.012,1.806-3.592.207-.411.36.178.73-1.441.137.066-.004.006-.024.041,1.375.696.395-.771.181.087.089-.172h0s.028-.05.028-.05l.093-.17.103-.181.065-.108.055-.082.038-.05.087-.105.033-.043.014-.019.041-.062.037-.064.421-.783.712-1.516.915-1.813.316-.523.122-.313.176-.233.12-.24.272-.527.146-.244.051-.221.11-.212.013-.153.038-.18.065-.218.101-.23.067-.122.093-.119.053-.09.131-.21.065-.148.034-.09.041-.148.035-.067.09-.125.065-.137.084-.07.156.078.169.081.089.029.075.044.141.069.189.095.193.093.426-.107.08-.02.729.305,2.728,1.615.118.063.122.067,3.179,1.759,1.87,1.033.338.189.847.471" vector-effect="none" fill="#c1c1c1" fill-rule="evenodd" stroke="#232323" stroke-linecap="square" stroke-linejoin="bevel" stroke-width=".25"/>
      <path d="M183.473,172.887l-3.65-2.02-.09-.05-.077-.043-3.109-1.716-.115-.063-.098-.055-3.199-1.779-1.649-.915-.568,1.035-.565,1.025-.229.328-.347.615-1.614-.897-.537.971-.526.957-.534.961-.029.052-.094.169-.034.06-.378.678-.534.961-.022.04-.477.861-.03.053-.541,1.042-.062.165-.039.171-.016.175.006.176.035.68.015.292.009.192.037.767-.052,1.203-.51.972-.532.956-.579,1.05.944.517.409.224.357.134.357.103,2.899,1.6.074.039.053.03.041.022,2.851,1.578.272.156.082.042.101.051,1.662.925,1.387.772.597.342.194-.349.323-.584.551-.986.122-.221.061-.109.061-.11.058-.105.237-.427.034-.063.07-.124.053-.098.337-.608.051-.091.056-.101.056-.1.355-.641.594-1.075.572-1.034.532-.959.53-.96.337-.618.186-.339-.128-.071-1.055-.59-.676-.377.541-.955.536-.972.537-.948.523-.954.674.371.716.393.35.193.119.065.568-1.026.57-1.028" vector-effect="none" fill="#c1c1c1" fill-rule="evenodd" stroke="#232323" stroke-linecap="square" stroke-linejoin="bevel" stroke-width=".25"/>
      <path d="M191.931,128.767l-.212-.106-.046-.022-.21.318-.124.148-.117.126-.283.305-.485.491-1.017.983-.466.489-.336.332-.785.815-.369.401-.335.43-.224.36-.203.376-.127.27-.151.371-.047.137-.099.342-.12.299-.177.27-.184.256-.057.072-.141.219-.096.276-.015.059-.084.374-.082.18.597.33.223.122.195.118.312.167.414.229-.371,1.149-.333,1.054-.511.977-.521.944-.527.955-.526.948-.526.949-.525.942-.549.986-.573.991-.361.518-.313.448-.63.88-.643.901-.644.891-1.066-.586-.376,1.056-.365,1.035-.368,1.047-.362,1.028-.368,1.038-.394,1.129-.404,1.134-.371,1.042-.189.512-.207.506-.227.498-.245.489-.246.447h0s-.261.438-.261.438l-.565.978-.67.893-.062.082-.606.785-.691.863,1.649.915,3.199,1.779.098.055.115.063,3.109,1.716.077.043.09.05,3.65,2.02.526-.954.529-.948.53-.953.527-.952.527-.958.551-.989.317-.572.124-.222.289-.522.091-.164.119-.217.081-.15.601-1.031.549-1.04.072-.13.455-.818.532-.925.108-.215.099-.183.066-.123.276-.515,1.022-1.836.272-.581.213-.428.253-.56.124-.274.062-.141-.011-.159-.176-1.097-.07-.39-.049.225-.106-.559-.008-.044-.019-.267-.009-.122-.013-.291-.005-.152.086.045.101.058.228.121.332.09v-.161s0-.188,0-.188l-.165-.015-.018-.364.005-.049-.022-.516-.004-.091-.027-.64-.01-.207-.013-.277v-.065s-.028-.584-.028-.584l-.009-.206.004-.034-.006-.135-.014-.291-.009-.165v-.055s-.004-.094-.004-.094l-.019-.493-.004-.188-.015-.234-.014-.336v-.013s-.023-.076-.023-.076l-.062-1.1-.033-.562-.03-.415-.025-.088v-.233s-.038-.891-.038-.891l-.035-.898-.013-.01-.072-.977-.042-.572-.022-.298.068-.009-.108-1.047-.005-.056-.014-.128-.008-.083.02-.007-.013-.093-.011-.089-.005-.032-.014-.106-.008-.069-.025.009-.003-.059-.01-.02.006-.029.006-.017-.01-.019.01-.013-.008-.064-.009-.041.004-.025-.013-.029.009-.029-.008-.029.004-.041-.01-.045.003-.07v-.029s-.001-.07-.001-.07l.011-.038.004-.012-.003-.071-.009-.009-.003-.003v-.009s.009-.032.009-.032l-.01-.011-.006-.006-.023-.325-.022-.009v-.046s-.011-.047-.011-.047v-.062s.003-.038.003-.038l.015-.014-.006-.076-.018-.023-.009-.006-.004-.026-.023.002-.009-.04.029-.012.024-.023-.016-.203-.02-.023-.013-.018-.01-.092.023-.024-.009-.037-.015-.084-.013-.049.003-.035-.016-.037-.014-.034.011-.018-.005-.043-.023-.031.005-.065-.013-.031-.013-.031-.014-.024.004-.018-.013-.007v-.03s-.035-.025-.035-.025l-.038-.382-.208-2.162-.032-.351-.023-.237-.009-.127h.02s-.042-.646-.042-.646l-.018.003-.033-.487-.009-.26-.003-.034.025-.015.015-.028.013-.002-.004-.063.008-.033-.003-.025.009-.03-.004-.029-.008-.01-.004-.034-.003-.14-.014-.014.008-.017.02-.021-.01-.021.003-.018-.01-.041-.008-.02v-.029s.014-.032.014-.032l-.005-.021.004-.048-.008-.029.014-.014.004-.035.005-.074.01-.354.008-.041v-.047l.015-.229.016-.033-.008-.056.039-.439.013-.057-.006-.075.006-.144.043-.314.024-.016v-.021l.008-.011v-.042s.01-.04.01-.04l.008-.037-.043-.064.01-.062.024-.143.019-.22.006-.082.024-.23.024-.035.028-.12.025-.029.032-.024.039-.016.016-.045v-.031s-.009-.086-.009-.086l.028-.074.004-.042.023-.042.03-.016.037-.044.003-.045.037-.036.027-.007.022-.038.009-.034.03-.018.018-.039.006-.042.008-.029.033-.054.048-.036.023-.056-.005-.036-.015-.034.016-.035" vector-effect="none" fill="#c1c1c1" fill-rule="evenodd" stroke="#232323" stroke-linecap="square" stroke-linejoin="bevel" stroke-width=".25"/>
      <path d="M191.283,196.399l-.062.057-.075.067-.112.118.004.003.086.084-.321.317-.084-.084-.338.342-.223.406-.343.616-.432.783-.427.763.01.01-.033.062.01.03.067.038,1.014.568.015.015v.019s-.105.193-.105.193l-.01.008h-.018l-1.052-.569-.093.264-.195.572-.023.065-.153.451-.099.29-.06.184-.01.025-.053.157-.038.108-.049.144-.152.323.003.013-.015.019-.015.038-.166.376-.022.029-.07.105-.06.086-.341.504-.843,1.255-.649.966-.009.004-.01.004-.011.013-.032.016-.01.014-.025.018-.023.015-.029.019-.041.029-.027.02-.014.006-.028.023-.018.011-.058.041-.041.025-.041.033-.02.01-.027.022-.015.013-.033.023-.11.076-.106.076-.093.067-.02.018-.035.02-.01.01-.039.027-.057.039-.051.035h-.005l-.032.02-.022.015-.025.015-.048.03-.226.142-.071.039-.029.018-.03.022-.041.027-.317.205-.093.062-.172.118-.209.142-.185.128-.191.132-.157.106-.089.062-.051.035-.041.032-.119.11-.037.034-.081.074-.124.115-.101.091-.077.071-.095.087-.114.105-.053.053-.052.063-.039.065-.035.061-.046.084-.043.077-.057.112-.052.093-.128.222.009.035-.12.342-.03-.093-.1-.171-.084-.046-.071-.044-.071-.042-.115-.075-.688-.387-.089-.046-1.392-.771-.607-.336-.749-.414-.875-.485-1.082-.602-.645-.359-1.169-.646-.684-.379-.428-.236-1.082-.597-.273-.151-.101-.058-.128-.071-.876-.484-.345-.19-.525-.29-1.872-1.047.574-1.024.207-.362.333-.586.484-.871.592-1.062.523-.938.321-.583.072-.132.141-.255.527-.959.522-.967.544-.957.57-1.034.558-1.03.546-.959.546-.961.305-.594.221-.407.194-.349.323-.584.551-.986,1.26.697.61.337,1.2.674.118.067.392.221.152.086.158.087.867.488.072.041.774.437.703.383.145.079.318.174.176.096.523.285-.549.994-.534.953-.536.982,2.598,1.436,2.769,1.508.527-.963.53-.958,1.096.627,1.439.857.179-.196.125.15.058.06.055.055.065.07.035.035.028.03.034.035" vector-effect="none" fill="#c1c1c1" fill-rule="evenodd" stroke="#232323" stroke-linecap="square" stroke-linejoin="bevel" stroke-width=".25"/>
      <path d="M192.676,154.15l.032,1.537.008.875.005.955-.018.975-.025,1.416-.136-.003v.017l.005.017-.009.014v.02s.009.017.009.017v.024l-.013.029v.017s.02.022.02.022l-.013.044.008.041-.011.022.004.017-.013.027.01.037v.082l-.005.043-.003.048.013.046-.005.046v.031s-.018.039-.018.039l-.005.044.005.048-.006.046-.019.14-.004.054.008.025v.032s.009.039.009.039l-.009.036.01.058-.02.019.015.025-.013.031-.008.029.018.022-.003.034-.003.08.01.044.011.055-.029.056-.027.068.184.003-.008.355v.086s-.003.06-.003.06l-.005.079-.004.058-.066,1.093-.06.814-.029.315-.035.409-.063.569-.051.391-.067.487-.1.871-.025.521-.011.243-.03.603.004.558.144.768.02.042.072.451.016.122.65,1.611.27.43.081.125.087.124.011.016.104.181.176.238.351.485.279.387.982,1.375.057.071.023.035.01.034.022.013.019.024.027.053.022.021.099.155.042.063.128.189.038.068.015.028.018.035.029.052.046.08.008.018.06.102v.015s.02.028.02.028l.028.052.029.051.095.167.025.055.104.181.008.022.016.023.01.024.056.098.009.024.025.035.043.083v.014l.035.055.115.203.043.082.061.111.024.044.028.051.034.079.02.044.081.187.01.014.143.324.054.113.046.139-.005.01-.077.129.042.101.03.085.085.183.024.052.119.259.109.337.134.397.066.193.077.223.02.07.095.291.028.111.033.157.033.187.077.345.104.053.096.049.01.169.006.113.006.099.01.089.009.095.016.165.038.447.018.212.043.482-.02.606-.028.835-.03.996-.075,2.284-.02.105-.26,1.284-.033.066-.259.461-.176.323-.074.134-.15.265.038.03-.01.022.048.028-.027.052-.063-.028-.016.03-.016-.003-.025.046.02.014-.172.319-.044-.019-.104.184-.259.186-.805.573-.364.257-.267.193-.156.113-.095.071-.157.117-.08.06-.316.233-.184.125-.034.023-.155.105-.237.18-.267.207-.161.123-.029.023-.247.191-.283.264-.185.171-.212.202-.234.215-.079.075-.198.179-.265.229-.365.328-.034-.035-.028-.03-.035-.035-.065-.07-.055-.055-.058-.06-.125-.15-.179.196-1.439-.857-1.096-.627-.53.958-.527.963-2.769-1.508-2.598-1.436.536-.982.534-.953.549-.994-.523-.285-.176-.096-.318-.174-.145-.079-.703-.383-.774-.437-.072-.041-.867-.488-.158-.087-.152-.086-.392-.221-.118-.067-1.2-.674-.61-.337-1.26-.697.122-.221.061-.109.061-.11.058-.105.237-.427.034-.063.07-.124.053-.098.337-.608.051-.091.056-.101.056-.1.355-.641.594-1.075.572-1.034.532-.959.53-.96.337-.618.186-.339-.128-.071-1.055-.59-.676-.377.541-.955.536-.972.537-.948.523-.954.674.371.716.393.35.193.119.065.568-1.026.57-1.028.526-.954.529-.948.53-.953.527-.952.527-.958.551-.989.317-.572.124-.222.289-.522.091-.164.119-.217.081-.15.601-1.031.549-1.04.072-.13.455-.818.532-.925.108-.215.099-.183.066-.123.276-.515,1.022-1.836.272-.581.213-.428.253-.56.124-.274.062-.141-.011-.159-.176-1.097-.07-.39-.049.225-.106-.559-.008-.044-.019-.267-.009-.122-.013-.291-.005-.152.086.045.101.058.228.121.332.09.003.115.003.09" vector-effect="none" fill="#c1c1c1" fill-rule="evenodd" stroke="#232323" stroke-linecap="square" stroke-linejoin="bevel" stroke-width=".25"/>
      <path d="M201.006,183.419l-.034.055-.641-.375.155-.261.054.032-.118.209.584.341" vector-effect="none" fill="#c1c1c1" fill-rule="evenodd" stroke="#232323" stroke-linecap="square" stroke-linejoin="bevel" stroke-width=".25"/>
      <path d="M200.75,182.414l.437.28-.051.08-.34-.205.016-.039-.044-.028-.146.226-.06-.024.186-.289" vector-effect="none" fill="#c1c1c1" fill-rule="evenodd" stroke="#232323" stroke-linecap="square" stroke-linejoin="bevel" stroke-width=".25"/>
      <path d="M200.407,187.745l-.196.051.009.034-.375.118-.042-.124.376-.12.018.046.19-.061.02.057" vector-effect="none" fill="#c1c1c1" fill-rule="evenodd" stroke="#232323" stroke-linecap="square" stroke-linejoin="bevel" stroke-width=".25"/>
      <path d="M200.942,183.065l.212.122-.016.029-.219-.134.006-.013.013.006.005-.01" vector-effect="none" fill="#c1c1c1" fill-rule="evenodd" stroke="#232323" stroke-linecap="square" stroke-linejoin="bevel" stroke-width=".25"/>
      <path d="M200.407,187.745l.079.222.093.328.101.428.072.697v.027s-.018.383-.018.383l-.02.491-.011.222-.038.218-.063.212-.089.202-.17.496-.019.076-.108.409-1.056,1.908-.035.079-.032.091-.022.186.005.188.082.806.309.298.232.208.772.103-.113.212-.051.037-.051.037-.299.431-.094.172-.271.393-.019.079.01.046.01.047.028.037.099.02.151-.027.108-.008.058.004h.084l.067-.056.075-.015.087.015h.086l.06-.027.112.023h.086l.134.016.104.023.043.009.158-.018.09-.066.071-.134.095-.209.016-.39-.043-.242-.162-.17-.082-.032-.071.004-.071-.063-.044-.146.084-.018.043-.01.233-.015.3.087.652.004.032.063-.008.052-.056-.003-.15-.053-.19-.028-.252.043-.155-.047-.272-.028-.063.06.024.047.123.047.196.06.131.063v.147l.008.11.048.205.029.09.046.136.004.134-.052.129.004.134.024.103.004.166-.048.147-.175.057-.19.003-.289-.063-.164-.046-.133-.037-.522-.033-.812-.019-.606-.218-.145.035-1.099-.629-.067-.015-.07.037-1.096.592-.131-.056-.735.782-.73.986-.157.213-.186-.039-.341.828-.501.716-2.996,4.628-.058.357-.034.293-.144.683-.098.202-.06.248-.019.451.103.42.196.355.473.48.445.593,2.73.475,1.877.453.483.205.382.281,1.319,1.017.791.613.454.134.364-.106.106-.038.106-.039.07-.016.255-.061.217-.158,1.646-1.501.382-.15h.171l.103.039.015.006.093.042.205-.009.245-.034.223-.117.196-.207.073-.058.014-.004.133-.041.068-.103.056-.103.003-.005,1.098-1.042.247-.326.482-1.875.283-1.112.227-.374.119.08,3.922-5.686-.094-.075.03-.338.151-.165.359-.361.328-.202.852-.454.032.018.248.144.805-.996-.157-.158.91-1.017.19-.091.25-.26.636-1.167.937-1.619-.025-1.032-.736-1.761-1.181-2.133-1.096-.948-.269-.264-1.478-.769-.09-.027-1.08-.549-.089-.044-.009-.004-.082-.047-.093-.056-.108-.063-1.25-.754-.047-.072-.26-.374-.303-.526-.226-.385-.119-.321-.234-.575-.667-.993-.284-.189-.555-.369-2.003-.177-1.062-.019-.018.005-.234.06-.238.222-.09.123-.057.134-.063.139-.729,1.366-.051.08-.153.229.212.122-.042.062-.016.029-.131.203-.034.055-.128.17-.056.074-.033.071-.022.081-.022.077-.397,1.403-.246,1.216.043.629.188.463.07-.011.016.043.02.057" vector-effect="none" fill="#c1c1c1" fill-rule="evenodd" stroke="#232323" stroke-linecap="square" stroke-linejoin="bevel" stroke-width=".25"/>
      <path d="M195.465,111.286l-1.69-.93-1.612-.897-1.428-.79-1.074-.605-.78.92-.109.14-.142.152-.118.152-.114.121-.093.119-.123.151-.35,1.042-.071.234-1.725-.427-1.058-.275-1.076-.251-.8-.203-.493-.004-.304.022-.155.039-.15.092-.17-.025-.215-.035-.191.029-.295.046-.155.012.382-.996.029-.075.152-.419.194-.648.022-.072.034-.16-.755-.171-.184-.048-.142-.035-.455-.112-.274-.068-.06-.015-.179-.049-1.142-.284-.553-.139-.536-.135-.1-.027-.039.103-.004.017-.011.046.008.019v.022s-.046.114-.046.114l-.006.048.035.043-.011.077.013.027.037.012.025.011.013.021-.024.012-.035.012-.024.03-.003.031.049.072.022-.002.01.016-.044.045.051.101v.047s-.008.016-.008.016l-.009.052.077.215.006.053.014.071.033.081v.171s.019.068.019.068l.03.047.065.075.027.054.015.055.016.21.048.074.016.062.018.141-.051.114.033.259.008.41.029.185v.098s-.004.105-.004.105l-.02.315-.018.085-.034.237-.015.353-.058.14-.038.08-.032.099-.018.235.041.21.084.262.09.213.143.14.051.098.043.135.038.12.061.185.003.128-.089.142-.035.008-.056.046-.015.05.039.047.044.066-.039.003.015.059.032-.007.152.221.035.077.054.174.027.176.042.105-.006.041-.039.049-.014.114.02.042.016.052.035.11v.147l.016.138.022.043.006.049.015.032.035.398-.014.151.008.047-.024.181.014.089-.027.101.004.044.023.151-.004.065-.025.077-.006.171-.003.006-.082.205-.06.127-.075.17-.065.16-.103.306-.104.205-.079.153-.109.116-.052.085-.038.112-.094.168-.077.131-.029.122-.17.356-.015.032-.015.041-.039.152-.049.088-.075.075-.125.169-.123.372-.077.258-.058.182-.119.223-.061.211-.114.351-.123.369-.125.287-.184.532-.047.083-.07.101-.109.208-.079.295-.075.157-.112.402-.115.429-.095.221-.104.355-.087.333-.171.751-.033.106-.418,1.503.052.099.065.035h.003s.072.018.072.018l.087.017.022.027-.008.034-.044.015-.07.006-.08.015-.061.061-.042.093-.043.184-.022.273-.023.112-.028.018-.013.045-.034.124-.006.054.003.051.008.182-.011.09-.023.134-.03.106-.004.118-.049.164-.015.047-.105.313-.374,1.499.156.078.169.081.089.029.075.044.141.069.189.095.193.093.426-.107.08-.02.729.305,2.728,1.615.118.063.122.067,3.179,1.759,1.87,1.033.338.189.847.471-.028-1.677.119-.379.183-.353.403-.724.098-.268.094-.26.134-.242.172-.217.204-.186.768-.864.248-.259.207-.293.162-.32.112-.341.129-.387.426-1.222.416-1.189.385-1.106.356-1.003.176-.348.15-.228.165-.218.18-.206.194-.193.205-.179.15-.193h0s.131-.215.131-.215h0s.108-.234.108-.234h0s.08-.25.08-.25l.051-.261.019-.266h0s-.013-.265-.013-.265h0s-.044-.259-.044-.259h0s-.074-.248-.074-.248l-.098-.232h0s-.001,0-.001,0l-.119-.212-.165-.422-.184-.644-.039-.161h0s-.016-.168-.016-.168h0s.006-.169.006-.169h0s.03-.166.03-.166h0s.051-.158.051-.158l.494-.915.544-.986.303-.535.228-.4.574-1.035.56-1.014.095-.171.44-.793.516-.936.098-.169.062-.12.099-.175.033-.058.038-.058.035-.065.034-.065.075-.141.076-.141.529-.956" vector-effect="none" fill="#c1c1c1" fill-rule="evenodd" stroke="#232323" stroke-linecap="square" stroke-linejoin="bevel" stroke-width=".25"/>
      <path d="M198.533,81.795l-.714-.787-.753-.817-1.079-1.188-.3-.302-.114-.114-.16-.18-.104-.112v-.448l-.071-.387-.735-.401.023.034.098.096.033.092.019.088-.004.063-.006.027-.02.061-.038.1-.028.094-.261-.139.108-.347-.101-.031-.133.426.324.166-.122.256-.112.019-.133.088-.074.13v.099s.035.017.035.017l.094.009.112.019.054.04.03.074.011.25.027.042.005.067-.056-.012-.009.028-.053-.027-.166-.084-.013-.006.006-.013-.027-.012-.051.113.02.009.005.003-.122.268.027.012.003.002.004-.008.009-.02.041-.088.013-.027.037-.081.008-.016.042-.094.003-.004.053.027.151.085-.008.04.063.024-.015.046.009.085-.115.632.008.04.015.046.004.043-.015.177-.027.259-.044.192-.108.241-.034-.005-.058.157-.072-.028.018-.044-.226-.086-.071.187.161.062.008-.018.108.042-.198.389-.279.649-.066.2-.145.282-.077.006-.091.156-.039.134v.094l-.066.063-.094.159.004.114-.068.088-.184.428-.086.029-.1.097-.077.23v.245l-.075.088-.128.151-.046.099-.144.124-.09.35-.214.357-.158.265-.11.2-.861,1.528-.432.643-.588.943-.388.86-.009.073.018.056-.009.032-.183.175-.085.131-.061.202-.048.216-.252.41-.262.476-.008.082.041.039.025.018v.023s-.032.023-.032.023l-.207.226-.136.158-.529.687-.124.327-.024.142-.074.095-.176.37-.004.053-.299.5-.146.313-.081.246-.129.225-.07.05-.095.184-.043.115-.241.411-.086.164-.112.083-.194.257-.081.178-.077.144-.072.034-.169.293-.066.192-.063.218-.096.257-.152.296-.086.241-.061.009-.025.06-.1.284-.118.155-.061.161.011.086-.038.082-.233.451-.037.101-.054.227-.113.169-.101.269-.005.013-.041.098-.052.135-.172.365-.112.181-.049.187-.214.326-.485.738-.157.158-.218.331-.265.344-.038.038-.487.488-.141.078-.226.051-.1.039-.09.082-.037.118-.025.064-.067-.024-.072-.018-.074.018-.029.06.013.071-.039.015-.053.058-.03.04-.009.051-.049-.004-.046-.045.011-.058-.029-.018-.037.011-.009-.003-.03.016-.02-.002.003-.015.019-.037-.02-.051-.085.022-.013.024-.051.027-.041-.018-.019.017-.008.05-.003.022.005.041-.006.018-.024.013-.06.022-.013.007-.117.065-.065.036-.052-.002-.033.046-.043.047-.025.049-.103.08-.048-.009-.082.033-.008.038.034.041-.011.042-.03-.004-.038.015-.011.024-.077.025.013.04-.02.016-.03-.016-.032-.002-.037.085-.044.015-.009.064h-.033l-.066.124-.047.044-.034-.024-.053-.002.004.047-.049.042h-.085l-.063-.027-.041-.004-.039.027-.096-.025-.081.024-.022.027-.006.093.051.092h0s.013.039.013.039l.006.042-.018.022-.027-.004-.016-.023-.014-.036v-.036s-.014-.024-.014-.024l-.016-.007-.016.031h-.016l.005.088.027.025-.028.08-.053.032-.037.067-.025.012-.022-.008-.014-.011-.013-.011-.016-.026v-.035s.028-.017.028-.017l.009-.029-.02-.038-.039-.034-.063-.027-.052.003-.051.026-.332.469-.014.019-.063.091-.066.094-.044.095.1.027.536.135.553.139,1.142.284.179.049.06.015.274.068.455.112.142.035.184.048.755.171-.034.16-.022.072-.194.648-.152.419-.029.075-.382.996.155-.012.295-.046.191-.029.215.035.17.025.15-.092.155-.039.304-.022.493.004.8.203,1.076.251,1.058.275,1.725.427.071-.234.35-1.042.123-.151.093-.119.114-.121.118-.152.142-.152.109-.14.78-.92,1.074.605,1.428.79,1.612.897,1.69.93.269-.477.321-.578.304-.553,1.06.546.839-1.731.366-.488.484-.404.39-.571.503-.735.46-1.127.025-.582.028-.591-.769-.438.529-.959.51-.919,1.753-3.211.374-.612.312-.645.054-.246.016-.251-.02-.251-.057-.245-.354-.893-.091-.132-.109-.118-.124-.102-.137-.083-.174-.064-.181-.033-.184-.002-.183.03-.175.061-.161.089-.143.116-.122.139-.196.345-.233.32-.246-.917.027-.253.054-.254.082-.25.112-.242.137-.229.162-.211.183-.19.199-.167.212-.141.223-.186.212-.209.194-.23.176-.25.153-.267.128-.281.103-.292.076-.298.014-.093.047-.221.038-.321.008-.269.157-.38.016-.068.043-.021-.027-.057-.707-1.45-.74-1.515-.706-1.451-.338-.691-.417-.851-.914-1.014-.776-.827" vector-effect="none" fill="#c1c1c1" fill-rule="evenodd" stroke="#232323" stroke-linecap="square" stroke-linejoin="bevel" stroke-width=".25"/>
      <path d="M205.946,98.674l-.037-.452v-.361l.035-.058-.032-.042-.006-.463.051-.037.047-.03.053.02.032-.042.061-.033.066-.087-.042-.009-.027-.019.013-.042.096-.02.034-.114.087-.087.033-.035.027-.031.022-.032.015-.015.027-.011h.03s.042-.011.042-.011l.066-.022.048-.012.046-.022.02-.012.033-.017.03-.016.038-.036v-.097l-.025-.09-.006-.032-.008-.048.009-.04.033-.049.042-.041.07-.028.067-.034.044-.016.068-.032.094-.155.093-.044.237-.87.028-.15-.018-.055-.014-.045-.053-.008-.011-.021-.077.015-.028-.009.01-.018.024-.008-.024-.019.006-.023.018-.045-.009-.035-.003-.031-.016-.023-.011-.013-.034-.006.009-.042.014-.061.035-.062-.016-.004-.004-.016-.016-.008-.02-.024.013-.014.006-.029-.034-.035-.046-.01-.018-.032-.025-.035-.034-.007-.02-.033-.008-.034.01-.04.006-.033.011-.014v-.032l-.019-.049-.025-.035-.037.008-.028-.004-.043-.018-.02-.028h.02l.029.017.037.015.02-.007-.013-.03-.018-.012-.022-.008-.024-.01-.027-.019-.013-.012h-.013s-.01-.018-.01-.018l-.025-.019-.023-.023-.029-.025-.016-.013-.024-.009-.023-.025-.03-.015-.016-.025h-.053s-.022-.02-.022-.02l-.018-.011-.016.013-.015-.011-.019-.014-.015-.019-.047.004-.048-.015-.027-.017-.011-.02.022-.019-.046-.033-.02-.029-.006-.029.01-.062.009-.046v-.031s.016-.014.016-.014l.006-.036.034-.008.015-.037-.039-.029-.022-.017.037-.018.015.017.023.011.046-.003.004-.02.011-.005-.019-.025h-.013s-.025-.039-.025-.039l-.006-.036-.009-.01v-.013s.008-.006.008-.006v-.026l-.019.003-.03-.02-.015-.02.005-.029.003-.022.02-.008v.028s.014-.008.014-.008v-.017h.041l.011-.031h.022s-.016.015-.016.015l.041.002-.013.018.047.012.048-.005v-.031s-.024-.002-.024-.002v-.013s.005-.017.005-.017l-.019-.025-.018-.004.011-.037-.02.007-.022-.004-.018-.02v-.039h.032l.011-.033-.02-.028.014-.081.022-.114.032-.077.03-.112.051-.166.038-.041h.016s.03-.037.03-.037v-.011l.067-.049.032-.018.043-.024.034-.032.022-.002.006-.006.022.004.06.04.079.137.152.248.123.27.163.338.011.022.079.191.063.071-.005.042.032.052.02.041.038.006.129.071v.011l.087.05-.009.017.011.009-.056.078.47.271.129.073.054.03.086.048.077.049.003-.011-.086-.064-.072-.035-.03-.021-.025-.008-.131-.079-.032-.01-.118-.064-.011-.013-.039-.023-.032-.012-.065-.038-.158-.091.02-.032.011.005.024-.039.018-.023.062.028.09.05-.01.014.223.117.319.173.304.171v.011l.025.012.025-.011.024-.035.049-.063.043-.067.074-.099.123-.172.11-.147.153-.215.117-.16.02-.032.124-.164-.027-.017.094-.129-.022-.009.061-.087-.019-.017.01-.019v-.009s.018-.02.018-.02l.014.014.028-.044.025-.022.013-.045.006-.036-.008-.042.027-.047.033-.02.035-.017.033-.049.01-.031.028-.033.019.002.018-.041.005-.042.004-.017.02.012.02-.049-.008-.024.014-.06.013-.053.018-.039-.085-.039.199-.28.243-.33.118-.169.025-.027.052-.08-.044-.018v-.017l.023-.022-.003-.016.025-.036.006-.016h.014s.004-.026.004-.026l.024-.047.023-.027-.004-.048-.013-.025.015-.042-.006-.028.023-.032.027-.046.065-.079.047-.073.037-.043.049-.061.025-.023.024-.024.009-.022.019-.025.016-.019.02-.022.014-.02.027-.054.024-.047.057-.087.003-.071.034-.058.042-.071.056-.095.028-.023.046-.064.09-.113.071-.076.199-.109.048-.033.032-.015.065-.021.011-.013.005-.007.023-.027.008-.01.009-.01.018-.021.008-.01.074-.08.016-.019.01-.011.025-.026.018-.019.006-.007.032-.017.039-.027.011-.007.038-.026.076-.078.03-.031.01-.01.133-.137.06-.061.023-.024.042-.031.075-.072.176-.218h.001s.02-.027.02-.027l.075-.086.005-.007.009-.009.022-.025.023-.03.044-.058.071-.097.03-.041.013-.022.011-.013.062.036h.018s.011-.016.011-.016l-.008-.005.013-.014.01.008.02-.02-.015-.01.011-.023.053.032.024-.043.057-.104.074-.119-.028-.016.076-.106-.076-.047-.014.002-.038-.022.005-.038-.01-.037-.015-.035-.014-.031.009-.069.01-.025.048-.102.011-.029.049-.123.014-.028.02-.026.042-.04.014-.013.048-.03.042-.035.02-.017.029-.043v-.084s-.001-.013-.001-.013l-.003-.066-.003-.085v-.026s-.005-.029-.005-.029l-.003-.028-.009-.073-.024-.047-.029-.031-.03-.036-.051-.048-.074-.043h-.011s-.024-.003-.024-.003l-.041.005-.062.019-.104-.007-.038-.007-.06-.017-.068-.014h-.018s-.056-.011-.056-.011l-.049-.017-.025-.013-.02-.01-.03-.026-.033-.041-.005-.047-.005-.058.014-.058.028-.042.044-.027.051-.014.067-.011h.055s.054-.012.054-.012l.03.003.008.06.207-.037-.005-.077.028-.005.006-.031-.004-.016.205-.024.1-.009.096-.014.013.003.035.015.734.401-.074-.21-.077-.154-.45-.24.005-.016.62-.068h.09s.068-.033.068-.033l.098-.032.151-.068.119-.044.02-.01.085-.157.376-.64.463-.785.337-.574.324-.547-.005-.021-.208-.117.132-.205.191-.307.257-.42.153-.241.12-.203.169-.255-.073-.042.022-.039.004-.033.022-.018.029-.026.025-.02.02-.033.01-.032.004-.056-.018-.022.014-.02h.019l.014-.027.018-.033-.003-.047.024-.017-.003-.021.014-.019v-.025s-.001-.015-.001-.015h-.009l.004-.015-.003-.031.005-.021.019-.039.051-.054.016-.029.033-.031.027-.018.025-.027.046-.064.006-.029h.013s.011-.026.011-.026l.01-.034.015-.079v-.031l.011-.051.047-.104.027-.023.01-.033.023-.077.03-.031.006-.035.014-.027-.004-.035.018-.017.01-.028-.006-.045.006-.02-.01-.034.005-.028-.009-.024.004-.017.008-.026.028-.034.024-.035.037-.021.06-.005.041-.019.019-.005.006-.023.016-.038-.013-.021.023-.028-.016-.031.018-.051.03-.02v-.019l.019-.018-.004-.028.005-.026.023-.051.028-.067-.035-.018-.041-.018h-.024s-.006-.054-.006-.054l-.27-.151-.003-.034-.042-.012-.008-.011-.019-.005-.009-.015-.046-.02-.009-.055-.004-.064.013-.033.028-.028.067-.043.041-.002.049.021.056.035.077.044.066.026.086.05.022-.02.035.003.025.021.035-.009.037-.039-.025-.023.006-.057.025-.053-.008-.021.01-.016v-.031s-.009-.017-.009-.017l.018-.026.014-.042.024-.029.027-.009-.035-.018v-.038s.013-.046.013-.046l.013-.027-.018-.007.019-.053.008-.039.015-.027v-.016s-.01-.01-.01-.01v-.036l.019-.031v-.026l.008-.023.02-.042-.008-.007.004-.035.009-.055-.006-.033.01-.017v-.037l-.004-.068.028-.081v-.033s.009-.049.009-.049l.004-.041.024-.048-.019-.027-.004-.06.006-.052.004-.081-.015-.025.019-.035.008-.017-.016-.069.003-.049.01-.032-.005-.026.005-.021.003-.017.028-.073-.023-.032.009-.062.013-.061.009-.03.004-.037.028-.023v-.031s.015-.028.015-.028v-.039s-.024-.048-.024-.048l-.016-.028-.011-.04.009-.035.014-.037.011-.037.014-.025.024-.009.01-.02.003-.015.037-.089.019-.029.014-.039.014-.013.023-.084.009-.019-.01-.026.018-.038.027-.019.01-.025.022-.008.024-.018.009-.038.02-.015.016-.022-.015-.02-.005-.02v-.045s.008-.042.008-.042l.018-.004.003-.03-.019-.007-.005-.017-.008-.114-.009-.1-.014-.081-.008-.052-.006-.049-.011-.098-.027-.123-.032-.122-.01-.049.018-.023-.003-.038-.028-.089-.042-.104-.051-.118-.005-.052-.024-.033-.032-.069-.077-.135-.08-.1-.096-.086-.034-.052-.02-.013-.006-.041-.015-.024-.014-.046-.023-.049-.032-.04.004-.036-.023-.045-.033-.039-.024-.038.006-.026-.005-.026-.058-.089-.015-.02-.015-.028.006-.016-.011-.006-.008.006-.039-.066-.057-.055-.035-.043-.063-.055-.077-.082-.104-.084-.171.168-.115.113-.139.18-.117.196-.33.442-.376.403-.781.811-.631.647-.227.214-.094-.052-.066-.033-1.055-.589-1.416-.782-1.038-.581-1.458-.782-1.191,1.162-.279.284.517,1.611-1.902,1.728-.735.653-.34.252-.366.21-.234-.475-1.712.674-2.754.773-.226.187-.706.672-1.996,1.849.776.827.914,1.014.417.851.338.691.706,1.451.74,1.515.707,1.45.027.057.022.048.053.101.075.148.617,1.289.52.999.785,1.506.081.087.081,1.962.048,1.138.003.364-.019.364-.02.217-.079.504.299.147.322.15" vector-effect="none" fill="#c1c1c1" fill-rule="evenodd" stroke="#232323" stroke-linecap="square" stroke-linejoin="bevel" stroke-width=".25"/>
      <path d="M205.941,98.669l.063.038v-.025l.013-.013.013-.025.013-.038.025-.063.025-.038.038-.076.025-.063h.013l.013-.013h.013v-.051l.101-.177h.013l.241-.444.076.038.076-.139.025.013.089-.165.089-.152-.215-.114-.076.165-.076.152.013.013-.076.152.013.013-.089.177-.139.266.013.013-.101.177h-.013l-.013.013h-.013v.051l-.013.025-.152.266-.013.013v.013h-.013" vector-effect="none" fill="#c1c1c1" fill-rule="evenodd" stroke="#232323" stroke-linecap="square" stroke-linejoin="bevel" stroke-width=".25"/>
      <path d="M205.946,98.674l-.322-.15-.299-.147.079-.504.02-.217.019-.364-.003-.364-.048-1.138-.081-1.962-.081-.087-.785-1.506-.52-.999-.617-1.289-.075-.148-.053-.101-.022-.048-.043.021-.016.068-.157.38-.008.269-.038.321-.047.221-.014.093-.076.298-.103.292-.128.281-.153.267-.176.25-.194.23-.212.209-.223.186-.212.141-.199.167-.183.19-.162.211-.137.229-.112.242-.082.25-.054.254-.027.253.246.917.233-.32.196-.345.122-.139.143-.116.161-.089.175-.061.183-.03.184.002.181.033.174.064.137.083.124.102.109.118.091.132.354.893.057.245.02.251-.016.251-.054.246-.312.645-.374.612-1.753,3.211-.51.919-.529.959.769.438-.028.591-.025.582-.46,1.127-.503.735-.39.571-.484.404-.366.488-.839,1.731-1.06-.546-.304.553-.321.578-.269.477-.529.956-.076.141-.075.141-.034.065-.035.065-.038.058-.033.058-.099.175-.062.12-.098.169-.516.936-.44.793-.095.171-.56,1.014-.574,1.035-.228.4-.303.535-.544.986-.494.915-.051.158h0s-.03.166-.03.166h0s-.006.169-.006.169h0s.016.168.016.168h0s.039.162.039.162l.184.644.165.422.119.212h.001s.098.232.098.232l.074.247h0s.044.259.044.259h0s.013.265.013.265h0s-.019.266-.019.266l-.051.261-.08.25h0s-.108.235-.108.235h0s-.131.215-.131.215h0s-.15.193-.15.193l-.205.179-.194.193-.18.206-.165.218-.15.228-.176.348-.356,1.003-.385,1.106-.416,1.189-.426,1.222-.129.387-.112.341-.162.32-.207.293-.248.259-.768.864-.204.186-.172.217-.134.242-.094.26-.098.268-.403.724-.183.353-.119.379.028,1.677.238.131.082-.18.084-.374.015-.059.096-.276.141-.219.057-.072.184-.256.177-.27.12-.299.099-.342.047-.137.151-.371.127-.27.203-.376.224-.36.335-.43.369-.401.785-.815.336-.332.466-.489,1.017-.983.485-.491.283-.305.117-.126.124-.148.21-.318.046.022.212.106.105-.336.057-.18.032-.1.1-.289.11-.295.101-.257.122-.303.156-.364.158-.318.124-.285.075-.191.056-.123.071-.177.105-.248.114-.262.08-.186.161-.37.19-.516.733-1.728.379-.889.354-.838.198-.463.157-.371.286-.717.094-.211.098-.274.009-.073.019-.041.015-.026.052-.198.034-.127.027-.095.054-.184.056-.201.011-.053.028-.086.053-.194.054-.192.062-.225.091-.329.053-.182.058-.185.082-.252.062-.162.061-.162.065-.165.077-.191.062-.137.065-.143.056-.119.054-.116.049-.088.067-.126.219-.416.056-.105.063-.125.047-.09.886-1.657.034-.066.041-.076.038-.078.035-.076.203-.379.091-.17.19-.36.37-.703.151-.293.138-.272.172-.315.16-.313.224-.431.242-.431.255-.468.275-.522.022-.04.242-.469.156-.308.016-.056.03-.039.114-.226.022-.044.085-.174.027-.046.112-.22.013-.046.049-.082.076-.146.089-.177.058-.105.023-.062.07-.138.052-.098.02-.02.01-.033.042-.085.043-.076.046-.079.013-.043.056-.075.352-.666.265-.51.499-.911.468-.825.219-.38.328-.556.267-.452.095-.158.174-.292.312-.504.141-.221-.02-.014-.056-.028" vector-effect="none" fill="#c1c1c1" fill-rule="evenodd" stroke="#232323" stroke-linecap="square" stroke-linejoin="bevel" stroke-width=".25"/>
      <path d="M201.209,65.18l-.013.017-.076-.012-.057.053-.089.116-.337.445-.731.773-.504.142-.081.054-.128.092-.212.258-.302.393-.491.546-.193.28-.161.399-.629,1.338-.132.122-.819,1.806-.186.412-.251.337-.184.506-.18.346-.106.475-.153.327-.212.381-.15.313-.137.569-.018.266-.087.312-.096.431.009.384.735.401.071.387v.448l.104.112.16.18.114.114.3.302,1.079,1.188.753.817.714.787,1.996-1.849.706-.672.226-.187,2.754-.773,1.712-.674.234.475.366-.21.34-.252.735-.653,1.902-1.728-.517-1.611.279-.284,1.191-1.162,1.458.782,1.038.581,1.416.782,1.055.589.066.033.094.052.227-.214.631-.647.781-.811.376-.403.33-.442.117-.196.139-.18.115-.113.171-.168-.072-.053-.07-.047-.511-.339-.245-.159-.247-.138-.125-.058-.141-.058-.183-.047-.105-.014-.07.002-.065-.018-.054-.023-.06-.037-.063-.053-.052-.023-.06-.013-.176-.067-.101-.057-.369-.107-.109-.047-.233-.096-.028-.016-.477-.193-.404-.149-.103-.037-.179-.057-.205-.025-.204-.025-.124-.012h-.094l-.144.012-.146.007-.095.022-.132-.005-.152-.031-.108.022-.058.035-.142.028-.099.065-.11.05-.124.044-.081-.004-.103.033-.039.068-.081.033-.1.052-.063.011-.12.055-.118.052-.072.079-.061.059-.076.066-.051.02-.164.18-.015-.084-.006-.003.209-.412.022.011.222-.45-.09-.043-.223.45.018.009-.202.412-.014-.006-.112.131-.016.053-.009.019-.052.004-.022.016-.029.023-.018.046-.019.034-.023.024-.054.026-.057.034-.038.031-.028.035-.024.026-.016.02-.028.007-.008.023-.008.031v.024l.027.035-.013.017-.03-.004-.018-.022-.018-.005-.03.037-.037.03-.039.028-.014.02h-.028s-.018.036-.018.036l-.018.05v.053s.018.053.018.053l.022.022.072.049.043.02.054.038.035.026.023.058.008.035-.02.018h-.037l-.047.003-.023.006-.004-.01-.005-.013-.01-.011h-.011s-.005,0-.005,0l-.023-.014-.018-.023v-.021s-.005-.017-.005-.017l-.019-.023-.019-.012h-.016s-.016.002-.016.002l-.011.004-.009.005-.005.013-.008.013-.014.011-.028.003-.013.006-.008.003h-.008l-.004-.004v-.006s.008-.008.008-.008l.009-.01.011-.01.003-.011-.009-.008-.01-.01v-.022l-.008-.004-.006-.008-.014-.007-.011-.005-.013-.012-.009-.015-.011-.01-.014-.004-.014-.003h-.014s-.011.005-.011.005h-.009s-.01,0-.01,0l-.011.003-.014.005-.005.01-.009.01h-.013s-.016.001-.016.001l-.022.004-.015.012-.081-.087-.062-.08-.054-.091-.062-.102-.035-.069-.044-.022-.022-.004-.039-.058.032-.014-.014-.131.008-.134.047-.127.018-.127v-.123l.008-.091.014-.025.033-.062.041-.055.01-.091.022-.051-.003-.036.028-.047.033-.054.044-.033.065-.112.067-.069.041-.093-.03-.093-.081-.049-.065-.062-.113-.062-.041-.036-.053-.011-.091-.033-.17-.091-.131-.08-.051-.011-.041-.007-.037-.04-.043-.004-.039-.025-.051-.051-.087-.073-.072-.029h-.084l-.029.004-.087-.044-.086-.054-.105-.058-.051-.033-.041-.062-.105-.055-.113-.051-.098-.065h-.047l-.051-.022-.08-.051-.047-.036-.052-.03-.08.021-.022.009-.011-.013-.011.002-.005.017-.013.01v.014s-.03.013-.03.013l-.016.016-.01.028-.014.023-.024.013-.015.014-.014.037-.024.037-.006.016-.02.024-.029.012-.003.014-.006.014.01.022-.008.022-.019.006-.005.02-.003.019-.014.005.003.005-.019.012.003.012-.014.008v.012s-.004.012-.004.012l.004.023v.014l-.014.009.008.031v.017l.01.017.013.027.018.044.03.053.038.054.03.027.027.039.019.049.018.012.015.021v.027l.018.035.029-.002.01.023.013.022.005.021.009.002v.028s-.009.028-.009.028l.004.016.016.018.016.028.005.025.005.024.016.019.019.019h.01s.005.017.005.017l-.004.014.015.022.015.012v.012l.008.02.011.015-.005.022.018.021-.005.024.013.012v.013s.018.031.018.031l.014.032-.004.036.018.022.02.032.011.037.018.022-.013.007.016.06.013.038.019.041.01.028-.17.097.006.032.016.023.022.002.165-.088.024.043.034.04.038.054.052-.023.029.035.038.046.042.034.062.051.07.053.08.058-.022.024.032.029.022-.026.047.036-.018.028.03.022.016-.027.152.119.015.002.013.023-.008.015.009.033.008.038.006.026.003.017.006.022.006.013-.005.032-.005.033.018.015.02.023.029.008h.032s.047-.005.047-.005l.046.009v.061l-.042-.006-.052.004-.037-.004-.008.023h-.018s-.003.008-.003.008l-.018.019-.005.035-.004.022-.015.013.005.03v.039s-.006.024-.006.024l.013.032-.003.062-.016.017-.01.027-.011.041-.033.046-.035.061-.015.045-.025.029-.022.02-.025.02-.01.024-.019.016-.02.021-.03.004-.034.025-.039.044-.022.023-.018.012-.011-.011-.032.024-.033.015-.034.011-.044.028-.038.015-.037.019-.042.023-.034.028-.016.005-.039.006-.039-.012-.025-.01-.028.002-.006-.011-.019-.006-.03.016-.176.003-.171-.045h-.1l-.257-.126-.245-.15-.229-.173-.21-.194-.193-.213-.17-.231-.148-.246-.123-.259-.098-.269-.072-.278-.044-.283-.018-.286.01-.287.037-.284.065-.28.09-.272.058-.187.01-.196.062-.727.011-.729v-.017l-.013-.007-.013-.026-.022-.009-.008-.024-.062-.047-.018-.026-.053-.034-.035.022-.027-.014.011-.019.005-.027h-.008s.004-.016.004-.016l-.005-.012-.013-.011-.015.01-.013-.004-.003-.023-.025.024-.032-.005-.051-.018-.042-.033-.028-.027-.022-.007-.022-.005.006-.017.014-.022-.01-.013-.008.013-.024-.002-.033-.01-.053-.021-.022-.012-.052-.038-.033-.056-.003-.007-.085-.063-.03-.038-.028-.033-.034-.019-.039-.023-.125-.073-.294-.056-.076.009-.139.054-.148-.015-.166-.072-.463-.121-.242-.054-.248.014-.231.079-.054-.033-.01-.006-.087.133-.02.085-.236.15-.261.102-.275.05-.279-.003-.143-.01-.132-.06-.101-.102-.06-.131.02-.113.054-.101.053-.028.039-.046.02-.057v-.06s-.016-.041-.016-.041l.015-.022-.062-.042-.063-.044" vector-effect="none" fill="#c1c1c1" fill-rule="evenodd" stroke="#232323" stroke-linecap="square" stroke-linejoin="bevel" stroke-width=".25"/>
      <path d="M204.458,63.23h-.013l.025-.089-.051-.013-.025.076h-.013l-.013.076h.013l-.013.063.051.013.013-.063.025-.063h0" vector-effect="none" fill="#c1c1c1" fill-rule="evenodd" stroke="#232323" stroke-linecap="square" stroke-linejoin="bevel" stroke-width=".25"/>
      <path d="M174.825,188.491l-.597-.342-1.387-.772-1.662-.925-.101-.051-.082-.042-.272-.156-2.851-1.578-.041-.022-.053-.03-.074-.039-2.899-1.6-.357-.103-.186.332-.331.593-.531.953-.534.968-.572,1.039-.572,1.023-.26.477-.27.485-.534.958-.532.965-.534.958-.535.939-.18.337-.119.227-.161.289-.572,1.023-.11.196-.428.791-.592,1.066-.569,1.029-.523.953-.541.965-.531.958-.53.962-.51.942-.554.976-.531.956-.54.949-.274.511-.027.056-.262.473-.577,1.042-.542.971-.534.97-.536.968-.581,1.046-2.143,3.885-.575,1.027-.262.469-.278.504-.257.463-.286.515-.531.961-.575,1.037-.583,1.049-.527.952-.532.959-.529.954-.529.953-.511.935-.545.975-.534.956-.534.957-.525.952-.532.966-.762,1.347.153.12.104.163.029.124.003.127-.023.124-.048.118,2.804,1.534.83.463,2.47,1.371,2.37,1.325.646.361.721.445.535-.946.529-.946.522-.956.537-.958.53-.952.518-.965.53-.948.357-.64.176-.314.534-.962.537-.94.52-.963.532-.961.574-1.046.584-1.037.535-.966.539-.97.536-.972.534-.967.534-.967.541-.978.041-.084.575-1.024.11-.2.427-.772.537-.968.539-.972.545-.986.532-.958.574-1.019.573-1.052.523-.947.531-.959.513-.951.539-.961.542-.963.549-.971.515-.949.531-.949.56-1.056.574-1.024.207-.362.333-.586.484-.871.592-1.062.523-.938.321-.583.072-.132.141-.255.527-.959.522-.967.544-.957.57-1.034.558-1.03.546-.959.546-.961.305-.594.221-.407" vector-effect="none" fill="#c1c1c1" fill-rule="evenodd" stroke="#232323" stroke-linecap="square" stroke-linejoin="bevel" stroke-width=".25"/>
    </g>
    <path d="M171.485,166.246l-1.674-.927-.622-.35-1.304-1.945-.584-.9-.64,1.152-.948-1.382-.037-.056-.072-.109-.764-1.149-.431-.648-.032-.048-.079-.12-.072-.099-.044-.063-1.275-1.848-1.385-.767-.387-.211-.427-.258-.217-.14-.071-.046-.06-.041-.152-.086-.094-.037-.152-.06-.799,1.097-.423.553-.049.078-.321.414-.854,1.394-.213.395-.892,1.822-.015.067-.278.513-.165.293h0s-.196.38-.196.38l-.155.26-.105.195-.259.515-.061.073-.138.27-.132.253-.16.288-.12.2-.134.263-.155.318-.047.128-.093.218-.044.043-.104.203-.314.558-.165.38-.089.218v.07l-.055.053-.043.095-.02.083-.085.103-.099.188-.003.065-.09.155-.199.39.018.058-.042.062-.1.158-.215.41-.044.115-.094.265-.015.11-.122.167-.221.323-.075.185-.202.306-.024.036-.52.933-.247.413-.128.245-.383.655-.292.476-.745,1.274.139.072.17.088.09.043.081.041,1.052.503,1.369.655.056.026.075.032.518.227,1.445.727.118.06.12.068.491.272.162.09.546.302.16.089,1.259.695.558.309,3.231,1.788,1.66.982.579-1.05.532-.956.51-.972.052-1.203-.037-.767-.009-.192-.015-.292-.035-.68-.006-.176.016-.175.039-.171.062-.165.541-1.042.03-.053.477-.861.022-.04.534-.961.378-.678.034-.06.094-.169.029-.052.534-.961.526-.957.537-.971,1.614.897.347-.615.229-.328.565-1.025.568-1.035" vector-effect="none" fill="#618acf" fill-rule="evenodd" stroke="#232323" stroke-linecap="square" stroke-linejoin="bevel" stroke-width=".25"/>
    <path d="M178.463,151.248l-.376,1.056-.365,1.035-.368,1.047-.362,1.028-.368,1.038-.394,1.129-.404,1.134-.371,1.042-.189.512-.207.506-.227.498-.245.489-.246.447h0s-.261.438-.261.438l-.565.978-.67.893-.062.082-.606.785-.691.863-1.674-.927-.622-.35-1.304-1.945-.584-.9-.64,1.152-.948-1.382-.037-.056-.072-.109-.764-1.149-.431-.648-.032-.048-.079-.12-.072-.099-.044-.063-1.275-1.848-1.385-.767-.387-.211-.427-.258-.217-.14-.071-.046-.06-.041-.152-.086-.094-.037-.152-.06.176-.263.65-.971.428-.637.581-.864.52-.772.214.13.492-.851.075-.139.049-.074.176-.266-.089-.059-.063-.042-.047.07-.143-.095.323-.487.133.088-.234.36.067.043.101.066.314-.477-.143-.078.101-.161.127-.2-.253-.868-.043-.055-.131-.069-.136.257-.79-.434.356-.647.786.432-.143.26.153.084.058.055.033.069.218.743.006.021.137.093.379-.671.038-.267.043-.112.065-.123.157-.249-.336-.173.025-.052.074-.151-1.185-.658-.02-.011-.298-.157-.029-.013-.022-.011-.018-.012-.006-.007-.006-.007-.025-.036-.009-.015-.005-.015-.003-.009v-.004l.013-.058-.025-.013.482-.953,2.006,1.593.219.073.081.019.08.019.295.056.364.068.203.042.662.287.046.02.039.023,2.236,1.247.114.063.114.063.769.425,2.415,1.326.523-.943.527-.957,1.603.892.53-.948.98.54,1.346.748" vector-effect="none" fill="#1257cc" fill-rule="evenodd" stroke="#232323" stroke-linecap="square" stroke-linejoin="bevel" stroke-width=".25"/>
    <path d="M185.102,137.205l.238.131.597.33.223.122.195.118.312.167.414.229-.371,1.149-.333,1.054-.511.977-.521.944-.527.955-.526.948-.526.949-.525.942-.549.986-.573.991-.361.518-.313.448-.63.88-.643.901-.644.891-1.066-.586-1.346-.748-.98-.54-.53.948-1.603-.892-.527.957-.523.943-2.415-1.326-.769-.425-.114-.063-.114-.063-2.236-1.247-.039-.023-.046-.02-.662-.287-.203-.042-.364-.068-.295-.056-.08-.019-.081-.019-.219-.073-2.006-1.593.143-.285.024.012,1.806-3.592.207-.411.36.178.73-1.441.137.066-.004.006-.024.041,1.375.696.395-.771.181.087.089-.172h0s.028-.05.028-.05l.093-.17.103-.181.065-.108.055-.082.038-.05.087-.105.033-.043.014-.019.041-.062.037-.064.421-.783.712-1.516.915-1.813.316-.523.122-.313.176-.233.12-.24.272-.527.146-.244.051-.221.11-.212.013-.153.038-.18.065-.218.101-.23.067-.122.093-.119.053-.09.131-.21.065-.148.034-.09.041-.148.035-.067.09-.125.065-.137.084-.07.156.078.169.081.089.029.075.044.141.069.189.095.193.093.426-.107.08-.02.729.305,2.728,1.615.118.063.122.067,3.179,1.759,1.87,1.033.338.189.847.471" vector-effect="none" fill="#0c3275" fill-rule="evenodd" stroke="#232323" stroke-linecap="square" stroke-linejoin="bevel" stroke-width=".25"/>
  </g>
  <g>
    <path d="M151.372,95.311c-5.855,15.517,3.762,31.155,12.386,37.863" fill="none" stroke="#000" stroke-linecap="round" stroke-linejoin="round"/>
    <path d="M168.999,136.165c-2.982-.532-6.93-.77-9.779-.236l3.895-3.227.929-4.97c.917,2.749,3.041,6.085,4.955,8.433Z"/>
  </g>
  <g>
    <path d="M122.705,130.271c7.206,4.438,23.035,13.166,32.881,18.48" fill="none" stroke="#000" stroke-linecap="round" stroke-linejoin="round"/>
    <path d="M160.905,151.6c-2.998-.431-6.952-.534-9.781.095l3.783-3.356.76-4.999c1.009,2.716,3.246,5.979,5.238,8.26Z"/>
  </g>
  <g>
    <path d="M118.012,183.065c3.911-12.772,17.823-19.729,28.525-19.384" fill="none" stroke="#000" stroke-linecap="round" stroke-linejoin="round"/>
    <path d="M152.471,164.778c-2.976.566-6.75,1.751-9.22,3.265l2.489-4.403-.904-4.975c1.836,2.242,5.011,4.602,7.635,6.113Z"/>
  </g>
<style>
#g-neighborhoods-mobile-cb9-img rect, #g-neighborhoods-mobile-cb9-img circle, #g-neighborhoods-mobile-cb9-img path, #g-neighborhoods-mobile-cb9-img line, #g-neighborhoods-mobile-cb9-img polyline, #g-neighborhoods-mobile-cb9-img polygon { vector-effect: non-scaling-stroke; }
</style>
</svg>
