<?xml version="1.0" encoding="UTF-8"?>
<svg id="g-neighborhoods-desktop-manhattanville-img" xmlns="http://www.w3.org/2000/svg" baseProfile="tiny" version="1.2" viewBox="0 0 1200 900">
  <!-- Generator: Adobe Illustrator 29.1.0, SVG Export Plug-In . SVG Version: 2.1.0 Build 142)  -->
  <path id="manhattanville" d="M651.094,436.335l-2.606,7.307-2.527,7.166-2.544,7.251-2.509,7.118-2.544,7.183-2.729,7.812-2.799,7.847-2.571,7.21-1.307,3.546-1.43,3.501-1.571,3.446-1.693,3.385-1.702,3.096v.004l-1.807,3.027-3.913,6.773-4.641,6.179-.43.565-4.194,5.435-4.782,5.972-11.59-6.419-4.308-2.422-9.028-13.461-4.045-6.232-4.431,7.977-6.563-9.566-.254-.39-.5-.754-5.291-7.955-2.983-4.484-.219-.334-.544-.832-.5-.687-.307-.433-8.827-12.792-9.59-5.313-2.676-1.459-2.957-1.789-1.5-.97-.491-.316-.412-.283-1.053-.596-.649-.255-1.053-.412,1.22-1.821,4.501-6.723,2.966-4.406,4.018-5.983,3.597-5.347,1.483.898,3.404-5.893.518-.962.342-.515,1.22-1.84-.614-.411-.439-.293-.325.484-.991-.66,2.237-3.373.921.608-1.623,2.494.465.3.702.456,2.176-3.302-.991-.537.702-1.114.877-1.382-1.755-6.006-.298-.38-.904-.477-.939,1.777-5.466-3.002,2.465-4.478,5.44,2.988-.991,1.802,1.062.583.404.378.228.478,1.509,5.142.044.148.948.641,2.623-4.645.263-1.85.298-.772.447-.848,1.088-1.723-2.325-1.199.175-.362.509-1.042-8.204-4.552-.14-.078-2.062-1.09-.202-.093-.149-.079-.123-.086-.044-.046-.044-.048-.176-.247-.061-.107-.035-.104-.018-.061v-.025l.088-.398-.175-.093,3.334-6.595,13.889,11.029,1.518.502.562.128.553.129,2.044.384,2.518.474,1.404.293,4.58,1.986.316.138.272.156,15.477,8.635.79.434.79.44,5.326,2.945,16.714,9.176,3.624-6.53,3.65-6.626,11.099,6.173,3.668-6.559,6.782,3.739,9.318,5.181" vector-effect="none" fill="#1257cc" fill-rule="evenodd" stroke="#232323" stroke-linecap="square" stroke-linejoin="bevel" stroke-width=".737"/>
  <g>
    <path d="M474.234,399.274c30.694,22.221,21.818,15.762,48.496,35.093" fill="none" stroke="#000" stroke-linecap="round" stroke-linejoin="round" stroke-width="2"/>
    <path d="M532.506,441.451c-5.836-1.624-13.653-2.845-19.424-2.323l8.365-5.686,2.791-9.72c1.304,5.647,4.903,12.692,8.268,17.729Z"/>
  </g>
<style>
#g-neighborhoods-desktop-manhattanville-img rect, #g-neighborhoods-desktop-manhattanville-img circle, #g-neighborhoods-desktop-manhattanville-img path, #g-neighborhoods-desktop-manhattanville-img line, #g-neighborhoods-desktop-manhattanville-img polyline, #g-neighborhoods-desktop-manhattanville-img polygon { vector-effect: non-scaling-stroke; }
</style>
</svg>
