<?xml version="1.0" encoding="UTF-8"?>
<svg id="g-neighborhoods-mobile-council-img" xmlns="http://www.w3.org/2000/svg" baseProfile="tiny" version="1.2" viewBox="0 0 300 430.431">
  <!-- Generator: Adobe Illustrator 29.1.0, SVG Export Plug-In . SVG Version: 2.1.0 Build 142)  -->
  <g>
    <path d="M120.156,229.725l1.224.452.03.049.015.059-.008.062-.064.106.267-.033.135.076.101.057,2.376,1.336,1.671.924.15.083.143.078,1.34.741.533-.96,3.304,1.832.826.459,1.412.782,1.062.589-.537.957,2.106,1.16,1.205.672-.533.954-.533.957-.529.954-.529.957-.541.972-.518.939-.518.984-.499.957-.334-.184-.233,1.1-.327,1.096-.334,1.062-.345,1.153-.274,1.183-.263,1.092-.259,1.089-.255,1.092-.21,1.119-.18,1.13-.154,1.16-.184,1.231-.041.556-.075.717-.161,1.122,3.116,1.734-.526.942-.518.942-.526.946-.526.946,1.862,1.029-.526.946-.522.946-.533.961-.548.939-.327.612-.203.39-.39-.218-.939-.526-.304,1.171-.225,1.111-.21,1.051-.139.676-.086.394-.191,1.044-.244,1.014-2.2-1.201-.499.897-.541.976-2.53-1.396-.604-.327-.612-.345-.578,1.047-.582,1.059-.544.965-.541.987-.3.537-.214.39-.548.984-.428.807-.237.413-.357.631-.518.939-.514.931-.533.98-.315.74-.552,1.258-.053.158-.375.987-.3.875-.038.113-.263.676-.15.39-.184.634-.038.128-.098.315-.33,1.085-.139.447-.21.679-.608-.071-1.427-.173-.822-.101-1.243-.154-.015.116-.92-.12-.578-.075-.289-.034-.95-.113-1.1-.15-.12-.015-.135-.03-.21-.03-.364-.056.011-.083-.199-.068-3.953-.676.023-.128.95.131,1.036.135,1.246.154.935.109.184-2.722-3.495-.357.053-.244.146-1.378.165-1.708-.011-.034.056-.049.026.019,3.319.357.083-1.228.023-.304.09-1.329.06-1.047-.604-.034-2.954-.06.004-.405,3.6.056.004-.083.094-.023.071-.06.026-.056.008-.064-.019-.064-.034-.053-.109-.068.041-.616-1.378-.086.019-.42,1.382.083.03-.405.09-1.243.079-1.047-.041-.011.007-.071-.019-.019-.034-.049-.019-.06.004-.06.023-.053.064-.064v-.071l.041.004.06-.957.06-.953.045-.717-.71-.041.023-.323-.053-.06-.03-.071.083-.004.015.004.004-.011.694.049.03-.518.041-.721-.124.004-.064-.023-.222.019-.747-.064-.113-.068-.113-.004-.008-.011v-.319l-.053-.041.008-.086.083.011.034-.488.015-.15.064-.935-.811-.034.004-.101-.586-.038-.004-.075.101.008v.011l1.276.071.116-.056.762.06,1.265.06.158-.124.004-.023-.026-.049-.004-.049.019-.034.045-.113.06-.387-.146-.146-.146-.075.053-.098-.687-.372-.203.319-1.175-.649.646-1.182.638.364.191-.33.935.507.049-.094.101.019.045-.312.071-.597-.173-.019v-.023l-.439-.056.06-.469-.019-.008-2.947-.39-.023-.023-.011-.041.068-.518.023-.038.056-.026.053.008,2.864.398.026-.03.06-.424.053.008.409.053.165.023.113-.796.086-.642-.004-.034-.244-.041-.736-.128-.045-.008.064-.447-.417-.06-.023.019-.004.03-.004.045-.011.064-.008.068-.011.079-.008.053-.008.068-.011.068-.008.079.011.015.135.019v.026l-.345-.041.004-.034.128.015.019-.011.019-.128.011-.083.008-.049.008-.075.008-.06.011-.079.008-.049.004-.03-.019-.019-.556-.079-.023.019-.004.03-.008.045-.008.056-.008.075-.011.083-.008.053-.004.026-.023.184.019.015.135.015-.004.026-.402-.041.004-.03.18.019.026-.015.019-.176.008-.045.015-.131.011-.109.008-.064.004-.026-.019-.015-.649-.086-.015.019-.007.09-.008.053-.011.086-.008.064-.011.105-.004.045-.015.105.023.015.128.011v.023l-.402-.041.004-.023.18.019.023-.146.008-.038.019-.131.008-.053.019-.105.015-.094-.015-.023-.668-.09-.064.559.015.03.131.011v.019l-.195-.019.075-.608.004-.041.004-.041-.019-.034.075-.518.008-.034.038-.026h.053l1.254.165.004-.049.492.071v.023l.214.034-.004.03.563.075.015-.101.011-.098.008-.053.011-.098.007-.049.015-.105.004-.053.015-.098.004-.049.007-.041.004-.038.015-.113-2.523-.357-.038-.015-.03-.034.004-.041.068-.518.023-.026.034-.011.045.008,2.556.342.124-.912-.492-.064v.023h-.008v.023l.019.004v.045l-.481-.056.008-.053.06.008.008-.049-1.693-.237-.045-.026-.011-.03.068-.529.019-.038.034-.023.041.004,2.568.349.131-.957-.041-.004v.019l-.105-.011-.004.023-.398-.053v-.011l-.124-.019.004-.038-1.915-.263-.034-.019-.023-.034v-.026l.075-.503.023-.026.026-.011.038-.004,1.31.184.45-1.588.357-.023.176-.589-1.828-.995.131-.458,1.817,1.029.342-1.19-.03-.06.075-.248.053-.038.105-.353-.267-.098-.443-.229.019-.03.443.237.109.038.008-.026-.375-.184.011-.023-.094-.053-.011.011-.068-.034v-.004l.056-.109.071.038-.011.019.09.049.015-.03.282.158.098.053.011-.026-.098-.045-.788-.432.015-.026.987.541.064-.21-.458-.255.019-.03-.041-.023-.015.026-1.179-.646.023-.034-.049-.026-.023.034-.098-.053.083-.146-.056-.034.056-.109.154.086-.116.206.056.026.011-.011,1.164.646-.008.015.049.03.124-.218.387.218.398-1.381.128-.439.191-.657.135-.473-.143-.083.173-.297.143.083.206-.379.011-.019-.15-.079.165-.3.146.079.218-.379.176-.323.12-.214.146-.267.12-.218.312-.567.12-.214.158-.3.049-.098.135-.259.454-.815.24.139.473-.882-.191-.113-.36-.221.289-.503-2.249-1.228-.034-.023-.019-.045.008-.041.552-.984.026-.026h.038l.038.004.146.071,2.106,1.16.345-.638.349.195.116-.206-.319-.176-.191-.113.049-.094.064-.116-.113-.075-.015.015-.071-.053.06-.075.068.053-.015.019.105.079.026-.049.514.285.109-.214-.413-.24.12-.199.278-.488.233-.42.293-.537.405.229.522-.939-2.568-1.449-.015-.026.004-.023.124-.214.026-.019.03.008,2.557,1.442.48-.867.297-.533-2.587-1.434.169-.297,2.586,1.415.481-.871-2.53-1.397.237-.432-.131-.075-.086.026-.03.056-.071-.041.075-.139.038-.023h.041l2.354,1.31.387.203.935.533.334-.252.019.019.124-.225.083-.154.015-.026.327-.586-3.63-2.016-.015-.056.27-.483.038-.024,3.281,1.82.105.06.259.143.36-.655-.026-.114-.041-.019-.038-.029-.023-.05-.011-.057.008-.052.026-.044.038-.035.053-.024.124-.033.053-.029.041-.053.049-.103.079-.157.023-.048-.011-.024-3.788-2.105-.038-.05.015-.03.195-.357.034-.03.056-.003.026.015,3.645,2.059.008-.018.098.052.402-.729.398-.725-3.777-2.109-.026-.026v-.038l.225-.396.045-.013.038.013,3.754,2.102.394-.721.417-.761-3.803-2.101-.007-.05.21-.374.045-.026.053.005,2.789,1.577.053-.096-.146-.08.161-.277.139.075.372-.68-2.853-1.588.308-.553,2.846,1.568M104.982,271.927l-.833-.465-.128.237.435.255-.398.755.691.383.056-.098.188.098.015-.135.083-.563.045-.293-.206-.09.053-.083" vector-effect="none" fill="#bababa" fill-rule="evenodd" stroke="#232323" stroke-linecap="square" stroke-linejoin="bevel" stroke-width=".25"/>
    <path d="M135.885,267.313l.064.034.522-.942.518-.946.083.045,1.806.999-.522.942,1.858,1.029,2.132,1.179.18.101.36.203-.518.942-.556.916-.563.939-.522.95.86.496.3.173.357.206.327.173.161.083.747.394-.522.939-.522.939-.526.954-.526.942-.567,1.021-.038.319-.39.785-.511.935-.131.248-.075.128-.304.529-.349.638-.135.24-.203.368-.308.559-.285.522-.195.345-.244.439-.267.469-.357.631-.191.342-.409.74-.075.131-.199.094.101.053.653.338.282.146,1.543.848.484.278.946.537,1.258.728.567.315.74.413.822.451.447.218.169.086,2.755,1.58,1.449.837.086.075.075.06.064.049.071.071.195.128-.049.364-.03.229-.026.184-.023.184-.034.255-.008.019-.019.011h-.03l-.049.353-.019.124-.011.12-.03.203-.026.176-.008.026-.026.18-.049.304-.038.24-.034.191-.008.034-.011.06-.004.045-.015.068-.068.387-.011.06-.06.308-.019.128-.038.203-.068.383-.041.233-.045.248-.131.691-.439,2.459-.36,1.911-.432,1.896-.402,1.535-.435,1.524-.469,1.513-.503,1.505-1.254-.492-.124-.049-.026.068-.064-.023-.064-.026-.116-.041-.071-.026-.882-.357-.736-.304-.21-.079-.143-.06-.131-.101-.064-.019-.071-.026-.552-.225-.263-.109-.458-.176-.146-.064-.128-.049-.484-.191-.12-.049-.349-.143-.984-.39-.984-.394-.923-.357-1.025-.417.019-.049.045-.12.695-1.764.691-1.764-.586-.233-.101-.041-.289-.113-.972-.394-.98-.387-.972-.39.698-1.779.045-.116-.398-.176-.496-.218-.987-.345-.848-.349-.788-.315-.113-.045-.139-.056-.736-.312-1.025-.387-.875-.342-.289-.12-.094-.038-.984-.394-.387-.158-.083-.034-.079-.034-.912-.417-.841-.398-.848-.394-.488-.203-.601-.191-1.077-.342-.976-.559-.871-.567-.882-.571-.927-.601-.833-.537-.878-.571-.882-.574-.319-.214-.233-.158-.113-.068-.113-.06.038-.113.3-.875.375-.987.053-.158.552-1.258.315-.74.533-.98.514-.931.518-.939.357-.631.237-.413.428-.807.548-.984.214-.39.3-.537.541-.987.544-.965.582-1.059.578-1.047.612.345.604.327,2.53,1.396.541-.976.499-.897,2.2,1.201.244-1.014.191-1.044.086-.394.139-.676.21-1.051.225-1.111.304-1.171.939.526.39.218.203-.39.327-.612.548-.939.533-.961.522-.946.526-.946-1.862-1.029.526-.946.526-.946.518-.942,1.862,1.032,1.817,1.006" vector-effect="none" fill="#bababa" fill-rule="evenodd" stroke="#232323" stroke-linecap="square" stroke-linejoin="bevel" stroke-width=".25"/>
    <path d="M154.885,306.97l-.075.075.075.038v.038l.113.075h.038l-.038.075.713.526-.038.038-.676-.526-.038.075-.3-.225.113-.15.038.038.038-.075v-.15l-.038-.038h-.038v-.075h.038l.038-.038h.038v.038l.038.038-.038.038v.188h0" vector-effect="none" fill="#bababa" fill-rule="evenodd" stroke="#232323" stroke-linecap="square" stroke-linejoin="bevel" stroke-width=".25"/>
    <path d="M157.452,304.887l-.038.056-.788-1.299.124-.06.747,1.239-.045.064" vector-effect="none" fill="#bababa" fill-rule="evenodd" stroke="#232323" stroke-linecap="square" stroke-linejoin="bevel" stroke-width=".25"/>
    <path d="M154.07,308.397l.683.458-.038.071-.683-.469-.011.019-.131-.075.086-.154.056-.105.131.068-.023.049-.071.139" vector-effect="none" fill="#bababa" fill-rule="evenodd" stroke="#232323" stroke-linecap="square" stroke-linejoin="bevel" stroke-width=".25"/>
    <path d="M156.762,304.605l.552.488-.041.053-.544-.511-.071.086-.124-.109.116-.139.09-.109.116.116-.094.124" vector-effect="none" fill="#bababa" fill-rule="evenodd" stroke="#232323" stroke-linecap="square" stroke-linejoin="bevel" stroke-width=".25"/>
    <path d="M156.533,305.247l-.098.09-.653-.552.094-.101.657.563" vector-effect="none" fill="#bababa" fill-rule="evenodd" stroke="#232323" stroke-linecap="square" stroke-linejoin="bevel" stroke-width=".25"/>
    <path d="M157.7,304.474l-.045.124-.36-.293.079-.098.327.267" vector-effect="none" fill="#bababa" fill-rule="evenodd" stroke="#232323" stroke-linecap="square" stroke-linejoin="bevel" stroke-width=".25"/>
    <path d="M157.359,237.536l-.533.957-.529.954-.529.961-.533.954-.529.961-.526.961,2.598,1.434.927.511,1.824,1.021,2.617,1.442.807.443.526-.976.116.075.206-.387.045-.079.131.071.135.071-.064.079-.27.342-.342.507-.116.116-.011.011-.552.912-.008.075-.435.743-.379.694-.338.529-.165.184h0l-.267.297-.698.698-.589.886-.068.105-.045-.026-.529.792-.244.364.034.034-.338.507-.668.961-1.13,1.625-.274.394-.439.634-3.007,4.704-.24.372-.064.09-.071.116-.15.24.154.101-.075.113-.004.019-.004.015-.015-.004-.011.034-.026.019-.015.034-.045.079-.038.056-.038.056-.015.03-.026.045-.019.019-.023.049-.011.019-.053.068v.015l-.011.019-.011.011-.008.023-.026.03-.03.049-.008.019-.026.041-.011.011-.008.019-.049.071-.221.342-.026-.019-.011.004-.015.034-.015.008-.004.015-.015.015-.004.015-.06.09-.068.109-.094.15-.026.034-.015.023-.004.015-.09.143-.007.004-.008.011-.049.086-.023.026v.008l-.019.026-.019.03-.034.053-.068.113-.034.049-.056.086-.03.053-.008.008-.075.116v.015l-.21.323-.034-.019-.008.008-.023-.015.004-.008-.053-.045-.086.143-.049.079-.045.071-.101.161-.143.229.015.019v.023l-.06.109-.075.124-.023.008h-.011l-.041.064-.071.139-.064.116-.191.383-.079-.041-.026-.019-.015-.004-.008-.011h-.015l-.008-.011h-.015l-.011-.011-.049.098-.038.071-.116.237.387.24h.004l.023.011.008.015.041.023.011.019.004.019-.023.034-.023.03h-.007l-.015.011-.034-.023-.008.008-.045-.026h0l-.045-.03-.098-.056-.004.004-.244-.128-.011.004-.03.06-.075.154-.098.191.143.083.034.023-.09.18-.086.173-.161.312-.165.334-.049.094-.244.507.146.079.026.015-.038.071-.218.424-.101.687-.026.154-.034.252-.06.36-.053.372-.101.619-.008.026.09.015.023.004.015.004.015.023.004.026v.004l-.056.375-.015.015-.011.008v.011l.045.004-.023.146-.06-.011v.008l.019.015.004.011-.06.394-.011.023-.023.015-.128-.019-.251,1.22v.071l.008.18.007.064v.09l-.004.173.019.086v.075l.004.049v.173l.008.113.004.09-.011.094-.011.008v.026l.011.015.004.191-.008.019-.004.011.015.011.004.263.004.023.011.139-.015.038.008.026.007.116-.011.034.011.203.019,1.37.008.038.004.083.008.068.019.285-.008.023.086.98-.023.026-.417.026-1.798-.984-.053.184.049.026.008-.015.015.004.432.24-.023.041-.447-.248.004-.007-.045-.019-.045.327.034.004.041.019.008-.004.342.15-.011.03-.345-.15v-.008l-.038-.008h-.03l-.011.225.008.15.023-.12.045.011-.015.056.248.053.004.026-.015.023-.244-.049v.015h-.008l.004.094.008.09h.086v-.008h.15l-.004-.008.086-.004.004.03.038.004.011-.023.064.049.004-.008.781.424-.026.041.184.101.263.146.289-.529-.15-.113.007-.015.195.158-.274.488.038.026.038-.056.056.038.023-.049.034.019-.128.206-.026-.019.026-.045-.056-.034.026-.041-.038-.026-.038.068-.304-.173-.026.06.004.011.023.03.023.041.008.045-.008.06-.023.06-.038.045-.045.034-.056.026-.049.004-.075-.008-.023.045-1.044-.567.019.124.015.086.026.131.019.094.026.135.041.214.053.263.015.098.053.248.034.158.015.094.023.116.053.259.053.282.045.225.034.165.038.203.019.03.011.056.034.023.004.038.011.026.03-.004.004.03.011.015.011.026-.026.026.011.049.019-.008-.011-.019.023-.019.026-.008.03.034-.023.023.023.019.023-.019.026.008.015-.019.023.011.023-.008.015.019-.023.015.004.034-.026.008-.011.015-.015.026-.023.004-.026.023-.03.008-.015.03-.026-.004-.038.011.008.045.113.578.109.578.034.203.023.105.023.098.079.428.023.113.128.623.034.071.019.023.03.056.026.041.041.068.056.086.041.06.064.086.053.071.053.071.056.068.101.113.101.105.098.113.12.128.098.098.094.09.023.023.146.135.109.101.008.008.169.165.041.049.049.064.056.068.071.105.053.086.03.045.098.158.004.011.049.105.086.165.06.135.068.18.011.041.034.113.026.124.019.113.007.049.015.105.011.176.004.131.004.113-.019.229-.008.128-.03.221-.004.034-.019.169-.045.315-.053.458-.015.015-.004.071-.019.011-.034-.019-.019.004-.019.008-.041.364.116.015h.03l.026.004.019.011.011.019h.023l.004.038-.161,1.1-.195-.128-.071-.071-.064-.049-.075-.06-.086-.075-1.449-.837-2.755-1.58-.169-.086-.447-.218-.822-.451-.74-.413-.567-.315-1.258-.728-.946-.537-.484-.278-1.543-.848-.282-.146-.653-.338-.101-.053.199-.094.075-.131.409-.74.191-.342.357-.631.267-.469.244-.439.195-.345.285-.522.308-.559.203-.368.135-.24.349-.638.304-.529.075-.128.131-.248.511-.935.39-.785.038-.319.567-1.021.526-.942.526-.954.522-.939.522-.939-.747-.394-.161-.083-.327-.173-.357-.206-.3-.173-.86-.496.522-.95.563-.939.556-.916.518-.942-.36-.203-.18-.101-2.132-1.179-1.858-1.029.522-.942-1.806-.999-.083-.045-.518.946-.522.942-.064-.034-1.817-1.006-1.862-1.032.526-.942-3.116-1.734.161-1.122.075-.717.041-.556.184-1.231.154-1.16.18-1.13.21-1.119.255-1.092.259-1.089.263-1.092.274-1.183.345-1.153.334-1.062.327-1.096.233-1.1.334.184.499-.957.518-.984.518-.939.541-.972.529-.957.529-.954.533-.957.533-.954,1.235.683.094.053,1.963,1.092.537-.961.526-.946.567-1.04.574-1.026.544-1.038,2.373,1.328.649.36.721.443.537-.946.526-.946.526-.956.537-.96.529-.953.518-.965.533-.949.357-.641.176-.314.533-.963.541-.941.518-.964.533-.961.574-1.047.586-1.038.537-.967.537-.969.537-.974.537-.967.533-.968.541-.979.041-.084.574-1.026.113-.2.424-.772.541-.969.541-.974.544-.987.533-.959.574-1.02.574-1.053.522-.948.533-.96.514-.951.537-.963.544-.964.548-.973.462.258,1.389.783-.533.959-.529.956,1.742.975.128.066.128.074,1.186.652.038.021.529.292-.533.958-.533.958-.526.961-.537.96,1.858,1.032-.255.465-.053.093-.259.473-.582,1.045-.537.97-.537.972-.533.966-.541.972-.289.522-.248.448-.578,1.044-.582,1.045-.533.97-.368.661-.169.307-.541.97-.537.967-.541.966-.571,1.044-.589,1.047-.507.967-.544.947-.529.959-.529.957-.552.99-.511.919-.529.959" vector-effect="none" fill="#bababa" fill-rule="evenodd" stroke="#232323" stroke-linecap="square" stroke-linejoin="bevel" stroke-width=".25"/>
    <path d="M160.084,288.129v.038l.3-.023.015.053.03.079-.368.023-.007-.041-1.051.068v.03l-.349.019.004.101-.098.011v-.034l-.323.045.011.113-.128.019-.045-.285.135-.03.019.131.33-.041-.011-.15.447-.03-.008-.026,1.096-.068" vector-effect="none" fill="#bababa" fill-rule="evenodd" stroke="#232323" stroke-linecap="square" stroke-linejoin="bevel" stroke-width=".25"/>
    <path d="M160.891,290.303v.15h-.15v-.075l-.338.038-.263.188h.038l-.075.15-.075-.038.038-.075-.263.038-.225.15-.075.15-.075-.038.075-.15h.038l.188-.15.038-.075h.075l-.038.038.3-.038.3-.225.413-.038h.075" vector-effect="none" fill="#bababa" fill-rule="evenodd" stroke="#232323" stroke-linecap="square" stroke-linejoin="bevel" stroke-width=".25"/>
    <path d="M159.615,299.387l.45.338-.075.15-.488-.375v-.075l.038-.038.075.038v-.038h0" vector-effect="none" fill="#bababa" fill-rule="evenodd" stroke="#232323" stroke-linecap="square" stroke-linejoin="bevel" stroke-width=".25"/>
    <path d="M161.766,268.98l-.06.116-.12-.034.026-.12.154.038" vector-effect="none" fill="#bababa" fill-rule="evenodd" stroke="#232323" stroke-linecap="square" stroke-linejoin="bevel" stroke-width=".25"/>
    <path d="M172.656,192.288l-.571,1.035-.544.958-.522.969-.529.96-.139.255-.071.131-.323.584-.526.94-.589,1.063-.488.872-.33.585-.206.363-.574,1.025-.563,1.056-.529.951-.518.949-.548.973-.544.964-.537.963-.514.951-.533.96-.522.948-.574,1.053-.574,1.02-.533.959-.544.987-.541.974-.541.969-.424.772-.113.2-.574,1.026-.041.084-.541.979-.533.968-.537.967-.537.974-.537.969-.537.967-.586,1.038-.574,1.047-.533.961-.518.964-.541.941-.533.963-.176.314-.357.641-.533.949-.518.965-.529.953-.537.96-.526.956-.526.946-.537.946-.721-.443-.649-.36-2.373-1.328-.544,1.038-.574,1.026-.567,1.04-.526.946-.537.961-1.963-1.092-.094-.053-1.235-.683-1.205-.672-2.106-1.16.537-.957-1.062-.589-1.412-.782-.826-.459-3.304-1.832-.533.96-1.34-.741-.143-.078-.15-.083-1.671-.924-2.376-1.336-.101-.057-.135-.076-.267.033.064-.106.008-.062-.015-.059-.03-.049-1.224-.452.503-.92-.158-.083.135-.242.154.089.398-.729-.383-.197.053-.099-.101-.087-.023.04-.113-.063-.015.035-.086-.05.116-.218.007.005.045-.08.075.036-.045.082.116.066-.026.038.143.044.008-.018.368.215.21-.389.158.015.038-.013.026-.029.011-.027v-.047l-.098-.14.034-.058.004-.021-2.436-1.351.233-.42,2.44,1.357.379-.684-1.171-.651-.901-.499.128-.224,2.065,1.147.109-.003.101.06.383-.679-.064-.036h-.004s-.083.017-.083.017l-.06.095-.128-.063-.015.034-.191-.104.023-.036-.109-.07.068-.125.026-.053-.848-.497-.053.102-.023.039.086.047-.041.093-1.382-.753.053-.096.101.055v-.002l.053-.106-.075-.041h-.004s.004-.005.004-.005l.034-.054-.023-.013-.071-.041.098-.152.049.027.559.303,1.9,1.056.086-.138.045-.171.064-.157.079-.119.09-.107.109-.126.098-.086.038-.049.064-.19.852-1.6.053.028.06-.071.068-.034.075.009.158-.15.244-.583-.079-.018-.116.041-.12.021-.038-.051-.026-.084.345-.652.079-.137.687-1.232.582-1.05.229.01.387-.038.345-.629.526-.964.518-.955h0s.03-.054.03-.054l.105-.184.252-.436-.004-.032-.402.024-.071-.039-.15-.022-.105.02-.113.041-.098.032-.086.01-.101-.015-.12-.024-.113-.017-.113.012-.098.027-.131.032-.109-.005-.09-.005-.135-.012-.143.007-.146.039-.105.01-.109-.02-.116-.027-.101-.002-.015.032-.045.032-.03-.003-.045.07-.221.017.15-.276,2.947-.189-.064-.118.015-.158.019-.056v-.04l-.011-.158.627-1.154.173-.385.026.012.075-.214.007-.021.011-.035.101-.281-.068-.026.026-.074.068.026.068-.209.045-.095.053-.09,1.625-3.094.259-.493.161-.306.578-1.074.176-.335-.822-1.081-.33.228-.717,1.115-.053-.032.721-1.132.387-.261.041-.179.068-.003.053.018-.083.261.777.985.405-.777-.139-.068.034-.072-.053-.026-.045.083.015.005-.011.015-.038-.024.049-.087-.514-.285-.038.071-.056-.031.094-.173.056.03-.041.072.064.036.477.263-.008.012.056.028.038-.06.131.071.094-.178.327-.617-1.265-.054-.169.22-.06-.04-.008-.053.158-.198.788.045.597.002,1.074-2.032,1.565-2.965.537-1.011.574-1.088.116-.225.398-.753.477-.9.12-.21.349-.611.101-.183.878-1.626,1.16-2.154.574-1.067,1.096-2.058.526-.981.049.029.601.344.285.151.116.063.109.062.195.104.188.101,1.089.564.034.262-.008.263-.049.259-.086.248.038.161-.293.254-.402.351-.259.229,2.095,1.169-.567,1.028-.537.958-.526.96,1.535.854.124.069-.537.958.12.066,1.528.844.334.186.083.048,2.883,1.603.552-.979.158-.301.071-.129.282-.525.533-.954.563-1.03.717.394,2.59,1.43.589-1.067.432-.792.109-.197.571-1.024.161-.289.12-.226.18-.338.537-.94.533-.959.533-.966.533-.96.27-.485.263-.478.571-1.024.571-1.04.537-.969.529-.955.33-.593.188-.333.357.103,2.902,1.601.075.039.053.03.041.022,2.853,1.58.274.156.079.042.101.05,1.663.926,1.389.773.597.343-.218.406-.308.595-.548.962-.544.96-.559,1.031" vector-effect="none" fill="#bababa" fill-rule="evenodd" stroke="#232323" stroke-linecap="square" stroke-linejoin="bevel" stroke-width=".25"/>
    <path d="M191.956,128.552l-.015.036.015.034.004.036-.023.056-.045.036-.034.054-.008.029-.008.042-.019.039-.03.018-.008.034-.023.038-.026.008-.038.036v.045l-.041.044-.03.016-.019.042-.008.042-.026.074.008.086v.031l-.015.045-.038.016-.034.024-.026.029-.026.12-.026.036-.023.23-.008.081-.019.22-.023.143-.011.062.045.064-.011.036-.008.04v.042l-.007.011v.021l-.026.016-.041.314-.008.144.008.075-.015.057-.038.439.008.056-.015.033-.015.23v.047l-.008.041-.011.354-.008.074v.036l-.015.014.008.029-.004.048.004.021-.015.032v.029l.007.02.011.041v.018l.008.021-.019.021-.007.017.011.014.004.14.004.035.008.01.004.029-.008.03v.025l-.004.033.004.063-.015.002-.015.028-.026.015.004.034.011.261.03.487.019-.003.041.648h-.019s.007.126.007.126l.023.237.034.351.206,2.164.038.382.038.025-.004.03.015.007-.004.018.015.024.011.031.011.031-.004.065.023.031.004.043-.011.018.015.034.019.037-.004.035.011.05.015.083.011.037-.023.024.008.092.015.018.019.023.015.203-.023.023-.03.012.011.04.023-.002.004.026.008.006.019.023.004.075-.011.014-.004.038v.062l.008.047.004.046.023.009.023.326.004.006.011.011-.008.032v.012l.011.009v.071l-.004.012-.011.038.004.07v.029l-.004.07.011.045-.004.041.008.029-.011.029.015.029-.004.025.008.041.008.064-.011.013.011.02-.004.017-.008.029.008.019.004.06.026-.009.008.069.015.106.004.033.011.089.011.093-.019.007.008.083.015.128.004.056.109,1.049-.068.009.019.298.045.572.071.978.011.011.038.899.034.891.004.234.023.087.034.416.03.562.064,1.101.023.076v.013l.015.336.015.234.004.188.019.494.004.093v.055l.007.165.015.291.008.136-.004.034.008.207.03.585-.004.065.015.277.011.208.026.64.004.091.019.517-.004.049.019.365.165.015v.465l.004.09.03,1.538.011.876.004.955-.019.976-.026,1.417-.135-.003v.017l.004.017-.008.014v.02l.008.017v.024l-.011.029v.017l.023.022-.015.044.008.041-.011.022.004.017-.011.027.008.037v.082l-.004.043v.048l.011.046-.008.046.004.031-.019.039-.008.044.008.048-.008.046-.019.14-.004.054.008.026v.032l.007.039-.007.036.011.058-.023.018.019.026-.015.03-.008.029.019.022-.004.034-.004.08.011.044.011.055-.03.056-.026.068.184.003-.007.355v.147l-.008.08-.004.058-.064,1.094-.06.815-.03.315-.034.409-.064.569-.053.391-.068.488-.098.871-.026.522-.011.244-.03.603.004.559.143.768.023.042.071.451.015.122.653,1.613.27.431.079.125-.342.192-.086.047-.045.027-.094.057-.083-.125-.113-.197-.39-.698-.33-.675-.15-.059-.511.972-.529.952-.526.95-.071.124-.458.833-.529.954-.571,1.027-.574,1.033-.529.96-.529.959-.533.96-.053.096-.481.869-.364.656-.049.092-.12.213-.533.959-1.723-.956-.143-.08-.537.963-.267.474-.312.552-.161-.089-1.716-.948-.522-.288-.755-.418-.597-.33-.593,1.076-.357.642-.056.099-.056.101-.049.092-.338.609-.053.098-.071.125-.034.063-.237.428-.06.104-.06.11-.06.11-.124.219,1.261.699.612.337-.552.999-.544.98-.199.358-.083.145-.229.444-.548.958-.086.162-.248.446-.094.169-.045.08-.056.104-.574,1.033-1.862-1.037.559-1.031.544-.96.548-.962.308-.595.218-.406-.597-.343-1.389-.773-1.663-.926-.101-.05-.079-.042-.274-.156-2.853-1.58-.041-.022-.053-.03-.075-.039-2.902-1.601-.357-.103-.357-.134-.413-.224-.942-.518.578-1.051.533-.957.511-.973.053-1.204-.038-.768-.008-.192-.015-.292-.038-.68-.008-.176.019-.175.038-.171.064-.165.541-1.042.03-.053.477-.862.023-.04.537-.963.375-.679.034-.06.094-.169.03-.052.533-.961.529-.958.537-.972.026-.049.101-.181.026-.047.372-.675.259-.467.323-.577.541-1.041.484-.98.019-1.228.041-1.229.116-1.178.124-1.185.12-1.066.571-1.036.582-1.051,1.032-.743-1.532-.848.526-.952,1.062-1.919.526-.944.526-.958.529-.943,1.607.887.533-.961.278-.494.255-.458.522-.949.571-1.026.571-1.025.526-.957.529-.953.529-.954.541-.948.424-.366.451-.389.927-.726.154.084.139-.48.049-.179.113-.42.165-.544.173-.561.161-.55.176-.574.342.189.845.472.24.131.083-.181.083-.374.015-.059.098-.276.143-.219.056-.072.184-.256.176-.27.12-.3.101-.342.045-.137.15-.371.128-.27.203-.376.225-.36.334-.43.372-.402.785-.815.334-.332.469-.489,1.017-.984.484-.491.282-.306.12-.126.124-.148.21-.318.045.023.21.105" vector-effect="none" fill="#bababa" fill-rule="evenodd" stroke="#232323" stroke-linecap="square" stroke-linejoin="bevel" stroke-width=".25"/>
    <path d="M183.933,136.337l-.176.574-.161.55-.173.561-.165.544-.113.42-.049.179-.139.48-.154-.084-.927.726-.451.389-.424.366-.541.948-.529.954-.529.953-.526.957-.571,1.025-.571,1.026-.522.949-.255.458-.278.494-.533.961-1.607-.887-.529.943-.526.958-.526.944-1.062,1.919-.526.952,1.532.848-1.032.743-.582,1.051-.571,1.036-.12,1.066-.124,1.185-.116,1.178-.041,1.229-.019,1.228-.484.98-.541,1.041-.323.577-.259.467-.372.675-.026.047-.101.181-.026.049-.537.972-.529.958-.533.961-.03.052-.094.169-.034.06-.375.679-.537.963-.023.04-.477.862-.03.053-.541,1.042-.064.165-.038.171-.019.175.008.176.038.68.015.292.008.192.038.768-.053,1.204-.511.973-.533.957-.578,1.051.942.518.413.224.357.134-.188.333-.33.593-.529.955-.537.969-.571,1.04-.571,1.024-.263.478-.27.485-.533.96-.533.966-.533.959-.537.94-.18.338-.12.226-.161.289-.571,1.024-.109.197-.432.792-.589,1.067-2.59-1.43-.717-.394-.563,1.03-.533.954-.282.525-.071.129-.158.301-.552.979-2.883-1.603-.083-.048-.334-.186-1.528-.844-.12-.066.537-.958-.124-.069-1.535-.854.526-.96.537-.958.567-1.028-2.095-1.169.259-.229.402-.351.293-.254-.038-.161.086-.248.049-.259.008-.263-.034-.262-1.089-.564-.188-.101-.195-.104-.109-.062-.116-.063-.285-.151-.601-.344-.049-.029.131-.248.526-1.004.06-.098-.011-.081.034-.077.252-.41.319-.619.21-.392.143-.275.146-.288.203-.39.206-.373.398-.702.237-.447.045-.124.146-.238.064-.187.124-.197.083-.091.203-.418.188-.306.09-.221.068-.124.041-.028.128-.269.064-.108-.004-.054.368-.676.447-.795.139-.323.113-.137.158-.149.023-.104.101-.223.105-.169.011-.082.195-.364.176-.297.214-.4.743-1.275.293-.476.383-.656.128-.246.248-.413.522-.934.023-.036.203-.307.075-.185.222-.323.12-.167.015-.11.094-.265.045-.115.214-.411.101-.158.041-.063-.015-.057.199-.391.086-.155.004-.065.101-.188.083-.102.023-.083.041-.095.056-.053v-.07l.086-.218.165-.38.315-.559.105-.203.045-.042.09-.218.049-.128.154-.318.135-.263.12-.2.158-.288.135-.253.139-.27.06-.073.259-.516.105-.195.154-.26.195-.38h0s.165-.294.165-.294l.278-.513.015-.068.893-1.824.214-.396.856-1.395.319-.414.049-.078.428-.554.796-1.097.176-.264.653-.972.428-.637.582-.865.518-.773.214.13.492-.852.075-.139.053-.074.176-.266-.09-.059-.064-.042-.049.07-.143-.095.327-.488.131.088-.237.36.068.044.101.066.315-.477-.143-.078.101-.161.128-.2-.255-.868-.041-.055-.131-.069-.135.257-.792-.434.357-.648.788.432-.143.261.15.084.06.055.034.069.218.744.004.021.139.092.379-.672.038-.267.045-.111.064-.123.158-.249-.338-.173.026-.052.075-.151-1.186-.658-.023-.011-.297-.158-.03-.013-.023-.012-.015-.012-.008-.007-.008-.007-.026-.036-.008-.015-.004-.015-.004-.009v-.004l.015-.057-.026-.014.481-.954.143-.285.026.012,1.806-3.596.206-.411.36.178.732-1.443.135.066v.006l-.026.041,1.378.697.394-.772.18.087.09-.172h0s.03-.05.03-.05l.09-.17.105-.181.064-.108.053-.082.041-.05.086-.105.034-.043.011-.019.041-.062.038-.064.42-.783.713-1.517.916-1.814.315-.524.124-.313.176-.234.12-.24.27-.528.146-.244.053-.221.109-.212.015-.153.038-.181.064-.218.101-.23.068-.122.094-.119.053-.09.131-.21.064-.148.034-.09.041-.149.034-.067.09-.125.064-.137.086-.07.372-1.5.109-.313.015-.047.049-.164.004-.119.03-.106.023-.134.011-.09-.007-.182-.004-.051.008-.054.034-.124.015-.045.026-.018.023-.111.023-.274.041-.184.041-.093.064-.061.079-.015.068-.006.045-.015.011-.034-.026-.027-.086-.018-.071-.017h-.004s-.064-.035-.064-.035l-.053-.099.42-1.505.034-.106.169-.752.09-.333.101-.355.094-.221.116-.43.113-.403.075-.157.079-.295.109-.209.071-.101.045-.083.184-.533.124-.287.124-.37.116-.351.06-.211.12-.223.056-.182,1.047.354.237.081.747.193.083.021.071.011,1.156.069-.038.453-1.014,1.342-.034.196-.011.199.011.2.034.197.049.191,2.098,1.164.026-.12.289-.957.462-1.558,2.129,1.473.113.076-.642,1.151-.526.952-.526.957-.529.948-.533.954-.529.954-.529.961-.526.949-.473.854-.056.098-.567,1.027.12.067,3.183,1.761,1.87,1.033" vector-effect="none" fill="#0c3275" fill-rule="evenodd" stroke="#232323" stroke-linecap="square" stroke-linejoin="bevel" stroke-width=".25"/>
    <path d="M201.247,64.912l.075.038.038.038v.188l-.038.038-.075.038-.038.113-.038.113.075.113.113.113.113.038.15.038h.263l.3-.075.263-.075.225-.15.038-.113.075-.113.075.038.225-.075h.225l.263.038.451.113.188.075h.15l.113-.038h.075l.3.038.113.075.038.038h.038l.038.038.038.038.075.075.038.075.075.038.075.038h.075-.038v.038h.038l.038.038.038.038h.113v.038l.038-.038v.113h.038v-.038l.075.038v.038l.075.038v.038h.038v.788l-.075.713v.188l-.038.188-.113.3-.038.263-.038.3-.038.263.038.3.038.263.075.3.075.263.15.263.15.263.15.225.188.188.225.225.225.15.263.15.263.113h.075l.188.075h.15l.038-.038h.038v.038h.15l.038-.038h.038l.038-.038h.038l.038-.038h.038l.038-.038h.038l.038-.038.038-.038.038-.038h.038v-.038h.038v-.038h.038v-.038l.038-.038v-.038l.038-.038.038-.075.038-.038v-.225l.038-.038v-.038h.038v-.038h.113v-.038l-.038-.038h-.113l-.038-.038v-.038l.038-.038h-.038v-.15l-.038-.038-.15-.113v.038l-.038-.038-.038-.038h-.038v-.038l-.075-.075-.075-.038-.075-.038-.038-.038-.038-.038v-.038h-.075l-.038-.038-.038-.038v-.038l-.188.075-.038-.038v-.038l.188-.075-.038-.038v-.038l-.038-.038v-.113l-.038-.038v-.075l-.038-.038v-.038h-.038l.038-.038h-.038v-.075h-.038v-.075h-.038v-.075h-.038v-.038l-.038-.038.038-.038h-.038v-.075h-.038l-.038-.038v-.075l-.038-.038-.038-.038v-.038l-.038-.038-.038-.075-.038-.038v-.038l-.038-.038h.038v-.113h.038v-.038h.038v-.075h.038v-.075l.038-.038v-.038h.038l.038-.038v-.038h.038v-.038h.038v-.038.038h.038l.075-.038.038.038.075.038.075.038.038.038h.038l.113.038.113.075.113.038.038.075.038.038.113.038.075.075.113.038h.113l.075.038.075.075.038.038.038.038h.075v.038h.113l.113.075.188.113.075.038h.075l.038.038.113.038.075.075.075.038.038.113-.075.075-.038.075-.075.113-.038.038-.038.075-.038.038v.075l-.038.113-.038.038-.038.075v.225l-.038.113-.038.15v.263h-.038l.038.075h.075l.038.075.075.113.038.075.075.113.075.075h.038v-.038h.15l.038.038h.038v.075l-.038.038h.038l.038-.038h.038v-.038h.075v.075l.038.038h.038v.038h.113l.038-.038v-.038l-.038-.038-.038-.038-.038-.038h-.075l-.075-.075-.038-.075v-.038l.038-.038v-.038h.038v-.038l.075-.038v-.038h.113v-.113h.038v-.038l.038-.038h.038l.038-.038.038-.038.075-.038v-.038h.038v-.075h.038l.038-.038h.038l.038-.075.113-.113.188-.413.225-.45.075.038-.225.45-.225.413.038.075.15-.188h.038l.113-.075.038-.075.075-.075.113-.038.113-.075h.075l.113-.038.075-.038.038-.075.113-.038h.075l.113-.038.113-.038.113-.075.15-.038.038-.038h.113l.15.038h.15l.075-.038h.526l.188.038h.225l.15.075.113.038.413.15.488.188.225.113.113.038.375.113.113.038.188.075.038.038h.075l.038.075.075.038h.038l.075.038h.188l.188.038.113.075.15.038.225.15.263.15.488.338.075.075.075.038.113.075.075.075.075.075.038.038.038.038.038.075h.038v.075l.075.075v.075l.038.038v.038l.038.038v.038l.038.038v.038l.038.038v.075l.038.038.038.038.075.075.113.113.075.113v.075l.038.038v.075l.075.113.038.113v.188l.038.113.038.113v.15l.038.075v.3h.038v.038h-.038v.113h.038l-.038.038v.038l-.038.038h-.038v.038h-.038v.113l-.038.075v.038l-.038.038-.038.075v.038h-.038v.038l-.038.038v.113l.038.038v.15h-.038v.075l-.038.075v.038l.038.038-.038.075v.225l-.038.038.038.038v.075l-.038.075.038.038v.038l-.038.038v.113l-.038.113v.263l-.038.038v.188l-.038.038.038.038h-.038v.113h.038-.038l-.038.038v.15l-.038.038v.075l.038.038-.038.038h-.038l-.038-.038h-.038v.038l-.113-.075h-.075l-.075-.038-.038-.038-.038-.038h-.038l-.075.038-.038.038v.15l.038.038h.038l.038.038v.038l.3.15v.038l.038.038h.038v.075l-.038.038v.075h-.038v.038l-.038.075h.038l-.038.038v.075h-.038l-.038.038h-.038l-.038.038-.038.038h-.038v.3h-.038v.038l-.038.038v.075l-.038.038v.038l-.075.113v.15l-.038.038v.038l-.075.075v.038h-.038l-.038.038v.038l-.075.038v.188l-.038.038v.075h-.038l-.038.038.038.038v.038l-.038.038v.038h-.038l-.038.038v.038l-.038.038.075.038-.15.263-.15.225-.15.225-.225.413-.225.3-.113.225.188.113.038.038-.338.526-.338.601-.45.751-.375.676-.113.15-.113.038-.15.075-.113.038-.075.038h-.075l-.638.038v.038l.45.225.075.15.075.225-.713-.413h-.263l-.188.038-.038.038v.113h-.225v-.038h-.188l-.075.038-.038.038-.038.038v.15l.038.038.038.038h.038l.038.038h.075l.075.038h.338l.075.038.075.038v.038l.038.038.038.038v.45l-.038.038-.038.038h-.038l-.038.038-.038.038v.038h-.038l-.038.15-.075.113v.113l.038.038v.075l.038.038.075.038-.075.113h.038l-.075.15-.038.075-.038.038h-.075.038l-.038.038h-.038.038l-.038.038-.075-.038v.038l-.038.038-.075.075-.038.075-.038.038h-.038v.038l-.075.075v.038l-.188.225-.075.075h-.038l-.038.038-.038.075-.15.113v.038h-.038l-.075.075-.038.038-.075.038v.038h-.038l-.038.038v.038l-.075.075h-.038v.038l-.038.038h-.038l-.038.038h-.038l-.038.038-.225.113-.075.075-.075.113-.038.075-.038.038-.038.075-.075.075v.113l-.075.113-.038.038v.038l-.038.038v.038h-.038v.038l-.038.038-.038.038-.038.038-.038.038-.038.075-.075.075-.038.075v.038l-.038.038.038.038v.038l-.038.038v.038l-.038.038-.038.038v.075h.038l-.038.075-.038.038-.113.188-.263.338-.188.263.075.038v.038l-.038.075v.113h-.038v.038l-.038.038-.038.038v.038l-.038.038-.038.038h-.038l-.038.075.038.038v.038l-.038.038h-.038v.075l-.038-.038v.075l-.038.075v.038l-.075.113-.113.188-.038.038-.113.15-.15.225-.113.15-.113.15-.075.113-.038.075-.038.038-.038.038-.038.038v-.038l-.3-.188-.338-.15-.225-.113v-.038l-.075-.038-.075-.038v.038l-.038.038-.038.038.15.075.075.038h.038l.038.038.15.075.15.075.038.038.075.038.113.075-.113-.038-.075-.038-.038-.038-.15-.075-.45-.263.038-.113-.075-.075-.15-.075h-.038v-.038l-.038-.038v-.075l-.075-.038-.075-.188v-.038l-.15-.338-.15-.263-.15-.263-.075-.15-.038-.038h-.075l-.038.038-.038.038h-.038l-.038.075-.038.038h-.038l-.038.038-.038.188-.038.113-.038.075v.113l-.038.075.038.038h-.038v.075h.038v.038h.038v.075h.038l-.075.038-.038-.038h-.038l.038-.038h-.038v.038h-.038v.038h-.038v-.038.075l.038.038v.038l.038.038v.038h.038v.038l-.038.038-.038-.038h-.075l.038.038h.038v.038l-.038.038v.038h-.038v.188l.075.038-.038.038.038.038h.113l.038.038h.038v.038h.075l.038.038h.038v.038h.038l.038.038.038.038.038.038h.038l.038.038v.038l-.038-.038h-.038v.038h.113l.038.038v.225h.038l.038.038v.038l.075.038v.075h.038v.113l-.038.038v.038l.038.038.038.038v.038l-.038.038v.038l.038.038h-.038l.038.038.075-.038v.038h.038l.038.038v.225l-.263.863-.075.038-.113.15-.075.038h-.038l-.038.038-.075.038-.038.038-.038.038-.038.075.038.038v.225l-.038.038h-.038l-.038.038h-.038l-.038.038h-.075l-.038.038h-.075l-.038.038v.038l-.038.038-.113.075v.113l-.113.038v.038l.038.038-.038.075-.075.038-.038.038-.038-.038-.038.038-.075.038v.488l.038.038-.038.038v.375l.038.45v-.038h.038l.15-.263v-.075h.038l.113-.188h-.038l.15-.3.113-.15-.038-.038.075-.15.075-.15.075-.15.225.075-.113.188-.075.15h-.038l-.075.15-.075-.038-.225.413-.113.188v.038h-.038l-.038.075-.038.075v.038l-.038.075-.038.038v.075l-.15.225-.3.488-.15.3-.113.15-.263.45-.338.563-.225.375-.45.826-.488.939-.3.488-.338.676-.038.075-.038.038-.038.075-.038.075-.038.113h-.038v.038l-.038.113-.075.113-.038.075-.038.113-.113.15-.075.15-.038.075-.038.075-.075.225-.038.038-.075.15-.038.075-.113.225-.038.038v.038l-.15.3-.263.488-.038.038-.263.526-.263.45-.225.45-.225.413-.15.338-.188.3-.15.263-.15.3-.375.713-.188.338-.075.188-.188.375-.038.075-.038.075-.038.075-.038.075-.901,1.652-.038.113-.075.113-.038.113-.225.413-.075.113-.038.113-.075.113-.038.113-.075.15-.075.113-.075.188-.075.188-.038.15-.075.15-.075.263-.075.188-.038.188-.075.338-.075.225-.038.188-.075.188-.038.075v.075l-.038.188-.075.188-.038.075v.15l-.075.188v.038l-.038.038v.075l-.113.263-.075.225-.3.713-.15.375-.188.45-.375.863-.375.863-.713,1.727-.188.526-.188.375-.075.188-.113.263-.113.225-.075.188-.038.113-.075.225-.113.263-.188.338-.15.338-.113.3-.113.263-.113.3-.075.3-.038.113-.075.15-.075.338-.225-.113h-.038l-.225.3-.113.15-.113.15-.3.3-.488.488-1.014.976-.45.488-.338.338-.788.826-.375.375-.338.45-.225.338-.188.375-.15.3-.15.375-.038.113-.113.338-.113.3-.188.263-.188.263-.038.075-.15.225-.075.263-.038.075-.075.375-.075.188-.263-.15-.826-.45-.338-.188-1.877-1.051-3.191-1.764-.113-.075.563-1.014.075-.113.451-.826.526-.976.526-.939.526-.976.563-.939.526-.939.526-.976.526-.939.638-1.164-.113-.075-2.14-1.464-.45,1.539-.3.976-.038.113-2.065-1.164-.075-.188-.038-.188v-.413l.038-.188,1.014-1.351.038-.45-1.164-.075h-.038l-.113-.038-.751-.188-.225-.075-1.051-.338.075-.263.15-.375.113-.188.075-.075.038-.075.038-.15.038-.038v-.038l.188-.338v-.15l.075-.113.113-.188.038-.113.038-.075.113-.113.075-.15.113-.225.113-.3.075-.15.075-.188.038-.113.075-.188v-.038l.038-.15v-.526l.038-.188-.038-.038.038-.15-.038-.413-.038-.038v-.075l-.038-.15v-.15l-.038-.113v-.038l-.038-.038.038-.113.038-.075v-.038l-.038-.075-.038-.188-.038-.188-.038-.075-.15-.225h-.038l-.038-.038h.038l-.038-.075-.038-.038.038-.075.038-.038h.038l.075-.15v-.113l-.038-.188-.038-.113-.038-.15-.075-.113-.15-.113-.075-.225-.075-.263-.038-.225v-.225l.038-.075.038-.113.075-.113v-.375l.038-.225v-.075l.038-.338v-.188l-.038-.188v-.413l-.038-.263.075-.113-.038-.15v-.038l-.075-.075v-.263l-.038-.075-.075-.075-.038-.038v-.225l-.038-.113-.038-.075v-.038l-.075-.225.038-.038v-.075l-.075-.075.075-.075h-.038l-.075-.075v-.038l.038-.038h.075l-.038-.038h-.038l-.038-.038.038-.075-.038-.038v-.075l.038-.113v-.075l.038-.113.075-.113.038-.075.075-.113.338-.488h.188l.038.038v.075h-.038v.038l.038.038v.038h.075l.038-.075.038-.038.038-.075-.038-.038v-.075l.038-.038.038.038v.075h.075l-.038-.038v-.038l-.038-.113v-.113l.113-.038.075.038.038-.038h.038l.075.038h.075l.075-.038v-.038h.075l.038-.038.075-.113h.038v-.075h.038l.038-.075h.075v-.038l.075-.038v-.038h.075v-.113l.075-.038h.038l.113-.075.038-.038.038-.075.038-.038h.038l.075-.038.113-.038v-.038h.075v-.038h.038v-.113h.038l.075-.038.075-.038.038.038-.038.038v.038h.038l.038-.038h.038l.038.038-.038.038.075.038.038.038v-.075l.038-.038.038-.038.038-.038v-.075l.038-.038.075-.038.075.038h.075v-.038l.038-.15.113-.075.075-.038.225-.038.15-.075.488-.488.038-.038.263-.338.225-.338.15-.15.488-.751.225-.338.038-.188.113-.188.188-.338.038-.15.038-.113.113-.263.113-.188.038-.225.038-.075.263-.45.038-.075-.038-.113.075-.15.113-.15.113-.3v-.038l.075-.038.075-.225.15-.3.113-.263.075-.225.038-.188.188-.3h.075l.075-.15.075-.188.188-.263.113-.075.075-.15.263-.413.038-.113.113-.188.038-.075.15-.225.075-.225.15-.338.3-.488v-.038l.188-.375.075-.113v-.15l.15-.3.526-.713.113-.15.225-.225h.038v-.038l-.038-.038-.038-.038v-.075l.263-.45.263-.413.038-.225.075-.225.075-.113.188-.188v-.15l.375-.863.601-.939.413-.638.863-1.539.113-.188.188-.263.188-.375.113-.338.113-.15.075-.075.113-.15.075-.113v-.225l.075-.225.113-.113.075-.038.188-.413.075-.075v-.113l.075-.188.075-.038v-.113l.038-.113.113-.188h.075l.113-.263.075-.225.3-.638.188-.375-.113-.038-.15-.075.038-.15.225.075v.038l.075.038.038-.15h.038l.113-.263.038-.188.038-.263.038-.15-.038-.075v-.075l.113-.638v-.113l-.075-.038.038-.038-.15-.075-.075-.038-.038.113-.038.075-.038.038-.038.075v.038h-.038l.113-.263v-.038l.038-.113.038.038.15.075.075.038v-.038l.075.038-.038-.075v-.038l-.038-.263v-.075l-.075-.038h-.113l-.075-.038h-.038v-.113l.075-.113.113-.113h.113l.113-.263-.3-.15.113-.45.113.038-.113.338.263.15.038-.075.038-.113v-.075h.038v-.075l-.038-.075-.038-.113-.075-.075-.038-.038v-.413l.075-.413.113-.3v-.3l.15-.563.15-.3.225-.375.15-.338.113-.488.15-.338.188-.488.263-.338.188-.413.826-1.802.113-.15.638-1.314.15-.413.188-.263.488-.563.338-.375.188-.263.15-.113.075-.038.488-.15.751-.788.338-.45.075-.113.075-.038h.075" vector-effect="none" fill="#bababa" fill-rule="evenodd" stroke="#232323" stroke-linecap="square" stroke-linejoin="bevel" stroke-width=".25"/>
    <path d="M224.147,67.727l-.3,1.089-.188,1.089-.45,1.201-.3,1.089-.826.338-.3.601-.263.113-.038-.113-.038-.113-.075-.075-.038-.038v-.075l-.038-.075h-.038l-.038-.075-.038-.075-.038-.038v-.113l-.113-.15-.113-.188-.075-.15-.038-.038-.038-.075-.038-.038-.038-.038v-.038h-.038l-.038-.075v-.038h-.038l-.038-.075-.075-.075-.075-.113-.075-.075-.038-.075-.075-.075h-.038v-.038l-.075-.113-.038.038v-.075l-.075-.075-.113-.113-.113-.113-.075-.038-.075-.075-.075-.075-.075-.075-.113-.113-.038-.038-.075-.038-.113-.038-.075-.075-.038-.038-.075-.038-.038-.038-.075-.038-.038-.038-.225-.113h-.038l-.038-.038h-.075v-.038h-.038l-.038-.038h-.038l-.038-.038h-.075l-.038-.038-.038-.038h-.075v-.038h-.038v.038l-.075-.038h-.038l-.113-.038-.038-.038-.038-.038h-.075v-.038.038l-.038-.038h-.038v-.038h-.113v-.038h-.075v-.038h-.075l-.038-.038h-.075l-.038-.038h-.075l-.038-.038h-.038v-.038h-.113l-.638-.263v-.038h-.188l-.15-.075-.075-.038h-.038l-.225-.075v-.038l-1.464-.601h-.113l-.038-.038-.038-.038h-.075v-.038h-.075l-.038-.038h-.038l-.038-.038h-.075l.038-.075.038-.038,1.014-1.351,2.74-1.877.488-.338.676-1.351,1.351-.038.939.375.526.45.826.863.788.751.713.826.15.225.075.113.038.075v.038l.188,1.276h0" vector-effect="none" fill="#bababa" fill-rule="evenodd" stroke="#232323" stroke-linecap="square" stroke-linejoin="bevel" stroke-width=".25"/>
    <path d="M204.513,62.96l-.038.075-.038.038h-.038l.038-.075h-.038l.038-.075.038-.075.038.038-.038.075h.038" vector-effect="none" fill="#bababa" fill-rule="evenodd" stroke="#232323" stroke-linecap="square" stroke-linejoin="bevel" stroke-width=".25"/>
    <path d="M170.862,204.041l.128.071.101.058.274.151,1.081.598.428.236.687.379,1.171.647-.574,1.036.649.36,1.077.597.886.49,2.748,1.522-.045.078-.131.241-.353.635-.079.143-.169.299-.289.523-.075.137-.128.227-.139.245-.06.11-.131.234.169.092.083.046.991.542.079.045.417.228.856.469.188-.56-.056-.58-.267-1.472-.015-.227v-.319l.019-.318.038-.314.045-.215.064-.212.011-.031.011-.027.06-.149.015-.032.041-.092.038-.076.011-.021.098-.169.049-.082.116.075.071.042.071.044.083.046.101.172.03.092-.27,1.718.011.396.184.983.131.719.191.605,1.13-.412.071.009.045.058.285.788.004.059-.03.05-.683.221.011.188-.053.18-.116.149-.158.101.402,1.112.233,1.096.188.115.019-.024-.049-.16-.049.008-.109-.46.034-.007.004.016.041-.008.034-.01-.004-.017.03-.006.113.456-.053.015.053.193-.019.027.158.093-.075.14-.143-.086.019-.035-.165-.088.004.018.109.061-.056.119.128.057.105.087.083.113.049.13.083,1.119-.09.349-.372.352-.218.776-.398.83-.473.711-.379.566-.342.475-.469.645-.597.824-.856.958-.916,1.03-.586.818-.676.946-.691.979-.672.943-.488.886-.334.606-.24.387-.571.923-.687.985-.653.932-.627.929-.631.93-1.228,1.813-1.22,1.813-1.532,1.772-.158.184-.507.604-.03.034-.747.901-.394.465-.327.383-.045.053-.428.514-.293.338-.12.139-.03.03-.045.056-.034.034-.041.053-.135-.071-.131-.071-.045.079-.206.387-.116-.075-.526.976-.807-.443-2.617-1.442-1.824-1.021-.927-.511-2.598-1.434.526-.961.529-.961.533-.954.529-.961.529-.954.533-.957.529-.959.511-.919.552-.99.529-.957.529-.959.544-.947.507-.967.589-1.047.571-1.044.541-.966.537-.967.541-.97.169-.307.368-.661.533-.97.582-1.045.578-1.044.248-.448.289-.522.541-.972.533-.966.537-.972.537-.97.582-1.045.259-.473.053-.093.255-.465-1.858-1.032.537-.96.526-.961.533-.958.533-.958-.529-.292-.038-.021-1.186-.652-.128-.074-.128-.066-1.742-.975.529-.956.533-.959-1.389-.783-.462-.258.518-.949.529-.951,1.866,1.024.571-1.032.522.29.345.191.878.485" vector-effect="none" fill="#bababa" fill-rule="evenodd" stroke="#232323" stroke-linecap="square" stroke-linejoin="bevel" stroke-width=".25"/>
    <path d="M183.494,230.851l-.89.827-.334.31-.42.628-.691,1.027-.477.85-.717,1.286-1.622,2.353-.387.563-.056.083-.237.375-.308.484-.92,1.43-.056.083-.458.71-.526.815-.432.661-.33.511-.323.334-.432.432-.293.289-1.074,1.603-.263.218-.263.312-.075.094-.368.623-.098.248-.038.379-.383.747-.676.875-.113.146-.056.071-.045.056-.045.049-.071.083-.8.923-1.137,1.306-.139.038-.698.939-1.31,1.836-.334.375-.818.924-.803.762-.09.06-.405.285.008.135-.616.74-.402.39-.567.462-.492.544-.049.068-.041.064-.056.053-.056.041-.071.019-.071-.011-.064-.034-.188.259-.244-.188.176-.24-.049-.06-.023-.075.015-.068.041-.056.056-.068.278-.773.496-.92.781-.961.143-.405.368-1.081.083-.233.563-.976.105.049.544-.589.901-1.336.912-1.348.503-.74.556-.818.383-.567.071-.195.03-.056.038-.056.034-.06.049-.064.019-.034.124-.188.402-.623,1.261-1.945.075-.06.071-.128.041-.06.098-.18.056-.034.338-.372-.079-.079.308-.39.173.139.571-.762.466-.616.24-.586.293-.661.758-1.246.041-.116.24-.289.413-.634.469-.721.89-.954.139.007.315-.529,1.291-2.159,1.333-2.058.74-1.293.075-.052.008-.112.105.03.06-.04.124-.218.131-.235-.169-.104.075-.166.184.106.026-.047.158-.016.101-.527.079-.146.428-.795-.004-.08.06-.051.131-.101.338-.389.308-.235.927-1.068.45-.64.278-.445.526-.509.878-.42.559-.097.368-.371.345-.509.109-.018.12.05.075.128-.199.424-.116.403.007.899.09.894-.034.422-.056.277-.09.266-.544.893-.338.761-.12.122-.045.039-.631.401" vector-effect="none" fill="#bababa" fill-rule="evenodd" stroke="#232323" stroke-linecap="square" stroke-linejoin="bevel" stroke-width=".25"/>
    <path d="M187.845,212.842l.169.121.124-.048-.008-.382.18.046-.011.323.064.492-.221.168-.518.151-.184-.005-.252-.117-.725.926-.094.023-.248.291-.06-.075.173-.36-.071-.094.139-.161.083.042.101-.095.567-.76-.128-.135.011-.251.098-.428.514-.487.255-.086.131.197-.094.357-.023.17.026.176" vector-effect="none" fill="#bababa" fill-rule="evenodd" stroke="#232323" stroke-linecap="square" stroke-linejoin="bevel" stroke-width=".25"/>
    <path d="M157.475,265.15l-.075.113h-.075l-.038.075-.075.113-.188-.075v-.075l.075-.075.075-.113.113-.113.038-.038.075-.038.075-.113.038-.038h.075l-.038.075-.075.225v.075h0" vector-effect="none" fill="#bababa" fill-rule="evenodd" stroke="#232323" stroke-linecap="square" stroke-linejoin="bevel" stroke-width=".25"/>
    <path d="M190.736,226.448l-.113.263.15.038-.038.15-.338-.113.038-.15.15.038.113-.225h.038" vector-effect="none" fill="#bababa" fill-rule="evenodd" stroke="#232323" stroke-linecap="square" stroke-linejoin="bevel" stroke-width=".25"/>
    <path d="M165.096,262.41l.188.113-.038.038-.188-.113-.038.113-.15-.038.188-.3.113.075-.075.113h0" vector-effect="none" fill="#bababa" fill-rule="evenodd" stroke="#232323" stroke-linecap="square" stroke-linejoin="bevel" stroke-width=".25"/>
    <path d="M200.77,153.765l-.507,1.405-.101-.035-.481-.164-.293-.1-.24-.083-1.096-.379-.023.074-.586,2.03-.319,1.049,1.149.38.848.29.098.032.086.031,1.017.364.222.082.304.101.098.025.12.031,1.089.372.218.064.191.063.327.107.285.095.942.336.049-.095.056-.099.161-.297.049-.088.732-1.346,2.147.729,1.61.54,1.46.508.173-.125.053.255.274.145.507.296.533.312.548.292.559.271.567.251.574.229.68.294.094.04,1.554.67.443-1.007.507.224.135.06.687.304,1.002.4.188-.703.041-.152.713-2.677.259-.006.537-1.72.045-.15.762-2.446,1.074.336.312.104.511.155.139.044.878.278,1.107.348.323.095.713.191.146.039.8.214,1.164.313-.499,1.608-.064.322-.469,1.576-.387,1.443-.439,1.598-.323,1.23.33.24.886.944.206,1.213.176,1.309.049.295.034.061.011.112.015.145.011.14.011.082.045.379.098.703.713,5.396.03.188-.015.014-.004.007v.015l.008.012.023.051.008.047.015.044v.053l-.038.053-.034.082-.075.157.004.002.015.012.015.023-.004.013-.176.226-.09-.071-.27.207-.199.201.056.061-.03.028-.18.186-.03.031-.146.149-.049-.043-.098.11-.023-.009-.049-.021-.176.061-.015.006-.083.033-.053.023-.06.033-.011.008-.026.022-.008.005-.034.042-.026.037-.041.044-.038.027-.041.027-.011.008-.015.012-.019.021-.041.044-.079.089-.094.1-.267.277-.09.097-.026.03-.023.013-.034.02-.026.031-.026.041-.06.083-.053.083-.113.156-.034.041-.064.078-.116.169-.056.087-.034.051-.015.053-.015.044-.011.047-.023.055-.034.062-.049.053-.034.038-.068.099-.079.101-.09.136-.056.069-.03.038-.03.038-.019.044-.019.063-.274.337-.297.378-.056-.047-.161.138-.368.486-.075.104-.169.21-.098.122.075.061.056.047-.079.112v.002l-.473.646-.098.13-.094.124-.06.08-.045.076-.023.041-.023.038-.03.034-.034.027-.015.012-.034.013-.045.002-.026.021-.011.023-.004.032-.131.148-.165.211-.045.051-.023.008-.041-.015-.034-.006-.06.097-.034.051-.075.119.041.047-.053.063-.049-.044-.03.015-.158-.118-.049.069-.06.09-.086.116.071.065.128.101.101.099.041.061v.003l.015.052v.049l-.071.101-.987.994-.563.562-.038-.029h-.004s-.075.075-.075.075l-.06.066-.064-.049-.075.064-.041.038-.023.045-.09.192-.105.139-.221.244-.165.151-.161.113-.124.094-.09.15-.116.122-.015.009-.06.034-.034.03-.075.075-.056.05-.195.111-.173.105-.09.071-.15.09-.075.027-.068-.004-.049-.011h-.113l-.086-.023-.086-.004-.06-.008-.071-.034-.008-.004-.098-.045-.124-.011-.375-.026-.394-.041-.195-.015-.315-.015-.319-.011-1.633-.875-1.213-.714-3.06-1.6-.101-.055-.075-.047-.09-.058-.105-.072-1.299-.887-.233-.291-.398-.719-.203-.494-.432-1.048-.42-.46-.405-.445-.649-.475-.383-.283-.766-.217-.743-.044-2.823.209-.402-.155-.725-.28.135-.363.229-.426-.146-.1.18-.353-.42-.734-.334-.016-.206-.02-.113-.054-.154-.293-.451.209-1.543-2.748-.308-.44-.252-.428.019-.184-.747-.821-.702-.98-.053-.074-.041-.057-.049-.059-.038-.066-.42-.652-.285-.702-.135-.855.026-.593.03-.432-.267-.091-.011-.004-.038-.012-.011-.443.101-.123.113-.135.011-.331.135-.133-.064-.889-.015-.668.176-2.321.053-.907.004-.067.004-.087.004-.053.004-.087.049-.677.038-.052.011-.426-.038-.105.004-.473.023-2.857.004-.64-.06-2.742v-.054l-.004-.065.011-.077.008-.057-.064-1.309-.038-1.029.071-.038-.03-.655-.049-.005-.053-.858.053-.024-.038-.655-.06-.024-.034-.675.045-.049-.041-.627-.045-.007-.064-.902.053-.022-.045-.692-.053-.022-.026-.539-.004-.11-.008-.215-.011-.14-.011-.161-.011-.208-.011-.235-.214-2.004-.03-.46-.026-.476-.06-.841-.019-.107.041-.006.113-.012.503-.05.488-.05.721-.075.09-.006.146-.009.071-.011.068-.008.214-.051.034.127.083.326.203,1.497.094.06.424.23.443.24.113.2.188.368,1.025,2.168.21.425.075.146.387.745.758,1.357.664,1.092-.274.886-.083.259.792,1.446.18.209.053.072-.176.45-.15.394-.293.837" vector-effect="none" fill="#bababa" fill-rule="evenodd" stroke="#232323" stroke-linecap="square" stroke-linejoin="bevel" stroke-width=".25"/>
    <path d="M192.725,172.677l.083.125.094-.057.045-.027.086-.047.342-.192.086.124.011.017.105.181.176.238.353.486.278.387.984,1.377.056.071.023.035.011.034.023.013.019.024.026.053.023.021.098.155.041.063.128.189.038.068.015.028.019.036.03.052.045.08.008.018.06.102v.016l.023.028.026.052.03.051.094.167.026.055.105.181.004.023.019.023.011.024.056.098.007.024.026.035.041.083v.014l.034.055.116.204.045.081.06.111.023.044.03.051.034.079.019.044.083.187.011.014.143.324.056.113.045.139-.008.01-.075.128.041.101.03.084.086.184.023.053.12.259.109.337.135.398.064.193.079.223.019.07.098.291.026.111.034.157.034.187.075.345.105.053.098.049.008.17.007.114.008.099.008.089.011.095.015.165.038.447.019.212.045.482-.023.607-.026.835-.034.998-.071,2.287-.023.104-.259,1.286-.034.066-.259.462-.176.323-.071.134-.15.265.038.031-.011.021.049.028-.026.052-.064-.028-.015.031-.019-.003-.023.047.019.014-.173.319-.045-.018-.101.183-.259.187-.807.573-.364.258-.267.193-.158.113-.094.071-.158.117-.079.06-.319.234-.184.125-.034.023-.154.105-.237.181-.267.206-.161.124-.03.023-.248.192-.282.264-.188.171-.21.2-.237.216-.079.075-.195.178-.267.23-.364.328-.064.057-.075.068-.113.117.004.003.086.083-.319.318-.083-.084-.342.342-.221.406-.345.616-.432.784-.428.764.011.011-.034.061.011.032.068.038,1.014.568.015.016v.018l-.105.193-.011.008h-.015s-1.055-.569-1.055-.569l-.094.263-.195.573-.023.064-.154.453-.098.289-.06.185-.011.025-.053.158-.038.108-.049.145-.15.323v.012l-.015.02-.015.038-.165.378-.023.029-.071.105-.056.086-.342.505-.845,1.257-.649.967-.011.004-.008.004-.011.012-.034.018-.008.014-.026.018-.023.015-.03.019-.041.029-.026.021-.015.005-.026.023-.019.012-.056.042-.041.025-.041.032-.019.011-.026.022-.015.012-.034.023-.113.077-.105.075-.094.068-.019.018-.038.02-.011.011-.038.026-.056.04-.053.035h-.004l-.034.02-.019.015-.026.015-.049.03-.225.141-.071.04-.026.018-.034.022-.041.026-.315.206-.094.062-.173.118-.206.142-.188.127-.191.132-.158.107-.086.062-.053.035-.041.033-.116.11-.038.035-.083.074-.124.116-.101.091-.079.071-.094.087-.113.105-.056.053-.049.064-.041.064-.034.061-.049.084-.041.078-.056.111-.053.092-.128.223.008.035-.12.343-.03-.092-.101-.172-.083-.046-.071-.044-.071-.042-.116-.075-.049.082-.098.169-.011.021-.038.076-.041.092-.015.032-.06.149-.011.027-.011.031-.064.212-.045.215-.038.314-.019.318v.319l.015.227.267,1.472.056.58-.188.56-.856-.469-.417-.228-.079-.045-.991-.542-.083-.046-.169-.092.131-.234.06-.11.139-.245.128-.227.075-.137.289-.523.169-.299.079-.143.353-.635.131-.241.045-.078-2.748-1.522-.886-.49-1.077-.597-.649-.36.574-1.036-1.171-.647-.687-.379-.428-.236-1.081-.598-.274-.151-.101-.058-.128-.071-.878-.485-.345-.191-.522-.29-.571,1.032-1.866-1.024.563-1.056.574-1.025.206-.363.33-.585.488-.872.589-1.063.526-.94.323-.584.071-.131.139-.255.529-.96.522-.969.544-.958.571-1.035,1.862,1.037.574-1.033.056-.104.045-.08.094-.169.248-.446.086-.162.548-.958.229-.444.083-.145.199-.358.544-.98.552-.999-.612-.337-1.261-.699.124-.219.06-.11.06-.11.06-.104.237-.428.034-.063.071-.125.053-.098.338-.609.049-.092.056-.101.056-.099.357-.642.593-1.076.597.33.755.418.522.288,1.716.948.161.089.312-.552.267-.474.537-.963.143.08,1.723.956.533-.959.12-.213.049-.092.364-.656.481-.869.053-.096.533-.96.529-.959.529-.96.574-1.033.571-1.027.529-.954.458-.833.071-.124.526-.95.529-.952.511-.972.15.059.33.675.39.698.113.197" vector-effect="none" fill="#bababa" fill-rule="evenodd" stroke="#232323" stroke-linecap="square" stroke-linejoin="bevel" stroke-width=".25"/>
    <path d="M207.227,182.226l.237.575.12.321.225.386.3.526.263.375.045.072,1.25.755.109.064.094.055.083.047.008.003.09.045,1.081.549.09.027,1.479.77.267.265,1.1.949,1.182,2.135.736,1.763.026,1.032-.939,1.62-.638,1.169-.248.259-.191.092-.908,1.018.154.157-.803.998-.248-.145-.034-.018-.852.455-.327.2-.36.362-.15.166-.034.338.098.075-3.927,5.692-.12-.081-.225.375-.285,1.112-.481,1.876-.248.325-1.1,1.044v.004l-.056.103-.071.102-.131.04-.015.004-.071.059-.199.207-.222.116-.244.034-.206.01-.094-.042-.015-.007-.101-.039h-.173l-.383.149-1.644,1.503-.218.158-.255.062-.071.017-.105.038-.109.038-.364.107-.454-.134-.792-.614-1.318-1.018-.383-.281-.484-.206-1.877-.452-2.733-.476-.447-.593-.473-.482-.195-.355-.105-.42.023-.451.056-.249.098-.201.146-.684.034-.292.06-.359,2.996-4.632.503-.716.342-.829.188.039.158-.213.728-.987.736-.783.131.056,1.096-.592.071-.038.068.016,1.1.629.143-.036.608.219.811.019.526.033.131.037.165.045.289.063.191-.002.173-.057.049-.147-.004-.166-.023-.103-.004-.134.049-.131-.004-.134-.045-.136-.03-.09-.045-.205-.008-.111v-.146l-.131-.063-.199-.059-.12-.048-.026-.047.064-.059.274.028.154.048.252-.044.191.028.15.054.056.002.008-.051-.034-.063-.653-.004-.3-.087-.233.016-.041.009-.083.018.041.146.071.063.071-.004.083.032.161.17.045.241-.019.392-.094.209-.071.134-.09.066-.158.017-.041-.009-.105-.023-.135-.016h-.086l-.113-.024-.06.027h-.086l-.086-.016-.075.016-.068.056h-.083l-.06-.004-.105.008-.154.026-.098-.02-.03-.037-.008-.047-.011-.045.019-.08.274-.393.094-.172.297-.432.053-.037.049-.036.113-.211-.773-.104-.229-.208-.312-.298-.083-.807-.004-.188.023-.187.03-.09.038-.079,1.055-1.91.109-.41.019-.075.169-.496.09-.203.064-.212.038-.218.011-.221.019-.491.019-.383v-.027l-.071-.698-.101-.428-.094-.328-.079-.223-.195.051.008.035-.375.118-.041-.125.375-.12.019.046.191-.061-.019-.044-.068.012-.188-.463-.045-.63.248-1.217.398-1.404.019-.078.023-.08.034-.071.056-.074.128-.17-.642-.375.154-.261.056.032-.12.21.586.34.131-.203-.221-.135.008-.012.015.006.004-.011.21.122.041-.063-.21-.122.154-.23-.342-.206.019-.039-.045-.028-.146.226-.06-.024.188-.289.435.28.732-1.368.064-.139.056-.135.09-.123.237-.222.255-.065,1.062.019,2.005.176.556.37.285.189.664.994" vector-effect="none" fill="#bababa" fill-rule="evenodd" stroke="#232323" stroke-linecap="square" stroke-linejoin="bevel" stroke-width=".25"/>
    <path d="M118.658,296.985l.976.526,1.089.375.601.188.488.188.826.413.826.375.939.413.075.038.075.038.375.15,1.014.413.075.038.3.113.863.338,1.014.375.751.338.15.038.113.038.788.338.826.338,1.014.338.488.225.375.188-.038.113-.676,1.764.976.413.976.375.976.375.263.113.113.075.563.225-.676,1.764-.676,1.764-.075.113v.038l1.014.413.939.375.976.375.976.413.375.15.113.038.488.188.113.038.15.075.451.188.263.113.563.225h.075l.038.038.15.075.15.075.188.075.751.3.863.375h.075l.113.075h.075l.075.038.038-.075.113.038,1.239.488v.075l-.038.038-.038.075v.075l-.038.038v.075l-.676,1.839.038.038-.225.563-.075.3-.113.188-.038.075-.15.45-.15.338-.075.15-.075.113-.188.3-.113.188-.188.225-.075.113-.225.188-.338.338-.225.225-.113.075-.113.075-.113.075-.075.038-.113.038h-.113l-.113.038h-.3l-.188.038-.45.038h-.15l-.863.075-.263.038h-.075v.113h-.188l-.901.113.038.601-2.102.263-.676.075-1.014.15-2.215.263-2.027.263-.3.038h-.038l-.038-.038-.038-.038-.15-1.126h-.075l-.038-.038v-.038h-.188l-.526.113h-.15l-.113.038-.188.038-.488.075-.413.075-.338.075-.3.075-.338.038-.413.075-.075.038-.15.038h-.188l-.038.038h-.075l-.263.038-.563.15-1.014.188-.338.038h-.15l-.263.075-.225.075-.713.15-.976.188-.751.113-.713.15-.939.338-.225.15-.3.15h-.038l-.188.113-.038.038-.038.038-.038.038-.038.075-.15.038-.075.113-.075.075-.075.038-.075.075-.075.038-.075.075h-.038l-.038.038-.075.075.038.038-.075.075-.038-.038-.038-.075-.338.188-.075.075h.038l-.038.038v.075l-.038.038-.15.113-.113.113-.225.113-.15.113-.263.188-.075.038-.038.038-.375.263.075.075-.113.075v.038l.075.075-.038.038h.038l-.038.038.225.338-.488.338.939,1.201-.263.225-.713.563-.713-.826-.075.075-.038.038-.488-.263-.113.113.375.45-.075.038.038.038.488.563-.075.075-.15.113h-.038l-.15-.225v.038l-.113.075-.075-.075.113-.075-1.089-1.276-.3.225-.075.075-.225.188.188.225.113-.075.038.038-.113.075,1.164,1.389-.263.225-1.389-1.652-.338.3-.263.225-.3.263-.113.075-.3.263h-.038l-.038.075-.113.075-.375.338-.263.225-.15.113-.113-.15-.263.188-.075.075-.188.188.3.338h.038l.45.563v.038l.413.451.075.075-.038.038v.038l.038-.038.038.038h.038l.15.188-.225.188h-.038l-.113-.15v-.038l.038-.038h-.038l.038-.038v-.038l.038-.038v-.038l-.15.15-.375-.45-.113-.113-.15-.225-.15-.15-.113-.113-.038-.075-.075-.075-.225-.263-.038-.075-.263.225-.263.188-.338.3-.113.188-.038.113-.075.113-.3.225-.451.375-.863.713h-.038l-.188.075.676,1.201,1.126-.601.188.338-1.126.601.225.413-.3.15-1.126-1.952-1.727.601h-.15l.113.263-.225.038.113.3.075-.038.075.188v.038l-.038.038v.075h.038v.075l.038.075.038.038h-.038v.038h.038v.075-.038l.038.038-.038.038.038.075h.038v.075l.038.075.038.038h-.038l.15.338-.038.038v.038l-.038-.075-.113-.263-.075-.263-.038-.15-.038-.113-.038-.075-.038-.113-.038-.038-.225.075.075.3v.075l-.038.038v.038h-.075v-.038l-.038-.15-.075-.113-.038-.075-.263.038.038.075.038.075v.075l.038.113.038.113v.038h-.075l-.038-.038-.038-.075-.038-.075-.075-.113v-.113l-.188.038-.113.038v.038l.038.075.038.113.075.225.075.263.038.15-.075.113h-.113l-.075-.075-.038-.075-.038-.113v-.038l-.075-.113-.038-.075-.075-.188-.038-.15-.038-.075-.225.075v.113l.038.225.038.15v.188h-.038l-.075.038h-.038l-.038-.038-.075-.113-.075-.113-.038-.113-.038-.075v-.038l-.038-.075v-.075l-.113.038h-.113v.45l.038.188.038.338.038.075-.038.038v.038h-.075l-.038-.038-.038-.075v-.263l-.038-.113v-.263l-.038-.113-.038-.225h-.263v.338l-.038.15v.075l-.075.038h-.038l-.075-.038.038-.038v-.038l.038-.113h.038l.038-.075h.038v-.038h-.038v-.075h.038v-.038h-.038v-.075h.038v-.038h-.075v-.075h.038l-.038-.188.075-.038-.038-.451-.45-.075-.188.676v.075l-.038.188-.038.113v.075l-.075.225h-.113v-.038l.188-.601v-.075l-.15-.075-.038.038-.038.075-.113.188-.113.188h-.038v.038l-.075.15-.038-.038v-.038h.038l.038-.113.075-.113.075-.075v-.038l.075-.15h.038l.075-.15-.375-.263-.075.188-.075.075-.038.075-.075.075-.075.113-.075.113-.075.15-.038-.038.075-.113.038-.038.038-.038.038-.038v-.038l.038-.038h-.038l.075-.075.075-.113.113-.188v-.038l.038-.038-.15-.113h-.038l-.225-.15-.113.225-.638-.601-.113-.15-.15-.188-.225-.263h-.038l-.113-.188-.188-.225-.15-.15v-.038l-.338-.451-.113-.15-.113-.188-.15-.263v.038l-.15-.225h.038-.038l-.038-.075-.038-.038-.075-.15-.038-.113-.075-.113-.075-.113-.038-.113v-.075l-.038-.113-.038-.113v-.075l-.038-.038h-.113v.038l-.113.038v-.15h.113v.038h.113v-.338l.038-.113v-.188h.038l.075-.263-.263-.075-.075.263.113.038-.038.15h-.038l-.038-.038.038-.075-.113-.038-.038.113.113-.413-.713.113-.225-.413,1.314-.225.038-.113h-.113.038l-.038-.038h-.15l-.038.038v-.038l-.038.038h-.188l-.038.038-.038-.038v.038h-.075l-.038.113-.901-.225v-.038l-.038-.075-.488-1.952v-.038l.113-.751.113-.601.038-.038.038-.038h.038l.113.038v-.075h.038v-.038l.038-.038h.038l.038-.038h.038l.038-.038h.15l.038.038h.038v.038h-.075l-.038-.038v.038h-.113v.075h-.038l-.038.038-.038.038v.038h.038v-.038h.038l.038-.038h.15v.038l.038.038v.038h.038v.075-.038h.038v-.038l.15-.488.188-.713.038-.038v-.113l-.526-.15v-.038l-.188-.038-.038-.038v-.075l.113-.676.15-.676.188-1.014.15-.788.075-.451.15-.751.038-.188.075-.488.075-.638.075-.413.038-.45.113-.788h.075v.075l-.113.676,1.389.3.075-.45-.038-.15-.038-.15v-.188l.038-.15.038-.113v-.038l.075-.113.113-.113.075-.45-.263-.038-.413-.113-.788-.15-.075.676-.038.15h-.038v-.15l.113-.751.113-.676.15-1.089v-.225l.075-.45.075-.526.188-1.201.15-1.164.15-.976.15-1.276.038-.038.038-.038h.038l.788.15v-.038l.338.038-.038.038.15.038.638.113v-.038l.038-.075v-.038h.038l.263.038,1.764.3.15-.939.038-.3.038-.15.075-.413.038-.375-.638-.075.038-.338-.676-.113v.038l-.3-.038-1.539-.225v-.038h-.15v-.075l-.751-.113.075-.526,2.102.338,1.126.15.601.113.113-.826-3.228-.526.075-.488,2.853.413.075-.3-.188-.038v.038l-.413-.075v-.113h.075v.038l.338.038.188.038v-.075l.638.075.075-.413.15-.939.15-1.014.15-.976.15-.976.188-1.126.188-1.201-.375-.188-.413-.075-2.065-.3-.788-.075-.45-.075-.038-.038v-.15l.038-.188.038-.225,3.942.676.188.075v.075l.375.075.188.038h.15l.113.038,1.126.15.939.113.3.038.563.075.901.113.038-.113,1.239.15.826.113,1.427.15.601.075.225-.676.113-.451.338-1.089.113-.3.038-.15.188-.601.15-.413.263-.676.113.075.113.075.225.15.3.188.901.601.863.563.826.526.939.601.901.601.863.563h0" vector-effect="none" fill="#bababa" fill-rule="evenodd" stroke="#232323" stroke-linecap="square" stroke-linejoin="bevel" stroke-width=".25"/>
    <path d="M96.397,346.576l1.577.413.038-.225-.075-.038.038-.075.263.038-.038.113-.075-.038-.075.263h.075l.15-.225h-.038l.038-.075.113.075.113.075-.038.038-.075-.038-.15.188,1.089.3.863,1.051.038.038h.075l1.014-.3v-.038l.113-.263.038-.038.038-.038.075-.038.188-.038h.113l.225.113.038.075v.038l.038.075.038.113v.113l-.113.15-.038.075-.038.038h-.075l-.188.075h-.075l-.15-.075-.038-.038-.038-.038h-.038v-.038l-.038-.075h-.113v.038l-.338.075-.45.113h-.075v.038h-.038v.113l.075.038v.038l.075-.075.338.413-.038.038.075.113-.038.038h.038v.038l.075.075.075.038.113.113.038-.038v.075h.038l.038-.038v-.038h.038v.038l.563-.15v.038l-.676.225.113.263.375.038v.075h.413v.113l-.413-.038-.038.375h.15v.038l.038.038.075-.038v-.038h.038l-.038.113v.075l.038.075h-.113v.075l-.038.038h-.038v.113h-.113l-.113,1.802-.451.751-.038.113-.488.863-.113.038-.075.038-.113.075-.075.075-1.614,1.164-1.351-.15-.075.038-.488.3-.526.338-.113.038.413.676.075.038,1.727-.188v.075l.038.075-1.727.188h-.075l-.113-.075v-.075l-.413-.676-3.529,2.14-.45.263.413.676h.038l.826-.488.075.113-1.802,1.051-.075-.075.826-.526v-.038l-.375-.638-.526.3-.901.526-.451.263.038.113.075.15-.075-.15-.075.038.075.15-.075-.15h-.075l.038-.038-.038-.038-.075.038-.225.113.526.901-1.089,1.314-.15-.113.976-1.201-.45-.788-.3.188-.15.075-.15.075-.15.038-.038.038-.15.038-.263.038-.188.038h-.563l-.263-.038-.225-.075-.188-.038-.263-.075-.263-.075-.263-.15-.225-.188-.188-.225-.113-.113-.113-.188-.113-.15-.15-.225-.075-.225-.075-.225-.038-.188v-.601l.038-.225.113-.225.075-.188.038-.075.075-.075.113-.15.075-.075.113-.15.338-.413.225-.3.225-.263.225-.3.038-.038.225-.225v-.038l.263-.338.225-.263.113-.15.15-.188.15-.188.075-.113.188-.225.188-.225.15-.188.188-.188.15-.225.3-.375.526-.638.15-.15.15-.188.188-.263.413-.488.488-.601v-.038l.338-.375.263-.338.3-.413.3-.338.3-.338.413-1.351.038-.188h.038v-.075l.113-.113.15-.075h.038l.188-.038.225.038h.413l.713-.075h.263l.713-.075.713-.038h0" vector-effect="none" fill="#bababa" fill-rule="evenodd" stroke="#232323" stroke-linecap="square" stroke-linejoin="bevel" stroke-width=".25"/>
    <path d="M64.833,351.377l.432.766.897-.556-.056-.105.09-.053.176.293-.101.053-.06-.105-.901.552-.056.68-.146.649-.39.282-.477.101-.462-.124-1.734-1.119-.616-.957-.785.522-.293-.462.169-.105.18.274.627-.39-.36-.559.105-.068-.008-.285-.075-.139-.015-.026-.038-.086-.004-.09.019-.09.053-.079.09-.064.109-.026.961-.075.03-.038.176.03.158.071,1.457.74.848.589" vector-effect="none" fill="#bababa" fill-rule="evenodd" stroke="#232323" stroke-linecap="square" stroke-linejoin="bevel" stroke-width=".25"/>
    <path d="M103.161,360.094l-1.171.924-.282-.315,2.395-1.907,1.55-1.228.105-.071.113-.094.282-.225.222.345-.304.244-.101.083-.101.079-1.085.867-1.622,1.299" vector-effect="none" fill="#bababa" fill-rule="evenodd" stroke="#232323" stroke-linecap="square" stroke-linejoin="bevel" stroke-width=".25"/>
    <path d="M114.33,349.44l.732,1.303-4.764-1.757.447-1.171,2.838,1.047.747.578" vector-effect="none" fill="#bababa" fill-rule="evenodd" stroke="#232323" stroke-linecap="square" stroke-linejoin="bevel" stroke-width=".25"/>
    <path d="M120.19,334.217l-.244.428-.139.244-.094.165-.143-.173-.822-.364-.27-.199-.049.06-.39-.304,2.264-2.842.357.18.867.435-.139.252-.146.255-.969,1.712-.083.15" vector-effect="none" fill="#bababa" fill-rule="evenodd" stroke="#232323" stroke-linecap="square" stroke-linejoin="bevel" stroke-width=".25"/>
    <path d="M114.964,345.127l-.206.334-2.391-1.085.443-.893.274-.533,2.478,1.141-.503.882-.094.154" vector-effect="none" fill="#bababa" fill-rule="evenodd" stroke="#232323" stroke-linecap="square" stroke-linejoin="bevel" stroke-width=".25"/>
    <path d="M113.845,347.998l-2.635-1.224.308-.623.338-.664,2.541,1.152-.315.781-.237.578" vector-effect="none" fill="#bababa" fill-rule="evenodd" stroke="#232323" stroke-linecap="square" stroke-linejoin="bevel" stroke-width=".25"/>
    <path d="M111.428,353.314l-.897,1.092-2.549-.935.488-1.291,2.958,1.134" vector-effect="none" fill="#bababa" fill-rule="evenodd" stroke="#232323" stroke-linecap="square" stroke-linejoin="bevel" stroke-width=".25"/>
    <path d="M117.761,339.357l-.574,1.382-2.534-1.145.653-1.299,2.455,1.062" vector-effect="none" fill="#bababa" fill-rule="evenodd" stroke="#232323" stroke-linecap="square" stroke-linejoin="bevel" stroke-width=".25"/>
    <path d="M112.411,351.024l-.503,1.243-2.733-.95.484-1.306,2.752,1.014" vector-effect="none" fill="#bababa" fill-rule="evenodd" stroke="#232323" stroke-linecap="square" stroke-linejoin="bevel" stroke-width=".25"/>
    <path d="M110.054,355.338l-.728,1.254-2.564-.92.481-1.254,2.812.92" vector-effect="none" fill="#bababa" fill-rule="evenodd" stroke="#232323" stroke-linecap="square" stroke-linejoin="bevel" stroke-width=".25"/>
    <path d="M68.917,336.177l.075.038h.3l.038.075.113.038.038.075.075.038h.075l.075.038.038.038.038.038.113.038.038.075.075.038.075.038.075.038.075.038.075.038h.225l.075.038.075.075.075.075.038.113v.075l.038.075v.113l.038.075.075.038.113.075.038.075.038.075v.225l.038.113v.113l.038.038v.075l.038.038v.075l-.038.038h-.038l-.038-.038h-.038l-.038-.038h-.075l-.038.075-.075.038h-.113l-.113.038h-.075l-.113.038h-.188l-.075-.038-.038-.075-.075-.075-.075-.038-.038-.075-.038-.038h-.075l-.075.038-.038.038-.075.075-.225.225-.375-.413.15-.188.113.075h.225l.038-.075v-.038l-.038-.075-.038-.038-.075-.075-.038-.038-.075-.038-.038-.038h-.038l-.075-.038-.075-.038v-.075l-.038-.075-.075-.038-.038-.038-.038-.038h-.038l-.038-.038v-.038l-.038-.075v-.113l-.038-.038v-.038l-.038-.038-.038-.038-.038-.038v-.038l-.038-.075v-.15l-.038-.038v-.075l-.038-.075-.038-.075v-.15l-.038-.075.038-.075h.15l.075.038.075.038.038.038h.075" vector-effect="none" fill="#bababa" fill-rule="evenodd" stroke="#232323" stroke-linecap="square" stroke-linejoin="bevel" stroke-width=".25"/>
    <path d="M118.2,338.234l-.026.053-2.32-1.077.631-1.306,2.297,1.044-.582,1.288" vector-effect="none" fill="#bababa" fill-rule="evenodd" stroke="#232323" stroke-linecap="square" stroke-linejoin="bevel" stroke-width=".25"/>
    <path d="M115.373,340.899l.972.413.071-.143-.064-.034.038-.071.173.09-.113.244.034.034-.056.195-1.122-.537.068-.191" vector-effect="none" fill="#bababa" fill-rule="evenodd" stroke="#232323" stroke-linecap="square" stroke-linejoin="bevel" stroke-width=".25"/>
    <path d="M136.373,327.922h-.101l.045-.428,1.626-.116.008.154-1.494.094-.03.282-.053.015" vector-effect="none" fill="#bababa" fill-rule="evenodd" stroke="#232323" stroke-linecap="square" stroke-linejoin="bevel" stroke-width=".25"/>
    <path d="M121.665,331.586l-.03.023-.465-.218.176-.428.364.263.21.139-.255.221" vector-effect="none" fill="#bababa" fill-rule="evenodd" stroke="#232323" stroke-linecap="square" stroke-linejoin="bevel" stroke-width=".25"/>
    <path d="M121.962,330.358l-.15.263v-.038l-.038.038-.113-.038.15-.3h.075l.075.075h0" vector-effect="none" fill="#bababa" fill-rule="evenodd" stroke="#232323" stroke-linecap="square" stroke-linejoin="bevel" stroke-width=".25"/>
    <path d="M113.845,347.998l-.064.21-.015.049.015-.049.064-.21" vector-effect="none" fill="#bababa" fill-rule="evenodd" stroke="#232323" stroke-linecap="square" stroke-linejoin="bevel" stroke-width=".25"/>
  </g>
  <g>
    <path d="M137.149,131.071c-.341,9.254,6.175,18.634,15.084,21.636" fill="none" stroke="#000" stroke-linecap="round" stroke-linejoin="round"/>
    <path d="M158.188,153.694c-2.982.529-6.771,1.668-9.26,3.152l2.542-4.372-.843-4.985c1.809,2.264,4.954,4.663,7.56,6.206Z"/>
  </g>
<style>
#g-neighborhoods-mobile-council-img rect, #g-neighborhoods-mobile-council-img circle, #g-neighborhoods-mobile-council-img path, #g-neighborhoods-mobile-council-img line, #g-neighborhoods-mobile-council-img polyline, #g-neighborhoods-mobile-council-img polygon { vector-effect: non-scaling-stroke; }
</style>
</svg>
