<?xml version="1.0" encoding="UTF-8"?>
<svg id="g-neighborhoods-tablet-manhattanville-img" xmlns="http://www.w3.org/2000/svg" baseProfile="tiny" version="1.2" viewBox="0 0 600 688.591">
  <!-- Generator: Adobe Illustrator 29.1.0, SVG Export Plug-In . SVG Version: 2.1.0 Build 142)  -->
  <path id="manhattanville" d="M356.516,333.553l-1.991,5.583-1.931,5.475-1.944,5.54-1.917,5.439-1.944,5.488-2.085,5.969-2.138,5.995-1.964,5.509-.999,2.709-1.093,2.675-1.2,2.633-1.294,2.586-1.301,2.366v.002h0s-1.381,2.314-1.381,2.314l-2.99,5.175-3.546,4.721-.328.432-3.204,4.152-3.653,4.563-8.856-4.904-3.291-1.85-6.898-10.285-3.09-4.762-3.385,6.095-5.014-7.309-.194-.298-.382-.576-4.042-6.078-2.279-3.426-.168-.255-.416-.636-.382-.525-.235-.331-6.744-9.773-7.327-4.059-2.045-1.115-2.259-1.367-1.146-.741-.375-.241-.315-.217-.804-.455-.496-.195-.804-.315.932-1.391,3.439-5.137,2.266-3.367,3.07-4.571,2.748-4.085,1.133.686,2.601-4.502.395-.735.261-.394.932-1.406-.469-.314-.335-.224-.248.37-.758-.504,1.709-2.577.704.465-1.24,1.906.355.229.536.349,1.662-2.523-.758-.41.536-.851.67-1.056-1.341-4.589-.228-.29-.69-.365-.717,1.358-4.176-2.293,1.884-3.422,4.156,2.283-.758,1.377.811.446.308.289.174.365,1.153,3.929.033.113.724.489,2.004-3.549.201-1.413.228-.59.342-.648.831-1.317-1.776-.916.134-.277.389-.796-6.268-3.478-.107-.06-1.575-.833-.154-.071-.114-.06-.094-.066-.034-.036-.033-.037-.134-.189-.047-.082-.027-.08-.013-.046v-.019l.067-.304-.134-.071,2.547-5.038,10.612,8.426,1.16.383.429.098.422.099,1.562.294,1.924.362,1.073.224,3.499,1.517.241.105.208.119,11.825,6.598.603.332.603.336,4.069,2.25,12.77,7.011,2.769-4.99,2.789-5.063,8.48,4.717,2.802-5.012,5.182,2.856,7.119,3.958" vector-effect="none" fill="#1257cc" fill-rule="evenodd" stroke="#232323" stroke-linecap="square" stroke-linejoin="bevel" stroke-width=".737"/>
  <g>
    <path d="M221.388,305.238c22.519,16.302,17.161,12.401,34.747,25.141" fill="none" stroke="#000" stroke-linecap="round" stroke-linejoin="round" stroke-width="2"/>
    <path d="M265.91,337.463c-5.836-1.625-13.653-2.845-19.424-2.323l8.365-5.686,2.791-9.72c1.304,5.647,4.903,12.692,8.268,17.729Z"/>
  </g>
<style>
#g-neighborhoods-tablet-manhattanville-img rect, #g-neighborhoods-tablet-manhattanville-img circle, #g-neighborhoods-tablet-manhattanville-img path, #g-neighborhoods-tablet-manhattanville-img line, #g-neighborhoods-tablet-manhattanville-img polyline, #g-neighborhoods-tablet-manhattanville-img polygon { vector-effect: non-scaling-stroke; }
</style>
</svg>
