<?xml version="1.0" encoding="UTF-8"?>
<svg id="g-neighborhoods-tablet-morningside-img" xmlns="http://www.w3.org/2000/svg" baseProfile="tiny" version="1.2" viewBox="0 0 600 688.591">
  <!-- Generator: Adobe Illustrator 29.1.0, SVG Export Plug-In . SVG Version: 2.1.0 Build 142)  -->
  <path id="morningside" d="M319.613,412.878l-8.856-4.904-3.291-1.85-6.898-10.285-3.09-4.762-3.385,6.095-5.014-7.309-.194-.298-.382-.576-4.042-6.078-2.279-3.426-.168-.255-.416-.636-.382-.525-.235-.331-6.744-9.773-7.327-4.059-2.045-1.115-2.259-1.367-1.146-.741-.375-.241-.315-.217-.804-.455-.496-.195-.804-.315-4.223,5.799-2.239,2.927-.261.412-1.696,2.188-4.518,7.371-1.126,2.092-4.719,9.637-.08.356-1.468,2.712-.872,1.551v.005l-1.039,2.006-.818,1.376-.556,1.032-1.368,2.725-.322.384-.731,1.429-.697,1.336-.845,1.522-.637,1.059-.711,1.389-.818,1.68-.248.674-.489,1.151-.235.225-.55,1.071-1.662,2.95-.872,2.011-.469,1.151v.37l-.288.278-.228.503-.107.436-.449.542-.523.992-.013.344-.476.821-1.053,2.063.094.304-.221.33-.53.834-1.14,2.169-.235.609-.496,1.402-.08.583-.644.885-1.166,1.707-.395.979-1.066,1.62-.127.192-2.748,4.934-1.307,2.183-.677,1.296-2.024,3.466-1.542,2.515-3.942,6.738.737.381.898.465.476.226.429.219,5.564,2.661,7.24,3.466.295.14.396.172,2.742,1.199,7.642,3.843.623.315.637.362,2.594,1.437.858.477,2.889,1.597.845.471,6.657,3.678,2.95,1.634,17.088,9.454,8.782,5.196,3.064-5.552,2.815-5.057,2.695-5.143.275-6.362-.194-4.058-.047-1.015-.08-1.546-.188-3.594-.033-.93.087-.926.208-.906.328-.871,2.862-5.51.161-.281,2.521-4.556.114-.214,2.822-5.085,1.998-3.586.181-.317.496-.892.154-.275,2.822-5.08,2.782-5.064,2.842-5.133,8.534,4.743,1.837-3.255,1.213-1.732,2.99-5.423,3.003-5.473" vector-effect="none" fill="#618acf" fill-rule="evenodd" stroke="#232323" stroke-linecap="square" stroke-linejoin="bevel" stroke-width=".737"/>
  <g>
    <path d="M179.596,372.312c22.519,16.303,17.161,12.401,34.747,25.142" fill="none" stroke="#000" stroke-linecap="round" stroke-linejoin="round" stroke-width="2"/>
    <path d="M224.118,404.537c-5.836-1.624-13.653-2.845-19.424-2.323l8.365-5.686,2.791-9.72c1.304,5.647,4.902,12.692,8.268,17.729Z"/>
  </g>
<style>
#g-neighborhoods-tablet-morningside-img rect, #g-neighborhoods-tablet-morningside-img circle, #g-neighborhoods-tablet-morningside-img path, #g-neighborhoods-tablet-morningside-img line, #g-neighborhoods-tablet-morningside-img polyline, #g-neighborhoods-tablet-morningside-img polygon { vector-effect: non-scaling-stroke; }
</style>
</svg>
