<?xml version="1.0" encoding="UTF-8"?>
<svg id="g-neighborhoods-desktop-council-img" xmlns="http://www.w3.org/2000/svg" baseProfile="tiny" version="1.2" viewBox="0 0 1200 900">
  <!-- Generator: Adobe Illustrator 29.1.0, SVG Export Plug-In . SVG Version: 2.1.0 Build 142)  -->
  <path d="M534.338,503.483l3.045,1.125.075.121.037.147-.019.153-.159.264.663-.081.336.189.252.143,5.913,3.325,4.157,2.3.374.206.355.195,3.335,1.843,1.326-2.388,8.22,4.559,2.055,1.141,3.512,1.947,2.644,1.465-1.336,2.381,5.24,2.886,2.999,1.672-1.326,2.373-1.326,2.382-1.317,2.373-1.317,2.382-1.345,2.419-1.289,2.335-1.289,2.447-1.242,2.382-.831-.458-.579,2.737-.813,2.728-.831,2.644-.859,2.868-.682,2.943-.654,2.718-.645,2.709-.635,2.718-.523,2.784-.448,2.812-.383,2.886-.458,3.064-.103,1.382-.187,1.784-.402,2.793,7.753,4.316-1.308,2.345-1.289,2.345-1.308,2.354-1.308,2.354,4.633,2.559-1.308,2.354-1.298,2.354-1.326,2.391-1.364,2.335-.813,1.523-.504.971-.971-.542-2.335-1.308-.757,2.914-.56,2.765-.523,2.615-.346,1.681-.215.981-.476,2.597-.607,2.522-5.474-2.989-1.242,2.233-1.345,2.429-6.296-3.475-1.504-.813-1.523-.859-1.438,2.606-1.448,2.634-1.354,2.401-1.345,2.457-.747,1.336-.533.972-1.364,2.447-1.065,2.008-.589,1.028-.887,1.569-1.289,2.335-1.28,2.317-1.326,2.438-.785,1.84-1.373,3.129-.131.392-.934,2.457-.747,2.176-.093.28-.654,1.681-.374.971-.458,1.579-.094.318-.243.785-.822,2.7-.346,1.112-.523,1.691-1.513-.177-3.55-.43-2.046-.252-3.092-.383-.037.29-2.289-.299-1.438-.187-.719-.084-2.363-.28-2.737-.374-.299-.037-.336-.075-.523-.075-.906-.14.028-.206-.495-.168-9.836-1.681.056-.318,2.363.327,2.578.336,3.101.383,2.326.271.458-6.772-8.697-.887.131-.607.364-3.428.411-4.25-.028-.084.14-.121.065.047,8.258.887.205-3.055.056-.757.224-3.307.149-2.606-1.504-.084-7.352-.149.009-1.009,8.958.14.009-.206.234-.056.178-.149.065-.14.019-.159-.047-.159-.084-.131-.271-.168.103-1.532-3.428-.215.047-1.046,3.438.205.075-1.009.224-3.092.196-2.606-.103-.028.019-.178-.047-.047-.084-.121-.047-.149.009-.149.056-.131.159-.159v-.178l.103.009.149-2.382.149-2.373.112-1.784-1.766-.103.056-.803-.131-.149-.075-.177.205-.009.037.009.009-.028,1.728.121.075-1.289.103-1.794-.308.009-.159-.056-.551.047-1.859-.159-.28-.168-.28-.009-.019-.028v-.794l-.131-.103.019-.215.205.028.084-1.214.037-.374.159-2.326-2.018-.084.009-.252-1.457-.093-.009-.187.252.019v.028l3.176.177.29-.14,1.896.149,3.148.149.392-.308.009-.056-.065-.121-.009-.121.047-.084.112-.28.149-.962-.364-.364-.364-.187.131-.243-1.709-.925-.504.794-2.924-1.616,1.607-2.942,1.588.906.476-.822,2.326,1.261.121-.234.252.047.112-.775.177-1.485-.43-.047v-.056l-1.093-.14.149-1.168-.047-.019-7.333-.971-.056-.056-.028-.103.168-1.289.056-.093.14-.065.131.019,7.127.99.065-.075.149-1.056.131.019,1.018.131.411.056.28-1.98.215-1.597-.009-.084-.607-.103-1.831-.318-.112-.019.159-1.112-1.037-.149-.056.047-.009.075-.009.112-.028.159-.019.168-.028.196-.019.131-.019.168-.028.168-.019.196.028.037.336.047v.065l-.859-.103.009-.084.318.037.047-.028.047-.318.028-.205.019-.121.019-.187.019-.149.028-.196.019-.121.009-.075-.047-.047-1.383-.196-.056.047-.009.075-.019.112-.019.14-.019.187-.028.205-.019.131-.009.065-.056.458.047.037.336.037-.009.065-.999-.103.009-.075.448.047.065-.037.047-.439.019-.112.037-.327.028-.271.019-.159.009-.065-.047-.037-1.616-.215-.037.047-.019.224-.019.131-.028.215-.019.159-.028.262-.009.112-.037.261.056.037.318.028v.056l-1-.103.009-.056.448.047.056-.364.019-.093.047-.327.019-.131.047-.262.037-.234-.037-.056-1.663-.224-.159,1.392.037.075.327.028v.047l-.486-.047.187-1.513.009-.103.009-.103-.047-.084.187-1.289.019-.084.093-.065h.131l3.12.411.009-.121,1.224.178v.056l.532.084-.009.075,1.401.187.037-.252.028-.243.019-.131.028-.243.019-.121.037-.262.009-.131.037-.243.009-.121.019-.103.009-.093.037-.28-6.277-.887-.093-.037-.075-.084.009-.103.168-1.289.056-.065.084-.028.112.019,6.361.85.308-2.27-1.224-.159v.056h-.019v.056l.047.009v.112l-1.196-.14.019-.131.149.019.019-.121-4.213-.589-.112-.065-.028-.075.168-1.317.047-.093.084-.056.103.009,6.389.869.327-2.382-.103-.009v.047l-.262-.028-.009.056-.99-.131v-.028l-.308-.047.009-.093-4.764-.654-.084-.047-.056-.084v-.065l.187-1.252.056-.065.065-.028.093-.009,3.26.458,1.121-3.951.887-.056.439-1.467-4.549-2.475.327-1.14,4.521,2.559.85-2.961-.075-.149.187-.616.131-.093.261-.878-.663-.243-1.102-.57.047-.075,1.102.589.271.093.019-.065-.934-.458.028-.056-.234-.131-.028.028-.168-.084v-.009l.14-.271.178.093-.028.047.224.121.037-.075.701.392.243.131.028-.065-.243-.112-1.962-1.074.037-.065,2.457,1.345.159-.523-1.14-.635.047-.075-.103-.056-.037.065-2.933-1.607.056-.084-.121-.065-.056.084-.243-.131.205-.364-.14-.084.14-.271.383.215-.29.514.14.065.028-.028,2.896,1.607-.019.037.121.075.308-.542.962.542.99-3.438.318-1.093.476-1.635.336-1.177-.355-.205.43-.738.355.205.514-.943.028-.047-.374-.196.411-.747.364.196.542-.943.439-.803.299-.532.364-.663.299-.542.775-1.411.299-.532.392-.747.121-.243.336-.644,1.13-2.027.598.346,1.177-2.195-.476-.28-.897-.551.719-1.252-5.595-3.055-.084-.056-.047-.112.019-.103,1.373-2.447.065-.065h.093l.094.009.364.177,5.24,2.886.859-1.588.869.486.29-.514-.794-.439-.476-.28.121-.234.159-.29-.28-.187-.037.037-.178-.131.149-.187.168.131-.037.047.261.196.065-.121,1.28.71.271-.532-1.028-.598.299-.495.691-1.214.579-1.046.729-1.336,1.009.57,1.298-2.335-6.389-3.606-.037-.065.009-.056.308-.532.065-.047.075.019,6.361,3.587,1.196-2.158.738-1.326-6.436-3.568.42-.738,6.436,3.522,1.196-2.167-6.296-3.475.589-1.074-.327-.187-.215.065-.075.14-.177-.103.187-.346.093-.056h.103l5.857,3.26.962.504,2.326,1.326.831-.626.047.047.308-.56.205-.383.037-.065.813-1.457-9.033-5.015-.037-.138.673-1.201.093-.06,8.164,4.528.262.149.645.355.897-1.63-.065-.284-.103-.048-.093-.071-.056-.125-.028-.142.019-.129.065-.108.093-.088.131-.061.308-.081.131-.071.103-.132.121-.256.196-.391.056-.119-.028-.059-9.425-5.237-.093-.123.037-.074.486-.887.084-.074.14-.007.065.036,9.07,5.125.019-.045.243.129,1-1.815.99-1.804-9.397-5.247-.065-.065v-.094l.56-.985.112-.032.094.032,9.341,5.23.981-1.794,1.037-1.894-9.463-5.227-.019-.124.523-.93.112-.064.131.012,6.941,3.923.131-.239-.364-.198.402-.689.346.187.925-1.692-7.099-3.95.766-1.375,7.081,3.902M496.581,608.495l-2.074-1.158-.318.589,1.084.635-.99,1.878,1.719.953.14-.243.467.243.037-.336.205-1.401.112-.729-.514-.224.131-.205" vector-effect="none" fill="#bababa" fill-rule="evenodd" stroke="#232323" stroke-linecap="square" stroke-linejoin="bevel" stroke-width=".737"/>
  <path d="M573.478,597.014l.159.084,1.298-2.345,1.289-2.354.205.112,4.493,2.485-1.298,2.345,4.624,2.559,5.306,2.933.448.252.897.504-1.289,2.345-1.382,2.279-1.401,2.335-1.298,2.363,2.139,1.233.747.43.887.514.813.43.402.205,1.859.981-1.298,2.335-1.298,2.335-1.308,2.373-1.308,2.345-1.41,2.541-.094.794-.971,1.952-1.27,2.326-.327.617-.187.318-.757,1.317-.869,1.588-.336.598-.504.915-.766,1.392-.71,1.298-.486.859-.607,1.093-.663,1.168-.887,1.569-.476.85-1.018,1.84-.187.327-.495.234.252.131,1.625.841.701.364,3.839,2.111,1.205.691,2.354,1.336,3.129,1.812,1.411.785,1.84,1.028,2.046,1.121,1.112.542.42.215,6.857,3.933,3.606,2.083.215.187.187.149.159.121.177.177.486.318-.121.906-.075.57-.065.458-.056.458-.084.635-.019.047-.047.028h-.075l-.121.878-.047.308-.028.299-.075.504-.065.439-.019.065-.065.448-.121.757-.093.598-.084.476-.019.084-.028.149-.009.112-.037.168-.168.962-.028.149-.149.766-.047.318-.093.504-.168.953-.103.579-.112.616-.327,1.719-1.093,6.118-.897,4.755-1.074,4.717-.999,3.821-1.084,3.793-1.168,3.765-1.252,3.746-3.12-1.224-.308-.121-.065.168-.159-.056-.159-.065-.29-.103-.178-.065-2.195-.887-1.831-.757-.523-.196-.355-.149-.327-.252-.159-.047-.178-.065-1.373-.56-.654-.271-1.14-.439-.364-.159-.318-.121-1.205-.476-.299-.121-.869-.355-2.447-.972-2.447-.981-2.298-.887-2.55-1.037.047-.121.112-.299,1.728-4.39,1.719-4.39-1.457-.579-.252-.103-.719-.28-2.419-.981-2.438-.962-2.419-.972,1.737-4.428.112-.29-.99-.439-1.233-.542-2.457-.859-2.111-.869-1.962-.785-.28-.112-.346-.14-1.831-.775-2.55-.962-2.176-.85-.719-.299-.234-.093-2.447-.981-.962-.392-.205-.084-.196-.084-2.27-1.037-2.092-.99-2.111-.981-1.214-.504-1.495-.476-2.681-.85-2.429-1.392-2.167-1.41-2.195-1.42-2.307-1.495-2.074-1.336-2.186-1.42-2.195-1.429-.794-.532-.579-.392-.28-.168-.28-.149.093-.28.747-2.176.934-2.457.131-.392,1.373-3.129.785-1.84,1.326-2.438,1.28-2.317,1.289-2.335.887-1.569.589-1.028,1.065-2.008,1.364-2.447.533-.972.747-1.336,1.345-2.457,1.354-2.401,1.448-2.634,1.438-2.606,1.523.859,1.504.813,6.296,3.475,1.345-2.429,1.242-2.233,5.474,2.989.607-2.522.476-2.597.215-.981.346-1.681.523-2.615.56-2.765.757-2.914,2.335,1.308.971.542.504-.971.813-1.523,1.364-2.335,1.326-2.391,1.298-2.354,1.308-2.354-4.633-2.559,1.308-2.354,1.308-2.354,1.289-2.345,4.633,2.569,4.521,2.503" vector-effect="none" fill="#bababa" fill-rule="evenodd" stroke="#232323" stroke-linecap="square" stroke-linejoin="bevel" stroke-width=".737"/>
  <path d="M620.754,695.695l-.187.187.187.093v.093l.28.187h.094l-.094.187,1.775,1.308-.093.093-1.681-1.308-.093.187-.747-.561.28-.374.093.093.094-.187v-.374l-.094-.094h-.093v-.187h.093l.094-.093h.093v.093l.093.093-.093.093v.467h0" vector-effect="none" fill="#bababa" fill-rule="evenodd" stroke="#232323" stroke-linecap="square" stroke-linejoin="bevel" stroke-width=".737"/>
  <path d="M627.143,690.511l-.093.14-1.962-3.232.308-.149,1.859,3.083-.112.159" vector-effect="none" fill="#bababa" fill-rule="evenodd" stroke="#232323" stroke-linecap="square" stroke-linejoin="bevel" stroke-width=".737"/>
  <path d="M618.727,699.245l1.7,1.14-.094.178-1.7-1.168-.028.047-.327-.187.215-.383.14-.262.327.168-.056.121-.178.346" vector-effect="none" fill="#bababa" fill-rule="evenodd" stroke="#232323" stroke-linecap="square" stroke-linejoin="bevel" stroke-width=".737"/>
  <path d="M625.424,689.81l1.373,1.214-.103.131-1.355-1.27-.177.215-.308-.271.29-.346.224-.271.29.29-.234.308" vector-effect="none" fill="#bababa" fill-rule="evenodd" stroke="#232323" stroke-linecap="square" stroke-linejoin="bevel" stroke-width=".737"/>
  <path d="M624.855,691.408l-.243.224-1.625-1.373.234-.252,1.635,1.401" vector-effect="none" fill="#bababa" fill-rule="evenodd" stroke="#232323" stroke-linecap="square" stroke-linejoin="bevel" stroke-width=".737"/>
  <path d="M627.76,689.483l-.112.308-.897-.729.196-.243.813.663" vector-effect="none" fill="#bababa" fill-rule="evenodd" stroke="#232323" stroke-linecap="square" stroke-linejoin="bevel" stroke-width=".737"/>
  <path d="M626.91,522.92l-1.326,2.382-1.317,2.373-1.317,2.391-1.326,2.373-1.317,2.391-1.308,2.391,6.464,3.568,2.307,1.27,4.54,2.541,6.511,3.587,2.008,1.102,1.308-2.429.29.187.514-.962.112-.196.327.178.336.177-.159.196-.673.85-.85,1.261-.29.29-.028.028-1.373,2.27-.019.187-1.084,1.85-.943,1.728-.841,1.317-.411.458h0l-.663.738-1.737,1.737-1.467,2.205-.168.262-.112-.065-1.317,1.971-.607.906.084.084-.841,1.261-1.663,2.391-2.812,4.045-.682.981-1.093,1.579-7.482,11.705-.598.925-.159.224-.178.29-.374.598.383.252-.187.28-.009.047-.009.037-.037-.009-.028.084-.065.047-.037.084-.112.196-.093.14-.093.14-.037.075-.065.112-.047.047-.056.121-.028.047-.131.168v.037l-.028.047-.028.028-.019.056-.065.075-.075.121-.019.047-.065.103-.028.028-.019.047-.121.178-.551.85-.065-.047-.028.009-.037.084-.037.019-.009.037-.037.037-.009.037-.149.224-.168.271-.234.374-.065.084-.037.056-.009.037-.224.355-.019.009-.019.028-.121.215-.056.065v.019l-.047.065-.047.075-.084.131-.168.28-.084.121-.14.215-.075.131-.019.019-.187.29v.037l-.523.803-.084-.047-.019.019-.056-.037.009-.019-.131-.112-.215.355-.121.196-.112.178-.252.402-.355.57.037.047v.056l-.149.271-.187.308-.056.019h-.028l-.103.159-.178.346-.159.29-.476.953-.196-.103-.065-.047-.037-.009-.019-.028h-.037l-.019-.028h-.037l-.028-.028-.121.243-.093.177-.29.589.962.598h.009l.056.028.019.037.103.056.028.047.009.047-.056.084-.056.075h-.019l-.037.028-.084-.056-.019.019-.112-.065h0l-.112-.075-.243-.14-.009.009-.607-.318-.028.009-.075.149-.187.383-.243.476.355.205.084.056-.224.448-.215.43-.402.775-.411.831-.121.234-.607,1.261.364.196.065.037-.093.177-.542,1.056-.252,1.71-.065.383-.084.626-.149.897-.131.925-.252,1.541-.019.065.224.037.056.009.037.009.037.056.009.065v.009l-.14.934-.037.037-.028.019v.028l.112.009-.056.364-.149-.028v.019l.047.037.009.028-.149.981-.028.056-.056.037-.318-.047-.626,3.036v.177l.019.448.019.159v.224l-.009.43.047.215v.187l.009.121v.43l.019.28.009.224-.028.234-.028.019v.065l.028.037.009.476-.019.047-.009.028.037.028.009.654.009.056.028.346-.037.093.019.065.019.29-.028.084.028.504.047,3.41.019.093.009.205.019.168.047.71-.019.056.215,2.438-.056.065-1.037.065-4.474-2.447-.131.458.121.065.019-.037.037.009,1.074.598-.056.103-1.112-.617.009-.019-.112-.047-.112.813.084.009.103.047.019-.009.85.374-.028.075-.859-.374v-.019l-.093-.019h-.075l-.028.56.019.374.056-.299.112.028-.037.14.617.131.009.065-.037.056-.607-.121v.037h-.019l.009.234.019.224h.215v-.019h.374l-.009-.019.215-.009.009.075.093.009.028-.056.159.121.009-.019,1.943,1.056-.065.103.458.252.654.364.719-1.317-.374-.28.019-.037.486.392-.682,1.214.093.065.094-.14.14.093.056-.121.084.047-.318.514-.065-.047.065-.112-.14-.084.065-.103-.094-.065-.093.168-.757-.43-.065.149.009.028.056.075.056.103.019.112-.019.149-.056.149-.094.112-.112.084-.14.065-.121.009-.187-.019-.056.112-2.597-1.41.047.308.037.215.065.327.047.234.065.336.103.533.131.654.037.243.131.617.084.392.037.234.056.29.131.645.131.701.112.56.084.411.093.504.047.075.028.14.084.056.009.093.028.065.075-.009.009.075.028.037.028.065-.065.065.028.121.047-.019-.028-.047.056-.047.065-.019.075.084-.056.056.056.047.056-.047.065.019.037-.047.056.028.056-.019.037.047-.056.037.009.084-.065.019-.028.037-.037.065-.056.009-.065.056-.075.019-.037.075-.065-.009-.093.028.019.112.28,1.439.271,1.439.084.504.056.262.056.243.196,1.065.056.28.318,1.551.084.178.047.056.075.14.065.103.103.168.14.215.103.149.159.215.131.177.131.178.14.168.252.28.252.262.243.28.299.318.243.243.234.224.056.056.364.336.271.252.019.019.42.411.103.121.121.159.14.168.178.262.131.215.075.112.243.392.009.028.121.262.215.411.149.336.168.448.028.103.084.28.065.308.047.28.019.121.037.262.028.439.009.327.009.28-.047.57-.019.318-.075.551-.009.084-.047.42-.112.785-.131,1.14-.037.037-.009.178-.047.028-.084-.047-.047.009-.047.019-.103.906.29.037h.075l.065.009.047.028.028.047h.056l.009.093-.402,2.737-.486-.318-.177-.177-.159-.121-.187-.149-.215-.187-3.606-2.083-6.857-3.933-.42-.215-1.112-.542-2.046-1.121-1.84-1.028-1.411-.785-3.129-1.812-2.354-1.336-1.205-.691-3.839-2.111-.701-.364-1.625-.841-.252-.131.495-.234.187-.327,1.018-1.84.476-.85.887-1.569.663-1.168.607-1.093.486-.859.71-1.298.766-1.392.504-.915.336-.598.869-1.588.757-1.317.187-.318.327-.617,1.27-2.326.971-1.952.094-.794,1.41-2.541,1.308-2.345,1.308-2.373,1.298-2.335,1.298-2.335-1.859-.981-.402-.205-.813-.43-.887-.514-.747-.43-2.139-1.233,1.298-2.363,1.401-2.335,1.382-2.279,1.289-2.345-.897-.504-.448-.252-5.306-2.933-4.624-2.559,1.298-2.345-4.493-2.485-.205-.112-1.289,2.354-1.298,2.345-.159-.084-4.521-2.503-4.633-2.569,1.308-2.345-7.753-4.316.402-2.793.187-1.784.103-1.382.458-3.064.383-2.886.448-2.812.523-2.784.635-2.718.645-2.709.654-2.718.682-2.943.859-2.868.831-2.644.813-2.728.579-2.737.831.458,1.242-2.382,1.289-2.447,1.289-2.335,1.345-2.419,1.317-2.382,1.317-2.373,1.326-2.382,1.326-2.373,3.073,1.7.234.131,4.885,2.718,1.336-2.391,1.308-2.354,1.41-2.587,1.429-2.552,1.355-2.583,5.904,3.304,1.616.897,1.794,1.102,1.336-2.354,1.308-2.354,1.308-2.378,1.336-2.388,1.317-2.372,1.289-2.401,1.326-2.362.887-1.595.439-.781,1.326-2.397,1.345-2.341,1.289-2.4,1.326-2.392,1.429-2.605,1.457-2.584,1.336-2.406,1.336-2.412,1.336-2.423,1.336-2.407,1.326-2.408,1.345-2.437.103-.208,1.429-2.554.28-.498,1.056-1.921,1.345-2.412,1.345-2.423,1.355-2.456,1.326-2.386,1.429-2.538,1.429-2.62,1.298-2.36,1.326-2.389,1.28-2.366,1.336-2.395,1.354-2.398,1.364-2.42,1.149.643,3.456,1.95-1.326,2.387-1.317,2.379,4.334,2.426.318.163.318.184,2.952,1.623.093.051,1.317.727-1.326,2.384-1.326,2.384-1.308,2.391-1.336,2.389,4.624,2.567-.635,1.157-.131.232-.644,1.176-1.448,2.6-1.336,2.415-1.336,2.418-1.326,2.404-1.345,2.417-.719,1.298-.617,1.115-1.438,2.597-1.448,2.601-1.326,2.414-.916,1.645-.42.765-1.345,2.415-1.336,2.406-1.345,2.404-1.42,2.598-1.467,2.604-1.261,2.407-1.354,2.356-1.317,2.387-1.317,2.382-1.373,2.462-1.27,2.288-1.317,2.387" vector-effect="none" fill="#bababa" fill-rule="evenodd" stroke="#232323" stroke-linecap="square" stroke-linejoin="bevel" stroke-width=".737"/>
  <path d="M633.691,648.812v.093l.747-.056.037.131.075.196-.916.056-.019-.103-2.616.168v.075l-.869.047.009.252-.243.028v-.084l-.803.112.028.28-.318.047-.112-.71.336-.075.047.327.822-.103-.028-.374,1.112-.075-.019-.065,2.728-.168" vector-effect="none" fill="#bababa" fill-rule="evenodd" stroke="#232323" stroke-linecap="square" stroke-linejoin="bevel" stroke-width=".737"/>
  <path d="M635.7,654.22v.374h-.374v-.187l-.841.093-.654.467h.093l-.187.374-.187-.093.093-.187-.654.094-.56.374-.187.374-.187-.093.187-.374h.094l.467-.374.093-.187h.187l-.093.093.747-.093.747-.56,1.028-.093h.187" vector-effect="none" fill="#bababa" fill-rule="evenodd" stroke="#232323" stroke-linecap="square" stroke-linejoin="bevel" stroke-width=".737"/>
  <path d="M632.524,676.826l1.121.841-.187.374-1.214-.934v-.187l.094-.093.187.093v-.093h0" vector-effect="none" fill="#bababa" fill-rule="evenodd" stroke="#232323" stroke-linecap="square" stroke-linejoin="bevel" stroke-width=".737"/>
  <path d="M637.876,601.162l-.149.29-.299-.084.065-.299.383.093" vector-effect="none" fill="#bababa" fill-rule="evenodd" stroke="#232323" stroke-linecap="square" stroke-linejoin="bevel" stroke-width=".737"/>
  <path d="M664.975,410.328l-1.42,2.576-1.354,2.384-1.298,2.41-1.317,2.389-.346.635-.177.326-.803,1.453-1.308,2.338-1.467,2.645-1.214,2.169-.822,1.455-.514.904-1.429,2.551-1.401,2.629-1.317,2.366-1.289,2.362-1.364,2.42-1.354,2.398-1.336,2.395-1.28,2.366-1.326,2.389-1.298,2.36-1.429,2.62-1.429,2.538-1.326,2.386-1.355,2.456-1.345,2.423-1.345,2.412-1.056,1.921-.28.498-1.429,2.554-.103.208-1.345,2.437-1.326,2.408-1.336,2.407-1.336,2.423-1.336,2.412-1.336,2.406-1.457,2.584-1.429,2.605-1.326,2.392-1.289,2.4-1.345,2.341-1.326,2.397-.439.781-.887,1.595-1.326,2.362-1.289,2.401-1.317,2.372-1.336,2.388-1.308,2.378-1.308,2.354-1.336,2.354-1.794-1.102-1.616-.897-5.904-3.304-1.355,2.583-1.429,2.552-1.41,2.587-1.308,2.354-1.336,2.391-4.885-2.718-.234-.131-3.073-1.7-2.999-1.672-5.24-2.886,1.336-2.381-2.644-1.465-3.512-1.947-2.055-1.141-8.22-4.559-1.326,2.388-3.335-1.843-.355-.195-.374-.206-4.157-2.3-5.913-3.325-.252-.143-.336-.189-.663.081.159-.264.019-.153-.037-.147-.075-.121-3.045-1.125,1.252-2.289-.392-.206.336-.602.383.222.99-1.814-.953-.49.131-.247-.252-.216-.056.099-.28-.158-.037.087-.215-.123.29-.543.019.012.112-.198.187.09-.112.205.29.163-.065.093.355.11.019-.045.915.536.523-.969.392.038.093-.033.065-.072.028-.066v-.116l-.243-.348.084-.144.009-.051-6.062-3.362.579-1.044,6.072,3.377.943-1.702-2.914-1.619-2.242-1.241.318-.557,5.138,2.854.271-.007.252.149.953-1.691-.159-.091-.009.002-.205.04-.149.235-.318-.157-.037.084-.476-.259.056-.091-.271-.174.168-.312.065-.132-2.111-1.236-.131.255-.056.097.215.116-.103.232-3.438-1.873.131-.238.252.137v-.004l.131-.264-.187-.101-.009-.003.009-.01.084-.134-.056-.032-.178-.102.243-.377.121.066,1.392.753,4.727,2.629.215-.343.112-.426.159-.39.196-.297.224-.266.271-.313.243-.213.093-.122.159-.473,2.12-3.982.131.069.149-.176.168-.084.187.023.392-.373.607-1.451-.196-.044-.29.102-.299.051-.093-.126-.065-.21.859-1.623.196-.34,1.709-3.067,1.448-2.614.57.024.962-.093.859-1.565,1.308-2.4,1.289-2.376v-.002l.075-.132.262-.457.626-1.085-.009-.078-1,.06-.177-.097-.374-.054-.262.049-.28.102-.243.078-.215.024-.252-.036-.299-.06-.28-.042-.28.03-.243.066-.327.078-.271-.012-.224-.012-.336-.03-.355.018-.364.096-.262.024-.271-.049-.29-.066-.252-.006-.037.079-.112.078-.075-.007-.112.175-.551.042.374-.687,7.333-.471-.159-.293.037-.392.047-.14v-.1l-.028-.394,1.56-2.871.43-.958.065.029.187-.533.019-.051.028-.086.252-.7-.168-.064.065-.183.168.064.168-.52.112-.237.131-.223,4.045-7.699.645-1.226.402-.761,1.439-2.673.439-.832-2.046-2.69-.822.567-1.784,2.775-.131-.079,1.794-2.817.962-.649.103-.446.168-.007.131.045-.205.649,1.934,2.45,1.009-1.933-.346-.169.084-.178-.131-.064-.112.206.037.013-.028.036-.093-.059.121-.218-1.28-.708-.093.176-.14-.077.234-.432.14.075-.103.179.159.089,1.186.654-.019.031.14.07.093-.149.327.176.234-.444.813-1.536-3.148-.134-.42.546-.149-.1-.019-.131.392-.493,1.962.111,1.485.006,2.672-5.055,3.895-7.377,1.336-2.517,1.429-2.707.29-.56.99-1.873,1.186-2.24.299-.522.869-1.52.252-.456,2.186-4.047,2.887-5.359,1.429-2.655,2.728-5.122,1.308-2.441.121.073,1.495.856.71.375.29.158.271.155.486.259.467.252,2.709,1.404.084.651-.019.655-.121.645-.215.617.093.401-.729.632-1,.873-.644.569,5.212,2.91-1.411,2.559-1.336,2.384-1.308,2.388,3.821,2.124.308.171-1.336,2.384.299.165,3.802,2.1.831.462.205.119,7.174,3.989,1.373-2.436.392-.748.178-.32.701-1.307,1.326-2.373,1.401-2.563,1.784.981,6.445,3.558,1.467-2.655,1.074-1.97.271-.49,1.42-2.547.402-.72.299-.563.448-.841,1.336-2.339,1.326-2.386,1.326-2.403,1.326-2.388.673-1.207.654-1.189,1.42-2.547,1.42-2.588,1.336-2.411,1.317-2.376.822-1.476.467-.828.887.256,7.221,3.985.187.098.131.074.103.055,7.099,3.931.682.389.196.104.252.124,4.138,2.305,3.456,1.922,1.485.855-.542,1.011-.766,1.482-1.364,2.393-1.355,2.389-1.392,2.566" vector-effect="none" fill="#bababa" fill-rule="evenodd" stroke="#232323" stroke-linecap="square" stroke-linejoin="bevel" stroke-width=".737"/>
  <path d="M712.998,251.734l-.037.089.037.085.009.091-.056.138-.112.09-.084.135-.019.073-.019.105-.047.098-.075.045-.019.085-.056.094-.065.019-.093.091v.112l-.103.109-.075.039-.047.106-.019.105-.065.185.019.214v.077l-.037.112-.093.04-.084.061-.065.071-.065.299-.065.089-.056.573-.019.203-.047.548-.056.356-.028.154.112.16-.028.091-.019.099v.106l-.019.028v.051l-.065.04-.103.781-.019.358.019.188-.037.142-.093,1.093.019.14-.037.082-.037.572v.117l-.019.103-.028.882-.019.185v.089l-.037.034.019.072-.009.12.009.051-.037.079v.071l.019.049.028.103v.046l.019.051-.047.051-.019.043.028.034.009.348.009.086.019.025.009.072-.019.074v.063l-.009.082.009.157-.037.006-.037.069-.065.036.009.084.028.648.075,1.213.047-.008.103,1.613-.047-.003.019.316.056.59.084.873.514,5.384.093.95.093.062-.009.074.037.018-.009.045.037.061.028.077.028.077-.009.163.056.077.009.107-.028.046.037.085.047.092-.009.088.028.123.037.207.028.092-.056.06.019.228.037.046.047.058.037.504-.056.057-.075.029.028.1.056-.006.009.065.019.014.047.057.009.188-.028.036-.009.094v.154l.019.117.009.114.056.022.056.811.009.015.028.028-.019.08v.03l.028.023v.177l-.009.031-.028.094.009.175v.072l-.009.174.028.111-.009.103.019.071-.028.071.037.071-.009.063.019.103.019.16-.028.032.028.049-.009.042-.019.072.019.048.009.149.065-.022.019.172.037.263.009.081.028.221.028.231-.047.017.019.206.037.319.009.139.271,2.609-.168.022.047.741.112,1.424.177,2.434.028.026.093,2.237.084,2.218.009.582.056.218.084,1.035.075,1.398.159,2.74.056.189v.032l.037.837.037.583.009.467.047,1.229.009.233v.136l.019.411.037.724.019.337-.009.085.019.515.075,1.455-.009.163.037.689.028.517.065,1.593.009.227.047,1.286-.009.121.047.907.411.036v1.157l.009.224.075,3.828.028,2.18.009,2.377-.047,2.43-.065,3.525-.336-.008v.043l.009.042-.019.035v.05l.019.043v.059l-.028.073v.042l.056.055-.037.11.019.102-.028.055.009.043-.028.067.019.092v.204l-.009.107v.119l.028.115-.019.114.009.077-.047.098-.019.11.019.119-.019.115-.047.347-.009.135.019.064v.08l.019.098-.019.089.028.145-.056.046.047.064-.037.076-.019.073.047.055-.009.085-.009.199.028.11.028.136-.075.14-.065.169.458.008-.019.884v.365l-.019.198-.009.144-.159,2.721-.149,2.027-.075.785-.084,1.017-.159,1.417-.131.973-.168,1.214-.243,2.168-.065,1.298-.028.606-.075,1.5.009,1.39.355,1.912.056.105.177,1.123.037.305,1.625,4.013.673,1.071.196.31-.85.477-.215.118-.112.066-.234.142-.206-.312-.28-.491-.972-1.737-.822-1.68-.374-.148-1.27,2.418-1.317,2.369-1.308,2.364-.178.307-1.14,2.072-1.317,2.374-1.42,2.555-1.429,2.57-1.317,2.389-1.317,2.386-1.326,2.389-.131.238-1.196,2.162-.906,1.633-.121.228-.299.53-1.326,2.386-4.288-2.378-.355-.198-1.336,2.396-.663,1.18-.775,1.373-.402-.222-4.269-2.358-1.298-.717-1.878-1.041-1.485-.821-1.476,2.676-.887,1.597-.14.247-.14.252-.121.229-.841,1.514-.131.243-.177.31-.084.157-.589,1.066-.149.26-.149.275-.149.275-.308.546,3.139,1.738,1.523.84-1.373,2.486-1.355,2.438-.495.891-.206.361-.57,1.106-1.364,2.383-.215.404-.617,1.109-.234.419-.112.199-.14.26-1.429,2.572-4.633-2.581,1.392-2.566,1.355-2.389,1.364-2.393.766-1.482.542-1.011-1.485-.855-3.456-1.922-4.138-2.305-.252-.124-.196-.104-.682-.389-7.099-3.931-.103-.055-.131-.074-.187-.098-7.221-3.985-.887-.256-.887-.333-1.028-.559-2.345-1.288,1.439-2.615,1.326-2.381,1.27-2.422.131-2.996-.093-1.91-.019-.478-.037-.728-.093-1.693-.019-.438.047-.436.093-.426.159-.411,1.345-2.594.075-.133,1.186-2.146.056-.1,1.336-2.395.934-1.689.084-.149.234-.419.075-.13,1.326-2.392,1.317-2.384,1.336-2.417.065-.121.252-.449.065-.116.925-1.68.644-1.163.803-1.436,1.345-2.59,1.205-2.438.047-3.056.103-3.058.29-2.932.308-2.948.299-2.652,1.42-2.578,1.448-2.616,2.569-1.85-3.811-2.111,1.308-2.368,2.644-4.775,1.308-2.349,1.308-2.384,1.317-2.347,3.998,2.208,1.326-2.392.691-1.228.635-1.14,1.298-2.361,1.42-2.554,1.42-2.551,1.308-2.38,1.317-2.371,1.317-2.374,1.345-2.36,1.056-.91,1.121-.968,2.307-1.806.383.21.346-1.194.121-.445.28-1.044.411-1.354.43-1.397.402-1.368.439-1.427.85.471,2.102,1.174.598.326.206-.449.205-.93.037-.147.243-.688.355-.545.14-.178.458-.638.439-.672.299-.745.252-.85.112-.342.374-.924.318-.673.504-.936.56-.896.831-1.071.925-1,1.952-2.029.831-.827,1.168-1.217,2.531-2.448,1.205-1.223.701-.761.299-.313.308-.369.523-.791.112.056.523.262" vector-effect="none" fill="#bababa" fill-rule="evenodd" stroke="#232323" stroke-linecap="square" stroke-linejoin="bevel" stroke-width=".737"/>
  <path d="M693.036,271.105l-.439,1.427-.402,1.368-.43,1.397-.411,1.354-.28,1.044-.121.445-.346,1.194-.383-.21-2.307,1.806-1.121.968-1.056.91-1.345,2.36-1.317,2.374-1.317,2.371-1.308,2.38-1.42,2.551-1.42,2.554-1.298,2.361-.635,1.14-.691,1.228-1.326,2.392-3.998-2.208-1.317,2.347-1.308,2.384-1.308,2.349-2.644,4.775-1.308,2.368,3.811,2.111-2.569,1.85-1.448,2.616-1.42,2.578-.299,2.652-.308,2.948-.29,2.932-.103,3.058-.047,3.056-1.205,2.438-1.345,2.59-.803,1.436-.644,1.163-.925,1.68-.065.116-.252.449-.065.121-1.336,2.417-1.317,2.384-1.326,2.392-.075.13-.234.419-.084.149-.934,1.689-1.336,2.395-.056.1-1.186,2.146-.075.133-1.345,2.594-.159.411-.093.426-.047.436.019.438.093,1.693.037.728.019.478.093,1.91-.131,2.996-1.27,2.422-1.326,2.381-1.439,2.615,2.345,1.288,1.028.559.887.333-.467.828-.822,1.476-1.317,2.376-1.336,2.411-1.42,2.588-1.42,2.547-.654,1.189-.673,1.207-1.326,2.388-1.326,2.403-1.326,2.386-1.336,2.339-.448.841-.299.563-.402.72-1.42,2.547-.271.49-1.074,1.97-1.467,2.655-6.445-3.558-1.784-.981-1.401,2.563-1.326,2.373-.701,1.307-.178.32-.392.748-1.373,2.436-7.174-3.989-.205-.119-.831-.462-3.802-2.1-.299-.165,1.336-2.384-.308-.171-3.821-2.124,1.308-2.388,1.336-2.384,1.411-2.559-5.212-2.91.644-.569,1-.873.729-.632-.093-.401.215-.617.121-.645.019-.655-.084-.651-2.709-1.404-.467-.252-.486-.259-.271-.155-.29-.158-.71-.375-1.495-.856-.121-.073.327-.617,1.308-2.499.149-.244-.028-.203.084-.192.626-1.019.794-1.539.523-.976.355-.685.364-.717.504-.971.514-.929.99-1.747.589-1.112.112-.307.364-.593.159-.464.308-.49.205-.227.504-1.041.467-.76.224-.55.168-.307.103-.07.318-.669.159-.27-.009-.134.915-1.683,1.112-1.979.346-.803.28-.34.392-.372.056-.26.252-.555.262-.421.028-.205.486-.906.439-.739.532-.995,1.85-3.172.729-1.184.953-1.632.318-.611.617-1.028,1.298-2.323.056-.091.504-.763.187-.461.551-.803.299-.417.037-.275.234-.66.112-.287.532-1.022.252-.392.103-.156-.037-.143.495-.972.215-.386.009-.162.252-.468.205-.255.056-.206.103-.237.14-.131v-.174l.215-.543.411-.946.785-1.39.262-.504.112-.106.224-.542.121-.318.383-.791.336-.655.299-.498.392-.717.336-.63.346-.673.149-.181.645-1.284.262-.486.383-.647.486-.945v-.002l.411-.731.691-1.277.037-.168,2.223-4.538.533-.985,2.13-3.471.794-1.03.121-.194,1.065-1.379,1.98-2.73.439-.656,1.625-2.418,1.065-1.585,1.448-2.153,1.289-1.924.533.324,1.224-2.12.187-.347.131-.185.439-.662-.224-.148-.159-.106-.121.174-.355-.237.813-1.213.327.22-.589.897.168.108.252.164.785-1.187-.355-.193.252-.401.318-.498-.635-2.161-.103-.136-.327-.172-.336.639-1.971-1.08.887-1.611,1.962,1.075-.355.648.374.21.149.136.084.172.542,1.85.009.053.346.23.943-1.671.093-.665.112-.277.159-.305.392-.62-.841-.432.065-.13.187-.375-2.952-1.638-.056-.028-.738-.392-.075-.033-.056-.029-.037-.031-.019-.017-.019-.018-.065-.089-.019-.038-.009-.037-.009-.022v-.009l.037-.143-.065-.034,1.196-2.373.355-.71.065.03,4.493-8.947.514-1.022.897.444,1.821-3.59.336.163v.016l-.065.103,3.428,1.735.981-1.921.448.216.224-.429h0s.075-.123.075-.123l.224-.423.262-.451.159-.27.131-.204.103-.123.215-.262.084-.107.028-.048.103-.154.093-.16,1.046-1.949,1.775-3.776,2.279-4.515.785-1.303.308-.778.439-.581.299-.598.673-1.314.364-.607.131-.549.271-.528.037-.38.093-.449.159-.544.252-.573.168-.305.234-.297.131-.225.327-.522.159-.369.084-.225.103-.37.084-.166.224-.312.159-.341.215-.174.925-3.734.271-.78.037-.117.121-.409.009-.295.075-.263.056-.333.028-.225-.019-.454-.009-.126.019-.134.084-.309.037-.111.065-.045.056-.277.056-.681.103-.458.103-.233.159-.152.196-.038.168-.014.112-.038.028-.084-.065-.066-.215-.044-.178-.043-.009-.002-.159-.086-.131-.246,1.046-3.745.084-.264.42-1.871.224-.829.252-.884.234-.549.29-1.07.28-1.002.187-.39.196-.735.271-.519.178-.252.112-.206.458-1.326.308-.715.308-.92.29-.874.149-.524.299-.555.14-.453,2.606.88.589.201,1.859.479.205.051.177.027,2.877.173-.093,1.127-2.522,3.34-.084.488-.028.496.028.499.084.491.121.476,5.222,2.897.065-.298.719-2.381,1.149-3.877,5.297,3.666.28.189-1.597,2.865-1.308,2.37-1.308,2.38-1.317,2.36-1.326,2.373-1.317,2.375-1.317,2.39-1.308,2.361-1.177,2.126-.14.243-1.411,2.556.299.167,7.921,4.381,4.652,2.572" vector-effect="none" fill="#0c3275" fill-rule="evenodd" stroke="#232323" stroke-linecap="square" stroke-linejoin="bevel" stroke-width=".737"/>
  <path d="M736.118,93.377l.187.093.093.093v.467l-.093.093-.187.093-.093.28-.094.28.187.28.28.28.28.093.374.093h.654l.747-.187.654-.187.56-.374.094-.28.187-.28.187.093.561-.187h.56l.654.093,1.121.28.467.187h.374l.28-.093h.187l.747.093.28.187.093.093h.093l.093.093.093.093.187.187.093.187.187.093.187.093h.187-.093v.093h.093l.093.093.094.093h.28v.093l.093-.093v.28h.094v-.093l.187.093v.093l.187.093v.093h.094v1.962l-.187,1.775v.467l-.093.467-.28.747-.093.654-.093.747-.093.654.093.747.093.654.187.747.187.654.374.654.374.654.374.56.467.467.561.56.56.374.654.374.654.28h.187l.467.187h.374l.093-.093h.093v.093h.374l.093-.093h.093l.094-.093h.093l.093-.093h.093l.093-.093h.094l.093-.093.093-.093.093-.093h.093v-.093h.094v-.093h.093v-.093l.093-.093v-.093l.093-.093.093-.187.094-.093v-.56l.093-.093v-.093h.093v-.093h.28v-.093l-.094-.093h-.28l-.093-.093v-.093l.093-.093h-.093v-.374l-.094-.093-.374-.28v.093l-.094-.093-.093-.093h-.093v-.093l-.187-.187-.187-.093-.187-.093-.093-.093-.094-.093v-.093h-.187l-.093-.093-.093-.093v-.093l-.467.187-.094-.093v-.093l.467-.187-.093-.093v-.093l-.093-.093v-.28l-.093-.093v-.187l-.093-.093v-.093h-.094l.094-.093h-.094v-.187h-.093v-.187h-.093v-.187h-.093v-.093l-.093-.093.093-.093h-.093v-.187h-.094l-.093-.093v-.187l-.093-.093-.093-.093v-.093l-.093-.093-.094-.187-.093-.093v-.093l-.093-.093h.093v-.28h.093v-.093h.094v-.187h.093v-.187l.093-.093v-.093h.093l.093-.093v-.093h.094v-.093h.093v-.093.093h.093l.187-.093.094.093.187.093.187.093.094.093h.093l.28.093.28.187.28.093.093.187.093.093.28.093.187.187.28.093h.28l.187.093.187.187.093.093.093.093h.187v.093h.28l.28.187.467.28.187.093h.187l.093.093.28.093.187.187.187.093.094.28-.187.187-.093.187-.187.28-.094.093-.093.187-.093.093v.187l-.093.28-.093.093-.094.187v.56l-.093.28-.093.374v.654h-.093l.093.187h.187l.094.187.187.28.093.187.187.28.187.187h.093v-.093h.374l.093.093h.093v.187l-.093.093h.093l.094-.093h.093v-.093h.187v.187l.093.093h.094v.093h.28l.093-.093v-.093l-.093-.093-.093-.093-.093-.093h-.187l-.187-.187-.093-.187v-.093l.093-.093v-.093h.093v-.093l.187-.093v-.093h.28v-.28h.093v-.093l.094-.093h.093l.093-.093.093-.093.187-.093v-.093h.093v-.187h.093l.093-.093h.093l.094-.187.28-.28.467-1.028.56-1.121.187.093-.56,1.121-.561,1.028.094.187.374-.467h.094l.28-.187.093-.187.187-.187.28-.093.28-.187h.187l.28-.093.187-.093.094-.187.28-.093h.187l.28-.093.28-.093.28-.187.374-.093.093-.093h.28l.374.093h.374l.187-.093h1.308l.467.093h.56l.374.187.28.093,1.028.374,1.214.467.56.28.28.093.934.28.28.093.467.187.093.093h.187l.093.187.187.093h.093l.187.093h.467l.467.093.28.187.374.093.56.374.654.374,1.214.841.187.187.187.093.28.187.187.187.187.187.093.093.094.093.093.187h.093v.187l.187.187v.187l.094.093v.093l.093.093v.093l.093.093v.093l.093.093v.187l.093.093.094.093.187.187.28.28.187.28v.187l.093.093v.187l.187.28.093.28v.467l.093.28.093.28v.374l.093.187v.747h.094v.093h-.094v.28h.094l-.094.093v.093l-.093.093h-.093v.093h-.093v.28l-.093.187v.093l-.094.093-.093.187v.093h-.093v.093l-.093.093v.28l.093.093v.374h-.093v.187l-.093.187v.093l.093.093-.093.187v.561l-.094.093.094.093v.187l-.094.187.094.093v.093l-.094.093v.28l-.093.28v.654l-.093.093v.467l-.093.093.093.093h-.093v.28h.093-.093l-.093.093v.374l-.094.093v.187l.094.093-.094.093h-.093l-.093-.093h-.093v.093l-.28-.187h-.187l-.187-.093-.093-.093-.093-.093h-.093l-.187.093-.093.093v.374l.093.093h.094l.093.093v.093l.747.374v.093l.094.093h.093v.187l-.093.093v.187h-.094v.093l-.093.187h.093l-.093.093v.187h-.093l-.093.093h-.093l-.094.093-.093.093h-.093v.747h-.093v.093l-.093.093v.187l-.094.093v.093l-.187.28v.374l-.093.093v.093l-.187.187v.093h-.093l-.093.093v.093l-.187.093v.467l-.094.093v.187h-.093l-.093.093.093.093v.093l-.093.093v.093h-.093l-.093.093v.093l-.094.093.187.093-.374.654-.374.56-.374.561-.56,1.028-.56.747-.28.561.467.28.094.093-.841,1.308-.841,1.495-1.121,1.868-.934,1.681-.28.374-.28.093-.374.187-.28.093-.187.093h-.187l-1.588.093v.093l1.121.56.187.374.187.56-1.775-1.028h-.654l-.467.093-.093.093v.28h-.561v-.093h-.467l-.187.093-.093.093-.093.093v.374l.093.093.093.093h.093l.093.093h.187l.187.093h.841l.187.093.187.093v.093l.093.093.093.093v1.121l-.093.093-.093.093h-.093l-.094.093-.093.093v.093h-.093l-.093.374-.187.28v.28l.094.093v.187l.093.093.187.093-.187.28h.093l-.187.374-.094.187-.093.093h-.187.093l-.093.093h-.093.093l-.093.093-.187-.093v.093l-.093.093-.187.187-.094.187-.093.093h-.093v.093l-.187.187v.093l-.467.561-.187.187h-.093l-.093.093-.093.187-.374.28v.093h-.093l-.187.187-.093.093-.187.093v.093h-.094l-.093.093v.093l-.187.187h-.093v.093l-.094.093h-.093l-.093.093h-.093l-.093.093-.561.28-.187.187-.187.28-.094.187-.093.093-.093.187-.187.187v.28l-.187.28-.093.093v.093l-.093.093v.093h-.093v.093l-.094.093-.093.093-.093.093-.093.093-.093.187-.187.187-.093.187v.093l-.093.093.093.093v.093l-.093.093v.093l-.093.093-.094.093v.187h.094l-.094.187-.093.093-.28.467-.654.841-.467.654.187.093v.093l-.094.187v.28h-.093v.093l-.093.093-.093.093v.093l-.093.093-.094.093h-.093l-.093.187.093.093v.093l-.093.093h-.093v.187l-.093-.093v.187l-.094.187v.093l-.187.28-.28.467-.093.093-.28.374-.374.561-.28.374-.28.374-.187.28-.093.187-.093.093-.093.093-.094.093v-.093l-.747-.467-.841-.374-.56-.28v-.093l-.187-.093-.187-.093v.093l-.093.093-.093.093.374.187.187.093h.093l.093.093.374.187.374.187.093.093.187.093.28.187-.28-.093-.187-.093-.093-.093-.374-.187-1.121-.654.093-.28-.187-.187-.374-.187h-.094v-.093l-.093-.093v-.187l-.187-.093-.187-.467v-.093l-.374-.841-.374-.654-.374-.654-.187-.374-.094-.093h-.187l-.093.093-.093.093h-.094l-.093.187-.093.093h-.093l-.093.093-.094.467-.093.28-.093.187v.28l-.093.187.093.093h-.093v.187h.093v.093h.093v.187h.093l-.187.093-.093-.093h-.093l.093-.093h-.093v.093h-.094v.093h-.093v-.093.187l.093.093v.093l.094.093v.093h.093v.093l-.093.093-.094-.093h-.187l.093.093h.093v.093l-.093.093v.093h-.093v.467l.187.093-.093.093.093.093h.28l.093.093h.093v.093h.187l.093.093h.093v.093h.093l.094.093.093.093.093.093h.093l.093.093v.093l-.093-.093h-.093v.093h.28l.093.093v.56h.093l.093.093v.093l.187.093v.187h.093v.28l-.093.093v.093l.093.093.093.093v.093l-.093.093v.093l.093.093h-.093l.093.093.187-.093v.093h.094l.093.093v.56l-.654,2.148-.187.093-.28.374-.187.093h-.093l-.093.093-.187.093-.093.093-.093.093-.093.187.093.093v.561l-.093.093h-.094l-.093.093h-.093l-.093.093h-.187l-.093.093h-.187l-.093.093v.093l-.094.093-.28.187v.28l-.28.093v.093l.093.093-.093.187-.187.093-.093.093-.094-.093-.093.093-.187.093v1.214l.093.093-.093.093v.934l.093,1.121v-.093h.093l.374-.654v-.187h.093l.28-.467h-.093l.374-.747.28-.374-.093-.093.187-.374.187-.374.187-.374.56.187-.28.467-.187.374h-.093l-.187.374-.187-.093-.56,1.028-.28.467v.093h-.093l-.093.187-.093.187v.093l-.093.187-.094.093v.187l-.374.56-.747,1.214-.374.747-.28.374-.654,1.121-.841,1.401-.56.934-1.121,2.055-1.214,2.335-.747,1.214-.841,1.681-.093.187-.094.093-.093.187-.093.187-.093.28h-.093v.093l-.094.28-.187.28-.093.187-.093.28-.28.374-.187.374-.094.187-.093.187-.187.56-.093.093-.187.374-.093.187-.28.561-.093.093v.093l-.374.747-.654,1.214-.093.093-.654,1.308-.654,1.121-.56,1.121-.56,1.028-.374.841-.467.747-.374.654-.374.747-.934,1.775-.467.841-.187.467-.467.934-.093.187-.094.187-.093.187-.093.187-2.242,4.11-.093.28-.187.28-.094.28-.56,1.028-.187.28-.093.28-.187.28-.093.28-.187.374-.187.28-.187.467-.187.467-.093.374-.187.374-.187.654-.187.467-.093.467-.187.841-.187.56-.093.467-.187.467-.093.187v.187l-.093.467-.187.467-.094.187v.374l-.187.467v.093l-.093.093v.187l-.28.654-.187.56-.747,1.775-.374.934-.467,1.121-.934,2.149-.934,2.148-1.775,4.297-.467,1.308-.467.934-.187.467-.28.654-.28.56-.187.467-.094.28-.187.561-.28.654-.467.841-.374.841-.28.747-.28.654-.28.747-.187.747-.093.28-.187.374-.187.841-.56-.28h-.093l-.56.747-.28.374-.28.374-.747.747-1.214,1.214-2.522,2.429-1.121,1.214-.841.841-1.962,2.055-.934.934-.841,1.121-.56.841-.467.934-.374.747-.374.934-.093.28-.28.841-.28.747-.467.654-.467.654-.094.187-.374.56-.187.654-.093.187-.187.934-.187.467-.654-.374-2.055-1.121-.841-.467-4.671-2.616-7.94-4.39-.28-.187,1.401-2.522.187-.28,1.121-2.055,1.308-2.429,1.308-2.335,1.308-2.429,1.401-2.335,1.308-2.335,1.308-2.429,1.308-2.335,1.588-2.896-.28-.187-5.324-3.643-1.121,3.83-.747,2.429-.093.28-5.138-2.896-.187-.467-.093-.467v-1.028l.093-.467,2.522-3.363.093-1.121-2.896-.187h-.093l-.28-.093-1.868-.467-.56-.187-2.616-.841.187-.654.374-.934.28-.467.187-.187.094-.187.093-.374.093-.093v-.093l.467-.841v-.374l.187-.28.28-.467.093-.28.093-.187.28-.28.187-.374.28-.56.28-.747.187-.374.187-.467.094-.28.187-.467v-.093l.093-.374v-1.308l.093-.467-.093-.093.093-.374-.093-1.028-.093-.093v-.187l-.093-.374v-.374l-.093-.28v-.093l-.094-.093.094-.28.093-.187v-.093l-.093-.187-.094-.467-.093-.467-.093-.187-.374-.561h-.093l-.093-.093h.093l-.093-.187-.093-.093.093-.187.093-.093h.093l.187-.374v-.28l-.094-.467-.093-.28-.093-.374-.187-.28-.374-.28-.187-.56-.187-.654-.093-.56v-.561l.093-.187.093-.28.187-.28v-.934l.093-.56v-.187l.093-.841v-.467l-.093-.467v-1.028l-.093-.654.187-.28-.093-.374v-.093l-.187-.187v-.654l-.093-.187-.187-.187-.093-.093v-.56l-.094-.28-.093-.187v-.093l-.187-.561.093-.093v-.187l-.187-.187.187-.187h-.093l-.187-.187v-.093l.094-.093h.187l-.093-.093h-.093l-.094-.093.094-.187-.094-.093v-.187l.094-.28v-.187l.093-.28.187-.28.093-.187.187-.28.841-1.214h.467l.093.093v.187h-.093v.093l.093.093v.093h.187l.093-.187.094-.093.093-.187-.093-.093v-.187l.093-.093.093.093v.187h.187l-.093-.093v-.093l-.093-.28v-.28l.28-.093.187.093.093-.093h.093l.187.093h.187l.187-.093v-.093h.187l.093-.093.187-.28h.093v-.187h.093l.093-.187h.187v-.093l.187-.093v-.093h.187v-.28l.187-.093h.093l.28-.187.093-.093.093-.187.093-.093h.093l.187-.093.28-.093v-.093h.187v-.093h.093v-.28h.093l.187-.093.187-.093.093.093-.093.093v.093h.093l.093-.093h.094l.093.093-.093.093.187.093.093.093v-.187l.093-.093.094-.093.093-.093v-.187l.093-.093.187-.093.187.093h.187v-.093l.093-.374.28-.187.187-.093.561-.093.374-.187,1.214-1.214.093-.093.654-.841.56-.841.374-.374,1.214-1.868.56-.841.094-.467.28-.467.467-.841.093-.374.094-.28.28-.654.28-.467.093-.56.093-.187.654-1.121.093-.187-.093-.28.187-.374.28-.374.28-.747v-.093l.187-.093.187-.561.374-.747.28-.654.187-.56.093-.467.467-.747h.187l.187-.374.187-.467.467-.654.28-.187.187-.374.654-1.028.093-.28.28-.467.094-.187.374-.561.187-.56.374-.841.747-1.214v-.093l.467-.934.187-.28v-.374l.374-.747,1.308-1.775.28-.374.56-.56h.093v-.093l-.093-.093-.093-.093v-.187l.654-1.121.654-1.028.093-.561.187-.56.187-.28.467-.467v-.374l.934-2.148,1.495-2.335,1.028-1.588,2.149-3.83.28-.467.467-.654.467-.934.28-.841.28-.374.187-.187.28-.374.187-.28v-.56l.187-.561.28-.28.187-.093.467-1.028.187-.187v-.28l.187-.467.187-.093v-.28l.094-.28.28-.467h.187l.28-.654.187-.561.747-1.588.467-.934-.28-.093-.374-.187.093-.374.56.187v.093l.187.093.093-.374h.093l.28-.654.093-.467.093-.654.093-.374-.093-.187v-.187l.28-1.588v-.28l-.187-.093.093-.093-.374-.187-.187-.093-.093.28-.093.187-.093.093-.094.187v.093h-.093l.28-.654v-.093l.093-.28.093.093.374.187.187.093v-.093l.187.093-.093-.187v-.093l-.094-.654v-.187l-.187-.093h-.28l-.187-.093h-.093v-.28l.187-.28.28-.28h.28l.28-.654-.747-.374.28-1.121.28.093-.28.841.654.374.094-.187.093-.28v-.187h.093v-.187l-.093-.187-.093-.28-.187-.187-.093-.093v-1.028l.187-1.028.28-.747v-.747l.374-1.401.374-.747.56-.934.374-.841.28-1.214.374-.841.467-1.214.654-.841.467-1.028,2.055-4.484.28-.374,1.588-3.269.374-1.028.467-.654,1.214-1.401.841-.934.467-.654.374-.28.187-.093,1.214-.374,1.868-1.962.841-1.121.187-.28.187-.093h.187" vector-effect="none" fill="#bababa" fill-rule="evenodd" stroke="#232323" stroke-linecap="square" stroke-linejoin="bevel" stroke-width=".737"/>
  <path d="M793.1,100.383l-.747,2.709-.467,2.709-1.121,2.989-.747,2.709-2.055.841-.747,1.495-.654.28-.093-.28-.094-.28-.187-.187-.093-.093v-.187l-.093-.187h-.094l-.093-.187-.093-.187-.093-.093v-.28l-.28-.374-.28-.467-.187-.374-.093-.093-.093-.187-.093-.093-.094-.093v-.093h-.093l-.093-.187v-.093h-.093l-.093-.187-.187-.187-.187-.28-.187-.187-.093-.187-.187-.187h-.093v-.093l-.187-.28-.093.093v-.187l-.187-.187-.28-.28-.28-.28-.187-.093-.187-.187-.187-.187-.187-.187-.28-.28-.093-.093-.187-.093-.28-.093-.187-.187-.094-.093-.187-.093-.093-.093-.187-.093-.093-.093-.56-.28h-.093l-.093-.093h-.187v-.093h-.093l-.093-.093h-.093l-.094-.093h-.187l-.093-.093-.093-.093h-.187v-.093h-.093v.093l-.187-.093h-.094l-.28-.093-.093-.093-.094-.093h-.187v-.093.093l-.093-.093h-.093v-.093h-.28v-.093h-.187v-.093h-.187l-.093-.093h-.187l-.094-.093h-.187l-.093-.093h-.093v-.093h-.28l-1.588-.654v-.093h-.467l-.374-.187-.187-.093h-.093l-.56-.187v-.093l-3.643-1.495h-.28l-.094-.093-.093-.093h-.187v-.093h-.187l-.093-.093h-.093l-.093-.093h-.187l.094-.187.093-.093,2.522-3.363,6.819-4.671,1.214-.841,1.681-3.363,3.363-.093,2.335.934,1.308,1.121,2.055,2.148,1.962,1.868,1.775,2.055.374.56.187.28.093.187v.093l.467,3.176h0" vector-effect="none" fill="#bababa" fill-rule="evenodd" stroke="#232323" stroke-linecap="square" stroke-linejoin="bevel" stroke-width=".737"/>
  <path d="M744.245,88.519l-.093.187-.093.093h-.093l.093-.187h-.093l.093-.187.093-.187.093.093-.093.187h.093" vector-effect="none" fill="#bababa" fill-rule="evenodd" stroke="#232323" stroke-linecap="square" stroke-linejoin="bevel" stroke-width=".737"/>
  <path d="M660.51,439.574l.318.177.252.145.682.375,2.69,1.487,1.065.588,1.71.943,2.914,1.61-1.429,2.577,1.616.896,2.681,1.486,2.205,1.218,6.838,3.788-.112.193-.327.599-.878,1.58-.196.355-.42.744-.719,1.302-.187.342-.318.564-.346.61-.149.275-.327.583.42.229.206.115,2.466,1.348.196.111,1.037.567,2.13,1.166.467-1.395-.14-1.442-.663-3.664-.037-.564v-.793l.047-.79.094-.782.112-.535.159-.527.028-.077.028-.066.149-.371.037-.078.103-.23.094-.189.028-.053.243-.421.121-.205.29.186.177.106.178.108.205.115.252.427.075.23-.673,4.276.028.985.458,2.446.327,1.79.476,1.505,2.812-1.026.177.023.112.144.71,1.962.009.147-.075.123-1.7.549.028.468-.131.448-.29.372-.392.25.999,2.768.579,2.728.467.287.047-.059-.121-.399-.121.021-.271-1.144.084-.019.009.04.103-.019.084-.025-.009-.042.075-.015.28,1.135-.131.038.131.479-.047.067.392.232-.187.349-.355-.213.047-.088-.411-.219.009.044.271.151-.14.296.318.142.262.218.205.28.121.323.205,2.786-.224.868-.925.876-.542,1.932-.99,2.064-1.177,1.769-.943,1.41-.85,1.181-1.168,1.605-1.485,2.05-2.13,2.384-2.279,2.564-1.457,2.036-1.681,2.354-1.719,2.436-1.672,2.347-1.214,2.205-.831,1.507-.598.963-1.42,2.297-1.71,2.451-1.625,2.319-1.56,2.311-1.569,2.315-3.055,4.512-3.036,4.512-3.811,4.409-.392.458-1.261,1.504-.075.084-1.859,2.242-.981,1.158-.813.953-.112.131-1.065,1.28-.729.841-.299.346-.075.075-.112.14-.084.084-.103.131-.336-.177-.327-.178-.112.196-.514.962-.29-.187-1.308,2.429-2.008-1.102-6.511-3.587-4.54-2.541-2.307-1.27-6.464-3.568,1.308-2.391,1.317-2.391,1.326-2.373,1.317-2.391,1.317-2.373,1.326-2.382,1.317-2.387,1.27-2.288,1.373-2.462,1.317-2.382,1.317-2.387,1.354-2.356,1.261-2.407,1.467-2.604,1.42-2.598,1.345-2.404,1.336-2.406,1.345-2.415.42-.765.916-1.645,1.326-2.414,1.448-2.601,1.438-2.597.617-1.115.719-1.298,1.345-2.417,1.326-2.404,1.336-2.418,1.336-2.415,1.448-2.6.644-1.176.131-.232.635-1.157-4.624-2.567,1.336-2.389,1.308-2.391,1.326-2.384,1.326-2.384-1.317-.727-.093-.051-2.952-1.623-.318-.184-.318-.163-4.334-2.426,1.317-2.379,1.326-2.387-3.456-1.95-1.149-.643,1.289-2.362,1.317-2.366,4.643,2.547,1.42-2.569,1.298.722.859.475,2.186,1.207" vector-effect="none" fill="#bababa" fill-rule="evenodd" stroke="#232323" stroke-linecap="square" stroke-linejoin="bevel" stroke-width=".737"/>
  <path d="M691.943,506.287l-2.214,2.059-.831.771-1.046,1.563-1.719,2.556-1.186,2.115-1.784,3.2-4.035,5.855-.962,1.401-.14.205-.589.934-.766,1.205-2.289,3.559-.14.205-1.14,1.766-1.308,2.027-1.074,1.644-.822,1.27-.803.831-1.074,1.074-.729.719-2.672,3.989-.654.542-.654.775-.187.234-.915,1.551-.243.617-.093.943-.953,1.859-1.681,2.176-.28.364-.14.178-.112.14-.112.121-.178.205-1.99,2.298-2.83,3.251-.346.093-1.737,2.335-3.26,4.568-.831.934-2.036,2.298-1.999,1.896-.224.149-1.009.71.019.336-1.532,1.84-.999.972-1.411,1.149-1.224,1.355-.121.168-.103.159-.14.131-.14.103-.178.047-.177-.028-.159-.084-.467.645-.607-.467.439-.598-.121-.149-.056-.187.037-.168.103-.14.14-.168.691-1.924,1.233-2.289,1.943-2.391.355-1.009.915-2.69.205-.579,1.401-2.429.262.121,1.354-1.467,2.242-3.326,2.27-3.353,1.252-1.84,1.382-2.036.953-1.411.177-.486.075-.14.093-.14.084-.149.121-.159.047-.084.308-.467,1-1.551,3.139-4.839.187-.149.178-.318.103-.149.243-.448.14-.084.841-.925-.196-.196.766-.971.43.346,1.42-1.896,1.158-1.532.598-1.457.729-1.644,1.887-3.101.103-.29.598-.719,1.028-1.579,1.168-1.794,2.214-2.373.346.019.785-1.317,3.213-5.372,3.316-5.12,1.84-3.217.187-.129.019-.279.262.074.149-.1.308-.544.327-.586-.42-.259.187-.414.458.264.065-.118.392-.039.252-1.312.196-.362,1.065-1.979-.009-.199.149-.128.327-.252.841-.968.766-.584,2.307-2.658,1.121-1.592.691-1.107,1.308-1.267,2.186-1.045,1.392-.242.915-.922.859-1.266.271-.045.299.125.187.319-.495,1.055-.29,1.002.019,2.237.224,2.224-.084,1.05-.14.69-.224.662-1.354,2.223-.841,1.894-.299.305-.112.097-1.569.997" vector-effect="none" fill="#bababa" fill-rule="evenodd" stroke="#232323" stroke-linecap="square" stroke-linejoin="bevel" stroke-width=".737"/>
  <path d="M702.77,461.473l.42.302.308-.119-.019-.951.448.114-.028.803.159,1.225-.551.418-1.289.376-.458-.012-.626-.29-1.803,2.304-.234.058-.617.725-.149-.186.43-.897-.178-.234.346-.4.205.105.252-.237,1.411-1.892-.318-.336.028-.625.243-1.066,1.28-1.212.635-.215.327.491-.234.888-.056.422.065.438" vector-effect="none" fill="#bababa" fill-rule="evenodd" stroke="#232323" stroke-linecap="square" stroke-linejoin="bevel" stroke-width=".737"/>
  <path d="M627.199,591.634l-.187.28h-.187l-.093.187-.187.28-.467-.187v-.187l.187-.187.187-.28.28-.28.093-.093.187-.094.187-.28.093-.093h.187l-.093.187-.187.56v.187h0" vector-effect="none" fill="#bababa" fill-rule="evenodd" stroke="#232323" stroke-linecap="square" stroke-linejoin="bevel" stroke-width=".737"/>
  <path d="M709.963,495.33l-.28.654.374.093-.093.374-.841-.28.093-.374.374.093.28-.56h.093" vector-effect="none" fill="#bababa" fill-rule="evenodd" stroke="#232323" stroke-linecap="square" stroke-linejoin="bevel" stroke-width=".737"/>
  <path d="M646.162,584.815l.467.28-.093.093-.467-.28-.093.28-.374-.093.467-.747.28.187-.187.28h0" vector-effect="none" fill="#bababa" fill-rule="evenodd" stroke="#232323" stroke-linecap="square" stroke-linejoin="bevel" stroke-width=".737"/>
  <path d="M734.932,314.472l-1.261,3.496-.252-.088-1.196-.407-.729-.248-.598-.206-2.728-.943-.056.185-1.457,5.051-.794,2.611,2.858.944,2.111.722.243.079.215.078,2.531.906.551.205.757.252.243.063.299.078,2.709.926.542.16.476.157.813.265.71.237,2.345.835.121-.236.14-.247.402-.738.121-.219,1.821-3.35,5.343,1.814,4.007,1.344,3.634,1.263.43-.311.131.635.682.361,1.261.736,1.326.775,1.364.726,1.392.675,1.411.624,1.429.57,1.691.731.234.099,3.867,1.668,1.102-2.505,1.261.559.336.149,1.709.758,2.494.996.467-1.751.103-.378,1.775-6.662.644-.016,1.336-4.28.112-.373,1.896-6.088,2.672.837.775.259,1.27.385.346.108,2.186.692,2.756.866.803.236,1.775.475.364.096,1.99.532,2.896.779-1.242,4.002-.159.802-1.168,3.922-.962,3.591-1.093,3.977-.803,3.06.822.596,2.205,2.348.514,3.018.439,3.257.121.734.084.151.028.278.037.36.028.348.028.204.112.943.243,1.749,1.775,13.427.075.469-.037.036-.009.018v.038l.019.031.056.126.019.116.037.11v.132l-.094.132-.084.205-.187.39.009.006.037.031.037.058-.009.032-.439.562-.224-.177-.673.515-.495.5.14.151-.075.07-.448.463-.075.078-.364.371-.121-.106-.243.275-.056-.021-.121-.052-.439.151-.037.016-.206.081-.131.056-.149.083-.028.021-.065.055-.019.013-.084.104-.065.092-.103.109-.093.068-.103.067-.028.019-.037.031-.047.051-.103.11-.196.22-.234.249-.663.688-.224.241-.065.075-.056.032-.084.05-.065.077-.065.101-.149.206-.131.207-.28.388-.084.102-.159.194-.29.42-.14.216-.084.126-.037.132-.037.11-.028.116-.056.136-.084.153-.121.131-.084.095-.168.247-.196.25-.224.339-.14.173-.075.095-.075.094-.047.11-.047.158-.682.838-.738.94-.14-.116-.402.344-.915,1.209-.187.259-.42.523-.243.303.187.151.14.117-.196.278v.006l-1.177,1.609-.243.324-.234.307-.149.2-.112.189-.056.101-.056.093-.075.085-.084.068-.037.031-.084.032-.112.006-.065.052-.028.058-.009.079-.327.368-.411.525-.112.127-.056.021-.103-.036-.084-.016-.149.241-.084.126-.187.295.103.117-.131.157-.121-.11-.075.036-.392-.294-.121.171-.149.223-.215.29.177.163.318.252.252.247.103.152v.007l.037.129v.121l-.177.251-2.457,2.473-1.401,1.398-.093-.073-.009-.002-.187.19-.149.165-.159-.121-.187.159-.103.093-.056.112-.224.477-.262.346-.551.607-.411.375-.402.28-.308.234-.224.374-.29.304-.037.023-.149.085-.084.075-.187.187-.14.124-.486.277-.43.262-.224.177-.374.224-.187.066-.168-.009-.121-.028h-.28l-.215-.056-.215-.009-.149-.019-.177-.084-.019-.01-.243-.112-.308-.028-.934-.065-.981-.103-.486-.037-.785-.037-.794-.026-4.064-2.176-3.017-1.776-7.613-3.982-.252-.137-.187-.118-.224-.145-.262-.18-3.232-2.207-.579-.724-.99-1.79-.504-1.23-1.074-2.607-1.046-1.144-1.009-1.108-1.616-1.181-.953-.703-1.906-.54-1.85-.109-7.025.519-.999-.387-1.803-.698.336-.903.57-1.06-.364-.249.448-.878-1.046-1.825-.831-.041-.514-.05-.28-.134-.383-.73-1.121.519-3.839-6.837-.766-1.094-.626-1.065.047-.458-1.859-2.043-1.747-2.438-.131-.185-.103-.142-.121-.146-.094-.163-1.046-1.623-.71-1.746-.336-2.128.065-1.475.075-1.076-.663-.227-.028-.01-.093-.031-.028-1.101.252-.306.28-.336.028-.823.336-.33-.159-2.212-.037-1.662.439-5.777.131-2.256.009-.167.009-.216.009-.131.009-.217.121-1.684.093-.13.028-1.059-.093-.261.009-1.176.056-7.11.009-1.593-.149-6.822v-.135l-.009-.163.028-.192.019-.143-.159-3.256-.093-2.561.178-.095-.075-1.629-.121-.013-.131-2.135.131-.06-.093-1.631-.149-.06-.084-1.679.112-.121-.103-1.56-.112-.019-.159-2.246.131-.054-.112-1.722-.131-.055-.065-1.341-.009-.274-.019-.536-.028-.348-.028-.401-.028-.518-.028-.585-.532-4.986-.075-1.144-.065-1.184-.149-2.093-.047-.265.103-.014.28-.031,1.252-.125,1.214-.123,1.794-.188.224-.014.364-.022.177-.028.168-.021.532-.127.084.316.206.812.504,3.726.234.149,1.056.572,1.102.596.28.499.467.915,2.55,5.396.523,1.058.187.362.962,1.854,1.887,3.378,1.653,2.717-.682,2.204-.205.644,1.971,3.597.448.521.131.178-.439,1.12-.374.98-.729,2.083" vector-effect="none" fill="#bababa" fill-rule="evenodd" stroke="#232323" stroke-linecap="square" stroke-linejoin="bevel" stroke-width=".737"/>
  <path d="M714.913,361.53l.206.312.234-.142.112-.066.215-.118.85-.477.215.308.028.041.262.45.439.592.878,1.21.691.964,2.447,3.426.14.177.056.088.028.084.056.032.047.06.065.133.056.053.243.386.103.156.318.47.093.168.037.069.047.089.075.13.112.199.019.046.149.254v.039l.056.07.065.129.075.128.234.416.065.137.261.45.009.056.047.056.028.06.14.245.019.06.065.088.103.206v.035l.084.136.29.507.112.203.149.277.056.108.075.126.084.196.047.109.206.466.028.035.355.807.14.282.112.346-.019.024-.187.319.103.251.075.21.215.457.056.131.299.645.271.838.336.989.159.481.196.556.047.174.243.724.065.276.084.391.084.466.187.858.262.131.243.121.019.422.019.283.019.247.019.222.028.236.037.41.093,1.113.047.527.112,1.2-.056,1.51-.065,2.078-.084,2.483-.177,5.69-.056.26-.644,3.199-.084.163-.644,1.151-.439.804-.178.333-.374.66.094.077-.028.051.121.069-.065.13-.159-.069-.037.078-.047-.008-.056.116.047.035-.43.794-.112-.046-.252.456-.644.465-2.008,1.425-.906.642-.663.48-.392.281-.234.176-.392.29-.196.149-.794.581-.458.312-.084.058-.383.261-.589.449-.663.514-.402.308-.075.056-.616.477-.701.658-.467.426-.523.499-.589.537-.196.188-.486.444-.663.573-.906.817-.159.142-.187.168-.28.291.009.008.215.207-.794.79-.205-.209-.85.852-.551,1.011-.859,1.534-1.074,1.951-1.065,1.9.028.027-.084.152.028.079.168.093,2.522,1.413.037.04v.044l-.262.481-.028.019h-.037s-2.625-1.416-2.625-1.416l-.234.655-.486,1.425-.056.16-.383,1.127-.243.72-.149.46-.028.062-.131.393-.093.268-.121.361-.374.803v.031l-.037.049-.037.093-.411.94-.056.072-.178.261-.14.214-.85,1.256-2.102,3.127-1.616,2.405-.028.01-.019.009-.028.029-.084.044-.019.034-.065.044-.056.038-.075.047-.103.073-.065.051-.037.013-.065.057-.047.029-.14.104-.103.063-.103.08-.047.026-.065.054-.037.03-.084.058-.28.191-.262.187-.234.168-.047.046-.093.05-.028.026-.093.065-.14.099-.131.088h-.009l-.084.05-.047.038-.065.038-.121.076-.56.351-.177.099-.065.046-.084.054-.103.064-.785.513-.234.154-.43.293-.514.354-.467.317-.476.328-.392.267-.215.154-.131.088-.103.081-.29.273-.093.087-.205.183-.308.288-.252.226-.196.177-.234.218-.28.262-.14.131-.121.16-.103.16-.084.151-.121.209-.103.194-.14.276-.131.23-.318.554.019.088-.299.853-.075-.23-.252-.427-.205-.115-.178-.108-.177-.106-.29-.186-.121.205-.243.421-.028.053-.094.189-.103.23-.037.078-.149.371-.028.066-.028.077-.159.527-.112.535-.094.782-.047.79v.793l.037.564.663,3.664.14,1.442-.467,1.395-2.13-1.166-1.037-.567-.196-.111-2.466-1.348-.206-.115-.42-.229.327-.583.149-.275.346-.61.318-.564.187-.342.719-1.302.42-.744.196-.355.878-1.58.327-.599.112-.193-6.838-3.788-2.205-1.218-2.681-1.486-1.616-.896,1.429-2.577-2.914-1.61-1.71-.943-1.065-.588-2.69-1.487-.682-.375-.252-.145-.318-.177-2.186-1.207-.859-.475-1.298-.722-1.42,2.569-4.643-2.547,1.401-2.629,1.429-2.551.514-.904.822-1.455,1.214-2.169,1.467-2.645,1.308-2.338.803-1.453.177-.326.346-.635,1.317-2.389,1.298-2.41,1.354-2.384,1.42-2.576,4.633,2.581,1.429-2.572.14-.26.112-.199.234-.419.617-1.109.215-.404,1.364-2.383.57-1.106.206-.361.495-.891,1.355-2.438,1.373-2.486-1.523-.84-3.139-1.738.308-.546.149-.275.149-.275.149-.26.589-1.066.084-.157.177-.31.131-.243.841-1.514.121-.229.14-.252.14-.247.887-1.597,1.476-2.676,1.485.821,1.878,1.041,1.298.717,4.269,2.358.402.222.775-1.373.663-1.18,1.336-2.396.355.198,4.288,2.378,1.326-2.386.299-.53.121-.228.906-1.633,1.196-2.162.131-.238,1.326-2.389,1.317-2.386,1.317-2.389,1.429-2.57,1.42-2.555,1.317-2.374,1.14-2.072.178-.307,1.308-2.364,1.317-2.369,1.27-2.418.374.148.822,1.68.972,1.737.28.491" vector-effect="none" fill="#bababa" fill-rule="evenodd" stroke="#232323" stroke-linecap="square" stroke-linejoin="bevel" stroke-width=".737"/>
  <path d="M750.999,385.292l.589,1.431.299.8.56.96.747,1.309.654.932.112.18,3.111,1.878.271.16.234.137.205.118.019.007.224.113,2.69,1.366.224.066,3.681,1.915.663.659,2.737,2.361,2.942,5.313,1.831,4.386.065,2.569-2.335,4.032-1.588,2.908-.617.645-.476.228-2.261,2.534.383.391-1.999,2.483-.616-.36-.084-.045-2.12,1.132-.813.499-.897.9-.374.414-.084.842.243.186-9.771,14.162-.299-.201-.56.934-.71,2.768-1.196,4.668-.616.81-2.737,2.597v.011l-.14.257-.177.255-.327.1-.037.01-.178.146-.495.516-.551.289-.607.085-.514.024-.234-.105-.037-.018-.252-.097h-.43l-.953.372-4.091,3.739-.542.394-.635.153-.177.041-.262.095-.271.095-.906.265-1.13-.334-1.971-1.528-3.279-2.532-.953-.7-1.205-.513-4.671-1.126-6.8-1.184-1.112-1.475-1.177-1.199-.486-.883-.261-1.045.056-1.122.14-.62.243-.501.364-1.703.084-.728.149-.892,7.454-11.526,1.252-1.781.85-2.062.467.096.392-.53,1.812-2.455,1.831-1.95.327.138,2.728-1.472.178-.093.168.039,2.737,1.566.355-.09,1.513.545,2.018.047,1.308.083.327.092.411.113.719.156.476-.005.43-.141.121-.366-.009-.413-.056-.256-.009-.334.121-.325-.009-.334-.112-.337-.075-.224-.112-.511-.019-.276v-.364l-.327-.158-.495-.148-.299-.119-.065-.118.159-.148.682.069.383.119.626-.108.476.069.374.134.14.005.019-.128-.084-.157-1.625-.011-.747-.218-.579.039-.103.023-.205.045.103.364.177.158.178-.009.205.079.402.423.112.601-.047.974-.234.521-.177.334-.224.163-.392.043-.103-.022-.262-.056-.336-.039h-.215l-.28-.059-.149.068h-.215l-.215-.039-.187.039-.168.138h-.205l-.149-.01-.262.021-.383.064-.243-.049-.075-.092-.019-.118-.028-.111.047-.198.682-.979.234-.427.738-1.075.131-.092.121-.091.28-.525-1.924-.258-.57-.518-.775-.741-.206-2.007-.009-.468.056-.465.075-.225.094-.197,2.625-4.752.271-1.019.047-.188.42-1.234.224-.504.159-.528.094-.543.028-.55.047-1.223.047-.953v-.067l-.178-1.736-.252-1.066-.234-.817-.196-.555-.486.127.019.086-.934.293-.103-.31.934-.299.047.115.476-.152-.047-.109-.168.031-.467-1.153-.112-1.567.617-3.028.99-3.495.047-.193.056-.2.084-.177.14-.184.318-.422-1.597-.934.383-.65.14.078-.299.522,1.457.847.327-.504-.551-.335.019-.03.037.016.009-.026.523.305.103-.156-.523-.303.383-.572-.85-.512.047-.098-.112-.069-.364.561-.149-.059.467-.719,1.084.698,1.822-3.404.159-.346.14-.335.224-.305.589-.553.635-.162,2.644.048,4.988.439,1.383.92.71.471,1.653,2.473" vector-effect="none" fill="#bababa" fill-rule="evenodd" stroke="#232323" stroke-linecap="square" stroke-linejoin="bevel" stroke-width=".737"/>
  <path d="M530.611,670.848l2.429,1.308,2.709.934,1.495.467,1.214.467,2.055,1.028,2.055.934,2.335,1.028.187.094.187.093.934.374,2.522,1.028.187.093.747.28,2.148.841,2.522.934,1.868.841.374.093.28.094,1.962.841,2.055.841,2.522.841,1.214.56.934.467-.094.28-1.681,4.39,2.429,1.028,2.429.934,2.429.934.654.28.28.187,1.401.561-1.681,4.39-1.681,4.39-.187.28v.093l2.522,1.028,2.335.934,2.429.934,2.429,1.028.934.374.28.094,1.214.467.28.093.374.187,1.121.467.654.28,1.401.56h.187l.094.093.374.187.374.187.467.187,1.868.747,2.149.934h.187l.28.187h.187l.187.094.093-.187.28.093,3.083,1.214v.187l-.093.094-.093.187v.187l-.094.094v.187l-1.681,4.577.093.093-.56,1.401-.187.747-.28.467-.093.187-.374,1.121-.374.841-.187.374-.187.28-.467.747-.28.467-.467.56-.187.28-.56.467-.841.841-.56.56-.28.187-.28.187-.28.187-.187.093-.28.094h-.28l-.28.093h-.747l-.467.093-1.121.093h-.374l-2.148.187-.654.093h-.187v.28h-.467l-2.242.28.093,1.495-5.231.654-1.681.187-2.522.374-5.511.654-5.044.654-.747.093h-.093l-.094-.093-.093-.094-.374-2.802h-.187l-.093-.093v-.093h-.467l-1.308.28h-.374l-.28.093-.467.093-1.214.187-1.028.187-.841.187-.747.187-.841.093-1.028.187-.187.093-.374.094h-.467l-.093.093h-.187l-.654.093-1.401.374-2.522.467-.841.093h-.374l-.654.187-.56.187-1.775.374-2.429.467-1.868.28-1.775.374-2.335.841-.56.374-.747.374h-.093l-.467.28-.093.093-.094.093-.093.094-.093.187-.374.093-.187.28-.187.187-.187.093-.187.187-.187.093-.187.187h-.093l-.094.094-.187.187.093.093-.187.187-.093-.094-.094-.187-.841.467-.187.187h.093l-.093.094v.187l-.093.093-.374.28-.28.28-.561.28-.374.28-.654.467-.187.093-.093.093-.934.654.187.187-.28.187v.093l.187.187-.093.093h.093l-.093.093.56.841-1.214.841,2.335,2.989-.654.56-1.775,1.401-1.775-2.055-.187.187-.093.094-1.214-.654-.28.28.934,1.121-.187.093.093.094,1.214,1.401-.187.187-.374.28h-.094l-.374-.561v.094l-.28.187-.187-.187.28-.187-2.709-3.176-.747.561-.187.187-.56.467.467.56.28-.187.093.093-.28.187,2.896,3.456-.654.56-3.456-4.11-.841.747-.654.56-.747.654-.28.187-.747.654h-.093l-.094.187-.28.187-.934.841-.654.56-.374.28-.28-.374-.654.467-.187.187-.467.467.747.841h.093l1.121,1.401v.093l1.028,1.121.187.187-.093.093v.093l.093-.093.093.093h.093l.374.467-.56.467h-.093l-.28-.374v-.094l.093-.093h-.093l.093-.093v-.093l.094-.093v-.094l-.374.374-.934-1.121-.28-.28-.374-.56-.374-.374-.28-.28-.093-.187-.187-.187-.56-.654-.093-.187-.654.56-.654.467-.841.747-.28.467-.093.28-.187.28-.747.56-1.121.934-2.148,1.775h-.094l-.467.187,1.681,2.989,2.802-1.495.467.841-2.802,1.495.56,1.028-.747.374-2.802-4.858-4.297,1.495h-.374l.28.654-.56.093.28.747.187-.094.187.467v.094l-.093.093v.187h.093v.187l.094.187.093.093h-.093v.093h.093v.187-.093l.093.093-.093.093.093.187h.093v.187l.093.187.094.093h-.094l.374.841-.093.093v.094l-.093-.187-.28-.654-.187-.654-.093-.374-.094-.28-.093-.187-.093-.28-.093-.093-.56.187.187.747v.187l-.093.093v.094h-.187v-.094l-.093-.374-.187-.28-.093-.187-.654.093.093.187.094.187v.187l.093.28.093.28v.093h-.187l-.094-.093-.093-.187-.093-.187-.187-.28v-.28l-.467.093-.28.094v.093l.093.187.093.28.187.56.187.654.093.374-.187.28h-.28l-.187-.187-.093-.187-.093-.28v-.093l-.187-.28-.093-.187-.187-.467-.094-.374-.093-.187-.56.187v.28l.093.56.093.374v.467h-.093l-.187.093h-.093l-.094-.093-.187-.28-.187-.28-.094-.28-.093-.187v-.093l-.093-.187v-.187l-.28.093h-.28v1.121l.093.467.093.841.093.187-.093.093v.093h-.187l-.093-.093-.094-.187v-.654l-.093-.28v-.654l-.093-.28-.093-.56h-.654v.841l-.093.374v.187l-.187.093h-.093l-.187-.093.093-.093v-.093l.094-.28h.093l.093-.187h.093v-.093h-.093v-.187h.093v-.093h-.093v-.187h.093v-.094h-.187v-.187h.093l-.093-.467.187-.093-.093-1.121-1.121-.187-.467,1.681v.187l-.094.467-.093.28v.187l-.187.56h-.28v-.093l.467-1.495v-.187l-.374-.187-.093.093-.093.187-.28.467-.28.467h-.093v.093l-.187.374-.093-.094v-.093h.093l.093-.28.187-.28.187-.187v-.094l.187-.374h.093l.187-.374-.934-.654-.187.467-.187.187-.093.187-.187.187-.187.28-.187.28-.187.374-.094-.094.187-.28.093-.093.093-.094.093-.093v-.093l.094-.093h-.094l.187-.187.187-.28.28-.467v-.093l.093-.094-.374-.28h-.093l-.56-.374-.28.56-1.588-1.495-.28-.374-.374-.467-.56-.654h-.093l-.28-.467-.467-.56-.374-.374v-.093l-.841-1.121-.28-.374-.28-.467-.374-.654v.093l-.374-.56h.093-.093l-.093-.187-.093-.094-.187-.374-.093-.28-.187-.28-.187-.28-.093-.28v-.187l-.093-.28-.093-.28v-.187l-.094-.093h-.28v.093l-.28.093v-.374h.28v.093h.28v-.841l.094-.28v-.467h.093l.187-.654-.654-.187-.187.654.28.093-.093.374h-.093l-.094-.093.094-.187-.28-.093-.093.28.28-1.028-1.775.28-.561-1.028,3.269-.56.094-.28h-.28.093l-.093-.093h-.374l-.093.093v-.093l-.093.093h-.467l-.093.093-.094-.093v.093h-.187l-.093.28-2.242-.56v-.093l-.093-.187-1.214-4.857v-.093l.28-1.868.28-1.495.094-.093.093-.093h.093l.28.093v-.187h.093v-.093l.093-.094h.093l.093-.093h.094l.093-.093h.374l.093.093h.093v.093h-.187l-.094-.093v.093h-.28v.187h-.093l-.094.093-.093.093v.093h.093v-.093h.094l.093-.093h.374v.093l.093.093v.094h.093v.187-.093h.093v-.093l.374-1.214.467-1.775.093-.093v-.28l-1.308-.374v-.094l-.467-.093-.093-.093v-.187l.28-1.681.374-1.681.467-2.522.374-1.962.187-1.121.374-1.868.093-.467.187-1.214.187-1.588.187-1.028.093-1.121.28-1.962h.187v.187l-.28,1.681,3.456.747.187-1.121-.093-.374-.093-.374v-.467l.093-.374.093-.28v-.093l.187-.28.28-.28.187-1.121-.654-.093-1.028-.28-1.962-.374-.187,1.681-.094.374h-.093v-.374l.28-1.868.28-1.681.374-2.709v-.561l.187-1.121.187-1.308.467-2.989.374-2.896.374-2.429.374-3.176.094-.094.093-.093h.093l1.962.374v-.093l.841.093-.093.093.374.093,1.588.28v-.093l.093-.187v-.093h.093l.654.093,4.39.747.374-2.335.093-.747.093-.374.187-1.028.093-.934-1.588-.187.093-.841-1.681-.28v.093l-.747-.093-3.83-.561v-.093h-.374v-.187l-1.868-.28.187-1.308,5.231.841,2.802.374,1.495.28.28-2.055-8.033-1.308.187-1.214,7.099,1.028.187-.747-.467-.093v.093l-1.028-.187v-.28h.187v.094l.841.093.467.093v-.187l1.588.187.187-1.028.374-2.335.374-2.522.374-2.429.374-2.429.467-2.802.467-2.989-.934-.467-1.028-.187-5.138-.747-1.962-.187-1.121-.187-.093-.093v-.374l.093-.467.093-.56,9.808,1.681.467.187v.187l.934.187.467.094h.374l.28.093,2.802.374,2.335.28.747.093,1.401.187,2.242.28.093-.28,3.083.374,2.055.28,3.55.374,1.495.187.56-1.681.28-1.121.841-2.709.28-.747.093-.374.467-1.495.374-1.028.654-1.681.28.187.28.187.56.374.747.467,2.242,1.495,2.149,1.401,2.055,1.308,2.335,1.495,2.242,1.495,2.149,1.401h0" vector-effect="none" fill="#bababa" fill-rule="evenodd" stroke="#232323" stroke-linecap="square" stroke-linejoin="bevel" stroke-width=".737"/>
  <path d="M475.217,794.245l3.923,1.028.093-.561-.187-.093.094-.187.654.093-.093.28-.187-.094-.187.654h.187l.374-.56h-.093l.093-.187.28.187.28.187-.093.093-.187-.093-.374.467,2.709.747,2.148,2.615.094.093h.187l2.522-.747v-.093l.28-.654.093-.093.093-.093.187-.093.467-.094h.28l.561.28.093.187v.094l.093.187.093.28v.28l-.28.374-.094.187-.093.094h-.187l-.467.187h-.187l-.374-.187-.094-.094-.093-.093h-.093v-.093l-.093-.187h-.28v.093l-.841.187-1.121.28h-.187v.093h-.094v.28l.187.093v.093l.187-.187.841,1.028-.093.093.187.28-.093.093h.093v.093l.187.187.187.094.28.28.093-.093v.187h.093l.093-.093v-.093h.093v.093l1.401-.374v.094l-1.681.56.28.654.934.093v.187h1.028v.28l-1.028-.093-.093.934h.374v.093l.093.094.187-.094v-.093h.093l-.093.28v.187l.093.187h-.28v.187l-.093.093h-.093v.28h-.28l-.28,4.484-1.121,1.868-.093.28-1.214,2.149-.28.093-.187.093-.28.187-.187.187-4.017,2.896-3.363-.374-.187.093-1.214.747-1.308.841-.28.093,1.028,1.681.187.093,4.297-.467v.187l.093.187-4.297.467h-.187l-.28-.187v-.187l-1.028-1.681-8.781,5.325-1.121.654,1.028,1.681h.093l2.055-1.214.187.28-4.484,2.615-.187-.187,2.055-1.308v-.093l-.934-1.588-1.308.747-2.242,1.308-1.121.654.093.28.187.374-.187-.374-.187.093.187.374-.187-.374h-.187l.093-.093-.093-.093-.187.093-.56.28,1.308,2.242-2.709,3.269-.374-.28,2.429-2.989-1.121-1.962-.747.467-.374.187-.374.187-.374.093-.093.093-.374.093-.654.094-.467.093h-1.401l-.654-.093-.56-.187-.467-.093-.654-.187-.654-.187-.654-.374-.56-.467-.467-.56-.28-.28-.28-.467-.28-.374-.374-.56-.187-.561-.187-.56-.093-.467v-1.495l.093-.56.28-.56.187-.467.093-.187.187-.187.28-.374.187-.187.28-.374.841-1.028.56-.747.561-.654.56-.747.093-.093.56-.56v-.094l.654-.841.56-.654.28-.374.374-.467.374-.467.187-.28.467-.56.467-.561.374-.467.467-.467.374-.56.747-.934,1.308-1.588.374-.374.374-.467.467-.654,1.028-1.214,1.214-1.495v-.093l.841-.934.654-.841.747-1.028.747-.841.747-.841,1.028-3.363.093-.467h.093v-.187l.28-.28.374-.187h.093l.467-.093.56.093h1.028l1.775-.187h.654l1.775-.187,1.775-.094h0" vector-effect="none" fill="#bababa" fill-rule="evenodd" stroke="#232323" stroke-linecap="square" stroke-linejoin="bevel" stroke-width=".737"/>
  <path d="M396.676,806.193l1.074,1.906,2.232-1.382-.14-.262.224-.131.439.729-.252.131-.149-.262-2.242,1.373-.14,1.691-.364,1.616-.972.701-1.186.252-1.149-.308-4.316-2.784-1.532-2.382-1.952,1.298-.729-1.149.42-.262.448.682,1.56-.972-.897-1.392.262-.168-.019-.71-.187-.346-.037-.065-.093-.215-.009-.224.047-.224.131-.196.224-.159.271-.065,2.391-.187.075-.093.439.075.392.177,3.624,1.84,2.111,1.467" vector-effect="none" fill="#bababa" fill-rule="evenodd" stroke="#232323" stroke-linecap="square" stroke-linejoin="bevel" stroke-width=".737"/>
  <path d="M492.05,827.883l-2.914,2.298-.701-.785,5.96-4.745,3.858-3.055.262-.177.28-.234.701-.561.551.859-.757.607-.252.205-.252.196-2.7,2.158-4.035,3.232" vector-effect="none" fill="#bababa" fill-rule="evenodd" stroke="#232323" stroke-linecap="square" stroke-linejoin="bevel" stroke-width=".737"/>
  <path d="M519.84,801.373l1.821,3.241-11.854-4.372,1.112-2.914,7.062,2.606,1.859,1.438" vector-effect="none" fill="#bababa" fill-rule="evenodd" stroke="#232323" stroke-linecap="square" stroke-linejoin="bevel" stroke-width=".737"/>
  <path d="M534.422,763.494l-.607,1.065-.346.607-.234.411-.355-.43-2.046-.906-.673-.495-.121.149-.972-.757,5.633-7.071.887.448,2.158,1.084-.346.626-.364.635-2.41,4.26-.205.374" vector-effect="none" fill="#bababa" fill-rule="evenodd" stroke="#232323" stroke-linecap="square" stroke-linejoin="bevel" stroke-width=".737"/>
  <path d="M521.419,790.64l-.514.831-5.95-2.7,1.102-2.223.682-1.326,6.165,2.84-1.252,2.195-.234.383" vector-effect="none" fill="#bababa" fill-rule="evenodd" stroke="#232323" stroke-linecap="square" stroke-linejoin="bevel" stroke-width=".737"/>
  <path d="M518.635,797.786l-6.558-3.045.766-1.551.841-1.653,6.324,2.868-.785,1.943-.589,1.439" vector-effect="none" fill="#bababa" fill-rule="evenodd" stroke="#232323" stroke-linecap="square" stroke-linejoin="bevel" stroke-width=".737"/>
  <path d="M512.62,811.013l-2.233,2.718-6.343-2.326,1.214-3.213,7.361,2.821" vector-effect="none" fill="#bababa" fill-rule="evenodd" stroke="#232323" stroke-linecap="square" stroke-linejoin="bevel" stroke-width=".737"/>
  <path d="M528.378,776.282l-1.429,3.438-6.305-2.849,1.625-3.232,6.109,2.644" vector-effect="none" fill="#bababa" fill-rule="evenodd" stroke="#232323" stroke-linecap="square" stroke-linejoin="bevel" stroke-width=".737"/>
  <path d="M515.067,805.315l-1.252,3.092-6.8-2.363,1.205-3.251,6.847,2.522" vector-effect="none" fill="#bababa" fill-rule="evenodd" stroke="#232323" stroke-linecap="square" stroke-linejoin="bevel" stroke-width=".737"/>
  <path d="M509.201,816.048l-1.812,3.12-6.38-2.289,1.196-3.12,6.997,2.289" vector-effect="none" fill="#bababa" fill-rule="evenodd" stroke="#232323" stroke-linecap="square" stroke-linejoin="bevel" stroke-width=".737"/>
  <path d="M406.839,768.37l.187.093h.747l.093.187.28.093.093.187.187.093h.187l.187.094.093.093.093.093.28.093.093.187.187.093.187.093.187.093.187.093.187.094h.56l.187.093.187.187.187.187.093.28v.187l.093.187v.28l.093.187.187.093.28.187.093.187.094.187v.561l.093.28v.28l.093.093v.187l.093.094v.187l-.093.093h-.093l-.093-.093h-.094l-.093-.093h-.187l-.093.187-.187.093h-.28l-.28.094h-.187l-.28.093h-.467l-.187-.093-.094-.187-.187-.187-.187-.093-.094-.187-.093-.093h-.187l-.187.093-.093.093-.187.187-.56.56-.934-1.028.374-.467.28.187h.56l.093-.187v-.093l-.093-.187-.093-.093-.187-.187-.094-.094-.187-.093-.093-.093h-.093l-.187-.093-.187-.093v-.187l-.093-.187-.187-.093-.093-.094-.093-.093h-.093l-.094-.093v-.093l-.093-.187v-.28l-.093-.093v-.094l-.093-.093-.093-.093-.094-.093v-.093l-.093-.187v-.374l-.093-.093v-.187l-.093-.187-.093-.187v-.374l-.094-.187.094-.187h.374l.187.094.187.093.093.093h.187" vector-effect="none" fill="#bababa" fill-rule="evenodd" stroke="#232323" stroke-linecap="square" stroke-linejoin="bevel" stroke-width=".737"/>
  <path d="M529.471,773.489l-.065.131-5.773-2.681,1.569-3.251,5.717,2.597-1.448,3.204" vector-effect="none" fill="#bababa" fill-rule="evenodd" stroke="#232323" stroke-linecap="square" stroke-linejoin="bevel" stroke-width=".737"/>
  <path d="M522.437,780.121l2.419,1.028.178-.355-.159-.084.093-.177.43.224-.28.607.084.084-.14.486-2.793-1.336.168-.476" vector-effect="none" fill="#bababa" fill-rule="evenodd" stroke="#232323" stroke-linecap="square" stroke-linejoin="bevel" stroke-width=".737"/>
  <path d="M574.692,747.829h-.252l.112-1.065,4.045-.29.019.383-3.718.234-.075.701-.131.037" vector-effect="none" fill="#bababa" fill-rule="evenodd" stroke="#232323" stroke-linecap="square" stroke-linejoin="bevel" stroke-width=".737"/>
  <path d="M538.093,756.946l-.075.056-1.158-.542.439-1.065.906.654.523.346-.635.551" vector-effect="none" fill="#bababa" fill-rule="evenodd" stroke="#232323" stroke-linecap="square" stroke-linejoin="bevel" stroke-width=".737"/>
  <path d="M538.831,753.891l-.374.654v-.093l-.094.093-.28-.093.374-.747h.187l.187.187h0" vector-effect="none" fill="#bababa" fill-rule="evenodd" stroke="#232323" stroke-linecap="square" stroke-linejoin="bevel" stroke-width=".737"/>
  <path d="M518.635,797.786l-.159.523-.037.121.037-.121.159-.523" vector-effect="none" fill="#bababa" fill-rule="evenodd" stroke="#232323" stroke-linecap="square" stroke-linejoin="bevel" stroke-width=".737"/>
  <g>
    <path d="M580.435,269.609c-.882,23.931,13.883,39.08,36.583,42.934" fill="none" stroke="#000" stroke-linecap="round" stroke-linejoin="round" stroke-width="2"/>
    <path d="M629.057,313.517c-5.85,1.574-13.199,4.504-17.9,7.893l4.304-9.154-2.548-9.787c3.998,4.196,10.683,8.427,16.144,11.047Z"/>
  </g>
<style>
#g-neighborhoods-desktop-council-img rect, #g-neighborhoods-desktop-council-img circle, #g-neighborhoods-desktop-council-img path, #g-neighborhoods-desktop-council-img line, #g-neighborhoods-desktop-council-img polyline, #g-neighborhoods-desktop-council-img polygon { vector-effect: non-scaling-stroke; }
</style>
</svg>
