<?xml version="1.0" encoding="UTF-8"?>
<svg id="g-neighborhoods-tablet-cb9-img" xmlns="http://www.w3.org/2000/svg" baseProfile="tiny" version="1.2" viewBox="0 0 600 688.591">
  <!-- Generator: Adobe Illustrator 29.1.0, SVG Export Plug-In . SVG Version: 2.1.0 Build 142)  -->
  <g>
    <g>
      <path d="M211.724,530.831l.075-.485-.33-.053-.251-.036-.326-.063-.726-.116-.092.559.01.048-.323,1.76-3.292-.581-.535-.08-.055.022-.029.036-.014.046-.014.101-.01.068-1.215-.21-.265-.046.005-.051-.608-.101-.007.041-1.51-.26-.065-.002-.077.051-.036.07-.338,2.433-.265,1.905-.306,2.204-.316,2.264-.137.982-.125.902v.007l-.058.393-.285,2.059-.178,1.288-.198,1.408-.039.289.051.041.07-.039.034-.268.166-1.261,1.478.287.818.162.49.096-.159.895-.188.205-.142.215-.031.077-.08.195-.06.306v.309l.058.297.106.268-.176.866-2.6-.545.174-1.276.002-.176-.024-.012-.048.002-.039.039-.227,1.51-.109.801-.125.822-.15,1.196-.142.916-.075.408-.265,1.394-.171.88-.282,1.5-.359,1.883-.256,1.338-.239,1.259.002.072.043.058.005.01.07.053.34.099-.019.068,1.027.297-.058.205-.002.026-.417,1.406-.275.892-.01.094-.031.029-.034.005-.012-.041-.005-.051-.017-.034-.027-.029-.024-.043-.005-.041-.017-.024-.036-.041-.043-.019-.068-.002-.036.022-.06.012-.043-.002-.075.031-.051.043-.027.046-.084-.012.002-.036.019-.034.041-.063.058-.048.046-.034.053-.014-.027-.077.024-.012.065-.005.077-.007.084.007.01-.07.022.007.06.024.08.043.053-.08-.075-.048-.111-.046-.055-.005-.075-.002-.08-.002-.077.014-.08.031-.072.034-.068.046-.055.041-.053.063-.039.058-.024.029-.019.048-.017.06-.176-.046-.072-.002-.055.027-.024.012-.046.072-.219,1.17-.268,1.391.002.068.919,3.767.084.13.055.027,1.657.485.106-.239.024.017.024.005.043-.051.034.022.022-.034.022.007.022.019.022-.019.055-.002.005-.022.07-.01.019.022.135-.029.027-.01.048.007.019-.014.031-.012.036.019.005-.022.034-.01.036.012.034-.024.07.017.024-.019.092.005.08-.017.07.039-.017.01.01.014.027-.007.022.005.036-.022.113.012-.08.251-2.525.441.468.774,1.331-.231-.244.774.027.007.068-.236.229.065-.065.203.046.07.058-.036.089-.304-.232-.068.135-.453.494.147.972-.287.632-1.022.166.007.157-.002h.137l.019-.321.002-.162.236-.002.321-.111.176.111.198-.012.76-.084h.453l.574.096.265.058.239.063.439.133.169.046.504.145.656.26.178.026.068.174.01.186-.304,2.4-.084,1.302.065.323.104.311.145.294.183.272.82.965.034.49.022.258-.036.137-.128.058-.123.053-.094.096-.022.031-.043.123.07,1.293.364.654.147.309.055.195.034.181-1.396-.181.856.412.871.147.106.842-.147.019.053.408-.072.005.01.13.128-.01v.053l-.082.01-.007.171.07-.007.005.026-.068.019-.002.164.068-.002-.005.041-.063.005-.019.183-.092-.039-.07.244-.043.072-.027.031.142.121.053.014.118-.084.065-.198.046-.253.005-.273-.012-.35.47-.055.111.475.034.169.014.104.034.395.019.251.022.251.029.251.029.121.063.084.152-.002.051-.053.022-.072-.029-.188-.118-.642-.036-.35-.039-.395v-.326l.01-.104.234-.024.205-.022.01.077.051.162.034.099.07.159.084.152.137.236.118.21.072.092.077.019.157-.077.06-.043-.002-.101-.029-.195-.055-.313-.08-.441-.007-.171.446-.145.065.13.096.256.142.357.039.128.142.256.034.063.065.2.087.164.106.111.174.031.07-.041.164-.162-.106-.347-.159-.441-.137-.436-.068-.207-.036-.188-.002-.048.21-.068.304-.099.014.026.031.125.017.058.109.277.055.118.058.149.048-.005.058.055.101.01.039-.041.01-.06-.048-.181-.075-.239-.039-.162-.039-.082-.063-.142.499-.13.075.193.082.215.082.246.029.058.046.012.06-.007.053-.031.027-.055-.012-.142-.121-.593.458-.135.039.089.065.164.065.183.068.188.089.297.159.482.176.514.08.111.036-.022.031-.072-.263-.637.043-.029-.046-.087-.031.014-.06-.15.046-.053.002-.031-.024-.027-.051.005-.065-.174.041-.034-.048-.08-.027.014-.012-.043.036-.022-.031-.06-.029-.002-.022-.056.031-.029-.048-.046-.048-.133.007-.027-.051-.116-.031.002-.002-.046-.034-.101.094-.039-.027-.123-.111-.313-.178.06-.176-.598.4-.075-.162-.509.277-.01,3.253-1.112,2.132,3.733.598-.34-.412-.728,2.088-1.184-.362-.639-2.088,1.184-1.307-2.296.33-.123.07-.034,1.654-1.336.897-.721.572-.456.116-.229.089-.188.171-.354.019-.019.658-.523.499-.405.465-.369.065.077.439.518.017-.012.121.195.075.084.215.241.275.314.33.374.234.265.682.803.26-.234.048.055-.118.094.01.027-.017.014.005.039-.019.014.01.036-.031.043.014.043-.027.024.248.287h.017l.42-.374-.273-.306-.019.017-.077-.089-.075.068-.048-.053.094-.084-.164-.195-.728-.859-.024-.029-.029-.034-.858-1.015-.031-.039-.014-.017-.608-.637.362-.304.2-.171.444-.381.268.309.285-.248.504-.42.692-.596.198-.188.109-.089.053-.046.591-.494.176-.142.562-.463.545-.475.627-.535,2.631,3.116.526-.429-2.216-2.617.174-.125-.07-.077-.171.125-.379-.446.417-.342.027-.024.111-.092.574-.487,2.069,2.421-.027.002-.198.176v.022l.128.142.022-.007.191-.181.002-.017.326.41h.031l.309-.251.137-.111-.002-.019-.914-1.054-.07-.082.118-.087-.714-.844.256-.215.909.482.08-.063.133-.109.002-.002.014.017,1.329,1.563,1.346-1.107.559-.451-1.799-2.233-.002-.002.005-.002.933-.687-.427-.612-.002-.022.017-.012-.014-.029.034-.043-.147-.205-.012-.017.019-.014.205-.157-.123-.176.673-.48.072-.053.171-.106.485-.304.338-.219.367-.253.212-.169.314-.251.053-.043.034-.072.019-.08.007-.067-.007-.027.145-.094.605-.396.084.123.043.068.029.002.106-.082-.048-.08-.024-.039.14-.099.084-.065.087-.065.123-.111.15-.101.142-.096.133-.101-.198-.205-.159-.166-.084-.096-.094-.106-.26-.287-.584-.596-.244-.248-.198-.205-.236-.244-.154-.162-.157-.162-.593-.629-1.657-1.758-.432-.458-.183-.178-.369-.379-2.098-2.168-.212-.219-1.131-1.213-.106-.113-.415-.434-.154-.169-.441-.477-.456-.412-.075-.07-.08-.084-.492-.504-.415-.49-.104-.229-.08-.383.024-.412.171-.439.154-.354.111-.256-.916.969-.335.352-.287.227-.309.198-.328.166-.342.133-.352.096-.333.236-.726.234-.178.055-1.92.596-1.08.335-.198.007-.195-.029-.186-.065-.171-.101-.26-.007-.256.043-.123.068-.113.118-.065.149-.014.162.041.159.253.094.268.046-.839.258-.559-.099-.526-.326-2.836-1.686-3.441-2.023-.241-.145-1.678-.977-1.189-.699-1.413-.786.632-2.185.405-1.842.082-.417.256-1.194.171-.967.231-1.297.42-2.076.096-.538.801-4.572" vector-effect="none" fill="#c1c1c1" fill-rule="evenodd" stroke="#232323" stroke-linecap="square" stroke-linejoin="bevel" stroke-width=".737"/>
      <path d="M247.169,581.517l.164-.287,1.838-3.251.275-.487.27-.475-1.654-.832-.675-.34-4.305,5.399.745.579.092-.116.514.379,1.56.692.275.33.178-.313.263-.465.461-.813" vector-effect="none" fill="#c1c1c1" fill-rule="evenodd" stroke="#232323" stroke-linecap="square" stroke-linejoin="bevel" stroke-width=".737"/>
      <path d="M237.236,602.254l.181-.294.955-1.678-4.707-2.168-.526,1.018-.837,1.695,4.546,2.059.388-.632" vector-effect="none" fill="#c1c1c1" fill-rule="evenodd" stroke="#232323" stroke-linecap="square" stroke-linejoin="bevel" stroke-width=".737"/>
      <path d="M242.554,591.284l-4.664-2.018-1.242,2.467,4.816,2.182,1.09-2.631" vector-effect="none" fill="#c1c1c1" fill-rule="evenodd" stroke="#232323" stroke-linecap="square" stroke-linejoin="bevel" stroke-width=".737"/>
      <path d="M243.391,589.149l1.107-2.443-4.37-1.987-1.201,2.489,4.416,2.045.048-.104" vector-effect="none" fill="#c1c1c1" fill-rule="evenodd" stroke="#232323" stroke-linecap="square" stroke-linejoin="bevel" stroke-width=".737"/>
      <path d="M238.013,594.218l-.128.367,2.134,1.022.111-.376-.065-.065.212-.461-.323-.176-.075.137.123.063-.135.275-1.854-.786" vector-effect="none" fill="#c1c1c1" fill-rule="evenodd" stroke="#232323" stroke-linecap="square" stroke-linejoin="bevel" stroke-width=".737"/>
      <path d="M249.974,576.513l.49-.42-.403-.26-.687-.502-.338.81.883.417.055-.046" vector-effect="none" fill="#c1c1c1" fill-rule="evenodd" stroke="#232323" stroke-linecap="square" stroke-linejoin="bevel" stroke-width=".737"/>
      <path d="M250.531,574.174l-.147-.096-.101-.065-.326.581.219.109.043-.077.06.027.251-.477" vector-effect="none" fill="#c1c1c1" fill-rule="evenodd" stroke="#232323" stroke-linecap="square" stroke-linejoin="bevel" stroke-width=".737"/>
      <path d="M240.487,534.672l-1.423-1.355-1.273-1.201-1.637-1.543-.282-.263-1.068-1.003-1.582-1.469-1.459-1.377-.557-.521-.921-.866-1.56-1.449-1.309-1.136-.183-.231-1.331-1.247-.854-.861-2.94-2.754-.625-.588-.369-.369-.494-.439-.593-.555-.162-.152-1.488-1.396-.916-.839-.711-.738-1.676-1.584-.244-.012-.036.318-.01.065-.251,1.493-.145.953-.06.383-.188,1.227-.265-.034-.188-.019-.335-.039-.825-.094-.289,1.809-.299,1.891-.311,1.944-.268,1.765-.104.803-1.249-.15-.019.13-.321-.053.005-.046-.675-.082v-.027l-.121-.014-.043.203.825.13.019-.053.301.046-.096.639-5.44-.842-.159.979,6.181.984-.227,1.553-1.148-.181-2.161-.345-3.998-.62-.159,1.018,1.471.215-.002.094.309.048v.031l2.889.456.005-.024.586.08.012-.053,1.283.193-.092.632,1.208.195-.109.682.005.031-.125.784-.041.256.726.116.326.063.251.036.33.053-.075.485-.801,4.572-.096.538-.42,2.076-.231,1.297-.171.967-.256,1.194-.082.417-.405,1.842-.632,2.185,1.413.786,1.189.699,1.678.977.241.145,3.441,2.023,2.836,1.686.526.326.559.099.839-.258-.268-.046-.253-.094-.041-.159.014-.162.065-.149.113-.118.123-.068.256-.043.26.007.171.101.186.065.195.029.198-.007,1.08-.335,1.92-.596.178-.055.726-.234.333-.236.352-.096.342-.133.328-.166.309-.198.287-.227.335-.352.916-.969-.111.256-.154.354-.171.439-.024.412.08.383.104.229.415.49.492.504.08.084.075.07.456.412.441.477.154.169.415.434.106.113,1.131,1.213.212.219,2.098,2.168.369.379.183.178.301-.521.106-.178.217-.35.294-.519.215-.359.34-.569.195-.33.34-.572-.244-.285-.207-.321-.164-.347-.113-.367-.063-.376-.01-.376-.041-3.781-.005-.089-.007-.051-.077-.627-.719-.68-.685-.54,1.322-.646.492-1.758.644.422-.162-2.337-.579-.352.468-.813.972-1.828.458-.998,1.066-2.284.301-.641" vector-effect="none" fill="#c1c1c1" fill-rule="evenodd" stroke="#232323" stroke-linecap="square" stroke-linejoin="bevel" stroke-width=".737"/>
      <path d="M201.936,604.991l-1.35.109-1.331.106-.511.041-1.338.109h-.152l-.649-.022-.408-.012-.405.065-.041.01-.277.135-.215.222-.058.101-.007.012-.13.393-.772,2.535-.574.627-.557.678-.007.01-.576.745-.516.642-.581.745-.046.058-.89,1.114-.779.933-.417.531-.277.33-.265.314-.994,1.228-.567.714-.323.388-.304.359-.304.369-.35.434-.005.007-.328.42-.166.215-.282.333-.036.041-.26.306-.236.277-.41.516-.468.637-.053.068-.376.456-.075.092-.439.55-.427.492-.451.588-.625.767-.241.297-.101.128-.203.26-.142.186-.109.162-.157.35-.164.434-.084.415-.029.314-.014.371.043.437.07.393.13.386.171.456.234.437.227.294.234.311.176.229.357.4.47.408.451.244.557.171.494.121.335.116.427.099.48.072.477.027.593-.012.364-.058.533-.099.28-.094.039-.017.311-.128.27-.113.26-.125.572-.34.863,1.466-1.828,2.264.306.241,2.043-2.469-1.02-1.722.434-.258.137-.08.06.094-.065.041.024.034.065-.031.039.065.019-.007.162.263.031-.022-.157-.27.104-.053.157.27.041-.022-.154-.27.012-.01-.128-.205.887-.516,1.719-1.001.994-.579.74,1.254-.024.07-1.592.962.123.2,3.436-2.04-.135-.198-1.553.936-.099-.002-.745-1.273.856-.516,6.714-4.047.769,1.29-.017.145.239.128.118-.043,3.263-.34-.007-.106-.002-.039-.007-.109-3.306.314-.152-.084-.738-1.252.15-.089,1.022-.617.933-.567.111-.068,2.578.244,3.116-2.202.121-.116.195-.118.145-.084.21-.094.919-1.645.113-.203.875-1.423.169-3.432.195.022.034-.217h.043l.019-.053.094-.019.014-.166.154.012-.029-.128.017-.135.031-.215-.036-.002-.024.063-.121.034-.065-.06-.002-.06-.28-.034.034-.663v-.024l.81.051.007-.157-.798-.039.007-.169-.762-.029-.154-.545,1.283-.362-.036-.13-1.073.309-.029-.092-.051.017.022.092-.087.022v.039l-.053.019-.036-.13-.058.027-.229-.224-.135-.068-.111-.137-.022-.027-.043-.055-.002-.005.08-.075-.15-.212.034-.043-.605-.777-.152.121-.022-.027-.002-.005-.019-.024-.092-.106-.019-.039-.017-.036-.002-.01-.002-.01v-.022l.005-.022.005-.012.005-.01.005-.007.005-.007.012-.012.017-.01.017-.01.041-.012.082-.022.012-.002.041-.012.875-.232.593-.157.043-.012.174-.043.07.169.046.058.041.031.068.046.08.048.273.135.113.019.014-.005.012-.002h.002l.369-.104.128-.036.019-.005.084-.08.058-.101v-.002l.01-.017.169-.304.017-.152h0l-.002-.005-.072-.253-.031-.116-.029-.101-.082-.111h-.002l-.429-.244-.133-.022-.029.007h-.002l-.398.111-.116.058-.092.092-.039.068-.251.449.043.104-1.992.543-.094-.002-.07-.06-1.645-1.99-2.067-.559.258-.357.123.092.092-.099-.231-.171-.181-.128-.08.135.087.058-.294.408-.111-.029.121-.465.145.024.031-.169-.473-.118-.046.171.121.041-.109.461-2.971-.805" vector-effect="none" fill="#c1c1c1" fill-rule="evenodd" stroke="#232323" stroke-linecap="square" stroke-linejoin="bevel" stroke-width=".737"/>
      <path d="M150.642,583.048l-.748.719-.053.051-1.08,1.037-.658-.651-4.129,4.336.576.579-2.105,2.139.043.046-.082.08,4.449,4.555,3.866-3.627-4.056-4.201,1.119-1.129,2.18,2.127.714.757,1.309,1.247.752-.74,1.703.005.292-1.949.856-.885-3.695-3.584-.154.128-1.1-1.039" vector-effect="none" fill="#c1c1c1" fill-rule="evenodd" stroke="#232323" stroke-linecap="square" stroke-linejoin="bevel" stroke-width=".737"/>
      <path d="M202.766,571.598l-.321.111-.236.002-.002.162-.019.321h-.137l-.157.002-.166-.007-.632,1.022-.972.287-.123.465-.017-.002-.022.007-.024.036.002.034.024.026-.034.164-.017.096-.019.188-.005.186.01.171-.024.002.027.304-.222.024-.012-.101-.253.022.014.125.014.125.246-.019-.01-.111.227-.022.019.121.027.159.048.21.022-.002.043.181.048.157.077.207.101.236.121.224.092.169.176.292.055.092.089.118.017.024-.014.007.236.379.017-.017.294.456.239.386.171.241.632.878.039.055.273.347.326.422.234.309.051.046.456.492.258.333.256.263,1.184,1.201.268-.434.424.285.041-.026.301.2-.063.104-.053.072-.207.33-.145.234-.125.162.012.002.029-.019.014.012-.014.031-.041.027-.014.034-.058.07.017.014-.058.082-.034-.002-.031.053-.029-.002-.137.251.065.046.154-.256.152-.212.157-.222.104-.159.092-.154.104-.147.178-.299.707.453-.157.263-.005.022-.029.034-.152.26-.014.002-.017.019-.002.027-.128.181-.125.174v.039l-.101.195-.029.01-.01.084.084.039.113-.251-.005-.072.019-.024.034.019.248-.398.178-.287.109-.193.007.005.041-.053-.012-.01.029-.034.301.191-.027.113-.029-.007-.292,1.184v.036l.195.029.104-.434.058-.174.024-.215.019.005.082-.335-.029-.007.027-.118.311-1.276-.856-.412,1.396.181-.034-.181-.055-.195-.147-.309-.364-.654-.07-1.293.043-.123.022-.031.094-.096.123-.053.128-.058.036-.137-.022-.258-.034-.49-.82-.965-.183-.272-.145-.294-.104-.311-.065-.323.084-1.302.304-2.4-.01-.186-.068-.174-.178-.026-.656-.26-.504-.145-.169-.046-.439-.133-.239-.063-.265-.058-.574-.096h-.453l-.76.084-.198.012-.176-.111" vector-effect="none" fill="#c1c1c1" fill-rule="evenodd" stroke="#232323" stroke-linecap="square" stroke-linejoin="bevel" stroke-width=".737"/>
      <path d="M141.944,614.138l-1.611-1.124-2.771-1.401-.297-.142-.338-.053-.055.072-1.823.14-.207.048-.176.121-.094.149-.043.174.014.176.068.164.027.046.147.265.012.538-.198.133.68,1.064-1.191.74-.342-.518-.318.195.559.883,1.49-.991,1.165,1.818,3.297,2.127.883.231.907-.193.738-.533.277-1.235.109-1.295,1.712-1.047.118.203.19-.101-.333-.559-.176.099.109.207-1.705,1.051-.822-1.452" vector-effect="none" fill="#c1c1c1" fill-rule="evenodd" stroke="#232323" stroke-linecap="square" stroke-linejoin="bevel" stroke-width=".737"/>
      <path d="M214.799,630.708l5.149-4.119.195-.154.193-.154.576-.463-.42-.654-.538.429-.217.171-.2.135-7.498,5.959.538.603,2.221-1.753" vector-effect="none" fill="#c1c1c1" fill-rule="evenodd" stroke="#232323" stroke-linecap="square" stroke-linejoin="bevel" stroke-width=".737"/>
      <path d="M236.035,610.455l-1.423-1.105-5.395-1.992-.851,2.231,9.055,3.34-1.387-2.474" vector-effect="none" fill="#c1c1c1" fill-rule="evenodd" stroke="#232323" stroke-linecap="square" stroke-linejoin="bevel" stroke-width=".737"/>
      <path d="M235.558,606.614l.6-1.483-4.828-2.194-.644,1.266-.581,1.184,5.006,2.33.446-1.102" vector-effect="none" fill="#c1c1c1" fill-rule="evenodd" stroke="#232323" stroke-linecap="square" stroke-linejoin="bevel" stroke-width=".737"/>
      <path d="M230.52,617.815l-5.626-2.151-.928,2.45,4.847,1.777,1.707-2.076" vector-effect="none" fill="#c1c1c1" fill-rule="evenodd" stroke="#232323" stroke-linecap="square" stroke-linejoin="bevel" stroke-width=".737"/>
      <path d="M232.387,613.467l-5.231-1.932-.924,2.484,5.197,1.811.957-2.363" vector-effect="none" fill="#c1c1c1" fill-rule="evenodd" stroke="#232323" stroke-linecap="square" stroke-linejoin="bevel" stroke-width=".737"/>
      <path d="M227.904,621.659l-5.344-1.744-.914,2.385,4.871,1.746,1.387-2.387" vector-effect="none" fill="#c1c1c1" fill-rule="evenodd" stroke="#232323" stroke-linecap="square" stroke-linejoin="bevel" stroke-width=".737"/>
      <path d="M232.741,503.262l.215.118.212.128.446.299.605.408,1.676,1.09,1.674,1.085,1.584,1.022,1.763,1.138,1.674,1.09,1.659,1.076,1.852,1.061,2.047.649,1.141.362.931.386,1.611.752,1.596.752,1.736.793.152.068-.065.232-1.015,3.593-.371,1.353-.176.62-.048.178-.367,1.297-.593,2.021-.094.306-.449,1.486-.07.224-.21.673-.147.465-.362,1.145-.904,2.903-1.372,3.424-.842,1.842-.552,1.201-2.045-.897-1.722-.796-1.826-.83-1.599-1.309-1.423-1.355-1.273-1.201-1.637-1.543-.282-.263-1.068-1.003-1.582-1.469-1.459-1.377-.557-.521-.921-.866-1.56-1.449-1.309-1.136-.183-.231-1.331-1.247-.854-.861-2.94-2.754-.625-.588-.369-.369-.494-.439-.593-.555-.162-.152-1.488-1.396-.916-.839-.711-.738-1.676-1.584-.244-.012-.036.318-.01.065-.251,1.493-.145.953-.06.383-.188,1.227-.265-.034-.188-.019-.335-.039-.825-.094.333-2.173.354-2.293v-.012l-.673-.309-.791-.164-3.979-.528-1.461-.193-.851-.111-.092-.121.034-.26.041-.371.06-.381.043-.244,1.806.251,1.965.253,2.371.294,1.772.21.352-5.175.837.104.297.036.227.019.277.007.207-2.699,2.65.328,1.671.212,3.321.415,3.926.487,4.833.613.685.089" vector-effect="none" fill="#c1c1c1" fill-rule="evenodd" stroke="#232323" stroke-linecap="square" stroke-linejoin="bevel" stroke-width=".737"/>
      <path d="M261.279,485.624l.077,2.636-.367,2.245-.15.897-.027.13-.217,1.174-.393,2.057-.256,2.1-.485,1.994-.13.386-.42,1.599-.374,1.765-.19,1.498-.15.921.14.082-.263.492-.08.174-.359,1.172-.036.174-.157.586-.342,1.281-.591,2.173-.34,1.196-.248.948-.557,2.047-.051.188-.152-.068-1.736-.793-1.596-.752-1.611-.752-.931-.386-1.141-.362-2.047-.649-1.852-1.061-1.659-1.076-1.674-1.09-1.763-1.138-1.584-1.022-1.674-1.085-1.676-1.09-.605-.408-.446-.299-.212-.128-.215-.118.075-.21.569-1.664.714-1.874.104-.301,1.042-2.395.603-1.406,1.01-1.862.981-1.77.982-1.782.682-1.199.446-.781.818-1.534,1.042-1.874.408-.738.564-1.027,1.032-1.874,1.03-1.835,1.107-2.014,7.124,3.94,4.201,2.293,1.141.588.984.504,1.881,1.174" vector-effect="none" fill="#c1c1c1" fill-rule="evenodd" stroke="#232323" stroke-linecap="square" stroke-linejoin="bevel" stroke-width=".737"/>
      <path d="M218.262,463.114l-.096.145.386.169-.096.579-.145,1.061-.024.241-.362-.169-.096.193-1.326-.748.772-1.423-.844-.482.241-.458,1.592.892h0M218.745,462.198l-.096.603-.193-.048-.072.193-1.785-.965-.362.627-1.23-.699-1.23,2.243,2.243,1.254.386-.627,1.302.723-.096.169.289.145.265.289-.096.723-.096.217-.048.072.024.096.048.072-.024.048-.289.241-2.412-.121-1.447-.096-.217.096-2.436-.145-.169-.024v.145l1.109.072v.193l1.519.072-.121,1.76-.024.289-.048.916h-.169v.145l.096.096v.627h.217l.217.121,1.423.121.41-.024.145.048.217-.024-.072,1.375-.048.989-1.326-.096v.024h-.193l.048.145.096.096-.024.627,1.35.072-.096,1.375-.121,1.809-.096,1.809h-.096v.145l-.121.096-.024.121-.024.121.048.096.048.096.048.048-.024.121.072.024-.145,2.002-.169,2.363-.048.772-2.629-.169-.048.796,2.629.169-.072,1.182.193.121.072.096.024.121v.121l-.048.096-.145.121-.169.048-.024.145-6.825-.096-.024.772,5.619.121,1.158.048-.121,2.002-.169,2.532-.048.579-.145,2.315-6.318-.675-.048-.024-.096.096.024.048-.313,3.256-.289,2.604-.096.482,6.632.675.844.096.289.048.241.024h.265l.217-2.701,2.653.338,1.664.193,3.328.41,3.931.506,4.823.603.675.096.072-.217.579-1.664.723-1.881.096-.289,1.037-2.387.603-1.423,1.013-1.857.989-1.76.965-1.785.699-1.206.434-.772.82-1.543,1.037-1.881.41-.723.579-1.037,1.013-1.857,1.037-1.857,1.109-2.002-6.294-3.473-6.27-3.473-1.278-.723-4.461-2.46-.531-.289-.169-.096-3.376-1.881-1.809-.989-.916-.531-1.085-.627-.217-.024-.217-.024-.289-.169-.289-.169h0" vector-effect="none" fill="#c1c1c1" fill-rule="evenodd" stroke="#232323" stroke-linecap="square" stroke-linejoin="bevel" stroke-width=".737"/>
      <path d="M273.238,558.028l-4.203.533-3.863.487-.022.029-.518.065-.123-.022-.075-.063-.039-.06-.309-2.137-.019-.014-.048-.01-.063-.024-.048-.053-.043-.07-.133.012-.224.034-1.015.157-.227.034-.253.046-.376.072-.914.171-.786.164-.608.128-.615.094-.627.106-.777.162-.145.029-.304.087-.297.024-.116.026-.125.027-.47.099-1.078.241-1.97.393-.593.026-.292.012-.526.118-.444.178-1.319.282-1.864.342-1.425.26-1.367.275-1.77.646-.449.231-.533.285-.075.048-.357.227-.07.039-.121.07-.029.07-.133.113-.224.128-.154.176-.181.145-.198-.205-.159-.166-.084-.096-.094-.106-.26-.287-.584-.596-.244-.248-.198-.205-.236-.244-.154-.162-.157-.162-.593-.629-1.657-1.758-.432-.458.301-.521.106-.178.217-.35.294-.519.215-.359.34-.569.195-.33.34-.572-.244-.285-.207-.321-.164-.347-.113-.367-.063-.376-.01-.376-.041-3.781-.005-.089-.007-.051-.077-.627-.719-.68-.685-.54,1.322-.646.492-1.758.644.422-.162-2.337-.579-.352.468-.813.972-1.828.458-.998,1.066-2.284.301-.641,1.599,1.309,1.826.83,1.722.796,2.045.897.552-1.201.842-1.842,1.372-3.424,2.166.909,1.621.646,1.932.767,1.763.699.263.104.282.113,1.047.412,1.664.663,1.758.767-1.324,3.359-.991,2.578-.041.248-.014.253.017.253,1.953.789,1.404-.152.656-.072,1.63-.176,1.107-.121,2.901-.314.403-.043.191-.022.533-.055.224,1.789.285.171.125,2.059.058.516.014.13.166,1.452.215,1.91.152,1.363.181,1.531.043.28.019.121.022.145.022.142.35,2.776" vector-effect="none" fill="#c1c1c1" fill-rule="evenodd" stroke="#232323" stroke-linecap="square" stroke-linejoin="bevel" stroke-width=".737"/>
      <path d="M294.06,531.178l-.096-.007-.83-.335.092-.227-.128-.034-1.309-.355-.559-.152-.28-.077-.581-.162-1.059-.275-1.785-.953-1.594-.858-2.006-.81-.931-.367-2.713-1.073-1.895-.755-1.85-.738-1.816-.726-1.886-.75-1.857-.738-.757-.333-.941-.412-1.879-.663-1.613-.658-1.5-.6-.21-.087-.26-.106-1.404-.593-1.949-.731-1.659-.649-.55-.234-.181-.072-1.867-.75-.736-.294-.157-.065-.065.232-1.015,3.593-.371,1.353-.176.62-.048.178-.367,1.297-.593,2.021-.094.306-.449,1.486-.07.224-.21.673-.147.465-.362,1.145-.904,2.903,2.166.909,1.621.646,1.932.767,1.763.699.263.104.282.113,1.047.412,1.664.663,1.758.767-1.324,3.359-.991,2.578-.041.248-.014.253.017.253,1.953.789,1.404-.152.656-.072,1.63-.176,1.107-.121,2.901-.314.403-.043.191-.022.533-.055.224,1.789.285.171.125,2.059.058.516.014.13.166,1.452.215,1.91.152,1.363.181,1.531.043.28.019.121.022.145.022.142.35,2.776,1.888-.239,1.288-.164,4.01-.518-.089-1.138,1.715-.164.398-.036-.014-.21.118-.007.545-.048,1.649-.145.183-.017.041-.005.914-.082.355-.031.54-.046.256-.024.162-.026.227-.072.183-.084.215-.113.174-.133.222-.186.429-.388.673-.656.367-.374.145-.171.381-.473.234-.338.359-.579.099-.186.169-.321.26-.61.321-.875.092-.116.164-.42.181-.538.381-1.105-.017-.024,1.23-3.485h0l.046-.133.027-.072.055-.159.055-.142.029-.08.046-.121.957-2.86.892-2.879.827-2.896.762-2.916-2.38-.651-.084-.024-.123-.034-.099.063-.193.118-.106.036-.159.06-.176-.014" vector-effect="none" fill="#c1c1c1" fill-rule="evenodd" stroke="#232323" stroke-linecap="square" stroke-linejoin="bevel" stroke-width=".737"/>
      <path d="M277.934,569.548l.099-.024.06-.538,2.838-.176-.014-.294-3.092.224-.08.813.188-.005" vector-effect="none" fill="#c1c1c1" fill-rule="evenodd" stroke="#232323" stroke-linecap="square" stroke-linejoin="bevel" stroke-width=".737"/>
      <path d="M301.347,510.636l.014-.036.065-.482.043-.354.051-.35.058-.437.094-.687-.374-.246-.135-.13-.123-.094-.142-.116-.162-.147-2.759-1.587-5.238-3.005-.321-.166-.849-.412-1.563-.859-1.404-.779-1.078-.6-2.39-1.387-1.797-1.022-.926-.523-2.932-1.613-.535-.282-1.237-.637-.193-.104-.902-.494-.555-.301-.557-.309-.207-.116-3.06-1.681-4.939-2.737-.866-.48-2.667-1.476-.133-.072-2.351-1.29.077,2.636-.367,2.245-.15.897-.027.13-.217,1.174-.393,2.057-.256,2.1-.485,1.994-.13.386-.42,1.599-.374,1.765-.19,1.498-.15.921.14.082-.263.492-.08.174-.359,1.172-.036.174-.157.586-.342,1.281-.591,2.173-.34,1.196-.248.948-.557,2.047-.051.188.157.065.736.294,1.867.75.181.072.55.234,1.659.649,1.949.731,1.404.593.26.106.21.087,1.5.6,1.613.658,1.879.663.941.412.757.333,1.857.738,1.886.75,1.816.726,1.85.738,1.895.755,2.713,1.073.931.367,2.006.81,1.594.858,1.785.953,1.059.275.581.162.28.077.559.152,1.309.355.128.034-.092.227.83.335.096.007.176.014.159-.06.106-.036.193-.118.099-.063.123.034.084.024,2.38.651.82-3.605.685-3.632.839-4.674.244-1.314.084-.473.08-.441.133-.728.07-.383.036-.244.113-.586.022-.111.128-.736.031-.13.005-.084.022-.113.012-.068.065-.362.07-.458.096-.576.048-.342.012-.053.051-.333.058-.388.022-.229.034-.231.094-.675.055.002.039-.019" vector-effect="none" fill="#c1c1c1" fill-rule="evenodd" stroke="#232323" stroke-linecap="square" stroke-linejoin="bevel" stroke-width=".737"/>
      <path d="M313.137,529.741l-.051-.34.043-.031.019-.031.01-.043-.017-.068-.041-.039-.072-.007-.051.014-.031.029-.014.027-.007.048.01.043.024.034.036.029.058.005.029.33-.101.118-.077-.055-.193.265.576.424.065-.092,1.295.948.039-.051-1.372-.998.089-.154-.096.01-.157-.113-.027-.116-.039.014-.077-.048.13-.152" vector-effect="none" fill="#c1c1c1" fill-rule="evenodd" stroke="#232323" stroke-linecap="square" stroke-linejoin="bevel" stroke-width=".737"/>
      <path d="M318.004,525.762l.084-.121-1.418-2.354-.236.116,1.493,2.465.077-.106" vector-effect="none" fill="#c1c1c1" fill-rule="evenodd" stroke="#232323" stroke-linecap="square" stroke-linejoin="bevel" stroke-width=".737"/>
      <path d="M311.572,532.434l.133-.26.051-.096-.253-.128-.104.2-.171.294.253.14.022-.031,1.295.892.077-.137-1.302-.873" vector-effect="none" fill="#c1c1c1" fill-rule="evenodd" stroke="#232323" stroke-linecap="square" stroke-linejoin="bevel" stroke-width=".737"/>
      <path d="M316.69,525.231l.181-.239-.222-.219-.171.207-.222.263.234.205.135-.159,1.032.969h0l.08-.104-1.047-.924" vector-effect="none" fill="#c1c1c1" fill-rule="evenodd" stroke="#232323" stroke-linecap="square" stroke-linejoin="bevel" stroke-width=".737"/>
      <path d="M316.253,526.447l-1.252-1.068-.171.191,1.235,1.054.188-.176" vector-effect="none" fill="#c1c1c1" fill-rule="evenodd" stroke="#232323" stroke-linecap="square" stroke-linejoin="bevel" stroke-width=".737"/>
      <path d="M318.477,524.983l-.625-.509-.147.183.685.559.087-.234" vector-effect="none" fill="#c1c1c1" fill-rule="evenodd" stroke="#232323" stroke-linecap="square" stroke-linejoin="bevel" stroke-width=".737"/>
      <path d="M235.018,404.692l.822.458.304.176.282.145.253.169,3.629,2.006,2.387,1.322,4.032,2.236.608.335.386.215,1.242.687-1.01,1.833-1.054,1.908-.499.948-.367.651-.113.164-.154.277-.687,1.242-.145.299,3.367,1.895,1.464.808.234.113,1.189.663,6.265,3.492-.986,1.787-.994,1.794-.996,1.801-1.071,1.929-1.068,1.939-.953,1.719-1.025,1.852-1.006,1.804-.994,1.801-.991,1.78-.994,1.792-.998,1.794,4.604,2.563,1.662.924,6.285,3.49-1.001,1.794-.432.781-.562,1.013-1.066,1.91-1.073,1.963-.982,1.78-.523.94-.42.784-.955,1.705-.938,1.69-.95,1.717-.943,1.693-1.035,1.862-1.1,1.987-6.284-3.461-6.275-3.487-1.288-.711-4.459-2.477-.523-.289-.176-.094-3.379-1.874-1.813-.998-.912-.514-1.092-.622-.203-.039-.227-.027-.277-.157-.299-.169.137-1.133-.328-.039-.002-.041-.837-.109.113-.892-.036-.017-5.6-.736-.039-.043-.024-.08.128-.984.046-.072.106-.051.096.014,5.448.752.051-.055.113-.801.096.007.779.101.311.046.217-1.514.166-1.218-.005-.068-.465-.08-1.401-.244-.084-.014.121-.844-.791-.113-.041.031-.007.058-.012.089-.017.118-.017.133-.019.15-.014.096-.017.128-.017.13-.019.15.024.031.26.029-.007.051-.654-.075.007-.063.246.029.034-.027.031-.241.022-.157.014-.094.019-.145.014-.109.022-.152.012-.092.007-.058-.039-.039-1.056-.145-.041.031-.01.06-.01.084-.014.109-.019.142-.019.154-.014.101-.005.051-.046.352.041.029.253.027-.005.048-.762-.082.005-.053.345.036.043-.027.041-.342.01-.082.029-.253.024-.205.012-.116.007-.053-.031-.029-1.235-.162-.029.034-.017.169-.012.101-.019.162-.014.121-.024.2-.012.089-.024.198.041.029.246.022-.005.043-.757-.08.005-.043.342.036.043-.275.01-.07.041-.251.014-.101.031-.203.029-.176-.029-.041-1.266-.174-.123,1.061.029.058.251.022-.005.039-.364-.034.135-1.16.01-.082.01-.072-.036-.068.14-.984.017-.063.072-.053.099.005,2.383.311.01-.092.936.133v.043l.4.065-.002.058,1.068.145.027-.195.024-.183.012-.101.027-.19.01-.092.027-.195.012-.101.024-.183.012-.092.012-.082.01-.07.027-.215-4.794-.675-.075-.034-.053-.065.007-.077.123-.984.046-.051.063-.019.087.014,4.864.649.234-1.734-.936-.125v.043h-.017v.048l.039.002-.002.092-.909-.113.012-.099.113.014.012-.092-3.217-.446-.082-.055-.027-.055.133-1.006.031-.07.063-.041.084.002,4.876.663.248-1.818-.072-.002v.036l-.203-.029-.007.043-.755-.101-.002-.022-.236-.031.01-.075-3.639-.497-.063-.036-.046-.06v-.055l.147-.955.036-.046.053-.024.068-.005,2.496.347.854-3.014.682-.046.328-1.119-3.475-1.895.251-.866,3.453,1.956.651-2.262-.055-.113.142-.473.101-.07.195-.67-.502-.188-.842-.434.031-.058.842.444.21.072.017-.048-.721-.35.027-.039-.181-.101-.022.019-.128-.063.002-.007.106-.21.135.075-.024.034.174.096.031-.058.535.294.181.099.022-.046-.186-.082-1.493-.822.029-.053,1.874,1.032.118-.405-.866-.482.034-.06-.082-.041-.027.048-2.24-1.223.043-.065-.094-.053-.039.068-.186-.104.154-.28-.111-.06.113-.205.287.162-.217.391.109.055.017-.027,2.211,1.232-.014.024.099.055.229-.412.738.417.757-2.631.241-.832.362-1.247.263-.9-.275-.162.326-.562.277.157.391-.716.019-.036-.282-.157.314-.569.28.154.41-.721.338-.613.229-.41.275-.506.229-.415.593-1.078.224-.405.304-.574.094-.181.253-.492.863-1.551.458.265.9-1.678-.362-.217-.687-.42.547-.953-4.268-2.334-.065-.046-.039-.08.017-.082,1.047-1.869.051-.048.068-.005.072.01.282.137,3.998,2.202.661-1.211.661.367.222-.393-.603-.335-.369-.212.096-.178.121-.219-.212-.147-.034.034-.13-.104.111-.14.128.101-.027.031.2.15.046-.089.977.543.215-.408-.789-.456.229-.379.523-.924.449-.805.557-1.015.764.434.998-1.787-4.881-2.756-.029-.043.002-.048.236-.408.051-.034.06.014,4.857,2.74.912-1.645" vector-effect="none" fill="#c1c1c1" fill-rule="evenodd" stroke="#232323" stroke-linecap="square" stroke-linejoin="bevel" stroke-width=".737"/>
      <path d="M247.534,372.792l-.239.424,1.71.948,2.231,1.237-.726,1.3-4.635-2.578-.444.796,4.63,2.568-.002.041-.07.109.186.265.005.089-.027.051-.048.055-.072.024-.297-.029-.4.74-.702-.41-.014.034-.268-.084.046-.07-.215-.125.08-.157-.14-.068-.084.15-.014-.01-.227.417.164.092.034-.065.212.121.041-.075.198.164-.106.188.733.376-.757,1.384-.294-.169-.256.461.301.157-.957,1.748-5.407-2.981-.586,1.051,5.424,3.017-.711,1.293-.258-.145-.309.528.273.15-.099.183-5.303-2.995-.094-.01-.089.048-.398.709.017.096,7.225,3.994-.793,1.447-.75,1.37-7.136-3.996-.07-.024-.082.024-.429.752-.002.072.048.051,7.179,4.008-.757,1.377-.764,1.387-.178-.096-.019.034-6.928-3.914-.046-.029-.111.005-.065.055-.371.68-.024.055.068.094,7.203,4.001.022.043-.043.092-.15.299-.096.195-.08.101-.099.053-.234.063-.099.046-.075.068-.046.082-.017.099.022.109.046.096.068.053.077.036.053.217-.682,1.247-.492-.27-.203-.113-6.239-3.461-.072.046-.511.916.031.106,6.897,3.834-.622,1.107-.029.053-.157.289-.234.427-.034-.029-.637.473-1.777-1.013-.733-.386-4.473-2.486h-.08l-.07.039-.147.27.135.072.06-.106.162-.048.251.142-.446.825,4.809,2.653-.914,1.657-4.917-2.694-.321.564,4.915,2.725-.564,1.018.822.458.304.176.282.145.253.169,3.629,2.006,2.387,1.322,4.032,2.236.608.335.386.215,1.242.687-1.01,1.833-1.054,1.908-.499.948-.367.651-.113.164-.154.277-.687,1.242-.145.299,3.367,1.895,1.464.808.234.113,1.189.663,6.265,3.492,1.006-1.811.996-1.801.994-1.794,1.071-1.934,1.09-1.956,1.006-1.821.998-1.833,1.025-1.818.996-1.787,1.015-1.838,1.003-1.809,1.01-1.83,1.008-1.816,1.006-1.826,1.01-1.818.998-1.809,1.015-1.821,1.006-1.821.518-.933.562-1.013,1.133-1.956-3.837-2.137-2.465-1.367-6.287-3.473-5.226-2.887-.369-.205-.162-.087-.538-.299-6.058-3.364-.28-.154.808-1.469.191-.347.012-.019-.191-.14-.398.258-.297-.215-.137-.116-.096-.08-.733,1.29-.191-.113-.205.005-3.928-2.18" vector-effect="none" fill="#c1c1c1" fill-rule="evenodd" stroke="#232323" stroke-linecap="square" stroke-linejoin="bevel" stroke-width=".737"/>
      <path d="M252.458,373.723l.01-.002-.01.002-.157.029.157-.029" vector-effect="none" fill="#c1c1c1" fill-rule="evenodd" stroke="#232323" stroke-linecap="square" stroke-linejoin="bevel" stroke-width=".737"/>
      <path d="M281.274,446.938l-.203-.116-3.379-1.862-3.545-1.949-6.798-3.748-.311-.171-1.049,1.932-.371-.198-2.117-1.179-3.815-2.122-2.375-1.317-1.095-.608-2.809-1.555-1.068,1.939-.953,1.719-1.025,1.852-1.006,1.804-.994,1.801-.991,1.78-.994,1.792-.998,1.794,4.604,2.563,1.662.924,6.285,3.49-1.001,1.794-.432.781-.562,1.013-1.066,1.91-1.073,1.963-.982,1.78-.523.94-.42.784-.955,1.705-.938,1.69-.95,1.717-.943,1.693-1.035,1.862-1.1,1.987,7.124,3.94,4.201,2.293,1.141.588.984.504,1.881,1.174-.14-1.555.002-.268.041-.265.075-.258.111-.244-.027-.239.926-1.683.543-.928.429-.736.933-1.69.914-1.71.969-1.688.969-1.717.586-1.056.412-.743,1.078-1.924,1.066-1.941.996-1.794.994-1.797.998-1.797.996-1.794.994-1.797.996-1.794.989-1.801.989-1.792.984-1.799,1.088-1.924,1.083-1.951" vector-effect="none" fill="#c1c1c1" fill-rule="evenodd" stroke="#232323" stroke-linecap="square" stroke-linejoin="bevel" stroke-width=".737"/>
      <path d="M298.572,398.919l-1.372-.846-1.23-.687-4.51-2.52-4.7-2.609-1.58-.88-5.334-2.918-.128.166-.154.14-.181.106-.195.075-.362.017-.347-.106-.559,1.035-1.133,1.956-.562,1.013-.518.933-1.006,1.821-1.015,1.821-.998,1.809-1.01,1.818-1.006,1.826-1.008,1.816-1.01,1.83-1.003,1.809-1.015,1.838-.996,1.787-1.025,1.818-.998,1.833-1.006,1.821-1.09,1.956-1.071,1.934-.994,1.794-.996,1.801-1.006,1.811-.986,1.787-.994,1.794-.996,1.801-1.071,1.929,2.809,1.555,1.095.608,2.375,1.317,3.815,2.122,2.117,1.179.371.198,1.049-1.932.311.171,6.798,3.748,3.545,1.949,3.379,1.862.203.116.986-1.789.991-1.801.998-1.792.991-1.789.989-1.811.113-.207.887-1.563.193-.35.861-1.589-.256-.142-1.23-.704,1.047-1.999.977-1.797,1.013-1.835,1.01-1.818,1.365.755.2.109,1.025-1.809,1.008-1.813.989-1.838,1.01-1.811,1.01-1.828,1.006-1.811,1.006-1.823,1.008-1.806,1.015-1.835,1.001-1.813,1.088-1.953,1.085-1.975,1.013-1.816-.231-.128-3.328-1.828-3.543-2.006" vector-effect="none" fill="#c1c1c1" fill-rule="evenodd" stroke="#232323" stroke-linecap="square" stroke-linejoin="bevel" stroke-width=".737"/>
      <path d="M294.048,482.901l.251.002.147-.019.15-.019.169-.125.171.077.511.236.031.241.034.162.046.251.036.178.053.256.077.403.096.504.036.183.096.468.063.306.031.178.041.219.099.494.101.531.084.427.065.318.075.388.036.051.017.109.063.048.012.065.022.051.055-.005.007.058.022.024.019.051-.046.055.017.087.036-.01-.017-.036.039-.039.048-.01.058.063-.043.043.043.036.041-.039.053.012.031-.031.041.017.041-.014.029.039-.039.029.005.063-.053.012-.022.031-.027.046-.043.012-.046.043-.06.01-.029.063-.048-.012-.07.024.007.087.217,1.095.207,1.1.065.391.043.198.043.188.152.808.041.217.239,1.184.07.135.034.046.055.106.053.075.075.13.104.162.08.118.121.162.104.137.101.135.104.128.193.212.193.2.191.219.227.239.183.191.178.166.043.041.28.26.205.193.014.012.321.313.077.092.096.121.104.13.135.203.101.159.058.087.181.301.007.022.099.2.162.313.111.258.13.34.022.08.063.217.051.234.039.212.017.094.024.198.019.335.014.248v.219l-.029.437-.017.241-.055.42-.01.065-.036.318-.082.6-.099.871-.031.027-.007.14-.039.017-.063-.031-.039.007-.034.014-.075.69.219.027.055.005.053.007.036.019.017.034.043.002.007.068-.301,2.096-.374-.246-.135-.13-.123-.094-.142-.116-.162-.147-2.759-1.587-5.238-3.005-.321-.166-.849-.412-1.563-.859-1.404-.779-1.078-.6-2.39-1.387-1.797-1.022-.926-.523-2.932-1.613-.535-.282-1.237-.637-.193-.104.374-.176.14-.253.786-1.408.362-.644.673-1.203.511-.89.463-.832.371-.656.54-.994.586-1.061.386-.699.253-.463.666-1.213.576-1.001.145-.248.253-.468.969-1.775.74-1.493.072-.61.449.482.752.427,1.932,1.097,1.681.955,1.044.564,1.483.755.323.128" vector-effect="none" fill="#c1c1c1" fill-rule="evenodd" stroke="#232323" stroke-linecap="square" stroke-linejoin="bevel" stroke-width=".737"/>
      <path d="M322.142,515.312l.793.629-.145.326-.873-.731-.01-.125.063-.072.118.017.053-.043" vector-effect="none" fill="#c1c1c1" fill-rule="evenodd" stroke="#232323" stroke-linecap="square" stroke-linejoin="bevel" stroke-width=".737"/>
      <path d="M286.384,478.493l1.08-1.936-1.908-1.056-1.271-.702-2.062-1.143-.535-.294-.207-.116-2.317-1.283-.844-.468-1.054-.584,1.008-1.789.994-1.799.991-1.794,1.001-1.799-3.528-1.965-3.432-1.893-.147-.075-.996,1.794-.998,1.797-.994,1.797-.996,1.794-1.066,1.941-1.078,1.924-.412.743-.586,1.056-.969,1.717-.969,1.688-.914,1.71-.933,1.69-.429.736-.543.928-.926,1.683.027.239-.111.244-.075.258-.041.265-.002.268.14,1.555,2.351,1.29.133.072,2.667,1.476.866.48,4.939,2.737,3.06,1.681.207.116.557.309.555.301.902.494.374-.176.14-.253.786-1.408.362-.644.673-1.203.511-.89.463-.832.371-.656.54-.994.586-1.061.386-.699.253-.463.666-1.213.576-1.001.145-.248.253-.468.969-1.775.74-1.493.072-.61" vector-effect="none" fill="#c1c1c1" fill-rule="evenodd" stroke="#232323" stroke-linecap="square" stroke-linejoin="bevel" stroke-width=".737"/>
      <path d="M291.882,436.214l3.543,1.963,1.071-1.963,1.01-1.813,4.949,2.737,5.096,2.877.106.053-.909,1.732-.494.907-.217.135-.658.726-.104.116.193.121.121.077.212-.077.183.111,2.662,1.442.367.277.222.27.164.08.166.109.154.099.14.099-.456.711-.121.171-.137.219-.285.458.294.191-.142.21-.005.036-.007.029-.031-.002-.022.065-.046.031-.031.068-.087.147-.07.111-.07.101-.029.063-.053.082-.031.034-.043.094-.022.036-.099.13-.007.029-.017.036-.022.019-.017.043-.048.058-.055.094-.014.031-.048.08-.027.024-.014.036-.092.133-.42.651-.053-.036-.014.005-.034.068-.024.012-.007.031-.029.029-.007.024-.116.174-.13.21-.178.28-.051.065-.029.041-.007.034-.166.268-.014.007-.014.027-.096.164-.039.043v.022l-.039.048-.034.058-.065.094-.128.219-.068.089-.101.162-.06.106-.017.01-.14.222-.002.029-.395.617-.068-.041-.014.019-.041-.031.01-.014-.104-.082-.164.27-.096.15-.084.135-.19.304-.273.439.031.036v.039l-.116.207-.142.239-.041.014-.027-.002-.072.123-.14.268-.121.217-.364.728-.152-.077-.043-.039-.029-.005-.017-.022-.027-.002-.017-.022h-.024l-.029-.024-.092.186-.07.142-.222.449.733.456.012.002.043.022.017.027.07.039.029.041.005.036-.043.06-.043.06h-.017l-.024.019-.068-.041-.014.01-.082-.048h0l-.084-.053-.191-.111-.007.007-.465-.244-.017.012-.055.109-.147.294-.186.367.273.157.063.039-.166.347-.164.326-.306.596-.318.632-.092.181-.463.96.28.15.048.027-.075.14-.408.808-.198,1.307-.046.287-.07.482-.113.68-.099.709-.195,1.182-.007.051.169.027.039.005.029.01.031.039.007.051v.01l-.111.714-.022.029-.022.01v.024l.087.007-.046.277-.113-.019-.005.014.036.027.012.024-.113.745-.024.048-.046.022-.239-.031-.48,2.322.005.128.01.35.014.118-.002.171-.005.328.031.162.005.145.007.089.002.125-.002.21.014.212.005.169-.019.181-.024.014v.046l.024.034.007.362-.017.031-.002.027.024.019.007.502.01.041.019.265-.027.07.012.048.019.222-.022.068.017.383.036,2.607.017.072.007.157.01.128.041.538-.014.046.162,1.867-.043.046-.793.048-3.415-1.869-.101.35.096.048.01-.022.027.002.825.461-.043.075-.846-.468.005-.014-.087-.036-.082.62.065.007.075.034.014-.01.649.287-.024.063-.654-.289-.002-.012-.068-.019-.058.005-.022.429.014.285.043-.229.084.019-.027.111.47.096.007.051-.027.041-.468-.092v.029h-.017l.014.176.012.174h.162l.002-.014.282.002-.002-.012.159-.014.007.06.07.005.027-.039.118.089.005-.012,1.483.805-.043.075.35.198.494.28.552-1.008-.287-.217.014-.027.369.299-.516.926.072.051.072-.106.101.072.048-.092.058.036-.239.391-.048-.039.048-.084-.111-.06.055-.084-.07-.043-.077.128-.579-.33-.051.116.012.017.039.055.046.087.014.082-.012.116-.041.111-.072.087-.089.063-.109.053-.092.01-.14-.022-.048.092-1.98-1.083-.511-.236-.171-.077-.169.125-.15.019-.147.019-.251-.002-.323-.128-1.483-.755-1.044-.564-1.681-.955-1.932-1.097-.752-.427-.449-.482,1.08-1.936-1.908-1.056-1.271-.702-2.062-1.143-.535-.294-.207-.116-2.317-1.283-.844-.468-1.054-.584,1.008-1.789.994-1.799.991-1.794,1.001-1.799-3.528-1.965-3.432-1.893-.147-.075.994-1.797.996-1.794.989-1.801.989-1.792.984-1.799,1.088-1.924,1.083-1.951.986-1.789.991-1.801.998-1.792.991-1.789.989-1.811.113-.207.887-1.563.193-.35.861-1.589.294.162.962.521.567.311.74.408,1.035.567" vector-effect="none" fill="#c1c1c1" fill-rule="evenodd" stroke="#232323" stroke-linecap="square" stroke-linejoin="bevel" stroke-width=".737"/>
      <path d="M323.008,493.907v.072l.569-.041.031.099.053.147-.699.043-.017-.077-1.992.133-.007.055-.658.034.007.193-.183.022v-.065l-.615.089.017.21-.239.039-.089-.543.256-.06.039.248.632-.072-.029-.287.854-.063-.017-.048,2.088-.128" vector-effect="none" fill="#c1c1c1" fill-rule="evenodd" stroke="#232323" stroke-linecap="square" stroke-linejoin="bevel" stroke-width=".737"/>
      <path d="M324.525,498.026l.005.285-.133-.007-.137.007.005-.145-.629.084-.492.347.053.029-.162.27-.147-.075.106-.171-.523.08-.453.335-.145.263-.142-.096.157-.27.06.027.405-.299.034-.159.128.029-.014.063.569-.094.521-.391.784-.092.152-.019" vector-effect="none" fill="#c1c1c1" fill-rule="evenodd" stroke="#232323" stroke-linecap="square" stroke-linejoin="bevel" stroke-width=".737"/>
      <path d="M326.201,457.512l-.113.219-.227-.063.051-.229.289.072" vector-effect="none" fill="#c1c1c1" fill-rule="evenodd" stroke="#232323" stroke-linecap="square" stroke-linejoin="bevel" stroke-width=".737"/>
      <path d="M312.781,406.838l5.014,2.761,1.674.926,1.051.572,2.462,1.348,4.958,2.776,1.514.81.224.14.393-.736.084-.15.246.135.256.137-.113.147-.518.654-.644.965-.227.215-.019.027-1.051,1.731-.014.14-.827,1.413-.719,1.326-.644,1.006-.311.342v.002l-.511.562-1.326,1.334-1.119,1.681-.128.203-.082-.053-1.008,1.505-.463.695.063.065-.644.96-1.271,1.828-2.149,3.092-.13-.21-.118-.314-.089-.323-.427.576-.354.012-.034-.14.176-.195-.188-.058-.169.022-.027-.002-.2-.036-3.239-1.727-.304-.164-.109-.058-.082-.046-.268-.15-.333.6-.634,1.143-.075.137-.219.941.046.265-.434.755-1.001,1.751-1.064,1.891-.106-.053-5.096-2.877-4.949-2.737-1.01,1.813-1.071,1.963-3.543-1.963-1.035-.567-.74-.408-.567-.311-.962-.521-.294-.162-.256-.142-1.23-.704,1.047-1.999.977-1.797,1.013-1.835,1.01-1.818,1.365.755.2.109,1.025-1.809,1.008-1.813.989-1.838,1.01-1.811,1.01-1.828,1.006-1.811,1.006-1.823,1.008-1.806,1.015-1.835,1.001-1.813,1.088-1.953,1.085-1.975,1.013-1.816.246.14,3.318,1.854,3.543,1.963" vector-effect="none" fill="#c1c1c1" fill-rule="evenodd" stroke="#232323" stroke-linecap="square" stroke-linejoin="bevel" stroke-width=".737"/>
      <path d="M315.571,434.764l.027.002.169-.022.188.058-.176.195.034.14.354-.012.427-.576.089.323.118.314.13.21-.518.748-.839,1.206-5.715,8.94-.14-.099-.154-.099-.166-.109-.164-.08-.222-.27-.367-.277-2.662-1.442-.183-.111-.212.077-.121-.077-.193-.121.104-.116.658-.726.217-.135.494-.907.909-1.732,1.064-1.891,1.001-1.751.434-.755-.046-.265.219-.941.075-.137.634-1.143.333-.6.268.15.082.046.109.058.304.164,3.239,1.727.2.036" vector-effect="none" fill="#c1c1c1" fill-rule="evenodd" stroke="#232323" stroke-linecap="square" stroke-linejoin="bevel" stroke-width=".737"/>
      <path d="M318.035,450.256l-.135.181-.142-.012-.089.147-.15.246-.304-.125-.007-.181.092-.14.154-.222.222-.186.082-.087.145-.048.123-.251.125-.082.077.058-.019.096-.174.424v.181" vector-effect="none" fill="#c1c1c1" fill-rule="evenodd" stroke="#232323" stroke-linecap="square" stroke-linejoin="bevel" stroke-width=".737"/>
      <path d="M294.173,360.431l-6.256-3.492-3.154-1.744-.412-.229-2.706-1.495-1.625-.902-.241-.135-.241-.137-.533-.294-1.044-.581-2.614-1.449-3.415-1.888-.656,2.038-.685,2.226-1.787-.941-.123-.063-1.165-.721-.521-.393-.123-.063-.113-.07-.106-.063-1.172-.68-.297-.171-.022.065-.014.041-.147.405-.048-.022-.328.733-1.189,2.192.017.301v.077l-.031.106-.029.301.118.224-5.595.359-.289.523.422-.031.082-.133.06.002.087-.058.029-.06.188.005.219.051.212.036.198-.019.282-.072.27-.014.253.024.169.007.21.01.248-.058.188-.051.217-.024.212.031.224.046.198.029.162-.019.183-.06.217-.077.198-.036.289.041.13.075.767-.046.007.06-.477.827-.2.35-.055.101h0l-.991,1.816-.998,1.833-.651,1.196-.738.072-.434-.019-1.109,1.997-1.3,2.342-.152.26-.661,1.24.055.162.07.094.227-.039.224-.077.147.034-.461,1.107-.301.285-.145-.017-.128.065-.111.133-.099-.053-1.625,3.043-.118.362-.07.092-.186.164-.21.239-.169.203-.152.227-.123.299-.087.326-.164.26-3.61-2.006-1.059-.576-.096-.051-.186.289.135.077.041.024-.06.101-.005.01h.005l.14.077-.099.203v.002l-.193-.104-.099.181,2.629,1.432.08-.178-.166-.087.041-.075.104-.195,1.611.943-.053.101-.128.239.21.133-.043.07.362.198.034-.065.241.121.111-.181.157-.029.01-.002.123.07.096.08.137.116.297.215.398-.258.191.14-.012.019-.191.347-.808,1.469.28.154,6.058,3.364.538.299.162.087.369.205,5.226,2.887,6.287,3.473,2.465,1.367,3.837,2.137.559-1.035.347.106.362-.017.195-.075.181-.106.154-.14.128-.166.092-.224.043-.236-.005-.241-.055-.236-.198-.311-.292-.229,1.449-2.563,1.013-1.838.998-1.811,1.015-1.821,1.015-1.818,1.037-1.854.972-1.78,1.006-1.813,1.006-1.816,1.013-1.826,1.003-1.811,1.109-1.997,1.095-1.973,1.01-1.828" vector-effect="none" fill="#c1c1c1" fill-rule="evenodd" stroke="#232323" stroke-linecap="square" stroke-linejoin="bevel" stroke-width=".737"/>
      <path d="M318.062,317.329l-1.126,2.028-1.083,1.958-.996,1.813-1.03,1.835-1.01,1.823-1.008,1.83-.969,1.792-1.054,1.857-1.01,1.818-1.027,1.806-.521.972-.051.106-.499.9-1.097,1.982-1.032,1.847-1.015,1.845-1.02,1.842-1.105,1.99-4.078,7.391-1.095,1.953-.499.892-.528.96-.49.88-.545.979-6.256-3.492-3.154-1.744-.412-.229-2.706-1.495-1.625-.902-.241-.135-.241-.137-.533-.294-1.044-.581-2.614-1.449-3.415-1.888-.656,2.038-.685,2.226-1.787-.941-.123-.063-1.165-.721-.521-.393-.123-.063-.113-.07-.106-.063-1.172-.68-.297-.171.191-.535-.13-.048.053-.14.128.048.128-.398.089-.181.094-.171,3.096-5.882.492-.936.306-.581,1.097-2.043.333-.634-1.563-2.057-.625.434-1.36,2.12-.104-.06,1.372-2.153.736-.494.08-.34.125-.005.096.034-.154.494,1.476,1.874.769-1.476-.26-.13.063-.137-.101-.048-.087.157.029.012-.017.027-.07-.046.092-.166-.979-.54-.075.135-.106-.06.183-.33.101.058-.075.137.123.068.904.499-.012.024.106.053.068-.113.253.133.181-.338.62-1.174-2.404-.101-.328.417-.111-.077-.017-.099.304-.379,1.495.087,1.138.002,2.04-3.861,2.976-5.636,1.018-1.922,1.09-2.067.227-.429.755-1.43.904-1.71.229-.4.666-1.16.188-.35,1.674-3.092,2.204-4.092,1.092-2.028,2.081-3.914.998-1.864.096.055,1.138.654.543.287.222.121.212.118.369.198.352.193,2.074,1.073,1.061.567,3.08,1.707,2.928,1.625.229.123.207.113,2.908,1.623-1.003,1.816,2.884,1.565,3.42,1.857,1.256.702,2.236,1.273,2.781,1.493" vector-effect="none" fill="#c1c1c1" fill-rule="evenodd" stroke="#232323" stroke-linecap="square" stroke-linejoin="bevel" stroke-width=".737"/>
      <path d="M328.048,291.777l1.797.983.779.427.68.256-.355.632-.629,1.129-1.01,1.813-1.015,1.842-1.088,1.977-1.088,1.946-.494.907-.514.924-1.015,1.823-1.013,1.835-1.015,1.823-1.018,1.787-.342.641-.227.432-.306.55-1.088,1.946-.21.374-.815,1.505-2.781-1.493-2.236-1.273-1.256-.702-3.42-1.857-2.884-1.565,1.003-1.816-2.908-1.623-.207-.113-.229-.123-2.928-1.625-3.08-1.707-1.061-.567-2.074-1.073-.352-.193-.369-.198-.212-.118-.222-.121-.543-.287-1.138-.654-.096-.055.251-.47,1.003-1.91.109-.186-.022-.154.065-.147.482-.779.608-1.174.4-.748.27-.523.275-.547.383-.74.393-.71.76-1.335.446-.849.092-.235.275-.453.121-.354.236-.375.157-.173.386-.795.357-.581.169-.42.128-.235.08-.054.246-.511.123-.206-.01-.103.702-1.286.842-1.512.268-.614.217-.26.297-.284.041-.198.193-.424.203-.321.022-.157.371-.692.335-.565.403-.759.265.137.323.167.171.081.154.079,2.002.957,2.604,1.247.106.05.142.062.986.431,2.749,1.382.224.113.229.13.933.517.309.171,1.039.574.304.169,2.395,1.323,1.061.588,6.147,3.401,3.159,1.869" vector-effect="none" fill="#c1c1c1" fill-rule="evenodd" stroke="#232323" stroke-linecap="square" stroke-linejoin="bevel" stroke-width=".737"/>
      <path d="M367.508,385.033l1.191-.762.089-.075.224-.232.644-1.447,1.039-1.698.166-.506.111-.528.063-.801-.171-1.7-.012-1.707.217-.767.381-.805-.145-.244-.227-.096-.21.034-.651.967-.702.704-1.066.186-1.671.798-.996.967-.526.846-.856,1.215-1.765,2.031-.586.446-.644.738-.246.193-.113.099.002.152-.81,1.512-.147.277-.193,1.003-.301.029-.051.089-.35-.2-.142.316.323.198-.256.446-.236.415-.109.077-.203-.055-.014.212-.14.099-1.408,2.457-2.532,3.912-2.455,4.102-.603,1.008-.258-.017-1.698,1.813-.89,1.372-.784,1.206-.456.547-.077.219-1.44,2.371-.557,1.259-.461,1.114-.88,1.17-1.088,1.447-.326-.263-.588.743.15.147-.639.709-.109.065-.188.338-.075.118-.135.244-.145.111-2.397,3.697-.767,1.184-.229.354-.043.065-.087.128-.068.109-.072.111-.055.101-.137.371-.728,1.078-1.056,1.558-.953,1.406-1.734,2.563-1.717,2.537-1.035,1.124-.198-.094-1.068,1.854-.157.441-.704,2.055-.265.772-1.49,1.83-.938,1.748-.526,1.471-.113.123-.072.109-.031.128.046.142.089.118-.335.458.463.354.362-.494.121.065.135.019.133-.034.111-.077.106-.099.08-.123.092-.128.931-1.035,1.083-.878.757-.745,1.172-1.404-.01-.258.767-.545.171-.113,1.529-1.445,1.555-1.76.632-.714,2.496-3.487,1.322-1.782.268-.07,2.161-2.489,1.522-1.756.133-.152.084-.096.084-.106.109-.133.217-.282,1.283-1.662.726-1.418.077-.721.186-.47.692-1.189.147-.174.499-.593.499-.417,2.045-3.043.555-.552.818-.82.617-.637.629-.967.815-1.259,1.001-1.546.871-1.348.104-.162,1.751-2.713.584-.926.449-.711.111-.159.736-1.068,3.084-4.471,1.36-2.445.904-1.616,1.312-1.953.803-1.194.634-.588,1.695-1.572" vector-effect="none" fill="#c1c1c1" fill-rule="evenodd" stroke="#232323" stroke-linecap="square" stroke-linejoin="bevel" stroke-width=".737"/>
      <path d="M330.944,415.228l.231-.26.557-.646.81-.972.084-.104.622-.728.748-.885,1.425-1.712.053-.065.965-1.15.299-.347,2.911-3.371,2.322-3.441,2.332-3.446,1.201-1.772,1.191-1.765,1.24-1.77,1.309-1.874,1.083-1.753.456-.738.634-1.15.931-1.683,1.273-1.794,1.317-1.862-.072-.041-.203-.118-.113-.068-.111-.065-.171-.096-.62-.422-.333-.183-4.876-2.703-4.982-2.768-5.231-2.884-4.946-2.747-1.104,1.987-1.018,1.842-.695,1.259-.323.584-1.027,1.845-1.02,1.838-1.027,1.838-1.085,1.985-1.121,1.99-.967,1.838-1.027,1.799-1.008,1.823-1.01,1.821-1.044,1.881-.974,1.748-1.006,1.823-1.008,1.816-1.01,1.818-1.008,1.821-1.01,1.818-1.006,1.826,5.014,2.761,1.674.926,1.051.572,2.462,1.348,4.958,2.776,1.514.81.224.14.393-.736.084-.15.246.135.256.137.082-.101.063-.065.089-.106.053-.058" vector-effect="none" fill="#c1c1c1" fill-rule="evenodd" stroke="#232323" stroke-linecap="square" stroke-linejoin="bevel" stroke-width=".737"/>
      <path d="M381.266,376.68l-.089-.036-.198.48-.246-.096-.094.244.632.251.099-.253-.299-.116.195-.473" vector-effect="none" fill="#c1c1c1" fill-rule="evenodd" stroke="#232323" stroke-linecap="square" stroke-linejoin="bevel" stroke-width=".737"/>
      <path d="M332.562,445.013l.13-.239-.246-.135-.335.574.251.128.13-.231.328.203.055-.096-.313-.203" vector-effect="none" fill="#c1c1c1" fill-rule="evenodd" stroke="#232323" stroke-linecap="square" stroke-linejoin="bevel" stroke-width=".737"/>
      <path d="M350.847,338.138l-1.085,1.97-1.013,1.816-1.008,1.828-1.013,1.826-1.015,1.818-1.022,1.804-.996,1.84-1.015,1.826-1.01,1.826-.49.885-.096.178-.499.897-1.1,1.987-1.02,1.845-1.02,1.845-1.02,1.838-1.027,1.847-.55.991-.47.851-1.095,1.985-1.104,1.987-1.018,1.842-.695,1.259-.323.584-1.027,1.845-1.02,1.838-1.027,1.838-1.085,1.985-1.121,1.99-.967,1.838-1.027,1.799-1.008,1.823-1.01,1.821-1.044,1.881-.974,1.748-1.006,1.823-1.008,1.816-1.01,1.818-1.008,1.821-1.01,1.818-1.006,1.826-3.543-1.963-3.318-1.854-.246-.14-.231-.128-3.328-1.828-3.543-2.006,1.018-1.799,1.006-1.799.994-1.818,1.022-1.823,1.008-1.811.986-1.835,1.008-1.804.68-1.218.335-.598,1.015-1.83,1.022-1.789.989-1.833,1.013-1.828,1.092-1.99,1.112-1.973,1.018-1.838,1.025-1.845,1.02-1.85,1.015-1.84,1.015-1.84,1.03-1.862.077-.159,1.095-1.949.21-.381.813-1.469,1.022-1.842,1.025-1.85,1.037-1.876,1.013-1.823,1.092-1.939,1.09-2.002.996-1.801,1.01-1.826.977-1.809,1.025-1.828,1.032-1.833,1.044-1.847.979-1.806,1.01-1.806,1.066-2.009,3.562,1.992.998.552.656.362,1.666.921.244.135.193.111.518.287,2.059,1.136.815.449,1.302.721,2.223,1.23" vector-effect="none" fill="#c1c1c1" fill-rule="evenodd" stroke="#232323" stroke-linecap="square" stroke-linejoin="bevel" stroke-width=".737"/>
      <path d="M363.51,352.755l-.253-1.367-.345-1.869-.022-.752.511-3.265-.058-.176-.191-.326-.159-.087-.135-.084-.135-.08-.219-.142-1.309-.736-.169-.087-2.648-1.466-1.155-.639-1.425-.789-1.664-.924-2.059-1.145-1.228-.682-1.085,1.97-1.013,1.816-1.008,1.828-1.013,1.826-1.015,1.818-1.022,1.804-.996,1.84-1.015,1.826-1.01,1.826-.49.885-.096.178-.499.897-1.1,1.987-1.02,1.845-1.02,1.845-1.02,1.838-1.027,1.847-.55.991-.47.851-1.095,1.985,4.946,2.747,5.231,2.884,4.982,2.768,4.876,2.703.333.183.62.422.171.096.111.065.113.068.203.118.072.041,1.285-1.797,1.112-1.555,1.741-1.958,1.623-1.823,1.138-1.565.887-1.227.656-.902.716-1.076.902-1.353.757-1.577.41-1.476.707-.668.174-.663-.159-2.127-.092-.248-.152-.212-.205-.166-.239-.109.104-.227-.203-.116-.01-.034.309.166-.034.068.275.162.142-.265-.299-.176.034-.053-.099-.367.096-.029-.207-.866-.06.01.007.034-.068.019-.077.014-.01-.031-.058.014.203.873.096-.014.087.304-.031.046-.359-.219-.439-2.084-.767-2.115.301-.191.217-.285.106-.342-.024-.357,1.297-.42.063-.094-.014-.113-.54-1.498-.082-.111-.137-.017-2.151.784-.359-1.15" vector-effect="none" fill="#c1c1c1" fill-rule="evenodd" stroke="#232323" stroke-linecap="square" stroke-linejoin="bevel" stroke-width=".737"/>
      <path d="M375.775,350.799l-.048-.335.041-.323.178-.678-.253-.374-.482.164-.979.924-.186.815-.022.477.246.258-1.08,1.445-.193.181-.154-.08-.263.304.135.178-.333.685.118.142.468-.552.178-.046,1.379-1.76.477.222.35.01.981-.287.429-.321-.123-.936.017-.613-.338-.087.01.726-.236.092-.318-.231" vector-effect="none" fill="#c1c1c1" fill-rule="evenodd" stroke="#232323" stroke-linecap="square" stroke-linejoin="bevel" stroke-width=".737"/>
      <path d="M344.69,261.886l-3.186-1.764-1.184-.666-2.481-3.7-1.112-1.713-1.218,2.193-1.804-2.629-.07-.107-.137-.207-1.454-2.187-.82-1.233-.06-.092-.15-.229-.137-.189-.084-.119-2.426-3.516-2.636-1.46-.736-.401-.813-.492-.412-.267-.135-.087-.113-.078-.289-.164-.178-.07-.289-.113-1.519,2.086-.805,1.053-.094.148-.61.787-1.625,2.652-.405.752-1.698,3.467-.029.128-.528.976-.314.558v.002l-.374.722-.294.495-.2.371-.492.98-.116.138-.263.514-.251.481-.304.547-.229.381-.256.5-.294.604-.089.243-.176.414-.084.081-.198.385-.598,1.061-.314.723-.169.414v.133l-.104.1-.082.181-.039.157-.162.195-.188.357-.005.124-.171.295-.379.742.034.109-.08.119-.191.3-.41.78-.084.219-.178.504-.029.21-.231.318-.42.614-.142.352-.383.583-.046.069-.989,1.775-.47.785-.244.466-.728,1.247-.555.905-1.418,2.424.265.137.323.167.171.081.154.079,2.002.957,2.604,1.247.106.05.142.062.986.431,2.749,1.382.224.113.229.13.933.517.309.171,1.039.574.304.169,2.395,1.323,1.061.588,6.147,3.401,3.159,1.869,1.102-1.997,1.013-1.819.969-1.85.099-2.289-.07-1.46-.017-.365-.029-.556-.068-1.293-.012-.334.031-.333.075-.326.118-.313,1.03-1.982.058-.101.907-1.639.041-.077,1.015-1.829.719-1.29.065-.114.178-.321.055-.099,1.015-1.827,1.001-1.822,1.022-1.847,3.07,1.706.661-1.171.436-.623,1.076-1.951,1.08-1.969" vector-effect="none" fill="#c1c1c1" fill-rule="evenodd" stroke="#232323" stroke-linecap="square" stroke-linejoin="bevel" stroke-width=".737"/>
      <path d="M357.966,233.35l-.716,2.008-.695,1.97-.699,1.993-.69,1.956-.699,1.974-.75,2.147-.769,2.157-.707,1.982-.359.974-.393.962-.432.947-.465.93-.468.851h0s-.497.833-.497.833l-1.076,1.861-1.276,1.698-.118.155-1.153,1.494-1.314,1.642-3.186-1.764-1.184-.666-2.481-3.7-1.112-1.713-1.218,2.193-1.804-2.629-.07-.107-.137-.207-1.454-2.187-.82-1.233-.06-.092-.15-.229-.137-.189-.084-.119-2.426-3.516-2.636-1.46-.736-.401-.813-.492-.412-.267-.135-.087-.113-.078-.289-.164-.178-.07-.289-.113.335-.5,1.237-1.848.815-1.211,1.104-1.644.989-1.47.408.247.936-1.62.142-.265.094-.142.335-.506-.169-.113-.121-.081-.089.133-.273-.181.615-.927.253.167-.446.686.128.082.193.125.598-.907-.273-.148.193-.306.241-.38-.482-1.651-.082-.104-.248-.131-.258.488-1.502-.825.678-1.231,1.495.821-.273.495.292.16.111.104.063.131.415,1.413.012.041.26.176.721-1.277.072-.508.082-.212.123-.233.299-.474-.639-.329.048-.1.14-.287-2.255-1.251-.039-.021-.567-.3-.055-.026-.041-.022-.034-.024-.012-.013-.012-.013-.048-.068-.017-.029-.01-.029-.005-.017v-.007l.024-.109-.048-.026.916-1.813,3.817,3.031.417.138.154.035.152.035.562.106.692.13.386.081,1.259.546.087.038.075.043,4.254,2.373.217.119.217.121,1.464.81,4.594,2.522.996-1.795,1.003-1.821,3.051,1.697,1.008-1.803,1.864,1.028,2.561,1.424" vector-effect="none" fill="#c1c1c1" fill-rule="evenodd" stroke="#232323" stroke-linecap="square" stroke-linejoin="bevel" stroke-width=".737"/>
      <path d="M370.597,206.631l.453.249,1.136.627.424.231.371.225.593.318.789.435-.707,2.187-.634,2.005-.972,1.859-.991,1.796-1.003,1.817-1.001,1.805-1.001,1.806-.998,1.793-1.044,1.875-1.09,1.885-.687.986-.596.853-1.199,1.675-1.223,1.713-1.225,1.694-2.028-1.115-2.561-1.424-1.864-1.028-1.008,1.803-3.051-1.697-1.003,1.821-.996,1.795-4.594-2.522-1.464-.81-.217-.121-.217-.119-4.254-2.373-.075-.043-.087-.038-1.259-.546-.386-.081-.692-.13-.562-.106-.152-.035-.154-.035-.417-.138-3.817-3.031.273-.542.046.022,3.436-6.835.393-.781.685.339,1.389-2.742.26.125-.007.012-.046.078,2.617,1.325.752-1.467.345.165.169-.327h0s.053-.095.053-.095l.176-.323.195-.345.123-.206.104-.155.072-.095.166-.2.063-.082.027-.037.077-.118.07-.122.801-1.489,1.355-2.884,1.741-3.449.6-.995.231-.595.335-.444.229-.457.518-1.003.277-.464.096-.42.21-.403.024-.291.072-.343.123-.415.193-.437.128-.232.176-.227.101-.172.248-.399.123-.282.065-.172.077-.282.068-.127.171-.238.123-.26.159-.133.297.149.321.155.169.055.142.085.268.131.359.181.367.176.81-.204.152-.038,1.387.58,5.19,3.073.224.119.231.128,6.048,3.347,3.557,1.965.644.36,1.611.897" vector-effect="none" fill="#c1c1c1" fill-rule="evenodd" stroke="#232323" stroke-linecap="square" stroke-linejoin="bevel" stroke-width=".737"/>
      <path d="M367.499,274.52l-6.945-3.843-.171-.095-.147-.082-5.916-3.265-.219-.12-.186-.104-6.087-3.384-3.137-1.741-1.08,1.969-1.076,1.951-.436.623-.661,1.171-3.07-1.706-1.022,1.847-1.001,1.822-1.015,1.827-.055.099-.178.321-.065.114-.719,1.29-1.015,1.829-.041.077-.907,1.639-.058.101-1.03,1.982-.118.313-.075.326-.031.333.012.334.068,1.293.029.556.017.365.07,1.46-.099,2.289-.969,1.85-1.013,1.819-1.102,1.997,1.797.983.779.427.68.256.68.195,5.515,3.043.14.075.101.058.077.041,5.424,3.002.518.297.157.08.193.096,3.162,1.76,2.638,1.469,1.136.651.369-.663.615-1.112,1.049-1.876.232-.42.116-.207.116-.21.111-.2.451-.813.065-.121.133-.236.101-.186.641-1.158.096-.174.106-.193.106-.191.675-1.22,1.131-2.045,1.088-1.967,1.013-1.824,1.008-1.826.641-1.175.354-.645-.244-.136-2.006-1.123-1.285-.718,1.03-1.818,1.02-1.849,1.022-1.803.996-1.816,1.283.705,1.363.748.666.366.227.123,1.08-1.952,1.085-1.957" vector-effect="none" fill="#c1c1c1" fill-rule="evenodd" stroke="#232323" stroke-linecap="square" stroke-linejoin="bevel" stroke-width=".737"/>
      <path d="M383.591,190.577l-.403-.201-.087-.043-.4.604-.236.282-.222.239-.538.581-.924.934-1.934,1.87-.887.93-.639.631-1.493,1.55-.702.763-.637.818-.427.684-.386.715-.241.514-.287.706-.089.261-.188.65-.229.569-.338.513-.35.487-.109.137-.268.416-.183.525-.029.112-.159.711-.157.343,1.136.627.424.231.371.225.593.318.789.435-.707,2.187-.634,2.005-.972,1.859-.991,1.796-1.003,1.817-1.001,1.805-1.001,1.806-.998,1.793-1.044,1.875-1.09,1.885-.687.986-.596.853-1.199,1.675-1.223,1.713-1.225,1.694-2.028-1.115-.716,2.008-.695,1.97-.699,1.993-.69,1.956-.699,1.974-.75,2.147-.769,2.157-.707,1.982-.359.974-.393.962-.432.947-.465.93-.468.851h0s-.497.833-.497.833l-1.076,1.861-1.276,1.698-.118.155-1.153,1.494-1.314,1.642,3.137,1.741,6.087,3.384.186.104.219.12,5.916,3.265.147.082.171.095,6.945,3.843,1.001-1.814,1.006-1.805,1.008-1.813,1.003-1.812,1.003-1.823,1.049-1.882.603-1.088.236-.423.55-.994.174-.311.227-.413.154-.285,1.143-1.961,1.044-1.978.137-.247.866-1.556,1.013-1.76.205-.409.188-.348.125-.234.526-.979,1.944-3.494.518-1.105.405-.815.482-1.065.236-.52.118-.269-.022-.303-.335-2.087-.133-.743-.094.429-.203-1.063-.014-.084-.036-.509-.017-.232-.024-.554-.01-.289.164.086.193.11.434.23.632.172-.002-.307.002-.357-.314-.028-.034-.693.01-.093-.041-.982-.007-.173-.051-1.217-.019-.394-.024-.527.002-.124-.055-1.111-.017-.393.007-.066-.012-.257-.027-.553-.017-.314-.002-.104-.005-.178-.036-.939-.007-.357-.029-.446-.027-.639-.002-.024-.041-.144-.118-2.093-.063-1.069-.058-.79-.048-.167-.002-.444-.07-1.695-.068-1.709-.024-.019-.137-1.86-.08-1.087-.041-.566.13-.017-.205-1.993-.01-.107-.026-.243-.014-.157.039-.013-.024-.176-.022-.17-.01-.062-.026-.201-.014-.132-.048.017-.005-.113-.019-.037.012-.054.012-.033-.019-.037.019-.024-.014-.122-.017-.078.007-.048-.024-.054.017-.055-.014-.054.007-.078-.019-.085.005-.133.002-.054-.005-.134.022-.072.007-.024-.005-.135-.017-.018-.005-.006.002-.017.014-.061-.019-.022-.012-.011-.043-.619-.041-.017-.002-.087-.019-.089.002-.118.002-.072.029-.027-.012-.144-.034-.044-.017-.011-.007-.05-.043.004-.017-.076.055-.022.046-.043-.031-.385-.039-.045-.024-.035-.019-.174.043-.046-.017-.07-.029-.159-.024-.094.005-.068-.031-.07-.026-.065.022-.035-.01-.082-.043-.059.01-.124-.024-.059-.024-.059-.027-.046.007-.035-.024-.013.002-.057-.07-.047-.072-.726-.396-4.113-.06-.668-.043-.451-.017-.242.039.002-.08-1.232-.034.007-.063-.926-.017-.495-.005-.064.048-.028.029-.052.024-.004-.007-.12.014-.063-.005-.048.017-.056-.007-.055-.014-.02-.007-.065-.005-.266-.027-.026.014-.033.039-.039-.019-.039.005-.035-.019-.078-.014-.037-.002-.054.029-.061-.01-.039.007-.091-.014-.055.026-.026.007-.068.01-.141.019-.674.014-.078v-.089l.029-.436.031-.063-.014-.107.075-.835.024-.109-.012-.143.012-.273.082-.597.046-.03v-.039l.014-.022.002-.081.017-.075.014-.069-.082-.122.019-.117.046-.272.036-.419.012-.155.046-.437.046-.068.053-.229.048-.055.06-.047.075-.03.031-.086-.002-.058-.014-.163.053-.141.007-.08.043-.08.058-.03.07-.083.005-.086.07-.069.051-.014.041-.072.017-.065.058-.034.034-.075.012-.08.014-.055.063-.102.092-.068.043-.106-.01-.069-.029-.065.031-.068" vector-effect="none" fill="#c1c1c1" fill-rule="evenodd" stroke="#232323" stroke-linecap="square" stroke-linejoin="bevel" stroke-width=".737"/>
      <path d="M382.359,319.256l-.118.109-.142.128-.212.224.007.005.164.159-.61.603-.159-.159-.644.651-.424.772-.654,1.172-.822,1.49-.813,1.452.019.019-.063.118.019.058.128.072,1.929,1.08.029.029.002.036-.203.367-.019.014h-.034l-2.002-1.083-.176.502-.371,1.088-.043.123-.292.859-.188.552-.113.35-.019.048-.101.299-.072.205-.094.275-.289.615.005.024-.029.036-.029.072-.316.716-.041.055-.133.2-.113.164-.649.96-1.604,2.387-1.235,1.838-.017.007-.019.007-.022.024-.06.031-.019.027-.048.034-.043.029-.055.036-.077.055-.051.039-.027.012-.053.043-.034.022-.111.077-.077.048-.077.063-.039.019-.051.041-.029.024-.063.043-.21.145-.203.145-.176.128-.039.034-.068.039-.019.019-.075.051-.109.075-.096.068h-.01l-.06.039-.041.029-.048.029-.092.058-.429.27-.135.075-.055.034-.058.041-.077.051-.603.391-.176.118-.328.224-.398.27-.352.244-.364.251-.299.203-.169.118-.096.068-.077.06-.227.21-.07.065-.154.14-.236.219-.193.174-.147.135-.181.166-.217.2-.101.101-.099.121-.075.123-.068.116-.087.159-.082.147-.109.212-.099.176-.244.422.017.068-.229.651-.058-.176-.191-.326-.159-.087-.135-.084-.135-.08-.219-.142-1.309-.736-.169-.087-2.648-1.466-1.155-.639-1.425-.789-1.664-.924-2.059-1.145-1.228-.682-2.223-1.23-1.302-.721-.815-.449-2.059-1.136-.518-.287-.193-.111-.244-.135-1.666-.921-.656-.362-.998-.552-3.562-1.992,1.092-1.949.393-.69.634-1.114.921-1.657,1.126-2.021.996-1.785.61-1.109.137-.251.268-.485,1.003-1.826.994-1.84,1.035-1.821,1.085-1.968,1.061-1.961,1.039-1.826,1.039-1.828.581-1.131.42-.774.369-.663.615-1.112,1.049-1.876,2.397,1.326,1.16.641,2.284,1.283.224.128.745.42.289.164.301.166,1.65.928.137.077,1.473.832,1.338.728.275.15.605.33.335.183.996.543-1.044,1.891-1.015,1.813-1.02,1.869,4.944,2.732,5.269,2.87,1.003-1.833,1.008-1.823,2.086,1.194,2.737,1.63.34-.374.239.285.111.113.104.104.123.133.067.068.053.058.065.068" vector-effect="none" fill="#c1c1c1" fill-rule="evenodd" stroke="#232323" stroke-linecap="square" stroke-linejoin="bevel" stroke-width=".737"/>
      <path d="M385.009,238.871l.06,2.924.014,1.665.01,1.816-.034,1.856-.048,2.693-.258-.006v.033l.01.032-.017.026-.002.039.019.032v.046l-.024.055-.002.033.041.042-.024.084.014.078-.022.042.007.033-.024.052.019.07v.156l-.01.081-.005.091.024.088-.01.088.002.058-.036.075-.01.084.01.091-.012.088-.036.266-.007.102.014.048-.002.062.019.075-.017.068.019.11-.039.036.029.048-.024.058-.014.055.034.042-.005.065-.005.152.019.084.022.104-.055.107-.051.13.35.006-.014.675-.002.164-.002.115-.01.151-.007.11-.125,2.079-.113,1.549-.055.599-.068.777-.121,1.082-.096.744-.128.927-.191,1.656-.048.992-.022.463-.058,1.146.007,1.062.275,1.461.039.079.137.858.031.232,1.237,3.066.514.818.154.237.166.235.022.031.198.344.335.453.668.923.531.737,1.869,2.617.109.135.043.067.019.064.041.024.036.046.051.102.041.04.188.295.08.119.244.359.072.129.029.053.034.067.055.099.087.153.014.035.113.194.002.029.036.054.053.099.055.097.181.318.048.104.198.344.014.043.031.043.019.046.106.187.017.046.048.067.082.158v.027l.068.104.219.387.082.155.116.212.046.083.053.096.065.15.039.083.154.356.019.027.272.617.104.215.087.264-.01.018-.147.245.08.192.058.161.162.349.046.099.227.492.207.64.256.756.125.368.147.424.039.133.181.553.053.21.063.299.063.356.147.655.198.1.183.093.019.322.012.216.012.189.019.169.017.181.031.313.072.851.034.403.082.916-.039,1.153-.053,1.589-.058,1.895-.142,4.346-.039.2-.494,2.443-.063.125-.492.878-.335.615-.14.256-.285.504.072.058-.019.041.092.053-.051.099-.121-.053-.031.058-.031-.005-.048.087.039.027-.328.608-.084-.036-.198.35-.492.355-1.531,1.09-.692.49-.509.367-.297.215-.181.135-.299.222-.152.113-.6.444-.35.239-.065.043-.294.2-.451.342-.509.393-.306.234-.055.043-.47.364-.538.502-.352.326-.403.383-.446.41-.15.142-.376.34-.504.437-.695.625-.065-.068-.053-.058-.067-.068-.123-.133-.104-.104-.111-.113-.239-.285-.34.374-2.737-1.63-2.086-1.194-1.008,1.823-1.003,1.833-5.269-2.87-4.944-2.732,1.02-1.869,1.015-1.813,1.044-1.891-.996-.543-.335-.183-.605-.33-.275-.15-1.338-.728-1.473-.832-.137-.077-1.65-.928-.301-.166-.289-.164-.745-.42-.224-.128-2.284-1.283-1.16-.641-2.397-1.326.232-.42.116-.207.116-.21.111-.2.451-.813.065-.121.133-.236.101-.186.641-1.158.096-.174.106-.193.106-.191.675-1.22,1.131-2.045,1.088-1.967,1.013-1.824,1.008-1.826.641-1.175.354-.645-.244-.136-2.006-1.123-1.285-.718,1.03-1.818,1.02-1.849,1.022-1.803.996-1.816,1.283.705,1.363.748.666.366.227.123,1.08-1.952,1.085-1.957,1.001-1.814,1.006-1.805,1.008-1.813,1.003-1.812,1.003-1.823,1.049-1.882.603-1.088.236-.423.55-.994.174-.311.227-.413.154-.285,1.143-1.961,1.044-1.978.137-.247.866-1.556,1.013-1.76.205-.409.188-.348.125-.234.526-.979,1.944-3.494.518-1.105.405-.815.482-1.065.236-.52.118-.269-.022-.303-.335-2.087-.133-.743-.094.429-.203-1.063-.014-.084-.036-.509-.017-.232-.024-.554-.01-.289.164.086.193.11.434.23.632.172.005.22.005.171" vector-effect="none" fill="#c1c1c1" fill-rule="evenodd" stroke="#232323" stroke-linecap="square" stroke-linejoin="bevel" stroke-width=".737"/>
      <path d="M400.858,294.559l-.065.104-1.22-.714.294-.497.104.06-.224.398,1.112.649" vector-effect="none" fill="#c1c1c1" fill-rule="evenodd" stroke="#232323" stroke-linecap="square" stroke-linejoin="bevel" stroke-width=".737"/>
      <path d="M400.371,292.647l.832.533-.096.152-.646-.391.031-.075-.084-.053-.277.429-.113-.046.354-.55" vector-effect="none" fill="#c1c1c1" fill-rule="evenodd" stroke="#232323" stroke-linecap="square" stroke-linejoin="bevel" stroke-width=".737"/>
      <path d="M399.717,302.79l-.374.096.017.065-.714.224-.08-.236.716-.229.034.087.362-.116.039.109" vector-effect="none" fill="#c1c1c1" fill-rule="evenodd" stroke="#232323" stroke-linecap="square" stroke-linejoin="bevel" stroke-width=".737"/>
      <path d="M400.735,293.886l.403.232-.031.055-.417-.256.012-.024.024.012.01-.019" vector-effect="none" fill="#c1c1c1" fill-rule="evenodd" stroke="#232323" stroke-linecap="square" stroke-linejoin="bevel" stroke-width=".737"/>
      <path d="M399.717,302.79l.149.422.176.625.193.815.137,1.326-.002.051-.031.728-.039.933-.022.422-.072.415-.121.403-.169.383-.323.943-.036.145-.205.779-2.009,3.629-.068.15-.06.174-.041.354.01.357.157,1.534.588.567.441.395,1.469.195-.215.403-.096.07-.096.07-.569.82-.178.328-.516.748-.036.15.019.087.019.089.053.07.188.039.287-.051.205-.014.111.007h.159l.128-.106.142-.029.166.029h.164l.113-.051.212.043h.164l.256.031.198.043.082.017.301-.034.171-.125.135-.256.181-.398.031-.743-.082-.461-.309-.323-.157-.06-.135.007-.135-.121-.084-.277.159-.034.082-.019.444-.029.572.166,1.24.007.06.121-.014.099-.106-.005-.285-.101-.362-.053-.48.082-.294-.089-.518-.053-.121.113.046.089.234.089.374.113.248.121v.28l.014.21.092.391.055.171.087.258.007.256-.099.246.007.256.046.195.007.316-.092.28-.333.109-.362.005-.55-.121-.311-.087-.253-.07-.994-.063-1.546-.036-1.153-.415-.275.068-2.091-1.196-.128-.029-.133.07-2.086,1.126-.248-.106-1.399,1.488-1.389,1.876-.299.405-.354-.075-.649,1.575-.953,1.363-5.701,8.805-.111.68-.065.557-.275,1.3-.186.383-.113.473-.036.858.195.798.374.675.9.914.846,1.129,5.194.904,3.572.861.919.391.726.535,2.51,1.934,1.505,1.167.863.256.692-.203.203-.072.203-.075.133-.031.485-.116.412-.301,3.133-2.855.726-.285h.326l.195.075.029.012.176.08.391-.017.465-.065.424-.222.374-.393.14-.111.027-.007.253-.077.13-.195.106-.195.005-.01,2.088-1.982.47-.62.916-3.567.538-2.115.432-.711.227.152,7.461-10.818-.178-.142.058-.644.287-.313.682-.687.625-.383,1.621-.863.06.034.473.275,1.531-1.895-.299-.301,1.731-1.934.362-.174.475-.494,1.211-2.221,1.782-3.08-.048-1.963-1.401-3.35-2.248-4.059-2.086-1.804-.511-.502-2.812-1.464-.171-.051-2.055-1.044-.169-.084-.017-.007-.157-.089-.176-.106-.205-.121-2.378-1.435-.089-.137-.494-.711-.576-1.001-.429-.733-.227-.61-.446-1.095-1.268-1.889-.54-.359-1.056-.703-3.81-.336-2.021-.036-.034.009-.446.115-.453.423-.171.233-.109.256-.121.264-1.387,2.6-.096.152-.292.436.403.232-.08.118-.031.055-.248.386-.065.104-.244.323-.106.14-.063.135-.041.154-.041.147-.755,2.67-.468,2.313.082,1.196.357.88.133-.022.031.082.039.109" vector-effect="none" fill="#c1c1c1" fill-rule="evenodd" stroke="#232323" stroke-linecap="square" stroke-linejoin="bevel" stroke-width=".737"/>
      <path d="M390.314,157.317l-3.215-1.769-3.067-1.706-2.718-1.503-2.043-1.151-1.483,1.751-.207.266-.27.289-.224.289-.217.231-.176.225-.234.287-.666,1.982-.135.444-3.282-.813-2.014-.523-2.047-.477-1.522-.386-.938-.008-.579.042-.294.075-.285.175-.323-.048-.41-.067-.364.055-.562.087-.294.023.726-1.896.055-.143.289-.797.369-1.233.041-.137.065-.304-1.437-.326-.35-.092-.27-.067-.866-.213-.521-.129-.113-.028-.34-.093-2.173-.54-1.051-.265-1.02-.256-.191-.051-.075.196-.007.033-.022.088.014.035.002.043-.089.217-.012.091.068.082-.022.146.024.052.07.024.048.021.024.041-.046.023-.068.023-.046.057-.005.059.094.137.041-.003.019.03-.084.085.096.191.002.09-.017.03-.017.098.147.409.012.101.026.136.063.155-.002.325.039.13.058.09.123.143.051.102.029.104.031.399.092.142.031.118.034.269-.096.218.063.493.014.779.055.351-.002.187-.005.199-.039.599-.034.163-.065.45-.029.671-.111.266-.072.153-.06.189-.034.448.077.4.159.499.171.406.273.266.096.187.082.258.072.228.116.351.005.244-.169.271-.068.015-.106.087-.029.096.075.089.084.126-.075.005.029.112.06-.014.289.421.068.146.104.33.051.335.08.2-.012.078-.075.094-.027.216.039.08.031.098.068.21v.279l.031.262.041.081.012.094.029.061.068.758-.027.287.014.089-.046.344.026.17-.051.192.007.083.043.287-.007.123-.048.146-.012.326-.005.011-.157.391-.113.241-.142.324-.123.305-.195.582-.198.39-.15.29-.207.221-.099.162-.072.213-.178.32-.147.249-.055.231-.323.676-.029.062-.029.078-.075.289-.094.168-.142.143-.239.322-.234.707-.147.491-.111.346-.227.424-.116.401-.217.668-.234.703-.239.546-.35,1.013-.089.157-.133.192-.207.397-.15.561-.142.299-.212.766-.219.817-.181.42-.198.675-.166.633-.326,1.43-.063.202-.796,2.86.099.188.123.066h.005s.137.034.137.034l.166.033.041.051-.014.064-.084.029-.133.011-.152.029-.116.116-.08.178-.082.35-.041.519-.043.212-.053.034-.024.085-.065.235-.012.103.005.096.014.347-.022.172-.043.255-.058.201-.007.225-.094.313-.029.089-.2.596-.711,2.852.297.149.321.155.169.055.142.085.268.131.359.181.367.176.81-.204.152-.038,1.387.58,5.19,3.073.224.119.231.128,6.048,3.347,3.557,1.965.644.36,1.611.897-.053-3.19.227-.722.347-.672.767-1.377.186-.511.178-.495.256-.46.328-.413.388-.355,1.461-1.645.473-.492.393-.557.309-.609.212-.648.246-.736.81-2.325.791-2.261.733-2.105.678-1.909.335-.662.285-.434.314-.415.342-.393.369-.368.391-.34.285-.367h0s.248-.41.248-.41h0s.205-.446.205-.446h0s.152-.476.152-.476l.096-.496.036-.506h0s-.024-.505-.024-.505h0s-.084-.493-.084-.493h0s-.14-.471-.14-.471l-.186-.441h0s-.002,0-.002,0l-.227-.404-.314-.803-.35-1.226-.075-.307h0s-.031-.32-.031-.32h0s.012-.322.012-.322h0s.058-.316.058-.316h0s.096-.301.096-.301l.94-1.741,1.035-1.876.576-1.017.434-.761,1.092-1.969,1.066-1.929.181-.326.837-1.509.982-1.781.186-.322.118-.228.188-.333.063-.11.072-.11.068-.123.065-.123.142-.268.145-.268,1.006-1.818" vector-effect="none" fill="#c1c1c1" fill-rule="evenodd" stroke="#232323" stroke-linecap="square" stroke-linejoin="bevel" stroke-width=".737"/>
      <path d="M396.153,101.207l-1.358-1.497-1.432-1.554-2.052-2.26-.572-.574-.217-.217-.304-.343-.198-.213v-.853l-.135-.736-1.399-.762.043.065.186.182.063.175.036.168-.007.119-.012.052-.039.117-.072.19-.053.178-.497-.265.205-.661-.193-.059-.253.811.617.317-.231.487-.212.036-.253.168-.14.248-.002.189.07.033.178.016.212.037.104.075.058.141.022.476.051.081.01.128-.106-.023-.017.053-.101-.052-.316-.159-.024-.012.012-.024-.051-.022-.096.215.039.018.01.005-.231.509.051.023.005.003.007-.015.017-.038.077-.167.024-.052.07-.155.014-.03.08-.179.005-.008.101.051.287.161-.014.076.121.046-.029.087.017.161-.219,1.202.014.076.029.087.007.082-.029.336-.051.492-.084.365-.205.458-.065-.01-.111.298-.137-.053.034-.084-.429-.164-.135.355.306.118.014-.035.205.079-.376.741-.531,1.234-.125.381-.275.536-.147.011-.174.298-.075.255v.178l-.125.119-.178.303.007.216-.13.168-.35.815-.164.054-.191.184-.147.438v.466l-.142.168-.244.287-.087.189-.275.236-.171.666-.408.68-.301.504-.21.38-1.637,2.908-.822,1.223-1.119,1.795-.738,1.636-.017.138.034.107-.017.061-.347.334-.162.249-.116.384-.092.411-.48.78-.499.907-.014.156.077.075.048.034.002.044-.063.045-.393.43-.258.3-1.006,1.307-.236.623-.046.27-.14.18-.335.705-.007.101-.569.951-.277.596-.154.468-.246.428-.133.095-.181.35-.082.218-.458.781-.164.311-.212.158-.369.489-.154.339-.147.273-.137.066-.321.557-.125.366-.121.415-.183.489-.289.563-.164.459-.116.016-.048.115-.191.541-.224.295-.116.306.022.164-.072.156-.444.858-.07.191-.104.431-.215.322-.193.512-.01.024-.077.187-.099.257-.328.694-.212.344-.094.355-.408.621-.924,1.403-.299.3-.415.63-.504.654-.072.072-.926.929-.268.148-.429.096-.19.074-.171.156-.07.225-.048.121-.128-.045-.137-.035-.14.035-.055.114.024.135-.075.028-.101.111-.058.076-.017.097-.094-.007-.087-.086.022-.111-.055-.034-.07.021-.017-.005-.058.031-.039-.003.005-.028.036-.071-.039-.097-.162.041-.024.045-.096.052-.077-.034-.036.033-.014.095-.005.042.01.078-.012.034-.046.025-.113.042-.024.014-.222.123-.123.068-.099-.003-.063.087-.082.09-.048.094-.195.152-.092-.017-.157.062-.014.073.065.078-.022.08-.058-.007-.072.028-.022.045-.147.048.024.076-.039.031-.058-.031-.06-.003-.07.162-.084.028-.017.121h-.063l-.125.235-.089.083-.065-.045-.101-.003.007.09-.094.08h-.162l-.121-.052-.077-.007-.075.052-.183-.048-.154.047-.041.052-.012.177.096.175v.003l.024.071.012.079-.034.042-.051-.007-.031-.044-.027-.068-.002-.069-.024-.046-.031-.014-.031.06h-.031l.01.167.051.047-.053.152-.101.061-.07.127-.048.023-.041-.016-.027-.021-.024-.02-.031-.049.002-.067.051-.033.017-.055-.039-.071-.075-.064-.121-.051-.099.006-.096.05-.632.892-.026.036-.121.173-.125.179-.084.182.191.051,1.02.256,1.051.265,2.173.54.34.093.113.028.521.129.866.213.27.067.35.092,1.437.326-.065.304-.041.137-.369,1.233-.289.797-.055.143-.726,1.896.294-.023.562-.087.364-.055.41.067.323.048.285-.175.294-.075.579-.042.938.008,1.522.386,2.047.477,2.014.523,3.282.813.135-.444.666-1.982.234-.287.176-.225.217-.231.224-.289.27-.289.207-.266,1.483-1.751,2.043,1.151,2.718,1.503,3.067,1.706,3.215,1.769.511-.908.61-1.099.579-1.052,2.016,1.039,1.596-3.294.697-.928.921-.769.743-1.086.957-1.397.875-2.145.048-1.108.053-1.125-1.464-.833,1.006-1.824.969-1.749,3.335-6.11.711-1.164.593-1.227.104-.468.031-.478-.039-.477-.109-.466-.673-1.699-.174-.251-.207-.224-.236-.193-.26-.158-.33-.122-.345-.063-.35-.003-.347.057-.333.115-.306.17-.272.22-.232.264-.374.656-.444.608-.468-1.745.051-.481.104-.483.157-.476.212-.46.26-.435.309-.402.347-.362.379-.317.403-.269.424-.353.403-.397.369-.438.335-.475.292-.508.244-.534.195-.555.145-.568.026-.177.089-.42.072-.61.014-.511.299-.723.031-.129.082-.04-.051-.108-1.346-2.759-1.408-2.883-1.343-2.761-.644-1.314-.793-1.62-1.739-1.93-1.476-1.574" vector-effect="none" fill="#c1c1c1" fill-rule="evenodd" stroke="#232323" stroke-linecap="square" stroke-linejoin="bevel" stroke-width=".737"/>
      <path d="M410.255,133.322l-.07-.86v-.688l.068-.111-.06-.079-.012-.881.096-.071.089-.056.101.039.06-.081.116-.063.125-.165-.08-.018-.051-.035.024-.081.183-.039.065-.217.166-.166.063-.067.051-.058.041-.06.029-.028.051-.021.058-.002.08-.019.125-.042.092-.023.087-.042.039-.023.063-.033.058-.03.072-.069v-.185l-.048-.171-.012-.06-.014-.091.017-.076.063-.093.08-.079.133-.054.128-.065.084-.03.13-.06.178-.296.176-.084.451-1.655.053-.286-.034-.105-.026-.085-.101-.015-.022-.041-.147.029-.053-.017.019-.035.046-.015-.046-.037.012-.045.034-.085-.017-.066-.005-.058-.031-.045-.022-.025-.065-.012.017-.079.026-.116.068-.118-.031-.008-.007-.031-.031-.015-.039-.047.024-.027.012-.054-.065-.066-.087-.02-.034-.06-.048-.066-.065-.014-.039-.062-.014-.064.019-.076.012-.062.022-.027v-.06l-.036-.093-.048-.066-.07.015-.053-.008-.082-.035-.039-.052h.039l.055.033.07.029.039-.014-.024-.056-.034-.023-.041-.015-.046-.02-.051-.037-.024-.023-.024.002-.019-.037-.048-.037-.043-.044-.055-.048-.031-.025-.046-.017-.043-.048-.058-.029-.031-.048-.101-.002-.041-.037-.034-.021-.031.025-.029-.021-.036-.027-.029-.037-.089.008-.092-.029-.051-.033-.022-.039.041-.037-.087-.062-.039-.054-.012-.054.019-.118.017-.087-.002-.058.034-.027.012-.068.065-.015.029-.07-.075-.054-.041-.033.07-.035.029.033.043.021.087-.006.007-.039.022-.01-.036-.048-.024.002-.048-.076-.012-.068-.017-.019.002-.025.012-.012v-.05l-.036.006-.058-.039-.029-.039.01-.054.005-.043.039-.015-.002.052.029-.015v-.033h.077l.022-.058.041-.002-.031.031.077.004-.024.035.089.023.092-.01.002-.058-.048-.004-.002-.025.012-.033-.036-.048-.034-.008.022-.07-.039.014-.041-.008-.034-.039.002-.074h.058l.022-.062-.039-.052.027-.155.041-.217.06-.147.058-.213.096-.316.072-.077.031.002.058-.072v-.021l.128-.093.06-.035.082-.047.065-.06.041-.004.012-.012.041.008.113.076.149.26.289.471.234.514.311.644.022.042.15.363.121.136-.01.08.06.099.039.078.072.012.246.136v.021l.166.095-.017.033.022.017-.106.148.895.516.246.139.104.057.164.091.147.094.005-.02-.164-.122-.137-.068-.058-.04-.048-.016-.248-.151-.06-.019-.224-.122-.022-.025-.075-.044-.06-.022-.123-.072-.301-.173.039-.062.022.01.046-.074.034-.044.118.053.171.095-.019.026.424.223.608.33.579.326v.02l.048.023.048-.022.046-.066.094-.121.082-.128.14-.188.234-.328.21-.28.292-.408.222-.304.039-.061.236-.313-.051-.033.178-.245-.041-.018.116-.165-.036-.033.019-.036-.002-.018.036-.039.026.027.053-.083.048-.042.024-.086.012-.069-.014-.08.051-.089.063-.039.068-.033.063-.092.019-.06.053-.063.036.003.034-.078.01-.08.007-.033.039.024.039-.092-.014-.046.026-.114.024-.101.034-.075-.162-.075.379-.533.463-.629.224-.322.048-.052.099-.152-.084-.034v-.033l.043-.041-.005-.03.048-.069.012-.03.026-.002.007-.047.046-.09.043-.051-.007-.092-.024-.048.029-.08-.012-.053.043-.06.051-.087.123-.15.089-.139.07-.082.094-.116.048-.044.046-.046.017-.043.036-.047.031-.037.039-.041.027-.039.051-.103.046-.089.109-.165.005-.135.065-.111.08-.135.106-.181.053-.044.087-.122.171-.216.135-.144.379-.208.092-.064.06-.029.123-.041.022-.025.01-.013.043-.051.014-.019.017-.019.034-.039.014-.019.14-.152.031-.036.019-.02.048-.049.034-.036.012-.013.06-.033.075-.052.022-.014.072-.05.145-.149.058-.059.019-.019.253-.261.113-.116.043-.046.08-.058.142-.136.335-.415.002-.002.039-.049.142-.163.01-.013.017-.017.041-.048.043-.058.084-.11.135-.185.058-.078.024-.041.022-.025.118.068.034-.002.022-.027-.014-.009.024-.026.019.015.039-.039-.029-.02.022-.044.101.061.046-.082.109-.199.14-.226-.053-.031.145-.202-.145-.09-.026.004-.072-.041.01-.071-.019-.07-.029-.068-.027-.059.017-.132.019-.048.092-.194.022-.055.094-.235.027-.054.039-.049.08-.076.026-.024.092-.056.08-.067.039-.032.055-.082v-.081l-.002-.079v-.025l-.005-.126-.005-.162-.002-.05-.007-.056-.005-.053-.017-.138-.046-.089-.055-.058-.058-.068-.096-.092-.14-.082-.022-.002-.046-.004-.077.01-.118.035-.198-.013-.072-.014-.113-.033-.13-.026-.034-.002-.106-.019-.094-.033-.048-.024-.039-.019-.058-.049-.063-.078-.01-.09-.01-.111.026-.111.053-.08.084-.052.096-.026.128-.021.104-.002.104-.021.058.005.014.113.393-.071-.01-.146.053-.009.012-.059-.007-.031.391-.045.191-.016.183-.026.024.005.068.028,1.396.763-.14-.4-.147-.293-.856-.456.01-.031,1.179-.129.171-.003.13-.06.186-.06.287-.129.227-.084.039-.018.162-.299.716-1.218.88-1.493.641-1.092.617-1.04-.01-.04-.395-.222.251-.391.364-.584.49-.799.292-.458.229-.386.321-.484-.14-.08.041-.075.007-.063.041-.034.055-.049.048-.037.039-.062.019-.061.007-.106-.034-.041.026-.039h.036l.026-.051.034-.064-.005-.09.046-.033-.005-.04.027-.036-.002-.048v-.029h-.017l.007-.029-.005-.06.01-.04.036-.075.096-.102.031-.055.063-.059.051-.034.048-.051.087-.121.012-.055.024-.002.022-.047.019-.064.029-.15v-.059l.022-.097.089-.199.051-.043.019-.062.043-.146.058-.059.012-.066.027-.051-.007-.066.034-.032.019-.053-.012-.085.012-.038-.019-.064.01-.053-.017-.045.007-.032.014-.05.053-.065.046-.066.07-.04.113-.009.077-.036.036-.01.012-.043.031-.073-.024-.04.043-.054-.031-.059.034-.097.058-.038v-.036l.036-.034-.007-.053.01-.049.043-.097.053-.127-.068-.034-.077-.034h-.046s-.012-.102-.012-.102l-.514-.288-.005-.066-.08-.024-.014-.021-.036-.009-.017-.028-.087-.038-.017-.104-.007-.121.024-.064.053-.053.128-.082.077-.004.094.041.106.066.147.083.125.049.164.096.041-.038.068.007.048.041.068-.017.07-.074-.048-.045.012-.108.048-.102-.014-.04.019-.03.002-.059-.019-.032.034-.049.027-.08.046-.055.051-.017-.068-.034.002-.072.022-.087.024-.051-.034-.013.036-.102.014-.074.029-.051-.002-.03-.017-.019v-.068l.036-.059v-.049l.014-.044.039-.08-.014-.013.007-.066.017-.104-.012-.064.019-.032v-.07l-.007-.13.053-.154.002-.064.014-.093.007-.078.046-.091-.036-.051-.007-.115.012-.099.007-.155-.029-.047.036-.068.014-.032-.031-.131.005-.093.019-.061-.01-.049.01-.04.005-.032.053-.14-.043-.062.017-.119.024-.116.017-.057.007-.07.053-.044.002-.059.027-.053.002-.074-.048-.091-.031-.053-.022-.076.017-.067.027-.069.022-.069.027-.048.046-.017.019-.038.005-.029.07-.17.036-.055.026-.074.027-.026.043-.16.017-.036-.019-.05.034-.072.051-.036.019-.048.041-.015.046-.034.017-.071.039-.028.031-.042-.029-.037-.01-.038.002-.086.012-.08.034-.007.005-.057-.036-.014-.01-.033-.014-.218-.017-.191-.027-.155-.014-.099-.012-.092-.022-.186-.051-.235-.06-.232-.019-.093.034-.044-.005-.072-.053-.169-.08-.198-.096-.224-.01-.099-.046-.063-.06-.131-.147-.258-.152-.191-.183-.163-.065-.1-.039-.025-.012-.078-.029-.047-.027-.087-.043-.093-.06-.076.007-.068-.043-.085-.063-.074-.046-.072.012-.049-.01-.049-.111-.17-.029-.038-.029-.053.012-.03-.022-.011-.014.011-.075-.125-.109-.104-.068-.083-.121-.104-.147-.157-.198-.159-.326.32-.219.216-.265.342-.222.372-.627.841-.716.766-1.486,1.543-1.201,1.231-.432.407-.178-.099-.125-.063-2.006-1.12-2.694-1.487-1.975-1.105-2.773-1.488-2.267,2.211-.531.54.984,3.066-3.62,3.288-1.399,1.242-.646.479-.697.4-.446-.904-3.258,1.283-5.24,1.471-.429.356-1.343,1.278-3.798,3.518,1.476,1.574,1.739,1.93.793,1.62.644,1.314,1.343,2.761,1.408,2.883,1.346,2.759.051.108.041.09.101.191.142.281,1.174,2.453.989,1.901,1.493,2.864.154.165.154,3.733.092,2.166.005.693-.036.692-.039.413-.15.959.569.279.613.286" vector-effect="none" fill="#c1c1c1" fill-rule="evenodd" stroke="#232323" stroke-linecap="square" stroke-linejoin="bevel" stroke-width=".737"/>
      <path d="M410.246,133.311l.121.072v-.048l.024-.024.024-.048.024-.072.048-.121.048-.072.072-.145.048-.121h.024l.024-.024h.024v-.096l.193-.338h.024l.458-.844.145.072.145-.265.048.024.169-.313.169-.289-.41-.217-.145.314-.145.289.024.024-.145.289.024.024-.169.338-.265.506.024.024-.193.338h-.024l-.024.024h-.024v.096l-.024.048-.289.506-.024.024v.024h-.024" vector-effect="none" fill="#c1c1c1" fill-rule="evenodd" stroke="#232323" stroke-linecap="square" stroke-linejoin="bevel" stroke-width=".737"/>
      <path d="M410.255,133.322l-.613-.286-.569-.279.15-.959.039-.413.036-.692-.005-.693-.092-2.166-.154-3.733-.154-.165-1.493-2.864-.989-1.901-1.174-2.453-.142-.281-.101-.191-.041-.09-.082.04-.031.129-.299.723-.014.511-.072.61-.089.42-.026.177-.145.568-.195.555-.244.534-.292.508-.335.475-.369.438-.403.397-.424.353-.403.269-.379.317-.347.362-.309.402-.26.435-.212.46-.157.476-.104.483-.051.481.468,1.745.444-.608.374-.656.232-.264.272-.22.306-.17.333-.115.347-.057.35.003.345.063.33.122.26.158.236.193.207.224.174.251.673,1.699.109.466.039.477-.031.478-.104.468-.593,1.227-.711,1.164-3.335,6.11-.969,1.749-1.006,1.824,1.464.833-.053,1.125-.048,1.108-.875,2.145-.957,1.397-.743,1.086-.921.769-.697.928-1.596,3.294-2.016-1.039-.579,1.052-.61,1.099-.511.908-1.006,1.818-.145.268-.142.268-.065.123-.068.123-.072.11-.063.11-.188.333-.118.228-.186.322-.982,1.781-.837,1.509-.181.326-1.066,1.929-1.092,1.969-.434.761-.576,1.017-1.035,1.876-.94,1.741-.096.301h0s-.058.316-.058.316h0s-.012.322-.012.322h0s.031.319.031.319h0s.075.308.075.308l.35,1.226.314.803.227.404h.002s.186.441.186.441l.14.471h0s.084.493.084.493h0s.024.505.024.505h0s-.036.506-.036.506l-.096.496-.152.476h0s-.205.447-.205.447h0s-.248.409-.248.409h0s-.285.368-.285.368l-.391.34-.369.368-.342.393-.314.415-.285.434-.335.662-.678,1.909-.733,2.105-.791,2.261-.81,2.325-.246.736-.212.648-.309.609-.393.557-.473.492-1.461,1.645-.388.355-.328.413-.256.46-.178.495-.186.511-.767,1.377-.347.672-.227.722.053,3.19.453.249.157-.343.159-.711.029-.112.183-.525.268-.416.109-.137.35-.487.338-.513.229-.569.188-.65.089-.261.287-.706.241-.514.386-.715.427-.684.637-.818.702-.763,1.493-1.55.639-.631.887-.93,1.934-1.87.924-.934.538-.581.222-.239.236-.282.4-.604.087.043.403.201.2-.639.109-.342.06-.19.191-.549.21-.562.193-.489.231-.577.297-.693.301-.605.236-.543.142-.363.106-.234.135-.337.2-.472.217-.498.152-.354.306-.704.362-.982,1.394-3.287.721-1.691.673-1.594.376-.88.299-.706.545-1.364.178-.401.186-.522.017-.139.036-.079.029-.05.099-.376.065-.242.051-.18.104-.35.106-.383.022-.1.053-.164.101-.369.104-.365.118-.429.174-.626.101-.347.111-.351.157-.479.118-.307.116-.307.123-.315.147-.363.118-.261.123-.272.106-.227.104-.222.094-.168.128-.239.417-.791.106-.2.121-.238.089-.172,1.686-3.153.065-.125.077-.144.072-.149.068-.144.386-.721.174-.324.362-.684.704-1.338.287-.558.263-.517.328-.599.304-.595.427-.821.461-.821.485-.891.523-.993.041-.076.461-.892.297-.587.031-.107.058-.074.217-.43.041-.084.162-.331.051-.088.212-.418.024-.088.094-.156.145-.278.169-.337.111-.2.043-.119.133-.262.099-.187.039-.037.019-.062.08-.162.082-.144.087-.15.024-.081.106-.143.67-1.266.504-.97.95-1.734.89-1.57.417-.723.625-1.057.509-.86.181-.3.33-.556.593-.96.268-.421-.039-.026-.106-.054" vector-effect="none" fill="#c1c1c1" fill-rule="evenodd" stroke="#232323" stroke-linecap="square" stroke-linejoin="bevel" stroke-width=".737"/>
      <path d="M401.243,69.595l-.024.033-.145-.024-.109.1-.169.221-.642.846-1.391,1.471-.96.271-.154.103-.244.174-.403.491-.574.748-.933,1.039-.367.532-.306.759-1.196,2.546-.251.231-1.558,3.435-.355.784-.477.641-.35.963-.342.659-.203.903-.292.621-.403.725-.285.595-.26,1.082-.034.506-.166.593-.183.821.017.731,1.399.762.135.736v.853l.198.213.304.343.217.217.572.574,2.052,2.26,1.432,1.554,1.358,1.497,3.798-3.518,1.343-1.278.429-.356,5.24-1.471,3.258-1.283.446.904.697-.4.646-.479,1.399-1.242,3.62-3.288-.984-3.066.531-.54,2.267-2.211,2.773,1.488,1.975,1.105,2.694,1.487,2.006,1.12.125.063.178.099.432-.407,1.201-1.231,1.486-1.543.716-.766.627-.841.222-.372.265-.342.219-.216.326-.32-.137-.102-.133-.089-.972-.645-.465-.302-.47-.263-.239-.11-.268-.109-.347-.089-.2-.027-.133.005-.123-.034-.104-.044-.113-.071-.121-.102-.099-.044-.113-.025-.335-.128-.193-.108-.702-.204-.207-.089-.444-.183-.053-.03-.907-.368-.769-.284-.195-.071-.34-.109-.391-.047-.388-.047-.236-.024h-.178l-.275.024-.277.014-.181.043-.251-.01-.289-.059-.205.041-.111.067-.27.054-.188.124-.21.095-.236.083-.154-.008-.195.062-.075.129-.154.062-.191.1-.121.021-.229.104-.224.1-.137.15-.116.112-.145.125-.096.037-.311.343-.029-.16-.012-.007.398-.785.041.021.422-.857-.171-.083-.424.855.034.017-.383.784-.027-.012-.212.25-.031.101-.017.037-.099.008-.041.031-.055.044-.034.087-.036.064-.043.046-.104.049-.109.064-.072.059-.053.067-.046.049-.031.039-.053.013-.014.044-.014.059v.046l.051.067-.024.033-.058-.008-.034-.041-.034-.01-.058.069-.07.056-.075.054-.026.039-.053.002-.034.067-.034.095-.002.1.036.1.041.041.137.092.082.039.104.072.068.049.043.11.014.067-.039.034h-.07l-.089.005-.043.011-.007-.019-.01-.024-.019-.02h-.022s-.01.001-.01.001l-.043-.026-.034-.045v-.021l.002-.019-.012-.033-.036-.044-.036-.024h-.031s-.031.005-.031.005l-.022.007-.017.01-.01.025-.014.025-.027.022-.053.006-.024.011-.014.005h-.014l-.007-.008.002-.012.012-.014.017-.02.022-.019.005-.02-.017-.015-.019-.019v-.043l-.014-.007-.012-.015-.026-.014-.022-.01-.024-.023-.017-.028-.022-.019-.027-.008-.026-.005-.027.002-.022.007-.017.002-.019-.002-.022.006-.027.01-.01.019-.017.02-.024.002h-.031l-.041.007-.029.023-.154-.166-.118-.152-.104-.172-.118-.193-.068-.131-.084-.041-.041-.007-.075-.11.06-.027-.026-.248.014-.255.089-.241.034-.242v-.234l.014-.173.027-.048.063-.117.077-.104.019-.172.041-.096-.005-.069.053-.09.063-.103.084-.062.123-.214.128-.132.077-.177-.058-.177-.154-.093-.123-.117-.215-.117-.077-.069-.101-.021-.174-.062-.323-.172-.248-.152-.096-.02-.077-.014-.07-.076-.082-.007-.075-.048-.096-.097-.166-.138-.137-.055h-.159l-.055.007-.166-.083-.164-.103-.2-.11-.096-.062-.077-.117-.2-.104-.215-.096-.186-.124h-.089l-.096-.041-.152-.096-.089-.069-.099-.056-.152.04-.041.018-.022-.024-.022.004-.01.033-.024.02-.002.027-.055.024-.031.031-.019.053-.027.044-.046.024-.029.027-.026.07-.046.07-.012.031-.039.046-.055.022-.005.027-.012.026.019.042-.014.042-.036.011-.01.037-.005.035-.026.009.005.009-.036.022.005.022-.026.015.002.022-.01.022.007.044v.027l-.027.018.014.059v.033l.019.033.024.051.034.084.058.101.072.103.058.052.051.075.036.092.034.022.029.04v.051l.034.066.055-.004.019.044.024.042.01.04.017.004.002.053-.019.053.007.031.031.035.031.053.01.048.01.046.031.035.036.036.019-.002.01.035-.007.027.029.042.029.022v.022l.014.037.022.029-.01.042.034.04-.01.046.024.022.002.024.031.06.026.061-.007.068.034.042.039.061.022.07.034.042-.024.013.031.113.024.072.036.077.019.053-.323.185.012.062.031.044.041.004.314-.167.046.081.065.076.072.103.099-.043.055.067.072.088.08.066.118.096.133.101.152.109-.041.046.06.055.041-.05.089.068-.034.052.058.041.031-.052.289.226.029.003.024.044-.014.028.017.063.014.072.012.05.005.033.012.041.012.024-.01.061-.01.063.034.028.039.044.055.015h.06s.089-.01.089-.01l.087.018v.116l-.08-.012-.099.008-.07-.008-.014.044-.034.002-.005.013-.034.035-.01.066-.007.042-.029.025.01.057.002.075-.014.046.024.061-.005.118-.031.033-.019.051-.022.078-.063.088-.067.117-.029.086-.048.055-.041.038-.048.038-.019.046-.036.031-.039.04-.058.007-.065.047-.075.083-.041.044-.034.022-.022-.022-.06.047-.063.029-.065.021-.084.053-.072.029-.07.036-.08.044-.065.053-.031.01-.075.012-.075-.022-.048-.02-.053.004-.012-.022-.036-.012-.058.03-.335.005-.326-.085h-.19l-.49-.24-.465-.286-.436-.329-.4-.369-.367-.406-.323-.439-.282-.468-.234-.493-.186-.513-.137-.528-.084-.539-.034-.545.019-.545.07-.541.123-.532.171-.518.111-.356.019-.372.118-1.382.022-1.387v-.032l-.024-.012-.024-.049-.041-.016-.014-.045-.118-.089-.034-.049-.101-.065-.068.042-.051-.026.022-.036.01-.051-.014-.002.007-.029-.01-.022-.024-.022-.029.02-.024-.007-.005-.044-.048.046-.06-.01-.096-.035-.08-.064-.053-.052-.041-.013-.041-.009.012-.033.026-.042-.019-.025-.014.024-.046-.003-.063-.019-.101-.04-.041-.023-.099-.073-.063-.107-.005-.013-.162-.121-.058-.071-.053-.064-.065-.037-.075-.044-.239-.138-.559-.107-.145.017-.265.102-.282-.028-.316-.137-.88-.231-.461-.102-.473.027-.439.15-.104-.062-.019-.012-.166.253-.039.161-.449.285-.497.194-.523.095-.531-.006-.272-.019-.251-.113-.193-.193-.113-.249.039-.216.104-.193.101-.054.075-.087.039-.108-.002-.115-.029-.079.029-.042-.118-.079-.121-.085" vector-effect="none" fill="#c1c1c1" fill-rule="evenodd" stroke="#232323" stroke-linecap="square" stroke-linejoin="bevel" stroke-width=".737"/>
      <path d="M407.424,65.884h-.024l.048-.169-.096-.024-.048.145h-.024l-.024.145h.024l-.024.121.096.024.024-.121.048-.121h0" vector-effect="none" fill="#c1c1c1" fill-rule="evenodd" stroke="#232323" stroke-linecap="square" stroke-linejoin="bevel" stroke-width=".737"/>
      <path d="M351.045,304.21l-1.136-.651-2.638-1.469-3.162-1.76-.193-.096-.157-.08-.518-.297-5.424-3.002-.077-.041-.101-.058-.14-.075-5.515-3.043-.68-.195-.355.632-.629,1.129-1.01,1.813-1.015,1.842-1.088,1.977-1.088,1.946-.494.907-.514.924-1.015,1.823-1.013,1.835-1.015,1.823-1.018,1.787-.342.641-.227.432-.306.55-1.088,1.946-.21.374-.815,1.505-1.126,2.028-1.083,1.958-.996,1.813-1.03,1.835-1.01,1.823-1.008,1.83-.969,1.792-1.054,1.857-1.01,1.818-1.027,1.806-.521.972-.051.106-.499.9-1.097,1.982-1.032,1.847-1.015,1.845-1.02,1.842-1.105,1.99-4.078,7.391-1.095,1.953-.499.892-.528.96-.49.88-.545.979-1.01,1.828-1.095,1.973-1.109,1.997-1.003,1.811-1.013,1.826-1.006,1.816-1.006,1.813-.972,1.78-1.037,1.854-1.015,1.818-1.015,1.821-.998,1.811-1.013,1.838-1.449,2.563.292.229.198.311.055.236.005.241-.043.236-.092.224,5.334,2.918,1.58.88,4.7,2.609,4.51,2.52,1.23.687,1.372.846,1.018-1.799,1.006-1.799.994-1.818,1.022-1.823,1.008-1.811.986-1.835,1.008-1.804.68-1.218.335-.598,1.015-1.83,1.022-1.789.989-1.833,1.013-1.828,1.092-1.99,1.112-1.973,1.018-1.838,1.025-1.845,1.02-1.85,1.015-1.84,1.015-1.84,1.03-1.862.077-.159,1.095-1.949.21-.381.813-1.469,1.022-1.842,1.025-1.85,1.037-1.876,1.013-1.823,1.092-1.939,1.09-2.002.996-1.801,1.01-1.826.977-1.809,1.025-1.828,1.032-1.833,1.044-1.847.979-1.806,1.01-1.806,1.066-2.009,1.092-1.949.393-.69.634-1.114.921-1.657,1.126-2.021.996-1.785.61-1.109.137-.251.268-.485,1.003-1.826.994-1.84,1.035-1.821,1.085-1.968,1.061-1.961,1.039-1.826,1.039-1.828.581-1.131.42-.774" vector-effect="none" fill="#c1c1c1" fill-rule="evenodd" stroke="#232323" stroke-linecap="square" stroke-linejoin="bevel" stroke-width=".737"/>
    </g>
    <path d="M344.69,261.886l-3.186-1.764-1.184-.666-2.481-3.7-1.112-1.713-1.218,2.193-1.804-2.629-.07-.107-.137-.207-1.454-2.187-.82-1.233-.06-.092-.15-.229-.137-.189-.084-.119-2.426-3.516-2.636-1.46-.736-.401-.813-.492-.412-.267-.135-.087-.113-.078-.289-.164-.178-.07-.289-.113-1.519,2.086-.805,1.053-.094.148-.61.787-1.625,2.652-.405.752-1.698,3.467-.029.128-.528.976-.314.558v.002l-.374.722-.294.495-.2.371-.492.98-.116.138-.263.514-.251.481-.304.547-.229.381-.256.5-.294.604-.089.243-.176.414-.084.081-.198.385-.598,1.061-.314.723-.169.414v.133l-.104.1-.082.181-.039.157-.162.195-.188.357-.005.124-.171.295-.379.742.034.109-.08.119-.191.3-.41.78-.084.219-.178.504-.029.21-.231.318-.42.614-.142.352-.383.583-.046.069-.989,1.775-.47.785-.244.466-.728,1.247-.555.905-1.418,2.424.265.137.323.167.171.081.154.079,2.002.957,2.604,1.247.106.05.142.062.986.431,2.749,1.382.224.113.229.13.933.517.309.171,1.039.574.304.169,2.395,1.323,1.061.588,6.147,3.401,3.159,1.869,1.102-1.997,1.013-1.819.969-1.85.099-2.289-.07-1.46-.017-.365-.029-.556-.068-1.293-.012-.334.031-.333.075-.326.118-.313,1.03-1.982.058-.101.907-1.639.041-.077,1.015-1.829.719-1.29.065-.114.178-.321.055-.099,1.015-1.827,1.001-1.822,1.022-1.847,3.07,1.706.661-1.171.436-.623,1.076-1.951,1.08-1.969" vector-effect="none" fill="#618acf" fill-rule="evenodd" stroke="#232323" stroke-linecap="square" stroke-linejoin="bevel" stroke-width=".737"/>
    <path d="M357.966,233.35l-.716,2.008-.695,1.97-.699,1.993-.69,1.956-.699,1.974-.75,2.147-.769,2.157-.707,1.982-.359.974-.393.962-.432.947-.465.93-.468.851h0s-.497.833-.497.833l-1.076,1.861-1.276,1.698-.118.155-1.153,1.494-1.314,1.642-3.186-1.764-1.184-.666-2.481-3.7-1.112-1.713-1.218,2.193-1.804-2.629-.07-.107-.137-.207-1.454-2.187-.82-1.233-.06-.092-.15-.229-.137-.189-.084-.119-2.426-3.516-2.636-1.46-.736-.401-.813-.492-.412-.267-.135-.087-.113-.078-.289-.164-.178-.07-.289-.113.335-.5,1.237-1.848.815-1.211,1.104-1.644.989-1.47.408.247.936-1.62.142-.265.094-.142.335-.506-.169-.113-.121-.081-.089.133-.273-.181.615-.927.253.167-.446.686.128.082.193.125.598-.907-.273-.148.193-.306.241-.38-.482-1.651-.082-.104-.248-.131-.258.488-1.502-.825.678-1.231,1.495.821-.273.495.292.16.111.104.063.131.415,1.413.012.041.26.176.721-1.277.072-.508.082-.212.123-.233.299-.474-.639-.329.048-.1.14-.287-2.255-1.251-.039-.021-.567-.3-.055-.026-.041-.022-.034-.024-.012-.013-.012-.013-.048-.068-.017-.029-.01-.029-.005-.017v-.007l.024-.109-.048-.026.916-1.813,3.817,3.031.417.138.154.035.152.035.562.106.692.13.386.081,1.259.546.087.038.075.043,4.254,2.373.217.119.217.121,1.464.81,4.594,2.522.996-1.795,1.003-1.821,3.051,1.697,1.008-1.803,1.864,1.028,2.561,1.424" vector-effect="none" fill="#1257cc" fill-rule="evenodd" stroke="#232323" stroke-linecap="square" stroke-linejoin="bevel" stroke-width=".737"/>
    <path d="M370.597,206.631l.453.249,1.136.627.424.231.371.225.593.318.789.435-.707,2.187-.634,2.005-.972,1.859-.991,1.796-1.003,1.817-1.001,1.805-1.001,1.806-.998,1.793-1.044,1.875-1.09,1.885-.687.986-.596.853-1.199,1.675-1.223,1.713-1.225,1.694-2.028-1.115-2.561-1.424-1.864-1.028-1.008,1.803-3.051-1.697-1.003,1.821-.996,1.795-4.594-2.522-1.464-.81-.217-.121-.217-.119-4.254-2.373-.075-.043-.087-.038-1.259-.546-.386-.081-.692-.13-.562-.106-.152-.035-.154-.035-.417-.138-3.817-3.031.273-.542.046.022,3.436-6.835.393-.781.685.339,1.389-2.742.26.125-.007.012-.046.078,2.617,1.325.752-1.467.345.165.169-.327h0s.053-.095.053-.095l.176-.323.195-.345.123-.206.104-.155.072-.095.166-.2.063-.082.027-.037.077-.118.07-.122.801-1.489,1.355-2.884,1.741-3.449.6-.995.231-.595.335-.444.229-.457.518-1.003.277-.464.096-.42.21-.403.024-.291.072-.343.123-.415.193-.437.128-.232.176-.227.101-.172.248-.399.123-.282.065-.172.077-.282.068-.127.171-.238.123-.26.159-.133.297.149.321.155.169.055.142.085.268.131.359.181.367.176.81-.204.152-.038,1.387.58,5.19,3.073.224.119.231.128,6.048,3.347,3.557,1.965.644.36,1.611.897" vector-effect="none" fill="#0c3275" fill-rule="evenodd" stroke="#232323" stroke-linecap="square" stroke-linejoin="bevel" stroke-width=".737"/>
  </g>
  <g>
    <path d="M307.154,174.696c0,11.099,9.908,22.198,21.046,27.202" fill="none" stroke="#000" stroke-linecap="round" stroke-linejoin="round" stroke-width="2"/>
    <path d="M339.96,204.652c-6.024.639-13.741,2.383-18.915,4.994l5.683-8.367-.985-10.065c3.292,4.77,9.232,9.995,14.216,13.438Z"/>
  </g>
  <g>
    <path d="M280.927,208.737c12.597,7.76,22.354,13.616,33.02,19.534" fill="none" stroke="#000" stroke-linecap="round" stroke-linejoin="round" stroke-width="2"/>
    <path d="M324.56,234.02c-5.989-.915-13.895-1.193-19.563.017l7.625-6.646,1.609-9.984c1.97,5.45,6.385,12.015,10.328,16.613Z"/>
  </g>
  <g>
    <path d="M265.083,268.44c5.592-9.587,19.742-14.183,31.885-12.894" fill="none" stroke="#000" stroke-linecap="round" stroke-linejoin="round" stroke-width="2"/>
    <path d="M308.514,259.092c-6.04.465-13.804,1.986-19.051,4.448l5.922-8.2-.694-10.089c3.153,4.862,8.941,10.256,13.823,13.842Z"/>
  </g>
<style>
#g-neighborhoods-tablet-cb9-img rect, #g-neighborhoods-tablet-cb9-img circle, #g-neighborhoods-tablet-cb9-img path, #g-neighborhoods-tablet-cb9-img line, #g-neighborhoods-tablet-cb9-img polyline, #g-neighborhoods-tablet-cb9-img polygon { vector-effect: non-scaling-stroke; }
</style>
</svg>
